<?xml version="1.0" standalone="no"?>
<!DOCTYPE svg PUBLIC "-//W3C//DTD SVG 1.1//EN" "http://www.w3.org/Graphics/SVG/1.1/DTD/svg11.dtd" >
<svg xmlns="http://www.w3.org/2000/svg">
<metadata>Generated by IcoMoon</metadata>
<defs>
<font id="glyph-smooth" horiz-adv-x="1024">
<font-face units-per-em="1024" ascent="960" descent="-64" />
<missing-glyph horiz-adv-x="1024" />
<glyph unicode="&#x20;" horiz-adv-x="512" d="" />
<glyph unicode="&#xe900;" glyph-name="st-position1" d="M318.958 275.305v-251.806c0-18.963 10.241-36.407 26.926-45.509 16.69-9.104 37.171-8.345 53.097 1.896l113.019 73.197 113.398-73.197c14.13-9.637 34.006-11.703 52.718-1.896 16.69 9.102 26.931 26.167 26.931 45.13v251.963c88.329 62.766 141.083 162.725 141.083 272.174 0 184.699-149.806 334.507-334.13 334.507-184.319 0-334.13-149.808-334.13-334.507 0-109.319 52.639-209.167 141.088-271.951zM411.5 653.828l71.676 53.097c11.759 8.343 26.926 9.481 39.824 3.035 12.514-6.449 20.481-19.343 20.481-33.755v-219.59h21.616c20.856 0 37.926-17.067 37.926-37.926 0-20.861-17.069-37.926-37.926-37.926h-128.19c-20.861 0-37.926 17.065-37.926 37.926 0 20.859 17.065 37.926 37.926 37.926h30.722v144.498l-11.38-8.345c-16.685-12.516-40.583-8.722-53.097 7.965-12.134 17.067-8.722 40.581 8.347 53.095z" />
<glyph unicode="&#xe901;" glyph-name="st-position" d="M896.194 575.336c-3.796 3.032-8.347 8.343-7.208 16.308 6.449 58.025-13.653 115.294-55.375 156.634-40.954 41.338-97.468 61.060-155.87 54.991-9.102-0.757-14.037 4.174-16.69 7.206-75.83 94.78-220.388 95.251-297.718 0.38-2.278-3.412-7.963-8.343-16.685-7.586-121.264 13.566-224.751-89.264-211.25-211.625 0.759-8.345-4.171-14.032-7.204-16.687-45.514-36.41-71.306-90.644-71.306-148.671 0-57.646 26.171-111.88 71.306-148.669 3.032-2.655 8.343-7.965 7.204-16.687-6.069-58.025 13.653-114.914 54.991-155.875 41.343-41.718 98.611-61.819 156.639-55.373 7.963 1.139 13.269-3.412 16.306-7.206 77.366-94.916 221.703-94.218 297.718 0 2.653 3.414 8.347 8.345 16.69 7.586 58.028-6.447 114.917 13.653 155.87 54.993 41.343 40.961 61.444 97.85 54.995 155.875-0.759 8.722 4.171 14.032 7.588 16.687 94.347 76.118 94.767 220.466 0 297.72zM590.888 325.403c23.134 0 41.718-18.583 41.718-41.718 0-23.137-18.583-42.1-41.718-42.1h-157.773c-23.134 0-41.718 18.963-41.718 42.1 0 23.134 18.583 41.718 41.718 41.718h37.171v202.525h-37.171c-23.134 0-41.718 18.583-41.718 41.718s18.583 42.097 41.718 42.097h157.773c23.134 0 41.718-18.963 41.718-42.097s-18.583-41.718-41.718-41.718h-37.167v-202.525h37.167z" />
<glyph unicode="&#xe902;" glyph-name="st-position-trophy" d="M797.208 50.843h-45.618v52.296c0 26.678-21.625 48.303-48.301 48.303h-42.75c-28.787 55.725-49.252 122.794-65.167 194.035 110.743 35.271 191.525 139.19 191.525 261.69 0 151.324-123.259 274.583-274.583 274.583-151.704 0-275.343-123.259-275.343-274.583 0-122.5 80.782-226.419 192.285-261.69-15.914-71.241-36.377-137.931-65.544-194.035h-43c-26.678 0-48.303-21.625-48.303-48.303v-52.296h-45.618c-21.884 0-39.63-17.745-39.63-39.63 0-21.887 17.745-39.63 39.63-39.63h570.417c21.887 0 39.63 17.743 39.63 39.63 0 21.884-17.743 39.63-39.63 39.63zM453.15 483.908c-15.928 0-28.444 12.516-28.444 28.444 0 15.549 12.516 28.444 28.444 28.444 3.819 0 36.057 0 32.238 0 0 12.621 0 127.154 0 123.259l-14.412-10.998c-12.516-9.861-30.343-7.586-39.824 4.551-9.859 12.514-7.583 30.34 4.931 40.201l59.924 47.028c8.722 6.826 20.479 7.965 29.961 3.035 9.861-4.551 16.31-14.412 16.31-25.412 0-6.332 0-191.779 0-181.664 3.819 0 32.263 0 28.444 0 15.928 0 28.444-12.896 28.444-28.444 0-15.928-12.516-28.444-28.444-28.444h-117.572z" />
<glyph unicode="&#xe903;" glyph-name="nd-position1" d="M783.359 603.422l72.817 128.949c4.931 9.102 6.449 20.1 3.794 29.961-3.035 10.241-9.861 18.583-18.963 24.273l-159.289 89.884c-19.722 10.998-43.236 4.171-54.234-14.792l-80.782-142.981c-11.377 1.139-23.134 1.519-34.891 1.519-11.38 0-22.757-0.38-34.134-1.519l-81.162 142.981c-4.931 9.102-13.653 15.928-23.894 18.583-9.859 2.655-20.859 1.516-29.961-3.792l-159.669-89.884c-18.963-11-25.789-35.271-15.169-54.234l72.817-128.949c-64.095-67.13-103.157-157.773-103.157-257.516 0-206.317 168.012-374.331 374.329-374.331 206.694 0 374.708 168.014 374.708 374.331 0 99.743-39.065 190.387-103.16 257.516zM589.938 254.123c20.859 0 37.926-17.067 37.926-37.926s-17.067-37.926-37.926-37.926h-135.016c-18.963 0-35.65 10.241-43.995 26.549-9.102 17.826-6.826 39.442 5.69 56.889l14.032 19.722c24.273 33.755 56.889 62.576 105.433 92.919 12.896 7.963 25.792 25.789 19.722 50.060-3.412 14.792-15.549 27.308-29.961 31.479-19.722 5.69-34.134-1.896-40.961-6.826-11.377-8.722-17.824-21.998-17.824-36.41 0-20.859-17.067-37.926-37.926-37.926-21.238 0-37.926 17.067-37.926 37.926 0 2.655 0 5.31 0.377 7.965 2.275 34.891 19.722 67.509 47.787 88.748 30.72 23.134 69.785 30.34 107.331 19.72 40.581-11.757 73.197-45.889 83.058-86.85 1.516-7.206 2.655-14.412 3.035-21.618 2.655-43.993-18.206-86.47-56.512-110.363-30.72-19.343-53.095-37.169-70.162-56.132h83.817z" />
<glyph unicode="&#xe904;" glyph-name="nd-position" d="M681.854 599.051l23.088 241.593c1.333 13.852-5.037 27.333-16.63 35.111-11.593 7.741-26.556 8.519-38.815 2.037l-137.407-72.593-137 72.556c-12.296 6.556-27.185 5.741-38.815-1.963-11.593-7.741-18-21.222-16.704-35.111l22.731-241.822c-102.194-60.257-167.463-171.1-167.463-290.155 0-186.215 151.324-337.542 337.157-337.542 185.838 0 337.162 151.326 337.162 337.542 0 121.345-63.856 229.9-167.306 290.347zM494.313 728.792c11.074-5.815 24.37-5.926 35.444-0.037l93 49.111-13.963-146.037c-62.779 18.824-136.598 17.082-193.37 0l-13.741 146 92.63-49.037zM604.738 150.172h-177.111c-14.704 0-28.074 8.481-34.333 21.778-6.222 13.296-4.259 29 5.111 40.333l18.778 22.704c28.963 35.037 66 59.074 98.37 78 19.444 11.296 34.074 33.222 34.074 50.926 0 25.444-20.704 46.148-46.148 46.148s-46.148-20.704-46.148-46.148c0-20.963-16.963-37.926-37.926-37.926s-37.926 16.963-37.926 37.926c0 67.259 54.741 122 122 122s122-54.741 122-122c0-44.63-28.815-91.444-71.704-116.481-11-6.407-22.63-13.481-33.963-21.407h84.926c20.963 0 37.926-16.963 37.926-37.926s-16.963-37.926-37.926-37.926z" />
<glyph unicode="&#xe905;" glyph-name="d-glasses" d="M1019.904 434.859l-212.992 299.008c-8.192 12.288-20.48 16.384-32.768 16.384h-126.976c-24.576 0-40.96-20.48-40.96-40.96 0-24.576 20.48-40.96 40.96-40.96h102.4l131.072-184.32c-188.416 0-565.248 0-745.472 0l135.168 188.416h102.4c24.576 0 40.96 16.384 40.96 40.96s-16.384 40.96-40.96 40.96h-126.976c-16.384 0-24.576-8.192-32.768-16.384l-212.992-299.008c0-8.192-8.192-32.768-8.192-53.248v-188.416c0-53.248 45.056-94.208 98.304-94.208h266.24c53.248 0 94.208 40.96 94.208 94.208v188.416c0 4.096 0 8.192 0 12.288h122.88c0-4.096 0-8.192 0-12.288v-188.416c0-53.248 40.96-94.208 98.304-94.208h266.24c53.248 0 94.208 40.96 94.208 94.208v188.416c0 16.384-8.192 40.96-12.288 49.152zM368.64 221.867c0-20.48-16.384-40.96-40.96-40.96h-212.992c-20.48 0-40.96 20.48-40.96 40.96v135.168c0 24.576 20.48 40.96 40.96 40.96h212.992c24.576 0 40.96-16.384 40.96-40.96v-135.168zM950.272 221.867c0-20.48-16.384-40.96-40.96-40.96h-212.992c-20.48 0-40.96 20.48-40.96 40.96v135.168c0 24.576 20.48 40.96 40.96 40.96h212.992c24.576 0 40.96-16.384 40.96-40.96v-135.168z" />
<glyph unicode="&#xe906;" glyph-name="d-modeling" d="M1003.52 713.387c0 16.384-12.288 32.768-32.768 36.864l-450.56 106.496c-4.096 0-12.288 0-20.48 0l-450.56-106.496c-16.384-4.096-28.672-20.48-28.672-36.864 0-4.096 0-536.576 0-540.672 0-16.384 12.288-32.768 28.672-40.96l450.56-135.168c8.192-4.096 16.384-4.096 24.576 0l450.56 135.168c16.384 4.096 28.672 20.48 28.672 40.96 0 0 0 573.44 0 540.672 0 0 0 0 0 0zM471.040 90.795l-368.64 110.592v454.656l368.64-110.592v-454.656zM921.6 201.387l-368.64-110.592v454.656l368.64 110.592v-454.656z" />
<glyph unicode="&#xe907;" glyph-name="rd-position" d="M783.361 603.802l72.437 128.569c5.31 9.102 6.826 20.1 4.171 29.961-3.412 10.241-9.859 18.583-18.963 24.273l-159.667 89.884c-19.343 10.998-42.856 4.171-54.234-14.792l-80.403-142.981c-11.38 1.139-23.137 1.519-34.894 1.519-11.377 0-22.755-0.38-34.132-1.519l-81.162 142.981c-5.31 9.102-13.653 15.928-24.273 18.583-9.861 2.655-20.479 1.516-29.581-3.792l-159.669-89.884c-18.963-11-25.789-35.271-15.171-54.234l72.819-128.949c-64.095-67.13-103.16-157.773-103.16-257.516 0-206.317 168.012-374.331 374.329-374.331 206.697 0 374.708 168.014 374.708 374.331 0 100.123-39.442 190.766-103.157 257.896zM624.072 265.88c0-61.819-50.442-112.259-112.262-112.259s-112.259 50.44-112.259 112.259c0 17.826 14.412 32.238 32.236 32.238s32.236-14.412 32.236-32.238c0-26.169 21.618-47.787 47.787-47.787 26.549 0 47.787 21.618 47.787 47.787 0 26.928-20.859 47.787-47.787 47.787-17.824 0-32.236 14.412-32.236 32.238 0 17.824 14.412 32.236 32.236 32.236 26.928 0 47.787 20.859 47.787 47.787 0 26.169-21.238 47.787-47.787 47.787-26.169 0-47.787-21.618-47.787-47.787 0-17.826-14.412-32.238-32.236-32.238s-31.859 14.032-32.236 31.859v0.38c0 61.819 50.44 112.259 112.259 112.259s112.262-50.44 112.262-112.259v-0.38c0-31.1-12.896-59.164-33.755-79.644 20.859-20.481 33.755-48.926 33.755-80.025z" />
<glyph unicode="&#xe908;" glyph-name="7-support" d="M586.534 310.238c-37.415 0-71.744-14.085-97.715-37.41-57.217 24.648-102.992 70.421-127.64 127.64 23.327 25.971 37.41 60.3 37.41 97.715 0 80.954-65.878 148.327-147.887 148.327-81.867 0-148.329-66.46-148.329-148.327 0-267.61 216.552-483.719 484.16-483.719 81.867 0 148.329 66.021 148.329 147.887 0 81.941-67.303 147.888-148.329 147.888zM536.603 838.871c-111.617 0-212.652-47.787-283.306-124.246 40.617-0.683 79.871-12.288 113.321-34.133 47.446 35.498 106.156 56.66 169.985 56.66 156.329 0 283.306-126.975 283.306-282.965 0-63.148-20.821-121.515-55.979-168.619 22.869-31.744 36.181-69.973 38.571-109.569 73.387 70.315 119.125 168.96 119.125 278.187 0 211.969-172.715 384.683-385.023 384.683zM553.339 625.786c-18.867 0-34.133-15.283-34.133-34.133v-131.217c0-18.85 15.267-34.133 34.133-34.133h91.6c18.867 0 34.133 15.283 34.133 34.133s-15.267 34.133-34.133 34.133h-57.467v97.083c0 18.85-15.267 34.133-34.133 34.133z" />
<glyph unicode="&#xe909;" glyph-name="abacus1" d="M933.888 918.187c-45.056 0-81.92-36.864-81.92-81.92v-45.056h-245.76v20.48c0 32.768-28.672 61.44-61.44 61.44s-61.44-28.672-61.44-61.44v-20.48h-102.4v20.48c0 32.768-28.672 61.44-61.44 61.44s-61.44-28.672-61.44-61.44v-20.48h-81.92v45.056c0 45.056-36.864 81.92-81.92 81.92s-81.92-36.864-81.92-81.92v-860.16c0-20.48 16.384-40.96 40.96-40.96h81.92c20.48 0 40.96 20.48 40.96 40.96v81.92h90.112v-16.384c0-32.768 28.672-61.44 61.44-61.44s61.44 28.672 61.44 61.44v16.384h102.4v-16.384c0-32.768 28.672-61.44 61.44-61.44s61.44 28.672 61.44 61.44v16.384h237.568v-81.92c0-20.48 16.384-40.96 40.96-40.96h81.92c20.48 0 40.96 20.48 40.96 40.96v860.16c0 45.056-36.864 81.92-81.92 81.92zM851.968 139.947h-237.568v16.384c0 32.768-28.672 61.44-61.44 61.44s-61.44-28.672-61.44-61.44v-16.384h-102.4v16.384c0 32.768-28.672 61.44-61.44 61.44s-61.44-28.672-61.44-61.44v-16.384h-94.208v245.76h237.568v-8.192c0-32.768 28.672-61.44 61.44-61.44s61.44 28.672 61.44 61.44v8.192h102.4v-8.192c0-32.768 28.672-61.44 61.44-61.44s61.44 28.672 61.44 61.44v8.192h94.208v-245.76zM851.968 467.627h-94.208v24.576c0 32.768-28.672 61.44-61.44 61.44s-61.44-28.672-61.44-61.44v-24.576h-102.4v24.576c0 32.768-28.672 61.44-61.44 61.44s-61.44-28.672-61.44-61.44v-24.576h-237.568v245.76h81.92v-12.288c0-32.768 28.672-61.44 61.44-61.44s61.44 28.672 61.44 61.44v8.192h102.4v-12.288c0-32.768 28.672-61.44 61.44-61.44s61.44 28.672 61.44 61.44v12.288h245.76v-241.664z" />
<glyph unicode="&#xe90a;" glyph-name="abacus2" d="M893.63 195.889v645.407c0 20.944-16.963 37.926-37.926 37.926s-37.926-16.981-37.926-37.926v-153.449h-300.148c-14.639 33.389-47.889 56.905-86.787 56.905-38.667 0-72.028-23.516-86.731-56.905h-137.889v153.463c0 20.944-16.963 37.926-37.926 37.926s-37.926-16.981-37.926-37.926v-645.426c-42.88-16.701-73.481-58.181-73.481-106.87 0-63.336 51.583-114.917 114.926-114.917h680.389c63.333 0 114.907 51.581 114.907 114.917 0 48.694-30.602 90.176-73.481 106.875zM510.167 319.496c14.639-33.435 47.889-56.78 86.796-56.78 38.667 0 72.028 23.345 86.741 56.78h134.074v-115.567h-611.556v115.567h303.944zM344.12 611.996c14.722-33.37 48.065-56.873 86.722-56.873 38.889 0 72.12 23.502 86.769 56.873h300.167v-216.648h-134.037c-14.685 33.442-48.074 56.998-86.778 56.998-38.944 0-72.222-23.556-86.833-56.998h-303.907v216.648h137.898z" />
<glyph unicode="&#xe90b;" glyph-name="abacus3" d="M870.4 826.684c-28.283 0-51.2-22.933-51.2-51.2v-41.5h-420.95v20.533c0 28.267-22.917 51.2-51.2 51.2s-51.2-22.933-51.2-51.2v-20.533h-91.050v41.5c0 28.267-22.917 51.2-51.2 51.2s-51.2-22.933-51.2-51.2v-607.767c0-77.8 63.283-141.067 141.067-141.067h537.050c77.8 0 141.083 63.267 141.083 141.067v607.767c0 28.267-22.917 51.2-51.2 51.2zM386.433 399.317c-28.283 0-51.2-22.933-51.2-51.2v-20.533h-130.433v129.267h385.583v-20.533c0-28.267 22.917-51.2 51.2-51.2s51.2 22.933 51.2 51.2v20.533h126.417v-129.267h-381.567v20.533c0 28.267-22.917 51.2-51.2 51.2zM295.85 665.717v-20.533c0-28.267 22.917-51.2 51.2-51.2s51.2 22.933 51.2 51.2v20.533h420.95v-140.6h-126.417v20.533c0 28.267-22.917 51.2-51.2 51.2s-51.2-22.933-51.2-51.2v-20.533h-385.583v140.6h91.050zM780.517 129.050h-537.050c-21.317 0-38.667 17.333-38.667 38.667v91.6h130.433v-20.533c0-28.267 22.917-51.2 51.2-51.2s51.2 22.933 51.2 51.2v20.533h381.567v-91.6c0-21.333-17.35-38.667-38.683-38.667z" />
<glyph unicode="&#xe90c;" glyph-name="abacus" d="M81.92-64.853h860.16c32.768 0 61.44 28.672 61.44 61.44v860.16c0 32.768-28.672 61.44-61.44 61.44s-61.44-28.672-61.44-61.44v-106.496h-167.936v20.48c0 32.768-28.672 61.44-61.44 61.44s-61.44-28.672-61.44-61.44v-20.48h-208.896v20.48c0 32.768-28.672 61.44-61.44 61.44s-61.44-28.672-61.44-61.44v-20.48h-114.688v106.496c0 32.768-28.672 61.44-61.44 61.44s-61.44-28.672-61.44-61.44v-860.16c0-32.768 28.672-61.44 61.44-61.44zM143.36 668.331h114.688v-20.48c0-32.768 28.672-61.44 61.44-61.44s61.44 28.672 61.44 61.44v20.48h208.896v-20.48c0-32.768 28.672-61.44 61.44-61.44s61.44 28.672 61.44 61.44v20.48h167.936v-299.008h-114.688v20.48c0 32.768-28.672 61.44-61.44 61.44s-61.44-28.672-61.44-61.44v-20.48h-188.416v20.48c0 32.768-28.672 61.44-61.44 61.44s-61.44-28.672-61.44-61.44v-20.48h-188.416v299.008zM143.36 287.403h192.512v-20.48c0-32.768 28.672-61.44 61.44-61.44s61.44 28.672 61.44 61.44v20.48h188.416v-20.48c0-32.768 28.672-61.44 61.44-61.44s61.44 28.672 61.44 61.44v20.48h114.688v-229.376h-737.28v229.376z" />
<glyph unicode="&#xe90d;" glyph-name="abilities" d="M714.241 570.028h169.148c37.167 0 67.13 29.961 67.13 67.127v169.53c0 36.787-29.963 66.75-67.13 66.75h-169.148c-37.167 0-67.13-29.963-67.13-66.75v-46.981h-52.741c-57.185 0-103.704-46.519-103.704-103.704v-191.407h-98.611v69.324c0 62.898-37.329 117.132-90.667 142.9 27.509 20.852 45.556 53.62 45.556 90.986 0 62.924-51.056 113.975-113.977 113.975s-114.37-51.051-114.37-113.975c0-37.347 18.171-70.1 45.764-90.954-53.519-25.757-90.88-80.012-90.88-142.933v-147.22c0-14.644 5.144-28.889 14.639-39.97l43.935-52.238c8.949-9.962 3.547-2.798 5.139-227.556 0-53.173 43.486-95.377 95.773-95.377 53.974 0 94.977 46.421 94.977 99.333 1.969 218.244-4.321 210.975 5.148 223.995l44.324 51.447c9.495 11.477 14.639 25.722 14.639 40.366v2.044h98.611v-191.407c0-57.185 46.519-103.704 103.704-103.704h52.741v-46.979c0-36.789 29.963-66.75 67.13-66.75h169.148c37.167 0 67.13 29.961 67.13 66.75v169.528c0 37.167-29.963 67.13-67.13 67.13h-169.148c-37.167 0-67.13-29.963-67.13-67.13v-46.697h-52.741c-15.37 0-27.852 12.481-27.852 27.852v458.667c0 15.37 12.481 27.852 27.852 27.852h52.741v-46.697c0-37.167 29.963-67.127 67.13-67.127z" />
<glyph unicode="&#xe90e;" glyph-name="academy-award" d="M840.866 49.007h-55.278v48.97c0 36.787-29.815 66.606-66.611 66.606-393.009 2.029-246.826 0.009-413.972 0-36.787 0-66.602-29.819-66.602-66.606v-48.97h-55.259c-21.407 0-38.731-17.319-38.731-38.725s17.324-38.727 38.731-38.727h657.722c21.407 0 38.722 17.322 38.722 38.727s-17.315 38.725-38.722 38.725zM334.31 535.22l56.889-293.167 237.037-1.139 57.269 294.306c9.861 50.822-19.722 100.505-69.028 116.053-10.315 3.326-20.685 5.13-31.037 7.484 25.556 23.116 42.148 57.697 42.148 96.778 0 69.704-51.12 126.243-114.63 126.243-63.12 0-114.63-56.539-114.63-126.243 0-38.426 16.167-72.493 41.019-95.611-12.009-2.546-24.037-4.806-36.019-8.65-49.296-15.549-78.88-65.231-69.019-116.053z" />
<glyph unicode="&#xe90f;" glyph-name="accept-money" d="M106.496-7.509h811.008c49.152 0 86.016 36.864 86.016 86.016v385.024c-24.576-24.576-57.344-49.152-94.208-61.44 8.192-8.192 12.288-16.384 12.288-28.672v-192.512c0-24.576-16.384-40.96-40.96-40.96-16.384 0-28.672-12.288-28.672-28.672 0-24.576-16.384-40.96-40.96-40.96h-598.016c-20.48 0-40.96 16.384-40.96 40.96 0 16.384-12.288 28.672-28.672 28.672-20.48 0-40.96 16.384-40.96 40.96v192.512c0 24.576 20.48 40.96 40.96 40.96 16.384 0 28.672 12.288 28.672 28.672 0 20.48 20.48 40.96 40.96 40.96h376.832c-20.48 24.576-36.864 53.248-45.056 81.92h-438.272c-49.152 0-86.016-40.96-86.016-86.016v-401.408c0-45.056 40.96-86.016 86.016-86.016zM163.84 279.211c0-32.768 28.672-61.44 61.44-61.44s61.44 28.672 61.44 61.44c0 32.768-28.672 61.44-61.44 61.44s-61.44-24.576-61.44-61.44zM737.28 279.211c0-32.768 28.672-61.44 61.44-61.44s61.44 28.672 61.44 61.44c0 32.768-28.672 61.44-61.44 61.44s-61.44-24.576-61.44-61.44zM806.912 463.531c110.592 0 196.608 90.112 196.608 196.608s-90.112 196.608-196.608 196.608c-110.592 0-196.608-90.112-196.608-196.608s86.016-196.608 196.608-196.608zM724.992 709.291c16.384 8.192 32.768 4.096 40.96-12.288l16.384-24.576 73.728 45.056c16.384 8.192 32.768 4.096 40.96-12.288 8.192-12.288 4.096-32.768-12.288-40.96l-102.4-61.44c-16.384-8.192-32.768-4.096-40.96 12.288l-28.672 53.248c-4.096 16.384 0 32.768 12.288 40.96zM376.832 279.211c0-73.728 61.44-135.168 135.168-135.168s135.168 61.44 135.168 135.168c0 73.728-61.44 135.168-135.168 135.168-73.728 4.096-135.168-57.344-135.168-135.168z" />
<glyph unicode="&#xe910;" glyph-name="access-shield" d="M816.756 677.547l-269.308 149.504c-22.192 12.288-48.817 12.288-71 0l-269.308-149.504c-23.217-12.971-37.892-37.204-37.892-63.829 0-34.817-0.342-99.669 0-126.294 2.392-122.196 7.508-375.806 321.192-468.992 3.075-1.023 6.492-1.365 9.558-1.365h23.892c3.417 0 6.492 0.342 9.558 1.365 313.692 93.185 318.808 346.796 321.2 468.992 0.342 26.625 0.342 91.477 0 126.294 0 26.625-14.683 50.858-37.892 63.829zM511.948 158.38c-65.875 0-119.808 53.929-119.808 119.806 0 54.273 36.183 100.012 85.675 114.69v92.842h-16.725c-18.775 0-34.133 15.019-34.133 34.133 0 18.773 15.358 34.133 34.133 34.133h16.725v31.063h-39.592c-18.775 0-34.133 15.358-34.133 34.133 0 18.773 15.358 34.133 34.133 34.133h39.933c0.683 18.090 15.7 32.425 33.792 32.425 18.775 0 34.133-15.358 34.133-34.133v-258.729c49.492-14.677 85.675-60.417 85.675-114.69 0-65.877-53.592-119.806-119.808-119.806z" />
<glyph unicode="&#xe911;" glyph-name="accommodation" d="M859.070 32.048h-31.901v789.236h31.825c21.769 0 39.385 17.635 39.385 39.385s-17.615 39.385-39.385 39.385c-15.519 0.001-733.202 0.006-694.063 0-21.769 0-39.385-17.635-39.385-39.385s17.615-39.385 39.385-39.385h32.084v-789.236h-31.901c-22.055 0-39.385-17.721-39.385-39.385 0-21.661 17.329-39.385 39.385-39.385 298.231 0 466.929 0 693.957 0 21.661 0 39.385 17.724 39.385 39.385 0 21.663-17.724 39.385-39.385 39.385zM669.63 618.091c21.661 0 39.385-17.724 39.385-39.385v-39.385c0-21.661-17.724-39.385-39.385-39.385-21.663 0-39.385 17.724-39.385 39.385v39.385c0 21.661 17.721 39.385 39.385 39.385zM630.245 736.245v39.385c0 21.661 17.721 39.385 39.385 39.385 21.661 0 39.385-17.724 39.385-39.385v-39.385c0-21.661-17.724-39.385-39.385-39.385-21.663 0-39.385 17.724-39.385 39.385zM669.63 421.168c21.661 0 39.385-17.724 39.385-39.385v-39.385c0-21.661-17.724-39.385-39.385-39.385-21.663 0-39.385 17.724-39.385 39.385v39.385c0 21.661 17.721 39.385 39.385 39.385zM512.091 499.937c-21.663 0-39.385 17.724-39.385 39.385v39.385c0 21.661 17.721 39.385 39.385 39.385 21.661 0 39.385-17.724 39.385-39.385v-39.385c0-21.661-17.724-39.385-39.385-39.385zM551.476 381.783v-39.385c0-21.661-17.724-39.385-39.385-39.385-21.663 0-39.385 17.724-39.385 39.385v39.385c0 21.661 17.721 39.385 39.385 39.385 21.661 0 39.385-17.724 39.385-39.385zM512.091 696.86c-21.663 0-39.385 17.724-39.385 39.385v39.385c0 21.661 17.721 39.385 39.385 39.385 21.661 0 39.385-17.724 39.385-39.385v-39.385c0-21.661-17.724-39.385-39.385-39.385zM354.553 499.937c-21.663 0-39.385 17.724-39.385 39.385v39.385c0 21.661 17.721 39.385 39.385 39.385 21.661 0 39.385-17.724 39.385-39.385v-39.385c0-21.661-17.724-39.385-39.385-39.385zM393.937 381.783v-39.385c0-21.661-17.724-39.385-39.385-39.385-21.663 0-39.385 17.724-39.385 39.385v39.385c0 21.661 17.721 39.385 39.385 39.385 21.661 0 39.385-17.724 39.385-39.385zM354.553 696.86c-21.663 0-39.385 17.724-39.385 39.385v39.385c0 21.661 17.721 39.385 39.385 39.385 21.661 0 39.385-17.724 39.385-39.385v-39.385c0-21.661-17.724-39.385-39.385-39.385zM424.656 32.048v97.281c0 48.048 38.99 87.433 87.435 87.433 47.418 0 87.038-37.785 87.038-87.433v-97.281h-174.474z" />
<glyph unicode="&#xe912;" glyph-name="ace-of-clover" d="M198.242 677.228v-501.439c0-73.602 59.836-133.121 133.117-133.121h361.281c73.281 0 133.117 59.52 133.117 133.121v501.439c0 73.6-59.836 133.439-133.117 133.439h-361.281c-73.281 0-133.117-59.84-133.117-133.439zM720.484 193.067c11.483-10.891 13.296-31.813 0-45.109-13.257-13.129-33.814-11.653-45.438 0-11.468 11.345-13.227 31.203 0 45.109 11.054 11.162 31.585 13.719 45.438 0zM408.16 527.788c0 56.959 46.719 103.68 104 103.68 56.957 0 103.68-46.721 103.68-103.68 0-6.721-0.641-13.441-1.918-19.842 42.555-13.119 73.598-52.799 73.598-99.52 0-57.279-46.402-103.68-103.68-103.68-14.082 0-27.52 2.881-39.68 7.68v-42.879c0-17.602-14.402-32-32-32-17.918 0-32 14.398-32 32v43.199c-12.48-5.119-25.918-8-40-8-56.961 0-103.684 46.4-103.684 103.68 0 46.721 31.043 86.4 73.602 99.52-1.281 6.4-1.918 12.801-1.918 19.842zM358.234 682.349c0-16.034-12.698-31.672-32-31.672-18.653 0-32 14.941-32 31.672 0 14.954 8.371 26.625 25.906 31.688 21.716 3.397 38.094-12.64 38.094-31.688z" />
<glyph unicode="&#xe913;" glyph-name="ace-of-diamond1" d="M692.645 42.667c73.281 0 133.117 59.84 133.117 133.119v501.76c0 73.281-59.836 133.121-133.117 133.121h-361.281c-73.281 0-133.125-59.84-133.125-133.121v-501.76c0-73.279 59.844-133.119 133.125-133.119h361.281zM675.043 193.388c3.195 2.879 6.719 5.119 10.555 6.719 12.435 5.377 29.097 2.59 38.727-11.84 7.804-9.803 7.858-27.964-3.844-40.32-12.906-12.23-31.689-12.387-45.438 0-12.206 12.889-12.469 32.275 0 45.441zM384.16 444.907l101.766 145.279c11.836 17.279 40.312 17.279 52.156 0l102.078-145.279c7.68-10.881 7.68-25.6 0-36.48l-102.078-145.279c-5.758-8.641-15.68-13.76-25.922-13.76-10.562 0-20.477 5.119-26.234 13.76l-101.766 145.279c-8 10.881-8 25.6 0 36.48zM308.324 656.106c-20.741 16.593-16.358 43.306 0 53.121 11.862 7.928 27.951 7.586 40.633-3.84 11.833-12.478 12.83-31.195 0-45.441-11.988-10.801-28.051-12.249-40.633-3.84z" />
<glyph unicode="&#xe914;" glyph-name="ace-of-diamond" d="M756.81 881.778h-489.623c-62.199 0-112.639-50.442-112.639-112.641v-684.563c0-62.199 50.44-113.019 112.639-113.019h489.623c62.199 0 112.641 50.819 112.641 113.019v684.563c0 62.199-50.442 112.641-112.641 112.641zM353.28 716.799l-48.167-65.991c-5.69-7.965-17.447-7.965-23.514 0l-48.546 65.991c-3.412 4.931-3.412 12.137 0 17.067l48.167 65.991c6.069 7.965 17.826 7.965 23.514 0l48.546-65.991c3.792-4.931 3.792-12.137 0-17.067zM635.069 409.22l-98.609-135.396c-12.134-16.308-36.028-16.308-48.164 0l-99.366 135.396c-7.586 10.241-7.586 24.653 0 34.891l98.606 135.396c12.137 16.308 36.030 16.308 48.167 0l99.366-135.396c7.586-10.238 7.586-24.65 0-34.891zM790.944 119.466l-48.167-65.991c-6.067-7.965-17.824-7.965-23.514 0l-48.544 65.991c-3.794 4.931-3.794 12.137 0 17.067l48.164 65.991c5.69 7.965 17.447 7.965 23.516 0l48.544-65.991c3.414-4.931 3.414-12.137 0-17.067z" />
<glyph unicode="&#xe915;" glyph-name="ace-of-heart" d="M347.355 42.667h329.281c73.281 0 133.125 59.84 133.125 133.119v501.76c0 73.281-59.844 133.121-133.125 133.121h-329.281c-73.281 0-133.117-59.84-133.117-133.121v-501.76c0-73.279 59.836-133.119 133.117-133.119zM449.762 577.706c22.398 0 44.477-7.359 62.078-20.48 22.719 16.641 51.516 24 80.961 18.881 49.315-8.548 95.021-55.291 84.477-126.4h-0.32c-11.606-67.407-73.079-122.143-127.039-162.559-11.203-7.682-24-11.521-36.797-11.521-12.805 0-25.281 3.84-36.164 11.201-62.124 42.849-132.156 110.383-132.156 185.6 0 58.24 47.039 105.279 104.961 105.279z" />
<glyph unicode="&#xe916;" glyph-name="ace-of-hearts" d="M748.375 836.267h-472.75c-36.179 0-65.533-29.354-65.533-65.537v-688.129c0-36.179 29.354-65.533 65.533-65.533h472.75c36.183 0 65.533 29.354 65.533 65.533v688.129c0 36.183-29.35 65.537-65.533 65.537zM327.167 667.309l-37.542 37.542c-13.317 13.317-15.021 34.475-3.758 48.813 13.553 17.827 38.881 18.788 53.592 4.779 3.754 3.075 7.85 5.804 12.288 7.508 12.288 4.1 25.942 1.708 35.838-6.142 7.85-6.825 12.633-16.042 13.317-26.625 0.338-9.9-3.417-19.8-10.242-26.967 0 0 0 0-0.342 0-0.342-0.683-0.683-1.025-1.025-1.367l-37.546-37.542c-5.721-6.365-17.268-7.311-24.579 0zM482.475 312.317l-90.108 90.117c-31.746 31.742-35.842 81.917-9.217 116.733 15.7 19.8 38.908 32.425 63.825 33.792 23.896 1.708 47.108-6.483 64.858-22.867 8.533 7.85 18.771 13.992 29.692 18.092 29.017 10.238 61.442 4.433 84.992-14.679 39.297-32.985 42.75-90.905 7.508-128.342-0.338 0-0.338 0-0.338 0-1.025-1.367-2.050-2.388-2.729-2.729l-89.775-90.117c-16.393-16.393-42.29-16.419-58.708 0zM738.133 99.667c-13.512-17.785-38.855-18.814-53.588-4.775-3.754-3.075-7.854-5.804-12.288-7.508-12.292-4.1-25.942-1.708-35.842 6.142-7.85 6.825-12.629 16.042-13.312 26.625-0.338 9.9 3.413 19.796 10.242 26.967 0 0 0 0.342 0.342 0.342 3.415 3.415 41.986 41.981 38.571 38.567 3.071 3.417 7.508 5.121 12.288 5.121s8.875-1.704 12.288-5.121l37.546-37.546c13.312-13.313 15.021-34.475 3.754-48.812z" />
<glyph unicode="&#xe917;" glyph-name="achievement1" d="M36.864-48.469c8.192-12.288 16.384-16.384 28.672-16.384 327.68 0 577.536 0 892.928 0 12.288 0 24.576 8.192 32.768 16.384 8.192 12.288 8.192 24.576 0 36.864l-258.048 503.808c-8.192 12.288-20.48 20.48-32.768 20.48s-24.576-8.192-32.768-20.48l-16.384-32.768-94.208 229.376c-4.096 8.192-8.192 12.288-16.384 16.384v65.536h122.88c8.192 0 16.384 4.096 16.384 12.288 4.096 8.192 4.096 16.384 0 20.48l-32.768 40.96 32.768 40.96c4.096 4.096 4.096 12.288 0 20.48s-12.288 12.288-16.384 12.288h-143.36c-12.288 0-20.48-8.192-20.48-20.48v-106.496c0 0 0 0 0 0v-81.92c-8.192-4.096-12.288-12.288-16.384-16.384l-102.4-245.76-20.48 45.056c-4.096 12.288-16.384 20.48-32.768 20.48s-24.576-8.192-32.768-20.48l-262.144-503.808c-4.096-12.288-4.096-24.576 4.096-36.864z" />
<glyph unicode="&#xe918;" glyph-name="achievement" d="M999.424-36.181c-8.192-12.288-20.48-20.48-36.864-20.48h-901.12c-12.288 0-28.672 8.192-36.864 20.48s-8.192 28.672 0 40.96l294.912 536.576v327.68c0 24.576 20.48 40.96 40.96 40.96 0 0 0 0 0 0h233.472c16.384 0 32.768-8.192 36.864-24.576s4.096-32.768-8.192-45.056l-45.056-45.056 45.056-45.056c12.288-12.288 16.384-28.672 8.192-45.056s-20.48-24.576-36.864-24.576h-192.512v-139.264c4.096-4.096 188.416-344.064 176.128-323.584 12.288-20.48 36.864-28.672 53.248-20.48 20.48 8.192 28.672 32.768 20.48 53.248l-36.864 73.728 65.536 118.784c8.192 12.288 20.48 20.48 36.864 20.48s28.672-8.192 36.864-20.48l245.76-446.464c4.096-4.096 4.096-20.48 0-32.768z" />
<glyph unicode="&#xe919;" glyph-name="achievement-trophy" d="M200.056-27.393c232.466 0 390.604 0 623.889 0 20.963 0 37.926 16.981 37.926 37.926s-16.963 37.926-37.926 37.926h-27.884v65.613c0 48.544-39.819 88.368-88.366 88.368h-391.398c-48.546 0-88.366-39.824-88.366-88.368v-65.613h-27.875c-20.963 0-37.926-16.981-37.926-37.926s16.963-37.926 37.926-37.926zM360.269 279.866l329.574-1.137 141.463 304.924c10.62 22.377 7.588 48.167-7.963 67.509l-165.352 205.558c-14.417 18.204-37.551 26.928-60.685 23.134l-336.023-56.509c-18.583-3.035-34.514-14.032-44.375-29.961-9.481-15.931-11.755-35.65-6.065-53.097l149.426-460.421zM522.972 693.639c55.37 0 100.88-45.132 100.88-100.884 0-55.75-45.509-100.882-100.88-100.882-56.13 0-100.884 45.132-100.884 100.882 0 55.752 44.755 100.884 100.884 100.884z" />
<glyph unicode="&#xe91a;" glyph-name="add-bookmark1" d="M512.167 836.285c-167.933 0-304.125-136.533-304.125-304.125 0-91.142 40.275-173.058 103.767-229.038v-249.171c0-14 7.85-26.625 19.796-32.771 10.636-5.979 26.413-5.8 38.229 2.729l141.992 101.037 142-101.037c11.263-8.192 25.942-8.875 38.225-2.729 12.292 6.146 19.8 18.771 19.8 32.771v249.171c63.829 55.638 104.108 137.558 104.108 229.038 0 167.592-136.533 304.125-303.792 304.125zM607.4 495.293h-59.050v-58.367c0-20.825-16.042-36.867-36.525-36.867-20.475 0-36.858 16.042-36.858 36.867v58.367h-58.371c-20.479 0-36.863 16.383-36.863 36.525 0 20.817 16.383 36.863 36.863 36.863h58.371v58.708c0 20.821 16.383 36.863 36.858 36.863 20.483 0 36.525-16.042 36.525-36.863v-58.708h59.050c20.483 0 36.525-16.046 36.525-36.863 0-20.142-16.042-36.525-36.525-36.525z" />
<glyph unicode="&#xe91b;" glyph-name="add-bookmark" d="M195.888 816.185h54.613v-778.917h-54.613c-51.542 0-93.525 41.983-93.525 93.517v591.883c0 51.533 41.983 93.517 93.525 93.517zM759.162 722.545v-221.525c-11.946 1.708-24.233 2.388-36.521 2.388-147.454 0-267.604-119.808-267.604-266.921 0-79.188 34.475-150.529 89.425-199.337h-225.617v778.925h120.15v-171.35c0-9.558 10.921-14.679 18.429-8.875l59.050 45.737c4.096 3.413 9.9 3.413 13.996 0l59.050-45.737c7.508-5.804 18.433-0.683 18.433 8.875v171.35h57.683c51.542 0 93.525-41.987 93.525-93.529zM722.641 435.141c-109.913 0-199.337-89.083-199.337-198.654 0-109.908 89.425-199.337 199.337-199.337 109.908 0 198.996 89.429 198.996 199.337 0 109.571-89.088 198.654-198.996 198.654zM798.758 202.012h-42.325v-41.983c0-19.112-15.021-34.133-34.133-34.133-18.771 0-34.133 15.021-34.133 34.133v41.983h-42.325c-18.771 0-34.133 15.362-34.133 34.133 0 19.117 15.362 34.133 34.133 34.133h42.325v42.329c0 18.771 15.362 34.133 34.133 34.133 19.112 0 34.133-15.362 34.133-34.133v-42.329h42.325c18.771 0 34.133-15.017 34.133-34.133 0-18.771-15.362-34.133-34.133-34.133z" />
<glyph unicode="&#xe91c;" glyph-name="add-favourite" d="M832.406 725.418c-65.875 53.933-156.675 69.633-237.908 40.958-30.721-10.921-59.050-27.988-82.946-49.833-49.154 45.058-114.688 68.267-180.904 63.833-208.928-13.197-307.335-267.224-153.258-421.892l251.9-251.562c45.008-45.712 118.949-46.289 164.525 0 3.425 3.42 256.338 255.994 258.729 259.413 0.342 0 0.342 0.342 0.683 0.342 96.863 100.401 92.14 263.776-20.821 358.742zM739.223 493.31h-39.937v-39.933c0-20.479-16.725-37.204-37.204-37.204-20.483 0-37.208 16.725-37.208 37.204v39.933h-39.933c-20.483 0-37.208 16.729-37.208 37.208s16.725 37.204 37.208 37.204h39.933v39.938c0 20.479 16.725 37.204 37.208 37.204 20.479 0 37.204-16.725 37.204-37.204v-39.937h39.937c20.479 0 37.204-16.725 37.204-37.204s-16.725-37.208-37.204-37.208z" />
<glyph unicode="&#xe91d;" glyph-name="add-file1" d="M294.912 770.731c8.192 8.192 16.384 8.192 24.576 8.192s20.48-4.096 24.576-8.192l32.768-24.576v176.128h-114.688v-176.128l32.768 24.576zM122.88-60.757h409.6c-65.536 61.44-110.592 147.456-110.592 245.76 0 184.32 151.552 331.776 331.776 331.776 24.576 0 49.152-4.096 73.728-8.192v303.104c0 61.44-49.152 110.592-110.592 110.592h-258.048v-262.144c0-16.384-8.192-28.672-24.576-36.864-8.192-8.192-24.576-8.192-36.864 4.096l-73.728 61.44-73.728-61.44c-12.288-8.192-28.672-12.288-45.056-4.096-12.288 4.096-24.576 20.48-24.576 36.864v262.144h-57.344c-61.44 0-110.592-49.152-110.592-110.592v-765.952c4.096-57.344 53.248-106.496 110.592-106.496zM757.76 434.859c-139.264 0-249.856-114.688-249.856-249.856 0-139.264 114.688-253.952 249.856-253.952 139.264 0 253.952 114.688 253.952 253.952-4.096 139.264-114.688 249.856-253.952 249.856zM847.872 148.139h-49.152v-49.152c0-20.48-20.48-40.96-40.96-40.96-24.576 0-40.96 20.48-40.96 40.96v49.152h-49.152c-20.48 0-40.96 20.48-40.96 40.96s20.48 40.96 40.96 40.96h49.152v49.152c0 20.48 16.384 40.96 40.96 40.96 20.48 0 40.96-20.48 40.96-40.96v-49.152h49.152c20.48 0 40.96-20.48 40.96-40.96s-20.48-40.96-40.96-40.96z" />
<glyph unicode="&#xe91e;" glyph-name="add-file2" d="M632.686 865.524h-252.343c-18.286 0-36.571-3.657-51.2-10.971s-25.6-14.629-36.571-25.6l-157.257-153.6c-7.314-10.971-18.286-21.943-25.6-36.571s-10.971-32.914-10.971-51.2v-409.6c0-69.486 54.857-124.343 124.343-124.343h252.343c-25.6 40.229-36.571 91.429-36.571 138.971 0 153.6 124.343 281.6 281.6 281.6 14.629 0 25.6 0 36.571-3.657v270.629c0 69.486-54.857 124.343-124.343 124.343zM515.657 192.61c0-36.571 10.971-73.143 29.257-102.4 36.571-62.171 102.4-102.4 175.543-102.4 113.371 0 204.8 91.429 204.8 204.8s-91.429 204.8-204.8 204.8c-113.371 0-204.8-91.429-204.8-204.8zM757.029 258.438v-25.6h25.6c21.943 0 36.571-18.286 36.571-36.571 0-21.943-18.286-36.571-36.571-36.571h-25.6v-25.6c0-21.943-18.286-36.571-36.571-36.571-21.943 0-36.571 18.286-36.571 36.571v25.6h-25.6c-21.943 0-36.571 18.286-36.571 36.571 0 21.943 18.286 36.571 36.571 36.571h25.6v25.6c0 21.943 18.286 36.571 36.571 36.571s36.571-18.286 36.571-36.571z" />
<glyph unicode="&#xe91f;" glyph-name="add-file" d="M770.048 918.187h-327.68c-32.768 0-65.536-16.384-86.016-32.768l-188.416-184.32c-24.576-20.48-40.96-57.344-40.96-94.208v-548.864c0-69.632 57.344-126.976 126.976-126.976h516.096c69.632 0 126.976 57.344 126.976 126.976v733.184c0 69.632-57.344 126.976-126.976 126.976zM208.896 606.891v0c0 16.384 8.192 28.672 16.384 36.864l188.416 180.224c8.192 8.192 20.48 12.288 32.768 12.288h4.096v-155.648c0-40.96-32.768-77.824-77.824-77.824h-163.84zM643.072 221.867h-90.112v-90.112c0-20.48-16.384-40.96-40.96-40.96s-40.96 16.384-40.96 40.96v90.112h-90.112c-20.48 0-40.96 20.48-40.96 40.96s20.48 40.96 40.96 40.96h90.112v90.112c0 24.576 16.384 40.96 40.96 40.96s40.96-16.384 40.96-40.96v-90.112h90.112c24.576 0 40.96-16.384 40.96-40.96 0-20.48-20.48-40.96-40.96-40.96z" />
<glyph unicode="&#xe920;" glyph-name="add-folder" d="M1003.52 631.467c0 57.344-45.056 98.304-98.304 98.304h-471.040c-4.096 0-12.288 4.096-16.384 8.192l-45.056 65.536c-20.48 24.576-49.152 40.96-81.92 40.96h-167.936c-57.344 0-102.4-45.056-102.4-98.304v-643.072c0-53.248 45.056-102.4 102.4-102.4h782.336c57.344 0 98.304 45.056 98.304 102.4v528.384zM638.976 328.363h-86.016v-86.016c0-24.576-16.384-40.96-40.96-40.96-20.48 0-40.96 16.384-40.96 40.96v86.016h-86.016c-24.576 0-40.96 16.384-40.96 40.96s16.384 40.96 40.96 40.96h86.016v86.016c0 24.576 20.48 40.96 40.96 40.96 24.576 0 40.96-16.384 40.96-40.96v-86.016h86.016c20.48 0 40.96-16.384 40.96-40.96s-16.384-40.96-40.96-40.96z" />
<glyph unicode="&#xe921;" glyph-name="add-friend" d="M36.864-11.605v-4.096c0-24.576 20.48-49.152 49.152-49.152h749.568c24.576 0 49.152 20.48 49.152 49.152v4.096c0 49.152-8.192 94.208-24.576 135.168-4.096 0-8.192 0-12.288 0-61.44 0-110.592 45.056-122.88 102.4-57.344 12.288-102.4 61.44-102.4 118.784 0 12.288 0 20.48 4.096 28.672-53.248 20.48-110.592 32.768-167.936 32.768-229.376 4.096-421.888-184.32-421.888-417.792zM458.752 488.107c118.784 0 217.088 98.304 217.088 217.088s-98.304 217.088-217.088 217.088c-118.784-4.096-212.992-102.4-212.992-221.184s94.208-212.992 212.992-212.992zM843.776 484.011c-20.48 0-40.96-20.48-40.96-40.96v-57.344h-57.344c-24.576 0-40.96-16.384-40.96-40.96s16.384-40.96 40.96-40.96h57.344v-57.344c0-24.576 20.48-40.96 40.96-40.96s40.96 16.384 40.96 40.96v57.344h57.344c20.48 0 40.96 16.384 40.96 40.96s-20.48 40.96-40.96 40.96h-57.344v57.344c0 24.576-16.384 40.96-40.96 40.96z" />
<glyph unicode="&#xe922;" glyph-name="add-product" d="M887.467 524.986h-145.402l-67.165 167.333c-13.3 33.117-44.967 54.517-80.667 54.517h-163.8c-35.7 0-67.333-21.4-80.633-54.517l-67.194-167.333h-146.073c-18.867 0-34.133-15.283-34.133-34.133s15.267-34.133 34.133-34.133h28.733l55.060-260.45c10.923-52.223 57.344-89.771 110.25-89.771h362.838c52.906 0 99.327 37.548 110.25 89.771l55.060 260.45h28.742c18.867 0 34.133 15.283 34.133 34.133s-15.267 34.133-34.133 34.133zM413.133 666.886c2.867 7.1 9.633 11.683 17.3 11.683h163.8c7.667 0 14.467-4.583 17.333-11.683l56.96-141.9h-312.354l56.96 141.9zM583.506 271.704h-37.206v-37.206c0-18.773-15.36-34.133-34.133-34.133-19.115 0-34.133 15.36-34.133 34.133v37.206h-37.546c-18.775 0-34.133 15.36-34.133 34.133s15.358 34.133 34.133 34.133h37.546v37.204c0 18.773 15.019 34.133 34.133 34.133 18.773 0 34.133-15.36 34.133-34.133v-37.204h37.206c18.773 0 34.133-15.36 34.133-34.133s-15.36-34.133-34.133-34.133z" />
<glyph unicode="&#xe923;" glyph-name="address-book1" d="M785.544 836.267h-465.238c-67.242 0-121.515-54.615-121.515-121.515v-37.89h89.088c56.321 0 102.4-46.079 102.4-102.4 0-56.66-46.079-102.4-102.4-102.4h-89.088v-90.794h89.088c56.321 0 102.4-45.74 102.4-102.4 0-56.321-46.079-102.4-102.4-102.4h-89.088v-37.888c0-66.902 54.273-121.515 121.515-121.515h465.238c66.902 0 121.515 54.613 121.515 121.515v576.171c0 66.9-54.613 121.515-121.515 121.515zM732.638 313.002h-220.844c-24.917 0-42.325 25.258-33.45 48.469 18.090 46.762 58.027 82.944 107.521 95.231-22.529 12.29-37.548 36.523-37.548 64.171 0 40.619 33.11 73.729 74.069 73.729 40.619 0 73.729-33.11 73.729-73.729 0-27.648-15.019-51.881-37.548-64.171 49.835-12.288 89.771-48.127 107.521-95.231 8.875-23.21-8.533-48.469-33.45-48.469zM151.075 540.242h136.733c18.85 0 34.133 15.283 34.133 34.133s-15.283 34.133-34.133 34.133h-136.733c-18.85 0-34.133-15.283-34.133-34.133s15.283-34.133 34.133-34.133zM321.942 278.959c0 18.85-15.283 34.133-34.133 34.133h-136.733c-18.85 0-34.133-15.283-34.133-34.133s15.283-34.133 34.133-34.133h136.733c18.85 0 34.133 15.283 34.133 34.133z" />
<glyph unicode="&#xe924;" glyph-name="address-book2" d="M135.314 243.81c-21.943 0-36.571-14.629-36.571-36.571s14.629-36.571 36.571-36.571h36.571v-73.143c0-62.171 51.2-113.371 113.371-113.371h526.629c62.171 0 113.371 51.2 113.371 113.371v654.629c0 62.171-51.2 113.371-113.371 113.371h-526.629c-62.171 0-113.371-51.2-113.371-113.371v-73.143h-36.571c-21.943 0-36.571-14.629-36.571-36.571s14.629-36.571 36.571-36.571h36.571v-142.629h-36.571c-21.943 0-36.571-14.629-36.571-36.571s14.629-36.571 36.571-36.571h36.571v-146.286h-36.571zM391.314 320.61c14.629 54.857 58.514 95.086 109.714 109.714-21.943 14.629-36.571 40.229-36.571 65.829 0 43.886 36.571 80.457 80.457 80.457s80.457-36.571 80.457-80.457c0-29.257-14.629-51.2-36.571-65.829 54.857-14.629 95.086-58.514 109.714-109.714 7.314-21.943-7.314-40.229-29.257-40.229h-248.686c-18.286 0-32.914 21.943-29.257 40.229z" />
<glyph unicode="&#xe925;" glyph-name="address-book" d="M836.23 881.778h-548.030c-64.095 0-116.053-51.958-116.053-116.053v-40.961h87.229c62.579 0 113.778-51.199 113.778-113.778 0-62.956-51.199-113.778-113.778-113.778h-87.229v-140.326h87.229c62.579 0 113.778-50.819 113.778-113.778 0-62.576-51.199-113.778-113.778-113.778h-87.229v-42.097c0-63.715 51.958-115.674 116.053-115.674h548.030c63.715 0 115.674 51.958 115.674 115.674v678.495c0 64.095-51.958 116.053-115.674 116.053zM716.911 291.989h-233.944c-20.181 0-34.303 19.47-28.833 38.894 14.66 52.060 56.521 92.294 109.162 105.449-23.275 12.951-39.208 37.502-39.208 66.028 0 41.891 33.961 75.852 75.852 75.852s75.852-33.961 75.852-75.852c0-28.525-15.933-53.076-39.208-66.028 52.641-13.155 94.502-53.389 109.16-105.449 5.47-19.424-8.65-38.894-28.831-38.894zM259.355 572.963h-149.333c-20.944 0-37.926 16.963-37.926 37.926s16.981 37.926 37.926 37.926h149.333c20.944 0 37.926-16.963 37.926-37.926s-16.981-37.926-37.926-37.926zM259.355 205.259h-149.333c-20.944 0-37.926 16.963-37.926 37.926s16.981 37.926 37.926 37.926h149.333c20.944 0 37.926-16.963 37.926-37.926s-16.981-37.926-37.926-37.926z" />
<glyph unicode="&#xe926;" glyph-name="add-schedule" d="M611.158 355.154h-63.146v63.15c0 20.133-16.046 36.175-35.838 36.175-20.142 0-35.842-16.042-35.842-35.833v-63.15h-63.15c-19.796 0-36.179-16.383-36.179-36.183 0.729-21.119 16.772-35.497 36.179-36.183h63.15v-62.8c0-20.939 16.763-35.842 35.842-35.842 19.792 0 35.838 16.042 35.838 35.842v63.15h63.146c19.8 0 35.842 16.033 35.842 35.833s-16.042 35.842-35.842 35.842zM839.342 792.942h-13.654v-86.017c0-56.321-45.737-102.4-102.4-102.4-56.321 0-102.4 46.079-102.4 102.4v86.017h-217.771v-86.017c0-56.321-46.083-102.4-102.4-102.4-56.663 0-102.4 46.079-102.4 102.4v86.017h-13.654c-64.171 0-116.396-52.225-116.396-116.396v-551.596c0-64.167 52.225-116.392 116.396-116.392h654.679c64.167 0 116.392 52.225 116.392 116.392v551.596c0 64.171-52.225 116.396-116.392 116.396zM839.342 76.825h-654.679c-26.621 0-48.129 21.5-48.129 48.125v410.967h750.933v-410.967c0-26.625-21.5-48.125-48.125-48.125zM300.625 672.875c18.85 0 34.133 15.267 34.133 34.133v103.633c0 18.867-15.283 34.133-34.133 34.133s-34.133-15.267-34.133-34.133v-103.633c0-18.867 15.283-34.133 34.133-34.133zM723.342 672.875c18.85 0 34.133 15.267 34.133 34.133v103.633c0 18.867-15.283 34.133-34.133 34.133s-34.133-15.267-34.133-34.133v-103.633c0-18.867 15.283-34.133 34.133-34.133z" />
<glyph unicode="&#xe927;" glyph-name="add-to-cart" d="M878.891 721.099h-572.808l-10.113 54.185c-5.633 29.883-31.8 51.583-62.2 51.583h-88.667c-18.867 0-34.133-15.283-34.133-34.133s15.267-34.133 34.133-34.133h84.533c94.541-556.578 61.934-364.614 68.988-406.142l0.048-0.283c-46.040-6.598-81.669-45.908-81.669-93.758 0-52.45 42.667-95.117 95.1-95.117h484.967c18.867 0 34.133 15.283 34.133 34.133s-15.267 34.133-34.133 34.133h-484.967c-14.8 0-26.833 12.050-26.833 26.85s12.033 26.85 26.833 26.85c565.348-0.056 499.317-0.049 505.348-0.050 16.725 0 31.060 12.288 33.792 28.671l61.44 367.617c2.921 21.154-12.974 39.594-33.792 39.594zM667.606 469.195l-65.194-64.852c-6.485-6.827-15.36-10.242-23.894-10.242-8.875 0-17.75 3.415-24.235 10.242l-64.852 64.852c-13.312 13.312-13.312 34.817 0 48.129 13.312 13.31 34.815 13.31 48.127 0l6.827-6.827v85.333c0 45.338 68.267 45.010 68.267 0v-84.992l6.485 6.485c13.312 13.31 35.158 13.31 48.469 0 13.313-13.313 13.313-34.817 0-48.129zM386.866 128.568c-28.279 0-51.2-22.623-51.2-50.902 0-28.277 22.921-51.2 51.2-51.2s51.2 22.923 51.2 51.2c0 28.279-22.921 50.902-51.2 50.902zM704.618 129.164c-28.279 0-51.2-22.623-51.2-50.902 0-28.277 22.921-51.2 51.2-51.2s51.2 22.923 51.2 51.2c0 28.279-22.921 50.902-51.2 50.902z" />
<glyph unicode="&#xe928;" glyph-name="add-to-favorite" d="M870.834 691.196c-44.031 57.685-111.273 93.867-183.638 98.304-63.146 4.096-125.269-15.7-174.079-54.613-44.715 36.181-100.010 55.979-158.379 55.979-0.342 0-0.342 0-0.342 0-67.242-0.342-130.729-26.625-178.175-74.071-98.304-98.644-98.304-258.729 0-357.375l269.994-269.996c35.619-35.615 95.82-36.274 132.779 0l264.533 264.533c92.502 92.502 104.106 237.569 27.306 337.238zM743.176 524.626h-34.815v-34.815c0-18.773-15.36-34.133-34.133-34.133-18.775 0-34.133 15.36-34.133 34.133v34.815h-34.817c-18.773 0-34.133 15.36-34.133 34.133 0 18.775 15.36 34.133 34.133 34.133h34.817v34.817c0 18.773 15.358 34.133 34.133 34.133 18.773 0 34.133-15.36 34.133-34.133v-34.817h34.815c18.773 0 34.133-15.358 34.133-34.133 0-18.773-15.36-34.133-34.133-34.133z" />
<glyph unicode="&#xe929;" glyph-name="administrator" d="M628.466 331.599c0-0.071 0.013-0.106 0.013-0.141 0-64.074-51.937-116.515-116.479-116.515s-116.484 52.44-116.484 116.515c0 0.035 0.013 0.071 0.013 0.141h-196.811v-26.768c0-22.101 16.050-40.382 37.081-42.61l26.017-3.324c5.534-18.246 12.73-36.493 22.14-53.112l-15.497-19.944c-14.392-17.15-13.287-41.514 2.214-57.002l38.742-38.19c15.497-15.488 39.852-17.15 56.458-3.324l20.478 16.62c17.159-9.972 34.87-17.185 53.134-22.702l2.767-24.364c2.219-22.702 20.483-38.72 42.623-38.72h53.691c22.136 0 40.404 16.019 42.062 37.058l3.876 26.026c18.264 5.516 36.532 13.296 52.582 22.702l20.478-16.62c17.159-13.826 41.514-12.164 57.015 2.758l38.19 38.756c15.497 15.488 17.159 39.852 3.319 56.472l-16.606 20.474c9.967 17.15 17.159 34.866 22.697 53.112l24.351 3.324c22.14 2.228 38.747 20.509 38.747 42.61v26.768h-196.815zM625.84 721.333c0-62.872-50.968-113.84-113.84-113.84s-113.84 50.968-113.84 113.84c0 62.872 50.968 113.84 113.84 113.84s113.84-50.968 113.84-113.84zM726.209 399.873h-428.031c28.331 91.133 113.323 157.35 213.675 157.35 94.993 0 183.131-59.896 214.356-157.35z" />
<glyph unicode="&#xe92a;" glyph-name="admin-network1" d="M500.213 641.613c62.556 0 113.62 51.065 113.62 113.618 0 62.873-51.065 113.937-113.62 113.937-62.87 0-113.935-51.065-113.935-113.937 0-62.553 51.065-113.618 113.935-113.618zM898.468 239.409h-42.653v41.75c0 44.037-35.852 79.87-79.889 79.87h-225v67.63h121.88c16.69 0 32.62 7.206 43.62 19.722 10.995 12.134 15.926 28.444 14.028 44.373-7.583 59.544-37.167 111.123-80.019 147.532-34.519-45.512-89.13-74.715-150.19-74.715-61.44 0-116.051 29.204-150.569 74.715-42.852-36.030-72.435-87.988-79.639-147.153-2.278-16.308 2.653-32.238 13.648-44.752 11-12.516 26.931-19.722 44-19.722h147.389v-67.63h-225c-44.037 0-79.852-35.833-79.852-79.87v-41.75h-44.685c-37.926 0-68.648-31.1-68.648-69.025v-117.192c0-37.926 30.722-69.025 68.648-69.025h161.185c37.926 0 68.648 31.1 68.648 69.025v117.192c0 37.926-30.722 69.025-68.648 69.025h-40.648v41.75c0 2.222 1.778 4.019 4 4.019h525.852c2.222 0 4.037-1.796 4.037-4.019v-41.75h-42.681c-37.926 0-68.644-31.1-68.644-69.025v-117.192c0-37.926 30.718-69.025 68.644-69.025h161.185c37.926 0 68.644 31.1 68.644 69.025v117.192c0 37.926-30.718 69.025-68.644 69.025z" />
<glyph unicode="&#xe92b;" glyph-name="admin-network" d="M509.733 584.619c65.85 0 119.608 53.471 119.608 119.608 0 65.854-53.758 119.325-119.608 119.325-65.858 0-119.608-53.471-119.608-119.325 0-66.137 53.75-119.608 119.608-119.608zM413.892 168.469h-220.492c-18.867 0-34.133-15.283-34.133-34.133s15.267-34.133 34.133-34.133h220.467c14.2-40.735 52.6-70.421 98.25-70.421 45.392 0 83.942 29.685 98.225 70.421h220.258c18.867 0 34.133 15.283 34.133 34.133s-15.267 34.133-34.133 34.133h-220.283c-10.533 30.025-34.2 53.573-64.183 64.023v104.831h170.783c20.825 0 39.942 9.556 52.567 25.942 12.633 16.383 16.725 37.204 11.267 57.002-20.825 76.8-73.050 138.923-140.292 174.762-31.058-37.546-78.167-61.44-130.725-61.44-52.567 0-99.675 23.894-130.733 61.44-67.242-35.498-119.467-97.962-140.292-174.762-5.458-19.798-1.367-40.619 11.267-57.002 12.633-16.385 31.742-25.942 52.567-25.942h175.325v-104.867c-29.983-10.469-53.508-34-63.975-63.988z" />
<glyph unicode="&#xe92c;" glyph-name="advanced-search1" d="M794.233 287.682c78.167 140.287 57.683 321.537-61.442 440.663-144.042 143.7-378.2 143.7-522.242 0-144.042-144.042-144.042-378.2 0-522.242 119.788-119.781 300.739-139.712 440.317-61.779l81.583-91.137c41.244-45.497 113.012-48.785 157.35-4.438 44.909 45.637 40.856 117.28-4.433 157.696l-91.133 81.237zM639.933 432.895h-27.142c-3.608-14.883-9.508-28.781-17.292-41.5l19.267-19.267c13.333-13.333 13.333-34.933 0-48.267-6.667-6.667-15.4-10-24.133-10s-17.467 3.333-24.133 10l-19.192 19.196c-12.733-7.829-26.658-13.773-41.575-17.392v-27.004c0-18.867-15.267-34.133-34.133-34.133s-34.133 15.267-34.133 34.133v27.004c-14.9 3.617-28.825 9.558-41.558 17.385l-19.208-19.223c-6.667-6.667-15.4-10-24.133-10s-17.467 3.333-24.133 10c-13.333 13.3-13.333 34.933 0 48.267l19.275 19.29c-7.775 12.712-13.675 26.604-17.275 41.477h-27.167c-18.867 0-34.133 15.267-34.133 34.133s15.267 34.133 34.133 34.133h27.083c3.583 14.91 9.517 28.823 17.308 41.56l-19.225 19.24c-13.333 13.333-13.333 34.967 0 48.267 13.333 13.333 34.933 13.333 48.267 0l19.183-19.194c12.733 7.821 26.667 13.754 41.583 17.367v26.994c0 18.867 15.267 34.133 34.133 34.133s34.133-15.267 34.133-34.133v-26.994c14.917-3.61 28.85-9.546 41.583-17.36l19.183 19.188c13.333 13.333 34.933 13.333 48.267 0s13.333-34.933 0-48.267l-19.225-19.227c7.792-12.731 13.717-26.637 17.308-41.54h27.083c18.867 0 34.133-15.267 34.133-34.133s-15.267-34.133-34.133-34.133zM471.599 544.561c-42.667 0-77.4-34.733-77.4-77.4 0-42.833 34.733-77.7 77.4-77.7s77.4 34.867 77.4 77.7c0 42.667-34.733 77.4-77.4 77.4z" />
<glyph unicode="&#xe92d;" glyph-name="advanced-search" d="M421.888 594.603c-40.96 0-77.824-32.768-77.824-77.824 0-40.96 32.768-77.824 77.824-77.824s77.824 36.864 77.824 77.824c0 40.96-36.864 77.824-77.824 77.824zM704.512 799.403c-155.648 155.648-409.6 155.648-569.344 0-77.824-73.728-118.784-176.128-118.784-282.624s40.96-208.896 118.784-282.624c73.728-73.728 176.128-118.784 282.624-118.784 0 0 0 0 0 0 69.632 0 135.168 16.384 192.512 49.152 36.864-73.728 94.208-155.648 122.88-184.32s69.632-45.056 110.592-45.056c40.96 0 77.824 16.384 110.592 45.056 28.672 28.672 45.056 69.632 45.056 110.592s-16.384 77.824-45.056 110.592c-28.672 28.672-110.592 86.016-184.32 122.88 0 0 0 0 0 0 86.016 151.552 65.536 348.16-65.536 475.136zM634.88 418.475l-20.48-36.864c-4.096-8.192-16.384-12.288-24.576-12.288l-36.864 12.288c-24.576-24.576-53.248-40.96-86.016-49.152l-4.096-32.768c-4.096-8.192-12.288-16.384-24.576-16.384h-40.96c-12.288 0-20.48 8.192-20.48 16.384l-4.096 32.768c-32.768 8.192-57.344 24.576-81.92 45.056l-32.768-12.288c-8.192-4.096-20.48 0-24.576 8.192l-20.48 36.864c-8.192 12.288-8.192 24.576 0 32.768l28.672 24.576c-4.096 16.384-8.192 32.768-8.192 45.056 0 16.384 4.096 32.768 8.192 53.248l-24.576 20.48c-8.192 8.192-12.288 20.48-4.096 28.672l20.48 36.864c4.096 8.192 16.384 12.288 24.576 12.288l36.864-12.288c20.48 20.48 45.056 32.768 73.728 40.96l8.192 40.96c0 12.288 12.288 16.384 20.48 16.384h40.96c12.288 0 20.48-8.192 20.48-16.384l8.192-40.96c28.672-8.192 57.344-24.576 77.824-45.056l36.864 12.288c12.288 4.096 20.48 0 24.576-12.288l24.576-36.864c4.096-8.192 4.096-20.48-4.096-28.672l-28.672-24.576c4.096-16.384 4.096-28.672 4.096-45.056 0-12.288 0-28.672-4.096-40.96l32.768-28.672c8.192-4.096 8.192-16.384 4.096-24.576z" />
<glyph unicode="&#xe92e;" glyph-name="advertisement-board" d="M892.928 926.379h-757.76c-61.44 0-114.688-49.152-114.688-114.688v-544.768c0-61.44 49.152-114.688 114.688-114.688h61.44v-143.36h-36.864c-24.576 0-40.96-16.384-40.96-40.96s16.384-40.96 40.96-40.96h155.648c24.576 0 40.96 16.384 40.96 40.96s-16.384 40.96-40.96 40.96h-36.864v143.36h434.176v-143.36h-36.864c-24.576 0-40.96-16.384-40.96-40.96s16.384-40.96 40.96-40.96h155.648c24.576 0 40.96 16.384 40.96 40.96s-16.384 40.96-40.96 40.96h-36.864v143.36h94.208c61.44 0 114.688 49.152 114.688 114.688v544.768c0 61.44-49.152 114.688-110.592 114.688zM643.072 479.915v-106.496c0-28.672-28.672-45.056-53.248-28.672l-155.648 126.976h-86.016c-24.576 0-40.96 20.48-40.96 40.96v90.112c0 24.576 16.384 40.96 40.96 40.96h90.112l155.648 126.976c24.576 16.384 53.248 0 53.248-28.672v-106.496c40.96-4.096 73.728-36.864 73.728-77.824-4.096-45.056-36.864-77.824-77.824-77.824z" />
<glyph unicode="&#xe92f;" glyph-name="advertising-board" d="M830.806 836.614h-637.61c-45.398 0-82.604-37.204-82.604-82.602v-292.523c0-45.398 37.206-82.602 82.604-82.602h284.671v-191.613h-54.14c-41.796 0-75.9-34.106-75.9-75.902v-26.385h-38.815c-18.867 0-34.133-15.283-34.133-34.133s15.267-34.133 34.133-34.133h406c18.867 0 34.133 15.283 34.133 34.133s-15.267 34.133-34.133 34.133h-38.838v26.385c0 41.796-34.106 75.902-75.902 75.902h-54.14v191.613h284.673c45.398 0 82.602 37.204 82.602 82.602v292.523c0 45.398-37.204 82.602-82.602 82.602zM710.998 537.947c-138.010 0-260.64 0-397.994 0-38.571 0-69.975 31.404-69.975 69.633 0 38.635 31.33 69.973 69.975 69.973 146.892 0 251.093 0 397.994 0 38.571 0 69.973-31.402 69.973-69.973 0-38.229-31.402-69.633-69.973-69.633z" />
<glyph unicode="&#xe930;" glyph-name="aeroplane1" d="M836.881 481.886c-1.287 5.487-5.225 9.975-10.496 11.967l-197.512 74.592c-7.792 187.681-57.075 267.823-116.875 267.823-59.792 0-109.079-80.142-116.871-267.823l-197.512-74.592c-5.275-1.992-9.208-6.479-10.492-11.967l-14.071-60.037c-2.588-11.044 6.212-21.456 17.533-20.746l206.725 12.973c5.496-87.763 17.629-175.096 34.304-245.631l-88.663-45.883c-4.392-2.273-7.571-6.352-8.696-11.167l-8.758-37.373c-2.625-11.19 6.433-21.683 17.892-20.721l122.433 10.29c28.788-59.478 61.116-64.532 92.358 0l122.433-10.29c11.45-0.962 20.512 9.531 17.892 20.721l-8.758 37.373c-1.129 4.815-4.308 8.894-8.7 11.167l-88.658 45.885c16.667 70.537 28.8 157.867 34.3 245.629l206.725-12.973c11.325-0.71 20.125 9.702 17.533 20.746l-14.067 60.037z" />
<glyph unicode="&#xe931;" glyph-name="aeroplane" d="M974.848 410.283v57.344c0 8.192-4.096 16.384-12.288 20.48l-319.488 147.456v151.552c0 73.728-57.344 131.072-131.072 131.072s-131.072-57.344-131.072-131.072v-151.552l-319.488-147.456c-8.192-4.096-12.288-12.288-12.288-20.48v-57.344c0-12.288 8.192-24.576 24.576-24.576h311.296v-20.48l49.152-315.392-94.208-53.248c-8.192-4.096-12.288-12.288-12.288-16.384v-24.576c0-12.288 8.192-20.48 20.48-20.48h327.68c12.288 0 20.48 8.192 20.48 20.48v24.576c0 8.192-4.096 12.288-8.192 16.384l-90.112 57.344 49.152 315.392v20.48h311.296c8.192-4.096 16.384 8.192 16.384 20.48z" />
<glyph unicode="&#xe932;" glyph-name="aeroplane-ticket" d="M839.68 914.091c-16.384 8.192-32.768 4.096-45.056-4.096l-77.824-61.44-77.824 61.44c-16.384 12.288-36.864 12.288-49.152 0l-77.824-61.44-77.824 61.44c-16.384 12.288-36.864 12.288-53.248 0l-73.728-61.44-77.824 61.44c-12.288 8.192-28.672 12.288-45.056 4.096-12.288-8.192-20.48-20.48-20.48-36.864v-901.12c0-16.384 8.192-28.672 24.576-36.864 4.096-4.096 12.288-4.096 16.384-4.096 8.192 0 16.384 4.096 24.576 8.192l77.824 61.44 77.824-61.44c16.384-12.288 36.864-12.288 49.152 0l77.824 61.44 77.824-61.44c16.384-12.288 36.864-12.288 53.248 0l77.824 61.44 77.824-61.44c12.288-8.192 28.672-12.288 40.96-4.096 16.384 8.192 24.576 20.48 24.576 36.864v901.12c-4.096 16.384-12.288 28.672-24.576 36.864zM708.608 455.339h-118.784c-4.096-65.536-16.384-131.072-32.768-176.128l45.056-28.672c12.288-8.192 20.48-16.384 28.672-28.672 4.096-12.288-4.096-24.576-16.384-24.576h-204.8c-12.288 0-20.48 12.288-16.384 24.576s16.384 24.576 28.672 28.672l45.056 28.672c-16.384 45.056-28.672 106.496-32.768 176.128h-118.784c-12.288 0-20.48 12.288-16.384 20.48 8.192 20.48 24.576 40.96 45.056 49.152l90.112 36.864c8.192 94.208 40.96 147.456 77.824 147.456s69.632-49.152 77.824-147.456l90.112-36.864c20.48-8.192 36.864-28.672 45.056-49.152 4.096-12.288-4.096-20.48-16.384-20.48z" />
<glyph unicode="&#xe933;" glyph-name="agreement" d="M852.954 668.255l-177.113 175.218c-26.018 25.204-59.829 38.306-94.435 38.306h-314.407c-75.093 0-136.532-61.44-136.532-136.532v-637.155c0-75.095 61.44-136.535 136.532-136.535h490.005c75.093 0 136.532 61.44 136.532 136.535v463.454c0 37.315-16.487 72.616-40.581 96.711zM402.796 670.037h186.63c20.944 0 37.926-16.963 37.926-37.926s-16.981-37.926-37.926-37.926h-186.63c-20.944 0-37.926 16.963-37.926 37.926s16.981 37.926 37.926 37.926zM628.053 151.667c-52.463 0-94.815 42.669-94.815 94.815 0 52.15 42.352 94.815 94.815 94.815 52.15 0 94.815-42.664 94.815-94.815 0-52.146-42.664-94.815-94.815-94.815zM703.722 439.297h-383.426c-20.944 0-37.926 16.963-37.926 37.926s16.981 37.926 37.926 37.926h383.426c20.944 0 37.926-16.963 37.926-37.926s-16.981-37.926-37.926-37.926z" />
<glyph unicode="&#xe934;" glyph-name="ai" d="M24.576 160.427l49.152-126.976c8.192-16.384 20.48-24.576 36.864-24.576h802.816c16.384 0 32.768 12.288 36.864 24.576l49.152 126.976c4.096 12.288 4.096 28.672-4.096 36.864-8.192 12.288-20.48 16.384-32.768 16.384h-16.384v512c0 65.536-53.248 122.88-122.88 122.88h-622.592c-65.536 0-122.88-53.248-122.88-122.88v-507.904h-16.384c-12.288 0-24.576-8.192-32.768-16.384-8.192-12.288-12.288-28.672-4.096-40.96zM159.744 725.675c0 8.192 4.096 20.48 12.288 28.672s20.48 12.288 28.672 12.288h622.592c12.288 0 20.48-4.096 28.672-12.288 8.192-12.288 12.288-20.48 12.288-32.768v-417.792h-704.512v421.888zM475.136 643.755c-8.192 16.384-20.48 24.576-36.864 24.576s-28.672-8.192-36.864-24.576c-12.288-24.576-77.824-167.936-86.016-188.416s0-45.056 20.48-53.248c20.48-8.192 45.056 0 53.248 20.48l28.672 61.44h40.96l28.672-61.44c8.192-20.48 32.768-28.672 53.248-20.48s28.672 32.768 20.48 53.248l-86.016 188.416zM671.744 660.139c-24.576 0-40.96-16.384-40.96-40.96v-167.936c0-24.576 16.384-40.96 40.96-40.96s40.96 16.384 40.96 40.96v167.936c0 20.48-16.384 40.96-40.96 40.96z" />
<glyph unicode="&#xe935;" glyph-name="aim" d="M772.459 463.903c5.46-23.212 8.533-47.787 8.533-72.704 0-169.644-137.558-307.542-306.858-307.542-169.644 0-307.542 137.898-307.542 307.542 0 169.3 137.898 307.2 307.542 307.2 26.623 0 52.223-3.415 77.142-9.558 1.023 23.894 9.898 46.081 25.258 63.488-32.427 9.558-66.902 14.337-102.4 14.337-207.19 0-375.808-168.619-375.808-375.467 0-207.19 168.619-375.808 375.808-375.808 206.848 0 375.125 168.619 375.125 375.808 0 32.767-4.096 64.852-12.288 95.231-18.092-14.335-41.302-22.527-64.512-22.527zM474.134 561.865c9.556 0 19.115-0.683 28.331-2.731l55.296 55.638c-25.942 9.898-54.273 15.36-83.627 15.36-131.754 0-239.275-107.179-239.275-238.933 0-132.096 107.521-239.275 239.275-239.275s238.592 107.179 238.592 239.275c0 26.965-4.438 52.906-12.629 76.8l-57.002-57.004c1.023-6.485 1.365-12.971 1.365-19.796 0-94.208-76.458-171.008-170.325-171.008-94.208 0-171.008 76.8-171.008 171.008 0 93.867 76.8 170.667 171.008 170.667zM894.999 719.22l-80.215 8.192-8.192 79.873c-3.067 29.915-38.736 40.112-58.027 20.821l-119.125-119.125c-7.169-7.169-10.581-17.408-9.558-27.648l9.217-91.477-108.194-108.196c-14.075 7.371-29.823 11.94-46.771 11.94-56.663 0-102.742-46.081-102.742-102.4 0-56.663 46.079-102.742 102.742-102.742 56.319 0 102.058 46.079 102.058 102.742 0 14.475-3.108 28.221-8.554 40.735l109.59 109.792c3.42-0.343 101.476-10.183 95.231-9.556 8.875 0 17.75 3.413 24.235 9.898l118.783 119.125c20.63 19.897 8.019 55.028-20.479 58.027z" />
<glyph unicode="&#xe936;" glyph-name="ai-nodes" d="M897.024 590.507c-57.344 0-102.4-45.056-102.4-102.4 0-40.96 24.576-77.824 61.44-94.208v-73.728l-110.592-69.632c-12.288-8.192-20.48-20.48-20.48-32.768v-180.224c0-24.576 16.384-40.96 40.96-40.96s40.96 16.384 40.96 40.96v155.648l110.592 69.632c12.288 8.192 20.48 20.48 20.48 32.768v98.304c36.864 16.384 61.44 53.248 61.44 94.208 0 57.344-45.056 102.4-102.4 102.4zM602.112 754.347c-57.344 0-102.4-45.056-102.4-102.4 0-40.96 24.576-77.824 61.44-94.208v-524.288c0-24.576 16.384-40.96 40.96-40.96s40.96 16.384 40.96 40.96v524.288c36.864 16.384 61.44 53.248 61.44 94.208 0 57.344-45.056 102.4-102.4 102.4zM258.048 254.635h-90.112v98.304c36.864 16.384 61.44 53.248 61.44 94.208 0 57.344-45.056 102.4-102.4 102.4s-102.4-45.056-102.4-102.4c0-40.96 24.576-77.824 61.44-94.208v-139.264c0-24.576 16.384-40.96 40.96-40.96h90.112v-139.264c0-24.576 16.384-40.96 40.96-40.96s40.96 16.384 40.96 40.96v180.224c0 24.576-20.48 40.96-40.96 40.96zM335.872 541.355v122.88c36.864 16.384 61.44 53.248 61.44 94.208 0 57.344-45.056 102.4-102.4 102.4s-102.4-45.056-102.4-102.4c0-40.96 24.576-77.824 61.44-94.208v-139.264c0-12.288 4.096-20.48 12.288-28.672l114.688-110.592v-352.256c0-24.576 16.384-40.96 40.96-40.96s40.96 16.384 40.96 40.96v368.64c0 12.288-4.096 20.48-12.288 28.672l-114.688 110.592z" />
<glyph unicode="&#xe937;" glyph-name="air-conditioner" d="M878.767 873.33h-733.488c-48.924 0-88.368-39.442-88.368-88.368 0.327-213.751-1.337-243.837 2.655-254.481l65.613-151.704c6.067-14.412 19.72-23.516 35.271-23.516h703.146c15.551 0 29.204 9.104 34.891 23.516l65.993 151.704c3.913 10.433 2.281 9.544 2.653 254.481 0 48.926-39.442 88.368-88.366 88.368zM812.396 776.24c20.859 0 37.926-17.067 37.926-37.926s-17.067-37.926-37.926-37.926c-21.238 0-37.926 17.067-37.926 37.926s16.687 37.926 37.926 37.926zM838.186 431.113h-652.326l-34.512 75.852h721.35l-34.512-75.852zM786.628 55.856c-39.648 0-71.907 32.259-71.907 71.926v102.019c0 20.944-16.981 37.926-37.926 37.926s-37.926-16.981-37.926-37.926v-102.019c0-81.481 66.278-147.778 147.759-147.778 20.944 0 37.926 16.981 37.926 37.926s-16.981 37.926-37.926 37.926zM347.239 267.726c-20.944 0-37.926-16.981-37.926-37.926v-102.019c0-39.667-32.259-71.926-71.907-71.926-20.944 0-37.926-16.981-37.926-37.926s16.981-37.926 37.926-37.926c81.481 0 147.759 66.296 147.759 147.778v102.019c0 20.944-16.981 37.926-37.926 37.926zM512.017 267.726c-20.944 0-37.926-16.981-37.926-37.926v-196.556c0-20.944 16.981-37.926 37.926-37.926s37.926 16.981 37.926 37.926v196.556c0 20.944-16.981 37.926-37.926 37.926z" />
<glyph unicode="&#xe938;" glyph-name="air-horn" d="M308.16 446.124c-46.719 0-85.117-38.080-85.117-85.119v-48.32c49.594-0.32 189.438 0 294.719 0.32v48c0 33.6-19.523 62.721-48 76.48-11.203 5.439-24 8.639-37.125 8.639h-30.078v41.281h19.844v217.279h-87.047c-44.797 0-80.953-36.48-80.953-81.279v-54.721c0-44.801 36.156-81.279 80.953-81.279h3.203v-41.281h-30.398zM223.043 127.726c0-46.721 38.398-85.121 85.117-85.121h124.477c47.047 0 85.125 38.4 85.125 85.121v121.279c-103.68-0.32-173.766-0.641-221.125-0.641-35.516 0-58.555 0.32-73.594 0.641v-121.279zM783.043 384.685c10.875 5.439 17.914 16.641 17.914 28.801v365.119c0 12.16-7.039 23.359-17.914 28.801-10.883 5.439-24 4.16-33.602-3.521-89.281-69.119-175.68-102.398-263.039-100.799v-213.76c87.039 1.6 173.758-32 263.039-101.121 9.302-7.661 23.236-8.698 33.602-3.52z" />
<glyph unicode="&#xe939;" glyph-name="airplane" d="M867.214 465.467l-97.26 43.75v40.050c0 18.85-15.281 34.133-34.133 34.133-18.85 0-34.133-15.283-34.133-34.133v-9.367l-91.462 41.133c-9.798 171.567-50.242 255.233-98.727 255.233-48.483 0-88.427-83.667-97.973-255.233l-91.21-41.017v9.25c0 18.85-15.283 34.133-34.133 34.133-18.852 0-34.133-15.283-34.133-34.133v-39.95l-97.512-43.85c-7.535-3.25-12.308-10.8-12.308-19.083v-63.55c0-13.067 11.806-22.867 24.619-20.6l244.931 44.7c2.51-50.983 7.035-101.483 13.315-148.467l-113.296-93.2c-5.025-4.267-8.040-10.783-7.538-17.567l3.265-50.25c1.006-13.817 14.823-22.867 27.885-18.333l115.306 40.683c16.581-62.55 36.929-102.733 58.783-102.733 21.856 0 42.456 40.183 59.035 103l115.808-40.95c13.065-4.533 26.879 4.517 27.885 18.333l3.267 50.25c0.5 6.783-2.263 13.3-7.538 17.567l-113.548 93.2c6.281 46.983 10.802 97.483 13.315 148.467l245.183-44.7c13.062-2.267 24.869 7.533 24.869 20.6v63.55c0 8.283-5.025 15.833-12.56 19.083z" />
<glyph unicode="&#xe93a;" glyph-name="alarm-alert" d="M876.888 503.97c27.988 32.427 44.712 74.752 44.712 121.173 0 103.083-83.625 186.71-186.708 186.71-38.229 0-73.725-11.606-103.425-31.404-37.546 12.971-77.825 19.798-119.467 19.798s-81.917-6.827-119.125-19.798c-29.354 19.798-65.192 31.404-103.425 31.404-103.083 0-187.050-83.627-187.050-186.71 0-46.421 16.725-88.746 45.058-121.173-25.264-121.253 10.81-246.572 97.621-335.19l-18.771-37.546c-9.558-19.456-8.533-41.985 3.067-60.417 23.44-38.345 78.87-39.166 104.108-2.048l16.383 23.894c49.154-23.894 104.108-37.206 162.133-37.206 58.029 0 112.983 13.312 161.792 37.206l16.383-23.894c25.624-37.672 80.593-35.727 104.108 2.048 11.608 18.431 12.629 41.302 3.075 60.417l-18.433 37.204c65.192 66.902 105.813 158.379 105.813 259.073 0 26.281-2.729 51.881-7.85 76.458zM512 143.522c-161.198 0-284.671 131.791-284.671 284.331 0 157.742 128.113 284.671 284.671 284.671 156.211 0 284.675-126.592 284.675-284.671 0-155.696-126.279-284.331-284.675-284.331zM529.067 598.178h-33.792c-20.144 0-38.141-17.831-35.158-39.937 0.879-7.157 17.806-144.995 16.725-136.192 2.392-17.748 17.408-31.060 35.158-31.060s32.767 13.312 35.158 31.060c0.422 3.434 17.835 145.228 16.725 136.192 2.88 21.291-13.745 39.938-34.817 39.938zM512 330.23c-20.141 0-35.838-16.758-35.838-36.181 0-19.586 15.771-36.181 35.838-36.181 20.357 0 36.183 16.099 36.183 36.181 0 19.569-15.808 36.181-36.183 36.181z" />
<glyph unicode="&#xe93b;" glyph-name="alarm-clock1" d="M512.242 753.572c-189.783 0-343.725-154.281-343.725-343.723 0-189.44 153.942-343.381 343.725-343.381 189.442 0 343.383 153.942 343.383 343.381 0 189.442-153.942 343.723-343.383 343.723zM629.317 375.716h-117.417c-18.775 0-34.133 15.36-34.133 34.133v177.152c0 18.773 15.358 34.133 34.133 34.133 19.117 0 34.133-15.36 34.133-34.133v-143.019h83.283c19.117 0 34.133-15.358 34.133-34.133 0-18.773-15.017-34.133-34.133-34.133zM863.333 624.783l-103.8 103.817c-13.333 13.333-13.333 34.95 0 48.267 13.333 13.333 34.933 13.333 48.267 0l103.8-103.817c13.333-13.333 13.333-34.95 0-48.267-13.333-13.333-34.933-13.334-48.267 0zM112.4 624.783c-13.333 13.317-13.333 34.933 0 48.267l103.8 103.817c13.333 13.333 34.933 13.333 48.267 0 13.333-13.317 13.333-34.933 0-48.267l-103.8-103.817c-13.333-13.333-34.933-13.334-48.267 0z" />
<glyph unicode="&#xe93c;" glyph-name="alarm-clock2" d="M795.039 88.108c76.926 73.192 125.042 177.053 125.042 291.532 0 73.197-19.718 142.222-53.856 201.387 19.343 30.34 31.102 66.37 31.102 105.056 0 105.812-86.093 191.905-191.907 191.905-70.537 0-132.741-38.306-165.731-95.574-7.588 0-14.796 0.38-22.38 0.38-20.481 0-40.583-1.519-60.301-4.551-34.134 52.715-93.681 87.609-161.185 87.609-105.815 0-191.903-86.093-191.903-191.905 0-47.787 17.824-92.16 47.407-125.914-23.898-51.201-37.171-108.468-37.171-168.391 0-111.502 45.514-212.387 119.088-285.583 0.014-0.014 0.032-0.028 0.046-0.042l-44.13-55.799c-13-16.426-10.222-40.278 6.222-53.259 16.435-13.026 40.316-10.181 53.259 6.222l42.986 54.352c0.005-0.005 0.014-0.014 0.023-0.019 64.472-43.236 142.222-68.646 225.657-68.646 80.38 0 155.074 23.505 218.009 64.437l38.694-50.958c12.65-16.627 36.41-19.99 53.148-7.278 16.704 12.667 19.963 36.463 7.296 53.13l-39.417 51.91zM705.419 802.136c64.097 0 116.056-51.961 116.056-116.053 0-12.516-1.898-24.653-5.69-36.030-50.819 56.13-116.81 97.847-191.903 118.329 20.856 20.859 49.681 33.755 81.537 33.755zM179.771 673.946c0 64.095 52.333 116.053 116.051 116.053 31.097 0 59.542-12.137 80.782-32.618-73.574-27.685-137.296-75.852-183.185-138.049-8.722 16.308-13.648 34.891-13.648 54.613zM618.192 278.379c-15.092-15.087-39.285-14.196-53.477 0l-74.333 74.333c-7.204 7.206-11 17.067-11 26.928v194.94c0 20.859 16.685 37.926 37.926 37.926 19.481 0 37.926-16.187 37.926-37.926 0-5.077 0-183.695 0-179.012l62.958-63.336c14.792-14.792 14.792-39.065 0-53.854z" />
<glyph unicode="&#xe93d;" glyph-name="alarm-clock" d="M885.242 398.951c0 205.56-167.255 373.192-373.192 373.192s-373.569-167.632-373.569-373.192c0-110.363 48.164-210.109 124.775-278.375l-53.095-76.991c-14.412-20.859-9.104-49.303 11.757-63.715 20.675-14.773 49.799-9.371 64.095 11.757l52.715 76.611c51.958-27.308 110.745-42.856 173.322-42.856 62.199 0 120.984 15.549 172.942 42.856l52.718-76.611c14.67-20.781 43.14-26.725 64.095-11.757 20.859 14.412 26.169 42.856 11.757 63.715l-52.718 76.991c76.231 68.266 124.398 168.012 124.398 278.375zM512.050 128.539c-150.518 0-270.412 123.311-270.412 270.412 0 149.049 121.363 270.032 270.412 270.032s270.032-120.984 270.032-270.032c0-149.976-122.469-270.412-270.032-270.412zM880.902 790.99l-115.361 82.248c-20.683 14.785-49.424 9.963-64.208-10.755-14.782-20.701-9.963-49.461 10.757-64.208l115.359-82.248c20.625-14.761 49.418-9.982 64.208 10.755 14.785 20.701 9.963 49.461-10.755 64.208zM196.552 716.027l115.322 82.248c20.72 14.766 25.539 43.507 10.757 64.208-14.785 20.718-43.525 25.539-64.208 10.755l-115.324-82.248c-20.72-14.766-25.539-43.507-10.755-64.208 14.863-20.839 43.682-25.44 64.208-10.755zM615.21 435.74h-66.37v101.262c0 20.102-16.687 36.789-36.789 36.789-20.479 0-36.787-16.687-36.787-36.789v-138.051c0-20.479 16.308-37.167 36.787-37.167h103.16c20.479 0 36.787 16.687 36.787 37.167 0 20.102-16.308 36.789-36.787 36.789z" />
<glyph unicode="&#xe93e;" glyph-name="almirah" d="M137.67 817.010c0.017-84.393-0.062 305.674 0.167-825.243 0-11.208 9.088-20.296 20.299-20.296h60.472c8.551 0 16.185 5.354 19.097 13.394l33.822 93.35h202.549v803.65h-271.551c-35.65 0-64.854-29.204-64.854-64.854zM360.297 542.806c20.859 0 37.926-17.067 37.926-37.926 0-21.238-17.067-37.926-37.926-37.926-21.238 0-37.926 16.687-37.926 37.926 0 20.859 16.688 37.926 37.926 37.926zM886.33 817.010c0 35.65-29.204 64.854-64.854 64.854h-271.549v-803.65h202.516l33.819-93.35c2.914-8.039 10.549-13.394 19.1-13.394h60.472c11.211 0 20.299 9.088 20.299 20.296 0.27 1130.917 0.177 740.862 0.197 825.243zM663.705 466.954c-21.238 0-37.926 16.687-37.926 37.926 0 20.859 16.687 37.926 37.926 37.926 20.859 0 37.926-17.067 37.926-37.926 0-21.238-17.067-37.926-37.926-37.926z" />
<glyph unicode="&#xe93f;" glyph-name="ambulance" d="M174.423 187.905c13.994-61.1 68.948-106.838 134.144-106.838 65.194 0 119.808 45.737 133.802 106.496h122.879c13.996-60.758 68.608-106.496 133.804-106.496 65.194 0 119.808 45.737 133.802 106.496h12.288c42.325 0 76.458 34.133 76.458 76.458v177.835c0 15.36-4.438 30.038-13.31 43.008l-90.112 133.119c-14.335 20.821-37.888 33.45-63.488 33.45h-67.585v44.375c0 42.325-34.133 76.458-76.458 76.458h-431.785c-42.327 0-76.46-34.133-76.46-76.458v-431.787c0-40.96 31.744-74.069 72.023-76.117zM632.492 571.221c0 6.485 5.46 11.946 12.288 11.946h103.765c3.756 0 7.51-2.048 9.558-5.119l95.231-136.192c0-6.827-5.46-11.948-11.946-11.948h-196.608c-6.827 0-12.288 5.121-12.288 11.948v129.365zM699.052 287.915c38.229 0 69.29-31.063 69.29-69.292 0-37.354-30.619-69.29-69.29-69.29-38.708 0-69.292 31.974-69.292 69.29 0 38.229 31.063 69.292 69.292 69.292zM308.567 149.334c-38.708 0-69.292 31.974-69.292 69.29 0 38.229 31.063 69.292 69.292 69.292s69.29-31.063 69.29-69.292c0-37.488-30.755-69.29-69.29-69.29zM255.319 597.505h49.152v49.494c0 18.773 15.358 34.133 34.133 34.133 18.773 0 34.133-15.36 34.133-34.133v-49.494h49.492c18.775 0 34.133-15.36 34.133-34.133s-15.358-34.133-34.133-34.133h-49.492v-49.494c0-18.773-15.36-34.133-34.133-34.133-18.775 0-34.133 15.36-34.133 34.133v49.494h-49.152c-19.115 0-34.133 15.36-34.133 34.133s15.019 34.133 34.133 34.133z" />
<glyph unicode="&#xe940;" glyph-name="analog-watch" d="M687.787 94.436v-62.576c0-32.995-26.926-60.303-60.306-60.303h-230.963c-33.38 0-60.306 27.308-60.306 60.303v62.576h351.574zM797.398 881.778h-570.787c-67.509 0-122.12-54.613-122.12-122.12v-486.211c0-67.509 54.611-122.123 122.12-122.123h570.787c67.5 0 122.111 54.613 122.111 122.123v486.211c0 67.507-54.611 122.12-122.111 122.12zM652.519 337.919c-15.241-14.478-38.197-14.862-53.861 0l-52.333 52.338c-11-4.171-22.38-6.447-34.13-6.447-52.343 0-94.815 42.477-94.815 94.815 0 39.065 23.509 72.44 56.889 86.85v132.363c0 20.859 17.065 37.926 37.926 37.926 20.852 0 37.926-17.067 37.926-37.926v-132.363c33.37-14.41 56.889-47.785 56.889-86.85 0-12.137-2.278-23.514-6.833-34.512l52.343-52.338c14.787-14.792 14.787-39.065 0-53.856z" />
<glyph unicode="&#xe941;" glyph-name="analyst" d="M751.643 823.197c-129.326 83.817-297.718 77.368-418.701-15.551-143.428-110.104-136.046-268.984-128.155-325.669 0.97-6.963-0.942-13.863-5.139-19.502l-76.435-102.734c-13.955-18.362-7.816-48.588 17.065-58.025l68.646-25.789v-84.954c0-56.528 46.25-102.78 102.78-102.78h60.681v-78.887c0-20.859 16.687-37.926 37.926-37.926h359.16c20.748 0 39.63 17.5 37.926 41.34l-13.273 146.773c-9.271 108.672 42.665 131.691 94.435 277.998 51.524 149.267-0.348 297.295-136.914 385.706zM417.169 466.38c0-20.963-16.963-37.926-37.926-37.926s-37.926 16.963-37.926 37.926v54.667c0 20.963 16.963 37.926 37.926 37.926s37.926-16.963 37.926-37.926v-54.667zM568.873 466.38c0-20.963-16.963-37.926-37.926-37.926s-37.926 16.963-37.926 37.926v110.407c0 20.963 16.963 37.926 37.926 37.926s37.926-16.963 37.926-37.926v-110.407zM720.576 466.38c0-20.963-16.963-37.926-37.926-37.926s-37.926 16.963-37.926 37.926v194c0 20.963 16.963 37.926 37.926 37.926s37.926-16.963 37.926-37.926v-194z" />
<glyph unicode="&#xe942;" glyph-name="ancel-payment" d="M894.543 472.424v-117.572h-771.792v213.144c0 73.576 59.924 133.5 133.5 133.5h373.19c-3.792-12.137-6.067-24.65-6.826-37.546-12.281-147.22 147.463-248.688 271.171-184.699 0.377-2.275 0.757-4.551 0.757-6.826zM122.751 279h771.792v-31.1c0-73.954-59.544-133.877-133.12-133.877h-505.171c-73.576 0-133.5 59.924-133.5 133.877v31.1zM865.36 649.792l24.778 24.778c14.815 14.815 14.815 38.815 0 53.63s-38.815 14.815-53.63 0l-24.778-24.778-24.778 24.778c-14.815 14.815-38.815 14.815-53.63 0s-14.815-38.815 0-53.63l24.778-24.778-24.778-24.778c-14.815-14.815-14.815-38.815 0-53.63s38.814-14.815 53.63 0l24.778 24.778 24.778-24.778c14.814-14.814 38.814-14.815 53.63 0s14.815 38.815 0 53.63l-24.778 24.778z" />
<glyph unicode="&#xe943;" glyph-name="anchor" d="M892.096 240.547l-31.115 98.462c-5.906 18.115-20.087 31.901-38.202 36.627-18.512 5.12-37.81 0.394-51.988-12.603l-76.012-69.712c-14.966-13.389-21.269-34.264-16.541-53.563 4.726-19.692 20.084-35.053 39.385-40.565l10.969-2.945c-28.788-77.952-96.031-134.288-177.252-148.067v393.026h86.038c21.769 0 39.385 17.635 39.385 39.385s-17.615 39.385-39.385 39.385h-86.038v75.050c63.065 17.389 109.57 74.728 109.57 143.339 0 81.921-66.56 148.875-148.875 148.875-82.312 0-149.267-66.954-149.267-148.875 0-68.562 46.714-125.863 109.803-143.298v-75.091h-86.038c-21.769 0-39.385-17.635-39.385-39.385s17.615-39.385 39.385-39.385h86.038v-392.993c-81.18 13.897-148.37 70.236-177.2 148.111l10.683 2.868c19.692 5.512 34.659 20.873 39.385 40.565 4.726 19.298-1.577 40.173-16.149 53.563l-76.406 69.712c-13.784 12.998-33.082 17.724-51.594 12.998-18.115-5.12-32.688-18.906-38.202-37.022l-31.115-98.462c-5.906-19.298-1.18-40.173 12.998-54.745 10.24-11.029 24.813-17.329 39.779-17.329 4.726 0 9.452 0.788 14.178 1.969l19.567 5.252c42.803-124.764 159.524-209.601 293.692-209.601 134.024 0 250.57 84.791 293.262 209.529l19.3-5.18c4.726-1.18 9.452-1.969 14.572-1.969 14.572 0 29.144 6.3 39.779 17.329 13.784 14.572 18.904 35.447 12.998 54.745z" />
<glyph unicode="&#xe944;" glyph-name="an-icon-design-of-mobile-downloading-filled-vector" d="M713.729 836.267h-403.456c-65.196 0-118.444-53.248-118.444-118.785 0-228.27 0-487.942 0-581.973 0-65.535 53.248-118.442 118.444-118.442h403.456c65.194 0 118.442 52.906 118.442 118.442 0 94.027 0 353.697 0 581.973 0 65.537-53.248 118.785-118.442 118.785zM310.273 768h403.456c27.648 0 50.175-22.871 50.175-50.519v-488.448h-503.808v488.448c0 27.648 22.529 50.519 50.177 50.519zM512 88.746c-18.773 0-34.133 15.36-34.133 34.133 0 19.115 15.36 34.475 34.133 34.475 19.115 0 34.133-15.36 34.133-34.475 0-18.773-15.019-34.133-34.133-34.133zM432.954 499.363h158.094c15.179 0 29.213 5.727 40.096 16.323 10.596 10.883 16.608 24.917 16.608 40.096 0 28.067-20.906 51.552-48.115 55.848-6.873 43.819-44.965 77.9-90.785 77.9-46.398 0-85.060-34.652-91.362-79.331-9.165-2.577-17.756-7.733-24.629-14.606-10.596-10.596-16.61-24.917-16.61-39.81 0-31.217 25.49-56.419 56.704-56.419zM554.006 401.19h-16.404v38.44c0 14.133-11.467 25.6-25.6 25.6s-25.6-11.467-25.6-25.6v-38.44h-16.827c-7.523 0-15.046-4.179-18.39-11.283-3.76-7.108-2.923-15.465 1.673-21.735l42.217-58.098c3.758-5.435 10.029-8.36 16.717-8.36 6.69 0 12.956 2.925 17.138 8.36l42.217 58.098c4.596 6.271 5.431 14.627 1.671 21.735-3.346 7.104-10.869 11.283-18.81 11.283z" />
<glyph unicode="&#xe945;" glyph-name="announcement" d="M962.56 41.643c24.576 0 40.96 16.384 40.96 40.96v696.32c0 24.576-16.384 40.96-40.96 40.96s-40.96-16.384-40.96-40.96v-28.672l-819.2-147.456v16.384c0 24.576-16.384 40.96-40.96 40.96s-40.96-16.384-40.96-40.96v-376.832c0-24.576 16.384-40.96 40.96-40.96s40.96 16.384 40.96 40.96v16.384l114.688-20.48-12.288-65.536c-8.192-49.152 24.576-94.208 73.728-102.4l229.376-36.864c49.152-8.192 94.208 24.576 102.4 73.728l8.192 57.344 299.008-53.248v-28.672c4.096-20.48 20.48-40.96 45.056-40.96zM532.48 123.563c0-4.096-4.096-4.096-8.192-4.096l-229.376 36.864c-4.096 0-8.192 4.096-8.192 4.096l8.192 61.44 245.76-45.056c0 0-8.192-57.344-8.192-53.248z" />
<glyph unicode="&#xe946;" glyph-name="antibiotic-bottle1" d="M360.959 646.782l-61.781-35.84c-30.719-18.090-55.296-46.421-63.488-80.896-2.39-9.898-3.754-20.14-3.754-30.379v-365.227c0-61.781 50.517-112.298 112.298-112.298h335.531c61.781 0 112.298 50.517 112.298 112.298v365.227c0 10.24-1.365 20.481-3.754 30.379-8.192 34.817-33.108 63.488-64.171 81.238l-61.098 35.156c-11.265 11.265-18.433 25.942-19.798 41.644-0.006 0.027-0.002 0.063-0.006 0.090h6.862c18.775 0 34.133 15.019 34.133 34.133v74.752c0 19.115-15.358 34.133-34.133 34.133h-276.137c-18.773 0-34.133-15.019-34.133-34.133v-74.752c0-19.115 15.36-34.133 34.133-34.133h6.465c-0.010-0.029 0-0.063-0.010-0.090-1.023-15.36-7.85-30.038-19.456-41.302zM415.574 386.344h53.929v53.931c0 23.552 19.115 42.667 42.667 42.667s42.667-19.115 42.667-42.667v-53.931h53.931c23.552 0 42.667-19.115 42.667-42.667s-19.115-42.667-42.667-42.667h-53.931v-53.929c0-23.552-19.115-42.667-42.667-42.667s-42.667 19.115-42.667 42.667v53.929h-53.929c-23.552 0-42.667 19.115-42.667 42.667s19.115 42.667 42.667 42.667z" />
<glyph unicode="&#xe947;" glyph-name="antibiotic-bottle" d="M376.487 628.47l-72.358-50.858c-32.429-23.21-51.883-60.075-51.883-100.010v-338.602c0-67.244 54.608-121.856 122.196-121.856h275.112c67.242 0 122.2 54.613 122.2 121.856v338.26c0 40.277-19.458 77.142-51.883 100.352l-72.704 50.858c-9.558 7.169-15.362 17.75-15.362 29.696v54.392h11.642c18.033 0 32.792 14.758 32.792 32.794v58.046c0 18.038-14.758 32.794-32.792 32.794-5.728 0-266.458-0.002-263.008 0-18.042 0-32.796-14.756-32.796-32.794v-58.046c0-18.035 14.754-32.794 32.796-32.794h11.413v-54.392c0-11.946-5.804-22.527-15.363-29.696zM425.3 345.164h52.563v52.565c0 18.775 15.362 34.133 34.133 34.133 18.775 0 34.133-15.358 34.133-34.133v-52.565h52.567c18.775 0 34.133-15.36 34.133-34.133s-15.358-34.133-34.133-34.133h-52.567v-52.565c0-18.775-15.358-34.133-34.133-34.133-18.771 0-34.133 15.358-34.133 34.133v52.565h-52.563c-18.771 0-34.133 15.36-34.133 34.133s15.363 34.133 34.133 34.133z" />
<glyph unicode="&#xe948;" glyph-name="antiseptic-liquid" d="M304.808 17.067h414.383c58.025 0 105.125 47.104 105.125 105.129v469.333c0 30.36-13.286 58.008-34.475 77.825l-152.575 139.604c-19.891 18.364-46.269 27.308-70.65 27.308h-261.808c-58.025 0-105.125-47.104-105.125-105.131v-608.94c0-58.025 47.1-105.129 105.125-105.129zM635.217 330.411c0-19.798-16.383-36.181-36.175-36.181h-50.517v-50.177c0-20.479-16.392-36.523-36.525-36.523-20.142 0-36.525 16.044-36.525 36.523v50.177h-50.517c-19.792 0-36.183 16.383-36.183 36.181 0 20.479 16.392 36.523 36.183 36.523h50.517v50.517c0 19.798 16.383 36.181 36.525 36.181 20.133 0 36.525-16.383 36.525-36.181v-50.517h50.517c19.792 0 36.175-16.044 36.175-36.523zM319.483 731.136h222.892c18.775 0 34.133-15.36 34.133-34.133s-15.358-34.133-34.133-34.133h-222.892c-18.767 0-34.133 15.36-34.133 34.133s15.367 34.133 34.133 34.133z" />
<glyph unicode="&#xe949;" glyph-name="antivirus" d="M490.325 18.433c3.067-1.025 6.483-1.367 9.9-1.367h23.55c3.417 0 6.833 0.342 9.9 1.367 313.683 93.183 318.467 347.135 320.85 468.992 0.683 26.623 0.35 91.819 0.35 126.633-0.35 26.283-14.683 50.86-37.9 63.49l-269.3 149.504c-22.192 12.288-48.817 12.288-71.35 0l-269.3-149.504c-23.217-12.629-37.55-37.206-37.9-63.49 0-34.815-0.333-100.010 0.35-126.633 2.383-121.856 7.167-375.808 320.85-468.992zM511.825 620.544c107.867 0 195.25-87.381 195.25-195.242 0-57.685-24.583-91.135-76.8-104.448l0.333-20.14c0-37.888-30.367-67.925-67.583-67.925h-96.25c-37.55 0-67.583 30.038-67.583 67.244l-0.683 19.456c-38.567 8.533-81.583 31.060-81.583 105.813 0 107.86 87.383 195.242 194.9 195.242zM463.208 453.637c13.044 12.342 13.355 35.498 0 48.133-14.23 14.23-35.714 12.727-48.467 0-13.51-13.547-12.81-35.289 0-48.133 12.402-12.37 34.374-14.093 48.467 0zM565.925 449.204c16.085-8.174 30.551-8.726 43 4.433 11.989 10.814 14.892 33.971 0 48.133-8.559 10.646-32.456 15.677-48.133 0-12.713-12.028-15.391-36.384 5.133-52.567zM512 313.75c18.867 0 34.133 15.283 34.133 34.133v12.567c0 18.85-15.267 34.133-34.133 34.133s-34.133-15.283-34.133-34.133v-12.567c0-18.85 15.267-34.133 34.133-34.133z" />
<glyph unicode="&#xe94a;" glyph-name="apartment-building" d="M866.68 12.034h-32.050v708.86c0 46.695-38.093 84.787-84.785 84.787h-55.545v59.392c0 31.948-26.212 58.162-58.162 58.162h-238.387c-31.948 0-58.162-26.215-58.162-58.162v-59.392h-65.698c-46.695 0-84.787-38.092-84.787-84.787v-708.86h-31.783c-22.64 0-40.96-18.34-40.96-40.96s18.32-40.96 40.96-40.96c4.666-0.001 757.391-0.036 709.36 0 22.64 0 40.96 18.34 40.96 40.96s-18.32 40.96-40.96 40.96zM336.557 665.599c0 9.42 7.782 17.202 17.613 17.202h315.803c9.83 0 17.613-7.782 17.613-17.202v-47.515c0-9.42-7.782-17.203-17.613-17.203h-315.803c-9.83 0-17.613 7.782-17.613 17.203v47.515zM336.557 501.759c0 9.42 7.782 17.202 17.613 17.202h315.803c9.83 0 17.613-7.782 17.613-17.202v-47.515c0-9.42-7.782-17.202-17.613-17.202h-315.803c-9.83 0-17.613 7.782-17.613 17.202v47.515zM336.557 337.919c0 9.42 7.782 17.202 17.613 17.202h315.803c9.83 0 17.613-7.782 17.613-17.202v-47.515c0-9.42-7.782-17.202-17.613-17.202h-315.803c-9.83 0-17.613 7.782-17.613 17.202v47.515zM336.557 174.079c0 9.42 7.782 17.202 17.613 17.202h315.803c9.83 0 17.613-7.782 17.613-17.202v-47.515c0-9.42-7.782-17.202-17.613-17.202h-315.803c-9.83 0-17.613 7.782-17.613 17.202v47.515z" />
<glyph unicode="&#xe94b;" glyph-name="app-download" d="M716.8-12.19c62.171 0 117.029 51.2 117.029 117.029v643.657c0 62.171-51.2 117.029-117.029 117.029h-409.6c-62.171 0-113.371-51.2-113.371-117.029v-647.314c0-62.171 51.2-117.029 117.029-117.029h405.943zM522.971 60.953h-25.6c-21.943 0-36.571 14.629-36.571 36.571 0 18.286 14.629 36.571 36.571 36.571h25.6c21.943 0 36.571-18.286 36.571-36.571 0-21.943-14.629-36.571-36.571-36.571zM303.543 693.638c0 32.914 25.6 62.171 62.171 62.171h292.571c36.571 0 62.171-29.257 62.171-62.171v-420.571c0-36.571-29.257-62.171-62.171-62.171h-292.571c-36.571 0-62.171 29.257-62.171 62.171v420.571zM490.057 320.61c10.971-10.971 32.914-14.629 47.543 0l106.057 106.057c10.971 10.971 10.971 32.914 0 47.543-10.971 10.971-32.914 10.971-47.543 0l-51.2-51.2v193.829c0 18.286-14.629 32.914-32.914 32.914s-32.914-14.629-32.914-32.914v-193.829l-51.2 51.2c-10.971 10.971-32.914 10.971-47.543 0-10.971-10.971-10.971-32.914 0-47.543l109.714-106.057z" />
<glyph unicode="&#xe94c;" glyph-name="apple1" d="M925.034 295.457c-26.887-151.159-133.235-323.901-284.189-323.901-36.435 0-70.683 10.93-100.924 32.060-16.394 11.659-39.712 11.659-56.108 0-29.877-20.766-64.49-32.060-100.56-32.060-129.342 0-251.762 139.178-284.554 323.901-21.86 125.335 1.459 243.018 62.304 315.524 37.526 44.814 86.35 68.495 141.002 68.495 42.992 0 87.079-15.667 126.792-45.178 49.915-36.435 116.226-36.435 166.141 0 39.715 29.512 83.799 45.178 126.794 45.178 55.014 0 103.838-23.681 141.729-68.86 60.847-72.869 83.801-190.554 61.575-315.16zM650.236 719.524c-38.15-38.147-87.959-47.426-141.554-41.236-9.119 0.794-16.653 7.931-18.24 17.050-7.928 57.097 6.742 108.246 42.030 143.139 35.29 34.893 85.647 49.563 142.744 40.841 9.516 0 15.464-6.74 17.050-16.653 7.931-57.097-6.74-108.248-42.030-143.141z" />
<glyph unicode="&#xe94d;" glyph-name="apple2" d="M821.426 557.27c-28.164 46.721-68.484 79.682-119.367 97.602-45.117 16-88 13.439-127.68-7.361-4.477-2.24-8.641-4.479-12.797-7.039-5.438-2.881-10.562-5.76-15.68-8.32-1.199-0.514-2.637-1.027-3.852-1.541-5.73 65.264-36.297 152.074-127.234 178.699-16.906 5-34.75-4.766-39.719-21.719s4.781-34.734 21.719-39.688c58.258-17.062 75.543-73.471 80.387-113.24-9.613 4.58-19.293 9.166-25.379 12.209-34.242 18.238-69.766 22.719-105.281 14.398-73.602-17.279-126.719-62.080-157.758-133.119-22.727-52.16-28.484-110.080-17.602-182.080 8-52.801 24.32-103.68 48.961-151.359 22.398-43.84 48.953-79.361 80.953-108.801 46.086-42.561 101.125-53.439 158.406-32 13.117 5.121 26.234 10.24 39.359 15.359 8.641 3.84 18.562 3.84 27.516 0.32l8.961-3.52c15.68-6.4 32-12.801 49.281-17.6 36.152-10.331 69.785-6.528 99.523 9.6 26.234 14.080 49.281 33.279 68.156 56.961 0 0 0 0 0 0.318 79.68 100.16 114.562 213.441 104 336-3.203 37.121-14.719 72.641-34.875 105.92zM431.629 189.746c-12.459-12.552-32.771-12.604-45.25-0.156-17.812 17.656-33.156 39.312-46.938 66.219-18.062 35.016-30.125 72.062-35.781 110.016-2.594 17.484 9.469 33.766 26.938 36.375 17.438 2.469 33.781-9.484 36.375-26.938 4.625-31 14.5-61.344 29.375-90.188 10.719-20.875 22.188-37.234 35.094-50.078 12.562-12.453 12.625-32.703 0.187-45.25z" />
<glyph unicode="&#xe94e;" glyph-name="apple3" d="M703.307 736.532c-29.692-4.433-58.367-16.725-85.333-34.817-24.542-17.042-52.142-27.275-80.433-31.717 0.521 32.675 11.775 69.642 52.283 94.475 16.067 9.867 21.1 30.867 11.25 46.933-9.867 16.067-30.9 21.1-46.95 11.267-63.471-38.925-83.55-98.1-84.471-152.033-0.054 0.008-0.104 0.008-0.154 0.017-26.967 4.433-53.592 14.333-78.508 28.667-22.871 13.317-46.425 21.85-71 25.6-153.258 23.217-245.758-158.717-209.917-369.317 30.375-179.2 145.067-316.075 258.729-329.050 47.787-5.117 91.137 11.267 125.954 43.35 11.263 10.583 28.329 10.583 39.933 0.683 33.108-28.667 74.408-42.325 119.467-37.55 114.35 12.633 229.033 150.192 259.754 330.758 35.842 211.967-56.321 395.258-210.604 372.733zM300.877 556.649c-11.263-13.65-25.6-47.442-27.646-98.3-0.683-18.433-15.704-32.775-33.792-32.775h-1.367c-19.117 0.683-33.792 16.392-32.767 35.5 2.046 58.717 18.087 109.567 43.346 139.608 12.288 14.342 33.792 16.042 48.129 4.092 14.333-12.283 16.383-33.783 4.096-48.125z" />
<glyph unicode="&#xe94f;" glyph-name="apple" d="M655.7 659.278c-30.379-3.073-60.075-16.044-87.723-38.229-33.108-26.283-79.529-26.283-112.64-0.342-27.306 21.504-55.979 34.133-86.017 38.229-125.847 16.779-232.788-65.527-232.788-234.154 0-159.746 102.4-404.481 228.692-404.481 38.571 0 76.458 15.019 108.885 43.35 21.162 18.431 54.615 18.773 75.777 0 32.427-28.331 70.315-43.35 108.885-43.35 126.294 0 228.694 244.735 228.694 404.481 0 165.74-98.044 247.729-231.767 234.496zM354.985 172.878c-17.854-10.048-37.491-3.328-46.762 12.288-26.623 44.715-48.469 102.058-59.733 156.671-4.096 18.433 7.85 36.523 26.283 40.279 18.431 4.096 36.523-7.852 40.277-26.283 9.898-46.762 29.354-97.962 51.883-136.192 9.556-16.385 4.435-37.206-11.948-46.763zM524.288 651.426c0.342 0 0.681 0 0.681 0 45.056 2.048 81.921 21.162 103.767 53.59 22.185 32.085 26.623 73.729 12.288 116.396-2.39 7.167-9.217 11.946-17.067 11.604-44.715-2.048-81.579-21.162-103.765-53.59-22.187-32.425-26.283-73.727-11.948-116.394 2.048-6.827 8.875-11.606 16.044-11.606z" />
<glyph unicode="&#xe950;" glyph-name="appointment1" d="M203.777 19.572h616.79c55.977 0 101.033 45.396 101.033 101.375v525.996c0 27.648-11.263 52.906-29.354 71.337-18.431 18.433-43.69 29.696-71.679 29.696h-24.235v-75.433c0-56.321-45.74-102.4-102.4-102.4-56.321 0-102.4 46.079-102.4 102.4v75.433h-159.060v-75.433c0-56.321-46.081-102.4-102.4-102.4-56.663 0-102.4 46.079-102.4 102.4v75.433h-23.894c-55.979 0-101.377-45.396-101.377-101.033v-525.996c0-55.979 45.398-101.375 101.377-101.375zM170.667 469.828c0 26.369 21.379 47.748 47.75 47.748h587.169c26.371 0 47.748-21.379 47.748-47.748v-334.242c0-26.371-21.377-47.748-47.748-47.748l-587.171 0.002c-26.369 0-47.748 21.377-47.748 47.748v334.24zM329.983 638.495c18.867 0 34.133 15.267 34.133 34.133v127c0 18.867-15.267 34.133-34.133 34.133s-34.133-15.267-34.133-34.133v-127c0-18.867 15.267-34.133 34.133-34.133zM694.017 638.495c18.867 0 34.133 15.267 34.133 34.133v127c0 18.867-15.267 34.133-34.133 34.133s-34.133-15.267-34.133-34.133v-127c0-18.867 15.267-34.133 34.133-34.133zM288.996 172.489h446.010c13.971 0 25.296 11.325 25.296 25.296v204.723c0 13.971-11.325 25.298-25.296 25.298h-446.010c-13.971 0-25.296-11.327-25.296-25.298v-204.723c0-13.971 11.325-25.296 25.296-25.296z" />
<glyph unicode="&#xe951;" glyph-name="appointment" d="M929.792 783.019c-24.576 16.384-53.248 24.576-86.016 28.672v-57.344c0-65.536-53.248-122.88-122.88-122.88-65.536 0-122.88 53.248-122.88 122.88v53.248h-180.224v-57.344c0-65.536-53.248-122.88-122.88-122.88-65.536 0-122.88 53.248-122.88 122.88v57.344c-32.768 0-61.44-8.192-86.016-28.672-36.864-24.576-61.44-73.728-61.44-126.976v-561.152c0-86.016 69.632-155.648 155.648-155.648h663.552c86.016 0 155.648 69.632 155.648 155.648 0 57.344 0-208.896 0 561.152 0 53.248-28.672 102.4-69.632 131.072zM917.504 90.795c0-40.96-32.768-73.728-73.728-73.728h-663.552c-40.96 0-73.728 32.768-73.728 73.728v430.080h815.104v-430.080zM339.968 750.251v126.976c0 20.48-16.384 40.96-40.96 40.96-20.48 0-40.96-16.384-40.96-40.96v-126.976c0-20.48 16.384-40.96 40.96-40.96s40.96 20.48 40.96 40.96zM765.952 750.251v126.976c0 20.48-16.384 40.96-40.96 40.96s-40.96-16.384-40.96-40.96v-126.976c0-20.48 16.384-40.96 40.96-40.96s40.96 20.48 40.96 40.96zM516.096 283.307c45.056 0 81.92 36.864 81.92 81.92s-36.864 81.92-81.92 81.92c-45.056 0-81.92-36.864-81.92-81.92s36.864-81.92 81.92-81.92zM389.12 78.507h245.76c20.48 0 36.864 16.384 36.864 36.864 0 61.44-36.864 110.592-86.016 135.168-4.096 4.096-12.288 4.096-16.384 0-16.384-8.192-32.768-12.288-49.152-12.288-20.48 0-36.864 4.096-53.248 12.288-4.096 4.096-12.288 4.096-16.384 0-57.344-24.576-90.112-81.92-90.112-139.264-8.192-16.384 8.192-32.768 28.672-32.768z" />
<glyph unicode="&#xe952;" glyph-name="approve-calendar" d="M967.15 633.234c0 84.954-69.028 153.979-153.981 153.979h-21.62v-112.262c0-52.338-42.472-94.815-94.815-94.815-52.333 0-94.815 42.477-94.815 94.815v112.262h-179.769v-112.262c0-52.338-42.472-94.815-94.815-94.815-52.333 0-94.815 42.477-94.815 94.815v112.262h-21.616c-84.954 0-153.977-69.025-153.977-153.979-0.008-51.988 0.029 188.331-0.079-508.447 0-84.889 69.037-153.944 153.926-153.944h602.333c84.889 0 153.963 69.056 153.963 153.944 0.009 58.131-0.029-184.195 0.079 508.447zM891.22 124.787c0-43.056-35.037-78.093-78.111-78.093h-602.333c-43.037 0-78.074 35.037-78.074 78.093v351.333h758.519v-351.333zM327.238 636.843c20.963 0 37.926 16.981 37.926 37.926v169.796c0 20.944-16.963 37.926-37.926 37.926s-37.926-16.981-37.926-37.926v-169.796c0-20.944 16.963-37.926 37.926-37.926zM696.674 636.843c20.963 0 37.926 16.981 37.926 37.926v169.796c0 20.944-16.963 37.926-37.926 37.926s-37.926-16.981-37.926-37.926v-169.796c0-20.944 16.963-37.926 37.926-37.926zM461.498 158.361c7.407-7.407 17.111-11.111 26.815-11.111s19.407 3.704 26.815 11.111l101.296 101.315c14.815 14.815 14.815 38.833 0 53.63-14.815 14.815-38.815 14.815-53.63 0l-74.481-74.5-26.926 26.907c-14.815 14.815-38.815 14.815-53.63 0s-14.815-38.833 0-53.63l53.741-53.722z" />
<glyph unicode="&#xe953;" glyph-name="approve-card" d="M1003.52 492.203c-49.152-49.152-118.784-81.92-196.608-81.92-147.456 0-266.24 114.688-278.528 258.048h-389.12c-65.536-4.096-118.784-57.344-118.784-122.88v-319.488h983.040v266.24zM278.528 406.187c0-16.384-12.288-28.672-28.672-28.672h-118.784c-16.384 0-28.672 12.288-28.672 28.672v118.784c0 16.384 12.288 28.672 28.672 28.672h118.784c16.384 0 28.672-12.288 28.672-28.672v-118.784zM20.48 86.699c0-65.536 53.248-118.784 118.784-118.784h741.376c65.536 0 118.784 53.248 118.784 118.784v8.192h-983.040v-8.192zM806.912 885.419c-110.592 0-196.608-90.112-196.608-196.608 0-110.592 90.112-196.608 196.608-196.608 110.592 0 196.608 90.112 196.608 196.608 0 110.592-90.112 196.608-196.608 196.608zM888.832 692.907l-102.4-61.44c-4.096-4.096-12.288-4.096-16.384-4.096s-4.096 0-8.192 0c-8.192 0-16.384 8.192-20.48 12.288l-28.672 53.248c-8.192 16.384-4.096 32.768 12.288 40.96s32.768 4.096 40.96-12.288l16.384-24.576 73.728 45.056c16.384 8.192 32.768 4.096 40.96-12.288 12.288-8.192 8.192-28.672-8.192-36.864z" />
<glyph unicode="&#xe954;" glyph-name="approved-document" d="M253.952-64.853h516.096c69.632 0 126.976 57.344 126.976 126.976v729.088c0 69.632-57.344 126.976-126.976 126.976h-323.584c-32.768 0-65.536-12.288-86.016-32.768l-192.512-184.32c-24.576-24.576-40.96-57.344-40.96-94.208v-548.864c0-65.536 57.344-122.88 126.976-122.88zM745.472 299.691c0-126.976-102.4-229.376-229.376-229.376s-229.376 102.4-229.376 229.376c0 126.976 102.4 229.376 229.376 229.376s229.376-102.4 229.376-229.376zM208.896 610.987c0 12.288 8.192 28.672 16.384 32.768l188.416 180.224c4.096 4.096 16.384 12.288 32.768 12.288h4.096v-155.648c0-40.96-32.768-77.824-77.824-77.824l-163.84 8.192zM434.176 242.347c12.288-20.48 36.864-28.672 57.344-16.384l126.976 73.728c20.48 12.288 24.576 36.864 16.384 57.344-12.288 20.48-36.864 24.576-57.344 16.384l-90.112-53.248-16.384 28.672c-12.288 20.48-36.864 24.576-57.344 16.384-20.48-12.288-24.576-36.864-16.384-57.344l36.864-65.536z" />
<glyph unicode="&#xe955;" glyph-name="approved-file1" d="M876.544 70.315v643.072c0 77.824-61.44 139.264-139.264 139.264h-8.192c0-86.016-69.632-151.552-151.552-151.552h-135.168c-86.016 0-151.552 69.632-151.552 151.552h-8.192c-77.824 0-139.264-61.44-139.264-139.264v-647.168c0-77.824 61.44-139.264 139.264-139.264h458.752c73.728 4.096 135.168 65.536 135.168 143.36zM503.808 78.507c-131.072 0-233.472 106.496-233.472 233.472 0 131.072 106.496 233.472 233.472 233.472 131.072 0 233.472-106.496 233.472-233.472 0-131.072-106.496-233.472-233.472-233.472zM581.632 778.923c40.96 0 69.632 32.768 69.632 69.632s-32.768 69.632-69.632 69.632h-135.168c-40.96 0-69.632-32.768-69.632-69.632s32.768-69.632 69.632-69.632h135.168zM589.824 385.707l-126.976-77.824-28.672 45.056c-12.288 20.48-36.864 24.576-57.344 12.288s-24.576-36.864-12.288-57.344l40.96-65.536c16.384-24.576 53.248-36.864 77.824-16.384l143.36 90.112c20.48 12.288 24.576 36.864 12.288 57.344-4.096 20.48-28.672 24.576-49.152 12.288z" />
<glyph unicode="&#xe956;" glyph-name="approved-file2" d="M897.024 791.211c0 69.632-57.344 126.976-126.976 126.976h-327.68c-20.48 0-36.864-4.096-49.152-12.288-12.288-4.096-24.576-12.288-36.864-24.576l-188.416-180.224c-12.288-8.192-20.48-20.48-28.672-36.864s-12.288-36.864-12.288-53.248v-544.768c0-69.632 57.344-126.976 126.976-126.976h516.096c69.632 0 126.976 57.344 126.976 126.976v724.992zM512 94.891c-131.072 0-233.472 106.496-233.472 233.472 0 131.072 106.496 233.472 233.472 233.472s233.472-106.496 233.472-233.472c0-126.976-102.4-233.472-233.472-233.472zM577.536 410.283l-98.304-65.536-20.48 28.672c-12.288 20.48-36.864 24.576-57.344 12.288s-24.576-36.864-12.288-57.344l40.96-65.536c8.192-12.288 20.48-16.384 32.768-16.384 8.192 0 16.384 4.096 20.48 8.192l131.072 86.016c20.48 12.288 24.576 36.864 12.288 57.344-4.096 16.384-32.768 24.576-49.152 12.288z" />
<glyph unicode="&#xe957;" glyph-name="approved-file3" d="M643.072 860.843h-53.248c0 40.96-36.864 73.728-77.824 73.728s-77.824-32.768-77.824-73.728h-53.248c-16.384 0-28.672-12.288-28.672-28.672v-32.768h-81.92c-57.344 0-102.4-45.056-102.4-102.4v-679.936c0-57.344 45.056-102.4 102.4-102.4h487.424c57.344 0 102.4 45.056 102.4 102.4v679.936c0 57.344-45.056 102.4-102.4 102.4h-81.92v32.768c-4.096 16.384-16.384 28.672-32.768 28.672zM729.088 357.035c0-118.784-98.304-217.088-217.088-217.088s-217.088 98.304-217.088 217.088c0 118.784 98.304 217.088 217.088 217.088s217.088-94.208 217.088-217.088zM573.44 438.955l-98.304-73.728-20.48 24.576c-12.288 16.384-40.96 20.48-57.344 4.096s-20.48-40.96-4.096-57.344l45.056-57.344c12.288-16.384 36.864-20.48 57.344-8.192l131.072 94.208c16.384 12.288 20.48 40.96 8.192 57.344-16.384 24.576-40.96 28.672-61.44 16.384z" />
<glyph unicode="&#xe958;" glyph-name="approved-file" d="M139.264-64.853h507.904c-90.112 49.152-151.552 143.36-151.552 253.952 0 159.744 131.072 290.816 290.816 290.816 0 0 4.096 0 4.096 0v331.776c0 57.344-49.152 106.496-106.496 106.496h-544.768c-57.344 0-106.496-49.152-106.496-106.496v-770.048c0-57.344 45.056-106.496 106.496-106.496zM233.472 754.347h352.256c24.576 0 40.96-20.48 40.96-40.96 0-24.576-16.384-40.96-40.96-40.96h-352.256c-24.576 0-40.96 16.384-40.96 40.96 0 20.48 20.48 40.96 40.96 40.96zM233.472 561.835h229.376c24.576 0 40.96-20.48 40.96-40.96 0-24.576-16.384-40.96-40.96-40.96h-229.376c-24.576 0-40.96 16.384-40.96 40.96s20.48 40.96 40.96 40.96zM786.432 393.899c-114.688 0-208.896-94.208-208.896-208.896s94.208-208.896 208.896-208.896c114.688 0 208.896 94.208 208.896 208.896s-94.208 208.896-208.896 208.896zM888.832 205.483l-102.4-98.304c-8.192-8.192-16.384-12.288-28.672-12.288v0c-12.288 0-20.48 4.096-28.672 12.288l-49.152 53.248c-16.384 16.384-16.384 40.96 4.096 57.344 16.384 16.384 40.96 16.384 57.344 0l20.48-24.576 73.728 69.632c16.384 16.384 40.96 16.384 57.344 0 12.288-12.288 12.288-40.96-4.096-57.344z" />
<glyph unicode="&#xe959;" glyph-name="approve-money" d="M20.48 463.531v-401.408c0-49.152 40.96-86.016 86.016-86.016h811.008c49.152 0 86.016 40.96 86.016 86.016v401.408c0 49.152-36.864 86.016-86.016 86.016h-811.008c-45.056 0-86.016-36.864-86.016-86.016zM102.4 357.035c0 24.576 20.48 40.96 40.96 40.96 16.384 0 28.672 12.288 28.672 28.672 0 24.576 20.48 40.96 40.96 40.96h598.016c24.576 0 40.96-16.384 40.96-40.96 0-16.384 12.288-28.672 28.672-28.672 24.576 0 40.96-16.384 40.96-40.96v-192.512c0-24.576-16.384-40.96-40.96-40.96-16.384 0-28.672-12.288-28.672-28.672 0-20.48-16.384-40.96-40.96-40.96h-598.016c-20.48 0-40.96 20.48-40.96 40.96 0 16.384-12.288 28.672-28.672 28.672-20.48 0-40.96 16.384-40.96 40.96v192.512zM266.24 262.827c0-29.408-23.84-53.248-53.248-53.248s-53.248 23.84-53.248 53.248c0 29.408 23.84 53.248 53.248 53.248s53.248-23.84 53.248-53.248zM864.256 262.827c0-29.408-23.84-53.248-53.248-53.248s-53.248 23.84-53.248 53.248c0 29.408 23.84 53.248 53.248 53.248s53.248-23.84 53.248-53.248zM512 98.987c90.112 0 159.744 73.728 159.744 163.84s-73.728 163.84-159.744 163.84c-90.112 0-159.744-73.728-159.744-163.84s73.728-163.84 159.744-163.84zM442.368 291.499c12.288 8.192 28.672 4.096 36.864-8.192l12.288-20.48 65.536 40.96c12.288 8.192 28.672 4.096 36.864-8.192s4.096-28.672-8.192-36.864l-90.112-57.344c-4.096-4.096-8.192-4.096-12.288-4.096 0 0-4.096 0-8.192 0-8.192 0-12.288 8.192-16.384 12.288l-24.576 45.056c-8.192 12.288-4.096 28.672 8.192 36.864zM81.92 672.427c0-24.576 16.384-40.96 40.96-40.96h778.24c24.576 0 40.96 16.384 40.96 40.96s-16.384 40.96-40.96 40.96h-778.24c-20.48 0-40.96-16.384-40.96-40.96zM815.104 795.307c24.576 0 40.96 16.384 40.96 40.96s-16.384 40.96-40.96 40.96h-606.208c-24.576 0-40.96-16.384-40.96-40.96s16.384-40.96 40.96-40.96h606.208z" />
<glyph unicode="&#xe95a;" glyph-name="approve-precision" d="M929.185 464.593h-34.62c-17.819 182.007-163.030 326.863-344.639 344.731v34.528c0 20.963-16.981 37.926-37.926 37.926s-37.926-16.963-37.926-37.926v-34.507c-0.035-0.002-0.072-0.002-0.106-0.005-181.667-17.826-326.921-162.704-344.748-344.748h-34.405c-20.944 0-37.926-16.963-37.926-37.926s16.981-37.926 37.926-37.926h34.405c17.826-182.044 163.081-326.921 344.748-344.748 0.035-0.002 0.072-0.002 0.106-0.005v-34.507c0-20.963 16.981-37.926 37.926-37.926s37.926 16.963 37.926 37.926v34.528c181.609 17.868 326.819 162.725 344.639 344.731h34.62c20.944 0 37.926 16.963 37.926 37.926s-16.981 37.926-37.926 37.926zM511.894 193.801c-128.19 0-232.866 104.296-232.866 232.866s104.676 232.866 232.866 232.866c128.569 0 232.866-104.296 232.866-232.866s-104.296-232.866-232.866-232.866zM560.817 504.035l-74.333-74.333-23.516 23.514c-14.789 14.792-38.683 14.792-53.475 0s-14.792-38.685 0-53.477l50.442-50.44c7.206-7.586 17.067-11 26.549-11 9.859 0 19.72 3.414 26.926 11l101.262 101.262c14.792 14.792 14.792 38.685 0 53.475-14.789 14.792-39.062 14.792-53.854 0z" />
<glyph unicode="&#xe95b;" glyph-name="archery" d="M910.628 753.643l-15.866 2.479 1.662 1.15c17.222 11.926 21.519 35.556 9.574 52.778-11.907 17.222-35.611 21.556-52.759 9.593l-7.931-5.493 3.727 23.863c3.241 20.704-10.926 40.111-31.611 43.333-20.537 3.074-40.093-10.926-43.315-31.63l-14.861-95.201-51.546-35.715c-65.954 72.66-160.815 118.618-266.486 118.618-198.352 0-359.917-161.565-359.917-360.296 0-127.84 67.051-240.016 167.551-303.981l-83.685-144.646c-10.481-18.148-4.296-41.333 13.833-51.815 17.981-10.465 41.289-4.387 51.833 13.815l86.157 148.921c38.796-14.354 80.528-22.59 124.227-22.59 43.907 0 85.81 8.278 124.75 22.708l86.051-149.002c10.539-18.297 33.846-24.258 51.796-13.889 18.148 10.481 24.352 33.667 13.87 51.815l-83.63 144.803c100.495 63.988 167.458 176.104 167.458 303.861 0 65.808-18.005 127.345-48.921 180.486l51.741 35.854c95.046-14.687 94.985-15.227 100.5-15.227 18.352 0 34.5 13.37 37.407 32.074 3.241 20.704-10.907 40.074-31.611 43.333zM611.882 477.122c0-94.056-76.611-170.667-170.667-170.667s-170.287 76.611-170.287 170.667 76.231 170.667 170.287 170.667c40.903 0 78-15.083 107.44-39.194l-117.787-81.618c-17.222-11.926-21.519-35.556-9.574-52.778 11.928-17.246 35.599-21.484 52.759-9.593l121.495 84.188c10.213-21.87 16.333-45.998 16.333-71.671z" />
<glyph unicode="&#xe95c;" glyph-name="archery-arrow1" d="M949.276 863.945c-14.815 14.815-38.815 14.815-53.63 0l-41.843-41.831c-73.552 49.078-176.192 43.024-243.486-24.266-56.889-56.509-219.97-380.398-269.653-479.384l-106.194 8.725c-11.377 0.757-21.995-3.035-29.961-11l-129.706-130.086c-10.62-10.241-14.032-25.789-8.722-39.822 4.928-13.653 17.444-23.514 32.236-24.653l100.125-8.343 8.722-100.125c1.139-14.792 10.62-27.685 24.653-32.616 13.717-4.993 29.515-1.585 39.822 8.722l129.706 130.086c7.965 7.586 12.137 18.583 10.998 29.963l-8.722 106.192c74.429 37.214 418.961 209.194 479.764 269.273 66.814 66.819 73.834 169.479 24.093 243.748l41.799 41.787c14.815 14.796 14.815 38.815 0 53.63z" />
</font>
</defs>
</svg>
