<?xml version="1.0" standalone="no"?>
<!DOCTYPE svg PUBLIC "-//W3C//DTD SVG 1.1//EN" "http://www.w3.org/Graphics/SVG/1.1/DTD/svg11.dtd" >
<svg xmlns="http://www.w3.org/2000/svg" xmlns:xlink="http://www.w3.org/1999/xlink" version="1.1">
<metadata></metadata>
<defs>
<font id="hand_of_sean_proregular" horiz-adv-x="1328" >
<font-face units-per-em="2048" ascent="1638" descent="-410" />
<missing-glyph horiz-adv-x="609" />
<glyph unicode="&#xfb01;" horiz-adv-x="1046" d="M-49 711q0 21 15 48q1 5 3.5 9t7 7.5t9 6t12 5t12.5 4t14 3.5t13 2.5t13.5 2t11.5 1.5l28 4q54 9 62 19.5t10 68.5q2 106 15 182.5t42 140.5t83 99t132 40q238 0 347 -142q63 -84 80 -168q3 -18 3 -32q0 -79 -95 -79h-5q-65 0 -85 47q-9 17 -14 51q-7 33 -16 58 q-24 68 -101 95q-21 7 -43 7q-50 0 -78 -47q-39 -63 -60 -177q-8 -43 -8 -69q0 -73 49 -74q59 -2 161 -4q70 -1 102.5 -2t82.5 -5t71 -11t52 -21t43 -34t27 -50t20 -69.5t7 -92.5q1 -10 1 -32q0 -71 -7 -170q-4 -96 -4 -117q0 -24 2 -48q2 -22 2 -32q0 -41 -13.5 -77.5 t-38.5 -50.5q-14 -8 -26 -8q-14 0 -31 10q-32 18 -59 80q-49 208 -49 387q0 84 11 166q-17 -1 -152 -1h-94q-110 0 -110 2q-33 -8 -33 -66q0 -13 1 -19q4 -38 16 -106q24 -123 32 -175.5t8 -106.5q0 -61 -29 -113.5t-76 -52.5q-13 0 -31 8q-63 30 -74 135q-13 70 -19 216 q-8 160 -17 216q-3 23 -18 30.5t-81 22.5q-9 2 -14.5 3.5t-14.5 3.5t-17 4q-58 14 -76 35q-12 12 -12 32z" />
<glyph unicode="&#xfb02;" horiz-adv-x="1186" d="M-49 721q0 14 5 25t17.5 18.5t23.5 13t32 10t32.5 6.5t36.5 6q42 5 62 12q0 55 0.5 89t3 82.5t8 79.5t15 69.5t24 65t35 53.5t48.5 46.5t64 33.5q49 20 98 20q95 0 183.5 -67t146.5 -175q41 -72 41 -128q0 -42 -25 -74.5t-66 -32.5q-12 0 -30 5q-63 17 -76 73 q-60 230 -148 230q-33 0 -58.5 -33.5t-38.5 -82.5t-19 -93t-6 -77q0 -34 9 -66q9 -31 307 -34q169 -3 210 -3h5q3 128 22 452q6 74 67 111q20 12 38 12q12 0 16 -2q32 -9 52 -53q36 -73 36 -196v-22l-20 -242q-7 -103 -7 -155q0 -242 50 -508q6 -33 6 -59q0 -48 -19.5 -84.5 t-58.5 -42.5h-12q-39 0 -75.5 39t-52.5 112q-33 151 -41 518q-81 -34 -86 -34q-30 0 -106 4q-87 5 -140 5q-125 0 -193 -20q22 -302 56 -511q1 -3 1 -12q0 -29 -21 -56.5t-56 -40.5q-22 -8 -41 -8q-14 0 -26 4q-35 12 -48 52q-6 21 -36 400q0 58 -7 94q-11 57 -53 66 q-21 5 -48 7q-23 2 -50 7q-59 12 -78 55q-9 19 -9 36z" />
<glyph horiz-adv-x="0" />
<glyph unicode="&#xd;" horiz-adv-x="589" />
<glyph unicode=" "  horiz-adv-x="609" />
<glyph unicode="&#x09;" horiz-adv-x="609" />
<glyph unicode="&#xa0;" horiz-adv-x="609" />
<glyph unicode="!" horiz-adv-x="504" d="M164 50v7q2 37 28.5 64t72.5 31q57 0 91.5 -29.5t34.5 -71.5q0 -39 -33 -65t-88 -26q-22 0 -41 3q-30 6 -47.5 32t-17.5 55zM174 1270q0 5 0.5 13t0.5 11q8 130 64 189q32 33 73 33h7q55 -3 75 -27q21 -25 21 -82q0 -40 -15 -115q-5 -29 -9 -42q-21 -135 -21 -291v-176 l-1 -64q0 -75 5 -113l3 -37q10 -73 10 -131q0 -35 -5 -62q-17 -98 -80 -98q-34 0 -63.5 21.5t-40.5 60.5q-17 63 -17 152q0 62 5 115q9 59 9 164q0 33 -2 117l-2 72q0 12 -5 80q-12 144 -12 210z" />
<glyph unicode="&#x22;" horiz-adv-x="648" d="M90 943l34 1l2 -1h-36zM98 1419v8q0 58 20 58h6q20 9 40 9q44 0 99 -34q10 -148 10 -237q0 -166 -26 -256q-17 -26 -72 -26q-21 0 -45 3h-6q-18 16 -21 131q-1 11 -1 41q0 20 2 76l2 79q0 31 -4 76q-4 48 -4 72zM374 943l34 1l2 -1h-36zM382 1419v8q0 58 19 58h7 q20 9 39 9q45 0 100 -34q11 -140 11 -239q0 -161 -27 -255q-19 -25 -71 -25q-20 0 -46 3h-6q-18 16 -21 130v42q0 81 2 122q1 16 1 32q0 26 -3 77q-5 45 -5 72z" />
<glyph unicode="#" horiz-adv-x="1321" d="M90 371q0 14 4 37q15 46 100 55q12 2 45 2q45 0 73 -5q24 -2 61 -2h9l9 -1q-5 116 -9 172l-2 22h-63q-154 0 -205 42q-22 35 -22 57q0 12 4 23q24 68 197 68q5 0 12 -0.5t10 -0.5q11 -1 32.5 -2t24.5 -1q-2 50 -2 77q21 148 64 200q4 3 8.5 8t6.5 7t5.5 4.5t7 3.5t8.5 1 h1q38 0 73 -22q43 -52 43 -212q0 -48 -1 -66q53 3 118 9l24 2q-2 44 -2 67q0 146 64 198q34 22 60 24h1q6 0 10.5 -0.5t8 -3t5 -4t5 -7t5.5 -7.5q44 -50 58 -208q0 -37 -1 -49q38 2 56 2q163 -15 213 -57q4 -6 9.5 -14t7.5 -11t4 -8.5t2 -11.5v-1q0 -23 -22 -58 q-50 -44 -236 -44q-28 0 -42 1v-5q-3 -42 -3 -54v-4q0 -17 5 -77l3 -37q19 1 55 1q164 0 216 -43q24 -19 24 -58v-1q0 -11 -21 -64q-51 -44 -235 -44h-30q1 -14 1 -41q-15 -165 -57 -214q-1 -2 -4.5 -6.5t-4.5 -5.5t-4 -3.5t-5 -3l-6 -1.5t-9 -1q-12 0 -23 4q-81 17 -92 100 q-2 24 -2 45q0 58 6 82q3 33 3 43v11q-16 0 -24 1q-12 1 -38 1q-31 0 -60 -3l-37 -4q1 -17 1 -51q0 -157 -42 -208q-33 -21 -72 -21q-11 0 -22 4q-19 11 -38 37t-22 63l-6 127q2 18 2 40q-19 -1 -73 -1q-154 21 -206 65q-1 1 -5.5 4.5t-5 4t-4 3.5t-3.5 5t-1.5 6t-2 8 t-0.5 10zM571 598q0 -16 5.5 -73.5t6.5 -65.5q42 1 118 8l37 2q2 1 10 1q-2 59 -11 159l-2 37h-10l-54 4h-4l-41 -6l-51 -4v-8q-4 -37 -4 -54z" />
<glyph unicode="$" horiz-adv-x="1586" d="M90 1081v4q0 63 44.5 114t120 83.5t163 52.5t186.5 28q5 217 65 294q8 11 30.5 21t42 15.5t20.5 6.5q52 -6 72 -39q23 -35 23 -109q0 -55 -13 -127q-2 -12 -4.5 -26.5t-2.5 -17.5l-4 -27q120 -23 204.5 -70.5t84.5 -108.5q0 -3 -0.5 -9t-0.5 -8q-12 -46 -29 -66 q-12 -14 -34 -14q-2 0 -7 0.5t-8 0.5q-22 6 -75 25q-16 6 -68 27t-83 30q-2 -72 -2 -123q0 -65 1 -100l1 -65l1 -56q6 -2 17 -5.5t17 -5.5q63 -21 146 -44.5t97 -28.5q19 -6 57 -19t54.5 -18.5l46.5 -15.5t44.5 -16t36 -15t34.5 -15.5t27 -15t24 -16.5q77 -62 77 -146 q0 -22 -6 -48q-30 -132 -209 -256.5t-402 -158.5l-39 -5v-34q0 -49 -1.5 -85t-7 -80.5t-15 -72.5t-28 -48t-44.5 -20q-40 0 -73.5 29t-45.5 81q-20 85 -20 242q-78 16 -147 47.5t-126 76t-90.5 107t-33.5 133.5v7q0 84 19 127t68 60q20 5 37 5q25 0 48.5 -10.5t28.5 -33.5 q1 -4 1 -12q0 -13 -3 -33q-8 -45 -8 -57v-6q0 -74 61 -120q74 -58 150 -89l4 76h3q6 140 6 258q0 92 -1 144q-150 52 -242.5 92.5t-161 88t-97.5 100t-31 120.5zM339 1073q0 -37 41 -72.5t97.5 -61t142.5 -55.5l-2 100q0 10 -5 82q-4 79 -5 108q-101 -10 -183 -34t-85 -57 q-1 -4 -1 -10zM748 1701h7l7 -1zM815 371q0 -71 5 -115l4 -40l4 -39q2 0 7 0.5t7 0.5q113 16 222.5 75t195.5 148q21 21 21 40q0 15 -11 26q-23 25 -83 45t-229 62q-55 14 -141 40l-1 -175l-1 -25v-43z" />
<glyph unicode="%" horiz-adv-x="1631" d="M104 1390q0 162 98 231q50 35 125 35h25q117 -4 201.5 -61t124.5 -144t40 -193v-10q-3 -137 -73 -232t-181 -95q-76 0 -162 51q-94 57 -146 183.5t-52 234.5zM134 76q0 28 12 53q53 119 284 382l3 -2q98 111 296 375l132 173l43 63q278 415 408 444q20 4 25 4 q33 0 58 -25q38 -32 38 -63v-3q-3 -61 -122 -167q-24 -21 -32 -30q-121 -114 -311 -365l-37 -49q-34 -46 -79 -102l-65 -81q-29 -38 -56 -72.5t-40 -51t-15 -19.5l-18 -21q-44 -53 -91 -125l-20 -32q-134 -220 -251 -329q-50 -47 -90 -47q-22 0 -42 16.5t-27 46.5 q-3 12 -3 27zM290 1327q0 -56 55 -126.5t105 -70.5q28 0 50 30q26 37 26 89q0 35 -12.5 79t-44 83t-73.5 39q-62 0 -93 -64q-13 -29 -13 -59zM913 452q0 164 97 231q54 36 128 36q16 0 22 -1q174 -6 270 -118.5t96 -276.5v-13q-2 -137 -71.5 -231.5t-181.5 -94.5 q-42 0 -84 13t-87 42.5t-85 86.5t-68 135q-36 104 -36 191zM1105 388q0 -55 56 -124.5t105 -69.5q29 0 49 27q26 39 26 90q0 36 -12 79.5t-43.5 82.5t-73.5 39q-64 0 -93 -63q-14 -31 -14 -61z" />
<glyph unicode="&#x26;" horiz-adv-x="1553" d="M100 267q0 207 394 338h-2q-127 14 -218.5 81.5t-91.5 158.5q0 28 5 44q23 113 92 169t255 123h-2q55 9 82 38q18 18 23 33t6 46q1 62 13 106.5t26 61.5q36 40 82 40q15 0 36 -24t31 -57.5t-4 -68.5h-1v-69q0 -4 -1 -18.5t-0.5 -21.5t5.5 -17t14 -16t17 -9t14 -4t26 -3 q103 -13 129 -18q55 -9 73 -15q83 -22 101 -92q2 -12 2 -17q0 -15 -4.5 -26.5t-15.5 -18t-19 -11t-27 -6t-26.5 -2t-30 0t-26.5 0.5q-88 0 -223 3h-11l-3 -257h19q35 0 74 -7h-1q53 -18 62 -74q2 -6 2 -16q0 -57 -44 -93h2q-8 -3 -36.5 -11t-48 -17t-20.5 -21q-3 -30 -3 -56 t1.5 -53t1.5 -42q0 -114 20 -140q9 -11 62 -11q16 0 75 15t80 24h-1l59 17h1q16 7 47 21t40 18.5t29.5 14.5t27 15.5t20.5 15t22 20t19 24t24 31.5h-1q19 18 29 18q26 0 48.5 -27t22.5 -67q0 -27 -3 -48q-22 -146 -286 -219q-232 -74 -274 -74q-20 0 -20 -14h11q0 -1 1 -2 h-11q0 -3 1.5 -14t3 -29.5t2.5 -37.5q1 -13 -2.5 -51t-3.5 -51v-24q-7 -105 -61 -105q-46 0 -82 16h3q-25 21 -41 76.5t-17 133.5h-1q-6 16 -7 35t-7.5 30.5t-29.5 26.5q-31 18 -149 36h-2q-47 0 -101 19q-7 2 -43 13.5t-56.5 19t-55 24t-55.5 33.5t-40 43.5t-24 57.5 q-3 15 -3 34zM307 289q0 -9 12 -21h2q19 -12 102 -29.5t198 -31.5h11q0 109 -5 240h-13q-101 -25 -189.5 -66t-100.5 -68h1zM378 852q0 -11 18 -25h-3q12 -23 74.5 -42.5t146.5 -21.5h11v218h-13q-151 -25 -191 -57q-43 -40 -43 -72z" />
<glyph unicode="'" horiz-adv-x="355" d="M90 1421v10q0 56 21 56h4q21 9 41 9q45 0 100 -34q9 -134 9 -237q0 -169 -25 -257q-17 -25 -72 -25q-19 0 -43 3l-7 -1q-4 0 -8.5 13.5t-9 45t-5.5 72.5v42q0 81 2 122q2 16 2 32q0 7 -1 18.5t-2 28.5t-2 30q-4 49 -4 72z" />
<glyph unicode="(" horiz-adv-x="700" d="M90 693q0 113 24 238.5t67.5 247t109 232t142 194t173 133t197.5 49.5q12 0 18 -1q31 -17 33 -43v-2q0 -53 -85.5 -139t-191.5 -155q-120 -94 -203.5 -302.5t-83.5 -394.5q0 -9 -0.5 -27.5t-0.5 -26.5q0 -151 46 -301t134 -256q20 -27 128 -110q108 -82 158 -134t50 -90 q0 -5 -1 -7q-6 -42 -97 -76q-30 -9 -64 -9q-104 0 -205 93t-184 255q-164 321 -164 632z" />
<glyph unicode=")" horiz-adv-x="719" d="M-77 -181q0 57 90 118q110 74 195.5 182t133.5 223t72.5 223.5t24.5 203.5q0 134 -39 252q-58 181 -248 405q-103 120 -157 206q-17 25 -17 51q0 24 15 52q32 56 83 57q142 0 387 -411q113 -187 149 -374q18 -100 18 -199q0 -89 -17 -222q-32 -230 -138.5 -433.5 t-261.5 -332.5q-125 -104 -206 -104q-11 0 -19 5q-63 38 -65 96v2z" />
<glyph unicode="*" horiz-adv-x="891" d="M154 1176q0 12 6 21q19 38 110 38q40 0 65 -5q6 -3 16 -3q13 0 15 5q12 10 12 68q0 18 -1 27l-1 26q0 95 30 125q24 25 65 25h8l8 -6q77 -90 85 -242l15 5q83 23 115 23q70 0 70 -76q0 -24 -9 -38q-20 -44 -125 -72q17 -22 65 -49q56 -34 74 -57q25 -31 25 -54 q0 -11 -4 -19q-17 -35 -85 -35q-90 0 -134 35q-57 46 -81 49h-5q-16 0 -56 -20q-89 -47 -133 -47q-42 0 -53 33q-5 11 -5 29q0 46 51 102l-26 9q-82 30 -103 65q-14 18 -14 38z" />
<glyph unicode="+" horiz-adv-x="1021" d="M90 541q0 19 6 39q17 58 127 58q44 0 121 -10q10 -1 19.5 -2t17 -2t10.5 -1l12 8v12q0 2 -0.5 5.5t-1.5 4.5v57q0 152 48 202q36 39 99 39h5q21 0 37 -17q25 -28 25 -127q0 -49 -8 -127l-3 -35l10 -9q4 0 14 2q10 0 14 1q76 11 126 11q90 0 131 -41q33 -35 33 -96v-8 q0 -56 -115 -56q-6 0 -25 0.5t-33 0.5q-54 2 -58 2q-65 0 -88 -18q0 -5 1.5 -13.5t4 -24.5t4.5 -29q9 -59 9 -98q0 -32 -7 -55q-21 -73 -116 -101q-11 -4 -23 -4q-26 0 -41 18q-32 32 -32 174q0 44 1 70q2 19 2 42l-12 8q-33 -3 -66 -3q-182 0 -232 68q-16 22 -16 55z" />
<glyph unicode="," horiz-adv-x="475" d="M90 -209q0 46 84 216l12 24q10 22 13 65q2 50 17 70.5t58 20.5h16q55 0 79 -43q16 -27 16 -67q0 -17 -3 -35q-10 -65 -49.5 -132.5t-94.5 -105.5q-55 -40 -117 -40h-7q-24 0 -24 27z" />
<glyph unicode="-" horiz-adv-x="966" d="M90 375v7q0 28 13 61q13 75 91 81q24 2 65 2q23 0 36 -1h28q34 0 62 2l26 2q18 1 52.5 4t51.5 4l53 4q42 2 91 6l42 4q26 4 32 6q32 6 43 6h11q33 0 52 -10q35 -19 37 -102l1 -9q0 -6 -4 -22q-13 -72 -148 -82q-7 -1 -28 -1q-24 0 -39 1h-13q-48 0 -128 -5q-34 -2 -49 -4 l-217 -14q-29 -3 -36 -4q-25 -3 -47 -3q-46 0 -63 22q-13 19 -15 45z" />
<glyph unicode="." horiz-adv-x="503" d="M143 110v7q2 43 33.5 74t83.5 35q64 0 102.5 -34t38.5 -82t-37 -79t-99 -31q-23 0 -40 4q-39 7 -60.5 38t-21.5 68z" />
<glyph unicode="/" horiz-adv-x="684" d="M-77 -154q0 10 2 30q23 153 177 511l3 -1q79 186 185 486l82 228l5.5 16.5t9.5 29.5t12 36q159 539 282 612q24 15 49 15q22 0 45 -13q49 -26 60 -69v-4q3 -9 3 -21q0 -74 -79 -209q-13 -26 -23 -41q-91 -167 -204 -487l-21 -65l-50 -133q-14 -33 -40 -108l-73 -191 l-10 -25q-36 -86 -55 -161l-12 -41q-75 -290 -156 -437q-44 -74 -81 -85h-2q-5 -3 -17 -3q-14 0 -26 6q-30 15 -51 55q-15 37 -15 69z" />
<glyph unicode="0" horiz-adv-x="974" d="M36 654q0 327 132 520q110 158 251 158h8q83 -3 148 -20.5t113.5 -52.5t83.5 -76.5t62.5 -105.5t46 -125t38.5 -148q20 -81 20 -173q0 -167 -67 -321t-165 -231q-111 -85 -243 -85q-89 0 -161.5 36.5t-121.5 99t-82 147.5t-48 179.5t-15 197.5zM225 632q2 -111 31 -212 t87 -169.5t132 -68.5q15 0 21 1q55 6 102.5 53t77.5 113.5t47 138.5t17 133q0 16 -1 24q0 76 -23.5 162.5t-62.5 161.5t-96 126t-118 55h-3q-19 0 -56 -27q-40 -36 -72 -97q-83 -152 -83 -375v-19z" />
<glyph unicode="1" horiz-adv-x="636" d="M36 755q0 10 4 36q3 19 15 37t22 27.5t40.5 35t43.5 36.5q6 5 29 24.5t35.5 32t34.5 35t43 50t44 61.5q6 9 29.5 73t57 107.5t82.5 43.5q14 0 26 -10t18 -20l5 -9q0 -24 -1.5 -48.5t-5.5 -63.5t-7.5 -65.5t-12.5 -95.5t-15 -113q-40 -310 -45 -469q0 -11 5 -84 q3 -172 3 -209v-11q-3 -132 -62 -162q-28 -14 -52 -14q-69 0 -82 135q-3 29 -3 69l2 189q7 63 7 106q3 236 10 308l-15 9l-146 -75q-42 -19 -66 -19q-43 0 -43 53z" />
<glyph unicode="2" horiz-adv-x="1149" d="M36 163q0 67 94 133q392 274 593 555q39 52 40 97v4q0 42 -32.5 73t-88.5 31q-36 0 -87 -16q-126 -42 -221 -215q-22 -46 -91 -46h-15q-32 4 -48 21.5t-16 41.5q0 12 2 16q22 112 104.5 205.5t195.5 145t228 51.5h15q171 0 245 -135q37 -67 37 -143q0 -67 -27 -139 q-61 -155 -252 -319q-304 -257 -336 -297l7 -13q62 -7 122 -10t126 -5t87 -3h5q86 0 179 16q48 8 91 8q33 0 47 -5q58 0 71 -40q3 -11 3 -29q0 -27 -7 -54q-3 -14 -10.5 -24.5t-16 -18t-24.5 -13t-29 -9t-37 -6t-40.5 -4t-48 -3.5t-50.5 -4q-108 -9 -221 -9q-190 0 -430 30 q-134 18 -159 100q-5 17 -5 32z" />
<glyph unicode="3" horiz-adv-x="968" d="M-143 353l1 15q6 27 50 68q11 11 30 11q27 0 50 -14t102 -77q102 -80 220 -121.5t206 -41.5q63 0 121.5 22t67.5 59q2 12 2 17q0 28 -31 67q-73 84 -180 116q-155 45 -208 82q-42 32 -42 64q0 40 36 66t187 104q88 46 131 104q4 6 39 65v7q0 35 -16 57q-17 11 -43 11 q-34 0 -81 -16q-82 -33 -167 -69q-96 -40 -144 -40h-3q-59 3 -59 72v4q0 49 56 95t136 76.5t163.5 49t142.5 18.5h8q135 0 189 -75q29 -43 29 -100q0 -47 -16 -98q-22 -79 -96 -155q-40 -40 -66 -62q-60 -56 -62 -58l3 -13q129 -50 224.5 -157.5t95.5 -207.5q0 -29 -5 -48 q-18 -83 -87 -141t-158.5 -83t-192.5 -25h-7q-113 0 -234.5 33.5t-225 99.5t-145.5 148q-21 47 -21 71z" />
<glyph unicode="4" horiz-adv-x="1170" d="M10 515q0 20 7 40q21 77 119 163q19 17 84 68l79 65l332 291q13 9 64 69q64 70 106 104t76 34q47 0 63 -73q-3 -31 -25 -98q-24 -66 -27 -103q-12 -171 -12 -268q0 -96 5 -111q7 0 44.5 12.5t70.5 16.5q87 10 106 10q6 1 19 1q44 0 61 -5t17 -22v-3q-3 -27 -51 -84 t-89 -67l-176 -39q-32 -10 -32 -103q0 -77 18 -200l13 -78q2 -24 2 -33q0 -48 -18 -74.5t-47 -26.5q-6 0 -18 3q-39 9 -70 56t-35 111q-3 36 -3 153q-2 97 -28 150q-3 7 -15 7q-33 0 -265 -29q-70 -11 -80 -12q-115 -8 -160 -8q-27 0 -36 1q-99 13 -99 82zM302 642l10 -12 q57 4 125 12t110 14t95.5 15t54.5 9q2 40 2 97q0 89 -6 175l-16 5q-5 -4 -42.5 -31t-72.5 -53t-43 -34q-25 -23 -79.5 -68.5t-90.5 -78t-47 -50.5z" />
<glyph unicode="5" horiz-adv-x="1099" d="M108 377q0 8 2 24q12 87 113 94h4q37 0 54.5 -27t55.5 -124q24 -66 88.5 -108t119.5 -42h14q89 10 135.5 45.5t98.5 111.5q52 74 52 178q0 61 -26 128q-84 135 -240 135q-10 0 -20 -2q-86 -10 -128 -22q-79 -23 -158 -23q-66 0 -85 26t-19 112q0 89 8 329q3 72 29.5 104 t79.5 35h14q25 0 95 -8q57 -5 89 -5q15 0 35 2q45 3 89 3q109 0 235.5 -21.5t135.5 -47.5q0 -1 0.5 -10.5l1.5 -28.5t2 -39v-6q0 -38 -21 -54q-42 -33 -107 -33q-53 0 -136 24q-45 11 -81 18q-95 16 -159 16q-25 0 -43.5 -2.5t-39.5 -11t-32.5 -28.5t-11.5 -51 q0 -45 30 -111q151 9 218 9q93 0 151 -12q185 -40 248 -231q29 -89 29 -177q0 -57 -13.5 -120.5t-44.5 -132t-76 -125.5t-114 -101t-151 -59q-38 -7 -78 -7q-107 0 -211.5 56.5t-174.5 160.5q-57 85 -57 159z" />
<glyph unicode="6" horiz-adv-x="1170" d="M108 496q0 130 34 276t92.5 273.5t148.5 211t191 83.5q58 0 80 -26q15 -15 15 -40v-11l-1 -2q-4 -31 -24.5 -64.5t-36.5 -38.5q-55 -20 -107 -61.5t-100.5 -106.5t-81 -165t-38.5 -220v-73q43 97 80.5 147t132.5 133q62 53 173.5 94t184.5 41q12 0 34 -2l2 8v-8 q70 0 120 -22.5t77 -61.5t39 -84t12 -99q0 -15 -7 -80q-21 -153 -106.5 -295t-202.5 -213q-121 -74 -252 -74q-123 0 -227.5 62.5t-168.5 172.5q-63 111 -63 245zM368 360q-1 -59 33 -98t100 -53q38 -8 70 -8q66 0 129 33q74 43 129.5 116.5t80 143.5t24.5 128q0 57 -20 98 t-69 41q-66 0 -176.5 -63t-186.5 -147q-85 -96 -114 -191z" />
<glyph unicode="7" horiz-adv-x="1112" d="M-18 1153q0 21 2 32q6 50 158 69q154 8 243 11q43 1 196 14q121 10 194 10q123 0 136 3q50 -18 50 -77v-7q-6 -104 -67 -227q-8 -15 -55 -109q-34 -62 -44 -88q-2 -4 -2 -9q0 -29 66 -29q41 0 69 -1q85 -1 121 -23q27 -16 27 -32q0 -25 -86.5 -65.5t-142.5 -40.5h-50 q-56 0 -76 -13.5t-44 -59.5q-29 -62 -59 -141q-69 -190 -94 -239q-26 -52 -57 -84q-37 -24 -101 -35q-15 -3 -29 -3q-35 0 -35 23q0 6 1 9q13 70 142 343l28 46q43 70 43 100q0 36 -40 51q-14 6 -86 6h-58q-47 0 -77 31q-18 15 -18 38q0 17 8 28l-8 5l8 -4q26 46 65 55 l12 -1l1 9v-9q195 0 240 19q39 15 75.5 87.5t54.5 142t18 101.5q0 11 -6.5 19.5t-19.5 8.5q-7 0 -17 -5q-227 -7 -345 -36q-12 2 -18.5 1t-30 -4t-44.5 -4q-51 -18 -92 -18q-15 0 -27 3q-20 -2 -28 -2q-101 0 -101 101zM140 1254v9l2 -9h-2zM436 387l9 -3l-1 -1zM472 572 l2 9l2 -1z" />
<glyph unicode="8" horiz-adv-x="989" d="M36 1077v6q0 233 386 233h11q89 0 167.5 -13t146.5 -39.5t108 -74.5t40 -112q0 -87 -109 -186q-17 -17 -63 -46q-57 -36 -81 -59t-24 -50q0 -34 41 -63q189 -144 227 -180q50 -48 58 -96q3 -21 3 -69q0 -16 -4 -50q-22 -123 -130.5 -196t-243.5 -73h-15q-70 0 -153.5 32 t-152 87t-90.5 114q-18 47 -18 101q0 27 5 64q13 84 64 170l43 61q35 47 35 71t-31 29q-220 163 -220 339zM200 580l9 -3l-1 -2zM223 1091q22 -109 198 -236q15 -11 37 -11q37 0 94.5 40t105.5 101q10 10 10 22q0 28 -61.5 79t-104.5 60q-40 9 -83 9q-29 0 -61 -5 q-90 -12 -135 -59zM319 351q0 -61 58.5 -108t151.5 -65q34 -7 72 -7q25 0 49.5 4.5t51.5 16t44.5 36t20.5 59.5l-10 1h10v12q0 64 -46 114t-140 104q-21 13 -50 34q-34 24 -47 31q-16 7 -32 7q-35 0 -59 -34q-74 -102 -74 -194v-11zM943 278l10 -3z" />
<glyph unicode="9" horiz-adv-x="877" d="M36 840q0 85 33 167.5t90.5 148t131 115.5t159.5 77.5t171 27.5h10q76 -3 129 -39q30 -19 30 -41q0 -24 -29 -47l1 -13q44 -26 44 -131q0 -81 -42 -253q-20 -81 -25 -110q-24 -228 -24 -335v-6q0 -199 57 -319q-35 -81 -97 -81q-8 0 -24 2q-75 15 -109 106 q-14 89 -14 176q0 26 2 88l18 318l-19 53q-161 -96 -295 -106q-22 -2 -29 -2q-169 0 -169 204zM234 855q0 -23 3 -31l11 -18q132 -3 237 113.5t143 280.5q-35 11 -76 11q-118 0 -218 -110t-100 -246z" />
<glyph unicode=":" horiz-adv-x="502" d="M154 110v7q3 43 34 74t83 35q64 0 103 -34t39 -82q0 -47 -38 -78.5t-99 -31.5q-21 0 -40 4q-38 7 -60 38t-22 68zM154 536v7q3 43 34 74t83 35q64 0 103 -34.5t39 -81.5t-38 -78.5t-99 -31.5q-19 0 -40 3q-38 8 -60 39t-22 68z" />
<glyph unicode=";" horiz-adv-x="539" d="M90 -216q0 63 109 275l14 30q12 27 15 88q4 64 21 87t70 23h19q59 0 85.5 -38.5t26.5 -96.5q0 -13 -4 -43q-12 -83 -62 -168t-119 -134q-74 -50 -144 -50h-10q-21 0 -21 27zM210 622q2 41 30 69t77 32q58 0 95.5 -33t37.5 -76t-35 -72t-91 -29q-20 0 -40 3h1 q-35 7 -54.5 35t-19.5 63z" />
<glyph unicode="&#x3c;" horiz-adv-x="955" d="M90 504v12q0 52 48 93q261 231 573 389l7 4l7 -3q84 -29 90 -85l1 -9q0 -65 -97 -149t-301 -210q-35 -20 -60 -37q68 -40 181 -119q7 -6 63 -40q256 -159 260 -208q3 -23 3 -41q0 -101 -70 -101q-59 0 -231 123q-69 49 -139 89q-163 88 -245 155t-90 137z" />
<glyph unicode="=" horiz-adv-x="1001" d="M90 602q0 21 10 44q35 82 188 82h127q184 0 309 -13q56 -7 120.5 -45t66.5 -76v-4q0 -43 -64.5 -64.5t-149.5 -21.5q-64 0 -181 13q-111 12 -160 12q-22 0 -42 -2q-62 -5 -85 -5q-101 0 -128 42q-11 14 -11 38zM156 291v2q0 48 55.5 89t132.5 43l117 1q227 0 344 -37 q69 -21 69 -64v-9q-6 -41 -71 -77.5t-122 -36.5h-8q-123 8 -381 10q-78 0 -114 31q-22 19 -22 48z" />
<glyph unicode="&#x3e;" horiz-adv-x="942" d="M90 80q0 58 136 160q224 170 364 258q-27 16 -48 29q-375 237 -384 298q-13 33 -13 57q0 30 18.5 54t57.5 30q7 1 21 1q31 0 63 -16q72 -37 248 -171q132 -104 191 -138q108 -66 108 -141v-2q-2 -87 -150 -171q-74 -44 -212 -141q-17 -12 -62 -53q-149 -134 -211 -134h-3 q-110 16 -123 69q-1 3 -1 11z" />
<glyph unicode="?" horiz-adv-x="1049" d="M164 1354v5q1 41 41 82.5t105 57.5q42 9 121 9h25q87 0 189 -22t193 -59t151.5 -93t60.5 -117q0 -6 -2 -20q-29 -244 -435 -321l-40 -5q-113 -10 -140 -23q-12 -7 -16 -15q34 -266 34 -314q-1 -71 -12.5 -97t-60.5 -51q-37 -17 -57 -17q-33 0 -47 34q-2 6 -23 136 q-6 45 -40 170q-30 114 -33 167q-1 6 -1 17q0 99 39 122.5t219 44.5q26 3 39 5q374 47 374 116q0 30 -49 55q-182 95 -366 114h-7q-37 0 -122 -35q-53 -17 -74 -17q-20 0 -31 7q-35 23 -35 64zM290 25q0 4 2 18q6 48 35.5 84.5t71.5 45.5q42 0 62 -24t20 -58q0 -5 -2 -19 q-5 -42 -32 -77t-63 -41q-4 0 -12 -0.5t-11 -0.5q-34 0 -52.5 20.5t-18.5 51.5z" />
<glyph unicode="@" horiz-adv-x="1336" d="M36 355q0 94 21 196q27 138 205 287q168 99 330 99q42 0 88 -8q200 -36 313 -174q96 -149 109 -295q-7 -86 -27.5 -143t-75.5 -117q-60 -68 -161 -68q-67 0 -96 34t-82 157q-9 21 -14 32q-26 -92 -100 -147t-146 -55q-7 0 -12 1q-97 12 -97 103v1q0 199 192 349 q57 56 161 81q39 -36 55 -52q31 -34 55 -181q11 -64 34 -99.5t74 -49.5q59 13 59 114q0 24 -2 37q-4 47 -10 81t-22.5 75.5t-41.5 69t-69 49t-104 27.5q-30 2 -48 2q-117 0 -221.5 -46.5t-153.5 -143.5q-40 -77 -40 -173q0 -15 2 -41q11 -119 76 -214.5t164 -129.5 q121 -42 234 -42q102 0 201 38l201 161q89 71 144 71q32 0 53 -27q16 -20 16 -45q0 -55 -80 -129.5t-185 -129.5q-180 -89 -384 -89q-39 0 -81 3q-281 23 -427 199q-89 133 -104 265q-3 33 -3 67zM424 292h4q60 0 122 99q41 79 41 125q-129 -74 -167 -224z" />
<glyph unicode="A" d="M36 166q0 62 89 232q58 107 58 131v2q0 7 -17 7q-12 0 -37 -3q-28 -5 -37 -5q-27 0 -38 16q-5 6 -5 18t6 26q23 55 55 80.5t98 47.5q111 37 236 357q6 13 21 57q28 82 50.5 136t51.5 103t62.5 72.5t72.5 24.5q162 0 191 -192q39 -234 93 -402q4 -12 8 -28q8 -36 21 -49 q9 -9 26 -9q5 0 13 2q4 0 28 4q35 7 57 7q47 0 74 -32q15 -17 15 -34q0 -9 -3 -18q-19 -54 -146 -95l7 -21q84 -216 148 -297q8 -11 34 -40q57 -64 75 -102q18 -39 18 -68q0 -34 -18 -64t-51 -30q-30 0 -71.5 32.5t-79.5 79.5t-68 91t-46 75q-23 46 -65 139q-9 19 -23 52.5 t-20 46t-17.5 33.5t-20.5 28t-23.5 17t-32.5 12.5t-42 2.5q-9 0 -49 -2q-15 -1 -31 -1q-77 -3 -249 -34q-180 -299 -232 -365q-74 -94 -129 -94q-43 0 -54 34q-3 6 -3 19zM540 770q28 4 107 23q101 22 138 25q-2 13 -14 72q-41 216 -76 273q-37 -64 -120 -295 q-23 -68 -35 -98z" />
<glyph unicode="B" horiz-adv-x="1128" d="M-51 1273q0 10 3 16q16 24 54 32l30 3q31 0 36 1q45 3 61 31q34 57 57 76t62 19q8 0 12 -1q32 0 60 -26q11 -10 25.5 -25.5t22.5 -22.5t12 -8q46 -27 134 -30q32 -2 77 -2q55 0 67 -1q48 -4 78 -7t64 -8.5t53.5 -13.5t36.5 -19.5t24.5 -28t7.5 -38.5v-8 q-4 -57 -28 -109.5t-65 -86.5l-62 -48q-40 -27 -84.5 -52.5t-53.5 -31.5q-10 -6 -40 -22.5t-73 -39.5t-68 -37l55 7q111 6 121 6h3q27 0 242 -5q288 -7 288 -144q0 -95 -71 -188t-182 -163t-240.5 -121t-252.5 -73v-8q-1 -37 -27 -60q-30 -26 -76 -28h-7q-35 0 -46 11 q-37 39 -69 39q-10 0 -20 -3q-24 -9 -41 -9h-2q-27 1 -51 34.5t-24 60.5q0 3 2 13q8 28 23 36t60 14q35 5 49.5 22t14.5 54q0 11 -1 19q0 4 -0.5 17.5t-0.5 22.5q0 28 1 44v88q-8 105 -77 149q-55 34 -55 65q0 7 2 11q11 35 83 83q-10 364 -15 386q-3 7 -43 9q-35 0 -41 2 q-71 14 -98 71q-7 13 -7 26zM329 1166q7 -85 13 -260l11 -7q281 128 350 270q-95 30 -203 30q-26 0 -39 -1q-85 -2 -132 -32zM368 581l25 -292l11 -6q393 146 516 306l-6 13q-206 29 -274 32q-30 2 -45 2q-153 0 -227 -55z" />
<glyph unicode="C" horiz-adv-x="1378" d="M36 522q0 83 22 165q46 181 167.5 339.5t278 250.5t304.5 92q12 0 18 -1q45 -4 81.5 -26t47.5 -57q3 -11 3 -22q0 -69 -139 -127l-53 -22q-106 -43 -185.5 -88.5t-134 -94.5t-89.5 -94.5t-67 -103.5q-60 -108 -60 -202q0 -9 2 -33q14 -124 138 -200.5t285 -76.5 q248 0 442 143q6 3 32 29q383 363 467 363q19 0 24 -19q4 -13 4 -34q0 -70 -73 -176.5t-193.5 -214t-251.5 -179.5q-227 -126 -472 -126q-129 0 -246.5 41t-210.5 130.5t-126 214.5q-15 61 -15 129z" />
<glyph unicode="D" horiz-adv-x="1433" d="M-94 1232v6q8 105 121 104q49 0 162 -28q19 -5 41.5 -10.5t25.5 -6.5l10 9q2 58 40.5 98.5t92.5 40.5h5q40 0 68.5 -32.5t28.5 -89.5v-6q-2 -27 -5 -36q-2 -8 -2 -14t26 -24q43 -27 149 -65q144 -47 424 -196l60 -33q231 -121 289 -237q24 -50 24 -99q0 -65 -33 -123 q-56 -103 -165 -174q-172 -115 -484 -194q-10 -3 -93 -24l-29 -7l-6 -6v-22q0 -19 -10 -25q-46 -30 -86 -30q-21 0 -77 18q-47 15 -76 18q-3 0 -8.5 0.5t-15.5 1t-17 0.5q-175 4 -215 59q-17 23 -17 54q0 19 6 41q19 65 125 65q33 0 83 -7h7q3 -1 7 -1l9 9q-35 287 -66 514 q-3 14 -3 74q0 196 -31 211q-17 9 -106 22q-137 21 -198 51.5t-61 93.5zM477 1006q0 -116 28 -334l13 -113q0 -4 0.5 -10t1 -17t0.5 -20q12 -196 54 -230q289 55 435 122l19 9q193 82 199 167v7q0 129 -305 275l-57 28q-238 119 -349 119q-3 0 -39 -3z" />
<glyph unicode="E" horiz-adv-x="1071" d="M36 1220v9q3 27 19 51q29 52 141 87q61 20 92 37q59 41 98 41q4 0 6 -1q40 -3 93 -55q21 -19 59 -22q3 0 12 -0.5t14 -0.5q54 0 160 24q104 23 147 23q9 0 13 -1h5q63 -7 74 -51q2 -8 2 -14q0 -8 -1 -9q-1 -15 -11 -33q-20 -37 -50 -56q-80 -57 -245 -57q-31 0 -79 5 q-58 4 -78 4q-103 0 -127 -41q-22 -45 -33 -137q-4 -24 -5 -46q0 -13 -3 -26l22 -3q229 31 415 32h24q14 1 38 1q23 0 47 -2q54 -7 74 -34q11 -13 11 -29v-4l-3 -12q-11 -31 -56.5 -62t-82.5 -39q-80 -20 -236 -20h-41q-3 0 -37 2q-9 0 -24.5 0.5t-21.5 0.5 q-27 0 -43.5 -1.5t-41 -12.5t-37.5 -32q-30 -54 -42 -165l-2 -13q-3 -42 -3 -77q0 -82 22.5 -133t62.5 -61q15 -3 41 -3q84 0 249 61q48 18 66 25q186 65 323 65q52 0 102 -12q30 -5 44 -49q5 -17 5 -30v-7q-2 -17 -10 -25q-21 -31 -179 -42q-30 -2 -62 -5 q-153 -29 -350 -137l-9 -5q-169 -92 -263 -92h-20q-146 17 -185 288q-9 73 -9 169v65q4 99 9 147q-61 9 -83 44q-9 18 -9 31q0 6 1 8q0 6 6 28q8 18 42 65q5 6 10.5 13.5t8.5 11t4 4.5q27 46 40 152q3 27 12 77l-10 9q-8 0 -24 2q-74 9 -92 48q-6 11 -6 27z" />
<glyph unicode="F" horiz-adv-x="995" d="M36 1220q0 5 1 7q3 28 19 55q29 55 145 93q64 21 89 39q62 44 105 44q5 0 7 -1q42 -3 99 -54q22 -19 57 -22q5 -1 14 -1q48 0 165 30q107 26 151 26q8 0 12 -1q75 -6 87 -57q3 -8 3 -17q0 -5 -1 -7q-2 -20 -13 -40q-17 -35 -55 -61q-86 -59 -274 -61l-50 4q-41 3 -71 3 q-51 0 -79.5 -7t-43.5 -33t-19 -46.5t-9 -78.5q-1 -5 -1 -8q-2 -15 -4 -45q0 -19 -1 -24q9 2 28 5.5t30 5.5q211 39 339 39q34 0 60 -3q59 -5 123 -26q46 -16 46 -47v-3l-1 -2q-3 -25 -43.5 -56.5t-88.5 -52.5t-75 -22q-28 -2 -57 -2q-37 0 -60 1q-13 1 -39 1h-50 t-44.5 -1.5t-41.5 -4t-35.5 -7t-32.5 -12t-27 -18t-24.5 -24.5t-18.5 -32.5t-16.5 -42t-11.5 -52.5q-11 -77 -11 -132q0 -89 22 -177q28 -114 28 -166q0 -10 -2 -24q-5 -85 -93 -85h-7l-5 1q-103 9 -129 163q-8 53 -8 119q0 32 4 120l1 16q2 16 7 94q9 113 9 147v1 q0 15 -39 31q-57 24 -57 60v4l1 4q6 32 50 74q32 30 43 54.5t17 86.5q0 1 3 47q2 55 4 66q0 14 4 30q-4 1 -13 1.5t-13 0.5q-79 6 -100 50q-9 13 -9 33z" />
<glyph unicode="G" horiz-adv-x="1152" d="M36 809q0 25 4 85q6 73 34 192q55 209 163.5 318t248.5 109q5 0 16.5 -0.5t17.5 -0.5q12 -2 19 -2q75 -7 143.5 -60.5t110.5 -132t45 -159.5q1 0 1 -5q0 -4 -1 -6q-3 -48 -57 -98q-26 -26 -47 -26h-4q-13 1 -27 9q-45 35 -73 137q-6 25 -13 35q-31 97 -99 105q-4 1 -12 1 q-85 0 -159 -112q-86 -133 -102 -326q-4 -58 -4 -92v-7q0 -77 19.5 -174t53 -189.5t87.5 -158t116 -71.5q4 -1 12 -1q35 0 89 27q172 98 291 520l-9 10q-97 -6 -173 -14q-19 -2 -45 -6q-23 -4 -46 -4t-31 3q-32 7 -57 39t-25 60v6l3 17q19 44 109 61l35 6q192 32 281 32 q18 0 44 -2q53 -4 95 -21q26 -10 26 -75q0 -9 -2 -35q-5 -46 -15 -100l-2 -7q-15 -76 -58 -185.5t-88 -187.5q-95 -168 -193.5 -240.5t-234.5 -87.5q-24 -2 -34 -2q-4 0 -13 0.5t-14 0.5h1q-78 7 -146.5 60.5t-116.5 133t-83.5 179t-54.5 197.5t-24 190q-2 34 -2 55z" />
<glyph unicode="H" horiz-adv-x="1136" d="M-17 617q0 55 53 69q22 5 53 5l27 -1q3 0 9.5 -0.5t9.5 -0.5q33 0 33 55q0 32 -4 71q-2 14 -2 26v16q-3 144 -16 301l-4 33q-9 84 -9 136q0 23 1 31q7 99 59 127q39 23 69 23q29 0 52 -23q46 -50 46 -230q0 -76 -7 -159q-3 -51 -3 -62v-18q0 -45 -3 -90q-2 -48 -2 -75 q0 -28 1 -41q1 -60 27 -84t82 -24q5 0 73 6q26 3 72 6q66 2 88 26t22 95q0 23 -2 55q-1 25 -1 84q0 53 -10 183q-2 8 -5 37q-11 90 -11 148q0 118 37 161q27 30 68 30q40 0 74 -36q61 -68 61 -282q0 -104 -15 -245q-2 -17 -3.5 -36t-1.5 -21l-3 -32q-4 -51 -4 -86v-1 q6 -50 20.5 -66t54.5 -23q5 -1 49 -12q79 -23 83 -69v-2q0 -32 -44 -51q-64 -30 -138 -47h-9v-26q0 -78 24 -192q25 -113 28 -193v-4q0 -43 -29.5 -72t-79.5 -29q-8 0 -28 2q-43 7 -53 44q-4 15 -8 72q-5 69 -13 81q-15 39 -20 136q-8 179 -24 199q-14 17 -85 17 q-55 0 -187 -14q-42 -5 -49 -5l-8 -10l6 -62q14 -141 14 -251q0 -125 -22 -165q-22 -36 -75 -36q-36 0 -67 17t-40 44q-11 31 -11 88q0 37 5 105q5 65 5 104q0 126 -32 161q-22 20 -56 20q-24 0 -46 -7q-10 -3 -18 -3q-20 0 -37 15.5t-20 46.5q-1 3 -1 10z" />
<glyph unicode="I" horiz-adv-x="323" d="M33 1235q0 184 51 241q28 32 73 32h5q61 0 86.5 -29.5t25.5 -93.5q0 -39 -9 -95q-6 -34 -6 -38q-12 -87 -12 -231q0 -119 7 -253q7 -157 8 -201v-63q0 -131 10 -206l6 -34q13 -86 13 -134q0 -24 -3 -42q-6 -41 -34 -64.5t-64 -23.5q-35 0 -63.5 22t-38.5 56 q-18 60 -18 176q0 10 0.5 32t0.5 35l2 39q1 20 1 70q0 128 -15 425l-3 66q-6 60 -7 69q-16 138 -16 245z" />
<glyph unicode="J" horiz-adv-x="936" d="M36 812q0 131 79 131q41 0 89 -34t70 -76q5 -17 5 -29q0 -39 -28 -76q11 -62 34 -134q48 -151 140 -261h1l8 -8q84 -100 129 -100q28 0 45 31q42 75 63 242l5 34q31 226 31 356q0 67 -21 214q-23 166 -23 280q0 130 27 203q24 64 71 64q113 0 116 -226l2 -74 q3 -246 10 -356q12 -192 12 -314q0 -58 -1 -83q-12 -216 -84 -385q-43 -99 -111.5 -151.5t-152.5 -52.5q-135 0 -246 126.5t-191 347.5l-7 20q-72 201 -72 311z" />
<glyph unicode="K" horiz-adv-x="1224" d="M36 766q0 15 6 24q18 31 62 57q56 34 81 73t30 120v17q0 34 -2 62q-1 27 -1 75q0 204 50 255q25 26 61 26q5 0 19 -2q32 0 52 -25q25 -28 25 -109q0 -84 -29 -227q-7 -38 -13 -77l14 -8q50 21 157 102q87 64 116 79q42 25 106 78q111 87 162 105q20 7 38 7q19 0 39 -7 q40 -12 55 -43q7 -13 7 -31q0 -24 -14 -46q-98 -144 -214 -203q-86 -45 -193 -107q-108 -64 -112 -66q-118 -66 -121 -133v-3q0 -74 128 -164l33 -24q333 -245 508 -285l13 -3q146 -29 175 -101q4 -11 4 -23q0 -15 -6 -24q-21 -37 -142 -37q-242 0 -523 221l-35 30 q-109 91 -160 91h-3q-1 -1 -1 -5q0 -19 15 -109q19 -117 19 -183q0 -76 -20.5 -105.5t-59.5 -29.5q-2 0 -7.5 0.5t-8.5 0.5q-71 8 -95 96.5t-26 278.5q0 21 1 52.5t0.5 44.5t-5 35.5t-14.5 38t-29 38t-49 49.5q-61 54 -76 76q-17 26 -17 48z" />
<glyph unicode="L" horiz-adv-x="998" d="M36 489v71q0 174 9 351v93q0 384 84 462q29 26 61 26q14 0 20 -2q97 -8 97 -129q0 -12 -2 -36q-4 -49 -29 -147q-7 -28 -13 -58q-9 -50 -15 -118q-8 -104 -8 -227q0 -118 8 -292l9 -176q136 16 145 17q115 10 230 35q125 27 235 27q50 0 90 -4q116 -10 151 -57 q13 -17 13 -44v-7q0 -1 -1 -6.5t-2 -9.5q-12 -49 -66.5 -65.5t-160.5 -17.5q-7 0 -16.5 -0.5t-14.5 -1t-8 -0.5q-149 -11 -343 -61q-97 -27 -118 -31q-24 -6 -49 -14q-103 -33 -164 -33q-10 0 -14 1q-108 9 -108 134v2q0 51 -9 168q-9 92 -11 150z" />
<glyph unicode="M" horiz-adv-x="1489" d="M36 276q0 147 64 409l72 321q45 197 74.5 264t92.5 100q25 14 52 14q43 0 87 -48q96 -107 144 -430q10 -73 30 -256q14 -137 28 -209h16q39 222 75 409q54 289 68 382q23 152 39 192q23 56 78 70q27 6 66 6h2q82 -88 144 -291q115 -367 264 -918q22 -78 22 -149 q0 -6 -0.5 -17t-0.5 -16q-7 -78 -46 -78q-13 0 -29 6q-46 18 -86 83.5t-77.5 191.5t-58 209t-56.5 250q-14 64 -21 95q-51 218 -66 266h-17q-3 -263 -106 -688q-55 -223 -109 -332q-56 -112 -97 -112q-9 0 -17 5h-1q-50 24 -97 149t-84 343q-92 532 -108 568h-16 q-43 -117 -87 -487q-48 -381 -84 -472q-22 -52 -46 -52q-13 0 -36 20q-51 45 -66 126q-6 30 -6 76zM84 685v1h16v-1h-16z" />
<glyph unicode="N" horiz-adv-x="1017" d="M53 902v79q0 181 15 286q10 66 38 103t66 37q78 0 133 -127q246 -568 451 -925l19 3v42q0 286 -24 683q0 7 -2 33q-7 98 -7 157q0 209 55 269q26 27 57 27q35 0 62 -28q43 -48 43 -203q0 -71 -9 -161q-3 -17 -3 -30q-14 -176 -14 -365q0 -182 12 -387q0 -11 9 -76 q11 -79 11 -130q0 -81 -30 -129t-87 -48q-99 0 -181 128q-100 148 -283 536q-57 123 -111 229l-19 -3q-3 -166 -3 -312q0 -235 8 -438v-5q0 -53 -38 -96.5t-73 -43.5q-38 0 -65 48q-24 46 -28 153v22q0 91 -1 187v356q0 71 -1 129z" />
<glyph unicode="O" horiz-adv-x="992" d="M36 759q0 395 160 560q111 115 296 115q74 0 138 -33t110 -91t82.5 -128.5t61 -153.5t40 -157t23.5 -149q9 -83 9 -155q0 -133 -30 -238.5t-82 -172.5t-119 -104t-145 -43q-6 0 -18.5 -0.5t-19.5 -0.5q-148 0 -263 95.5t-175.5 250t-66.5 341.5q-1 22 -1 64zM233 860 q0 -86 19 -209q64 -426 267 -441q7 -1 22 -1q98 0 158 78.5t68 241.5v43q0 107 -19 205q-57 275 -160 393q-33 40 -70 57q-23 13 -43 13q-19 0 -30.5 -9.5t-27.5 -35.5q-31 -45 -56 -45q-5 0 -25 5q-103 -76 -103 -295z" />
<glyph unicode="P" horiz-adv-x="1084" d="M36 1273q0 28 25 54.5t66 45.5q48 21 62 35q47 40 97 40h13q33 0 49 -27q23 -34 66 -46q233 -55 330 -92q208 -83 280 -167q52 -59 52 -138q0 -71 -42 -149q-70 -139 -279 -204q-115 -37 -372 -80q-41 -10 -41 -94q0 -66 34 -232q14 -76 14 -97v-17q0 -105 -25 -137 q-14 -17 -36 -17q-25 0 -62 25l-1 1q-38 23 -56 37t-28.5 40.5t-12 52t-1.5 87.5q0 56 1 89q1 15 1 42q0 136 -24 178q-11 15 -45 36q-27 16 -32 41q-1 3 -1 8q0 20 19 38l54 40q-7 147 -12 323q0 6 5 58t6 76v7q3 22 3 40q0 54 -37 54h-9q-42 0 -56 27q-5 12 -5 22z M333 988q0 -225 6 -254q307 49 426 88t119 123v3q0 96 -216 176q-64 17 -293 70l-42 -5v-201z" />
<glyph unicode="Q" horiz-adv-x="1138" d="M36 572q0 201 58 404t169 318q113 116 264 116h13q79 0 162 -61t150.5 -158.5t122 -211.5t85 -227.5t30.5 -198.5q0 -6 -0.5 -12.5t-1.5 -14.5t-1 -13q-6 -82 -35 -166q-9 -25 -31 -73q41 -59 75.5 -87.5t91.5 -48.5q59 -20 81.5 -46.5t22.5 -87.5v-11q-3 -79 -78 -79 q-50 0 -125 37t-120 75q-57 47 -86 47q-19 0 -83 -23l-5 -2q-101 -38 -210 -38q-54 0 -109 9.5t-117 31.5t-120.5 65t-102.5 104q-93 130 -99 303q-1 16 -1 49zM252 560q0 -59 9 -106q24 -120 109 -189t197 -78q20 -2 31 -2q86 0 151 45q-41 50 -151 134q-129 97 -184 164.5 t-55 149.5v1q0 106 70 106q104 0 314 -234q1 -2 3.5 -4t5.5 -6t6 -7q94 -117 118 -117q22 21 22 79q0 61 -28 171q-19 71 -42.5 138.5t-58.5 140t-74.5 126.5t-91.5 91t-108 41q7 -43 10 -99v-25q0 -41 -11 -52q-4 -6 -16 -6q-20 0 -47 20q-43 27 -57 27q-6 0 -8 -1 q-82 -20 -101 -319q-4 -60 -4 -61q-9 -69 -9 -128z" />
<glyph unicode="R" horiz-adv-x="1244" d="M36 1295q0 29 46 61q49 36 156 46q30 3 77 45q37 34 64 34h4q23 0 36 -24q29 -52 32 -55l4 -2l227 -61q65 -18 117 -30q60 -15 128 -35q152 -46 221 -114q48 -48 48 -125q0 -30 -7 -62q-24 -106 -94.5 -180t-223.5 -150q-127 -63 -246 -89l-3 -13q48 -30 475 -245 q260 -128 260 -163v-2q-13 -43 -56.5 -71.5t-76.5 -28.5q-7 0 -21 4q-276 94 -480 220q-266 163 -282 163q-1 0 -1 -1t2 -3l-9 -7q3 -186 3 -224v-8q-6 -148 -43 -158q-45 -10 -65 -10q-65 0 -79.5 26.5t-14.5 124.5v14q0 8 5 70q2 27 5 91v19q0 100 -29 104l-22 -1 q-24 -3 -31 -3h-5q-53 0 -53 51q0 16 9 41q13 38 38 64q4 1 60 33q22 22 22 62q5 170 5 306q0 48 2 90.5t3 48t-2 18.5q-5 31 -30 48.5t-63 17.5q-65 1 -100 36q-12 12 -12 27zM418 1054q0 -205 10 -344l12 -7q551 135 551 267q0 14 -3 27q-25 84 -376 171q-94 23 -131 23 q-11 0 -15 -2q-48 -16 -48 -135z" />
<glyph unicode="S" horiz-adv-x="1447" d="M46 1098v4q0 66 49.5 119t132 85.5t177 51t198.5 24.5h-1q7 0 21.5 0.5t20.5 0.5q91 0 189 -23.5t169.5 -69.5t71.5 -99q0 -3 -0.5 -8.5t-0.5 -7.5q-12 -47 -30 -67q-10 -13 -31 -13q-2 0 -7 0.5t-7 0.5q-68 20 -76 23q-16 6 -59 24.5t-66 26.5t-64.5 16.5t-83.5 8.5 q-93 0 -223 -27t-134 -68q-1 -4 -1 -10q0 -19 9.5 -37t30 -34.5t43.5 -31.5t58 -31t66 -28.5t75 -27.5t76.5 -26t80 -26.5t76.5 -25.5q62 -22 146.5 -45t96.5 -27q212 -71 266 -97q35 -18 57 -35q76 -62 76 -146q0 -22 -6 -48q-30 -132 -208.5 -257t-400.5 -158 q-63 -9 -125 -9q-91 0 -185 25.5t-175 71.5t-132.5 120.5t-51.5 162.5v7q0 81 20 126t66 61h-1q24 6 37 6q64 0 74 -44q1 -4 1 -13q0 -13 -3 -33q-7 -39 -7 -57v-6q0 -74 62 -120q151 -118 297 -118q26 0 86 6q114 16 223 75t195 148q23 22 23 40q0 13 -12 25 q-23 25 -84 45.5t-229 62.5q-110 28 -245 74q-119 41 -199 71t-155.5 64t-120 64t-80 66.5t-50.5 77t-16 90.5z" />
<glyph unicode="T" horiz-adv-x="1099" d="M-123 1256q0 40 52 69.5t128 43t164 14.5q122 1 435 28q342 29 436 31q46 0 88.5 -27.5t42.5 -56.5q0 -15 -11 -32q-33 -56 -99.5 -80.5t-191.5 -40.5q-4 -1 -20 -1q-19 0 -33 1q-14 0 -31 0.5t-26 1t-14 0.5q-95 0 -113 -26q-38 -56 -38 -207v-6q0 -30 3 -85.5t5.5 -97 t3.5 -43.5q18 -389 21 -469q0 -19 4 -55l3 -62v-17q0 -70 -24 -102.5t-96 -36.5h-4q-35 0 -45.5 28.5t-27.5 136.5q-29 181 -34 508v104q0 140 3 356v1q0 28 -33 36t-108 10h-4q-1 0 -89 -8q-99 -12 -128 -14q-38 -2 -54 -2q-118 0 -146 45q-19 30 -19 55z" />
<glyph unicode="U" horiz-adv-x="1016" d="M36 790q0 191 36 390q0 2 1.5 10t2.5 14q12 90 36 120.5t76 30.5q71 0 91 -40q9 -17 9 -49q0 -40 -17 -97q-5 -13 -13 -46q-20 -99 -20 -233q0 -24 2 -76l1 -36q4 -113 12.5 -192t27 -154.5t52 -124.5t83.5 -74q63 -30 113 -30q61 0 110 43.5t77.5 112t43.5 144t16 148.5 q1 16 1 50q0 260 -53 434l-7 23q-33 102 -41 162q-4 36 -4 50q0 131 116 131q18 0 27 -1h3l2 -3q104 -122 145 -456q16 -142 16 -258q0 -84 -7 -166.5t-27 -179.5t-51.5 -174.5t-86.5 -141.5t-127 -91q-61 -22 -121 -22q-138 0 -270.5 89.5t-177.5 212.5q-77 213 -77 480z " />
<glyph unicode="V" horiz-adv-x="1037" d="M36 1218q0 52 29 81.5t61 29.5q35 0 76 -45q43 -50 83 -147q18 -59 124.5 -344.5t148.5 -363.5l19 1q62 130 131 406q48 187 96 339t73.5 214.5t38.5 85.5q57 88 139 88q25 0 58 -10q16 -7 16 -40q0 -32 -16 -82t-34 -93t-57 -127q-42 -89 -51 -117q-112 -315 -179 -573 q-56 -218 -149 -458q-21 -55 -48 -55q-28 0 -63 45q-66 78 -94 179q-41 152 -313 719q-57 121 -75 182q-14 48 -14 85z" />
<glyph unicode="W" horiz-adv-x="1265" d="M36 1007q0 167 42 242q27 56 69 56h4q52 -1 63.5 -20.5t11.5 -83.5v-20q-1 -27 -1 -77q0 -355 58 -516h18q25 67 38 173q37 273 59 355q35 117 91 145q18 11 35 11q47 0 93.5 -76.5t87.5 -224.5q108 -387 259 -661l19 2q73 225 73 644q0 334 -34 580q-5 32 -5 50 q0 39 9.5 52.5t42.5 29.5q14 7 53 31q83 -92 102 -258q6 -49 6 -150q0 -63 -3 -147q-18 -596 -46 -791q-48 -324 -152 -324q-56 0 -131 91q-98 114 -187 339q-121 290 -159 356l-20 -4q0 -55 -59 -546q-19 -177 -54 -228q-20 -29 -45 -29q-26 0 -63 30q-62 53 -84 117 q-107 316 -149 503.5t-42 348.5z" />
<glyph unicode="X" horiz-adv-x="1134" d="M36 111q0 84 94 221q22 31 69 83q170 196 170 270q0 4 -1 8q-9 75 -144 210l-41 44q-132 149 -132 262q0 49 25 93t56 44q10 0 24 -6q17 -7 33 -19t34 -35.5t28.5 -37t31 -50.5t26.5 -48t29 -56q79 -148 112 -186q26 -31 46 -31q7 0 13.5 2t13.5 7.5t13 10t14 14t13.5 16 t14.5 19.5l13.5 19.5t15 21.5t14.5 22q126 177 187 245q4 4 14 16.5t16 19.5q90 116 143 116q43 0 79.5 -18t36.5 -52q2 -16 2 -22q0 -54 -34.5 -103.5t-117.5 -123.5q-10 -10 -22 -21t-19.5 -18t-11.5 -11l-25 -24q-147 -154 -199 -245q-16 -29 -16 -61q0 -36 20 -76 q19 -43 110 -155q62 -74 111 -143q15 -20 69 -61q113 -88 113 -149v-2q0 -42 -31 -74t-74 -32q-8 0 -24 2q-58 10 -110 71t-138 204t-127 180q-19 15 -37 15q-94 0 -247 -292l-3 -7q-97 -180 -171 -180q-33 0 -56 33.5t-23 69.5z" />
<glyph unicode="Y" horiz-adv-x="1127" d="M36 348q0 113 67 164q22 16 37 16q59 0 93 -239q3 -28 8 -49q18 -72 70.5 -151t132 -138t156.5 -59q50 0 100 24q92 49 136.5 139.5t68.5 240.5q7 46 7 112q0 166 -52 430q-30 152 -37 209h-29q-30 -21 -78 -122l-9 -20h-1q-65 -124 -170 -192t-205 -68 q-92 0 -150.5 55.5t-65.5 152.5q-1 3 -1 14q0 83 59.5 261.5t124.5 249.5q45 48 76 48q27 0 51 -25t24 -65q0 -15 -5 -37q-7 -43 -44 -121q-7 -14 -12 -27t-7.5 -20.5t-3.5 -8.5q-1 -4 -3.5 -10t-6 -14.5t-5.5 -14.5q-60 -149 -60 -215q0 -28 19 -46l-9 1q16 -7 33 -7 q35 0 88.5 42.5t86.5 82.5q78 99 132 246q19 48 31 139q23 143 48 206.5t78 87.5q75 -14 100 -48.5t41 -130.5l5 -33q25 -139 62 -381l26 -168q42 -251 48 -399q1 -20 1 -60q0 -385 -203 -574q-121 -112 -269 -112q-34 0 -62 5h-1q-176 25 -316 170t-188 336q-17 62 -17 123 z" />
<glyph unicode="Z" horiz-adv-x="1785" d="M36 190q0 12 3 25q6 46 55 82q52 39 96 73q48 20 75 36q166 109 351 246q348 259 622 509l-6 15q-273 -22 -698 -103l-44 -12q-65 -20 -86 -20q-82 23 -82 134q0 9 1 14q4 55 30 74t83 19q31 0 100 -6q65 -5 86 -5q11 0 15 1q60 6 220 36q86 15 114 21l95 16 q394 67 592 75q21 0 33.5 -32.5t12.5 -67.5q-5 -31 -75 -73l-12 -9q-124 -83 -293 -247q-204 -201 -689 -568q-65 -49 -65 -71q0 -17 27 -17q61 -4 269 -8q693 -18 1027 -103q121 -28 137 -93q4 -20 4 -27q0 -26 -18 -51q-36 -45 -107 -45q-9 0 -13 1q-41 3 -139 31 q-45 13 -76 21q-106 22 -266 34q-91 8 -125 13q-233 24 -697 36l-89 2q-31 0 -117 -19q-150 -33 -218 -33q-80 0 -113 36q-20 21 -20 60z" />
<glyph unicode="[" horiz-adv-x="811" d="M63 907q0 207 16 344q5 45 8 126q4 73 9.5 123t16 100t27 81.5t42.5 56.5t62.5 36.5t85.5 11.5h28q16 -2 18 -2l34 2h85q112 0 151 -17q24 -10 36 -46t12 -75q0 -40 -19 -69.5t-43 -36.5q-6 -2 -24 -2q-21 0 -33 2q-38 7 -67 7h-11q-64 -3 -95 -4q-91 -2 -115.5 -36.5 t-39.5 -169.5l-2 -20q-13 -111 -13 -247q0 -158 20 -446q10 -167 20 -252q7 -72 7 -205q1 -167 8 -180q25 -35 80 -49q63 -18 193 -18q23 0 78 15q38 12 51 12q54 0 57 -100v-5q0 -58 -33 -94q-51 -51 -197 -51q-68 0 -161 12l-45 6q-47 6 -69 8.5t-45.5 12.5t-31 17.5 t-17.5 32t-12.5 46t-8.5 69.5l-1 12q-25 206 -43.5 479t-18.5 513z" />
<glyph unicode="\" horiz-adv-x="1217" d="M90 1676q0 7 2 15l1 5q8 41 61 67q22 12 43 12q24 0 52 -17q126 -69 321 -603q21 -60 32 -84l95 -223q130 -312 211 -476q184 -353 215 -510q4 -28 4 -40q0 -33 -13 -61q-18 -40 -51 -53q-15 -6 -26 -6q-7 0 -18 3q-43 12 -89 85q-95 151 -184 431l-13 41q-24 76 -65 160 l-13 24v-1q-3 11 -84 193q-41 89 -44 102q-5 11 -59 136l-27 63q-135 321 -234 483l-11 16.5t-15 23.5q-91 137 -91 214z" />
<glyph unicode="]" horiz-adv-x="836" d="M63 1684v10q0 88 81 93h10q19 0 71 -5q37 -5 70 -5h9q41 2 104 2q94 0 158 -15.5t111.5 -53t69.5 -103.5t22 -165q3 -21 3 -159q0 -137 -3 -392q-3 -353 -34 -698q-15 -170 -43 -373q-9 -64 -49.5 -84t-147.5 -22q-27 0 -72 -3q-123 -9 -150 -9h-50q-98 0 -120 17.5 t-23 99.5q0 14 1 22q3 70 70 73h5q22 0 53 -4q32 -4 51 -4h4q123 0 162 11q65 18 96 89q23 51 38 148q24 160 24 249v22q-2 40 -2 99q0 39 1 51l2 27q17 264 21 392q3 69 3 138q0 161 -17 325v3l1 9q1 4 1 12v4q-2 21 -19 37q-52 46 -266 48q-25 0 -91 -6q-18 -2 -47 -2 q-22 0 -29 2q-75 11 -79 120z" />
<glyph unicode="^" horiz-adv-x="798" d="M90 1042q0 40 29 93q122 221 262 327l10 8l10 -7q50 -36 216 -222l41 -47q35 -38 45 -82q6 -18 6 -37q0 -31 -16 -57t-54 -26q-26 0 -56 18q-44 25 -112 99q-55 58 -76 58q-33 0 -83 -95q-26 -49 -66.5 -76.5t-80.5 -27.5t-57.5 22.5t-17.5 51.5z" />
<glyph unicode="_" horiz-adv-x="1601" d="M90 -166q0 26 5.5 45t22.5 40.5t57 33t101 11.5q71 0 184 -7q116 -6 170 -6h51q116 2 173 2q76 0 113 -1h61q75 0 108 1l77 1q3 0 14.5 1t24.5 2l26 2q54 6 82 6q54 0 94 -17q57 -27 57 -85q0 -6 -2 -20q-5 -38 -32 -66t-62 -33q-131 -16 -179 -16q-42 0 -120 6 q-112 6 -267 6q-57 0 -88 -1l-399 1q-15 0 -71 -2q-28 -2 -43 -2q-41 0 -62.5 1.5t-48.5 13.5t-38 36q-9 23 -9 47z" />
<glyph unicode="`" horiz-adv-x="659" d="M90 1413q0 35 35 63q17 14 34 14q13 0 59 -29l6 -5q168 -121 287 -277l3 -5q55 -70 55 -115v-1q0 -41 -40 -75q-16 -13 -28 -13t-24 12q-112 89 -290 298v-1l-4 6q-2 1 -5 4.5t-8.5 9l-11.5 11.5q-44 41 -60 67q-8 15 -8 36z" />
<glyph unicode="a" horiz-adv-x="859" d="M36 173q0 160 203 392q260 210 386 210h7q40 0 63 -70t40 -207l8 -56l1 -1q0 -1 0.5 -4t1.5 -7t2.5 -10.5t2.5 -13.5q21 -103 41 -144q10 -22 36 -57q49 -67 49 -113q-6 -30 -39.5 -54.5t-68.5 -24.5q-25 0 -47 19q-41 37 -83 164q-37 121 -77 153l-53 -105 q-60 -91 -115 -142.5t-155 -85.5q-18 -6 -50 -6q-66 0 -107.5 43.5t-45.5 119.5zM229 201q52 3 116.5 66.5t107.5 147t43 142.5q-5 8 -23 8q-31 0 -76 -48q-59 -66 -115 -173t-53 -143z" />
<glyph unicode="b" horiz-adv-x="811" d="M36 715q0 50 2 118q15 440 170 440h7q51 0 51 -71q0 -57 -36 -170q-17 -60 -18 -69q-10 -102 -10 -173q0 -119 22 -212q83 100 213 122q50 9 90 9q66 0 165 -16q83 -14 83 -133q0 -11 -2 -39q-24 -253 -237 -405q-115 -81 -236 -96q-23 -4 -48 -4q-88 0 -147 49.5 t-59 145.5v32q0 34 -5 234q-5 114 -5 238zM255 199q174 25 257 105q31 29 54.5 82.5t23.5 84.5q0 23 -15 38q-37 5 -65 5q-112 0 -183 -81.5t-72 -233.5z" />
<glyph unicode="c" horiz-adv-x="765" d="M36 293v16q0 102 40 203.5t110 165.5q74 67 164 67h5q43 0 59 -7.5t27 -39.5q8 -24 8 -33q0 -47 -58 -81q-109 -66 -148 -122t-39 -123q0 -32 11 -64q13 -40 41 -67.5t66 -27.5q8 0 26 2q87 12 210 96q60 40 121.5 65t95.5 31q15 3 28 3q60 0 65 -68q-23 -136 -363 -266 q-111 -43 -201 -43q-87 0 -149 42.5t-89.5 107t-29.5 143.5z" />
<glyph unicode="d" horiz-adv-x="865" d="M36 133q0 207 269 390q13 8 65 30q124 50 124 79q-6 48 -6 141q0 15 0.5 50.5t0.5 56.5q0 18 1.5 60.5t1.5 61.5q0 29 -2 59l-1 7q0 8 -0.5 24t-0.5 23q0 140 43 183q28 32 78 32q12 0 17 -1q9 -1 15.5 -7.5t10 -20t5 -23.5t3.5 -30t3 -28q11 -69 11 -259v-42 q0 -41 -1 -75v-54q0 -172 26.5 -285t110.5 -275q58 -65 58 -114q0 -14 -5 -27q-39 -82 -90 -82q-33 0 -70.5 44t-66.5 124q-4 13 -11 24t-17 21l-9 10q-70 -148 -271 -204q-95 -26 -173 -26q-112 0 -112 67q-7 32 -7 66zM253 225q0 -18 11 -30l20 -2q62 0 124.5 67t71.5 138 q-79 -28 -146.5 -73t-78.5 -85q-2 -5 -2 -15z" />
<glyph unicode="e" horiz-adv-x="748" d="M0 460q0 64 10 131q20 127 204 168q24 6 49 6q69 0 131 -47t107 -141q12 -45 12 -82q0 -114 -105 -182q-15 -11 -47 -21q-34 -12 -43.5 -18t-9.5 -17v-1q1 -14 25 -41q50 -54 116 -54q19 0 38 4q85 19 168 118q110 128 142 153q53 38 79 38t26 -40q-17 -119 -133 -251 t-237 -174q-44 -9 -85 -9q-209 0 -387 238q-60 79 -60 222zM177 508q0 -94 49 -131q44 0 73.5 30t33.5 74q1 5 1 15q0 38 -21.5 67.5t-63.5 35.5h-10q-29 0 -45.5 -24t-16.5 -67z" />
<glyph unicode="f" horiz-adv-x="678" d="M-49 719q0 20 10 39q5 23 124 44q60 10 72 15q0 73 2 126t7.5 112.5t16 100.5t29 81t44 63.5t63 38t84.5 14.5h12q128 0 212.5 -68t135.5 -222q18 -56 18 -92q0 -37 -18.5 -61.5t-60.5 -24.5q-47 0 -63 15t-27 57q-9 37 -17 57q-67 183 -131 183q-32 0 -54.5 -12.5 t-35 -31t-19.5 -49.5t-9 -58.5t-2 -66.5q0 -18 1 -47t1 -42q0 -62 11 -66q3 0 13.5 -0.5t29 -1t38.5 -1.5q80 -5 180 -18q68 -9 68 -32q0 -18 -3.5 -34t-9.5 -28t-13.5 -22t-16 -17t-16.5 -12.5t-16 -9t-14 -5.5l-9 -3l-4 -1q-35 0 -50 1h-37q-60 2 -62 2q-60 0 -86 -10 q11 -147 28 -326q8 -69 17 -119q2 -13 6.5 -35t5.5 -30q1 -2 1 -6q0 -29 -39.5 -72.5t-76.5 -43.5q-13 0 -25 6q-24 2 -33.5 33t-17.5 108l-1 12q-7 76 -14 184q-9 161 -21 235q-4 27 -23 36.5t-69 13.5q-33 2 -43 4q-66 12 -87 58q-6 14 -6 29zM584 639z" />
<glyph unicode="g" horiz-adv-x="750" d="M36 344q0 74 30.5 147.5t84.5 133.5t137 97.5t179 37.5h18q33 0 71.5 -6t75.5 -18t61.5 -33t24.5 -47v-7l-5 -3q-27 -19 -27 -102q0 -42 8 -112q6 -46 6 -62l1 -30q6 -136 6 -246q0 -178 -13.5 -282.5t-52.5 -185.5q-63 -133 -182 -157q-30 -7 -55 -7q-105 0 -198 73 q-47 39 -75 88q-19 34 -27 44q-61 91 -61 154q0 45 34 73q12 5 18 5q51 0 107 -96q37 -60 90.5 -102.5t99.5 -42.5q68 0 98 92q31 93 31 258q0 37 -4 127q-6 130 -6 160q0 29 1 41q-17 -21 -57 -87q-85 -141 -170 -166q-20 -7 -46 -7q-71 0 -128.5 59t-69.5 137q-5 42 -5 72 zM211 335q0 -43 26 -63q1 -1 5 -1q51 0 233 280q7 12 14 22.5t11 17t5 7.5q-5 10 -30 10q-48 0 -114 -35.5t-98 -83.5q-35 -53 -47 -110q-5 -27 -5 -44z" />
<glyph unicode="h" horiz-adv-x="733" d="M33 190q0 10 2 30q8 101 8 286q1 45 1 107q1 116 8.5 230.5t21.5 230t41.5 186.5t63.5 71q15 0 27 -9q51 -24 54 -162v-5q0 -79 -27 -287q-10 -67 -10 -90q-9 -144 -9 -263q0 -36 2 -100q41 44 79 155q29 90 58.5 135t89.5 70q14 6 29 6q59 0 93 -96.5t58 -286.5 q3 -32 4 -34q47 -190 135 -268l4 -4v-5q-5 -80 -75 -80q-79 0 -156 69q-70 80 -111 298l-7 40q-26 -52 -57 -133q-59 -151 -98 -216t-86 -65q-56 0 -99.5 52t-43.5 138z" />
<glyph unicode="i" horiz-adv-x="376" d="M72 1000v2q1 39 37 67.5t81 28.5q12 0 18 -1q44 0 70.5 -19.5t26.5 -50.5q0 -38 -35.5 -68.5t-85.5 -30.5q-5 0 -19 2q-46 2 -69.5 22t-23.5 48zM86 205q0 69 8 153l5 58q5 77 5 145q0 49 -4 88q-1 4 -1 14q0 41 28 73t86 32q49 0 49 -42q32 -175 32 -398v-54l-5 -216 q0 -16 -42.5 -37t-69.5 -21q-13 0 -21 6q-59 50 -68 152q-2 13 -2 47z" />
<glyph unicode="j" horiz-adv-x="328" d="M-410 -150q0 63 45 63h3q30 -2 71 -35q28 -12 93 -94q105 -131 160 -131q36 0 70 40q77 91 77 519q0 109 -6 241v30l-4 52q-3 44 -3 71q0 18 2 36q0 41 29 72.5t74 31.5q59 0 59 -52q6 -33 10.5 -62t7.5 -59.5t5.5 -51.5t4 -52.5t2.5 -46.5t1.5 -51t1 -48.5t0.5 -55 v-56.5v-71q0 -391 -82 -533q-82 -145 -238 -145q-125 0 -218.5 84.5t-138.5 199.5q-26 68 -26 104zM58 905q0 38 29 76q34 43 86 50q17 3 32 3q70 0 78 -62v-10q0 -41 -31 -82.5t-78 -51.5q-16 -4 -34 -4q-35 0 -57 19.5t-24 52.5q-1 3 -1 9z" />
<glyph unicode="k" horiz-adv-x="785" d="M36 469q0 24 17 60q70 132 72 173q1 11 1 93v157q0 92 4 192q8 175 25 248.5t60 73.5h6q83 -9 83 -289q0 -188 -33 -456q25 8 96 35q72 28 102 39q115 41 190 41q12 0 17 -1q63 0 75.5 -16.5t12.5 -86.5q-18 -42 -205 -98q-128 -27 -194 -54q-79 -30 -79 -64 q0 -22 38 -44q2 0 61.5 -21.5t147 -56.5t174.5 -74t151.5 -80.5t70.5 -70.5q-2 0 -20 -43t-56 -43q-18 -5 -34 -5q-22 0 -46 7.5t-40 15t-47 24.5q-49 26 -53 27h1l-82 41q-180 87 -244 87q-7 0 -13 -1t-10.5 -2t-8 -5t-5.5 -5t-3.5 -7t-2.5 -7.5t-1.5 -9.5t-0.5 -9.5v-11 v-10.5q0 -13 2 -45q0 -10 0.5 -27.5t0.5 -24.5q0 -21 -2 -43q-9 -71 -68 -71q-35 0 -66.5 20t-38.5 68q-2 12 -2 21q0 26 12 88q20 93 21 111v7q0 54 -33 76q-48 36 -52 68q-1 3 -1 9z" />
<glyph unicode="l" horiz-adv-x="312" d="M36 744v44q0 278 27 542v6h-5l5 3q51 31 98 31q20 0 38 -18q40 -45 40 -237q0 -87 -13 -232q-3 -51 -4 -54q-3 -56 -3 -109q0 -242 50 -515q7 -38 7 -77q0 -71 -28 -105q-19 -23 -40 -23q-24 0 -63 25q-36 23 -60.5 127t-33.5 277q-2 43 -5 75q-10 111 -10 240z" />
<glyph unicode="m" horiz-adv-x="1046" d="M30 93q6 48 16 93t14.5 66t4 55t-10.5 79l-10 47q-5 21 15 59q21 42 21 68q0 32 42 35q37 2 61.5 10.5t31.5 13.5t18 22t12 19q36 45 56.5 61.5t48.5 16.5q24 0 58 -18q39 -22 77 -166q46 -178 53 -192h18q11 21 71 234q42 142 98 170q39 -7 71.5 -29.5t58 -59.5 t45.5 -76.5t37 -94t29 -98.5t27 -102q9 -38 14 -56q37 -135 55 -184q0 -53 -42 -53q-14 0 -33 6q-75 21 -109 67.5t-66 169.5q-4 13 -9 31.5t-8 29.5t-7 25t-6.5 22.5t-6.5 18t-7 15t-6.5 10.5t-7.5 7t-8 2q-22 0 -49 -94q-14 -49 -22.5 -77t-28.5 -79t-37.5 -80 t-44.5 -53.5t-56 -25.5h-1q-34 0 -64 94t-43 188l-13 94q-13 79 -43 79q-5 0 -11 -3q1 -3 -107 -304q-34 -96 -71 -124q-24 -16 -42 -16q-55 0 -71 19.5t-12 57.5z" />
<glyph unicode="n" horiz-adv-x="764" d="M36 215q0 74 17 196q16 110 16 142q1 66 29 97t69 31q24 0 48.5 -7t27.5 -23l17 -5q31 33 63 86q38 57 55.5 77t50.5 41q51 30 83 30q40 0 57 -39q60 -142 101 -427q19 -122 25 -156q1 -8 16 -61q18 -72 18 -117q0 -37 -15 -54.5t-54 -17.5q-18 0 -37 4q-51 8 -80 105.5 t-57 312.5q-18 131 -27 173l-17 4q-106 -78 -148.5 -167.5t-44.5 -215.5q0 -52 -41.5 -118.5t-82.5 -66.5q-39 0 -64 47.5t-25 128.5z" />
<glyph unicode="o" horiz-adv-x="686" d="M36 360q0 20 2 60q11 157 106.5 250.5t242.5 93.5h12q114 0 182.5 -86.5t68.5 -230.5q0 -114 -41.5 -215.5t-121 -166.5t-177.5 -65q-29 0 -62 6q-58 11 -100.5 46.5t-66 86t-34.5 105.5t-11 116zM220 359q1 -72 30 -120.5t67 -48.5q48 0 96.5 62t54.5 150q1 10 1 27 q0 79 -37 136q-22 34 -56 34q-40 0 -82 -38.5t-47 -76.5q-27 -49 -27 -113v-12z" />
<glyph unicode="p" horiz-adv-x="685" d="M50 376v255q6 88 31 120q3 4 4 8t1 6t2.5 3.5t9.5 2t22 0.5h20q159 0 316.5 -66t200.5 -168q17 -43 17 -75q0 -66 -52 -143.5t-136.5 -138t-170.5 -77.5q-43 -8 -52 -22h-1q-2 -2 -2 -28q0 -16 1 -27q4 -56 4 -69v-26q0 -83 20 -254q1 -7 1 -16q0 -29 -19 -47t-54 -18 q-51 0 -79.5 36t-45.5 142q-8 67 -8 120v72q-3 104 -16.5 228t-13.5 182zM246 502q0 -48 6 -119q6 -92 6 -97v-8q73 9 137.5 62.5t75.5 124.5q2 6 2 14q0 31 -17 50q-25 31 -121 51q-32 5 -48 5q-23 0 -37 -7h4q-8 -14 -8 -76z" />
<glyph unicode="q" horiz-adv-x="741" d="M36 307q0 19 1 28q0 109 67 213.5t174.5 169.5t218.5 65h12q82 -10 121 -31.5t91 -85.5q18 -22 18 -67q0 -49 -21 -124q-15 -49 -18 -72q-37 -261 -37 -501q0 -69 1 -106q28 12 111 48.5t122 52t99 31.5t106 16q39 0 86 -10q14 -15 14 -32q0 -3 -2 -11q-12 -57 -223 -131 q-85 -49 -152 -82q-60 -28 -135 -123q-61 -93 -104 -93q-4 0 -36 7q-56 6 -72 34t-16 96v14q-1 28 -1 82q0 315 31 569q-170 -161 -312 -161q-144 0 -144 204zM232 338q0 -32 15 -44q3 -3 10 -3q33 0 93.5 48.5t118 122t78.5 134.5q-43 27 -82 27q-101 0 -185 -123 q-17 -24 -32.5 -78.5t-15.5 -83.5z" />
<glyph unicode="r" horiz-adv-x="659" d="M36 574q14 59 44 80q15 10 29 10q16 0 33 -11q78 -48 90 -226q20 73 78 155.5t139 143t153 60.5h1q41 0 80.5 -29.5t39.5 -60.5q0 -8 -3 -16q-151 -76 -253.5 -214t-143.5 -326q-30 -139 -87 -139q-26 0 -54 27q-68 62 -107 225t-39 321z" />
<glyph unicode="s" horiz-adv-x="814" d="M56 534q0 67 51 121t126 81.5t153 27.5h12q40 0 74 -20.5t46 -49.5q5 -10 5 -23q0 -17 -9 -32q-19 -28 -70 -40q-15 -3 -43 -7q-100 -16 -124 -24t-24 -28q0 -9 5 -16l6 -5q36 -9 341 -121q115 -44 155 -94q28 -37 28 -77q0 -37 -21 -80q-23 -45 -114 -82.5t-209 -54.5 q-77 -10 -125 -10q-162 0 -187 63q-17 42 -17 80q0 34 14.5 61.5t46.5 27.5q18 0 41 -10q108 -45 184 -45q150 0 192 42q-53 25 -135.5 56.5t-146 55.5t-124.5 51.5t-95 58t-34 63.5q-2 20 -2 30z" />
<glyph unicode="t" horiz-adv-x="722" d="M-54 617h1v6q0 29 15 44q41 42 141 42q17 0 41 -2q16 -2 26 -2q28 0 56 10h6q-8 99 -8 186q0 84 5 139q15 212 77 280q31 34 66 34h7q8 0 22 -14q26 -28 26 -164q0 -80 -9 -193q-8 -89 -8 -165v-86q0 -11 54 -11q13 0 21 1h-1q62 3 168 22h1l21 7q65 15 91 15 q44 0 59 -32q12 -24 12 -44t-7 -31q-10 -20 -25 -34.5t-43 -25t-49.5 -17t-70.5 -12t-77.5 -8t-95.5 -7.5l-29 -2h-9q-2 -10 -3 -29q-4 -56 -4 -94v-23q9 -88 10 -197v-32q0 -50 -3.5 -91t-8.5 -61t-9 -22h-5q-1 -4 -14 -4h-15q-79 0 -86 7q-58 56 -58 259q0 38 6 134 q1 10 1 27q0 62 -25.5 86.5t-100.5 24.5h-14q-8 -1 -20 -1q-37 0 -57.5 4t-42 22t-35.5 54z" />
<glyph unicode="u" horiz-adv-x="712" d="M36 236q0 64 14 148.5t38 164.5t61 136t78 57q34 0 50.5 -22t16.5 -76q0 -87 -37 -244q-28 -129 -28 -161q0 -14 3 -17q6 0 11 4q91 56 130 140t63 231q14 88 29.5 121t51.5 33t60.5 -20t38.5 -63.5t20.5 -93t11.5 -127.5q4 -78 11 -112t39 -124q47 -129 47 -194 q0 -74 -63 -74q-45 0 -84 33q-54 44 -88 206q-10 55 -14 68q-54 -98 -149 -173t-173 -75q-66 0 -102 59t-36 175z" />
<glyph unicode="v" horiz-adv-x="788" d="M36 618q0 95 95 95q16 0 37 -3q50 -29 150 -296q29 -82 56 -141q38 42 97 239q51 171 92 242.5t102 71.5q13 0 26 -3q35 -3 52 -32q10 -18 10 -47q0 -105 -127 -365q-31 -66 -34 -75l-6 -16q-47 -141 -96.5 -214.5t-122.5 -73.5q-9 0 -12 1q-57 5 -97.5 62.5t-87.5 176.5 q-19 51 -41 96q-60 131 -76 186q-17 59 -17 96z" />
<glyph unicode="w" horiz-adv-x="975" d="M36 393q0 67 9 136q4 53 59.5 139t101.5 86q40 0 63 -61q6 -17 6 -45q0 -48 -20 -133q-22 -83 -22 -129q0 -29 11 -51q25 15 59 103q18 50 30.5 69t43.5 40q39 25 66 25q13 0 25 -5q81 -38 205 -191q12 -14 35.5 -43t31.5 -38q9 32 9 74q0 51 -17 173q-12 79 -12 131 q0 58 16.5 79.5t50.5 21.5h8q39 -3 68.5 -38t45.5 -89t23.5 -110.5t7.5 -112.5v-16q-2 -85 -8.5 -147t-23 -118.5t-48 -86t-77.5 -29.5q-7 0 -11 1q-60 5 -106 48t-115 146q-71 105 -102 130l-6 -9q-153 -343 -252 -343q-26 0 -45 19q-80 75 -102 245q-8 69 -8 129z" />
<glyph unicode="x" horiz-adv-x="863" d="M37 74v4q1 43 23 74t87 94q44 41 57 73q5 11 5 30q2 35 -16 60q-55 83 -63 176v23q3 90 100 91q32 -1 52.5 -28.5t51.5 -95.5q21 -48 42 -67q13 -12 27 -12q18 0 32 10q16 11 167 148q102 91 173 91h4l2 1q90 -6 90 -54q-1 -46 -79 -131q-98 -105 -245 -214 q18 -17 60 -50q6 -5 29.5 -25t33 -28t29 -26t28 -29.5t20 -27.5t15.5 -30.5t4 -28.5l-1 -4q-6 -44 -26.5 -65.5t-55.5 -20.5l-17.5 3.5t-14.5 2.5q-73 17 -148 88q-87 78 -129 79h-2q-46 0 -135 -88q-61 -64 -123 -87q-21 -8 -38 -8q-39 1 -39 63v9z" />
<glyph unicode="y" horiz-adv-x="785" d="M36 255q0 83 11 156t46 169q56 159 116 159q35 0 66 -60l3 -5q0 -76 -35 -209q-32 -128 -32 -210v-16q8 -22 21 -22q31 0 88 111q28 51 99 209q61 133 96.5 184.5t77.5 51.5q6 0 18 -4h4q16 0 30 -14q41 -42 41 -358v-15v-9v-7.5v-8.5q0 -30 14 -293t14 -280 q0 -44 -8 -76q-27 -96 -112 -157.5t-163 -61.5q-171 0 -349 204q-23 27 -31 65q-3 15 -3 31q0 60 48 60q21 0 47 -13q39 -18 106.5 -64t89.5 -59q62 -42 111 -42q38 0 63 30q6 7 11 17t8 25t4.5 26.5t2 34t0.5 34v39.5v39q0 36 -7.5 210t-7.5 273q-22 -98 -80 -182 q-64 -99 -110 -142t-118 -55q-24 -2 -34 -2q-58 0 -96 40q-50 62 -50 197z" />
<glyph unicode="z" horiz-adv-x="817" d="M-36 96q0 19 12 42q42 83 158 153l98 54q27 15 62.5 35t39.5 22q143 86 212 160q-3 0 -24 -7t-51.5 -15t-55.5 -12q-75 -11 -144 -16q-26 -2 -69 -2q-121 0 -141 39q-16 32 -16 57q0 40 37.5 70.5t92.5 30.5q20 0 31 -2q46 -6 76 -6q78 0 204 22q194 33 273 33h9 q100 -19 100 -79q0 -43 -137.5 -173.5t-263.5 -210.5q-51 -32 -93.5 -56.5t-57.5 -32.5l-16 -7q41 -5 136 -8q224 -7 301 -27q86 -22 86 -66q0 -24 -22 -52q-30 -40 -185 -42h-16q-42 0 -102 3l-88 3q-48 0 -153 11q-100 11 -153 13q-140 3 -140 66z" />
<glyph unicode="{" horiz-adv-x="915" d="M90 754v13q0 56 34 90t116 78q43 23 75 44q6 3 6 38q0 33 -12 163q-18 200 -18 253q0 21 2 35q45 220 219 297q82 28 154 28q156 0 159 -128l-1 -5q-20 -45 -67.5 -69.5t-140.5 -48.5l-38 -10q-112 -48 -112 -182q0 -85 52 -189q32 -59 48 -83q48 -74 51 -111v-8 q0 -52 -58 -119q-31 -31 -87 -69q-38 -26 -38 -41q0 -16 83 -70l48 -28q52 -49 52 -116q0 -15 -4 -41q-12 -57 -75 -174q-73 -135 -81 -200q-1 -9 -1 -25q0 -84 53.5 -126t154.5 -64q84 -19 116.5 -37.5t34.5 -55.5v-10q0 -42 -22.5 -63t-81.5 -21q-31 0 -75 5l-23 2 q-97 9 -167 40.5t-106.5 78t-53 96.5t-16.5 107q0 100 59 245q38 88 38 136v3q-1 68 -83 118l-17 11q-99 59 -138 103t-39 110z" />
<glyph unicode="|" horiz-adv-x="433" d="M90 1376q0 293 65 376q8 11 30.5 21t42 15.5t20.5 6.5q51 -6 71 -39q24 -37 24 -108q0 -55 -13 -127q-2 -12 -4.5 -26.5t-2.5 -17.5q-22 -152 -22 -395q0 -65 1 -100l1 -64q1 -33 1 -93v-43l-2 -299l-1 -25v-43q0 -71 5 -115l4 -40q16 -157 16 -262q0 -49 -1.5 -85 t-7 -80.5t-15 -72.5t-28 -48t-44.5 -20q-40 0 -73.5 29t-45.5 81q-20 86 -20 249q0 117 9 271h3q6 140 6 258q0 39 -1.5 120.5t-1.5 102.5l-2 225q0 10 -5 82q-9 150 -9 266zM233 1796h8l7 -1z" />
<glyph unicode="}" horiz-adv-x="897" d="M90 1663q0 87 23.5 106.5t122.5 19.5h24q93 0 166.5 -37.5t118 -102.5t68 -148t23.5 -178q0 -169 -64 -310l-4 -9l11 -5q216 -95 228 -194v-12q0 -57 -57.5 -122.5t-194.5 -172.5q-14 -11 -14 -45q0 -81 84 -296l19 -49q7 -39 7 -78q0 -63 -21 -115.5t-57.5 -86.5 t-80.5 -59t-95.5 -38.5t-97.5 -19.5t-90 -6q-97 0 -110 50q-5 22 -5 37q0 25 10 39q35 52 155 56q136 6 190 103q10 17 10 50q0 66 -51 201t-110 238q-12 27 -12 55q0 33 20 62q22 35 111 94q62 42 82 62l13 12l-17 6q-155 52 -183 124q-8 21 -8 43q0 27 10 58q10 33 54 117 q83 158 83 245q0 48 -13.5 82.5t-44.5 60t-67.5 42.5t-97.5 37t-102 40q-24 11 -30 18t-6 26z" />
<glyph unicode="~" horiz-adv-x="920" d="M90 432q0 22 9 39q5 8 9 19q44 99 95.5 153.5t138.5 64.5q6 1 17 1q62 0 168 -56q57 -33 80 -33q16 0 28 25q42 87 94 87q23 0 42 -17l8 -8q51 -44 51 -92v-5q-4 -64 -77.5 -146t-142.5 -82q-61 0 -167 76q-63 44 -82 47q-16 2 -21 2q-16 0 -23 -7q-6 -6 -22 -36 q-31 -62 -54.5 -90t-59.5 -28q-53 0 -79 44q-12 20 -12 42z" />
<glyph unicode="&#xa1;" horiz-adv-x="447" d="M97 16q1 46 17 115q4 19 10 42q25 148 26 291l1 38l1 79q1 25 1 59l3 65q0 72 -4 112l-2 38q-10 71 -10 131q2 39 6 62q10 50 30.5 74t51.5 22q34 0 64 -22.5t40 -61.5q14 -59 13 -152q0 -51 -6 -114q-10 -58 -10 -164q-3 -55 0 -118l-1 -72q0 -4 1 -30t3 -51 q9 -143 9 -207q-2 -20 -1 -26q-9 -129 -67 -187q-32 -32 -74 -32l-9 1q-55 3 -73 27q-19 23 -20 81zM110 1402q0 44 36 73t95 29q21 0 43 -3q35 -6 54 -34.5t19 -62.5v-8q-2 -41 -30.5 -71t-80.5 -34q-61 0 -98.5 33t-37.5 78z" />
<glyph unicode="&#xa2;" horiz-adv-x="1290" d="M90 336q0 29 7 57q16 59 39 99.5t51.5 69.5t81.5 55.5t107 46.5t152 54q36 12 56 19q-2 28 -2 45q0 271 140 276q63 0 65 -122v-10q0 -45 -5 -89q-2 -23 -2 -52q0 -21 4 -21v1q6 1 25 1q54 0 101 -19.5t64 -52.5q6 -14 6 -25q0 -21 -21 -39q-37 -31 -123 -37 q-61 -4 -70 -42q2 0 2 -109l-2 -49q-1 -12 -1 -34q0 -19 1 -28q0 -3 1 -15t1.5 -17t2 -15.5t3.5 -15.5t5 -11.5t7 -9.5t9 -3q2 0 17 -0.5t29.5 -0.5t37.5 1.5t53 6t63 11.5q113 25 196 25q121 0 125 -42q0 -103 -360 -186l-135 -31q-20 -17 -20 -106q0 -8 0.5 -26.5 t0.5 -28.5v-13q0 -83 -61 -86h-6q-55 0 -83.5 37.5t-28.5 92.5q0 14 2 46q3 21 3 36q0 12 -1 16q-4 21 -22 23q-142 11 -260 56.5t-186.5 114t-68.5 146.5zM338 356q17 -51 41 -65q4 -2 18 -10t23.5 -12.5t25.5 -10.5t33.5 -9t36.5 -3h69l1 172q0 107 -5 107 q-48 0 -102 -17.5t-97.5 -58t-43.5 -93.5z" />
<glyph unicode="&#xa3;" horiz-adv-x="1549" d="M100 611v14q0 10 2 14q4 23 21.5 39.5t46.5 25t47.5 11.5t45.5 6q23 1 78 3h25q0 7 6 128l1 27q0 28 -1 45v20q0 72 8 104q36 296 334 353q43 7 101 7h35q29 0 49.5 -1t47.5 -6t43 -14t28 -26t12 -41q0 -22 -8 -51q-19 -70 -70 -70q-40 0 -98 41q-20 2 -33 2 q-118 0 -190 -67.5t-80 -208.5q-3 -41 -6 -226l273 23q22 2 43 6q10 1 46 4h15h9.5h10.5t9.5 -0.5t10.5 -2t9 -4.5t9 -7q14 -19 17 -39v-9q0 -25 -13 -57q-11 -68 -94 -76q-42 -5 -76 -6q-11 -1 -41 -1l-33 -1q-54 -2 -73 -4l-30 -3l-89 -7q2 -22 2 -67.5t1 -65.5 q5 -109 26 -229q24 3 84 15t81 16q26 4 112 20.5t122 20.5q114 12 230 12q39 0 87 -5q65 -13 98 -25t47 -32q11 -15 11 -38v-6q0 -3 -2 -13q-11 -47 -83 -50q-48 -12 -135 -12q-7 0 -16 -0.5t-15 -1t-9 -0.5q-122 -9 -343 -34q-91 -23 -118 -29q-15 -3 -50 -15 q-99 -32 -162 -32h-13q-100 11 -119 126v1q0 39 -10 169q-10 118 -10 149v95l-15 10h-2l-50 -7q-24 -3 -39 -7q-37 -7 -48 -8h-22q-29 0 -46 7q-36 15 -42 91z" />
<glyph unicode="&#xa5;" horiz-adv-x="1017" d="M100 424v4q1 25 19.5 34t76.5 16h5q106 12 212 16q-1 20 1.5 45.5t3.5 44.5q-49 2 -92 5h-76q-70 0 -105 9.5t-42 41.5q-3 18 -3 82v4q1 25 19.5 34t76.5 16h5q80 10 155 14l9 12q-4 7 -28.5 54.5t-40.5 71.5q-15 22 -25 54.5t-19 51.5q-62 142 -81 210q-18 61 -18 108 q0 45 19.5 71t71.5 26q16 0 36 -3q52 -32 158 -329q41 -118 61 -160l17 -1q44 54 108 273q56 192 97 270.5t101 78.5q15 0 28 -4q58 -5 58 -81q0 -115 -137 -410q-34 -74 -37 -85l-6 -17q-37 -101 -87 -182l7 -13l76 -7l8 -1q115 -13 155 -43q12 -8 21.5 -48.5t9.5 -66.5v-9 q-1 -18 -8.5 -25t-23.5 -7h-8q-89 -7 -171 -7q-60 0 -93 1q0 -42 -1 -84q64 -3 111 -8l8 -1q115 -13 155 -43q12 -8 21.5 -50.5t9.5 -69.5v-8q-1 -18 -9 -25.5t-23 -7.5h-8q-81 -6 -179 -6q-62 0 -94 -2q2 -7 -5 -53v-15l1 -3v-7l1 -38q0 -30 -1.5 -49.5t-7 -41t-18.5 -33.5 t-33 -16t-36 -4h-4q-32 2 -44 23t-21 81l-1 6q-3 22 -8 50t-7.5 52t-4.5 62l-50 2q-5 0 -19 1.5t-20 1.5q-5 1 -21 1q-20 0 -33 -1h-23q-36 0 -55.5 2t-42 9t-34 23t-15.5 43q-3 16 -3 60z" />
<glyph unicode="&#xa7;" horiz-adv-x="1068" d="M90 689v3q0 108 92 175q-78 84 -81 201v3q0 112 99.5 180t252.5 79q7 1 20 1q64 0 135.5 -25.5t109.5 -70.5q36 -39 36 -86q0 -4 -2 -16q-11 -94 -53 -94q-14 0 -54 20q-45 24 -80 34t-87 10q-62 0 -118 -16q-54 -13 -59 -31v-8q0 -48 62.5 -87.5t213.5 -100.5 q100 -40 150 -65q146 -71 198.5 -130t52.5 -140q0 -13 -4 -45q-14 -86 -81 -174q72 -65 72 -159q0 -23 -3 -45q-18 -119 -129 -230.5t-251 -141.5q-43 -9 -73 -9q-91 0 -171.5 42.5t-132 121t-52.5 174.5v8q0 118 46 164q24 24 51 24q24 0 41 -14t20 -37v-1q1 -3 1 -15 q0 -19 -2 -34q-3 -20 -3 -40q0 -63 31 -101q71 -80 171 -80q157 0 275 175q11 16 11 26q0 5 -2 8q-12 29 -153 84q-314 126 -436 230q-113 96 -114 233zM289 670q0 -49 62 -88.5t213 -100.5q113 -46 152 -65l9 -5l10 1q42 43 62 74q10 15 10 26q0 5 -2 8q-9 27 -153 86 q-78 31 -167 72l-84 41q-100 -12 -112 -41v-8z" />
<glyph unicode="&#xa8;" horiz-adv-x="718" d="M90 1361v15q2 22 6 41q10 37 39.5 56t62.5 19q11 0 16 -1q43 -5 72 -38t30 -86q-4 -62 -39 -98t-79 -36h-8q-46 4 -73 39.5t-27 88.5zM402 1361v15q1 16 7 41q10 37 39 56t62 19q12 0 16 -1q43 -5 72.5 -38t30.5 -86q-4 -62 -39.5 -98t-79.5 -36h-7q-45 4 -73 40t-28 88z " />
<glyph unicode="&#xa9;" horiz-adv-x="1402" d="M75 610q0 87 16 174q27 156 122.5 281.5t237 196.5t301.5 71q59 0 104 -8q214 -33 341 -227q94 -144 120 -329q11 -67 11 -144q0 -347 -232 -502q-155 -101 -379 -101q-61 0 -119.5 7t-120 22.5t-116.5 43.5t-103 66t-86 94.5t-61 125.5q-36 102 -36 229zM303 614 q0 -59 7.5 -110t31.5 -107t62.5 -95.5t105 -65t155.5 -25.5q151 0 267 51.5t157 151.5q36 85 36 215q0 31 -3 68q-10 151 -52 245.5t-124 142.5q-83 50 -195 50q-59 0 -112 -10.5t-107 -37t-96 -68.5t-74.5 -110.5t-47.5 -157.5q-11 -67 -11 -137zM357 616q0 49 19 106 q31 90 104.5 168.5t160.5 114.5q68 27 118 27q20 0 32 -3q74 -16 83 -80q2 -12 2 -16q0 -46 -35.5 -69.5t-94.5 -36.5q-40 -11 -61 -23q-69 -44 -106 -122q-15 -28 -15 -55q0 -29 18 -56q27 -47 93 -47q62 0 170 54l14 9q68 42 108 42q26 0 45 -14.5t26 -39.5q8 -21 8 -40 q0 -38 -25 -74q-38 -55 -132 -93t-173 -43q-18 -2 -30 -2q-92 0 -171.5 42t-119.5 112q-38 64 -38 139z" />
<glyph unicode="&#xaa;" horiz-adv-x="687" d="M108 1149v1q0 91 111 217q142 115 213 115h4q50 0 70 -160l3 -26l5 -21q10 -53 21 -72q2 -8 17 -27q28 -38 28 -70q-3 -21 -26 -38t-46 -17q-19 0 -34 12q-26 21 -48 93q-10 34 -24 58l-17 -34q-32 -49 -63.5 -78.5t-87.5 -48.5q-12 -4 -30 -4q-39 0 -66.5 28.5 t-29.5 71.5zM226 1170q15 -6 46.5 24.5t56 74.5t21.5 71q-32 -11 -50 -32q-99 -108 -74 -138z" />
<glyph unicode="&#xab;" horiz-adv-x="1021" d="M90 377q26 38 265 254q51 47 103 47q57 0 68 -39q2 -8 2 -14q0 -21 -15 -47q-26 -42 -77 -92q-56 -53 -67 -66q-16 -22 -16 -39q0 -13 6 -24q16 -30 99 -75q47 -24 71 -61t24 -69q0 -10 -1 -15q-6 -35 -40 -43q-2 0 -8 -0.5t-8 -0.5q-34 0 -84 27q-220 122 -322 257z M468 377q26 39 266 254q50 47 102 47q58 0 69 -39q2 -4 2 -14q0 -21 -15 -47q-26 -43 -78 -92q-39 -37 -68 -66q-14 -22 -14 -39q0 -13 6 -24q16 -31 99 -75q46 -24 70.5 -61t24.5 -69q0 -2 -0.5 -7t-0.5 -8q-6 -36 -41 -43q-2 0 -7.5 -0.5t-8.5 -0.5q-33 0 -84 27 q-219 122 -322 257z" />
<glyph unicode="&#xad;" horiz-adv-x="966" d="M90 375v7q0 28 13 61q13 75 91 81q24 2 65 2q23 0 36 -1h28q34 0 62 2l26 2q18 1 52.5 4t51.5 4l53 4q42 2 91 6l42 4q26 4 32 6q32 6 43 6h11q33 0 52 -10q35 -19 37 -102l1 -9q0 -6 -4 -22q-13 -72 -148 -82q-7 -1 -28 -1q-24 0 -39 1h-13q-48 0 -128 -5q-34 -2 -49 -4 l-217 -14q-29 -3 -36 -4q-25 -3 -47 -3q-46 0 -63 22q-13 19 -15 45z" />
<glyph unicode="&#xae;" horiz-adv-x="1187" d="M75 1198q0 68 12 143q35 196 191.5 325.5t356.5 129.5q45 0 87 -6q178 -27 284 -189q77 -120 98 -273q9 -58 9 -118q0 -289 -193 -415q-127 -86 -314 -86q-78 0 -149.5 14t-143 45.5t-126.5 92.5t-83 146q-29 86 -29 191zM267 1201q0 -48 6.5 -90.5t26 -88.5t50.5 -78 t86 -53t127 -21q166 0 267 70q-12 -7 -30 -7q-46 0 -131 77l-25 20q-25 20 -56 38v-8q0 -29 -1 -43.5t-8 -35t-22 -36.5q-28 -26 -60 -26q-35 0 -55.5 29t-20.5 72q0 24 3 48v25q0 29 -3 39v-4q2 0 -5 9q-22 25 -22 51v5l7 25q15 45 17 99v3q0 3 0.5 7.5t0.5 8.5q2 17 2 47 q0 37 -5 42q-29 22 -29 53v2q1 31 33 56t67 25q16 0 37 -7l12 -3l36 -5h-1q114 -6 181 -30t86 -85q11 -27 11 -63q0 -42 -22 -84q-34 -61 -111 -103q169 -95 169 -168v-2q0 -16 -8 -30q21 24 33 54q30 76 30 175q0 15 -2 59q-16 243 -143 317q-67 41 -160 41 q-306 0 -357 -316q-11 -60 -11 -110zM573 1396l1 -67l1 -38l25 5q75 14 82 49l1 5q0 5 -3 8q-26 34 -107 38z" />
<glyph unicode="&#xaf;" horiz-adv-x="850" d="M90 1261v11q2 32 21 49t74 26l5 1q122 20 230 20q82 0 175 -13l6 -1q91 -12 125.5 -42t34.5 -84l-1 -16q-2 -28 -16.5 -42.5t-36.5 -14.5h-5q-57 -7 -146 -7q-116 0 -273 12q-3 1 -14 1q-12 0 -21 -1h-25q-38 0 -61 3.5t-44.5 20.5t-25.5 49q-2 10 -2 28z" />
<glyph unicode="&#xb0;" horiz-adv-x="801" d="M105 1205q0 162 91 225q52 34 120 34q17 0 23 -1h1q113 -4 195.5 -59.5t121.5 -140t39 -187.5v-12q-2 -133 -69.5 -226.5t-172.5 -93.5q-74 0 -156 51q-93 55 -143 179t-50 231zM276 1150q0 -59 59 -132t112 -73q34 0 58 32v1q29 42 29 94q0 27 -8 60.5t-23.5 68 t-44.5 57.5t-65 23q-33 0 -60 -18.5t-42 -49.5l-1 -1q-14 -33 -14 -62z" />
<glyph unicode="&#xb1;" horiz-adv-x="1042" d="M90 804q0 20 6 42q19 64 136 64q46 0 123 -10q38 -5 47 -5l-1 21q-1 19 -1 58q0 156 51 208q40 41 106 41h5q27 0 45 -20q28 -34 28 -133q0 -40 -7 -128q-2 -10 -3 -22t-1 -13q4 2 12 2q2 0 5 0.5t5 1t3 0.5q104 13 128 13q95 0 139 -45q36 -37 36 -102v-8 q-2 -66 -126 -66h-6q-4 0 -21 1t-31 2q-26 1 -56 1q-58 0 -77 -12q0 -12 7 -63q9 -60 9 -102q0 -34 -6 -54q-23 -77 -123 -107q-12 -4 -26 -4q-29 0 -47 19q-37 38 -37 181q0 20 2 70q1 19 1 41q-44 -2 -68 -2q-184 0 -238 70q-19 28 -19 60zM101 207q0 46 55 81t128 35 q13 0 19 -1q42 0 77 1h78q136 0 229 -14q54 -9 105 -46.5t53 -77.5v-2q0 -34 -35.5 -55.5t-79 -28t-95.5 -6.5q-46 0 -183 15q-124 13 -167 13h-25q-74 0 -116.5 23t-42.5 63z" />
<glyph unicode="&#xb2;" horiz-adv-x="781" d="M108 1174q0 46 56 87q186 131 273 256q14 18 14 28v1q0 21 -29 21q-12 0 -33 -6q-48 -15 -87 -87q-9 -19 -30 -28t-39 -9h-8q-26 3 -42 19.5t-16 37.5q0 10 2 16q19 88 102.5 149.5t174.5 61.5h8q97 0 140 -79q22 -38 22 -81q0 -36 -16 -76q-29 -79 -127 -161 q-89 -76 -118 -102q23 -1 59.5 -2t43.5 -1h2q43 0 81 7q28 5 48 5q13 0 27 -4q17 -1 33.5 -11t21.5 -27q3 -12 3 -23q0 -18 -4 -31q-2 -11 -7.5 -19.5t-11.5 -14.5t-17 -10.5t-18 -7t-22 -4.5t-22 -2.5t-24.5 -2t-23.5 -1.5q-48 -4 -108 -4q-93 0 -207 14q-81 12 -97 67 q-4 10 -4 24z" />
<glyph unicode="&#xb3;" horiz-adv-x="800" d="M72 1265v10q4 23 33 50v-1q12 12 31 12t35 -9t59 -44q53 -42 112.5 -63t104.5 -21q27 0 52.5 8.5t29.5 18.5q0 5 1 5q0 8 -12 23q-35 43 -87 57q-83 24 -118 46l-1 1q-30 22 -30 51q0 31 23 48.5t108 61.5q44 23 63 49l18 30q0 9 -4 14h-8q-14 0 -36 -6q-23 -12 -90 -37 q-58 -25 -85 -25h-3q-22 1 -36.5 18t-14.5 42v2q0 42 55 78.5t120.5 53.5t113.5 17h4q83 0 119 -48l1 -1q18 -28 18 -66q0 -32 -9 -58q-16 -52 -56 -94q-11 -8 -36 -33l-16 -14q67 -33 114.5 -92t47.5 -114q0 -20 -3 -30q-17 -74 -91 -112t-165 -38h-4q-99 0 -203.5 46 t-141.5 117v1q-13 26 -13 46z" />
<glyph unicode="&#xb4;" horiz-adv-x="679" d="M90 1041v3q0 47 55 120l1 1l4 5v-1q120 162 290 281l3 3q45 31 67 31q33 0 65 -44q15 -20 15 -41q0 -20 -11 -40q-19 -29 -60 -69q-10 -8 -27 -25v-1q-185 -217 -296 -305q-11 -12 -27 -12q-18 0 -37 16q-42 36 -42 78z" />
<glyph unicode="&#xb6;" horiz-adv-x="961" d="M90 1201q0 47 22 97q27 60 119.5 106t200.5 67.5t186.5 31.5t113.5 10h3q107 -5 123 -172q3 -36 3 -80l-1 -58q-3 -87 -3 -105v-4q0 -16 3 -82q3 -84 6 -136q5 -175 5 -287v-75q-6 -489 -98 -507q-14 -2 -20 -2q-86 0 -86 146q0 52 13 147l14 108q26 354 26 601 q0 167 -9 312l-131 -25q26 -205 26 -552v-55q-5 -407 -36 -598q-8 -54 -54 -79q-20 -10 -35 -10q-33 0 -63 39q22 121 23 746v1q0 64 -77 98q-126 53 -172.5 92t-81.5 127q-20 52 -20 98z" />
<glyph unicode="&#xb7;" horiz-adv-x="376" d="M72 480v2q1 39 37 67.5t81 28.5q12 0 18 -1q44 0 70.5 -19.5t26.5 -50.5q0 -38 -35.5 -68.5t-85.5 -30.5q-5 0 -19 2q-46 2 -69.5 22t-23.5 48z" />
<glyph unicode="&#xb8;" horiz-adv-x="588" d="M90 -413q0 18 8 27q19 28 115 34q44 2 75 15t31 39v5q-3 16 -20 23.5t-35 7.5q-9 0 -23 -4q-11 -3 -22 -3q-28 0 -55.5 22.5t-37.5 65.5q-3 9 -3 19q0 25 19.5 41.5t68.5 35.5q16 6 20 19q2 4 2 17q0 15 -2 25q-1 8 -1 23q0 35 15.5 50.5t52.5 15.5q2 0 12 -2 q44 -2 70.5 -40t32.5 -96q0 -5 0.5 -13t0.5 -12q0 -32 -10 -64q95 -69 95 -143q0 -17 -5 -40q-21 -69 -105 -120t-168 -51q-109 0 -129 87q-2 6 -2 16z" />
<glyph unicode="&#xb9;" horiz-adv-x="514" d="M99 1422q0 10 2 22q2 14 10.5 27t13.5 18.5t24 21t22 18.5t14 12.5t16.5 15l15.5 15.5t19.5 22.5t19.5 27.5q2 3 10.5 26t18 42.5t31 37t48.5 17.5q31 0 43 -24q2 -7 0 -8l8 -8q2 -36 -20 -200q-20 -169 -21 -227l2 -41l2 -102v-7q-2 -81 -46 -104q-19 -10 -39 -10 q-61 0 -69 92q-2 18 -2 37l1 95q3 15 3 49q0 20 0.5 58t1.5 54l-34 -19q-26 -12 -44 -12q-22 0 -36.5 15.5t-14.5 38.5z" />
<glyph unicode="&#xba;" horiz-adv-x="602" d="M108 1223.5q0 44.5 9 92.5q3 18 9 34q27 90 94.5 132.5t153.5 23.5l9 -2q66 -15 94.5 -74.5t9.5 -143.5q-24 -104 -97.5 -170.5t-160.5 -46.5q-19 3 -34 11q-43 19 -65 59t-22 84.5zM228 1289q-8 -42 2 -73.5t33 -36.5q27 -7 63.5 22.5t52.5 80.5q1 2 2 6.5t2 6.5 q8 44 -4 86q-11 23 -28 26q-24 5 -54 -11.5t-37 -37.5q-24 -27 -31 -66z" />
<glyph unicode="&#xbb;" horiz-adv-x="1020" d="M90 144q0 33 24 69.5t70 60.5q81 43 100 76q5 12 5 23q0 18 -16 40q-7 11 -66 66q-53 50 -78 91q-15 26 -15 47q0 7 2 15q12 39 69 39q51 0 102 -47q240 -215 266 -254q-103 -136 -323 -257q-50 -27 -83 -27q-3 0 -8.5 0.5t-7.5 0.5q-36 8 -40 43q-1 5 -1 14zM468 144 q0 32 24.5 68.5t70.5 61.5q83 44 99 76q6 10 6 23q0 18 -16 40q-17 19 -67 66q-56 54 -77 91q-15 25 -15 47q0 7 2 15q11 39 68 39q52 0 103 -47q243 -219 265 -254q-103 -135 -322 -257q-49 -27 -84 -27q-3 0 -8 0.5t-7 0.5q-36 7 -40 43q-2 10 -2 14z" />
<glyph unicode="&#xbc;" horiz-adv-x="1739" d="M90 1297q0 19 2 30q12 63 102 142q20 17 34 32t22.5 23t17 24.5t10 20t10.5 27t11 28.5q31 84 60.5 120.5t83.5 36.5q20 0 41 -6l17 -6l1 -16q1 -12 1 -40q0 -77 -21 -235q-8 -51 -8 -62q-28 -225 -31 -322q0 -24 2 -48q4 -58 4 -74q0 -23 -4 -51q-11 -70 -54 -92 q-28 -13 -46 -13q-28 0 -47 22q-34 37 -34 157q0 35 3 80q2 15 2 33v18q4 150 5 169q-9 -6 -17 -10q-81 -48 -115 -48q-52 0 -52 60zM94 106q0 27 15 60q58 127 294 395l4 -1q90 104 285 363l132 173l9 12t16 22.5t19 27.5q278 418 416 452q15 3 29 3q37 0 67 -28 q43 -36 43 -74v-5q-3 -66 -127 -177l-30 -29q-132 -125 -311 -364l-36 -48q-52 -71 -79 -103l-64 -82l-113 -144l-17 -19q-55 -68 -90 -124l-19 -32q-134 -220 -254 -333q-57 -51 -102 -51q-27 0 -50.5 20.5t-32.5 56.5q-4 18 -4 29zM780 399q0 17 6 35q20 71 155 177 q27 21 48 40l231 201q2 1 5.5 5t10 11.5t12.5 14.5q102 117 156 117q50 0 66 -68v-7q-2 -27 -18 -75q-16 -45 -17 -66l-2 -36q-8 -88 -8 -138q0 -29 1 -40q17 1 65 8q70 7 85 7q42 0 62 -20q12 -14 12 -30l-1 -8q-3 -26 -41 -71t-74 -53l-121 -27q-6 -9 -6 -38 q0 -51 18 -168q7 -48 7 -56q0 -46 -20 -70.5t-49 -24.5q-39 0 -71.5 40t-36.5 100q-2 17 -2 79q0 79 -7 114q-31 0 -176 -20q-15 -2 -28 -4t-21.5 -3t-10.5 -1l-20 -2q-70 -6 -81 -6q-87 0 -114 39q-15 20 -15 44zM1100 542q93 5 156 14l1 38q0 22 -2 74l-38 -29 q-85 -63 -117 -97z" />
<glyph unicode="&#xbd;" horiz-adv-x="1675" d="M90 1300q0 19 2 30q12 61 102 141q20 17 34 32t22.5 23.5t16.5 24.5t10.5 20.5t10.5 26t11 28.5q31 84 60.5 120.5t83.5 36.5q20 0 41 -6l17 -4l1 -17q1 -12 1 -40q0 -77 -21 -235q-8 -51 -8 -63q-28 -225 -31 -322q0 -23 2 -48q4 -56 4 -73q0 -23 -4 -51 q-11 -71 -54 -93q-28 -13 -46 -13q-28 0 -47 22q-34 37 -34 157q0 35 3 80q2 16 2 33v19q4 150 5 168l-17 -10q-81 -48 -115 -48q-52 0 -52 61zM94 109q0 26 15 59q59 129 294 396l4 -1q99 114 285 363l132 172l44 63q281 421 416 451q15 3 28 3q38 0 68 -27q43 -37 43 -75 v-4q-3 -68 -127 -177q-23 -23 -30 -29q-124 -116 -311 -364l-36 -49q-57 -76 -79 -103q-4 -4 -64 -80q-92 -116 -113 -145l-17 -19q-56 -69 -90 -124l-19 -33q-137 -223 -254 -332q-57 -51 -102 -51q-27 0 -50.5 20t-32.5 56q-4 18 -4 30zM793 20q0 62 75 115 q270 189 405 377q22 32 22 55q0 13 -4 20q-9 18 -42 25q-6 1 -18 1q-22 0 -49 -8q-79 -26 -140 -138q-24 -43 -83 -43q-39 0 -58.5 19.5t-19.5 46.5q0 12 2 18q25 127 141 212t248 85h10q56 0 100 -20.5t69 -53.5t37.5 -69t12.5 -71q0 -51 -23 -109q-46 -118 -232 -271 q-92 -78 -125 -113q103 -11 195 -16h7q16 0 72 8q59 7 84 7q21 0 34 -3q40 -2 58 -24q14 -19 14 -50q0 -17 -5 -42q-17 -73 -188 -86l-11 -1q-72 -6 -151 -6q-146 0 -304 21q-113 14 -131 91q-2 8 -2 23z" />
<glyph unicode="&#xbe;" horiz-adv-x="1953" d="M90 1164q0 12 2 18q8 29 41 57q13 13 36 13q39 0 109 -58l9 -8q139 -110 280 -110q39 0 73.5 13t34.5 31q0 23 -43.5 57.5t-84.5 45.5l-5 2q-175 51 -184 112q-1 3 -1 10q0 20 11 38t35 34.5t41.5 26t50.5 25.5q85 41 111 81l3 29q2 22 3 28h-2q-33 0 -127 -42 q-105 -44 -141 -44q-31 0 -49 18.5t-18 53.5v4q0 55 69 100t152 66.5t148 21.5q105 0 150 -57q26 -37 26 -88q0 -31 -11 -73q-20 -71 -113 -156l-28 -25q94 -46 152.5 -120t58.5 -144q0 -16 -6 -38q-21 -92 -112 -140.5t-213 -48.5h-4q-127 0 -258.5 57t-179.5 149 q-16 35 -16 61zM315 70q0 28 14 59q57 125 294 394l3 -1q104 118 285 361l131 172q3 4 43 62q278 416 415 450q13 3 28 3q38 0 68 -28q43 -36 43 -74v-4q-3 -66 -126 -177q-21 -18 -32 -29q-126 -120 -309 -362l-35 -48l-79 -103q-2 -2 -64 -79l-129 -164q-49 -59 -90 -123 l-20 -32q-135 -221 -252 -332q-57 -51 -101 -51q-28 0 -51.5 20t-31.5 56q-4 12 -4 30zM998 362q0 14 7 35q21 71 153 176q26 19 48 39l230 200q4 4 27 32q105 117 156 117t67 -69v-7q-1 -22 -19 -75q-15 -43 -17 -66l-2 -35q-8 -91 -8 -141q0 -26 1 -37q40 5 65 8 q56 7 84 7q45 0 63 -20q11 -13 11 -29q0 -6 -1 -9q-2 -25 -40.5 -69.5t-74.5 -52.5l-53 -12q-1 0 -23.5 -5.5t-43.5 -10.5q-5 -10 -5 -38q0 -58 17 -167q7 -48 7 -55q0 -46 -19.5 -70t-49.5 -24q-38 0 -70.5 40t-37.5 99q0 6 -0.5 32t-0.5 46q-2 77 -6 113q-40 0 -176 -19 q-15 -2 -28 -4t-21.5 -3t-10.5 -1l-20 -2q-44 -5 -80 -5q-86 0 -114 38q-15 20 -15 44zM1316 503q117 9 158 14v39q0 34 -3 74q-17 -14 -38 -29q-87 -65 -117 -98z" />
<glyph unicode="&#xbf;" horiz-adv-x="978" d="M36 239v6q0 9 1 14q27 253 439 336q30 5 40 6q4 0 23.5 2t27 2.5t24.5 2.5t25.5 4t19.5 5t17.5 7t9.5 9q-35 262 -37 309q0 75 12.5 104.5t63.5 56.5q34 17 61 17h2q38 0 54 -39q4 -11 26 -139q8 -49 43 -167q31 -110 35 -169v-21q0 -45 -6 -70.5t-19 -44t-45.5 -28.5 t-72.5 -17t-113 -17q-31 -4 -47 -6q-364 -50 -364 -110q2 -23 46 -45q182 -92 362 -110h6q38 2 118 36q52 20 77 20q23 0 39 -10q37 -23 39 -70v-4q-1 -46 -42 -91t-110 -62q-45 -10 -123 -11h-34q-87 0 -189 21t-193.5 57.5t-153 94t-62.5 121.5zM590 1370v6q0 3 0.5 8.5 t0.5 7.5q6 43 32 82q28 39 70 46q9 1 25 1h2q38 0 59 -22.5t21 -58.5v-6q0 -9 -1 -14q-6 -50 -38.5 -90.5t-77.5 -49.5h-2q-47 0 -69 26t-22 64z" />
<glyph unicode="&#xc0;" d="M36 116q0 62 89 232q59 111 59 132v1q-2 6 -18 6q-13 0 -36 -4q-25 -3 -38 -3q-28 0 -38 16q-5 8 -5 19t6 25q23 56 55.5 82t97.5 46q111 37 236 357q10 19 21 56q28 81 51 136t52 103.5t62 72.5t72 25q162 0 191 -192q37 -234 92 -402q1 -1 9 -28q10 -37 21 -50 q10 -8 27 -8q9 0 13 1q2 0 26 4q42 8 58 8q47 0 74 -32q15 -17 15 -35q0 -8 -3 -17q-18 -55 -146 -96l7 -19q82 -212 148 -298q8 -11 34 -40q57 -64 75 -102t18 -69q0 -32 -18 -62.5t-51 -30.5q-40 0 -98.5 56t-101 116.5t-65.5 104.5q-7 13 -16.5 33.5t-23.5 51.5t-25 55 q-9 19 -20.5 46.5t-17.5 41t-15.5 32t-16.5 27.5t-18.5 19.5t-24 15t-29 7.5t-38.5 3q-10 0 -41.5 -1.5t-37.5 -1.5q-75 -3 -249 -34q-178 -295 -231 -365q-77 -95 -129 -95q-43 0 -55 35q-3 6 -3 19zM420 1876q0 38 42 75q24 19 47 19q25 0 74 -34l4 -3q173 -123 292 -280 l3 -5q58 -78 58 -126v-1q0 -46 -46 -86q-22 -19 -43 -19t-38 19q-111 88 -294 301q-9 11 -23 24q-47 44 -64 72q-12 22 -12 44zM541 720q38 5 106 22q108 24 139 26q-3 12 -14 72q-42 214 -78 273q-36 -67 -117 -295z" />
<glyph unicode="&#xc1;" d="M36 116q0 62 89 232q59 111 59 132v1q-2 6 -18 6q-13 0 -36 -4q-25 -3 -38 -3q-28 0 -38 16q-5 8 -5 19t6 25q23 56 55.5 82t97.5 46q111 37 236 357q10 19 21 56q28 81 51 136t52 103.5t62 72.5t72 25q162 0 191 -192q37 -234 92 -402q1 -1 9 -28q10 -37 21 -50 q10 -8 27 -8q9 0 13 1q2 0 26 4q42 8 58 8q47 0 74 -32q15 -17 15 -35q0 -8 -3 -17q-18 -55 -146 -96l7 -19q82 -212 148 -298q8 -11 34 -40q57 -64 75 -102t18 -69q0 -32 -18 -62.5t-51 -30.5q-40 0 -98.5 56t-101 116.5t-65.5 104.5q-7 13 -16.5 33.5t-23.5 51.5t-25 55 q-9 19 -20.5 46.5t-17.5 41t-15.5 32t-16.5 27.5t-18.5 19.5t-24 15t-29 7.5t-38.5 3q-10 0 -41.5 -1.5t-37.5 -1.5q-75 -3 -249 -34q-178 -295 -231 -365q-77 -95 -129 -95q-43 0 -55 35q-3 6 -3 19zM393 1519v3q0 47 59 126l4 5q118 158 290 280l4 3q51 34 73 34 q40 0 74 -48q17 -22 17 -46q0 -20 -13 -44q-21 -33 -61 -70q-20 -17 -27 -26q-186 -217 -296 -303q-12 -17 -35 -17q-22 0 -43 19q-46 40 -46 84zM541 720q38 5 106 22q108 24 139 26q-3 12 -14 72q-42 214 -78 273q-36 -67 -117 -295z" />
<glyph unicode="&#xc2;" d="M36 116q0 62 89 232q59 111 59 132v1q-2 6 -18 6q-13 0 -36 -4q-25 -3 -38 -3q-28 0 -38 16q-5 8 -5 19t6 25q23 56 55.5 82t97.5 46q111 37 236 357q10 19 21 56q28 81 51 136t52 103.5t62 72.5t72 25q162 0 191 -192q37 -234 92 -402q1 -1 9 -28q10 -37 21 -50 q10 -8 27 -8q9 0 13 1q2 0 26 4q42 8 58 8q47 0 74 -32q15 -17 15 -35q0 -8 -3 -17q-18 -55 -146 -96l7 -19q82 -212 148 -298q8 -11 34 -40q57 -64 75 -102t18 -69q0 -32 -18 -62.5t-51 -30.5q-40 0 -98.5 56t-101 116.5t-65.5 104.5q-7 13 -16.5 33.5t-23.5 51.5t-25 55 q-9 19 -20.5 46.5t-17.5 41t-15.5 32t-16.5 27.5t-18.5 19.5t-24 15t-29 7.5t-38.5 3q-10 0 -41.5 -1.5t-37.5 -1.5q-75 -3 -249 -34q-178 -295 -231 -365q-77 -95 -129 -95q-43 0 -55 35q-3 6 -3 19zM396 1542q0 37 30 92q120 220 261 328l11 8l11 -7q44 -31 215 -222 q3 -4 42 -47q33 -35 45 -82q5 -20 5 -37q0 -31 -16 -57t-54 -26q-29 0 -56 17q-45 27 -112 100q-55 58 -77 58q-33 0 -83 -96q-25 -48 -66 -76t-80 -28q-40 0 -58 23t-18 52zM541 720q38 5 106 22q108 24 139 26q-3 12 -14 72q-42 214 -78 273q-36 -67 -117 -295z" />
<glyph unicode="&#xc3;" d="M36 116q0 62 89 232q59 111 59 132v1q-2 6 -18 6q-13 0 -36 -4q-25 -3 -38 -3q-28 0 -38 16q-5 8 -5 19t6 25q23 56 55.5 82t97.5 46q111 37 236 357q10 19 21 56q28 81 51 136t52 103.5t62 72.5t72 25q162 0 191 -192q37 -234 92 -402q1 -1 9 -28q10 -37 21 -50 q10 -8 27 -8q9 0 13 1q2 0 26 4q42 8 58 8q47 0 74 -32q15 -17 15 -35q0 -8 -3 -17q-18 -55 -146 -96l7 -19q82 -212 148 -298q8 -11 34 -40q57 -64 75 -102t18 -69q0 -32 -18 -62.5t-51 -30.5q-40 0 -98.5 56t-101 116.5t-65.5 104.5q-7 13 -16.5 33.5t-23.5 51.5t-25 55 q-9 19 -20.5 46.5t-17.5 41t-15.5 32t-16.5 27.5t-18.5 19.5t-24 15t-29 7.5t-38.5 3q-10 0 -41.5 -1.5t-37.5 -1.5q-75 -3 -249 -34q-178 -295 -231 -365q-77 -95 -129 -95q-43 0 -55 35q-3 6 -3 19zM294 1619q0 19 9 38l9 19q44 99 96 153t138 64q6 1 17 1q66 0 169 -55 q62 -34 79 -34q15 0 28 27q42 86 94 86q25 0 42 -17l8 -8q52 -46 52 -91v-6q-5 -63 -78.5 -145t-141.5 -82q-62 0 -167 75q-60 44 -83 47q-7 2 -21 2q-15 0 -22 -7q-5 -4 -22 -36q-31 -61 -55 -89t-59 -28q-54 0 -79 43q-13 20 -13 43zM541 720q38 5 106 22q108 24 139 26 q-3 12 -14 72q-42 214 -78 273q-36 -67 -117 -295z" />
<glyph unicode="&#xc4;" d="M36 116q0 62 89 232q59 111 59 132v1q-2 6 -18 6q-13 0 -36 -4q-25 -3 -38 -3q-28 0 -38 16q-5 8 -5 19t6 25q23 56 55.5 82t97.5 46q111 37 236 357q10 19 21 56q28 81 51 136t52 103.5t62 72.5t72 25q162 0 191 -192q37 -234 92 -402q1 -1 9 -28q10 -37 21 -50 q10 -8 27 -8q9 0 13 1q2 0 26 4q42 8 58 8q47 0 74 -32q15 -17 15 -35q0 -8 -3 -17q-18 -55 -146 -96l7 -19q82 -212 148 -298q8 -11 34 -40q57 -64 75 -102t18 -69q0 -32 -18 -62.5t-51 -30.5q-40 0 -98.5 56t-101 116.5t-65.5 104.5q-7 13 -16.5 33.5t-23.5 51.5t-25 55 q-9 19 -20.5 46.5t-17.5 41t-15.5 32t-16.5 27.5t-18.5 19.5t-24 15t-29 7.5t-38.5 3q-10 0 -41.5 -1.5t-37.5 -1.5q-75 -3 -249 -34q-178 -295 -231 -365q-77 -95 -129 -95q-43 0 -55 35q-3 6 -3 19zM415 1674v16q2 23 6 41q10 37 39 55.5t62 18.5q13 0 17 -1q43 -5 72 -38 t30 -86q-4 -62 -39.5 -98t-79.5 -36h-7q-46 4 -73 39.5t-27 88.5zM541 720q38 5 106 22q108 24 139 26q-3 12 -14 72q-42 214 -78 273q-36 -67 -117 -295zM770 1674q0 11 1 16q0 19 5 41q10 37 39.5 55.5t63.5 18.5q11 0 16 -1q42 -5 71 -38t30 -86q-4 -62 -39 -98t-78 -36 h-8q-46 4 -73.5 39.5t-27.5 88.5z" />
<glyph unicode="&#xc5;" d="M36 116q0 62 89 232q59 111 59 132v1q-2 6 -18 6q-13 0 -36 -4q-25 -3 -38 -3q-28 0 -38 16q-5 8 -5 19t6 25q23 56 55.5 82t97.5 46q111 37 236 357q10 19 21 56q28 81 51 136t52 103.5t62 72.5t72 25q162 0 191 -192q37 -234 92 -402q1 -1 9 -28q10 -37 21 -50 q10 -8 27 -8q9 0 13 1q2 0 26 4q42 8 58 8q47 0 74 -32q15 -17 15 -35q0 -8 -3 -17q-18 -55 -146 -96l7 -19q82 -212 148 -298q8 -11 34 -40q57 -64 75 -102t18 -69q0 -32 -18 -62.5t-51 -30.5q-40 0 -98.5 56t-101 116.5t-65.5 104.5q-7 13 -16.5 33.5t-23.5 51.5t-25 55 q-9 19 -20.5 46.5t-17.5 41t-15.5 32t-16.5 27.5t-18.5 19.5t-24 15t-29 7.5t-38.5 3q-10 0 -41.5 -1.5t-37.5 -1.5q-75 -3 -249 -34q-178 -295 -231 -365q-77 -95 -129 -95q-43 0 -55 35q-3 6 -3 19zM372 1693q0 27 11 62q2 10 6 18q33 92 103.5 142t165.5 50q60 0 116 -19 q92 -31 141.5 -91.5t49.5 -122.5q0 -23 -9 -54q-24 -71 -94.5 -123t-198.5 -52q-126 0 -208.5 54t-82.5 136zM541 720q38 5 106 22q108 24 139 26q-3 12 -14 72q-42 214 -78 273q-36 -67 -117 -295zM559 1738q0 -28 26.5 -51.5t63.5 -23.5q31 0 76 19.5t54 47.5q1 3 1 9 q0 12 -9 21q-33 43 -115 43h-12q-69 -5 -81 -46q-4 -9 -4 -19z" />
<glyph unicode="&#xc6;" horiz-adv-x="1982" d="M36 425q2 30 87 55q17 6 57 15q116 21 148 53q87 87 206 331q16 35 27 56q20 41 47 126q49 151 92 200q32 37 68 37q37 0 101 -58q56 -50 83 -50q24 7 74 51q59 52 95 52q5 0 28 -5q23 -9 52 -34q31 -26 62 -26h7q73 8 180 42l23 7q98 33 151 33q49 0 81 -26 q10 -14 10 -34q0 -10 -3 -19q-10 -34 -51.5 -68.5t-80.5 -50.5q-81 -32 -242 -48q-19 -2 -47.5 -3.5t-43.5 -2.5t-36 -5t-31.5 -11t-23.5 -21.5t-19 -35.5t-10 -53t-4 -75q0 -29 1 -43v-12l20 5q313 79 465 79q149 0 150 -38v-1q0 -32 -83.5 -86.5t-130.5 -61.5 q-147 -24 -292 -40q-5 -1 -18.5 -4l-22.5 -5q-49 -10 -56 -23q-6 -8 -6 -21q0 -15 8 -50q26 -107 58 -202.5t53 -127.5q24 -40 69 -40q9 0 20 1.5t25.5 6t26.5 8t30.5 11t30 12t33 14t31 13.5t32.5 14.5t30 13.5q266 122 408 122q49 0 101 -11q9 -4 13 -16q7 -21 7 -52 q0 -27 -7 -38q-39 -10 -98 -25.5t-76.5 -19.5t-58 -16.5t-47 -14t-38.5 -16t-37 -17.5t-38.5 -23t-46.5 -29t-58 -39q-234 -156 -349 -156q-40 0 -73 18t-57.5 47.5t-47 79.5t-39 101.5t-36.5 126.5q-4 19 -11 42t-7 24q-25 57 -48 76.5t-65 19.5q-4 0 -60 -4l-21 -1 q-18 -2 -51 -2q-208 -6 -247 -54q-24 -26 -71 -125q-62 -130 -107 -186t-105 -56q-29 0 -52.5 11t-30.5 31q-1 3 -1 16q0 45 43 131q34 67 34 91q0 11 -11 16q-4 2 -43 17q-54 16 -95 37q-34 18 -34 39zM603 642l10 -11q30 3 130 24q104 26 154 27l10 10q-3 9 -7 35 q-43 176 -97 241l-17 -1q-128 -201 -183 -325z" />
<glyph unicode="&#xc7;" horiz-adv-x="1379" d="M36 522q0 83 22 165q46 181 167.5 339.5t278 250.5t304.5 92q12 0 17 -1h1q45 -4 81.5 -26t47.5 -57q3 -11 3 -22q0 -69 -139 -127l-53 -22q-106 -43 -185.5 -88.5t-134 -94.5t-89.5 -94.5t-67 -103.5q-60 -108 -60 -202q0 -9 2 -33q14 -124 138 -200.5t285 -76.5 q248 0 442 143q6 3 32 29q383 363 467 363q29 0 29 -53q0 -70 -73 -176.5t-194 -214t-252 -179.5q-116 -63 -218 -91q15 -36 19 -79v1q0 -5 0.5 -15.5t0.5 -14.5q0 -42 -11 -72q108 -71 108 -160q0 -18 -7 -42q-23 -76 -113 -131.5t-182 -55.5q-115 0 -136 93h-1q-1 5 -1 15 q0 15 7 27q20 28 121 35q51 2 90.5 18.5t39.5 48.5v6q-3 21 -25.5 31t-44.5 10q-20 0 -32 -4h1q-12 -3 -22 -3q-28 0 -56 24t-38 69h-1q-2 7 -2 20q0 28 19 44t73 36q32 12 32 49q0 10 -3 20q-38 -5 -90 -5q-129 0 -246.5 41t-210.5 130.5t-126 214.5q-15 61 -15 129z" />
<glyph unicode="&#xc8;" horiz-adv-x="1071" d="M36 1220v9q3 27 19 51q29 52 141 87q61 20 92 37q59 41 98 41q4 0 6 -1q40 -3 93 -55q21 -19 59 -22q3 0 12 -0.5t14 -0.5q54 0 160 24q104 23 147 23q9 0 13 -1h5q63 -7 74 -51q2 -8 2 -14q0 -8 -1 -9q-1 -15 -11 -33q-20 -37 -50 -56q-80 -57 -245 -57q-31 0 -79 5 q-58 4 -78 4q-103 0 -127 -41q-22 -45 -33 -137q-4 -24 -5 -46q0 -13 -3 -26l22 -3q229 31 415 32h24q14 1 38 1q23 0 47 -2q54 -7 74 -34q11 -13 11 -29v-4l-3 -12q-11 -31 -56.5 -62t-82.5 -39q-80 -20 -236 -20h-41q-3 0 -37 2q-9 0 -24.5 0.5t-21.5 0.5 q-27 0 -43.5 -1.5t-41 -12.5t-37.5 -32q-30 -54 -42 -165l-2 -13q-3 -42 -3 -77q0 -82 22.5 -133t62.5 -61q15 -3 41 -3q84 0 249 61q48 18 66 25q186 65 323 65q52 0 102 -12q30 -5 44 -49q5 -17 5 -30v-7q-2 -17 -10 -25q-21 -31 -179 -42q-30 -2 -62 -5 q-153 -29 -350 -137l-9 -5q-169 -92 -263 -92h-20q-146 17 -185 288q-9 73 -9 169v65q4 99 9 147q-61 9 -83 44q-9 18 -9 31q0 6 1 8q0 6 6 28q8 18 42 65q5 6 10.5 13.5t8.5 11t4 4.5q27 46 40 152q3 27 12 77l-10 9q-8 0 -24 2q-74 9 -92 48q-6 11 -6 27zM205 1879 q0 35 40 68q17 17 39 17q21 0 68 -33l4 -2q171 -123 289 -278l3 -6q56 -73 58 -120v-1q0 -44 -43 -80q-20 -17 -37 -17q-15 0 -30 16q-107 84 -293 301q-6 7 -25 25q-45 42 -62 70q-11 20 -11 40z" />
<glyph unicode="&#xc9;" horiz-adv-x="1071" d="M36 1220v9q3 27 19 51q29 52 141 87q61 20 92 37q59 41 98 41q4 0 6 -1q40 -3 93 -55q21 -19 59 -22q3 0 12 -0.5t14 -0.5q54 0 160 24q104 23 147 23q9 0 13 -1h5q63 -7 74 -51q2 -8 2 -14q0 -8 -1 -9q-1 -15 -11 -33q-20 -37 -50 -56q-80 -57 -245 -57q-31 0 -79 5 q-58 4 -78 4q-103 0 -127 -41q-22 -45 -33 -137q-4 -24 -5 -46q0 -13 -3 -26l22 -3q229 31 415 32h24q14 1 38 1q23 0 47 -2q54 -7 74 -34q11 -13 11 -29v-4l-3 -12q-11 -31 -56.5 -62t-82.5 -39q-80 -20 -236 -20h-41q-3 0 -37 2q-9 0 -24.5 0.5t-21.5 0.5 q-27 0 -43.5 -1.5t-41 -12.5t-37.5 -32q-30 -54 -42 -165l-2 -13q-3 -42 -3 -77q0 -82 22.5 -133t62.5 -61q15 -3 41 -3q84 0 249 61q48 18 66 25q186 65 323 65q52 0 102 -12q30 -5 44 -49q5 -17 5 -30v-7q-2 -17 -10 -25q-21 -31 -179 -42q-30 -2 -62 -5 q-153 -29 -350 -137l-9 -5q-169 -92 -263 -92h-20q-146 17 -185 288q-9 73 -9 169v65q4 99 9 147q-61 9 -83 44q-9 18 -9 31q0 6 1 8q0 6 6 28q8 18 42 65q5 6 10.5 13.5t8.5 11t4 4.5q27 46 40 152q3 27 12 77l-10 9q-8 0 -24 2q-74 9 -92 48q-6 11 -6 27zM480 1522v3 q2 47 59 121l2 4q120 160 288 280l4 1h1q46 33 67 33q35 0 66 -45q14 -17 14 -40q0 -21 -10 -40q-22 -32 -61 -69q-5 -4 -27 -26q-182 -214 -296 -304q-10 -13 -27 -13q-19 0 -37 17q-43 36 -43 78z" />
<glyph unicode="&#xca;" horiz-adv-x="1071" d="M36 1220v9q3 27 19 51q29 52 141 87q61 20 92 37q59 41 98 41q4 0 6 -1q40 -3 93 -55q21 -19 59 -22q3 0 12 -0.5t14 -0.5q54 0 160 24q104 23 147 23q9 0 13 -1h5q63 -7 74 -51q2 -8 2 -14q0 -8 -1 -9q-1 -15 -11 -33q-20 -37 -50 -56q-80 -57 -245 -57q-31 0 -79 5 q-58 4 -78 4q-103 0 -127 -41q-22 -45 -33 -137q-4 -24 -5 -46q0 -13 -3 -26l22 -3q229 31 415 32h24q14 1 38 1q23 0 47 -2q54 -7 74 -34q11 -13 11 -29v-4l-3 -12q-11 -31 -56.5 -62t-82.5 -39q-80 -20 -236 -20h-41q-3 0 -37 2q-9 0 -24.5 0.5t-21.5 0.5 q-27 0 -43.5 -1.5t-41 -12.5t-37.5 -32q-30 -54 -42 -165l-2 -13q-3 -42 -3 -77q0 -82 22.5 -133t62.5 -61q15 -3 41 -3q84 0 249 61q48 18 66 25q186 65 323 65q52 0 102 -12q30 -5 44 -49q5 -17 5 -30v-7q-2 -17 -10 -25q-21 -31 -179 -42q-30 -2 -62 -5 q-153 -29 -350 -137l-9 -5q-169 -92 -263 -92h-20q-146 17 -185 288q-9 73 -9 169v65q4 99 9 147q-61 9 -83 44q-9 18 -9 31q0 6 1 8q0 6 6 28q8 18 42 65q5 6 10.5 13.5t8.5 11t4 4.5q27 46 40 152q3 27 12 77l-10 9q-8 0 -24 2q-74 9 -92 48q-6 11 -6 27zM219 1540 q0 32 29 87q120 221 258 326l5 3l3 -3q44 -29 215 -220l42 -47q33 -42 42 -78q5 -20 5 -36q0 -29 -13 -52t-46 -23q-23 0 -52 16q-41 26 -109 98q-55 61 -84 61q-39 0 -92 -99q-25 -48 -62.5 -74t-75.5 -26q-35 0 -50 19.5t-15 47.5z" />
<glyph unicode="&#xcb;" horiz-adv-x="1071" d="M36 1220v9q3 27 19 51q29 52 141 87q61 20 92 37q59 41 98 41q4 0 6 -1q40 -3 93 -55q21 -19 59 -22q3 0 12 -0.5t14 -0.5q54 0 160 24q104 23 147 23q9 0 13 -1h5q63 -7 74 -51q2 -8 2 -14q0 -8 -1 -9q-1 -15 -11 -33q-20 -37 -50 -56q-80 -57 -245 -57q-31 0 -79 5 q-58 4 -78 4q-103 0 -127 -41q-22 -45 -33 -137q-4 -24 -5 -46q0 -13 -3 -26l22 -3q229 31 415 32h24q14 1 38 1q23 0 47 -2q54 -7 74 -34q11 -13 11 -29v-4l-3 -12q-11 -31 -56.5 -62t-82.5 -39q-80 -20 -236 -20h-41q-3 0 -37 2q-9 0 -24.5 0.5t-21.5 0.5 q-27 0 -43.5 -1.5t-41 -12.5t-37.5 -32q-30 -54 -42 -165l-2 -13q-3 -42 -3 -77q0 -82 22.5 -133t62.5 -61q15 -3 41 -3q84 0 249 61q48 18 66 25q186 65 323 65q52 0 102 -12q30 -5 44 -49q5 -17 5 -30v-7q-2 -17 -10 -25q-21 -31 -179 -42q-30 -2 -62 -5 q-153 -29 -350 -137l-9 -5q-169 -92 -263 -92h-20q-146 17 -185 288q-9 73 -9 169v65q4 99 9 147q-61 9 -83 44q-9 18 -9 31q0 6 1 8q0 6 6 28q8 18 42 65q5 6 10.5 13.5t8.5 11t4 4.5q27 46 40 152q3 27 12 77l-10 9q-8 0 -24 2q-74 9 -92 48q-6 11 -6 27zM225 1700 q0 10 1 15q1 15 5 40q9 35 35.5 52t57.5 17q10 0 15 -1q38 -4 65 -35.5t27 -80.5q-4 -58 -35.5 -92t-71.5 -34h-7q-41 3 -66.5 37t-25.5 82zM604 1700v15q2 21 6 40q9 35 35.5 52t56.5 17q11 0 16 -1q38 -4 64.5 -35.5t27.5 -79.5q-4 -59 -36.5 -93t-72.5 -34h-6 q-40 3 -65.5 37t-25.5 82z" />
<glyph unicode="&#xcc;" horiz-adv-x="394" d="M-63 1876q0 40 43 75q24 19 46 19q23 0 74 -34l4 -3q171 -121 291 -280l3 -5q58 -76 60 -126v-1q0 -46 -47 -86q-22 -19 -43 -19q-19 0 -38 19q-108 85 -293 301q-3 4 -25 24q-46 43 -62 72q-13 22 -13 44zM26 1239q0 184 51 241q27 31 74 31h4q61 0 86.5 -29t25.5 -92 q0 -50 -9 -96l-6 -39q-12 -85 -12 -230q0 -120 7 -253q7 -161 8 -202q0 -37 1 -62q0 -140 9 -207l5 -33q14 -84 14 -134q0 -24 -3 -42q-6 -41 -33.5 -64.5t-63.5 -23.5q-35 0 -64 21.5t-39 55.5q-19 71 -19 176q0 13 1.5 37.5t1.5 29.5l1 41q1 20 1 69q0 127 -15 425l-3 65 q-3 33 -7 70q-16 137 -16 245z" />
<glyph unicode="&#xcd;" horiz-adv-x="373" d="M-84 1516v3q2 49 58 125l4 5q118 157 291 280l4 3q47 34 74 34q38 0 74 -48q16 -22 16 -46q0 -23 -13 -43q-15 -27 -62 -71q-20 -18 -26 -26q-188 -219 -295 -304q-13 -15 -36 -15t-42 18q-47 40 -47 85zM94 1235q0 185 50 241q28 32 74 32h5q60 0 86.5 -30t26.5 -93 q0 -42 -10 -95l-7 -38q-12 -87 -12 -231q0 -119 7 -253q1 -33 3.5 -79t4 -74.5t1.5 -47.5q0 -37 1 -63q0 -138 9 -206l5 -34q13 -77 13 -134q0 -24 -3 -42q-6 -41 -33.5 -64.5t-62.5 -23.5t-63 21.5t-39 56.5q-20 67 -20 176q0 19 2 67l1 39q1 20 1 70q0 148 -14 425l-3 66 q-6 60 -7 69q-16 152 -16 245z" />
<glyph unicode="&#xce;" horiz-adv-x="476" d="M-72 1547q0 37 30 92q121 221 261 328l11 7l11 -7q46 -33 215 -221q3 -4 42 -47q33 -35 45 -82q5 -20 5 -37q0 -31 -16 -57t-54 -26q-29 0 -56 17q-47 28 -113 100q-54 58 -76 58q-32 0 -82 -96q-25 -48 -66.5 -75.5t-80.5 -27.5q-41 0 -58.5 22.5t-17.5 51.5zM96 1232 q0 183 50 241q27 31 74 31h5q60 0 86.5 -29.5t26.5 -92.5q0 -41 -9 -95q-4 -18 -7 -39q-13 -106 -13 -230q0 -87 7 -253q8 -137 9 -202q0 -37 1 -62q0 -143 10 -207l5 -33q12 -81 12 -134q0 -24 -3 -42q-6 -41 -33.5 -65t-62.5 -24t-63 21.5t-39 56.5q-20 68 -20 176 q0 18 2 66l1 41q1 20 1 70q0 147 -14 425l-3 64q0 6 -7 71q-16 150 -16 245z" />
<glyph unicode="&#xcf;" horiz-adv-x="451" d="M-72 1714q0 12 1 17q0 6 5 41q10 37 39.5 55t63.5 18h16q43 -5 72 -38.5t30 -85.5q-4 -62 -39 -98t-79 -36h-7q-46 4 -74 39.5t-28 87.5zM79 1235q0 184 51 241q28 32 73 32h5q61 0 87 -29.5t26 -93.5q0 -33 -10 -95q-6 -26 -6 -38q-12 -87 -12 -231q0 -119 7 -253 q7 -158 7 -201q0 -37 1 -63q0 -131 10 -206l6 -34q12 -79 12 -134q0 -30 -2 -42q-6 -41 -34 -64.5t-63 -23.5t-64 22t-39 56q-18 60 -18 176q0 43 1 67l2 39v70q0 128 -15 425l-3 66q0 19 -7 69q-15 143 -15 245zM307 1714v17q2 20 6 41q10 37 39.5 55t63.5 18h15 q43 -6 72.5 -39t30.5 -85q-4 -62 -39.5 -98t-79.5 -36h-7q-46 4 -73.5 39.5t-27.5 87.5z" />
<glyph unicode="&#xd0;" horiz-adv-x="1414" d="M-94 1232v6q7 98 111 98q47 0 160 -29q19 -6 42 -11.5t27 -6.5l20 11q2 58 37 98t86 40h6q35 0 60 -30.5t25 -84.5v-5q-2 -26 -5 -37l-2 -13l3 -7v-1q9 -12 30 -23q45 -29 150 -67q150 -49 421 -194l62 -33q224 -117 284 -233q24 -57 24 -98q0 -59 -33 -118 q-59 -105 -163 -171q-176 -119 -480 -194q-26 -7 -91 -24l-45 -11v-14q2 -14 2 -17q0 -16 -7 -19q-42 -29 -79 -29q-18 0 -74 18q-45 15 -79 18q-3 0 -9 0.5t-16 1t-18 0.5q-164 4 -205 57q-16 21 -16 49q0 19 7 39q8 32 35 46t80 14q29 0 81 -7h6q5 -1 9 -1l5 2l14 11 q-8 70 -22.5 186t-19.5 155h-237q-26 0 -40 -2h-20q-31 0 -45.5 4.5t-22.5 19.5q-11 22 -11 48q0 22 2.5 37t11 32t28 25.5t50.5 8.5q35 0 99 -7q68 -5 93 -5h53l16 13q-1 3 -3 76q0 204 -38 218h-1q-29 12 -107 23q-136 21 -193.5 49t-57.5 88zM396 35l2 16l-1 -16h-1z M458 1013q0 -104 16 -247h27q8 0 13 1l39 1q8 0 36 4h1q25 5 40 5q34 0 55 -18.5t21 -57.5q0 -14 -5 -32q-16 -75 -136 -75q-17 0 -54 3l-13 -12l-2 -6l1 -9q0 -8 1 -12q0 -3 0.5 -9t1 -16t1.5 -20q12 -209 60 -239q287 52 441 124l21 9q199 86 205 172v7q0 135 -313 282 l-55 28q-240 120 -352 120q-10 0 -26.5 -1.5t-23.5 -1.5zM480 1316v2l17 -1v-1h-17z" />
<glyph unicode="&#xd1;" horiz-adv-x="984" d="M36 981q0 191 15 286q10 65 38.5 102.5t66.5 37.5q77 0 132 -127q246 -568 451 -925l20 3v42q0 243 -25 684q-2 16 -2 31q-7 100 -7 158q0 210 54 269q26 27 58 27q37 0 62 -28q43 -48 43 -203q0 -71 -9 -161l-3 -31v1q-15 -188 -15 -365q0 -164 13 -387q2 -23 9 -76 q11 -79 11 -130q0 -82 -30.5 -129.5t-87.5 -47.5q-97 0 -181 128q-93 138 -281 536q-60 127 -112 229l-19 -3q-4 -222 -4 -312q0 -209 9 -438v-5q0 -53 -38 -96.5t-73 -43.5q-37 0 -64 48q-25 47 -28 153l-1 22q0 91 -1 187v485q-1 28 -1 79zM66 1635q0 17 9 36l-1 -1 q3 4 9 20q44 99 93.5 151.5t132.5 61.5h1q4 1 16 1q61 0 162 -55q60 -34 85 -34q24 0 36 30q42 82 86 82q20 0 34 -15l1 -1l9 -7l-1 1q48 -43 48 -86v-7q-4 -59 -74.5 -139.5t-134.5 -80.5q-57 0 -161 74q-60 43 -86 48q-11 3 -24 3q-17 0 -28 -9h-2q-4 -4 -24 -38 q-30 -60 -52 -87t-53 -27q-45 0 -69 39q-12 22 -12 40z" />
<glyph unicode="&#xd2;" horiz-adv-x="970" d="M36 759q0 395 160 560q111 115 296 115q74 0 138 -33t110 -91t82.5 -128.5t61 -153.5t40 -157t23.5 -149q9 -83 9 -155q0 -133 -30 -238.5t-82 -172.5t-119 -104t-145 -43q-6 0 -18.5 -0.5t-19.5 -0.5q-148 0 -263 95.5t-175.5 250t-66.5 341.5q-1 22 -1 64zM233 860 q0 -86 19 -209q64 -426 267 -441q7 -1 22 -1q98 0 158 78.5t68 241.5v43q0 107 -19 205q-57 275 -160 393q-33 40 -70 57q-23 13 -43 13q-19 0 -30.5 -9.5t-27.5 -35.5q-31 -45 -56 -45q-5 0 -25 5q-103 -76 -103 -295zM298 1865q0 31 33 61h2q19 18 34 18q18 0 61 -31l4 -4 q170 -120 287 -275l-1 -1l6 -9h1q52 -70 52 -113v-2q0 -41 -39 -74q-18 -14 -29 -14q-10 0 -22 13q-112 87 -296 305h-1l-22 22q-41 37 -60 68q-10 18 -10 36zM719 1634l8 12h1l-8 -14z" />
<glyph unicode="&#xd3;" horiz-adv-x="970" d="M36 759q0 395 160 560q111 115 296 115q74 0 138 -33t110 -91t82.5 -128.5t61 -153.5t40 -157t23.5 -149q9 -83 9 -155q0 -133 -30 -238.5t-82 -172.5t-119 -104t-145 -43q-6 0 -18.5 -0.5t-19.5 -0.5q-148 0 -263 95.5t-175.5 250t-66.5 341.5q-1 22 -1 64zM118 1519v3 q0 44 54 116l4 6q120 159 290 279l2 2q44 30 60 30q27 0 58 -42q12 -15 12 -37q0 -17 -11 -36q-14 -25 -58 -66l-28 -28q-183 -216 -295 -304q-9 -10 -20 -10q-13 0 -28 14q-40 33 -40 73zM233 860q0 -86 19 -209q64 -426 267 -441q7 -1 22 -1q98 0 158 78.5t68 241.5v43 q0 107 -19 205q-57 275 -160 393q-33 40 -70 57q-23 13 -43 13q-19 0 -30.5 -9.5t-27.5 -35.5q-31 -45 -56 -45q-5 0 -25 5q-103 -76 -103 -295z" />
<glyph unicode="&#xd4;" horiz-adv-x="970" d="M36 759q0 395 160 560q111 115 296 115q74 0 138 -33t110 -91t82.5 -128.5t61 -153.5t40 -157t23.5 -149q9 -83 9 -155q0 -133 -30 -238.5t-82 -172.5t-119 -104t-145 -43q-6 0 -18.5 -0.5t-19.5 -0.5q-148 0 -263 95.5t-175.5 250t-66.5 341.5q-1 22 -1 64zM141 1532 q0 32 28 85q117 215 253 319l-2 2l2 -1l1 1h1l-2 -2q44 -29 212 -217q8 -10 22 -25.5t18 -20.5q31 -37 41 -76q5 -18 5 -33q0 -68 -49 -68q-21 0 -46 16q-41 25 -109 96q-56 64 -90 64q-45 0 -101 -104q-24 -47 -59 -72t-70 -25q-55 0 -55 61zM233 860q0 -86 19 -209 q64 -426 267 -441q7 -1 22 -1q98 0 158 78.5t68 241.5v43q0 107 -19 205q-57 275 -160 393q-33 40 -70 57q-23 13 -43 13q-19 0 -30.5 -9.5t-27.5 -35.5q-31 -45 -56 -45q-5 0 -25 5q-103 -76 -103 -295zM674 1674l8 13h1l-7 -15z" />
<glyph unicode="&#xd5;" horiz-adv-x="970" d="M36 759q0 395 160 560q111 115 296 115q74 0 138 -33t110 -91t82.5 -128.5t61 -153.5t40 -157t23.5 -149q9 -83 9 -155q0 -133 -30 -238.5t-82 -172.5t-119 -104t-145 -43q-6 0 -18.5 -0.5t-19.5 -0.5q-148 0 -263 95.5t-175.5 250t-66.5 341.5q-1 22 -1 64zM106 1659v1 l21 -2l-1 -2zM111 1605q0 14 7 30q9 22 9 23q44 97 91 147t126 59h1q5 1 14 1q58 0 159 -54q62 -35 89 -35q30 0 46 35q39 77 76 77q15 0 28 -13l7 6v-12l1 -1q46 -39 46 -80v-4q-5 -57 -73.5 -135.5t-126.5 -78.5q-55 0 -154 72q-63 44 -91 50q-9 2 -26 2q-25 0 -37 -12 q-4 -4 -25 -40q-30 -60 -50 -84t-47 -24q-39 0 -60 35q-10 18 -10 36zM233 860q0 -86 19 -209q64 -426 267 -441q7 -1 22 -1q98 0 158 78.5t68 241.5v43q0 107 -19 205q-57 275 -160 393q-33 40 -70 57q-23 13 -43 13q-19 0 -30.5 -9.5t-27.5 -35.5q-31 -45 -56 -45 q-5 0 -25 5q-103 -76 -103 -295zM811 1782v2l20 -1v-1h-20z" />
<glyph unicode="&#xd6;" horiz-adv-x="970" d="M36 759q0 395 160 560q111 115 296 115q74 0 138 -33t110 -91t82.5 -128.5t61 -153.5t40 -157t23.5 -149q9 -83 9 -155q0 -133 -30 -238.5t-82 -172.5t-119 -104t-145 -43q-6 0 -18.5 -0.5t-19.5 -0.5q-148 0 -263 95.5t-175.5 250t-66.5 341.5q-1 22 -1 64zM162 1763 l10 -1q2 21 6 39q16 63 81 63h14q34 -4 58.5 -34t25.5 -74q-4 -55 -33.5 -87.5t-64.5 -32.5h-5q-36 2 -59.5 34.5t-23.5 77.5q0 10 1 13zM233 860q0 -86 19 -209q64 -426 267 -441q7 -1 22 -1q98 0 158 78.5t68 241.5v43q0 107 -19 205q-57 275 -160 393q-33 40 -70 57 q-23 13 -43 13q-19 0 -30.5 -9.5t-27.5 -35.5q-31 -45 -56 -45q-5 0 -25 5q-103 -76 -103 -295zM252 1620v16h2l-1 -16h-1zM357 1756l11 -1zM550 1748q0 11 1 15q0 18 5 38q16 63 82 63h14q34 -4 58 -34t25 -74q-4 -55 -33 -87.5t-64 -32.5h-5q-36 2 -59.5 34.5t-23.5 77.5z M631 1620v16h2l-1 -16h-1zM735 1756l10 -1z" />
<glyph unicode="&#xd7;" horiz-adv-x="960" d="M90 266q0 25 14 56q8 21 65 76q45 42 64 69q19 25 19 44q0 9 -5 17q-32 41 -55 95t-23 93q0 25 10 47q22 49 88 49q52 0 81 -32q18 -23 33 -62q26 -64 51 -69q3 -1 9 -1q48 0 139 97q118 123 189 123h13q72 0 86 -41q2 -10 2 -15q0 -49 -76 -128.5t-188 -164.5 q9 -6 40 -26q87 -55 123 -95.5t36 -84.5q0 -15 -5 -33q-17 -52 -76 -52q-67 0 -169 64q-92 58 -131 58q-40 0 -135 -77q-70 -58 -145 -58q-54 0 -54 51z" />
<glyph unicode="&#xd8;" horiz-adv-x="1254" d="M36 -51q0 29 12 54q45 106 260 375q-61 152 -66 337q-1 23 -1 66q0 394 158 558q112 115 297 115q155 0 266 -151h16q127 157 204 176q13 4 28 4q31 0 65 -25q43 -37 43 -75v-3q-1 -67 -121 -179q-28 -26 -32 -31l1 1q-48 -48 -91 -97q58 -164 77 -333q9 -78 9 -153 q0 -134 -30 -240.5t-82.5 -173.5t-120 -104t-145.5 -42h1q-7 0 -20 -0.5t-18 -0.5q-183 0 -313 142l-15 -1q-145 -216 -200 -271q-55 -54 -96 -55h-2q-25 0 -47.5 19t-31.5 54h-1q-4 13 -4 34zM437 880q0 -84 19 -209q3 -19 11 -66l18 -3q59 78 125 174l127 176q19 26 42 65 q13 20 34.5 53t30.5 46q-56 95 -121 129q-23 13 -44 13q-18 0 -30.5 -10t-28.5 -34q-28 -47 -55 -47q-6 0 -24 8q-104 -77 -104 -295zM548 362q71 -125 176 -132h-1q7 -1 21 -1q99 0 160 79t67 241q1 16 1 47q0 95 -21 200q-3 19 -15 71l-18 2q-43 -58 -52 -70l-35 -50 q-15 -20 -39.5 -55t-36.5 -50l-62 -82q-27 -37 -55 -74.5t-40 -53.5l-15 -20l-15 -20l-18 -23z" />
<glyph unicode="&#xd9;" horiz-adv-x="1038" d="M36 790q0 186 37 392q0 1 4 23q12 93 38.5 125.5t84.5 32.5q77 0 98 -44q11 -20 11 -53q0 -42 -18 -100q-8 -26 -12 -45q-20 -105 -20 -231q0 -50 1 -76l1 -36q4 -89 9.5 -154t17 -131.5t29.5 -112.5t46.5 -83t66.5 -56q63 -30 111 -30q58 0 104.5 42t74 109.5t42 141.5 t15.5 147q1 16 1 50q0 257 -54 432l-7 23q-33 102 -41 163q-3 27 -3 51q0 139 127 139q18 0 27 -1l8 -1l5 -5q106 -127 145 -460q17 -138 17 -259q0 -85 -6.5 -167.5t-27 -181t-53 -176.5t-89.5 -143t-131 -93q-60 -22 -123 -22q-140 0 -276 91t-182 216q-78 213 -78 483z M122 1875q0 40 43 75q22 19 47 19t74 -34l4 -3q171 -121 291 -280l4 -5q57 -76 58 -126v-1q0 -46 -47 -86q-21 -18 -43 -18q-21 0 -38 19q-108 85 -293 301l-5 5l-9 9l-10 10q-48 44 -63 72q-13 20 -13 43z" />
<glyph unicode="&#xda;" horiz-adv-x="1038" d="M36 790q0 186 37 392q0 1 4 23q12 93 38.5 125.5t84.5 32.5q77 0 98 -44q11 -20 11 -53q0 -42 -18 -100q-8 -26 -12 -45q-20 -105 -20 -231q0 -50 1 -76l1 -36q4 -89 9.5 -154t17 -131.5t29.5 -112.5t46.5 -83t66.5 -56q63 -30 111 -30q58 0 104.5 42t74 109.5t42 141.5 t15.5 147q1 16 1 50q0 257 -54 432l-7 23q-33 102 -41 163q-3 27 -3 51q0 139 127 139q18 0 27 -1l8 -1l5 -5q106 -127 145 -460q17 -138 17 -259q0 -85 -6.5 -167.5t-27 -181t-53 -176.5t-89.5 -143t-131 -93q-60 -22 -123 -22q-140 0 -276 91t-182 216q-78 213 -78 483z M173 1534v5q3 46 63 123l4 5q125 153 302 269l4 2q47 32 72 32h3q39 -2 71 -50q15 -23 15 -44t-15 -46q-17 -29 -63 -68q-21 -18 -28 -25q-191 -206 -306 -292q-13 -14 -35 -14h-2q-19 0 -42 18q-43 42 -43 85z" />
<glyph unicode="&#xdb;" horiz-adv-x="1038" d="M36 790q0 186 37 392q0 1 4 23q12 93 38.5 125.5t84.5 32.5q77 0 98 -44q11 -20 11 -53q0 -42 -18 -100q-8 -26 -12 -45q-20 -105 -20 -231q0 -50 1 -76l1 -36q4 -89 9.5 -154t17 -131.5t29.5 -112.5t46.5 -83t66.5 -56q63 -30 111 -30q58 0 104.5 42t74 109.5t42 141.5 t15.5 147q1 16 1 50q0 257 -54 432l-7 23q-33 102 -41 163q-3 27 -3 51q0 139 127 139q18 0 27 -1l8 -1l5 -5q106 -127 145 -460q17 -138 17 -259q0 -85 -6.5 -167.5t-27 -181t-53 -176.5t-89.5 -143t-131 -93q-60 -22 -123 -22q-140 0 -276 91t-182 216q-78 213 -78 483z M81 1539q0 35 30 92q120 220 261 327l11 8l10 -7q47 -34 215 -222q10 -10 24 -26t18 -20q33 -37 45 -82q5 -16 5 -38q0 -31 -15.5 -57t-53.5 -26q-29 0 -57 18q-44 26 -112 99q-53 59 -76 59q-31 0 -83 -96q-25 -49 -66 -77t-80 -28q-40 0 -58 23t-18 53z" />
<glyph unicode="&#xdc;" horiz-adv-x="1038" d="M36 790q0 186 37 392q0 1 4 23q12 93 38.5 125.5t84.5 32.5q77 0 98 -44q11 -20 11 -53q0 -42 -18 -100q-8 -26 -12 -45q-20 -105 -20 -231q0 -50 1 -76l1 -36q4 -89 9.5 -154t17 -131.5t29.5 -112.5t46.5 -83t66.5 -56q63 -30 111 -30q58 0 104.5 42t74 109.5t42 141.5 t15.5 147q1 16 1 50q0 257 -54 432l-7 23q-33 102 -41 163q-3 27 -3 51q0 139 127 139q18 0 27 -1l8 -1l5 -5q106 -127 145 -460q17 -138 17 -259q0 -85 -6.5 -167.5t-27 -181t-53 -176.5t-89.5 -143t-131 -93q-60 -22 -123 -22q-140 0 -276 91t-182 216q-78 213 -78 483z M200 1762q0 11 1 16q2 22 6 41q10 37 39 55.5t62 18.5q12 0 17 -1q43 -5 72 -38t30 -86q-4 -62 -39.5 -98t-79.5 -36h-7q-46 4 -73.5 39.5t-27.5 88.5zM579 1762q0 11 1 16q0 19 5 41q10 37 39.5 55.5t62.5 18.5q11 0 16 -1q43 -5 72 -38t30 -86q-4 -62 -39 -98t-79 -36h-7 q-46 4 -73.5 39.5t-27.5 88.5z" />
<glyph unicode="&#xdd;" horiz-adv-x="1148" d="M36 112q0 110 73 163q25 18 43 18q40 0 62.5 -61t39.5 -180q7 -44 9 -49h-1q13 -53 47.5 -113.5t81 -112.5t105.5 -86t115 -34q49 0 95 24q88 47 132 138t67 240q7 46 7 112q0 167 -51 429q-30 149 -37 203l-16 4q-25 -18 -73 -119l-10 -23l-1 -1q-65 -121 -172.5 -188.5 t-210.5 -67.5q-95 0 -156 55.5t-70 152.5q-1 4 -1 15q0 84 60 261t128 250q45 49 83 49q31 0 58 -26t27 -65q0 -9 -4 -37v1q-9 -44 -45 -123q-18 -38 -24 -55q-1 -3 -6 -16.5t-8 -22.5q-60 -146 -60 -215q0 -28 13 -43q5 -8 20 -8q29 0 82 43t84 82q73 89 132 244 q16 41 30 140q21 136 48 201.5t88 92.5h2q81 -17 107 -51t42 -129l6 -33q35 -210 61 -380l27 -168q41 -260 46 -400q2 -40 2 -59q0 -383 -207 -576q-120 -111 -276 -111q-35 0 -64 5q-180 25 -322.5 171.5t-189.5 335.5q-18 69 -18 123zM240 1575q0 18 7 34q18 41 99 90l4 2 h1q163 95 376 143l4 1q31 7 51 7q15 0 24 -3q28 -14 43 -69q3 -9 3 -19q0 -32 -26 -53.5t-86 -43.5q-33 -13 -35 -14q-243 -120 -391 -163q-11 -4 -16 -4q-6 0 -15 4q-15 7 -29 35t-14 53z" />
<glyph unicode="&#xde;" horiz-adv-x="992" d="M36 772v54q0 399 30 490q50 40 86 40q27 0 46.5 -30.5t29 -78t13.5 -90t4 -81.5q0 -23 0.5 -53t0.5 -55q2 1 36 11.5t61.5 17.5t81.5 14t113 7q65 0 143 -3q120 0 197 -87t77 -213q1 -8 1 -26q0 -65 -18 -110.5t-49.5 -77.5t-92.5 -76q-235 -89 -409 -89q-16 0 -46 -2.5 t-45.5 -3t-42.5 3.5q0 -63 -3 -118q2 -19 2 -33.5t-1.5 -38.5t-1.5 -31q0 -44 -13.5 -79t-46.5 -35q-21 0 -47 17q-66 44 -77 107q-29 292 -29 649zM250 690q0 -27 1 -85t1 -77q0 -13 18 -15t53 1.5t45 3.5t37 3t44 3q249 53 286 105q6 9 12.5 14.5t10 8t5.5 12.5t2 31 q0 26 -8 56q-33 103 -218 103q-39 0 -86 -6q-10 -3 -38.5 -9.5t-49.5 -12.5q-33 -10 -58 -21t-38.5 -18.5t-18.5 -9.5v-87z" />
<glyph unicode="&#xdf;" horiz-adv-x="1070" d="M36 703q0 33 1 46q5 148 33 269.5t83 222.5t147 166t217 84q8 1 26 1q116 0 184.5 -49.5t106.5 -162.5q3 -20 3 -43q0 -188 -270 -392q-13 -28 -13 -50q0 -13 5 -26q14 -40 131 -91l31 -12q23 -10 72 -30q95 -33 140.5 -65.5t66.5 -92.5q34 -69 34 -143v-28 q-10 -94 -56 -174q-38 -61 -112 -96.5t-163 -35.5q-118 0 -196 64q-40 34 -40 75v5q3 53 60 91q9 3 17 3q21 0 73 -28q56 -29 79 -29q37 0 85 35q37 50 37 100q0 84 -105 150q-50 49 -181 118q-24 14 -31 16q-131 112 -136 192v8q0 75 103 190l37 37q92 92 92 156 q0 59 -56 84q-21 10 -46 10q-27 0 -50 -14q-99 -64 -156 -210.5t-57 -303.5q0 -366 72 -717q1 -4 11 -38q26 -73 31 -113v-15q0 -47 -31 -64t-90 -17q-50 0 -65 20q-79 101 -98 442q-1 12 -2 25.5t-1.5 21t-0.5 11.5q-22 249 -22 397z" />
<glyph unicode="&#xe0;" horiz-adv-x="859" d="M36 173q0 160 203 392q118 126 210.5 168t175.5 42h7q40 0 63 -70t40 -207l8 -56l1 -1q0 -1 0.5 -4t1.5 -7t2.5 -10.5t2.5 -13.5q21 -103 41 -144q10 -22 36 -57q49 -67 49 -113q-6 -30 -39.5 -54.5t-68.5 -24.5q-25 0 -47 19q-41 37 -83 164q-37 121 -77 153l-53 -105 q-60 -91 -115 -142.5t-155 -85.5q-18 -6 -50 -6q-66 0 -107.5 43.5t-45.5 119.5zM118 1293q0 35 37 67q21 17 36 17q20 0 66 -32l3 -2q169 -119 289 -280l3 -4q55 -73 56 -120v-1q0 -42 -42 -78q-17 -16 -32 -16q-13 0 -26 14q-106 81 -293 301q-6 8 -27 26q-42 41 -60 69 q-10 20 -10 39zM229 201q52 3 116.5 66.5t107.5 147t43 142.5q-5 8 -23 8q-31 0 -76 -48q-59 -66 -115 -173t-53 -143z" />
<glyph unicode="&#xe1;" horiz-adv-x="859" d="M36 173q0 160 203 392q118 126 210.5 168t175.5 42h7q40 0 63 -70t40 -207l8 -56l1 -1q0 -1 0.5 -4t1.5 -7t2.5 -10.5t2.5 -13.5q21 -103 41 -144q10 -22 36 -57q49 -67 49 -113q-6 -30 -39.5 -54.5t-68.5 -24.5q-25 0 -47 19q-41 37 -83 164q-37 121 -77 153l-53 -105 q-60 -91 -115 -142.5t-155 -85.5q-18 -6 -50 -6q-66 0 -107.5 43.5t-45.5 119.5zM213 899v3q2 48 55 119l4 5q119 160 288 279l4 3q43 31 65 31q28 0 61 -44q13 -18 13 -40q0 -20 -11 -37q-17 -30 -58 -69q-26 -25 -28 -28q-190 -221 -296 -303q-10 -11 -23 -11 q-17 0 -33 15q-41 35 -41 77zM229 201q52 3 116.5 66.5t107.5 147t43 142.5q-5 8 -23 8q-31 0 -76 -48q-59 -66 -115 -173t-53 -143z" />
<glyph unicode="&#xe2;" horiz-adv-x="859" d="M36 173q0 160 203 392q118 126 210.5 168t175.5 42h7q40 0 63 -70t40 -207l8 -56l1 -1q0 -1 0.5 -4t1.5 -7t2.5 -10.5t2.5 -13.5q21 -103 41 -144q10 -22 36 -57q49 -67 49 -113q-6 -30 -39.5 -54.5t-68.5 -24.5q-25 0 -47 19q-41 37 -83 164q-37 121 -77 153l-53 -105 q-60 -91 -115 -142.5t-155 -85.5q-18 -6 -50 -6q-66 0 -107.5 43.5t-45.5 119.5zM165 927q0 33 28 87q120 219 258 325l2 -1q40 -27 213 -221l42 -46q30 -37 41 -77q5 -20 5 -35q0 -29 -12.5 -51t-42.5 -22q-23 0 -48 17q-45 27 -109 96q-57 63 -87 63q-43 0 -97 -101 q-24 -47 -61.5 -73t-72.5 -26q-59 0 -59 65zM229 201q52 3 116.5 66.5t107.5 147t43 142.5q-5 8 -23 8q-31 0 -76 -48q-59 -66 -115 -173t-53 -143z" />
<glyph unicode="&#xe3;" horiz-adv-x="859" d="M36 173q0 160 203 392q118 126 210.5 168t175.5 42h7q40 0 63 -70t40 -207l8 -56l1 -1q0 -1 0.5 -4t1.5 -7t2.5 -10.5t2.5 -13.5q21 -103 41 -144q10 -22 36 -57q49 -67 49 -113q-6 -30 -39.5 -54.5t-68.5 -24.5q-25 0 -47 19q-41 37 -83 164q-37 121 -77 153l-53 -105 q-60 -91 -115 -142.5t-155 -85.5q-18 -6 -50 -6q-66 0 -107.5 43.5t-45.5 119.5zM135 971q0 20 7 35q7 10 11 21q45 99 92.5 149.5t128.5 59.5q6 1 15 1q60 0 161 -54q64 -35 87 -35q26 0 42 32q39 81 80 81q16 0 32 -16l8 -6q46 -42 46 -84v-5q-4 -60 -73.5 -139.5 t-130.5 -79.5q-55 0 -159 74q-58 42 -87 49q-9 2 -25 2q-24 0 -34 -10q-13 -15 -24 -38q-32 -63 -52 -87.5t-49 -24.5q-43 0 -66 38q-10 17 -10 37zM229 201q52 3 116.5 66.5t107.5 147t43 142.5q-5 8 -23 8q-31 0 -76 -48q-59 -66 -115 -173t-53 -143z" />
<glyph unicode="&#xe4;" horiz-adv-x="859" d="M36 173q0 160 203 392q118 126 210.5 168t175.5 42h7q40 0 63 -70t40 -207l8 -56l1 -1q0 -1 0.5 -4t1.5 -7t2.5 -10.5t2.5 -13.5q21 -103 41 -144q10 -22 36 -57q49 -67 49 -113q-6 -30 -39.5 -54.5t-68.5 -24.5q-25 0 -47 19q-41 37 -83 164q-37 121 -77 153l-53 -105 q-60 -91 -115 -142.5t-155 -85.5q-18 -6 -50 -6q-66 0 -107.5 43.5t-45.5 119.5zM176 1071q0 10 1 14q2 23 6 39q8 34 32.5 51t53.5 17q10 0 14 -1q37 -3 63 -33.5t26 -79.5q-4 -59 -34.5 -92t-68.5 -33h-6q-38 3 -62.5 36t-24.5 82zM229 201q52 3 116.5 66.5t107.5 147 t43 142.5q-5 8 -23 8q-31 0 -76 -48q-59 -66 -115 -173t-53 -143zM555 1071q0 11 1 14q0 21 5 39q8 34 33.5 51t53.5 17q10 0 14 -1q37 -3 62.5 -33.5t26.5 -79.5q-4 -58 -35 -91.5t-68 -33.5h-6q-38 3 -62.5 36t-24.5 82z" />
<glyph unicode="&#xe5;" horiz-adv-x="859" d="M36 173q0 160 203 392q118 126 210.5 168t175.5 42h7q40 0 63 -70t40 -207l8 -56l1 -1q0 -1 0.5 -4t1.5 -7t2.5 -10.5t2.5 -13.5q21 -103 41 -144q10 -22 36 -57q49 -67 49 -113q-6 -30 -39.5 -54.5t-68.5 -24.5q-25 0 -47 19q-41 37 -83 164q-37 121 -77 153l-53 -105 q-60 -91 -115 -142.5t-155 -85.5q-18 -6 -50 -6q-66 0 -107.5 43.5t-45.5 119.5zM118 1067q0 31 11 69l7 19q37 101 113.5 156.5t178.5 55.5q66 0 126 -21q98 -35 152.5 -101.5t54.5 -132.5q0 -26 -9 -58q-12 -36 -33.5 -67.5t-58 -61t-95 -46.5t-132.5 -17q-137 0 -226 58 t-89 147zM229 201q52 3 116.5 66.5t107.5 147t43 142.5q-5 8 -23 8q-31 0 -76 -48q-59 -66 -115 -173t-53 -143zM300 1117q0 -34 34.5 -64t81.5 -30q39 0 96 24.5t68 58.5q2 8 2 12q0 13 -14 32q-42 53 -142 53q-12 0 -17 -1q-89 -6 -106 -60q-3 -14 -3 -25z" />
<glyph unicode="&#xe6;" horiz-adv-x="1273" d="M36.5 249.5q-5.5 67.5 40.5 123.5q2 1 6.5 5.5l6.5 6.5q34 27 51 35q41 24 102 33t84 4q22 -5 120 -5q-41 34 -73 53t-91 43q-25 10 -42 17.5t-26.5 16t-14.5 12.5t-3 14t3 13t10 17t12 20q1 1 4 5t6 6l6 6q13 10 47.5 18t54.5 6q50 -6 131 -68q31 -22 43 -42 q3 -3 9 -9.5t9 -9.5q19 46 60 87.5t104 66.5q26 10 46 13q146 23 267 -147q19 -50 24 -79q18 -112 -76 -197q-13 -13 -41 -27q-32 -19 -40.5 -26t-7.5 -18v-1q6 -17 33 -37q56 -45 121 -34q22 3 38 10q82 33 147 143q89 148 115 174q45 45 73 50q13 2 21 -6.5t11 -27.5 q2 -122 -91 -270t-207 -209q-49 -18 -81 -23q-177 -28 -360 118q-118 -100 -252 -120.5t-259 48.5q-28 15 -65 46q-15 15 -18 21q-52 57 -57.5 124.5zM214 257l27 -24l24 -18q29 -15 84 -24q60 -10 109.5 12t78.5 49q9 11 8 17q-54 17 -130.5 25t-138.5 -0.5t-62 -36.5z M700 469q15 -95 70 -122q42 7 66 42t22 79q0 2 -0.5 6.5t-0.5 7.5q-7 38 -33 64t-69 24h-10q-28 -4 -40 -31.5t-5 -69.5z" />
<glyph unicode="&#xe7;" horiz-adv-x="765" d="M36 293v13q0 103 40.5 205.5t110.5 166.5q74 67 164 67h5q83 0 107 -67q6 -18 6 -34q0 -49 -56 -81q-120 -72 -154 -108t-34 -96q0 -29 12 -63q24 -75 106 -75q9 0 27 2q68 9 210 75q150 67 196 76q15 3 28 3q61 0 64 -68q-21 -135 -363 -266q-1 0 -5 -1.5t-6 -2.5 q16 -38 20 -82q1 -10 1 -30q0 -39 -10 -70q106 -72 106 -162q0 -21 -6 -44q-15 -51 -65 -96.5t-114.5 -71t-125.5 -25.5q-122 0 -146 99q-2 6 -2 17q0 7 10 20q4 6 11.5 9.5t20 5t24.5 1.5t33.5 0.5t39.5 1.5q48 2 98.5 29t50.5 62v6q-2 20 -13 34t-27 20t-28.5 8.5 t-22.5 2.5q-16 0 -28 -4q-12 -3 -24 -3q-29 0 -60.5 19.5t-43.5 47.5q-4 11 -4 22q0 10 2.5 17t6.5 11.5t14 9.5t17.5 7.5t26 9t32.5 11.5q24 9 24 62v16h-7q-87 0 -149 42.5t-89.5 106.5t-30.5 144z" />
<glyph unicode="&#xe8;" horiz-adv-x="748" d="M0 461q0 56 11 130q18 127 203 168q24 6 50 6q69 0 131.5 -47.5t105.5 -140.5q12 -45 12 -82q0 -114 -105 -182q-12 -10 -46 -21q-34 -12 -43.5 -17.5t-9.5 -16.5v-2q0 -14 25 -41q48 -54 116 -54q19 0 38 4q85 19 168 118q104 122 141 153q53 38 79 38t26 -40 q-16 -119 -132.5 -251t-237.5 -174q-44 -9 -85 -9q-208 0 -386 238q-61 80 -61 223zM54 1293q0 40 43 75q25 20 47 20q23 0 74 -34l4 -3q173 -123 291 -282l4 -4q56 -76 58 -126v-1q0 -46 -46 -86q-21 -18 -43 -18t-39 18q-105 83 -292 301q-6 8 -25 25q-49 47 -62 71 q-14 23 -14 44zM178 508q0 -95 49 -131q44 0 73 30t34 74v17q0 37 -21.5 66t-62.5 35h-11q-28 0 -44.5 -24.5t-16.5 -66.5z" />
<glyph unicode="&#xe9;" horiz-adv-x="748" d="M0 461q0 56 11 130q18 127 203 168q24 6 50 6q69 0 131.5 -47.5t105.5 -140.5q12 -45 12 -82q0 -114 -105 -182q-12 -10 -46 -21q-34 -12 -43.5 -17.5t-9.5 -16.5v-2q0 -14 25 -41q48 -54 116 -54q19 0 38 4q85 19 168 118q104 122 141 153q53 38 79 38t26 -40 q-16 -119 -132.5 -251t-237.5 -174q-44 -9 -85 -9q-208 0 -386 238q-61 80 -61 223zM24 912v3q2 51 58 125l4 6q120 159 291 281l4 3q48 33 74 33q38 0 73 -47q17 -24 17 -46q0 -21 -14 -44q-18 -31 -61 -71q-6 -6 -27 -26q-180 -211 -295 -304q-12 -15 -34 -15 q-24 0 -43 18q-47 39 -47 84zM178 508q0 -95 49 -131q44 0 73 30t34 74v17q0 37 -21.5 66t-62.5 35h-11q-28 0 -44.5 -24.5t-16.5 -66.5z" />
<glyph unicode="&#xea;" horiz-adv-x="748" d="M0 461q0 56 11 130q18 127 203 168q24 6 50 6q69 0 131.5 -47.5t105.5 -140.5q12 -45 12 -82q0 -114 -105 -182q-12 -10 -46 -21q-34 -12 -43.5 -17.5t-9.5 -16.5v-2q0 -14 25 -41q48 -54 116 -54q19 0 38 4q85 19 168 118q104 122 141 153q53 38 79 38t26 -40 q-16 -119 -132.5 -251t-237.5 -174q-44 -9 -85 -9q-208 0 -386 238q-61 80 -61 223zM78 889q0 35 30 92q120 219 262 328l10 7l10 -7q48 -34 216 -223l41 -46q35 -40 45 -82q5 -16 5 -37q0 -31 -15.5 -57t-53.5 -26q-27 0 -57 18q-44 26 -111 98q-56 60 -76 60 q-32 0 -84 -96q-25 -48 -66 -76t-80 -28q-40 0 -58 23t-18 52zM178 508q0 -95 49 -131q44 0 73 30t34 74v17q0 37 -21.5 66t-62.5 35h-11q-28 0 -44.5 -24.5t-16.5 -66.5z" />
<glyph unicode="&#xeb;" horiz-adv-x="748" d="M0 461q0 56 11 130q18 127 203 168q24 6 50 6q69 0 131.5 -47.5t105.5 -140.5q12 -45 12 -82q0 -114 -105 -182q-12 -10 -46 -21q-34 -12 -43.5 -17.5t-9.5 -16.5v-2q0 -14 25 -41q48 -54 116 -54q19 0 38 4q85 19 168 118q104 122 141 153q53 38 79 38t26 -40 q-16 -119 -132.5 -251t-237.5 -174q-44 -9 -85 -9q-208 0 -386 238q-61 80 -61 223zM45 1017q0 10 1 15q1 17 5 41q10 37 39.5 56t63.5 19q11 0 16 -1q43 -5 72 -38t29 -86q-4 -62 -38.5 -98t-78.5 -36h-8q-46 4 -73.5 39.5t-27.5 88.5zM178 508q0 -95 49 -131q44 0 73 30 t34 74v17q0 37 -21.5 66t-62.5 35h-11q-28 0 -44.5 -24.5t-16.5 -66.5zM424 1017v15q2 23 6 41q10 37 39.5 56t62.5 19q12 0 17 -1q42 -5 71 -38t30 -86q-4 -62 -39.5 -98t-79.5 -36h-7q-46 4 -73 39.5t-27 88.5z" />
<glyph unicode="&#xec;" horiz-adv-x="357" d="M-82 1242q0 40 43 75q22 19 46 19q28 0 75 -33l4 -4q171 -121 291 -280l3 -5q57 -75 59 -126v-1q0 -46 -47 -86q-22 -19 -43 -19q-20 0 -38 20q-109 84 -293 301q-3 4 -24 23q-48 45 -63 72q-13 22 -13 44zM28 212q0 60 9 154q4 52 4 57q5 57 5 145q0 59 -4 88 q-1 4 -1 14q0 41 28 73t86 32q49 0 49 -42q33 -180 33 -398q0 -35 -1 -53l-5 -216q0 -16 -42 -37.5t-69 -21.5q-14 0 -22 6q-58 49 -68 152q-2 26 -2 47z" />
<glyph unicode="&#xed;" horiz-adv-x="357" d="M-82 889v3q2 51 58 125l5 5q120 160 290 282l4 2q46 33 74 33q39 0 74 -48q16 -22 16 -45q0 -22 -13 -44q-15 -27 -61 -70q-21 -19 -27 -27q-181 -211 -295 -303q-14 -16 -36 -16q-21 0 -42 18q-47 40 -47 85zM52 205q0 52 8 153q1 12 3.5 32t2.5 26q5 58 5 145 q0 49 -4 88q-1 4 -1 14q0 41 28 73t85 32q49 0 49 -42q33 -180 33 -398q0 -36 -1 -54l-4 -216q0 -16 -43 -37t-70 -21q-13 0 -21 6q-59 51 -68 152q-2 26 -2 47z" />
<glyph unicode="&#xee;" horiz-adv-x="455" d="M-82 900q0 36 30 91q121 222 261 328l11 8l10 -7q47 -34 215 -222q3 -4 42 -47q33 -35 45 -82q6 -24 6 -37q0 -31 -16 -57t-54 -26q-29 0 -56 17q-47 28 -113 100q-54 58 -76 58q-33 0 -83 -96q-25 -48 -66 -76t-80 -28q-41 0 -58.5 23t-17.5 53zM94 212q0 70 8 153 q1 16 3.5 35t2.5 22q5 78 5 145q0 50 -4 89q-1 4 -1 13q0 41 27.5 73.5t84.5 32.5q50 0 50 -43q32 -173 32 -398v-53l-5 -215q0 -17 -42.5 -38.5t-69.5 -21.5q-14 0 -21 7q-59 48 -68 151q-2 14 -2 48z" />
<glyph unicode="&#xef;" horiz-adv-x="441" d="M-82 1077q0 12 1 17q0 8 5 40q10 37 39.5 55.5t63.5 18.5h16q43 -5 71.5 -38.5t29.5 -86.5q-4 -61 -38.5 -97.5t-78.5 -36.5h-8q-46 4 -73.5 40t-27.5 88zM99 212q0 49 10 154q4 52 4 57q5 57 5 145q0 59 -4 88q-1 4 -1 14q0 41 28 73t85 32q49 0 49 -42q33 -180 33 -398 q0 -35 -1 -53l-4 -216q0 -16 -42.5 -37.5t-69.5 -21.5q-13 0 -21 6q-59 50 -69 152q-2 26 -2 47zM297 1077v17q2 21 6 40q10 37 39.5 55.5t63.5 18.5h15q43 -5 72 -38.5t30 -86.5q-4 -61 -39.5 -97.5t-79.5 -36.5h-7q-46 4 -73 40t-27 88z" />
<glyph unicode="&#xf0;" horiz-adv-x="800" d="M36 293q0 202 108.5 286.5t329.5 84.5q-46 78 -67 97q-29 29 -53 29q-12 0 -32 -12q-51 -34 -111 -82q-39 -29 -73 -29h-6q-45 4 -45 63q0 74 130 158q-4 2 -11.5 5t-21 7.5l-25.5 8.5q-36 12 -56.5 20.5t-38 24.5t-17.5 36q0 19 19 45q29 42 94 42q32 0 66 -10 q77 -22 158 -71l42 30q63 49 103 49q39 0 55 -33q22 -29 22 -50q0 -18 -17 -40q-13 -13 -81 -56h1q200 -213 246 -440q10 -51 10 -100q0 -208 -216 -312q-94 -44 -189 -44q-73 0 -145 28q-179 70 -179 265zM220 308q0 -9 2 -27q8 -83 70 -104q20 -8 47 -8q47 0 103.5 28 t93.5 86q25 44 25 89q0 33 -10 59q-27 77 -85 91q-20 5 -34 5q-43 0 -94 -29.5t-87 -86.5q-31 -52 -31 -103z" />
<glyph unicode="&#xf1;" horiz-adv-x="813" d="M36 1050q0 18 9 39q3 5 9 19q44 98 96 152.5t138 64.5h17q66 0 169 -55q60 -33 79 -33q16 0 28 26q42 86 94 86q23 0 42 -17l8 -8q52 -45 52 -91v-6q-5 -63 -78.5 -145.5t-141.5 -82.5q-62 0 -167 75q-58 43 -83 48q-14 2 -21 2q-15 0 -22 -7q-6 -6 -22 -36 q-31 -61 -55 -89t-59 -28q-54 0 -79 43q-13 20 -13 43zM56 215q0 75 17 197q14 99 16 141q1 70 32 103t77 33q25 0 54 -8.5t32 -28.5q21 22 61 84q35 55 54 76.5t56 44.5q51 31 87 31q47 0 66 -44q59 -135 103 -429q14 -96 24 -156q1 -5 16 -60q19 -72 19 -119 q0 -80 -80 -80q-20 0 -40 4q-56 10 -85 106.5t-59 318.5q-16 122 -28 172q-103 -76 -144.5 -164t-43.5 -213q-1 -57 -44 -125t-91 -68q-44 0 -71.5 49.5t-27.5 134.5z" />
<glyph unicode="&#xf2;" horiz-adv-x="654" d="M36 360q0 21 2 59q11 153 102.5 244t230.5 91h13q105 0 169.5 -83.5t64.5 -223.5q0 -112 -40 -211.5t-115.5 -162.5t-168.5 -63q-25 0 -58 6q-53 10 -93 44.5t-62.5 83.5t-33.5 103.5t-11 112.5zM68 1283q0 37 37 67q18 17 36 17q20 0 65 -32l1 -1l3 -1 q166 -118 287 -277l4 -6l1 -1q55 -73 56 -120v-1q0 -42 -42 -78q-17 -16 -33 -16q-11 0 -25 15q-108 83 -292 300q-11 11 -28 26q-42 41 -60 69q-10 20 -10 39zM208 361q2 -67 32 -114.5t72 -47.5q49 0 97.5 59.5t53.5 141.5q1 9 1 24q0 72 -36 130q-23 34 -63 34 q-41 0 -85 -38t-49 -74q-23 -49 -23 -104v-11z" />
<glyph unicode="&#xf3;" horiz-adv-x="654" d="M36 360q0 21 2 59q11 153 102.5 244t230.5 91h13q105 0 169.5 -83.5t64.5 -223.5q0 -112 -40 -211.5t-115.5 -162.5t-168.5 -63q-25 0 -58 6q-53 10 -93 44.5t-62.5 83.5t-33.5 103.5t-11 112.5zM81 916v3q2 48 56 119l1 1l4 7q117 156 286 276l4 3q45 32 65 32 q28 0 61 -44q13 -18 13 -40q0 -21 -11 -38q-17 -30 -58 -69q-27 -25 -28 -27q-195 -225 -297 -304q-7 -11 -21 -11q-16 0 -33 16q-42 36 -42 76zM208 361q2 -67 32 -114.5t72 -47.5q49 0 97.5 59.5t53.5 141.5q1 9 1 24q0 72 -36 130q-23 34 -63 34q-41 0 -85 -38t-49 -74 q-23 -49 -23 -104v-11z" />
<glyph unicode="&#xf4;" horiz-adv-x="663" d="M36 956q0 39 27 87q121 221 258 325l2 2l1 -1q40 -27 213 -221q12 -15 42 -47q30 -34 41 -77q5 -18 5 -35q0 -28 -12.5 -50.5t-42.5 -22.5q-21 0 -48 17q-43 24 -109 97q-57 62 -87 62q-44 0 -97 -102q-24 -46 -61.5 -72t-71.5 -26q-60 0 -60 64zM45 360q0 21 2 59 q11 153 102.5 244t230.5 91h13q106 0 170.5 -83.5t64.5 -223.5q0 -111 -40.5 -211t-116 -163t-167.5 -63q-26 0 -59 6q-53 10 -93 44.5t-62.5 83.5t-33.5 103.5t-11 112.5zM217 361q2 -67 32.5 -114.5t72.5 -47.5q48 0 96.5 59.5t53.5 141.5q1 9 1 24q0 72 -36 130 q-23 34 -63 34q-41 0 -84.5 -38t-48.5 -74q-24 -51 -24 -104v-11z" />
<glyph unicode="&#xf5;" horiz-adv-x="782" d="M36 924q0 16 8 34l9 20q21 48 40 80.5t45 62t59.5 46.5t76.5 22q6 1 16 1q60 0 162 -54q62 -35 86 -35q27 0 42 32q39 80 79 80q17 0 31 -14l9 -9q47 -40 47 -82v-5q-5 -60 -74 -139.5t-130 -79.5q-56 0 -158 73q-66 46 -90 50q-14 2 -24 2q-21 0 -32 -11 q-13 -15 -25 -39q-31 -61 -51.5 -86t-48.5 -25q-44 0 -67 40q-10 14 -10 36zM89 360q0 21 2 59q11 153 102.5 244t230.5 91h13q106 0 170.5 -83.5t64.5 -223.5q0 -112 -40 -211.5t-116 -162.5t-169 -63q-28 0 -58 6q-53 10 -93 44.5t-62.5 83.5t-33.5 103.5t-11 112.5z M255 361q2 -67 31.5 -114.5t71.5 -47.5q49 0 97.5 59.5t54.5 142.5v23q0 74 -35 129q-23 35 -63 35q-42 0 -85 -38t-48 -74q-24 -48 -24 -104v-11z" />
<glyph unicode="&#xf6;" horiz-adv-x="663" d="M36 360q0 21 2 59q11 153 102.5 244t230.5 91h13q105 0 169.5 -83.5t64.5 -223.5q0 -112 -40 -211.5t-115.5 -162.5t-168.5 -63q-25 0 -58 6q-53 10 -93 44.5t-62.5 83.5t-33.5 103.5t-11 112.5zM53 1097q0 13 1 14q0 21 5 39q8 34 33 51t54 17q10 0 14 -1 q36 -3 62 -33.5t27 -79.5q-4 -58 -35 -91.5t-68 -33.5h-6q-38 3 -62.5 36t-24.5 82zM208 361q2 -67 32 -114.5t72 -47.5q49 0 97.5 59.5t53.5 141.5q1 9 1 24q0 72 -36 130q-23 34 -63 34q-41 0 -85 -38t-49 -74q-23 -49 -23 -104v-11zM431 1097q0 13 1 14q2 23 6 39 q8 34 33 51t54 17q9 0 13 -1q37 -3 63 -33.5t27 -79.5q-4 -58 -35 -91.5t-69 -33.5h-6q-38 3 -62.5 36t-24.5 82z" />
<glyph unicode="&#xf7;" horiz-adv-x="1055" d="M90 563v14q0 42 25 69q43 48 196 48h24q74 0 206 -16q93 -12 125 -14q5 -1 19 -1q8 0 56 2q25 1 59 1q90 0 135 -35q31 -23 31 -56q0 -4 -2 -16q-7 -33 -40 -63.5t-68 -39.5q-43 -10 -90 -10q-35 0 -115 8l-52 5q-30 2 -77 6q-103 10 -157 10q-58 0 -101 -7 q-25 -4 -51 -4q-114 0 -123 99zM395 290v2q0 51 40 95.5t94 45.5q49 -1 74.5 -25t25.5 -62q0 -51 -39.5 -94.5t-90.5 -43.5q-3 0 -8 0.5t-7 0.5h-1q-42 0 -65 23t-23 58zM407 804q0 56 41 100.5t97 44.5q51 -1 77 -25.5t26 -63.5q0 -52 -41 -97.5t-94 -45.5q-10 0 -15 1 q-44 0 -67.5 24.5t-23.5 61.5z" />
<glyph unicode="&#xf8;" horiz-adv-x="737" d="M-23 78q0 24 15 51q21 36 135 138q-67 107 -67 208q0 9 5 49q18 125 128 211l10 8q67 49 134 49q9 0 27 -2q87 -10 173 -93q63 73 99 97.5t93 31.5q2 1 8 1q30 0 54 -24q23 -26 23 -50v-9q-7 -46 -103 -115l-26 -19q-29 -20 -55 -39q56 -105 63 -212q1 -9 1 -28 q0 -151 -106 -235q-75 -56 -150 -56q-106 0 -222 115l-19 -25q-39 -51 -87 -86.5t-77 -35.5h-5q-43 6 -50 60q-1 4 -1 10zM230 504q-2 -44 16 -82l10 -28l165 173q-62 54 -102 54q-36 0 -61.5 -36.5t-27.5 -80.5zM331 278q7 -9 14 -15t12 -10.5t12 -7.5t9.5 -4.5t11 -2.5 t10 -1h12h12.5q24 0 42 13q40 22 56.5 64.5t7.5 79.5t-36 49l-45 -45l-75 -77l-9.5 -9.5t-11.5 -11t-10.5 -10.5t-8.5 -8z" />
<glyph unicode="&#xf9;" horiz-adv-x="712" d="M36 236q0 64 14 148.5t38 164.5t61 136t78 57h1q33 0 49.5 -22t16.5 -76q0 -87 -37 -244q-28 -129 -28 -161q0 -14 3 -17q6 0 11 4q91 56 130 140t63 231q14 88 29.5 121t51.5 33t60.5 -20t38.5 -63.5t20.5 -93t11.5 -127.5q4 -78 11 -112t39 -124q47 -129 47 -194 q0 -74 -63 -74q-45 0 -84 33q-54 44 -88 206q-10 55 -14 68q-53 -98 -148.5 -173t-173.5 -75q-66 0 -102 59t-36 175zM87 1294q0 39 43 74q22 20 46 20q27 0 74 -34l4 -2q173 -123 292 -282l3 -5q58 -77 59 -125v-2q0 -45 -47 -86q-20 -17 -43 -17t-38 18q-108 85 -293 301 q-9 11 -24 25q-48 45 -64 71q-12 22 -12 44z" />
<glyph unicode="&#xfa;" horiz-adv-x="712" d="M36 236q0 64 14 148.5t38 164.5t61 136t78 57h1q33 0 49.5 -22t16.5 -76q0 -87 -37 -244q-28 -129 -28 -161q0 -14 3 -17q6 0 11 4q91 56 130 140t63 231q14 88 29.5 121t51.5 33t60.5 -20t38.5 -63.5t20.5 -93t11.5 -127.5q4 -78 11 -112t39 -124q47 -129 47 -194 q0 -74 -63 -74q-45 0 -84 33q-54 44 -88 206q-10 55 -14 68q-53 -98 -148.5 -173t-173.5 -75q-66 0 -102 59t-36 175zM83 936v3q2 49 59 126l3 4q121 161 291 282l4 3q49 34 74 34q39 0 74 -49q16 -20 16 -46q0 -21 -12 -44q-16 -25 -63 -69q-8 -7 -17 -17l-9 -10 q-179 -213 -295 -303q-12 -16 -35 -16t-43 18q-47 41 -47 84z" />
<glyph unicode="&#xfb;" horiz-adv-x="712" d="M36 236q0 64 14 148.5t38 164.5t61 136t78 57h1q33 0 49.5 -22t16.5 -76q0 -87 -37 -244q-28 -129 -28 -161q0 -14 3 -17q6 0 11 4q91 56 130 140t63 231q14 88 29.5 121t51.5 33t60.5 -20t38.5 -63.5t20.5 -93t11.5 -127.5q4 -78 11 -112t39 -124q47 -129 47 -194 q0 -74 -63 -74q-45 0 -84 33q-54 44 -88 206q-10 55 -14 68q-53 -98 -148.5 -173t-173.5 -75q-66 0 -102 59t-36 175zM66 964q0 39 29 92q122 221 262 327l11 9l10 -8q50 -36 216 -222l41 -47q35 -38 45 -82q5 -15 5 -37q0 -31 -16 -57t-54 -26q-26 0 -56 18q-47 28 -112 99 q-56 59 -75 59q-33 0 -84 -97q-25 -48 -66 -75.5t-81 -27.5t-57.5 23t-17.5 52z" />
<glyph unicode="&#xfc;" horiz-adv-x="712" d="M36 236q0 64 14 148.5t38 164.5t61 136t78 57h1q33 0 49.5 -22t16.5 -76q0 -87 -37 -244q-28 -129 -28 -161q0 -14 3 -17q6 0 11 4q91 56 130 140t63 231q14 88 29.5 121t51.5 33t60.5 -20t38.5 -63.5t20.5 -93t11.5 -127.5q4 -78 11 -112t39 -124q47 -129 47 -194 q0 -74 -63 -74q-45 0 -84 33q-54 44 -88 206q-10 55 -14 68q-53 -98 -148.5 -173t-173.5 -75q-66 0 -102 59t-36 175zM59 1090q0 11 1 15q0 2 6 41q10 38 39 56.5t63 18.5q11 0 16 -1q43 -5 72.5 -38t29.5 -86q-4 -61 -39 -97.5t-79 -36.5h-7q-46 4 -74 40t-28 88zM438 1090 v15q2 22 6 41q10 37 40 56t63 19q11 0 16 -1q43 -5 72 -38t30 -86q-4 -61 -39.5 -97.5t-79.5 -36.5h-7q-46 4 -73.5 39.5t-27.5 88.5z" />
<glyph unicode="&#xfd;" horiz-adv-x="807" d="M36 255q0 83 11 156t46 169q56 159 116 159q35 0 66 -60l3 -5q0 -76 -35 -209q-32 -128 -32 -210v-16q26 -71 109 89q28 51 99 209q61 133 96.5 184.5t77.5 51.5q6 0 18 -4h4q16 0 30 -14q42 -43 41 -373v-9v-7.5v-8.5q0 -30 14 -293t14 -280q0 -44 -8 -76 q-27 -96 -112 -157.5t-163 -61.5q-171 0 -349 204q-23 27 -31 65q-3 15 -3 31q0 60 48 60q21 0 47 -13q39 -18 106.5 -64t89.5 -59q62 -42 111 -42q38 0 63 30q6 7 11 17t8 25t4.5 26.5t2 34t0.5 34v39.5v39q0 36 -7.5 210t-7.5 273q-22 -98 -80 -182q-64 -99 -110 -142 t-118 -55q-24 -2 -34 -2q-58 0 -96 40q-50 62 -50 197zM116 943v3q0 48 58 126l4 4q118 159 291 282l3 3q51 34 74 34q39 0 75 -48q16 -22 16 -47q0 -20 -13 -44q-14 -24 -62 -69q-17 -16 -26 -27q-182 -214 -296 -303q-12 -16 -35 -16q-22 0 -43 18q-46 40 -46 84z" />
<glyph unicode="&#xfe;" horiz-adv-x="744" d="M36 454q0 79 2 221q2 104 4 509l2 34q2 55 25.5 106t53.5 51q25 0 56 -24q50 -42 50 -339q0 -100 -6 -228l-6 -63l16 -7q63 50 147 50q123 0 226 -93.5t103 -207.5v-20q0 -95 -50.5 -182.5t-139.5 -142.5t-193 -55q-30 0 -81 11l-13 -8q1 -5 1 -24q0 -30 -4 -66v-1 q1 -53 1 -144q0 -187 -5 -247q-6 -67 -66 -67q-37 0 -54 14q-39 43 -48 182q-4 45 -5 51q-16 406 -16 690zM233 408q0 -113 27 -140q3 -6 25.5 -10t35.5 -4q7 0 48 16q57 21 93 55t47.5 64t11.5 60q0 42 -22.5 74.5t-56 47t-74 10.5t-75.5 -29l-59 -44v-16q0 -23 -1 -37v-47 z" />
<glyph unicode="&#xff;" horiz-adv-x="807" d="M36 255q0 83 11 156t46 169q56 159 116 159q35 0 66 -60l3 -5q0 -76 -35 -209q-32 -128 -32 -210v-16q26 -71 109 89q28 51 99 209q61 133 96.5 184.5t77.5 51.5q6 0 18 -4h4q16 0 30 -14q42 -43 41 -373v-9v-7.5v-8.5q0 -30 14 -293t14 -280q0 -44 -8 -76 q-27 -96 -112 -157.5t-163 -61.5q-171 0 -349 204q-23 27 -31 65q-3 15 -3 31q0 60 48 60q21 0 47 -13q39 -18 106.5 -64t89.5 -59q62 -42 111 -42q38 0 63 30q6 7 11 17t8 25t4.5 26.5t2 34t0.5 34v39.5v39q0 36 -7.5 210t-7.5 273q-22 -98 -80 -182q-64 -99 -110 -142 t-118 -55q-24 -2 -34 -2q-58 0 -96 40q-50 62 -50 197zM115 1111q0 11 1 15q0 19 5 41q10 38 39 56.5t63 18.5q12 0 17 -1q43 -5 72 -38t29 -86q-4 -61 -39 -97.5t-79 -36.5h-7q-46 4 -73.5 39.5t-27.5 88.5zM494 1111v15q2 22 6 41q10 37 39.5 56t62.5 19q11 0 15 -1 q43 -5 72.5 -38t30.5 -86q-4 -61 -39.5 -97.5t-79.5 -36.5h-7q-46 4 -73 39.5t-27 88.5z" />
<glyph unicode="&#x152;" horiz-adv-x="1744" d="M36 763q0 271 102 476q34 70 106 109.5t164 39.5q151 0 242 -100l61 32q68 30 119 68q36 27 59 27q17 0 49 -24q43 -34 75 -39q46 2 164 41q144 49 203 49q52 0 94 -31q14 -21 14 -45q0 -13 -6 -29q-19 -40 -90.5 -73.5t-140 -49.5t-125.5 -22h-10q-178 -12 -192 -31 q-33 -86 -33 -217l20 -12q308 78 485 78q9 0 25 -0.5t23 -0.5q40 -3 56.5 -12t18.5 -30v-2q0 -33 -57 -76.5t-111 -53.5q-99 -19 -241 -36l-11 -2q-111 -16 -190 -45q8 -37 53 -203q2 -7 17 -70q24 -92 49.5 -129t77.5 -37q32 0 66 12q104 38 205 83q233 103 367 115 q20 2 30 2q51 0 81.5 -16t32.5 -43v-4q0 -21 -20 -38q-34 -26 -91 -33q-158 -41 -386 -180q-114 -68 -227 -126q-59 -26 -105 -26q-126 0 -200 188h-33q-51 -108 -141 -170t-197 -62q-22 0 -61 7q-103 18 -185 100t-130 198.5t-64 253.5q-12 98 -12 189zM214 751 q0 -82 7 -139q9 -72 30 -143t54.5 -136.5t84 -106t109.5 -40.5q32 0 60 11q146 48 166 263q5 47 5 84q0 68 -13 154.5t-39.5 181.5t-73.5 180.5t-107 132.5q-29 18 -53 18q-18 0 -36 -9q-42 -23 -52 -74q-18 4 -25 4q-29 0 -49 -24q-54 -60 -65 -253q-3 -55 -3 -104z M357 1128l4 -2zM549 211l1 1l11 -13l-3 -1zM1444 1009l1 16h1v-16h-2zM1474 1411l7 13h1l-6 -14zM1519 967v2h20v-1zM1868 424l2 1l13 -12l-1 -1z" />
<glyph unicode="&#x153;" horiz-adv-x="1214" d="M51 350q0 60 1.5 94.5t11 84t27 82.5t51.5 68.5t84 63.5q56 33 114 33q37 0 118 -22q64 -16 111 -16q33 0 65 10q48 19 93 19q42 0 89 -22q79 -39 137 -154q16 -54 16 -96q0 -50 -21 -85q-14 -24 -127 -100l-47 -28l-3 -14q22 -36 57 -58t74 -22q135 0 270 188h4l6 13 q76 82 124 87h2l5 1q6 1 14 1t11.5 -5.5t3.5 -23.5q-40 -181 -164.5 -296t-277.5 -115q-160 0 -294 137h-34q-54 -83 -113.5 -121.5t-134.5 -38.5q-110 0 -191.5 93t-81.5 242zM206 369q0 -84 32 -130q27 -31 68 -31h13q65 0 104 39q60 64 60 174v14q0 46 -28.5 95.5 t-70.5 66.5q-16 7 -37 7q-37 0 -73 -26.5t-46 -57.5q-21 -59 -22 -138v-13zM624 507q0 -48 21.5 -78t62.5 -30q45 0 74.5 34t29.5 68q0 19 -9 46q-12 31 -34.5 50.5t-50.5 19.5q-37 0 -65.5 -34.5t-28.5 -75.5z" />
<glyph unicode="&#x178;" horiz-adv-x="1148" d="M36 114q0 107 73 161q25 17 43 17q40 0 62.5 -60t38.5 -179l8 -48q19 -74 71 -153.5t129 -137.5t150 -58q47 0 95 23q88 48 132.5 140t65.5 241q7 48 7 114q0 173 -50 429q-34 172 -38 211q-11 9 -33.5 -23t-54.5 -100l-11 -22l-1 -1q-65 -120 -172 -187.5t-210 -67.5 q-96 0 -157.5 55.5t-68.5 149.5q-1 5 -1 15q0 84 59.5 259t128.5 250q44 48 83 48q31 0 57.5 -25.5t26.5 -63.5q0 -17 -3 -34q-10 -45 -45 -123q-20 -43 -24 -55l-14 -39q-60 -148 -60 -215q0 -33 15 -48q7 -7 17 -7q28 0 81.5 43t85.5 83q73 91 131 245q15 36 31 141 q20 135 47 199.5t89 91.5q83 -17 109 -50t41 -127l7 -34q35 -210 61 -380l26 -168q43 -266 47 -399q2 -38 2 -56q0 -384 -207 -577q-120 -110 -276 -110q-36 0 -65 5q-180 25 -322 171t-189 334q-18 69 -18 122zM278 1642q0 11 1 15q0 19 5 39q8 35 34 51t58 16q10 0 14 -1 h1q38 -4 64.5 -34t27.5 -78q-4 -58 -36 -91.5t-71 -33.5h-6q-41 3 -66.5 36t-25.5 81zM656 1642v15q1 16 7 39q8 35 34 51t58 16q9 0 13 -1h1q39 -4 65.5 -34t27.5 -78q-4 -58 -36 -91.5t-72 -33.5h-6q-41 3 -66.5 36t-25.5 81z" />
<glyph unicode="&#x2c6;" horiz-adv-x="798" d="M90 1066q0 37 29 92q123 222 262 327l10 8l10 -7q50 -36 216 -222q7 -8 16 -18t15 -17t10 -11q35 -40 45 -82q6 -20 6 -38q0 -31 -16 -57t-54 -26q-26 0 -56 18q-44 26 -112 99q-55 59 -76 59q-33 0 -83 -96q-26 -49 -67 -77t-80 -28q-40 0 -57.5 23t-17.5 53z" />
<glyph unicode="&#x2dc;" horiz-adv-x="920" d="M90 1190q0 22 9 39q5 8 9 19q44 99 95.5 153t138.5 64q6 1 17 1q64 0 168 -55q59 -34 80 -34q16 0 28 26q41 87 94 87q23 0 42 -17l8 -9q51 -44 51 -91v-5q-4 -64 -77.5 -146t-142.5 -82q-62 0 -167 75q-64 45 -82 48q-16 2 -21 2q-15 0 -23 -8t-22 -35 q-31 -62 -54.5 -90t-59.5 -28q-53 0 -79 44q-12 20 -12 42z" />
<glyph unicode="&#x2000;" horiz-adv-x="987" />
<glyph unicode="&#x2001;" horiz-adv-x="1974" />
<glyph unicode="&#x2002;" horiz-adv-x="987" />
<glyph unicode="&#x2003;" horiz-adv-x="1974" />
<glyph unicode="&#x2004;" horiz-adv-x="658" />
<glyph unicode="&#x2005;" horiz-adv-x="493" />
<glyph unicode="&#x2006;" horiz-adv-x="329" />
<glyph unicode="&#x2007;" horiz-adv-x="329" />
<glyph unicode="&#x2008;" horiz-adv-x="246" />
<glyph unicode="&#x2009;" horiz-adv-x="394" />
<glyph unicode="&#x200a;" horiz-adv-x="109" />
<glyph unicode="&#x2010;" horiz-adv-x="966" d="M90 375v7q0 28 13 61q13 75 91 81q24 2 65 2q23 0 36 -1h28q34 0 62 2l26 2q18 1 52.5 4t51.5 4l53 4q42 2 91 6l42 4q26 4 32 6q32 6 43 6h11q33 0 52 -10q35 -19 37 -102l1 -9q0 -6 -4 -22q-13 -72 -148 -82q-7 -1 -28 -1q-24 0 -39 1h-13q-48 0 -128 -5q-34 -2 -49 -4 l-217 -14q-29 -3 -36 -4q-25 -3 -47 -3q-46 0 -63 22q-13 19 -15 45z" />
<glyph unicode="&#x2011;" horiz-adv-x="966" d="M90 375v7q0 28 13 61q13 75 91 81q24 2 65 2q23 0 36 -1h28q34 0 62 2l26 2q18 1 52.5 4t51.5 4l53 4q42 2 91 6l42 4q26 4 32 6q32 6 43 6h11q33 0 52 -10q35 -19 37 -102l1 -9q0 -6 -4 -22q-13 -72 -148 -82q-7 -1 -28 -1q-24 0 -39 1h-13q-48 0 -128 -5q-34 -2 -49 -4 l-217 -14q-29 -3 -36 -4q-25 -3 -47 -3q-46 0 -63 22q-13 19 -15 45z" />
<glyph unicode="&#x2012;" horiz-adv-x="966" d="M90 375v7q0 28 13 61q13 75 91 81q24 2 65 2q23 0 36 -1h28q34 0 62 2l26 2q18 1 52.5 4t51.5 4l53 4q42 2 91 6l42 4q26 4 32 6q32 6 43 6h11q33 0 52 -10q35 -19 37 -102l1 -9q0 -6 -4 -22q-13 -72 -148 -82q-7 -1 -28 -1q-24 0 -39 1h-13q-48 0 -128 -5q-34 -2 -49 -4 l-217 -14q-29 -3 -36 -4q-25 -3 -47 -3q-46 0 -63 22q-13 19 -15 45z" />
<glyph unicode="&#x2013;" horiz-adv-x="1113" d="M90 425v11q0 23 0.5 31.5t6 27.5t17 27.5t35.5 17t60 10.5q11 1 35 1h7q24 0 96 -3q14 -1 41 -1q22 0 52 2h10q111 8 148 10l89 4q73 4 143 10q5 1 18.5 4t20.5 4l40 8q3 0 9.5 0.5t9.5 0.5h8q30 0 51 -12q33 -22 36 -73v-29q-3 -27 -15.5 -46t-28 -29t-42 -16.5 t-46 -8.5t-53.5 -4h-63q-17 1 -55 1q-60 0 -130 -3q-9 0 -27 -1.5t-28 -2.5q-18 -2 -270 -14q-95 -6 -124 -6q-9 0 -10 1q-32 4 -40 61q0 12 -1 17z" />
<glyph unicode="&#x2014;" horiz-adv-x="1620" d="M90 399v10q0 37 23 80q19 34 162 43l54 4q4 0 159 2q68 1 144 5l15 1q58 5 229 17l101 6l37 3q84 6 221 18q10 1 59 8q57 10 63 10q25 4 49 4q41 0 71 -11q51 -21 54 -70v-7q0 -14 -1 -22q-12 -71 -76 -83q-104 -23 -211 -31q-27 -2 -80 -2h-15q-131 -2 -288 -13 q-16 -1 -46.5 -3t-38.5 -3q-5 0 -49 -3t-149 -10t-217 -15q-183 -12 -205 -12h-2q-52 5 -61 59q-2 10 -2 15z" />
<glyph unicode="&#x2018;" horiz-adv-x="500" d="M90 1416q0 32 3 45q19 75 91 75h3q4 1 15 1q61 0 69 -55q20 -129 20 -131v-3l14 -29l21 -42q85 -174 85 -223q0 -14 -4 -14h-8q-87 0 -164 70.5t-118 178.5q-27 71 -27 127z" />
<glyph unicode="&#x2019;" horiz-adv-x="523" d="M113 1032q0 52 85 224l5 10t7.5 15.5t7.5 16.5l13 28l1 3q0 2 20 131q7 56 70 56q4 0 14 -2h3q73 0 90 -74q4 -17 4 -45q0 -65 -36.5 -151t-104.5 -150q-79 -75 -168 -75h-7q-4 0 -4 13z" />
<glyph unicode="&#x201a;" horiz-adv-x="500" d="M90 -272q0 52 85 224q6 14 21 42l13 28l1 3q0 15 18 131q8 55 71 55q9 0 13 -1h4q72 0 91 -75q4 -17 4 -45q0 -65 -37 -151t-105 -150q-81 -75 -168 -75h-7q-4 0 -4 14z" />
<glyph unicode="&#x201c;" horiz-adv-x="832" d="M90 1416q0 32 3 45q19 75 91 75h3q4 1 15 1q61 0 69 -55q20 -129 20 -131v-3l14 -29l21 -42q85 -174 85 -223q0 -14 -4 -14h-8q-87 0 -164 70.5t-118 178.5q-27 71 -27 127zM421 1415q0 30 5 46q16 75 90 75h2q4 1 16 1q60 0 68 -55q20 -126 20 -130v-3l15 -30 q19 -40 20 -42q85 -174 85 -223q0 -14 -5 -14h-6q-88 0 -165.5 70.5t-118.5 178.5q-26 68 -26 126z" />
<glyph unicode="&#x201d;" horiz-adv-x="855" d="M113 1032q0 52 85 224l5 10t7.5 15.5t7.5 16.5l13 28l1 3q0 2 20 131q7 56 70 56q4 0 14 -2h3q73 0 90 -74q4 -17 4 -45q0 -65 -36.5 -151t-104.5 -150q-79 -75 -168 -75h-7q-4 0 -4 13zM443 1032q0 49 85 223q2 4 9 18.5t12 24.5l13 28l1 3q0 1 2.5 15t7.5 47t10 69 q5 31 20 43.5t49 12.5q6 0 16 -2h2q73 0 90 -74q5 -22 5 -45q0 -65 -36.5 -151t-105.5 -150q-78 -75 -168 -75h-6q-6 0 -6 13z" />
<glyph unicode="&#x201e;" horiz-adv-x="832" d="M90 -280q0 53 85 225q6 13 21 42l13 27l1 3q0 15 18 131q5 29 21.5 42.5t49.5 13.5q9 0 13 -1h4q72 0 91 -75q4 -17 4 -45q0 -65 -37 -151t-105 -150q-81 -75 -168 -75h-7q-4 0 -4 13zM421 -280q0 47 84 224q3 6 10.5 21.5t10.5 21.5l14 27l1 3q0 5 18 131q5 31 21 43.5 t50 12.5q10 0 14 -1h3q71 0 90 -75q5 -22 5 -45q0 -65 -37 -151t-105 -150q-79 -75 -168 -75h-6q-5 0 -5 13z" />
<glyph unicode="&#x2022;" horiz-adv-x="588" d="M90 541v14q4 68 53 117.5t131 55.5q100 0 162.5 -54t62.5 -130q0 -75 -59 -124t-156 -49q-38 0 -65 5q-61 12 -95 59.5t-34 105.5z" />
<glyph unicode="&#x2026;" horiz-adv-x="1385" d="M90 110v7q2 43 33.5 74t83.5 35q64 0 102.5 -34t38.5 -82q0 -47 -37.5 -78.5t-98.5 -31.5q-22 0 -41 4q-38 7 -59.5 38t-21.5 68zM563 108v9q2 43 33.5 74t83.5 35q63 0 102.5 -34t39.5 -82q0 -47 -38 -78.5t-99 -31.5q-22 0 -41 4q-38 7 -59.5 37.5t-21.5 66.5z M1036 108v9q2 43 33.5 74t83.5 35q63 0 102.5 -34t39.5 -82q0 -47 -38 -78.5t-99 -31.5q-22 0 -41 4q-38 7 -59.5 37.5t-21.5 66.5z" />
<glyph unicode="&#x202f;" horiz-adv-x="394" />
<glyph unicode="&#x2039;" horiz-adv-x="643" d="M90 341q26 38 265 254q51 47 103 47q57 0 68 -39q2 -8 2 -14q0 -21 -15 -47q-24 -40 -77 -91q-51 -49 -67 -67q-16 -22 -16 -39q0 -13 6 -23q16 -32 99 -76q47 -24 71 -61t24 -69q0 -10 -1 -15q-6 -35 -40 -43q-2 0 -8 -0.5t-8 -0.5q-34 0 -84 27q-220 122 -322 257z" />
<glyph unicode="&#x203a;" horiz-adv-x="643" d="M90 109q0 33 24 69.5t70 60.5q82 43 100 75q5 12 5 23q0 18 -16 40q-7 11 -66 66q-52 49 -78 92q-15 25 -15 47q0 6 2 14q12 39 69 39q51 0 102 -47q240 -215 266 -254q-103 -136 -323 -257q-50 -27 -83 -27q-3 0 -8.5 0.5t-7.5 0.5q-36 8 -40 43q-1 5 -1 15z" />
<glyph unicode="&#x205f;" horiz-adv-x="493" />
<glyph unicode="&#x20ac;" horiz-adv-x="1667" d="M90 534v3q2 34 30.5 46t111.5 21l10 1l126 11l-4 41q2 0 2 -15q0 44 9 94l-10 8h-9q-197 0 -215 68q-7 20 -7 39v3q2 34 32 46.5t118 21.5l9 1q61 5 162 12q114 179 336 290.5t439 111.5h9q186 -2 271 -63q66 -47 66 -98q0 -5 -2 -17q-6 -42 -58 -42q-20 0 -37 5 q-117 28 -223 28q-74 0 -143 -12q-158 -27 -372 -183l7 -13q267 -5 351 -14l12 -1q178 -16 243 -54q20 -11 35 -39t15 -53v-4q-2 -23 -14 -33.5t-40 -10.5h-11q-134 -8 -284 -8q-206 0 -419 11q-17 -60 -16 -107h53q165 0 341 -16h-1l11 -2h1q169 -15 232 -52 q19 -12 33.5 -39.5t14.5 -52.5v-5q-3 -43 -53 -43h-9q-112 -8 -258 -8q-137 0 -316 6l-10 -10q27 -62 124 -106q182 -79 410 -79q45 0 88 3h-1q14 0 79 18q75 18 104 23q25 3 45 3q36 0 52.5 -11.5t16.5 -36.5l-1 -10q-19 -188 -318 -203q-12 0 -33 -0.5t-32 -0.5 q-86 0 -166.5 10t-174 38t-171.5 73t-150 121.5t-117 176.5q-10 2 -32 2q-20 0 -30 -1h-42q-97 0 -150 12.5t-64 55.5q-6 21 -6 39z" />
<glyph unicode="&#x2122;" horiz-adv-x="1319" d="M90 1691v2q0 65 151 70q51 1 163 14q127 12 166 12q33 0 45 -23q6 -12 6 -23q0 -33 -24.5 -60.5t-69.5 -27.5h-19q-39 -2 -52 -16.5t-13 -60.5q0 -10 2 -42l4 -19q0 -12 4 -36q13 -101 13 -163q0 -17 -1 -24q-3 -71 -37 -86q-14 -7 -30 -7q-24 0 -39 17q-38 38 -38 196 v32l-2 60q0 19 1.5 59.5t1.5 51.5q0 17 -3.5 20t-18.5 3q-19 0 -43 -4q-48 -7 -77 -7q-51 0 -75 24q-15 12 -15 38zM630 1351q0 7 2 27q5 79 49 220q3 9 7 26l1 6q41 149 103 149q23 0 44 -18q45 -40 68 -149q13 -56 18 -85q2 30 2 39l3 42q2 6 3 25q5 73 26.5 108t77.5 35 q31 -1 53 -17.5t36.5 -52t23.5 -75.5t19 -104q2 -13 3.5 -22t2 -16t2.5 -13.5t2.5 -10t3 -10t3.5 -9t5 -12t6 -13.5q29 -74 33 -98q3 -15 3 -29q0 -34 -18.5 -56.5t-42.5 -22.5q-63 0 -105 152q-14 51 -24 103q-4 -65 -11.5 -110.5t-19.5 -81.5t-32 -54t-48 -18 q-38 0 -63 18t-39.5 55.5t-21 82t-10.5 112.5q-23 -124 -42.5 -172.5t-59.5 -48.5q-7 0 -19 4q-44 15 -44 94z" />
<glyph unicode="&#x25fc;" horiz-adv-x="747" d="M0 0v748h748v-748h-748z" />
<glyph unicode="&#xfb03;" horiz-adv-x="1657" d="M-49 757v1q1 52 102 52l33 -1q76 0 85 95q2 28 2 63v21q-1 11 -1 29q0 32 3 50q33 225 165 273q49 19 99 19q43 0 89 -12q118 -25 137 -110q9 -38 17 -72.5t11 -48.5l3 -13q2 -18 2 -29q0 -67 -44 -91q-18 -9 -32 -9q-24 0 -39 25q-9 15 -23 82q-15 74 -45 99 q-16 11 -33 11q-14 0 -29 -7q-71 -36 -104 -151q-17 -58 -17 -100q0 -53 27 -74q33 -23 177 -23q78 0 114 1t81 5.5t62 15.5t17 29q1 243 54 359q49 106 146 134q41 12 72 12q53 0 120 -24q100 -34 184 -110t114 -160q7 -15 7 -35q0 -58 -57 -94q-27 -15 -51 -15q-9 0 -14 1 q-32 6 -49.5 33t-33.5 84q-17 58 -24 73q-34 76 -128 78h-1q-38 0 -67 -32t-43 -79t-21 -90t-7 -77q0 -41 9 -75q1 -5 8.5 -9t21.5 -7t29 -5.5t38.5 -3.5t42 -2t47.5 -2t47.5 -1t49 -0.5t46.5 -0.5q73 -2 89 -3q170 -20 182 -252q1 -13 1 -47q0 -50 -5 -155q-4 -68 -4 -125 q0 -42 2 -56q2 -22 2 -33q0 -41 -13 -77t-38 -50q-13 -8 -27 -8q-13 0 -31 10q-32 18 -60 81q-48 207 -48 386q0 86 12 166q-37 -3 -105 -3q-27 0 -105 2h-50q-111 0 -134 -8q1 -9 2.5 -41t2.5 -39.5t3 -32.5t4.5 -42t7.5 -45.5t11 -62.5q18 -101 21 -163v-32 q0 -174 -111 -174q-19 0 -35 8t-26.5 26t-18.5 34.5t-13 46t-8 48t-4 52.5t-1.5 47t-0.5 44q-1 62 -1 94q0 77 -5 125q-11 90 -54 91h-96q-45 0 -144 9q-60 7 -86 8h-34q-57 0 -71.5 -12.5t-14.5 -64.5q0 -27 2 -42q0 -7 2.5 -22.5t7.5 -46t9 -56.5q15 -95 22 -163 q2 -24 2 -65q0 -147 -67 -184q-22 -12 -42 -12q-37 0 -63.5 49t-37 108.5t-10.5 115.5q0 31 3 59q22 184 22 204v1q-3 127 -78 127q-12 0 -18 -1q-26 -4 -37 -4q-59 0 -93 48q-19 25 -19 50z" />
<glyph unicode="&#xfb04;" horiz-adv-x="1850" d="M-49 751q0 52 117 52h7q60 0 74.5 18t15.5 86q2 85 10 148.5t26.5 122.5t53.5 98t86 58q61 21 111 21q43 0 87 -15t86 -44.5t75.5 -83t47.5 -122.5q4 -13 4 -32q0 -65 -55 -77q-10 -2 -16 -2q-59 0 -94 64q-53 95 -68 112q-33 38 -61 38q-22 0 -46 -26 q-39 -46 -60.5 -116.5t-21.5 -126.5q0 -22 3 -43q10 -64 81 -64q26 0 64 6q48 5 59 5q38 0 245 12q65 5 72 53q1 4 1 20q0 20 -1 32q-1 13 -1 36q0 20 1 27q28 363 257 363q6 1 19 1q90 0 179 -54t146 -140.5t57 -175.5q0 -14 -1 -21q-3 -54 -68 -75q-22 -8 -41 -8 q-34 0 -60 26q-29 31 -56 116q-28 88 -53 124q-32 39 -61 39q-16 0 -32 -12q-36 -27 -62.5 -106.5t-30.5 -157.5v-20q0 -58 18 -64q80 -7 306 -10q121 -3 184 -17q1 69 23 453q4 71 66 111q24 12 38 12q12 0 17 -2q31 -9 52 -53q36 -72 36 -192q0 -18 -1 -27l-20 -242 q-7 -103 -7 -155q0 -238 49 -507q7 -38 7 -59q0 -48 -19 -84.5t-59 -42.5h-12q-37 0 -69 31q-44 44 -59 119q-33 151 -41 518q-53 -41 -152 -41h-6q-41 0 -145 4q-34 1 -89 1h-51q-58 -3 -58 -93v-11q2 -48 35 -220q20 -114 20 -177q0 -23 -3 -41q-15 -100 -109 -100 q-32 0 -55 27.5t-35 73t-18.5 100t-8.5 112t-3 106.5v30q-1 24 1 57t2 40q0 45 -33.5 60.5t-160.5 25.5q-69 5 -135 8q-30 0 -52 1q-17 1 -34 1q-10 2 -16 2q-52 0 -76.5 -16t-29.5 -52v-20q0 -22 3 -61q6 -60 6 -94v-9q0 -28 26 -169q10 -51 10 -99q0 -139 -88 -142h-3 q-54 0 -84 58q-43 83 -43 194q0 48 15 148q9 54 12 92q1 13 1 36q0 85 -32 121q-17 20 -48 20q-18 0 -54 -3q-5 -1 -14 -1q-65 0 -90 51q-10 22 -10 35z" />
</font>
</defs>
</svg>
