<svg width="16" height="16" viewBox="0 0 16 16" fill="none" xmlns="http://www.w3.org/2000/svg">
<path fill-rule="evenodd" clip-rule="evenodd" d="M8 16C12.4183 16 16 12.4183 16 8C16 3.58172 12.4183 0 8 0C3.58172 0 0 3.58172 0 8C0 12.4183 3.58172 16 8 16ZM4.10794 7.39996C4.5021 7.01311 5.13524 7.01904 5.52209 7.4132L7.12628 9.04771L11.6754 4.71967C12.0756 4.33899 12.7085 4.35476 13.0892 4.75489C13.4699 5.15501 13.4541 5.78798 13.054 6.16866L7.79151 11.1754C7.39578 11.5519 6.77114 11.5412 6.38854 11.1513L4.0947 8.81411C3.70785 8.41995 3.71377 7.78681 4.10794 7.39996Z" fill="#CCCCCC"/>
</svg>
