<svg width="16" height="16" viewBox="0 0 16 16" fill="none" xmlns="http://www.w3.org/2000/svg">
<path fill-rule="evenodd" clip-rule="evenodd" d="M8.88101 0.486007C8.53101 -0.162002 7.46899 -0.162002 7.11899 0.486007L0.118886 14.4862C-0.0471161 14.7962 -0.0391159 15.1902 0.141887 15.4932C0.321889 15.7952 0.647894 16.0002 0.999899 16.0002H15.0001C15.3521 16.0002 15.6781 15.7952 15.8581 15.4932C16.0391 15.1902 16.0471 14.7962 15.8811 14.4862L8.88101 0.486007ZM9.00001 8.96013C9.00001 9.51214 8.55301 9.96014 8 9.96014C7.44699 9.96014 6.99999 9.51214 6.99999 8.96013V5.96009C6.99999 5.40808 7.44699 4.96007 8 4.96007C8.55301 4.96007 9.00001 5.40808 9.00001 5.96009V8.96013ZM8 10.9601C7.44799 10.9601 6.99999 11.4082 6.99999 11.9602C6.99999 12.5122 7.44799 12.9602 8 12.9602C8.55201 12.9602 9.00001 12.5122 9.00001 11.9602C9.00001 11.4082 8.55201 10.9601 8 10.9601Z" fill="#FBB224"/>
</svg>
