<svg width="41" height="22" viewBox="0 0 41 22" fill="none" xmlns="http://www.w3.org/2000/svg">
<path fill-rule="evenodd" clip-rule="evenodd" d="M32.341 1.29212C32.2873 0.696312 32.5017 0.264631 32.9812 0C34.9707 0.774411 36.9293 1.62217 38.8589 2.54338C39.7552 2.99075 40.223 3.43005 40.262 3.8613L40.2873 4.15945C40.3471 4.82883 39.9323 5.37991 39.0436 5.81239C37.9572 6.51462 36.3571 7.83083 34.2456 9.76254C33.5785 10.301 33.2167 10.5726 33.1601 10.5774C32.2168 10.5241 31.7168 10.1588 31.6573 9.48424L31.6516 9.41552C31.7314 9.28791 32.8319 8.28756 34.9542 6.41316C35.6012 5.86182 36.1308 5.41743 36.543 5.08007C23.812 5.30437 8.34611 7.99344 1.21159 20.6666C0.875038 21.264 -0.236645 21.0804 0.0454025 20.5045C1.26197 18.0126 2.9019 15.7412 4.90889 13.8237C10.6328 8.35545 18.4797 5.63068 26.1493 4.31042C29.2578 3.77479 32.4539 3.38526 35.6337 3.30281C35.0071 3.02785 34.2608 2.71247 33.3947 2.35659C32.776 2.07429 32.4605 1.87338 32.45 1.75396C32.3957 1.65563 32.3597 1.50182 32.341 1.29212Z" fill="#666666"/>
</svg>
