<svg width="86" height="80" viewBox="0 0 86 80" fill="none" xmlns="http://www.w3.org/2000/svg">
<path d="M85.5175 29.9435L47.9433 2.33459C43.3957 -0.778198 41.0777 -0.778198 36.6064 2.33459L0 29.9435L42.2742 64.186L85.5175 29.9435Z" fill="#FFE582"/>
<path d="M12.6333 7.44189H75.7996V57.6745H12.6333V7.44189Z" fill="white" stroke="#FFE582"/>
<path d="M42.7331 59.4601L85.5175 29.7676V72.5769C85.5175 76.6779 81.9218 80.0001 77.4842 80.0001H8.03327C3.59564 80.0001 0 76.6779 0 72.5769V29.7676L42.7331 59.4601Z" fill="#FFEC9F"/>
<path d="M78.1135 80C79.8319 79.8265 81.3895 79.1583 82.6023 78.1302L42.4487 48.3721L2.91553 78.1302C4.13119 79.1605 5.6837 79.8265 7.40959 80H78.1135Z" fill="#FEF2BB"/>
<path fill-rule="evenodd" clip-rule="evenodd" d="M48.0115 22.8429L42.5325 13.3335L42.5291 29.6151L32.0132 41.9049L42.5325 36.9694L53.0278 41.9049L51.1121 31.7702L59.2274 24.3678L48.0115 22.8429Z" fill="#FCE579"/>
<path fill-rule="evenodd" clip-rule="evenodd" d="M42.5479 30.9805L42.5599 37.1495L53.0824 41.9048L42.5479 30.9805Z" fill="#F9CA1A"/>
<path fill-rule="evenodd" clip-rule="evenodd" d="M37.0738 22.8429L42.5478 13.3335V30.8413L32.062 41.9049L33.9769 31.7702L25.8682 24.3678L37.0738 22.8429Z" fill="#FAD93A"/>
</svg>
