<?xml version="1.0" encoding="UTF-8" standalone="no"?>
<svg width="2798px" height="89px" viewBox="0 0 2798 89" version="1.1" xmlns="http://www.w3.org/2000/svg" xmlns:xlink="http://www.w3.org/1999/xlink">
    <!-- Generator: Sketch 48.2 (47327) - http://www.bohemiancoding.com/sketch -->
    <title>bg/background-pattern-e</title>
    <desc>Created with Sketch.</desc>
    <defs></defs>
    <g id="Backgrounds" stroke="none" stroke-width="1" fill="none" fill-rule="evenodd">
        <g id="bg/background-pattern-e" fill="#FCE579">
            <path d="M0,52.307655 C3.87756496,52.4558675 5.47770609,50.6314513 5.98732486,48.1657109 C5.92110428,45.6368486 7.67221517,43.788929 9.89049894,43.7308412 C12.1087827,43.6727534 13.9542064,45.4264944 14.012377,47.6479399 C14.0762202,50.0860136 16.1337837,52.1349271 18.7215901,52.067163 C21.0913553,52.0051085 22.6914964,50.1806924 23.2011152,47.7149519 L23.0024684,40.1289398 C22.9442978,37.9074943 24.4526943,36.0659304 26.6709781,36.0078426 C28.8892618,35.9497548 30.4919711,37.7098516 30.5501417,39.931297 C30.6234944,42.7325248 32.9707762,44.7939769 35.5585827,44.7262128 C37.5892361,44.6730383 39.7515544,43.8591346 40.2337731,40.3470278 L40.0745789,34.2676453 C40.0143318,31.9669035 41.6845741,30.056701 43.9820413,29.9965397 C46.2795085,29.9363784 48.047434,31.7565494 48.107681,34.0572911 C48.1878198,37.1176684 50.2453833,39.1665819 52.8331897,39.0988178 C55.2029549,39.0367633 56.803096,37.2123471 57.3127148,34.7466066 L57.1059278,26.8497301 C57.0477572,24.6282846 58.7988681,22.780365 61.0171518,22.7222772 C63.2354356,22.6641894 65.0808593,24.4179304 65.1390299,26.6393759 L65.3638429,35.2246362 C65.4317035,37.816131 67.489267,39.8650445 70.0770735,39.7972804 C72.4468386,39.735226 74.0469797,37.9108098 74.5565985,35.4450693 L74.3347648,26.9735819 C74.2765942,24.7521365 76.0277051,22.9042169 78.2459889,22.8461291 C80.4642726,22.7880413 82.3096963,24.5417823 82.3678669,26.7632278 L82.321839,25.0054932 C82.3896997,27.5969881 84.4472631,29.6459016 87.0350696,29.5781375 C89.4048348,29.516083 91.0049759,27.6916668 91.5145947,25.2259263 L91.280844,16.2993472 C91.2226734,14.0779017 92.9737842,12.2299821 95.192068,12.1718943 C97.4103518,12.1138065 99.2557755,13.8675475 99.3139461,16.088993 L99.7312366,32.024675 C99.7990973,34.6161698 101.856661,36.6650833 104.444467,36.5973192 C106.814232,36.5352647 108.414373,34.7108486 108.923992,32.2451081 L108.885849,30.7884697 C108.827678,28.5670242 110.578789,26.7191046 112.797073,26.6610168 C115.015357,26.602929 116.86078,28.35667 116.918951,30.5781155 L117.050354,35.5961918 C117.118215,38.1876866 119.175778,40.2366001 121.763585,40.168836 C124.13335,40.1067815 125.733491,38.2823654 126.24311,35.8166249 L126.129733,31.4869324 C126.071562,29.2654869 127.822673,27.4175673 130.040957,27.3594795 C132.25924,27.3013917 134.104664,29.0551327 134.162835,31.2765782 L134.234051,33.9962112 C134.301911,36.587706 136.359475,38.6366195 138.947281,38.5688554 C141.317047,38.5068009 142.917188,36.6823848 143.426806,34.2166443 L143.170501,24.4287235 C143.11233,22.2072781 144.863441,20.3593585 147.081725,20.3012706 C149.300009,20.2431828 151.145432,21.9969239 151.203603,24.2183693 L151.613355,39.8661713 C151.681216,42.4576661 153.738779,44.5065796 156.326586,44.4388155 C158.696351,44.376761 160.296492,42.5523449 160.806111,40.0866044 L160.587407,31.7346361 C160.529236,29.5131906 162.280347,27.665271 164.498631,27.6071832 C166.716914,27.5490954 168.562338,29.3028364 168.620509,31.5242819 L169.052846,48.0345747 C169.120707,50.6260695 171.17827,52.674983 173.766077,52.6072189 C176.135842,52.5451645 177.735983,50.7207483 178.245602,48.2550078 L177.926581,36.0721091 C177.868411,33.8506637 179.376807,32.0090998 181.595091,31.951012 C183.813375,31.8929241 185.416084,33.6530209 185.474254,35.8744663 C185.547607,38.6756941 187.894889,40.7371462 190.482695,40.6693821 C192.513349,40.6162076 194.675667,39.8023039 195.157886,36.2901972 L194.998692,30.2108146 C194.938445,27.9100729 196.608687,25.9998704 198.906154,25.9397091 C201.203621,25.8795478 202.971547,27.6997187 203.031794,30.0004604 C203.111933,33.0608377 205.169496,35.1097512 207.757302,35.0419871 C210.127068,34.9799326 211.727209,33.1555164 212.236827,30.689776 L212.03004,22.7928994 C211.97187,20.571454 213.722981,18.7235344 215.941265,18.6654465 C218.159548,18.6073587 220.004972,20.3610998 220.063143,22.5825452 L220.287956,31.1678056 C220.355816,33.7593004 222.41338,35.8082139 225.001186,35.7404498 C227.370951,35.6783953 228.971092,33.8539791 229.480711,31.3882387 L229.258877,22.9167513 C229.200707,20.6953058 230.951818,18.8473862 233.170102,18.7892984 C235.388385,18.7312106 237.233809,20.4849516 237.29198,22.7063971 L237.245952,20.9486626 C237.313812,23.5401574 239.371376,25.5890709 241.959182,25.5213068 C244.328947,25.4592523 245.929089,23.6348361 246.438707,21.1690957 L246.204957,12.2425165 C246.146786,10.0210711 247.897897,8.17315145 250.116181,8.11506365 C252.334464,8.05697584 254.179888,9.81071688 254.238059,12.0321623 L254.655349,27.9678443 C254.72321,30.5593392 256.780773,32.6082527 259.36858,32.5404886 C261.738345,32.4784341 263.338486,30.6540179 263.848105,28.1882774 L263.809962,26.731639 C263.751791,24.5101936 265.502902,22.6622739 267.721186,22.6041861 C269.939469,22.5460983 271.784893,24.2998394 271.843064,26.5212848 L271.974467,31.5393612 C272.042327,34.130856 274.099891,36.1797695 276.687697,36.1120054 C279.057462,36.0499509 280.657603,34.2255347 281.167222,31.7597943 L281.053845,27.4301017 C280.995675,25.2086562 282.746786,23.3607366 284.965069,23.3026488 C287.183353,23.244561 289.028777,24.9983021 289.086947,27.2197475 L289.158163,29.9393805 C289.226024,32.5308754 291.283588,34.5797889 293.871394,34.5120248 C296.241159,34.4499703 297.8413,32.6255541 298.350919,30.1598136 L298.094613,20.3718928 C298.036443,18.1504474 299.787554,16.3025278 302.005837,16.24444 C304.224121,16.1863522 306.069545,17.9400932 306.127716,20.1615387 L306.537468,35.8093407 C306.605328,38.4008355 308.662892,40.449749 311.250698,40.3819849 C313.620463,40.3199304 315.220604,38.4955142 315.730223,36.0297738 L315.511519,27.6778054 C315.453349,25.45636 317.20446,23.6084404 319.422743,23.5503525 C321.641027,23.4922647 323.486451,25.2460058 323.544621,27.4674512 L323.856585,39.3808575 C323.924446,41.9723523 325.982009,44.0212658 328.569816,43.9535017 C330.939581,43.8914472 332.539722,42.067031 333.049341,39.6012906 L332.850694,32.0152785 C332.792523,29.793833 334.30092,27.9522691 336.519203,27.8941813 C338.737487,27.8360935 340.340196,29.5961902 340.398367,31.8176357 C340.47172,34.6188634 342.819002,36.6803156 345.406808,36.6125515 C347.437461,36.5593769 349.59978,35.7454733 350.081998,32.2333665 L349.922804,26.153984 C349.862557,23.8532422 351.532799,21.9430397 353.830267,21.8828784 C356.127734,21.8227171 357.895659,23.642888 357.955906,25.9436298 C358.036045,29.004007 360.093609,31.0529205 362.681415,30.9851564 C365.05118,30.9231019 366.651321,29.0986858 367.16094,26.6329453 L366.954153,18.7360687 C366.895983,16.5146233 368.647093,14.6667037 370.865377,14.6086159 C373.083661,14.5505281 374.929085,16.3042691 374.987255,18.5257146 L375.212068,27.1109749 C375.279929,29.7024697 377.337492,31.7513832 379.925299,31.6836191 C382.295064,31.6215646 383.895205,29.7971485 384.404824,27.331408 L384.18299,18.8599206 C384.12482,16.6384752 385.87593,14.7905556 388.094214,14.7324677 C390.312498,14.6743799 392.157922,16.428121 392.216092,18.6495664 L392.170064,16.8918319 C392.237925,19.4833267 394.295489,21.5322402 396.883295,21.4644761 C399.25306,21.4024216 400.853201,19.5780055 401.36282,17.112265 L401.129069,8.18568585 C401.070899,5.9642404 402.82201,4.11632079 405.040293,4.05823299 C407.258577,4.00014518 409.104001,5.75388622 409.162171,7.97533167 L409.579462,23.9110137 C409.647323,26.5025085 411.704886,28.551422 414.292693,28.4836579 C416.662458,28.4216034 418.262599,26.5971872 418.772218,24.1314468 L418.734074,22.6748083 C418.675904,20.4533629 420.427014,18.6054433 422.645298,18.5473555 C424.863582,18.4892677 426.709006,20.2430087 426.767176,22.4644542 L426.898579,27.4825305 C426.96644,30.0740253 429.024003,32.1229388 431.61181,32.0551747 C433.981575,31.9931202 435.581716,30.1687041 436.091335,27.7029636 L435.977958,23.373271 C435.919787,21.1518256 437.670898,19.303906 439.889182,19.2458182 C442.107466,19.1877304 443.952889,20.9414714 444.01106,23.1629168 L444.082276,25.8825499 C444.150137,28.4740447 446.2077,30.5229582 448.795507,30.4551941 C451.165272,30.3931396 452.765413,28.5687234 453.275032,26.102983 L453.018726,16.3150622 C452.960555,14.0936167 454.711666,12.2456971 456.92995,12.1876093 C459.148234,12.1295215 460.993658,13.8832626 461.051828,16.104708 L461.46158,31.75251 C461.529441,34.3440048 463.587004,36.3929183 466.174811,36.3251542 C468.544576,36.2630997 470.144717,34.4386836 470.654336,31.9729431 L470.435632,23.6209747 C470.377461,21.3995293 472.128572,19.5516097 474.346856,19.4935219 C476.56514,19.4354341 478.410563,21.1891751 478.468734,23.4106206 L478.901071,39.9209134 C478.968932,42.5124082 481.026495,44.5613217 483.614302,44.4935576 C485.984067,44.4315031 487.584208,42.607087 488.093827,40.1413465 L487.774807,27.9584478 C487.716636,25.7370023 489.225032,23.8954384 491.443316,23.8373506 C493.6616,23.7792628 495.264309,25.5393596 495.32248,27.760805 C495.395832,30.5620328 497.743114,32.6234849 500.330921,32.5557208 C502.361574,32.5025463 504.523892,31.6886426 505.006111,28.1765358 L504.846917,22.0971533 C504.78667,19.7964116 506.456912,17.886209 508.754379,17.8260477 C511.051847,17.7658864 512.819772,19.5860574 512.880019,21.8867991 C512.960158,24.9471764 515.017721,26.9960899 517.605528,26.9283258 C519.975293,26.8662713 521.575434,25.0418551 522.085053,22.5761147 L521.878266,14.6792381 C521.820095,12.4577926 523.571206,10.609873 525.78949,10.5517852 C528.007774,10.4936974 529.853197,12.2474385 529.911368,14.4688839 L530.136181,23.0541442 C530.204042,25.6456391 532.261605,27.6945526 534.849412,27.6267885 C537.219177,27.564734 538.819318,25.7403178 539.328937,23.2745773 L539.107103,14.8030899 C539.048932,12.5816445 540.800043,10.7337249 543.018327,10.6756371 C545.236611,10.6175493 547.082034,12.3712903 547.140205,14.5927358 L547.094177,12.8350013 C547.162038,15.4264961 549.219601,17.4754096 551.807408,17.4076455 C554.177173,17.345591 555.777314,15.5211748 556.286933,13.0554344 L556.053182,4.12885519 C555.995011,1.90740974 557.746122,0.0594901267 559.964406,0.00140232173 C562.18269,-0.0566854833 564.028114,1.69705556 564.086284,3.918501 L564.503575,19.854183 C564.571435,22.4456778 566.628999,24.4945913 569.216805,24.4268272 C571.58657,24.3647727 573.186712,22.5403566 573.69633,20.0746161 L573.658187,18.6179777 C573.600016,16.3965322 575.351127,14.5486126 577.569411,14.4905248 C579.787695,14.432437 581.633118,16.186178 581.691289,18.4076235 L581.822692,23.4256998 C581.890553,26.0171946 583.948116,28.0661081 586.535923,27.998344 C588.905688,27.9362896 590.505829,26.1118734 591.015448,23.6461329 L590.902071,19.3164404 C590.8439,17.0949949 592.595011,15.2470753 594.813295,15.1889875 C597.031578,15.1308997 598.877002,16.8846407 598.935173,19.1060862 L599.006389,21.8257192 C599.07425,24.417214 601.131813,26.4661275 603.719619,26.3983634 C606.089385,26.3363089 607.689526,24.5118928 608.199144,22.0461523 L607.942839,12.2582315 C607.884668,10.0367861 609.635779,8.18886646 611.854063,8.13077866 C614.072347,8.07269085 615.91777,9.82643189 615.975941,12.0478773 L616.385693,27.6956793 C616.453554,30.2871741 618.511117,32.3360876 621.098924,32.2683235 C623.468689,32.2062691 625.06883,30.3818529 625.578449,27.9161124 L625.359745,19.5641441 C625.301574,17.3426986 627.052685,15.494779 629.270969,15.4366912 C631.489252,15.3786034 633.334676,17.1323445 633.392847,19.3537899 L633.825184,35.8640827 C633.893045,38.4555776 635.950608,40.504491 638.538415,40.436727 C640.90818,40.3746725 642.508321,38.5502563 643.01794,36.0845158 L642.821821,28.5950383 C642.76365,26.3735929 644.514761,24.5256733 646.733045,24.4675855 C648.951329,24.4094977 650.796752,26.1632387 650.854923,28.3846842 L651.204488,41.7340428 C651.272349,44.3255377 653.329912,46.3744512 655.917719,46.3066871 C658.287484,46.2446326 659.887625,44.4202164 660.397244,41.9544759 L660.374147,41.0724483 C660.315976,38.8510029 662.067087,37.0030833 664.285371,36.9449955 C666.503655,36.8869077 668.349079,38.6406487 668.407249,40.8620941 L668.643979,49.9024463 C668.71184,52.4939411 670.769403,54.5428546 673.35721,54.4750905 C675.726975,54.413036 677.327116,52.5886198 677.836735,50.1228794 L677.813638,49.2408517 C677.755467,47.0194063 679.506578,45.1714867 681.724862,45.1133989 C683.943146,45.0553111 685.78857,46.8090521 685.84674,49.0304976 L686.008237,55.1977955 C686.076097,57.7892904 688.133661,59.8382039 690.721467,59.7704398 C693.091232,59.7083853 694.691373,57.8839691 695.200992,55.4182286 L695.177896,54.536201 C695.119725,52.3147556 696.870836,50.466836 699.840293,50.4087482 C702.058577,50.466836 703.809688,52.3147556 703.751518,54.536201 L703.728421,55.4182286 C704.23804,57.8839691 705.838181,59.7083853 708.207946,59.7704398 C710.795752,59.8382039 712.853316,57.7892904 712.921176,55.1977955 L713.082673,49.0304976 C713.140843,46.8090521 714.986267,45.0553111 717.204551,45.1133989 C719.422835,45.1714867 721.173946,47.0194063 721.115775,49.2408517 L721.092678,50.1228794 C721.602297,52.5886198 723.202438,54.413036 725.572203,54.4750905 C728.16001,54.5428546 730.217573,52.4939411 730.285434,49.9024463 L730.522164,40.8620941 C730.580334,38.6406487 732.425758,36.8869077 734.644042,36.9449955 C736.862326,37.0030833 738.613437,38.8510029 738.555266,41.0724483 L738.532169,41.9544759 C739.041788,44.4202164 740.641929,46.2446326 743.011694,46.3066871 C745.599501,46.3744512 747.657064,44.3255377 747.724925,41.7340428 L748.07449,28.3846842 C748.132661,26.1632387 749.978084,24.4094977 752.196368,24.4675855 C754.414652,24.5256733 756.165763,26.3735929 756.107592,28.5950383 L755.911473,36.0845158 C756.421092,38.5502563 758.021233,40.3746725 760.390998,40.436727 C762.978805,40.504491 765.036368,38.4555776 765.104229,35.8640827 L765.536566,19.3537899 C765.594737,17.1323445 767.440161,15.3786034 769.658444,15.4366912 C771.876728,15.494779 773.627839,17.3426986 773.569668,19.5641441 L773.350964,27.9161124 C773.860583,30.3818529 775.460724,32.2062691 777.830489,32.2683235 C780.418296,32.3360876 782.475859,30.2871741 782.54372,27.6956793 L782.953472,12.0478773 C783.011643,9.82643189 784.857066,8.07269085 787.07535,8.13077866 C789.293634,8.18886646 791.044745,10.0367861 790.986574,12.2582315 L790.730269,22.0461523 C791.239887,24.5118928 792.840028,26.3363089 795.209794,26.3983634 C797.7976,26.4661275 799.855164,24.417214 799.923024,21.8257192 L799.99424,19.1060862 C800.052411,16.8846407 801.897835,15.1308997 804.116118,15.1889875 C806.334402,15.2470753 808.085513,17.0949949 808.027342,19.3164404 L807.913965,23.6461329 C808.423584,26.1118734 810.023725,27.9362896 812.39349,27.998344 C814.981297,28.0661081 817.03886,26.0171946 817.106721,23.4256998 L817.238124,18.4076235 C817.296295,16.186178 819.141718,14.432437 821.360002,14.4905248 C823.578286,14.5486126 825.329397,16.3965322 825.271226,18.6179777 L825.233083,20.0746161 C825.742702,22.5403566 827.342843,24.3647727 829.712608,24.4268272 C832.300414,24.4945913 834.357978,22.4456778 834.425838,19.854183 L834.843129,3.918501 C834.901299,1.69705556 836.746723,-0.0566854833 838.965007,0.00140232173 C841.183291,0.0594901267 842.934402,1.90740974 842.876231,4.12885519 L842.64248,13.0554344 C843.152099,15.5211748 844.75224,17.345591 847.122005,17.4076455 C849.709812,17.4754096 851.767375,15.4264961 851.835236,12.8350013 L851.789208,14.5927358 C851.847379,12.3712903 853.692802,10.6175493 855.911086,10.6756371 C858.12937,10.7337249 859.880481,12.5816445 859.82231,14.8030899 L859.600477,23.2745773 C860.110095,25.7403178 861.710236,27.564734 864.080002,27.6267885 C866.667808,27.6945526 868.725371,25.6456391 868.793232,23.0541442 L869.018045,14.4688839 C869.076216,12.2474385 870.921639,10.4936974 873.139923,10.5517852 C875.358207,10.609873 877.109318,12.4577926 877.051147,14.6792381 L876.84436,22.5761147 C877.353979,25.0418551 878.95412,26.8662713 881.323885,26.9283258 C883.911692,26.9960899 885.969255,24.9471764 886.049394,21.8867991 C886.109641,19.5860574 887.877567,17.7658864 890.175034,17.8260477 C892.472501,17.886209 894.142743,19.7964116 894.082496,22.0971533 L893.923302,28.1765358 C894.405521,31.6886426 896.567839,32.5025463 898.598492,32.5557208 C901.186299,32.6234849 903.533581,30.5620328 903.606933,27.760805 C903.665104,25.5393596 905.267813,23.7792628 907.486097,23.8373506 C909.704381,23.8954384 911.212777,25.7370023 911.154607,27.9584478 L910.835586,40.1413465 C911.345205,42.607087 912.945346,44.4315031 915.315111,44.4935576 C917.902918,44.5613217 919.960481,42.5124082 920.028342,39.9209134 L920.460679,23.4106206 C920.51885,21.1891751 922.364273,19.4354341 924.582557,19.4935219 C926.800841,19.5516097 928.551952,21.3995293 928.493781,23.6209747 L928.275077,31.9729431 C928.784696,34.4386836 930.384837,36.2630997 932.754602,36.3251542 C935.342409,36.3929183 937.399972,34.3440048 937.467833,31.75251 L937.877585,16.104708 C937.935755,13.8832626 939.781179,12.1295215 941.999463,12.1876093 C944.217747,12.2456971 945.968858,14.0936167 945.910687,16.3150622 L945.654381,26.102983 C946.164,28.5687234 947.764141,30.3931396 950.133906,30.4551941 C952.721713,30.5229582 954.779276,28.4740447 954.847137,25.8825499 L954.918353,23.1629168 C954.976524,20.9414714 956.821947,19.1877304 959.040231,19.2458182 C961.258515,19.303906 963.009626,21.1518256 962.951455,23.373271 L962.838078,27.7029636 C963.347697,30.1687041 964.947838,31.9931202 967.317603,32.0551747 C969.90541,32.1229388 971.962973,30.0740253 972.030834,27.4825305 L972.162237,22.4644542 C972.220407,20.2430087 974.065831,18.4892677 976.284115,18.5473555 C978.502399,18.6054433 980.253509,20.4533629 980.195339,22.6748083 L980.157195,24.1314468 C980.666814,26.5971872 982.266955,28.4216034 984.63672,28.4836579 C987.224527,28.551422 989.28209,26.5025085 989.349951,23.9110137 L989.767242,7.97533167 C989.825412,5.75388622 991.670836,4.00014518 993.88912,4.05823299 C996.107403,4.11632079 997.858514,5.9642404 997.800344,8.18568585 L997.566593,17.112265 C998.076212,19.5780055 999.676353,21.4024216 1002.04612,21.4644761 C1004.63392,21.5322402 1006.69149,19.4833267 1006.75935,16.8918319 L1006.71332,18.6495664 C1006.77149,16.428121 1008.61692,14.6743799 1010.8352,14.7324677 C1013.05348,14.7905556 1014.80459,16.6384752 1014.74642,18.8599206 L1014.52459,27.331408 C1015.03421,29.7971485 1016.63435,31.6215646 1019.00411,31.6836191 C1021.59192,31.7513832 1023.64948,29.7024697 1023.71734,27.1109749 L1023.94216,18.5257146 C1024.00033,16.3042691 1025.84575,14.5505281 1028.06404,14.6086159 C1030.28232,14.6667037 1032.03343,16.5146233 1031.97526,18.7360687 L1031.76847,26.6329453 C1032.27809,29.0986858 1033.87823,30.9231019 1036.248,30.9851564 C1038.8358,31.0529205 1040.89337,29.004007 1040.97351,25.9436298 C1041.03375,23.642888 1042.80168,21.8227171 1045.09915,21.8828784 C1047.39661,21.9430397 1049.06686,23.8532422 1049.00661,26.153984 L1048.84741,32.2333665 C1049.32963,35.7454733 1051.49195,36.5593769 1053.52261,36.6125515 C1056.11041,36.6803156 1058.45769,34.6188634 1058.53105,31.8176357 C1058.58922,29.5961902 1060.19193,27.8360935 1062.41021,27.8941813 C1064.62849,27.9522691 1066.13689,29.793833 1066.07872,32.0152785 L1065.88007,39.6012906 C1066.38969,42.067031 1067.98983,43.8914472 1070.3596,43.9535017 C1072.9474,44.0212658 1075.00497,41.9723523 1075.07283,39.3808575 L1075.38479,27.4674512 C1075.44296,25.2460058 1077.28839,23.4922647 1079.50667,23.5503525 C1081.72495,23.6084404 1083.47606,25.45636 1083.41789,27.6778054 L1083.19919,36.0297738 C1083.70881,38.4955142 1085.30895,40.3199304 1087.67871,40.3819849 C1090.26652,40.449749 1092.32408,38.4008355 1092.39195,35.8093407 L1092.8017,20.1615387 C1092.85987,17.9400932 1094.70529,16.1863522 1096.92358,16.24444 C1099.14186,16.3025278 1100.89297,18.1504474 1100.8348,20.3718928 L1100.57849,30.1598136 C1101.08811,32.6255541 1102.68825,34.4499703 1105.05802,34.5120248 C1107.64583,34.5797889 1109.70339,32.5308754 1109.77125,29.9393805 L1109.84247,27.2197475 C1109.90064,24.9983021 1111.74606,23.244561 1113.96434,23.3026488 C1116.18263,23.3607366 1117.93374,25.2086562 1117.87557,27.4301017 L1117.76219,31.7597943 C1118.27181,34.2255347 1119.87195,36.0499509 1122.24172,36.1120054 C1124.82952,36.1797695 1126.88709,34.130856 1126.95495,31.5393612 L1127.08635,26.5212848 C1127.14452,24.2998394 1128.98994,22.5460983 1131.20823,22.6041861 C1133.42651,22.6622739 1135.17762,24.5101936 1135.11945,26.731639 L1135.08131,28.1882774 C1135.59093,30.6540179 1137.19107,32.4784341 1139.56083,32.5404886 C1142.14864,32.6082527 1144.2062,30.5593392 1144.27406,27.9678443 L1144.69135,12.0321623 C1144.74952,9.81071688 1146.59495,8.05697584 1148.81323,8.11506365 C1151.03152,8.17315145 1152.78263,10.0210711 1152.72446,12.2425165 L1152.49071,21.1690957 C1153.00032,23.6348361 1154.60047,25.4592523 1156.97023,25.5213068 C1159.55804,25.5890709 1161.6156,23.5401574 1161.68346,20.9486626 L1161.63743,22.7063971 C1161.6956,20.4849516 1163.54103,18.7312106 1165.75931,18.7892984 C1167.9776,18.8473862 1169.72871,20.6953058 1169.67054,22.9167513 L1169.4487,31.3882387 C1169.95832,33.8539791 1171.55846,35.6783953 1173.92823,35.7404498 C1176.51603,35.8082139 1178.5736,33.7593004 1178.64146,31.1678056 L1178.86627,22.5825452 C1178.92444,20.3610998 1180.76986,18.6073587 1182.98815,18.6654465 C1185.20643,18.7235344 1186.95754,20.571454 1186.89937,22.7928994 L1186.69259,30.689776 C1187.2022,33.1555164 1188.80235,34.9799326 1191.17211,35.0419871 C1193.75992,35.1097512 1195.81748,33.0608377 1195.89762,30.0004604 C1195.95787,27.6997187 1197.72579,25.8795478 1200.02326,25.9397091 C1202.32073,25.9998704 1203.99097,27.9100729 1203.93072,30.2108146 L1203.77153,36.2901972 C1204.25375,39.8023039 1206.41606,40.6162076 1208.44672,40.6693821 C1211.03452,40.7371462 1213.38181,38.6756941 1213.45516,35.8744663 C1213.51333,33.6530209 1215.11604,31.8929241 1217.33432,31.951012 C1219.55261,32.0090998 1221.061,33.8506637 1221.00283,36.0721091 L1220.68381,48.2550078 C1221.19343,50.7207483 1222.79357,52.5451645 1225.16334,52.6072189 C1227.75114,52.674983 1229.80871,50.6260695 1229.87657,48.0345747 L1230.3089,31.5242819 C1230.36707,29.3028364 1232.2125,27.5490954 1234.43078,27.6071832 C1236.64907,27.665271 1238.40018,29.5131906 1238.34201,31.7346361 L1238.1233,40.0866044 C1238.63292,42.5523449 1240.23306,44.376761 1242.60283,44.4388155 C1245.19063,44.5065796 1247.2482,42.4576661 1247.31606,39.8661713 L1247.72581,24.2183693 C1247.78398,21.9969239 1249.6294,20.2431828 1251.84769,20.3012706 C1254.06597,20.3593585 1255.81708,22.2072781 1255.75891,24.4287235 L1255.50261,34.2166443 C1256.01223,36.6823848 1257.61237,38.5068009 1259.98213,38.5688554 C1262.56994,38.6366195 1264.6275,36.587706 1264.69536,33.9962112 L1264.76658,31.2765782 C1264.82475,29.0551327 1266.67017,27.3013917 1268.88846,27.3594795 C1271.10674,27.4175673 1272.85785,29.2654869 1272.79968,31.4869324 L1272.6863,35.8166249 C1273.19592,38.2823654 1274.79606,40.1067815 1277.16583,40.168836 C1279.75364,40.2366001 1281.8112,38.1876866 1281.87906,35.5961918 L1282.01046,30.5781155 C1282.06863,28.35667 1283.91406,26.602929 1286.13234,26.6610168 C1288.35062,26.7191046 1290.10173,28.5670242 1290.04356,30.7884697 L1290.00542,32.2451081 C1290.51504,34.7108486 1292.11518,36.5352647 1294.48495,36.5973192 C1297.07275,36.6650833 1299.13032,34.6161698 1299.19818,32.024675 L1299.61547,16.088993 C1299.67364,13.8675475 1301.51906,12.1138065 1303.73735,12.1718943 C1305.95563,12.2299821 1307.70674,14.0779017 1307.64857,16.2993472 L1307.41482,25.2259263 C1307.92444,27.6916668 1309.52458,29.516083 1311.89434,29.5781375 C1314.48215,29.6459016 1316.53971,27.5969881 1316.60757,25.0054932 L1316.56155,26.7632278 C1316.61972,24.5417823 1318.46514,22.7880413 1320.68342,22.8461291 C1322.90171,22.9042169 1324.65282,24.7521365 1324.59465,26.9735819 L1324.37281,35.4450693 C1324.88243,37.9108098 1326.48257,39.735226 1328.85234,39.7972804 C1331.44015,39.8650445 1333.49771,37.816131 1333.56557,35.2246362 L1333.79038,26.6393759 C1333.84855,24.4179304 1335.69398,22.6641894 1337.91226,22.7222772 C1340.13054,22.780365 1341.88166,24.6282846 1341.82349,26.8497301 L1341.6167,34.7466066 C1342.12632,37.2123471 1343.72646,39.0367633 1346.09622,39.0988178 C1348.68403,39.1665819 1350.74159,37.1176684 1350.82173,34.0572911 C1350.88198,31.7565494 1352.6499,29.9363784 1354.94737,29.9965397 C1357.24484,30.056701 1358.91508,31.9669035 1358.85483,34.2676453 L1358.69564,40.3470278 C1359.17786,43.8591346 1361.34018,44.6730383 1363.37083,44.7262128 C1365.95864,44.7939769 1368.30592,42.7325248 1368.37927,39.931297 C1368.43744,37.7098516 1370.04015,35.9497548 1372.25843,36.0078426 C1374.47672,36.0659304 1375.98512,37.9074943 1375.92694,40.1289398 L1375.7283,47.7149519 C1376.23792,50.1806924 1377.83806,52.0051085 1380.20782,52.067163 C1382.79563,52.1349271 1384.85319,50.0860136 1384.91704,47.6479399 C1384.97521,45.4264944 1386.82063,43.6727534 1389.03891,43.7308412 C1391.2572,43.788929 1393.00831,45.6368486 1392.94209,48.1657109 C1393.45171,50.6314513 1395.05185,52.4558675 1397.42161,52.517922 C1397.79185,52.527617 1398.31798,52.6739451 1399,52.9569062 C1401.87756,52.9088687 1403.47771,51.0844526 1403.98732,48.6187121 C1403.9211,46.0898498 1405.67222,44.2419302 1407.8905,44.1838424 C1410.10878,44.1257546 1411.95421,45.8794957 1412.01238,48.1009411 C1412.07622,50.5390148 1414.13378,52.5879283 1416.72159,52.5201642 C1419.09136,52.4581098 1420.6915,50.6336936 1421.20112,48.1679531 L1421.00247,40.581941 C1420.9443,38.3604956 1422.45269,36.5189317 1424.67098,36.4608439 C1426.88926,36.402756 1428.49197,38.1628528 1428.55014,40.3842982 C1428.62349,43.185526 1430.97078,45.2469781 1433.55858,45.179214 C1435.58924,45.1260395 1437.75155,44.3121358 1438.23377,40.8000291 L1438.07458,34.7206465 C1438.01433,32.4199048 1439.68457,30.5097022 1441.98204,30.449541 C1444.27951,30.3893797 1446.04743,32.2095506 1446.10768,34.5102923 C1446.18782,37.5706696 1448.24538,39.6195831 1450.83319,39.551819 C1453.20295,39.4897645 1454.8031,37.6653483 1455.31271,35.1996079 L1455.10593,27.3027313 C1455.04776,25.0812859 1456.79887,23.2333662 1459.01715,23.1752784 C1461.23544,23.1171906 1463.08086,24.8709317 1463.13903,27.0923771 L1463.36384,35.6776375 C1463.4317,38.2691323 1465.48927,40.3180458 1468.07707,40.2502817 C1470.44684,40.1882272 1472.04698,38.363811 1472.5566,35.8980706 L1472.33476,27.4265832 C1472.27659,25.2051377 1474.02771,23.3572181 1476.24599,23.2991303 C1478.46427,23.2410425 1480.3097,24.9947835 1480.36787,27.216229 L1480.32184,25.4584945 C1480.3897,28.0499893 1482.44726,30.0989028 1485.03507,30.0311387 C1487.40483,29.9690842 1489.00498,28.144668 1489.51459,25.6789276 L1489.28084,16.7523484 C1489.22267,14.530903 1490.97378,12.6829834 1493.19207,12.6248955 C1495.41035,12.5668077 1497.25578,14.3205488 1497.31395,16.5419942 L1497.73124,32.4776762 C1497.7991,35.0691711 1499.85666,37.1180846 1502.44447,37.0503205 C1504.81423,36.988266 1506.41437,35.1638498 1506.92399,32.6981093 L1506.88585,31.2414709 C1506.82768,29.0200254 1508.57879,27.1721058 1510.79707,27.114018 C1513.01536,27.0559302 1514.86078,28.8096713 1514.91895,31.0311167 L1515.05035,36.049193 C1515.11821,38.6406879 1517.17578,40.6896014 1519.76358,40.6218373 C1522.13335,40.5597828 1523.73349,38.7353666 1524.24311,36.2696262 L1524.12973,31.9399336 C1524.07156,29.7184881 1525.82267,27.8705685 1528.04096,27.8124807 C1530.25924,27.7543929 1532.10466,29.508134 1532.16283,31.7295794 L1532.23405,34.4492124 C1532.30191,37.0407073 1534.35947,39.0896208 1536.94728,39.0218567 C1539.31705,38.9598022 1540.91719,37.135386 1541.42681,34.6696455 L1541.1705,24.8817247 C1541.11233,22.6602793 1542.86344,20.8123597 1545.08172,20.7542719 C1547.30001,20.6961841 1549.14543,22.4499251 1549.2036,24.6713706 L1549.61335,40.3191725 C1549.68122,42.9106674 1551.73878,44.9595809 1554.32659,44.8918168 C1556.69635,44.8297623 1558.29649,43.0053461 1558.80611,40.5396056 L1558.58741,32.1876373 C1558.52924,29.9661919 1560.28035,28.1182722 1562.49863,28.0601844 C1564.71691,28.0020966 1566.56234,29.7558377 1566.62051,31.9772831 L1567.05285,48.487576 C1567.12071,51.0790708 1569.17827,53.1279843 1571.76608,53.0602202 C1574.13584,52.9981657 1575.73598,51.1737495 1576.2456,48.7080091 L1575.92658,36.5251104 C1575.86841,34.3036649 1577.37681,32.462101 1579.59509,32.4040132 C1581.81337,32.3459254 1583.41608,34.1060221 1583.47425,36.3274676 C1583.54761,39.1286953 1585.89489,41.1901475 1588.4827,41.1223834 C1590.51335,41.0692088 1592.67567,40.2553052 1593.15789,36.7431984 L1592.99869,30.6638159 C1592.93844,28.3630741 1594.60869,26.4528716 1596.90615,26.3927103 C1599.20362,26.332549 1600.97155,28.1527199 1601.03179,30.4534617 C1601.11193,33.5138389 1603.1695,35.5627524 1605.7573,35.4949883 C1608.12707,35.4329338 1609.72721,33.6085177 1610.23683,31.1427772 L1610.03004,23.2459006 C1609.97187,21.0244552 1611.72298,19.1765356 1613.94126,19.1184478 C1616.15955,19.06036 1618.00497,20.814101 1618.06314,23.0355465 L1618.28796,31.6208068 C1618.35582,34.2123016 1620.41338,36.2612151 1623.00119,36.193451 C1625.37095,36.1313965 1626.97109,34.3069804 1627.48071,31.8412399 L1627.25888,23.3697525 C1627.20071,21.1483071 1628.95182,19.3003874 1631.1701,19.2422996 C1633.38839,19.1842118 1635.23381,20.9379529 1635.29198,23.1593983 L1635.24595,21.4016638 C1635.31381,23.9931586 1637.37138,26.0420721 1639.95918,25.974308 C1642.32895,25.9122535 1643.92909,24.0878374 1644.43871,21.6220969 L1644.20496,12.6955177 C1644.14679,10.4740723 1645.8979,8.62615269 1648.11618,8.56806488 C1650.33446,8.50997708 1652.17989,10.2637181 1652.23806,12.4851636 L1652.65535,28.4208456 C1652.72321,31.0123404 1654.78077,33.0612539 1657.36858,32.9934898 C1659.73835,32.9314353 1661.33849,31.1070191 1661.8481,28.6412787 L1661.80996,27.1846402 C1661.75179,24.9631948 1663.5029,23.1152752 1665.72119,23.0571874 C1667.93947,22.9990996 1669.78489,24.7528406 1669.84306,26.9742861 L1669.97447,31.9923624 C1670.04233,34.5838572 1672.09989,36.6327707 1674.6877,36.5650066 C1677.05746,36.5029521 1678.6576,34.678536 1679.16722,32.2127955 L1679.05385,27.8831029 C1678.99567,25.6616575 1680.74679,23.8137379 1682.96507,23.7556501 C1685.18335,23.6975623 1687.02878,25.4513033 1687.08695,27.6727487 L1687.15816,30.3923818 C1687.22602,32.9838766 1689.28359,35.0327901 1691.87139,34.965026 C1694.24116,34.9029715 1695.8413,33.0785553 1696.35092,30.6128149 L1696.09461,20.8248941 C1696.03644,18.6034486 1697.78755,16.755529 1700.00584,16.6974412 C1702.22412,16.6393534 1704.06954,18.3930945 1704.12772,20.6145399 L1704.53747,36.2623419 C1704.60533,38.8538367 1706.66289,40.9027502 1709.2507,40.8349861 C1711.62046,40.7729316 1713.2206,38.9485155 1713.73022,36.482775 L1713.51152,28.1308066 C1713.45335,25.9093612 1715.20446,24.0614416 1717.42274,24.0033538 C1719.64103,23.945266 1721.48645,25.699007 1721.54462,27.9204525 L1721.85658,39.8338587 C1721.92445,42.4253535 1723.98201,44.474267 1726.56982,44.4065029 C1728.93958,44.3444484 1730.53972,42.5200323 1731.04934,40.0542918 L1730.85069,32.4682797 C1730.79252,30.2468342 1732.30092,28.4052703 1734.5192,28.3471825 C1736.73749,28.2890947 1738.3402,30.0491915 1738.39837,32.2706369 C1738.47172,35.0718647 1740.819,37.1333168 1743.40681,37.0655527 C1745.43746,37.0123782 1747.59978,36.1984745 1748.082,32.6863677 L1747.9228,26.6069852 C1747.86256,24.3062435 1749.5328,22.3960409 1751.83027,22.3358796 C1754.12773,22.2757183 1755.89566,24.0958893 1755.95591,26.396631 C1756.03605,29.4570083 1758.09361,31.5059218 1760.68142,31.4381577 C1763.05118,31.3761032 1764.65132,29.551687 1765.16094,27.0859465 L1764.95415,19.18907 C1764.89598,16.9676245 1766.64709,15.1197049 1768.86538,15.0616171 C1771.08366,15.0035293 1772.92908,16.7572704 1772.98726,18.9787158 L1773.21207,27.5639761 C1773.27993,30.155471 1775.33749,32.2043844 1777.9253,32.1366204 C1780.29506,32.0745659 1781.89521,30.2501497 1782.40482,27.7844092 L1782.18299,19.3129218 C1782.12482,17.0914764 1783.87593,15.2435568 1786.09421,15.185469 C1788.3125,15.1273812 1790.15792,16.8811222 1790.21609,19.1025677 L1790.17006,17.3448331 C1790.23793,19.936328 1792.29549,21.9852415 1794.8833,21.9174774 C1797.25306,21.8554229 1798.8532,20.0310067 1799.36282,17.5652662 L1799.12907,8.63868708 C1799.0709,6.41724164 1800.82201,4.56932202 1803.04029,4.51123422 C1805.25858,4.45314641 1807.104,6.20688745 1807.16217,8.4283329 L1807.57946,24.3640149 C1807.64732,26.9555097 1809.70489,29.0044232 1812.29269,28.9366591 C1814.66246,28.8746046 1816.2626,27.0501885 1816.77222,24.584448 L1816.73407,23.1278096 C1816.6759,20.9063641 1818.42701,19.0584445 1820.6453,19.0003567 C1822.86358,18.9422689 1824.70901,20.6960099 1824.76718,22.9174554 L1824.89858,27.9355317 C1824.96644,30.5270265 1827.024,32.57594 1829.61181,32.5081759 C1831.98158,32.4461215 1833.58172,30.6217053 1834.09133,28.1559648 L1833.97796,23.8262723 C1833.91979,21.6048268 1835.6709,19.7569072 1837.88918,19.6988194 C1840.10747,19.6407316 1841.95289,21.3944726 1842.01106,23.6159181 L1842.08228,26.3355511 C1842.15014,28.9270459 1844.2077,30.9759594 1846.79551,30.9081953 C1849.16527,30.8461408 1850.76541,29.0217247 1851.27503,26.5559842 L1851.01873,16.7680634 C1850.96056,14.546618 1852.71167,12.6986984 1854.92995,12.6406106 C1857.14823,12.5825227 1858.99366,14.3362638 1859.05183,16.5577092 L1859.46158,32.2055112 C1859.52944,34.797006 1861.587,36.8459195 1864.17481,36.7781554 C1866.54458,36.716101 1868.14472,34.8916848 1868.65434,32.4259443 L1868.43563,24.073976 C1868.37746,21.8525305 1870.12857,20.0046109 1872.34686,19.9465231 C1874.56514,19.8884353 1876.41056,21.6421763 1876.46873,23.8636218 L1876.90107,40.3739146 C1876.96893,42.9654095 1879.0265,45.0143229 1881.6143,44.9465588 C1883.98407,44.8845044 1885.58421,43.0600882 1886.09383,40.5943477 L1885.77481,28.411449 C1885.71664,26.1900036 1887.22503,24.3484397 1889.44332,24.2903519 C1891.6616,24.2322641 1893.26431,25.9923608 1893.32248,28.2138062 C1893.39583,31.015034 1895.74311,33.0764861 1898.33092,33.008722 C1900.36157,32.9555475 1902.52389,32.1416438 1903.00611,28.6295371 L1902.84692,22.5501545 C1902.78667,20.2494128 1904.45691,18.3392103 1906.75438,18.279049 C1909.05185,18.2188877 1910.81977,20.0390586 1910.88002,22.3398003 C1910.96016,25.4001776 1913.01772,27.4490911 1915.60553,27.381327 C1917.97529,27.3192725 1919.57543,25.4948564 1920.08505,23.0291159 L1919.87827,15.1322393 C1919.8201,12.9107939 1921.57121,11.0628743 1923.78949,11.0047865 C1926.00777,10.9466986 1927.8532,12.7004397 1927.91137,14.9218851 L1928.13618,23.5071455 C1928.20404,26.0986403 1930.26161,28.1475538 1932.84941,28.0797897 C1935.21918,28.0177352 1936.81932,26.193319 1937.32894,23.7275786 L1937.1071,15.2560912 C1937.04893,13.0346457 1938.80004,11.1867261 1941.01833,11.1286383 C1943.23661,11.0705505 1945.08203,12.8242915 1945.1402,15.045737 L1945.09418,13.2880025 C1945.16204,15.8794973 1947.2196,17.9284108 1949.80741,17.8606467 C1952.17717,17.7985922 1953.77731,15.9741761 1954.28693,13.5084356 L1954.05318,4.58185642 C1953.99501,2.36041097 1955.74612,0.51249136 1957.96441,0.454403555 C1960.18269,0.39631575 1962.02811,2.15005679 1962.08628,4.37150224 L1962.50357,20.3071842 C1962.57144,22.8986791 1964.629,24.9475926 1967.21681,24.8798285 C1969.58657,24.817774 1971.18671,22.9933578 1971.69633,20.5276173 L1971.65819,19.0709789 C1971.60002,16.8495335 1973.35113,15.0016138 1975.56941,14.943526 C1977.78769,14.8854382 1979.63312,16.6391793 1979.69129,18.8606247 L1979.82269,23.8787011 C1979.89055,26.4701959 1981.94812,28.5191094 1984.53592,28.4513453 C1986.90569,28.3892908 1988.50583,26.5648746 1989.01545,24.0991342 L1988.90207,19.7694416 C1988.8439,17.5479961 1990.59501,15.7000765 1992.81329,15.6419887 C1995.03158,15.5839009 1996.877,17.337642 1996.93517,19.5590874 L1997.00639,22.2787204 C1997.07425,24.8702153 1999.13181,26.9191288 2001.71962,26.8513647 C2004.08938,26.7893102 2005.68953,24.964894 2006.19914,22.4991535 L2005.94284,12.7112328 C2005.88467,10.4897873 2007.63578,8.64186769 2009.85406,8.58377989 C2012.07235,8.52569208 2013.91777,10.2794331 2013.97594,12.5008786 L2014.38569,28.1486806 C2014.45355,30.7401754 2016.51112,32.7890889 2019.09892,32.7213248 C2021.46869,32.6592703 2023.06883,30.8348541 2023.57845,28.3691137 L2023.35974,20.0171453 C2023.30157,17.7956999 2025.05268,15.9477803 2027.27097,15.8896925 C2029.48925,15.8316046 2031.33468,17.5853457 2031.39285,19.8067911 L2031.82518,36.317084 C2031.89304,38.9085788 2033.95061,40.9574923 2036.53841,40.8897282 C2038.90818,40.8276737 2040.50832,39.0032575 2041.01794,36.5375171 L2040.82182,29.0480396 C2040.76365,26.8265941 2042.51476,24.9786745 2044.73304,24.9205867 C2046.95133,24.8624989 2048.79675,26.6162399 2048.85492,28.8376854 L2049.20449,42.1870441 C2049.27235,44.7785389 2051.32991,46.8274524 2053.91772,46.7596883 C2056.28748,46.6976338 2057.88763,44.8732176 2058.39724,42.4074772 L2058.37415,41.5254496 C2058.31598,39.3040041 2060.06709,37.4560845 2062.28537,37.3979967 C2064.50365,37.3399089 2066.34908,39.0936499 2066.40725,41.3150954 L2066.64398,50.3554475 C2066.71184,52.9469423 2068.7694,54.9958558 2071.35721,54.9280917 C2073.72697,54.8660372 2075.32712,53.0416211 2075.83673,50.5758806 L2075.81364,49.693853 C2075.75547,47.4724075 2077.50658,45.6244879 2079.72486,45.5664001 C2081.94315,45.5083123 2083.78857,47.2620533 2083.84674,49.4834988 L2084.00824,55.6507968 C2084.0761,58.2422916 2086.13366,60.2912051 2088.72147,60.223441 C2091.09123,60.1613865 2092.69137,58.3369703 2093.20099,55.8712299 L2093.1779,54.9892023 C2093.11972,52.7677568 2094.87084,50.9198372 2097.84029,50.8617494 C2100.05858,50.9198372 2101.80969,52.7677568 2101.75152,54.9892023 L2101.72842,55.8712299 C2102.23804,58.3369703 2103.83818,60.1613865 2106.20795,60.223441 C2108.79575,60.2912051 2110.85332,58.2422916 2110.92118,55.6507968 L2111.08267,49.4834988 C2111.14084,47.2620533 2112.98627,45.5083123 2115.20455,45.5664001 C2117.42283,45.6244879 2119.17395,47.4724075 2119.11577,49.693853 L2119.09268,50.5758806 C2119.6023,53.0416211 2121.20244,54.8660372 2123.5722,54.9280917 C2126.16001,54.9958558 2128.21757,52.9469423 2128.28543,50.3554475 L2128.52216,41.3150954 C2128.58033,39.0936499 2130.42576,37.3399089 2132.64404,37.3979967 C2134.86233,37.4560845 2136.61344,39.3040041 2136.55527,41.5254496 L2136.53217,42.4074772 C2137.04179,44.8732176 2138.64193,46.6976338 2141.01169,46.7596883 C2143.5995,46.8274524 2145.65706,44.7785389 2145.72492,42.1870441 L2146.07449,28.8376854 C2146.13266,26.6162399 2147.97808,24.8624989 2150.19637,24.9205867 C2152.41465,24.9786745 2154.16576,26.8265941 2154.10759,29.0480396 L2153.91147,36.5375171 C2154.42109,39.0032575 2156.02123,40.8276737 2158.391,40.8897282 C2160.9788,40.9574923 2163.03637,38.9085788 2163.10423,36.317084 L2163.53657,19.8067911 C2163.59474,17.5853457 2165.44016,15.8316046 2167.65844,15.8896925 C2169.87673,15.9477803 2171.62784,17.7956999 2171.56967,20.0171453 L2171.35096,28.3691137 C2171.86058,30.8348541 2173.46072,32.6592703 2175.83049,32.7213248 C2178.4183,32.7890889 2180.47586,30.7401754 2180.54372,28.1486806 L2180.95347,12.5008786 C2181.01164,10.2794331 2182.85707,8.52569208 2185.07535,8.58377989 C2187.29363,8.64186769 2189.04474,10.4897873 2188.98657,12.7112328 L2188.73027,22.4991535 C2189.23989,24.964894 2190.84003,26.7893102 2193.20979,26.8513647 C2195.7976,26.9191288 2197.85516,24.8702153 2197.92302,22.2787204 L2197.99424,19.5590874 C2198.05241,17.337642 2199.89783,15.5839009 2202.11612,15.6419887 C2204.3344,15.7000765 2206.08551,17.5479961 2206.02734,19.7694416 L2205.91397,24.0991342 C2206.42358,26.5648746 2208.02373,28.3892908 2210.39349,28.4513453 C2212.9813,28.5191094 2215.03886,26.4701959 2215.10672,23.8787011 L2215.23812,18.8606247 C2215.29629,16.6391793 2217.14172,14.8854382 2219.36,14.943526 C2221.57829,15.0016138 2223.3294,16.8495335 2223.27123,19.0709789 L2223.23308,20.5276173 C2223.7427,22.9933578 2225.34284,24.817774 2227.71261,24.8798285 C2230.30041,24.9475926 2232.35798,22.8986791 2232.42584,20.3071842 L2232.84313,4.37150224 C2232.9013,2.15005679 2234.74672,0.39631575 2236.96501,0.454403555 C2239.18329,0.51249136 2240.9344,2.36041097 2240.87623,4.58185642 L2240.64248,13.5084356 C2241.1521,15.9741761 2242.75224,17.7985922 2245.12201,17.8606467 C2247.70981,17.9284108 2249.76738,15.8794973 2249.83524,13.2880025 L2249.78921,15.045737 C2249.84738,12.8242915 2251.6928,11.0705505 2253.91109,11.1286383 C2256.12937,11.1867261 2257.88048,13.0346457 2257.82231,15.2560912 L2257.60048,23.7275786 C2258.1101,26.193319 2259.71024,28.0177352 2262.08,28.0797897 C2264.66781,28.1475538 2266.72537,26.0986403 2266.79323,23.5071455 L2267.01805,14.9218851 C2267.07622,12.7004397 2268.92164,10.9466986 2271.13992,11.0047865 C2273.35821,11.0628743 2275.10932,12.9107939 2275.05115,15.1322393 L2274.84436,23.0291159 C2275.35398,25.4948564 2276.95412,27.3192725 2279.32389,27.381327 C2281.91169,27.4490911 2283.96926,25.4001776 2284.04939,22.3398003 C2284.10964,20.0390586 2285.87757,18.2188877 2288.17503,18.279049 C2290.4725,18.3392103 2292.14274,20.2494128 2292.0825,22.5501545 L2291.9233,28.6295371 C2292.40552,32.1416438 2294.56784,32.9555475 2296.59849,33.008722 C2299.1863,33.0764861 2301.53358,31.015034 2301.60693,28.2138062 C2301.6651,25.9923608 2303.26781,24.2322641 2305.4861,24.2903519 C2307.70438,24.3484397 2309.21278,26.1900036 2309.15461,28.411449 L2308.83559,40.5943477 C2309.3452,43.0600882 2310.94535,44.8845044 2313.31511,44.9465588 C2315.90292,45.0143229 2317.96048,42.9654095 2318.02834,40.3739146 L2318.46068,23.8636218 C2318.51885,21.6421763 2320.36427,19.8884353 2322.58256,19.9465231 C2324.80084,20.0046109 2326.55195,21.8525305 2326.49378,24.073976 L2326.27508,32.4259443 C2326.7847,34.8916848 2328.38484,36.716101 2330.7546,36.7781554 C2333.34241,36.8459195 2335.39997,34.797006 2335.46783,32.2055112 L2335.87758,16.5577092 C2335.93576,14.3362638 2337.78118,12.5825227 2339.99946,12.6406106 C2342.21775,12.6986984 2343.96886,14.546618 2343.91069,16.7680634 L2343.65438,26.5559842 C2344.164,29.0217247 2345.76414,30.8461408 2348.13391,30.9081953 C2350.72171,30.9759594 2352.77928,28.9270459 2352.84714,26.3355511 L2352.91835,23.6159181 C2352.97652,21.3944726 2354.82195,19.6407316 2357.04023,19.6988194 C2359.25851,19.7569072 2361.00963,21.6048268 2360.95146,23.8262723 L2360.83808,28.1559648 C2361.3477,30.6217053 2362.94784,32.4461215 2365.3176,32.5081759 C2367.90541,32.57594 2369.96297,30.5270265 2370.03083,27.9355317 L2370.16224,22.9174554 C2370.22041,20.6960099 2372.06583,18.9422689 2374.28411,19.0003567 C2376.5024,19.0584445 2378.25351,20.9063641 2378.19534,23.1278096 L2378.1572,24.584448 C2378.66681,27.0501885 2380.26696,28.8746046 2382.63672,28.9366591 C2385.22453,29.0044232 2387.28209,26.9555097 2387.34995,24.3640149 L2387.76724,8.4283329 C2387.82541,6.20688745 2389.67084,4.45314641 2391.88912,4.51123422 C2394.1074,4.56932202 2395.85851,6.41724164 2395.80034,8.63868708 L2395.56659,17.5652662 C2396.07621,20.0310067 2397.67635,21.8554229 2400.04612,21.9174774 C2402.63392,21.9852415 2404.69149,19.936328 2404.75935,17.3448331 L2404.71332,19.1025677 C2404.77149,16.8811222 2406.61692,15.1273812 2408.8352,15.185469 C2411.05348,15.2435568 2412.80459,17.0914764 2412.74642,19.3129218 L2412.52459,27.7844092 C2413.03421,30.2501497 2414.63435,32.0745659 2417.00411,32.1366204 C2419.59192,32.2043844 2421.64948,30.155471 2421.71734,27.5639761 L2421.94216,18.9787158 C2422.00033,16.7572704 2423.84575,15.0035293 2426.06404,15.0616171 C2428.28232,15.1197049 2430.03343,16.9676245 2429.97526,19.18907 L2429.76847,27.0859465 C2430.27809,29.551687 2431.87823,31.3761032 2434.248,31.4381577 C2436.8358,31.5059218 2438.89337,29.4570083 2438.97351,26.396631 C2439.03375,24.0958893 2440.80168,22.2757183 2443.09915,22.3358796 C2445.39661,22.3960409 2447.06686,24.3062435 2447.00661,26.6069852 L2446.84741,32.6863677 C2447.32963,36.1984745 2449.49195,37.0123782 2451.52261,37.0655527 C2454.11041,37.1333168 2456.45769,35.0718647 2456.53105,32.2706369 C2456.58922,30.0491915 2458.19193,28.2890947 2460.41021,28.3471825 C2462.62849,28.4052703 2464.13689,30.2468342 2464.07872,32.4682797 L2463.88007,40.0542918 C2464.38969,42.5200323 2465.98983,44.3444484 2468.3596,44.4065029 C2470.9474,44.474267 2473.00497,42.4253535 2473.07283,39.8338587 L2473.38479,27.9204525 C2473.44296,25.699007 2475.28839,23.945266 2477.50667,24.0033538 C2479.72495,24.0614416 2481.47606,25.9093612 2481.41789,28.1308066 L2481.19919,36.482775 C2481.70881,38.9485155 2483.30895,40.7729316 2485.67871,40.8349861 C2488.26652,40.9027502 2490.32408,38.8538367 2490.39195,36.2623419 L2490.8017,20.6145399 C2490.85987,18.3930945 2492.70529,16.6393534 2494.92358,16.6974412 C2497.14186,16.755529 2498.89297,18.6034486 2498.8348,20.8248941 L2498.57849,30.6128149 C2499.08811,33.0785553 2500.68825,34.9029715 2503.05802,34.965026 C2505.64583,35.0327901 2507.70339,32.9838766 2507.77125,30.3923818 L2507.84247,27.6727487 C2507.90064,25.4513033 2509.74606,23.6975623 2511.96434,23.7556501 C2514.18263,23.8137379 2515.93374,25.6616575 2515.87557,27.8831029 L2515.76219,32.2127955 C2516.27181,34.678536 2517.87195,36.5029521 2520.24172,36.5650066 C2522.82952,36.6327707 2524.88709,34.5838572 2524.95495,31.9923624 L2525.08635,26.9742861 C2525.14452,24.7528406 2526.98994,22.9990996 2529.20823,23.0571874 C2531.42651,23.1152752 2533.17762,24.9631948 2533.11945,27.1846402 L2533.08131,28.6412787 C2533.59093,31.1070191 2535.19107,32.9314353 2537.56083,32.9934898 C2540.14864,33.0612539 2542.2062,31.0123404 2542.27406,28.4208456 L2542.69135,12.4851636 C2542.74952,10.2637181 2544.59495,8.50997708 2546.81323,8.56806488 C2549.03152,8.62615269 2550.78263,10.4740723 2550.72446,12.6955177 L2550.49071,21.6220969 C2551.00032,24.0878374 2552.60047,25.9122535 2554.97023,25.974308 C2557.55804,26.0420721 2559.6156,23.9931586 2559.68346,21.4016638 L2559.63743,23.1593983 C2559.6956,20.9379529 2561.54103,19.1842118 2563.75931,19.2422996 C2565.9776,19.3003874 2567.72871,21.1483071 2567.67054,23.3697525 L2567.4487,31.8412399 C2567.95832,34.3069804 2569.55846,36.1313965 2571.92823,36.193451 C2574.51603,36.2612151 2576.5736,34.2123016 2576.64146,31.6208068 L2576.86627,23.0355465 C2576.92444,20.814101 2578.76986,19.06036 2580.98815,19.1184478 C2583.20643,19.1765356 2584.95754,21.0244552 2584.89937,23.2459006 L2584.69259,31.1427772 C2585.2022,33.6085177 2586.80235,35.4329338 2589.17211,35.4949883 C2591.75992,35.5627524 2593.81748,33.5138389 2593.89762,30.4534617 C2593.95787,28.1527199 2595.72579,26.332549 2598.02326,26.3927103 C2600.32073,26.4528716 2601.99097,28.3630741 2601.93072,30.6638159 L2601.77153,36.7431984 C2602.25375,40.2553052 2604.41606,41.0692088 2606.44672,41.1223834 C2609.03452,41.1901475 2611.38181,39.1286953 2611.45516,36.3274676 C2611.51333,34.1060221 2613.11604,32.3459254 2615.33432,32.4040132 C2617.55261,32.462101 2619.061,34.3036649 2619.00283,36.5251104 L2618.68381,48.7080091 C2619.19343,51.1737495 2620.79357,52.9981657 2623.16334,53.0602202 C2625.75114,53.1279843 2627.80871,51.0790708 2627.87657,48.487576 L2628.3089,31.9772831 C2628.36707,29.7558377 2630.2125,28.0020966 2632.43078,28.0601844 C2634.64907,28.1182722 2636.40018,29.9661919 2636.34201,32.1876373 L2636.1233,40.5396056 C2636.63292,43.0053461 2638.23306,44.8297623 2640.60283,44.8918168 C2643.19063,44.9595809 2645.2482,42.9106674 2645.31606,40.3191725 L2645.72581,24.6713706 C2645.78398,22.4499251 2647.6294,20.6961841 2649.84769,20.7542719 C2652.06597,20.8123597 2653.81708,22.6602793 2653.75891,24.8817247 L2653.50261,34.6696455 C2654.01223,37.135386 2655.61237,38.9598022 2657.98213,39.0218567 C2660.56994,39.0896208 2662.6275,37.0407073 2662.69536,34.4492124 L2662.76658,31.7295794 C2662.82475,29.508134 2664.67017,27.7543929 2666.88846,27.8124807 C2669.10674,27.8705685 2670.85785,29.7184881 2670.79968,31.9399336 L2670.6863,36.2696262 C2671.19592,38.7353666 2672.79606,40.5597828 2675.16583,40.6218373 C2677.75364,40.6896014 2679.8112,38.6406879 2679.87906,36.049193 L2680.01046,31.0311167 C2680.06863,28.8096713 2681.91406,27.0559302 2684.13234,27.114018 C2686.35062,27.1721058 2688.10173,29.0200254 2688.04356,31.2414709 L2688.00542,32.6981093 C2688.51504,35.1638498 2690.11518,36.988266 2692.48495,37.0503205 C2695.07275,37.1180846 2697.13032,35.0691711 2697.19818,32.4776762 L2697.61547,16.5419942 C2697.67364,14.3205488 2699.51906,12.5668077 2701.73735,12.6248955 C2703.95563,12.6829834 2705.70674,14.530903 2705.64857,16.7523484 L2705.41482,25.6789276 C2705.92444,28.144668 2707.52458,29.9690842 2709.89434,30.0311387 C2712.48215,30.0989028 2714.53971,28.0499893 2714.60757,25.4584945 L2714.56155,27.216229 C2714.61972,24.9947835 2716.46514,23.2410425 2718.68342,23.2991303 C2720.90171,23.3572181 2722.65282,25.2051377 2722.59465,27.4265832 L2722.37281,35.8980706 C2722.88243,38.363811 2724.48257,40.1882272 2726.85234,40.2502817 C2729.44015,40.3180458 2731.49771,38.2691323 2731.56557,35.6776375 L2731.79038,27.0923771 C2731.84855,24.8709317 2733.69398,23.1171906 2735.91226,23.1752784 C2738.13054,23.2333662 2739.88166,25.0812859 2739.82349,27.3027313 L2739.6167,35.1996079 C2740.12632,37.6653483 2741.72646,39.4897645 2744.09622,39.551819 C2746.68403,39.6195831 2748.74159,37.5706696 2748.82173,34.5102923 C2748.88198,32.2095506 2750.6499,30.3893797 2752.94737,30.449541 C2755.24484,30.5097022 2756.91508,32.4199048 2756.85483,34.7206465 L2756.69564,40.8000291 C2757.17786,44.3121358 2759.34018,45.1260395 2761.37083,45.179214 C2763.95864,45.2469781 2766.30592,43.185526 2766.37927,40.3842982 C2766.43744,38.1628528 2768.04015,36.402756 2770.25843,36.4608439 C2772.47672,36.5189317 2773.98512,38.3604956 2773.92694,40.581941 L2773.7283,48.1679531 C2774.23792,50.6336936 2775.83806,52.4581098 2778.20782,52.5201642 C2780.79563,52.5879283 2782.85319,50.5390148 2782.91704,48.1009411 C2782.97521,45.8794957 2784.82063,44.1257546 2787.03891,44.1838424 C2789.2572,44.2419302 2791.00831,46.0898498 2790.94209,48.6187121 C2791.45171,51.0844526 2793.05185,52.9088687 2795.42161,52.9709232 C2795.79185,52.9806182 2796.31798,64.9903105 2797,89 L0,89 L0,52.307655 Z" id="Combined-Shape"></path>
        </g>
    </g>
</svg>