<?xml version="1.0" encoding="UTF-8" standalone="no"?>
<svg width="1551px" height="668px" viewBox="0 0 1551 668" version="1.1" xmlns="http://www.w3.org/2000/svg" xmlns:xlink="http://www.w3.org/1999/xlink">
    <!-- Generator: Sketch 48.2 (47327) - http://www.bohemiancoding.com/sketch -->
    <title>bg/background-pattern-a</title>
    <desc>Created with Sketch.</desc>
    <defs></defs>
    <g id="Backgrounds" stroke="none" stroke-width="1" fill="none" fill-rule="evenodd">
        <g id="bg/background-pattern-a">
            <path d="M1471.59784,736.393165 L1477.18648,725.883427 C1478.67294,723.088061 1482.14591,722.027761 1484.94358,723.515176 C1487.74126,725.002591 1488.80421,728.474458 1487.31775,731.269824 C1483.22692,739.052069 1480.55745,747.318731 1479.30934,756.06981 C1477.43719,769.19643 1477.88084,776.894522 1479.55685,785.685381 C1479.55709,788.853465 1476.98842,791.421498 1473.81954,791.421256 C1470.65067,791.421015 1468.08161,788.85259 1468.08136,785.684507 L1468.08046,773.773464 C1467.26051,770.278349 1464.90784,767.737803 1461.52258,767.737545 C1459.05808,767.737357 948.880392,714.498409 -69.0104834,608.020699 L-69.0104834,181.282224 L-42.5844367,138.786833 C-41.2433106,135.91021 -37.8279424,134.664116 -34.9559817,136.003598 C-32.0840209,137.343081 -30.8430391,140.760896 -32.7166608,144.779686 C-33.4533245,148.299675 -32.3966674,151.600721 -29.3285873,153.031674 C-25.9782141,154.594288 -22.1169516,153.082384 -20.5524202,149.726572 L-16.829113,141.740335 C-15.487987,138.863711 -12.0726187,137.617618 -9.20065798,138.9571 C-6.32869727,140.296582 -5.08771541,143.714397 -6.96133716,147.733187 C-7.69800084,151.253176 -6.6413437,154.554223 -3.57326359,155.985175 C-0.222890396,157.547789 3.63837208,156.035886 5.20290348,152.680074 L10.6607244,140.973423 C12.0018505,138.0968 15.4172187,136.850706 18.2891794,138.190188 C21.1611401,139.529671 22.402122,142.947486 20.5285003,146.966276 C19.7918366,150.486265 20.8484937,153.787312 23.9165738,155.218264 C27.266947,156.780878 31.1282095,155.268974 32.6927409,151.913162 L40.7519856,134.626637 C42.0931116,131.750014 45.5084799,130.50392 48.3804406,131.843402 C51.2524013,133.182885 52.4933831,136.6007 51.1522571,139.477323 L46.6307267,149.175694 C45.894063,152.695684 46.9507201,155.99673 50.0188003,157.427683 C53.3691734,158.990296 57.2304359,157.478393 58.7949673,154.122581 L68.762524,132.742858 C70.10365,129.866235 73.5190183,128.620141 76.390979,129.959623 C79.2629397,131.299105 80.5039216,134.716921 79.1627956,137.593544 L74.1205641,148.408783 C73.3839004,151.928773 74.4405576,155.229819 77.5086377,156.660771 C80.8590109,158.223385 84.7202733,156.711482 86.2848047,153.35567 L95.7316604,133.092815 C97.0727864,130.216191 100.488155,128.970097 103.360115,130.30958 C106.232076,131.649062 107.473058,135.066877 106.131932,137.9435 L100.222791,150.618202 C99.4861268,154.138191 100.542784,157.439238 103.610864,158.87019 C106.961237,160.432804 110.8225,158.920901 112.387031,155.565089 L114.028922,152.043346 C115.370048,149.166723 118.785416,147.920629 121.657377,149.260111 C124.529338,150.599593 125.770319,154.017409 124.429193,156.894032 L121.815281,162.500693 C121.078618,166.020683 122.135275,169.321729 125.203355,170.752682 C128.553728,172.315295 132.41499,170.803392 133.979522,167.44758 L137.009024,160.949507 C138.35015,158.072884 141.765518,156.82679 144.637479,158.166273 C147.509439,159.505755 148.750421,162.92357 146.529897,167.686442 C145.793233,171.206432 146.84989,174.507478 149.91797,175.938431 C153.268343,177.501044 157.129606,175.989141 158.694137,172.633329 L168.314791,151.997688 C169.655917,149.121065 173.071286,147.874971 175.943246,149.214454 C178.815207,150.553936 180.056189,153.971751 178.715063,156.848374 L173.325929,168.407696 C172.589265,171.927686 173.645922,175.228732 176.714002,176.659684 C180.064375,178.222298 183.925638,176.710395 184.428994,175.630731 C185.77012,172.754108 189.185488,171.508014 192.057449,172.847496 C194.929409,174.186979 196.170391,177.604794 194.829265,180.481417 L189.714878,191.451426 C188.978214,194.971415 190.034871,198.272461 193.102952,199.703414 C196.453325,201.266027 200.314587,199.754124 201.879119,196.398312 L207.062193,185.280975 C208.403319,182.404352 211.818687,181.158258 214.690648,182.49774 C217.562608,183.837223 218.80359,187.255038 217.462464,190.131661 L212.69498,200.357587 C211.958316,203.877577 213.014973,207.178623 216.083053,208.609575 C219.433426,210.172189 223.294689,208.660286 225.142293,204.697302 C226.531292,201.717996 229.882996,200.340751 232.857474,201.728047 C235.831951,203.115343 236.931563,206.568682 235.542565,209.547988 L231.872333,217.420381 C230.50396,222.295345 232.872248,224.592956 235.501288,225.81914 C238.851662,227.381754 243.099476,226.018432 244.790626,222.39103 C246.131752,219.514407 249.232884,218.121753 252.104845,219.461235 C254.976805,220.800717 255.90355,224.071973 254.562424,226.948596 L247.207392,242.724633 C246.470729,246.244623 247.527386,249.545669 250.595466,250.976621 C253.945839,252.539235 257.807102,251.027332 259.371633,247.67152 L269.33919,226.291797 C270.680316,223.415174 274.095684,222.16908 276.967645,223.508562 C279.839605,224.848044 281.080587,228.265859 279.739461,231.142482 L274.69723,241.957722 C273.960566,245.477711 275.017223,248.778758 278.085303,250.20971 C281.435677,251.772324 285.296939,250.260421 286.86147,246.904609 L296.308326,226.641753 C297.649452,223.76513 301.06482,222.519036 303.936781,223.858519 C306.808742,225.198001 308.049724,228.615816 306.708598,231.492439 L300.799456,244.167141 C300.062793,247.68713 301.11945,250.988177 304.18753,252.419129 C307.537903,253.981743 311.399165,252.46984 312.963697,249.114027 L314.605588,245.592285 C315.946714,242.715662 319.362082,241.469568 322.234043,242.80905 C325.106003,244.148532 326.346985,247.566347 325.005859,250.442971 L322.391947,256.049632 C321.655283,259.569622 322.71194,262.870668 325.78002,264.301621 C329.130394,265.864234 332.991656,264.352331 334.556188,260.996519 L337.585689,254.498446 C338.926815,251.621823 342.342184,250.375729 345.214144,251.715212 C348.086105,253.054694 349.327087,256.472509 347.106562,261.235381 C346.369899,264.755371 347.426556,268.056417 350.494636,269.487369 C353.845009,271.049983 357.706272,269.53808 359.270803,266.182268 L368.891457,245.546627 C370.232583,242.670004 373.647951,241.42391 376.519912,242.763392 C379.391873,244.102875 380.632854,247.52069 379.291728,250.397313 L373.902594,261.956635 C373.165931,265.476624 374.222588,268.777671 377.290668,270.208623 C380.641041,271.771237 384.502303,270.259334 385.005659,269.17967 C386.346785,266.303047 389.762154,265.056953 392.634114,266.396435 C395.506075,267.735917 396.747057,271.153733 395.405931,274.030356 L390.291544,285.000364 C389.55488,288.520354 390.611537,291.8214 393.679617,293.252353 C397.02999,294.814966 400.891253,293.303063 402.455784,289.947251 L407.638858,278.829914 C408.979984,275.953291 412.395353,274.707197 415.267313,276.046679 C418.139274,277.386161 419.380256,280.803977 418.03913,283.6806 L413.271645,293.906526 C412.534982,297.426515 413.591639,300.727562 416.659719,302.158514 C420.010092,303.721128 423.871355,302.209225 425.718959,298.246241 C427.107957,295.266935 430.459662,293.88969 433.434139,295.276986 C436.408617,296.664282 437.508229,300.11762 436.11923,303.096927 L432.448999,310.96932 C431.080626,315.844284 433.448914,318.141895 436.077954,319.368079 C439.428327,320.930692 443.676141,319.567371 445.367292,315.939969 C446.708418,313.063346 449.80955,311.670692 452.68151,313.010174 C455.553471,314.349656 456.480216,317.620911 455.13909,320.497534 L450.55928,330.320912 C449.822616,333.840901 450.879273,337.141948 453.947354,338.5729 C457.297727,340.135514 461.158989,338.623611 462.723521,335.267799 L469.915855,319.840736 C471.256981,316.964113 474.67235,315.718019 477.54431,317.057501 C480.416271,318.396983 481.657253,321.814798 480.316127,324.691421 L475.273895,335.506661 C474.537232,339.02665 475.593889,342.327697 478.661969,343.758649 C482.012342,345.321263 485.873605,343.80936 487.438136,340.453547 L496.884992,320.190692 C498.226118,317.314069 501.641486,316.067975 504.513447,317.407457 C507.385407,318.74694 508.626389,322.164755 507.285263,325.041378 L501.376122,337.71608 C500.639458,341.236069 501.696115,344.537115 504.764195,345.968068 C508.114569,347.530682 511.975831,346.018778 513.540363,342.662966 L515.182253,339.141224 C516.523379,336.264601 519.938748,335.018507 522.810708,336.357989 C525.682669,337.697471 526.923651,341.115286 525.582525,343.991909 L522.968613,349.598571 C522.231949,353.118561 523.288606,356.419607 526.356686,357.850559 C529.707059,359.413173 533.568322,357.90127 535.132853,354.545458 L538.162355,348.047385 C539.503481,345.170762 542.918849,343.924668 545.79081,345.26415 C548.662771,346.603633 549.903752,350.021448 547.683228,354.78432 C546.946564,358.30431 548.003221,361.605356 551.071302,363.036308 C554.421675,364.598922 558.282937,363.087019 559.847469,359.731207 L569.468123,339.095566 C570.809249,336.218943 574.224617,334.972849 577.096578,336.312331 C579.968538,337.651814 581.20952,341.069629 579.868394,343.946252 L574.47926,355.505574 C573.742596,359.025563 574.799253,362.32661 577.867333,363.757562 C581.217707,365.320176 585.078969,363.808273 585.582325,362.728609 C586.923451,359.851986 590.338819,358.605892 593.21078,359.945374 C596.082741,361.284856 597.323723,364.702672 595.982597,367.579295 L590.868209,378.549303 C590.131546,382.069293 591.188203,385.370339 594.256283,386.801291 C597.606656,388.363905 601.467919,386.852002 603.03245,383.49619 L608.215524,372.378853 C609.55665,369.50223 612.972018,368.256136 615.843979,369.595618 C618.71594,370.9351 619.956922,374.352916 618.615796,377.229539 L613.848311,387.455465 C613.111647,390.975454 614.168305,394.276501 617.236385,395.707453 C620.586758,397.270067 624.44802,395.758164 626.295624,391.79518 C627.684623,388.815874 631.036327,387.438628 634.010805,388.825925 C636.985283,390.213221 638.084895,393.666559 636.695896,396.645866 L633.025665,404.518259 C631.657291,409.393223 634.02558,411.690833 636.65462,412.917017 C640.004993,414.479631 644.252807,413.11631 645.943958,409.488908 C647.285084,406.612285 650.386215,405.219631 653.258176,406.559113 C656.130137,407.898595 657.056882,411.16985 655.715756,414.046473 L648.360724,429.822511 C647.62406,433.3425 648.680717,436.643547 651.748797,438.074499 C655.09917,439.637113 658.960433,438.12521 660.524964,434.769398 L670.492521,413.389674 C671.833647,410.513051 675.249015,409.266957 678.120976,410.60644 C680.992937,411.945922 682.233919,415.363737 680.892793,418.24036 L675.850561,429.0556 C675.113897,432.575589 676.170555,435.876636 679.238635,437.307588 C682.589008,438.870202 686.45027,437.358298 688.014802,434.002486 L697.461657,413.739631 C698.802783,410.863008 702.218152,409.616914 705.090112,410.956396 C707.962073,412.295878 709.203055,415.713694 707.861929,418.590317 L701.952788,431.265018 C701.216124,434.785008 702.272781,438.086054 705.340861,439.517007 C708.691234,441.07962 712.552497,439.567717 714.117028,436.211905 L715.758919,432.690162 C717.100045,429.813539 720.515413,428.567445 723.387374,429.906928 C726.259335,431.24641 727.500316,434.664225 726.15919,437.540848 L723.545278,443.14751 C722.808615,446.6675 723.865272,449.968546 726.933352,451.399498 C730.283725,452.962112 734.144987,451.450209 735.709519,448.094397 L738.739021,441.596324 C740.080147,438.719701 743.495515,437.473607 746.367476,438.813089 C749.239436,440.152571 750.480418,443.570387 748.259894,448.333259 C747.52323,451.853248 748.579887,455.154295 751.647967,456.585247 C754.99834,458.147861 758.859603,456.635958 760.424134,453.280146 L770.044788,432.644505 C771.385914,429.767882 774.801283,428.521788 777.673243,429.86127 C780.545204,431.200752 781.786186,434.618568 780.44506,437.495191 L775.055926,449.054513 C774.319262,452.574502 775.375919,455.875549 778.443999,457.306501 C781.794372,458.869115 785.655635,457.357211 786.158991,456.277548 C787.500117,453.400925 790.915485,452.154831 793.787446,453.494313 C796.659406,454.833795 797.900388,458.25161 796.559262,461.128233 L791.444875,472.098242 C790.708211,475.618232 791.764869,478.919278 794.832949,480.35023 C798.183322,481.912844 802.044584,480.400941 803.609116,477.045129 L808.79219,465.927792 C810.133316,463.051169 813.548684,461.805075 816.420645,463.144557 C819.292605,464.484039 820.533587,467.901854 819.192461,470.778477 L814.424977,481.004404 C813.688313,484.524393 814.74497,487.825439 817.81305,489.256392 C821.163424,490.819005 825.024686,489.307102 826.87229,485.344119 C828.261289,482.364812 831.612993,480.987567 834.587471,482.374863 C837.561948,483.76216 838.66156,487.215498 837.272562,490.194805 L833.60233,498.067198 C832.233957,502.942161 834.602245,505.239772 837.231286,506.465956 C840.581659,508.02857 844.829473,506.665249 846.520623,503.037846 C847.86175,500.161223 850.962881,498.768569 853.834842,500.108052 C856.706802,501.447534 857.633548,504.718789 856.292421,507.595412 L851.712611,517.41879 C850.975948,520.938779 852.032605,524.239825 855.100685,525.670778 C858.451058,527.233392 862.312321,525.721488 863.784229,522.564346 C865.125355,519.687723 868.540723,518.441629 871.412684,519.781111 C874.284645,521.120594 875.525627,524.538409 873.998908,527.813116 C873.262244,531.333106 874.318901,534.634152 877.386981,536.065104 C880.737354,537.627718 884.598617,536.115815 886.163148,532.760003 L902.374954,497.986794 C903.71608,495.110171 907.131449,493.864077 910.003409,495.203559 C912.87537,496.543042 914.116352,499.960857 912.775226,502.83748 L906.345383,516.62905 C905.60872,520.149039 906.665377,523.450085 909.733457,524.881038 C913.08383,526.443651 916.945093,524.931748 918.509624,521.575936 L920.498418,517.310111 C921.839544,514.433488 925.254912,513.187394 928.126873,514.526876 C930.998833,515.866358 932.239815,519.284174 930.898689,522.160797 L924.468847,535.952366 C923.732183,539.472356 924.78884,542.773402 927.85692,544.204355 C931.207293,545.766968 935.068556,544.255065 936.633087,540.899253 L951.804185,508.358292 C953.145311,505.481669 956.56068,504.235575 959.43264,505.575057 C962.304601,506.914539 963.545583,510.332355 962.204457,513.208978 L955.774614,527.000547 C955.037951,530.520537 956.094608,533.821583 959.162688,535.252535 C962.513061,536.815149 966.374324,535.303246 967.938855,531.947434 L969.233843,529.169774 C970.574969,526.293151 973.990337,525.047057 976.862298,526.386539 C979.734259,527.726021 980.975241,531.143837 979.101619,535.162626 C978.364955,538.682616 979.421612,541.983662 982.489692,543.414614 C985.840066,544.977228 989.701328,543.465325 991.265859,540.109513 L998.111291,525.426532 C999.452417,522.549909 1002.86779,521.303815 1005.73975,522.643298 C1008.61171,523.98278 1009.85269,527.400595 1007.97907,531.419385 C1007.2424,534.939374 1008.29906,538.240421 1011.36714,539.671373 C1014.71751,541.233987 1018.57878,539.722084 1020.14331,536.366272 L1024.56042,526.891869 C1025.90155,524.015246 1029.31691,522.769152 1032.18888,524.108634 C1035.06084,525.448116 1036.30182,528.865931 1034.4282,532.884721 C1033.69153,536.404711 1034.74819,539.705757 1037.81627,541.136709 C1041.16664,542.699323 1045.02791,541.18742 1046.59244,537.831608 L1061.58974,505.663432 C1062.93086,502.786809 1066.34623,501.540715 1069.21819,502.880197 C1072.09015,504.21968 1073.33113,507.637495 1071.99001,510.514118 L1065.04016,525.421067 C1064.30349,528.941057 1065.36015,532.242103 1068.42823,533.673055 C1071.77861,535.235669 1075.63987,533.723766 1077.2044,530.367954 L1078.84629,526.846211 C1080.18742,523.969588 1083.60278,522.723494 1086.47474,524.062976 C1089.34671,525.402459 1090.58769,528.820274 1088.71407,532.839064 C1087.9774,536.359053 1089.03406,539.6601 1092.10214,541.091052 C1095.45251,542.653666 1099.31377,541.141762 1100.87831,537.78595 L1123.85437,488.503877 C1125.1955,485.627254 1128.61086,484.38116 1131.48282,485.720642 C1134.35478,487.060124 1135.59577,490.477939 1134.25464,493.354562 L1115.16319,534.3044 C1114.42653,537.824389 1115.48319,541.125436 1118.55127,542.556388 C1121.90164,544.119002 1125.7629,542.607099 1127.32744,539.251287 L1135.90738,520.847894 C1137.24851,517.97127 1140.66388,516.725176 1143.53584,518.064659 C1146.4078,519.404141 1147.64878,522.821956 1145.77516,526.840746 C1145.03849,530.360735 1146.09515,533.661782 1149.16323,535.092734 C1152.5136,536.655348 1156.37487,535.143445 1157.9394,531.787633 L1164.43793,517.848735 C1165.77905,514.972112 1169.19442,513.726018 1172.06638,515.0655 C1174.93834,516.404982 1176.17932,519.822797 1174.8382,522.69942 L1170.48977,532.026495 C1169.75311,535.546484 1170.80977,538.847531 1173.87785,540.278483 C1177.22822,541.841097 1181.08948,540.329194 1182.65401,536.973381 L1198.17201,503.688338 C1199.51314,500.811715 1202.92851,499.565621 1205.80047,500.905103 C1208.67243,502.244585 1209.91341,505.662401 1208.57229,508.539024 L1202.14244,522.330593 C1201.40578,525.850583 1202.46244,529.151629 1205.53052,530.582581 C1208.88089,532.145195 1212.74215,530.633292 1214.63312,526.577298 C1215.97425,523.700675 1219.38961,522.454581 1222.26157,523.794063 C1225.13353,525.133546 1226.37452,528.551361 1225.03339,531.427984 L1220.26591,541.65391 C1219.52924,545.1739 1220.5859,548.474946 1223.65398,549.905898 C1227.00435,551.468512 1230.86562,549.956609 1232.43015,546.600797 L1241.24148,527.701101 C1242.5826,524.824478 1246.77799,523.942185 1249.64995,525.281667 C1252.52191,526.621149 1254.1373,530.213589 1252.79618,533.090212 C1251.10503,536.717615 1251.87014,540.418967 1255.22126,541.981927 C1258.57163,543.544541 1261.82448,541.748872 1263.38901,538.39306 L1269.65616,524.950465 C1270.99728,522.073842 1274.41265,520.827748 1277.28461,522.167231 C1280.15657,523.506713 1281.39755,526.924528 1280.05643,529.801151 L1275.8707,538.779251 C1274.30617,542.135063 1276.44066,546.443386 1279.79178,548.006347 C1283.14215,549.56896 1287.48283,548.248949 1289.17398,544.621546 C1290.5151,541.744923 1293.2916,540.200859 1296.51939,541.706304 C1299.39136,543.045786 1300.1413,546.234579 1298.80017,549.111203 C1297.10902,552.738605 1298.78936,556.866817 1302.13973,558.429431 C1305.49011,559.992045 1309.96424,558.765985 1311.52877,555.410173 L1315.7145,546.432073 C1317.05563,543.55545 1320.471,542.309356 1323.34296,543.648839 C1326.21492,544.988321 1327.4559,548.406136 1326.11477,551.282759 L1319.84763,564.725354 C1318.2831,568.081166 1319.14727,571.797013 1322.49765,573.359627 C1325.84876,574.922587 1329.32398,573.198929 1331.01513,569.571527 C1332.35626,566.694904 1336.04724,565.577353 1338.9192,566.916835 C1341.79116,568.256317 1343.61381,571.945425 1342.27269,574.822048 L1333.46136,593.721744 C1331.89682,597.077556 1333.22084,601.007872 1336.57121,602.570486 C1339.63929,604.001438 1342.84675,602.689173 1345.06916,599.862139 L1349.83665,589.636213 C1351.17778,586.759589 1354.59314,585.513496 1357.4651,586.852978 C1360.33706,588.19246 1361.57805,591.610275 1359.91049,595.18708 C1358.34595,598.542892 1359.66997,602.473209 1363.02034,604.035822 C1366.08842,605.466775 1369.29588,604.154509 1371.51829,601.327475 L1377.94814,587.535905 C1379.28926,584.659282 1382.70463,583.413188 1385.57659,584.752671 C1388.44855,586.092153 1389.68953,589.509968 1388.34841,592.386591 L1372.83041,625.671635 C1371.26588,629.027447 1372.58989,632.957763 1375.94026,634.520377 C1379.00834,635.951329 1382.2158,634.639064 1384.43822,631.81203 L1388.78664,622.484955 C1390.12777,619.608332 1393.54314,618.362238 1396.4151,619.70172 C1399.28706,621.041203 1400.52804,624.459018 1399.18691,627.335641 L1392.68838,641.274539 C1391.12385,644.630351 1392.44787,648.560667 1395.79824,650.123281 C1398.86632,651.554233 1402.07378,650.241968 1404.82869,646.272767 C1406.16981,643.396144 1409.58518,642.15005 1412.45714,643.489532 C1415.3291,644.829014 1416.57009,648.24683 1415.22896,651.123453 L1406.64901,669.526846 C1405.08448,672.882658 1406.4085,676.812974 1409.75887,678.375588 C1412.82695,679.80654 1416.03441,678.494275 1418.25682,675.667241 L1437.34827,634.717403 C1438.68939,631.84078 1442.10476,630.594686 1444.97672,631.934168 C1447.84868,633.273651 1449.08967,636.691466 1447.74854,639.568089 L1424.77248,688.850163 C1423.20795,692.205975 1424.53196,696.136291 1427.88234,697.698905 C1430.95042,699.129857 1434.15787,697.817592 1436.91278,693.848391 C1438.25391,690.971768 1441.66928,689.725674 1444.54124,691.065156 C1447.4132,692.404638 1448.65418,695.822454 1447.31305,698.699077 L1445.67116,702.220819 C1444.10663,705.576631 1445.43065,709.506948 1448.78102,711.069562 C1451.8491,712.500514 1455.05655,711.188249 1457.27897,708.361214 L1464.22882,693.454265 C1465.56995,690.577642 1468.98532,689.331548 1471.85728,690.67103 C1474.72924,692.010512 1475.97022,695.428328 1474.62909,698.304951 L1459.63179,730.473126 C1458.06726,733.828938 1459.39128,737.759255 1462.74165,739.321869 C1466.30085,740.256138 1469.25292,739.279903 1471.59784,736.393165 Z" id="Combined-Shape" fill="#C9A9D5" transform="translate(709.489517, 460.421256) scale(1, -1) rotate(-11.000000) translate(-709.489517, -460.421256) "></path>
            <path d="M1395.81067,721.094397 L-63.7703168,531.419943 C-63.0700325,245.543511 -62.4977377,102.708948 -62.0534324,102.916254 C-58.701371,104.480273 -54.8369946,102.964503 -53.270234,99.6025805 L-51.2786069,95.3289882 C-49.9355701,92.4471275 -46.5174796,91.1977642 -43.6440717,92.5384513 C-40.7706639,93.8791384 -39.5300579,97.3021765 -40.8730948,100.184037 L-42.1011432,102.819158 C-42.8395406,106.345238 -41.7833414,109.651379 -38.7137153,111.083618 C-35.3616539,112.647637 -31.4972774,111.131867 -29.9305169,107.769945 L-27.9388898,103.496353 C-26.5958529,100.614492 -23.1777625,99.3651286 -20.3043546,100.705816 C-17.4309467,102.046503 -16.1903408,105.469541 -17.5333776,108.351402 L-19.4562201,112.477397 C-20.1946175,116.003477 -18.9757984,119.226676 -15.9699398,120.78798 C-12.8122642,122.42738 -9.17765585,121.552206 -7.83173765,118.988417 C-7.83173765,118.988417 -5.51345741,114.588625 -0.639420968,116.952619 C2.21383787,118.336541 3.40026778,121.681665 1.45171791,125.862823 C0.713320505,129.388903 1.76951975,132.695043 4.83914584,134.127283 C8.19120726,135.691302 12.0555837,134.175532 13.6223442,130.81361 L19.1602001,118.930593 C20.503237,116.048732 23.9213274,114.799369 26.7947353,116.140056 C29.6681432,117.480743 30.9087491,120.903781 28.9601993,125.084939 C28.2218019,128.611019 29.2780011,131.91716 32.3476272,133.349399 C35.6996886,134.913419 39.564065,133.397649 41.1308256,130.035726 L43.4986837,124.954825 C44.8896613,121.970094 48.2440916,120.589385 51.2200681,121.977929 C54.1960446,123.366473 55.2951735,126.825143 53.0079115,131.733103 C51.6369042,136.616623 54.0386684,138.932463 56.66829,140.159403 C60.0210946,141.723769 64.353986,140.394837 66.0704746,136.711631 L76.0636972,115.268381 C77.4067341,112.38652 80.8248246,111.137157 83.6982325,112.477844 C86.5716403,113.818531 87.8122463,117.241569 86.4692094,120.12343 L78.4672665,137.293833 C77.7288691,140.819913 78.7850684,144.126054 81.8546945,145.558293 C85.2067559,147.122313 89.0711323,145.606543 90.6378929,142.24462 L92.2821229,138.716465 C93.6251598,135.834604 97.0432503,134.585241 99.9166581,135.925928 C102.790066,137.266615 104.030672,140.689653 102.687635,143.571514 L101.459587,146.206635 C100.721189,149.732715 101.777388,153.038856 104.847015,154.471095 C108.199076,156.035114 112.063452,154.519344 113.630213,151.157422 L115.62184,146.88383 C116.964877,144.001969 120.382967,142.752606 123.256375,144.093293 C126.129783,145.43398 127.370389,148.857018 126.027352,151.738879 L124.799304,154.374 C124.060906,157.900079 125.117106,161.20622 128.186732,162.638459 C131.538793,164.202479 135.40317,162.686709 136.96993,159.324786 L138.961557,155.051194 C140.304594,152.169333 143.722685,150.91997 146.596092,152.260657 C149.4695,153.601344 150.710106,157.024382 149.367069,159.906243 L147.444227,164.032239 C146.70583,167.558318 147.924649,170.781518 150.930507,172.342821 C154.088183,173.982221 157.722791,173.107047 159.068709,170.543258 C159.068709,170.543258 161.38699,166.143466 166.261026,168.50746 C169.114285,169.891383 170.300715,173.236506 168.352165,177.417665 C167.613768,180.943744 168.669967,184.249885 171.739593,185.682124 C175.091654,187.246144 178.956031,185.730374 180.522791,182.368451 L186.060647,170.485435 C187.403684,167.603574 190.821774,166.354211 193.695182,167.694898 C196.56859,169.035585 197.809196,172.458623 195.860646,176.639781 C195.122249,180.16586 196.178448,183.472001 199.248074,184.904241 C202.600136,186.46826 206.464512,184.95249 208.031273,181.590568 L210.399131,176.509667 C211.790108,173.524935 215.144539,172.144226 218.120515,173.53277 C221.096492,174.921314 222.195621,178.379984 219.908359,183.287944 C218.537351,188.171465 220.939115,190.487304 223.568737,191.714244 C226.921542,193.27861 231.254433,191.949679 232.970922,188.266473 L236.016204,181.731969 C237.359241,178.850108 240.777331,177.600745 243.650739,178.941432 C246.524147,180.282119 247.764753,183.705157 246.421716,186.587018 L238.419773,203.757422 C237.681376,207.283501 238.737575,210.589642 241.807201,212.021881 C245.159263,213.585901 249.023639,212.070131 250.5904,208.708208 L252.23463,205.180053 C253.577666,202.298193 256.995757,201.048829 259.869165,202.389517 C262.742573,203.730204 263.983179,207.153242 262.640142,210.035102 L261.412093,212.670223 C260.673696,216.196303 261.729895,219.502444 264.799521,220.934683 C268.151583,222.498703 272.015959,220.982933 273.58272,217.62101 L275.574347,213.347418 C276.917384,210.465557 280.335474,209.216194 283.208882,210.556881 C286.08229,211.897568 287.322896,215.320606 285.979859,218.202467 L284.75181,220.837588 C284.013413,224.363667 285.069612,227.669808 288.139238,229.102048 C291.4913,230.666067 295.355676,229.150297 296.922437,225.788375 L298.914064,221.514782 C300.257101,218.632922 303.675191,217.383558 306.548599,218.724245 C309.422007,220.064932 310.662613,223.487971 309.319576,226.369831 L307.396734,230.495827 C306.658336,234.021906 307.877155,237.245106 310.883014,238.80641 C314.04069,240.445809 317.675298,239.570636 319.021216,237.006846 C319.021216,237.006846 321.339496,232.607054 326.213533,234.971049 C329.066792,236.354971 330.253221,239.700095 328.304672,243.881253 C327.566274,247.407332 328.622473,250.713473 331.6921,252.145713 C335.044161,253.709732 338.908537,252.193962 340.475298,248.83204 L346.013154,236.949023 C347.356191,234.067162 350.774281,232.817799 353.647689,234.158486 C356.521097,235.499173 357.761703,238.922211 355.813153,243.103369 C355.074756,246.629449 356.130955,249.935589 359.200581,251.367829 C362.552642,252.931848 366.417019,251.416078 367.983779,248.054156 L370.351637,242.973255 C371.742615,239.988524 375.097045,238.607815 378.073022,239.996359 C381.048998,241.384903 382.148127,244.843573 379.860865,249.751532 C378.489858,254.635053 380.891622,256.950892 383.521244,258.177832 C386.874048,259.742199 391.20694,258.413267 392.923428,254.730061 L394.579123,251.177307 C395.922159,248.295446 399.34025,247.046083 402.213658,248.38677 C405.087066,249.727457 406.327672,253.150495 404.984635,256.032356 L396.982692,273.202759 C396.244294,276.728839 397.300494,280.03498 400.37012,281.467219 C403.722181,283.031238 407.586558,281.515468 409.153318,278.153546 L410.797548,274.625391 C412.140585,271.74353 415.558676,270.494167 418.432083,271.834854 C421.305491,273.175541 422.546097,276.598579 421.20306,279.48044 L419.975012,282.115561 C419.236615,285.641641 420.292814,288.947781 423.36244,290.380021 C426.714501,291.94404 430.578878,290.42827 432.145638,287.066348 L434.137265,282.792756 C435.480302,279.910895 438.898393,278.661531 441.771801,280.002219 C444.645208,281.342906 445.885814,284.765944 444.542778,287.647805 L443.314729,290.282926 C442.576332,293.809005 443.632531,297.115146 446.702157,298.547385 C450.054218,300.111405 453.918595,298.595635 455.485355,295.233712 L457.476983,290.96012 C458.820019,288.078259 462.23811,286.828896 465.111518,288.169583 C467.984926,289.51027 469.225532,292.933308 467.882495,295.815169 L465.959652,299.941165 C465.221255,303.467244 466.440074,306.690444 469.445933,308.251747 C472.603608,309.891147 476.238216,309.015973 477.584135,306.452184 C477.584135,306.452184 479.902415,302.052392 484.776451,304.416386 C487.62971,305.800309 488.81614,309.145432 486.86759,313.32659 C486.129193,316.85267 487.185392,320.158811 490.255018,321.59105 C493.60708,323.15507 497.471456,321.6393 499.038217,318.277377 L504.576072,306.39436 C505.919109,303.5125 509.3372,302.263136 512.210608,303.603824 C515.084015,304.944511 516.324621,308.367549 514.981585,311.249409 L505.343749,331.930078 C504.605352,335.456157 505.661551,338.762298 508.731177,340.194537 C512.083239,341.758557 515.947615,340.242787 517.514375,336.880864 L519.506003,332.607272 C520.849039,329.725411 524.26713,328.476048 527.140538,329.816735 C530.013946,331.157422 531.254552,334.58046 529.911515,337.462321 L527.988672,341.588317 C527.250275,345.114396 528.469094,348.337596 531.474953,349.8989 C534.632628,351.538299 538.267237,350.663125 539.613155,348.099336 C539.613155,348.099336 541.931435,343.699544 546.805471,346.063538 C549.65873,347.447461 550.84516,350.792585 548.89661,354.973743 C548.158213,358.499822 549.214412,361.805963 552.284038,363.238202 C555.6361,364.802222 559.500476,363.286452 561.067237,359.924529 L566.605092,348.041513 C567.948129,345.159652 571.36622,343.910289 574.239628,345.250976 C577.113036,346.591663 578.353642,350.014701 576.405092,354.195859 C575.666694,357.721938 576.722893,361.028079 579.79252,362.460319 C583.144581,364.024338 587.008957,362.508568 588.575718,359.146646 L590.943576,354.065745 C592.334554,351.081014 595.688984,349.700304 598.664961,351.088848 C601.640937,352.477392 602.740066,355.936063 600.452804,360.844022 C599.081797,365.727543 601.483561,368.043382 604.113182,369.270322 C607.465987,370.834688 611.798878,369.505757 613.515367,365.822551 L616.560649,359.288047 C617.903686,356.406186 621.321777,355.156823 624.195184,356.49751 C627.068592,357.838197 628.309198,361.261235 626.966161,364.143096 L618.964219,381.3135 C618.225821,384.839579 619.28202,388.14572 622.351646,389.57796 C625.703708,391.141979 629.568084,389.626209 631.134845,386.264286 L632.779075,382.736132 C634.122112,379.854271 637.540202,378.604907 640.41361,379.945595 C643.287018,381.286282 644.527624,384.70932 643.184587,387.591181 L641.956539,390.226302 C641.218141,393.752381 642.274341,397.058522 645.343967,398.490761 C648.696028,400.054781 652.560404,398.539011 654.127165,395.177088 L656.118792,390.903496 C657.461829,388.021635 660.879919,386.772272 663.753327,388.112959 C666.626735,389.453646 667.867341,392.876684 666.524304,395.758545 L665.296256,398.393666 C664.557858,401.919745 665.614058,405.225886 668.683684,406.658126 C672.035745,408.222145 675.900122,406.706375 677.466882,403.344453 L679.458509,399.07086 C680.801546,396.189 684.219637,394.939636 687.093044,396.280323 C689.966452,397.621011 691.207058,401.044049 689.864021,403.925909 L687.941179,408.051905 C687.202782,411.577985 688.421601,414.801184 691.427459,416.362488 C694.585135,418.001887 698.219743,417.126714 699.565661,414.562924 C699.565661,414.562924 701.883942,410.163132 706.757978,412.527127 C709.611237,413.911049 710.797667,417.256173 708.849117,421.437331 C708.11072,424.96341 709.166919,428.269551 712.236545,429.701791 C715.588606,431.26581 719.452983,429.75004 721.019743,426.388118 L726.557599,414.505101 C727.900636,411.62324 731.318727,410.373877 734.192134,411.714564 C737.065542,413.055251 738.306148,416.478289 736.357598,420.659447 C735.619201,424.185527 736.6754,427.491667 739.745026,428.923907 C743.097088,430.487926 746.961464,428.972156 748.528225,425.610234 L750.896083,420.529333 C752.28706,417.544602 755.641491,416.163893 758.617467,417.552437 C761.593444,418.940981 762.692573,422.399651 760.405311,427.30761 C759.034303,432.191131 761.436067,434.50697 764.065689,435.73391 C767.418494,437.298277 771.751385,435.969345 773.467874,432.286139 L775.123568,428.733385 C776.466605,425.851524 779.884695,424.602161 782.758103,425.942848 C785.631511,427.283535 786.872117,430.706573 785.52908,433.588434 L777.527137,450.758837 C776.78874,454.284917 777.844939,457.591058 780.914565,459.023297 C784.266627,460.587317 788.131003,459.071547 789.697764,455.709624 L791.341994,452.181469 C792.68503,449.299608 796.103121,448.050245 798.976529,449.390932 C801.849937,450.731619 803.090543,454.154657 801.747506,457.036518 L800.519457,459.671639 C799.78106,463.197719 800.837259,466.503859 803.906885,467.936099 C807.258947,469.500118 811.123323,467.984348 812.690084,464.622426 L814.681711,460.348834 C816.024748,457.466973 819.442838,456.21761 822.316246,457.558297 C825.189654,458.898984 826.43026,462.322022 825.087223,465.203883 L823.859174,467.839004 C823.120777,471.365083 824.176976,474.671224 827.246602,476.103463 C830.598664,477.667483 834.46304,476.151713 836.029801,472.78979 L838.021428,468.516198 C839.364465,465.634337 842.782555,464.384974 845.655963,465.725661 C848.529371,467.066348 849.769977,470.489386 848.42694,473.371247 L846.504098,477.497243 C845.7657,481.023322 846.984519,484.246522 849.990378,485.807825 C853.148053,487.447225 856.782662,486.572051 858.12858,484.008262 C858.12858,484.008262 860.44686,479.60847 865.320897,481.972464 C868.174156,483.356387 869.360585,486.70151 867.412036,490.882669 C866.673638,494.408748 867.729837,497.714889 870.799464,499.147128 C874.151525,500.711148 878.015901,499.195378 879.582662,495.833455 L885.120518,483.950438 C886.463555,481.068578 889.881645,479.819214 892.755053,481.159902 C895.628461,482.500589 896.869067,485.923627 894.920517,490.104785 C894.18212,493.630864 895.238319,496.937005 898.307945,498.369245 C901.660006,499.933264 905.524383,498.417494 907.091143,495.055571 L909.459001,489.974671 C910.849979,486.989939 914.204409,485.60923 917.180386,486.997774 C920.156362,488.386318 921.255491,491.844988 918.968229,496.752948 C917.597222,501.636469 919.998986,503.952308 922.628608,505.179248 C925.981412,506.743614 930.314304,505.414683 932.030792,501.731477 L933.860532,497.805258 C935.203569,494.923397 938.62166,493.674034 941.495068,495.014721 C944.368475,496.355408 945.609081,499.778446 943.73279,503.804553 C942.994393,507.330633 944.050592,510.636774 947.120218,512.069013 C950.47228,513.633033 954.336656,512.117263 955.903417,508.75534 L961.021617,497.772812 C962.364654,494.890951 965.782744,493.641588 968.656152,494.982275 C971.52956,496.322962 972.770166,499.746 970.893875,503.772107 C970.155477,507.298187 971.211676,510.604327 974.281302,512.036567 C977.633364,513.600586 981.49774,512.084816 983.064501,508.722894 L986.793113,500.722115 C988.13615,497.840254 991.55424,496.590891 994.427648,497.931578 C997.301056,499.272265 998.541662,502.695303 996.665371,506.72141 C995.926973,510.24749 996.983173,513.55363 1000.0528,514.98587 C1003.40486,516.549889 1007.26924,515.034119 1008.836,511.672197 L1014.30159,499.944231 C1015.64463,497.06237 1019.06272,495.813007 1021.93613,497.153694 C1024.80954,498.494381 1026.05014,501.917419 1024.17385,505.943526 C1023.43545,509.469606 1024.49165,512.775747 1027.56128,514.207986 C1030.91334,515.772006 1034.77772,514.256236 1036.34448,510.894313 L1040.94124,501.030686 C1042.28427,498.148825 1045.70236,496.899462 1048.57577,498.240149 C1051.44918,499.580836 1052.68978,503.003874 1050.29275,508.147392 C1049.55435,511.673472 1050.61055,514.979612 1053.68017,516.411852 C1057.03223,517.975871 1060.89661,516.460101 1062.46337,513.098179 L1072.44513,491.679528 C1073.78817,488.797667 1077.20626,487.548304 1080.07967,488.888991 C1082.95307,490.229678 1084.19368,493.652716 1082.31739,497.678823 C1081.57899,501.204902 1082.63519,504.511043 1085.70482,505.943283 C1089.05688,507.507302 1092.92125,505.991532 1094.48801,502.62961 L1096.3056,498.729481 C1097.64863,495.847621 1101.06672,494.598257 1103.94013,495.938944 C1106.81354,497.279632 1108.05414,500.70267 1106.3519,504.355313 C1105.6135,507.881392 1106.6697,511.187533 1109.73933,512.619772 C1113.09139,514.183792 1116.95576,512.668022 1118.52253,509.306099 L1120.16676,505.777944 C1121.50979,502.896084 1124.92788,501.64672 1127.80129,502.987407 C1130.6747,504.328095 1131.9153,507.751133 1130.03901,511.77724 C1129.30062,515.303319 1130.35682,518.60946 1133.42644,520.041699 C1136.7785,521.605719 1140.64288,520.089949 1142.20964,516.728026 L1149.06482,502.018311 C1150.40786,499.13645 1153.82595,497.887087 1156.69936,499.227774 C1159.57277,500.568461 1160.81337,503.991499 1158.58969,508.763044 C1157.85129,512.289123 1158.90749,515.595264 1161.97711,517.027504 C1165.32918,518.591523 1169.19355,517.075753 1170.76031,513.713831 L1172.75194,509.440238 C1174.09498,506.558378 1177.51307,505.309014 1180.38647,506.649701 C1183.25988,507.990389 1184.50049,511.413427 1183.15745,514.295287 L1181.58201,517.675846 C1180.84361,521.201925 1181.89981,524.508066 1184.96943,525.940305 C1188.3215,527.504325 1192.18587,525.988555 1192.68994,524.906925 C1194.03298,522.025064 1197.45107,520.775701 1200.32448,522.116388 C1203.19789,523.457075 1204.43849,526.880113 1203.09546,529.761974 L1201.79515,532.552146 C1201.05675,536.078226 1202.11295,539.384367 1205.18258,540.816606 C1208.53464,542.380625 1212.39902,540.864855 1213.96578,537.502933 L1215.33487,534.565164 C1216.6779,531.683304 1220.096,530.43394 1222.9694,531.774627 C1225.84281,533.115315 1227.08342,536.538353 1225.74038,539.420213 L1220.9661,549.664759 C1220.22771,553.190838 1221.2839,556.496979 1224.35353,557.929219 C1227.70559,559.493238 1231.56997,557.977468 1233.13673,554.615545 L1244.88431,529.407836 C1246.27528,526.423105 1249.62971,525.042396 1252.60569,526.43094 C1255.58167,527.819484 1256.6808,531.278154 1255.28982,534.262885 L1240.15026,566.749045 C1238.77925,571.632566 1241.14831,573.933146 1243.77868,575.160433 C1246.20688,576.293393 1249.1027,575.881215 1251.15988,574.191083 L1252.44664,571.429983 C1253.78968,568.548122 1257.04202,567.221425 1260.39557,568.786138 C1263.26898,570.126825 1264.19519,573.403171 1261.89125,578.346912 C1261.53975,581.302984 1263.0861,584.168976 1265.76627,585.419498 C1268.39663,586.646785 1271.48229,586.891291 1274.3398,582.701349 L1289.47936,550.215189 C1290.87034,547.230458 1294.22477,545.849749 1297.20074,547.238293 C1300.17672,548.626837 1301.27585,552.085507 1299.88487,555.070238 L1288.13729,580.277947 C1286.57053,583.63987 1287.89405,587.576228 1291.24611,589.140248 C1294.31574,590.572487 1297.5258,589.256917 1299.7507,586.424416 L1304.52497,576.17987 C1305.86801,573.298009 1309.2861,572.048646 1312.15951,573.389333 C1315.03292,574.73002 1316.27352,578.153058 1314.93048,581.034919 L1313.56139,583.972688 C1311.99463,587.33461 1313.31815,591.270969 1316.67021,592.834988 C1319.73983,594.267228 1322.9499,592.951657 1325.17479,590.119156 L1326.4751,587.328984 C1327.81814,584.447123 1331.23623,583.19776 1334.10964,584.538447 C1336.98304,585.879134 1338.22365,589.302172 1337.9433,589.90374 C1336.37654,593.265663 1337.70006,597.202021 1341.05212,598.766041 C1344.12174,600.19828 1347.3318,598.882709 1349.5567,596.050208 L1351.13215,592.66965 C1352.47518,589.787789 1355.89328,588.538426 1358.76668,589.879113 C1361.64009,591.2198 1362.8807,594.642838 1361.53766,597.524699 L1359.54603,601.798291 C1357.97927,605.160214 1359.30279,609.096572 1362.65485,610.660592 C1365.72447,612.092831 1368.93454,610.77726 1372.04009,606.055076 C1373.38312,603.173215 1376.80121,601.923852 1379.67462,603.264539 C1382.54803,604.605226 1383.78863,608.028264 1382.4456,610.910125 L1375.59041,625.61984 C1374.02365,628.981762 1375.34717,632.918121 1378.69923,634.48214 C1380.50171,635.323148 1382.35261,635.216708 1384.132,634.180359 L1387.12701,628.548022 C1388.61339,625.752793 1392.08615,624.692545 1394.88367,626.179887 C1396.40462,626.988526 1397.41284,628.383716 1397.77741,629.93785 C1398.80098,631.541791 1399.0073,633.621622 1398.14258,635.477111 L1396.49835,639.005266 C1394.93159,642.367188 1396.2551,646.303547 1399.60717,647.867566 C1402.67679,649.299806 1405.88685,647.984235 1408.47096,644.380952 C1409.814,641.499091 1413.23209,640.249728 1416.1055,641.590415 C1418.9789,642.931102 1420.21951,646.35414 1418.87647,649.236001 L1417.05889,653.136129 C1415.49213,656.498051 1416.81565,660.43441 1420.16771,661.998429 C1423.23733,663.430669 1426.44739,662.115098 1429.20555,658.138351 C1430.54858,655.25649 1433.96668,654.007127 1436.84008,655.347814 C1439.71349,656.688501 1440.9541,660.111539 1439.61106,662.9934 L1429.6293,684.412051 C1429.02422,685.710427 1428.85022,687.094482 1429.05767,688.394473 C1429.53031,688.89164 1430.09257,689.323614 1430.73893,689.667263 C1433.72749,691.256173 1436.99615,690.11894 1439.35954,687.419946 L1445.90866,675.103871 C1447.39503,672.308641 1450.8678,671.248393 1453.66532,672.735735 C1456.46283,674.223078 1457.52572,677.694775 1456.03935,680.490005 L1445.56937,700.179529 C1443.8354,703.44039 1444.95481,707.427193 1448.21834,709.162297 C1451.20689,710.751207 1454.47555,709.613975 1456.83895,706.91498 L1462.42727,696.405755 C1463.91364,693.610525 1467.38641,692.550277 1470.18393,694.037619 C1472.98144,695.524962 1474.04433,698.996659 1472.55796,701.791889 C1468.46736,709.573754 1465.79804,717.840014 1464.55001,726.590667 C1462.67796,739.716647 1463.12159,747.414364 1464.7975,756.204795 C1464.79774,759.372724 1462.22922,761.940632 1459.06053,761.940391 C1455.89183,761.940149 1453.32292,759.37185 1453.32268,756.203921 L1453.32177,744.293459 C1452.50187,740.798513 1450.14934,738.258091 1446.76427,738.257833 C1443.06773,738.257551 1440.20745,741.254001 1440.20773,744.949645 L1440.20943,767.264451 C1440.20967,770.432379 1437.64114,773.000287 1434.47245,773.000046 C1431.30376,772.999804 1428.73484,770.431505 1428.7346,767.263576 L1428.73354,753.30535 C1427.91364,749.810405 1425.56111,747.269983 1422.17604,747.269725 C1418.4795,747.269443 1415.61922,750.265892 1415.6195,753.961536 L1401.97079,730.464104 C1401.83978,729.905661 1399.55156,726.468976 1395.81067,721.094397 Z" id="Combined-Shape" fill="#B58FC1" transform="translate(704.729683, 432.500046) scale(1, -1) rotate(-11.000000) translate(-704.729683, -432.500046) "></path>
            <path d="M-47.4677201,645.619167 C-47.4677201,645.619167 -47.1707937,650.559611 -41.7694669,650.195584 C-38.6075171,649.982444 -36.6654012,647.356817 -36.906174,642.767081 C-36.2707234,639.234258 -34.0546114,636.574593 -30.6740798,636.3976 C-26.9825065,636.204322 -23.9688536,639.047209 -23.7752566,642.737655 L-23.0909709,655.781867 C-22.9250184,658.945341 -20.2252127,661.375523 -17.0607732,661.209844 C-13.8963337,661.044165 -11.4655891,658.345364 -11.7063619,653.755628 C-11.0709113,650.222805 -8.85479932,647.56314 -5.47426768,647.386147 C-1.78269439,647.192869 1.23095855,650.035756 1.42455548,653.726202 L1.71714012,659.303603 C1.88901642,662.579999 4.48067257,665.107743 7.75806934,664.93615 C11.0354661,664.764557 13.3484457,661.980023 13.0658199,656.592463 C13.623102,651.569551 16.7154558,650.32701 19.6114172,650.175388 C23.3038091,649.982067 26.8215422,652.82728 27.0336403,656.870405 L27.409931,664.043454 C27.5758835,667.206927 30.2756891,669.63711 33.4401287,669.471431 C36.6045682,669.305752 39.0353127,666.606951 38.8693602,663.443478 L37.8805993,644.5952 C38.5160499,641.062377 40.7321619,638.402712 44.1126935,638.225719 C47.8042668,638.032441 50.8179197,640.875328 51.0115167,644.565774 L51.2146861,648.438697 C51.3806386,651.60217 54.0804443,654.032353 57.2448838,653.866674 C60.4093234,653.700994 62.8400679,651.002194 62.5223715,644.946098 C63.1578221,641.413276 65.373934,638.75361 68.7544657,638.576617 C72.446039,638.383339 75.4596919,641.226226 75.6532888,644.916672 L75.8993845,649.607875 C76.065337,652.771349 78.7651426,655.201531 81.9295821,655.035852 C85.0940217,654.870173 87.5247662,652.171372 87.2070698,646.115277 C87.8425204,642.582454 90.0586324,639.922789 93.439164,639.745796 C97.1307373,639.552518 100.14439,642.395405 100.337987,646.085851 L100.584083,650.777054 C100.750035,653.940527 103.449841,656.37071 106.61428,656.205031 C109.77872,656.039352 112.209465,653.340551 112.043512,650.177078 L111.805916,645.647894 C112.441366,642.115072 115.084078,639.576664 118.453824,639.256643 C121.99348,638.921162 125.340919,641.070458 125.628585,643.941194 C125.628585,643.941194 125.925511,648.881638 131.326838,648.517611 C134.488788,648.304472 136.430904,645.678845 136.190131,641.089108 C136.825582,637.556286 139.041694,634.89662 142.422225,634.719627 C146.113799,634.526349 149.127452,637.369236 149.321048,641.059682 L150.005334,654.103895 C150.171287,657.267368 152.871092,659.697551 156.035532,659.531872 C159.199971,659.366193 161.630716,656.667392 161.389943,652.077655 C162.025394,648.544833 164.241506,645.885167 167.622037,645.708174 C171.313611,645.514896 174.327264,648.357783 174.520861,652.048229 L174.813445,657.625631 C174.985321,660.902027 177.576978,663.429771 180.854374,663.258178 C184.131771,663.086584 186.444751,660.30205 186.162125,654.91449 C186.719407,649.891578 189.811761,648.649038 192.707722,648.497415 C196.400114,648.304094 199.917847,651.149308 200.129945,655.192433 L200.334531,659.092359 C200.500484,662.255832 203.20029,664.686015 206.364729,664.520336 C209.529169,664.354656 211.959913,661.655856 211.793961,658.492383 L210.8052,639.644105 C211.44065,636.111282 213.656762,633.451617 217.037294,633.274624 C220.728867,633.081346 223.74252,635.924233 223.936117,639.614679 L224.139287,643.487601 C224.305239,646.651075 227.005045,649.081257 230.169484,648.915578 C233.333924,648.749899 235.764668,646.051098 235.446972,639.995003 C236.082423,636.46218 238.298535,633.802515 241.679066,633.625522 C245.370639,633.432244 248.384292,636.275131 248.577889,639.965577 L248.823985,644.65678 C248.989937,647.820253 251.689743,650.250436 254.854183,650.084757 C258.018622,649.919078 260.449367,647.220277 260.13167,641.164182 C260.767121,637.631359 262.983233,634.971694 266.363764,634.794701 C270.055338,634.601423 273.068991,637.44431 273.262588,641.134756 L273.508683,645.825959 C273.674636,648.989432 276.374441,651.419615 279.538881,651.253936 C282.70332,651.088257 285.134065,648.389456 284.968113,645.225983 L284.730516,640.696799 C285.365967,637.163976 288.008679,634.625568 291.378424,634.305548 C294.91808,633.970067 298.26552,636.119363 298.553185,638.990099 C298.553185,638.990099 298.850112,643.930543 304.251439,643.566516 C307.413388,643.353376 309.355504,640.727749 309.114732,636.138013 C309.750182,632.60519 311.966294,629.945525 315.346826,629.768532 C319.038399,629.575254 322.052052,632.418141 322.245649,636.108587 L322.929935,649.1528 C323.095887,652.316273 325.795693,654.746456 328.960132,654.580776 C332.124572,654.415097 334.555316,651.716297 334.389364,648.552823 L333.198464,625.851262 C333.833914,622.318439 336.050026,619.658774 339.430558,619.481781 C343.122131,619.288503 346.135784,622.13139 346.329381,625.821836 L346.575477,630.513039 C346.741429,633.676512 349.441235,636.106695 352.605674,635.941016 C355.770114,635.775337 358.200859,633.076536 358.034906,629.913063 L357.79731,625.383879 C358.43276,621.851056 361.075472,619.312648 364.445218,618.992628 C367.984874,618.657147 371.332313,620.806443 371.619979,623.677179 C371.619979,623.677179 371.916905,628.617623 377.318232,628.253596 C380.480182,628.040457 382.422298,625.414829 382.181525,620.825093 C382.816976,617.29227 385.033088,614.632605 388.413619,614.455612 C392.105193,614.262334 395.118845,617.105221 395.312442,620.795667 L395.996728,633.83988 C396.162681,637.003353 398.862486,639.433536 402.026926,639.267856 C405.191365,639.102177 407.62211,636.403377 407.381337,631.81364 C408.016788,628.280818 410.2329,625.621152 413.613431,625.444159 C417.305005,625.250881 420.318658,628.093768 420.512255,631.784214 L420.804839,637.361615 C420.976715,640.638011 423.568372,643.165756 426.845768,642.994162 C430.123165,642.822569 432.436145,640.038035 432.153519,634.650475 C432.710801,629.627563 435.803155,628.385023 438.699116,628.2334 C442.391508,628.040079 445.909241,630.885293 446.121339,634.928418 L446.49763,642.101466 C446.663582,645.26494 449.363388,647.695122 452.527828,647.529443 C455.692267,647.363764 458.123012,644.664963 457.957059,641.50149 L456.968298,622.653212 C457.603749,619.12039 459.819861,616.460724 463.200393,616.283732 C466.891966,616.090453 469.905619,618.93334 470.099216,622.623786 L470.302385,626.496709 C470.468338,629.660182 473.168143,632.090365 476.332583,631.924686 C479.497022,631.759007 481.927767,629.060206 481.610071,623.004111 C482.245521,619.471288 484.461633,616.811623 487.842165,616.63463 C491.533738,616.441352 494.547391,619.284239 494.740988,622.974685 L494.987083,627.665888 C495.153036,630.829361 497.852842,633.259544 501.017281,633.093865 C504.181721,632.928185 506.612465,630.229385 506.294769,624.173289 C506.930219,620.640467 509.146331,617.980801 512.526863,617.803808 C516.218436,617.61053 519.232089,620.453417 519.425686,624.143863 L519.671782,628.835067 C519.837734,631.99854 522.53754,634.428723 525.701979,634.263043 C528.866419,634.097364 531.297164,631.398564 531.131211,628.23509 L530.893615,623.705907 C531.529065,620.173084 534.171777,617.634676 537.541523,617.314655 C541.081179,616.979174 544.428618,619.12847 544.716284,621.999207 C544.716284,621.999207 545.01321,626.939651 550.414537,626.575624 C553.576487,626.362484 555.518603,623.736857 555.27783,619.14712 C555.913281,615.614298 558.129393,612.954633 561.509924,612.77764 C565.201498,612.584362 568.215151,615.427249 568.408747,619.117695 L569.093033,632.161907 C569.258986,635.32538 571.958791,637.755563 575.123231,637.589884 C578.28767,637.424205 580.718415,634.725404 580.477642,630.135668 C581.113093,626.602845 583.329205,623.94318 586.709736,623.766187 C590.40131,623.572909 593.414963,626.415796 593.60856,630.106242 L593.901144,635.683643 C594.073021,638.960039 596.664677,641.487783 599.942073,641.31619 C603.21947,641.144597 605.53245,638.360063 605.249824,632.972503 C605.807106,627.949591 608.89946,626.70705 611.795421,626.555428 C615.487813,626.362107 619.005546,629.20732 619.217644,633.250445 L619.42223,637.150371 C619.588183,640.313844 622.287989,642.744027 625.452428,642.578348 C628.616868,642.412669 631.047612,639.713868 630.88166,636.550395 L629.892899,617.702117 C630.528349,614.169294 632.744461,611.509629 636.124993,611.332636 C639.816566,611.139358 642.830219,613.982245 643.023816,617.672691 L643.226986,621.545614 C643.392938,624.709087 646.092744,627.13927 649.257183,626.973591 C652.421623,626.807911 654.852367,624.109111 654.534671,618.053015 C655.170122,614.520193 657.386234,611.860527 660.766765,611.683534 C664.458338,611.490256 667.471991,614.333143 667.665588,618.023589 L667.911684,622.714792 C668.077636,625.878266 670.777442,628.308448 673.941882,628.142769 C677.106321,627.97709 679.537066,625.278289 679.219369,619.222194 C679.85482,615.689371 682.070932,613.029706 685.451463,612.852713 C689.143037,612.659435 692.15669,615.502322 692.350287,619.192768 L692.596382,623.883971 C692.762335,627.047444 695.46214,629.477627 698.62658,629.311948 C701.791019,629.146269 704.221764,626.447468 704.055812,623.283995 L703.818215,618.754811 C704.453666,615.221989 707.096378,612.683581 710.466123,612.36356 C714.005779,612.028079 717.353219,614.177375 717.640884,617.048111 C717.640884,617.048111 717.937811,621.988555 723.339138,621.624528 C726.501087,621.411389 728.443203,618.785762 728.202431,614.196025 C728.837881,610.663203 731.053993,608.003537 734.434525,607.826544 C738.126098,607.633266 741.139751,610.476153 741.333348,614.166599 L742.017634,627.210812 C742.183586,630.374285 744.883392,632.804468 748.047831,632.638789 C751.212271,632.47311 753.643015,629.774309 753.402243,625.184572 C754.037693,621.65175 756.253805,618.992084 759.634337,618.815091 C763.32591,618.621813 766.339563,621.4647 766.53316,625.155146 L766.825745,630.732548 C766.997621,634.008944 769.589277,636.536688 772.866674,636.365095 C776.144071,636.193501 778.45705,633.408967 778.174424,628.021407 C778.731707,622.998495 781.82406,621.755955 784.720022,621.604332 C788.412414,621.411011 791.930147,624.256225 792.142245,628.29935 L792.368337,632.609234 C792.534289,635.772708 795.234095,638.20289 798.398535,638.037211 C801.562974,637.871532 803.993719,635.172731 803.761875,630.753197 C804.397325,627.220375 806.408804,624.571423 809.789336,624.39443 C812.659105,624.244179 815.000191,625.938257 815.951922,628.434527 L816.577914,640.367514 C816.743866,643.530987 819.443672,645.96117 822.608111,645.795491 C825.772551,645.629812 828.203296,642.931011 828.037343,639.767538 L827.413411,627.873828 C828.048862,624.341005 830.264974,621.68134 833.645506,621.504347 C837.337079,621.311069 840.350732,624.153956 840.544329,627.844402 L841.713294,650.127822 C841.879246,653.291295 844.579052,655.721478 847.743491,655.555799 C850.907931,655.39012 853.338676,652.691319 853.172723,649.527846 L852.441519,635.589252 C853.07697,632.05643 855.293082,629.396764 858.673613,629.219771 C862.365186,629.026493 865.378839,631.86938 865.572436,635.559826 L865.775606,639.432749 C865.941558,642.596222 868.641364,645.026405 871.805803,644.860726 C874.970243,644.695047 877.400988,641.996246 877.235035,638.832773 L876.911587,632.667028 C877.547037,629.134205 879.763149,626.47454 883.143681,626.297547 C886.835254,626.104269 889.848907,628.947156 890.042504,632.637602 L890.417378,639.783647 C890.58333,642.94712 893.283136,645.377303 896.447576,645.211624 C899.612015,645.045945 902.04276,642.347144 901.767989,637.109329 C902.40344,633.576507 904.619552,630.916841 908.000084,630.739848 C911.691657,630.54657 914.70531,633.389457 914.898907,637.079903 L916.089378,659.773282 C916.1833,661.56368 917.294348,663.107181 918.636152,664.089666 C919.753807,665.32102 921.599352,666.049024 923.390298,665.955256 C926.554737,665.789577 928.576216,663.112204 928.344372,658.69267 C928.979823,655.159847 931.195935,652.500182 934.576466,652.323189 C938.26804,652.129911 941.281693,654.972798 941.47529,658.663244 L941.936016,667.445851 C942.101968,670.609324 944.801774,673.039507 947.966214,672.873828 C951.130653,672.708149 953.561398,670.009348 953.329554,665.589814 C953.965004,662.056991 956.181116,659.397326 959.561648,659.220333 C963.253221,659.027055 966.266874,661.869942 966.460471,665.560388 L967.135828,678.434398 C967.301781,681.597871 970.001586,684.028054 973.166026,683.862375 C976.330465,683.696696 978.76121,680.997895 978.529366,676.578361 C979.164816,673.045538 981.380928,670.385873 984.76146,670.20888 C988.453033,670.015602 991.466686,672.858489 991.660283,676.548935 L992.657543,695.559232 C992.823496,698.722706 995.523301,701.152888 998.687741,700.987209 C1001.85218,700.82153 1004.28293,698.122729 1004.11697,694.959256 L1003.55747,684.293785 C1004.19292,680.760963 1006.40904,678.101297 1009.78957,677.924304 C1013.48114,677.731026 1016.49479,680.573913 1016.68839,684.264359 L1017.92179,707.776019 C1018.08774,710.939492 1020.78755,713.369675 1023.95199,713.203996 C1027.11642,713.038317 1029.54717,710.339516 1029.38122,707.176043 L1028.75729,695.282333 C1029.39274,691.74951 1031.60885,689.089845 1034.98938,688.912852 C1038.68095,688.719574 1041.69461,691.562461 1041.8882,695.252907 L1043.05717,717.536327 C1043.22312,720.6998 1045.92293,723.129983 1049.08737,722.964304 C1052.2518,722.798624 1054.68255,720.099824 1054.5166,716.936351 L1053.78539,702.997757 C1054.42084,699.464934 1056.63696,696.805269 1060.01749,696.628276 C1063.70906,696.434998 1066.72271,699.277885 1066.91631,702.968331 L1067.11948,706.841254 C1067.28543,710.004727 1069.98524,712.43491 1073.14968,712.26923 C1076.31412,712.103551 1078.74486,709.404751 1078.57891,706.241277 L1078.25546,700.075532 C1078.89091,696.54271 1081.10702,693.883044 1084.48755,693.706051 C1088.17913,693.512773 1091.19278,696.35566 1091.38638,700.046106 L1091.76125,707.192152 C1091.9272,710.355625 1094.62701,712.785808 1097.79145,712.620128 C1100.95589,712.454449 1103.38663,709.755649 1103.11186,704.517834 C1103.74731,700.985011 1105.96343,698.325346 1109.34396,698.148353 C1113.03553,697.955075 1116.04918,700.797962 1116.24278,704.488408 L1117.43325,727.181787 C1117.5992,730.34526 1120.29901,732.775443 1123.46345,732.609763 C1126.62789,732.444084 1129.05863,729.745284 1128.89268,726.58181 L1128.22582,713.86982 C1128.86127,710.336997 1131.07739,707.677332 1134.45792,707.500339 C1138.14949,707.307061 1141.16314,710.149948 1141.22543,711.337273 C1141.39138,714.500746 1144.09119,716.930929 1147.25563,716.76525 C1150.42007,716.599571 1152.85081,713.90077 1152.68486,710.737297 L1152.052,698.673384 C1152.68745,695.140562 1154.90356,692.480896 1158.28409,692.303903 C1161.97567,692.110625 1164.98932,694.953512 1165.18292,698.643958 L1165.82428,710.86989 C1165.99023,714.033364 1168.69003,716.463546 1171.85447,716.297867 C1175.01891,716.132188 1177.44966,713.433387 1177.2837,710.269914 L1176.69377,699.024282 C1177.32922,695.49146 1179.54533,692.831794 1182.92586,692.654802 C1186.61744,692.461523 1189.63109,695.30441 1189.85972,699.662574 C1190.03159,702.938969 1192.62325,705.466714 1195.90064,705.29512 C1199.17804,705.123527 1201.49102,702.338993 1201.31914,699.062597 L1200.86499,690.405187 C1201.42227,685.382276 1204.47861,684.141621 1207.37539,683.989955 C1210.04953,683.849947 1212.90857,685.294543 1213.85244,687.641067 L1214.01144,690.671979 C1214.1774,693.835452 1217.00162,696.259121 1220.79714,696.0604 C1223.96158,695.894721 1225.63682,693.235476 1225.35214,687.808638 C1226.84162,684.909678 1228.63836,682.876699 1231.58998,682.722163 C1234.48676,682.570497 1237.43762,683.496636 1238.5174,688.433837 L1238.97156,697.091247 C1239.14343,700.367643 1241.73509,702.895387 1245.01248,702.723794 C1248.28988,702.552201 1250.60286,699.767667 1250.39596,695.823554 C1250.20236,692.133108 1252.90205,688.99109 1256.59362,688.797811 C1259.97416,688.620819 1262.45641,691.034494 1263.45802,694.481605 L1264.04795,705.727237 C1264.21391,708.89071 1266.91371,711.320893 1270.07815,711.155214 C1273.24259,710.989535 1275.67334,708.290734 1275.50738,705.127261 L1274.86602,692.901329 C1274.67243,689.210883 1277.37212,686.068865 1281.06369,685.875587 C1284.44422,685.698594 1286.92648,688.112269 1287.92809,691.559381 L1288.56095,703.623293 C1288.7269,706.786766 1291.42671,709.216949 1294.59115,709.05127 C1297.75559,708.885591 1300.18633,706.18679 1300.15169,705.526437 C1299.95809,701.835991 1302.65778,698.693973 1306.34936,698.500695 C1309.72989,698.323702 1312.21214,700.737377 1313.21375,704.184489 L1313.88061,716.89648 C1314.04656,720.059953 1316.74637,722.490136 1319.91081,722.324457 C1323.07525,722.158778 1325.50599,719.459977 1325.34004,716.296504 L1324.14957,693.603125 C1323.95597,689.912679 1326.65566,686.770661 1330.34724,686.577383 C1333.72777,686.40039 1336.21002,688.814065 1337.32045,694.335518 C1337.4864,697.498991 1340.18621,699.929174 1343.35065,699.763495 C1346.51509,699.597816 1348.94583,696.899015 1348.77988,693.735542 L1348.40501,686.589497 C1348.21141,682.899051 1350.9111,679.757033 1354.60267,679.563755 C1357.9832,679.386762 1360.46546,681.800437 1361.46707,685.247548 L1361.79052,691.413294 C1361.95647,694.576767 1364.65628,697.006949 1367.82072,696.84127 C1370.98516,696.675591 1373.4159,693.976791 1373.24995,690.813317 L1373.04678,686.940395 C1372.85318,683.249949 1375.55287,680.107931 1379.24445,679.914653 C1382.62498,679.73766 1385.10723,682.151335 1386.10884,685.598447 L1386.84005,699.53704 C1387.006,702.700513 1389.7058,705.130696 1392.87024,704.965017 C1396.03468,704.799338 1398.46543,702.100537 1398.29947,698.937064 L1397.13051,676.653644 C1396.93691,672.963198 1399.6366,669.82118 1403.32818,669.627902 C1406.70871,669.450909 1409.19096,671.864584 1410.19257,675.311695 L1410.81651,687.205405 C1410.98246,690.368879 1413.68226,692.799061 1416.8467,692.633382 C1420.01114,692.467703 1422.44189,689.768902 1422.27593,686.605429 C1419.0437,673.561724 1417.15341,664.620513 1416.60507,659.781795 C1416.79076,655.886083 1417.00045,653.68768 1417.23416,653.186586 L1427.17965,631.862482 C1428.51781,628.993342 1427.27475,625.582169 1424.4032,624.243398 C1421.53164,622.904626 1418.11901,624.145229 1416.78086,627.014369 L1411.74979,637.801473 C1409.53075,640.620435 1406.32598,641.927227 1403.25834,640.497034 C1399.90844,638.935249 1398.58198,635.012653 1400.14305,631.66557 L1409.56899,611.455428 C1410.90715,608.586289 1409.66409,605.175116 1406.79254,603.836344 C1403.92098,602.497572 1400.50835,603.738176 1399.1702,606.607315 L1393.27414,619.249044 C1391.0551,622.068007 1387.85033,623.374799 1384.78268,621.944605 C1381.43279,620.38282 1380.10633,616.460224 1381.6674,613.113142 L1383.30565,609.600561 C1384.64381,606.731421 1383.40075,603.320249 1380.5292,601.981477 C1377.65765,600.642705 1374.24502,601.883308 1372.90686,604.752448 L1370.29873,610.344524 C1368.0797,613.163487 1364.87493,614.470279 1361.80728,613.040085 C1358.45738,611.4783 1357.13093,607.555704 1358.692,604.208622 L1361.71479,597.727454 C1363.05295,594.858314 1361.80989,591.447141 1358.93834,590.10837 C1356.06678,588.769598 1352.65415,590.010201 1351.316,592.879341 C1348.21951,597.579645 1345.01474,598.886437 1341.94709,597.456244 C1338.5972,595.894459 1337.27074,591.971863 1338.83181,588.624781 L1348.43116,568.042823 C1349.76932,565.173683 1348.52626,561.762511 1345.65471,560.423739 C1342.78315,559.084967 1339.37052,560.32557 1338.03237,563.19471 L1332.65516,574.723961 C1330.43613,577.542923 1327.23136,578.849715 1324.16371,577.419522 C1320.81381,575.857737 1319.48736,571.935141 1321.04843,568.588058 C1321.32776,567.989146 1320.0847,564.577973 1317.21315,563.239201 C1314.34159,561.90043 1310.92896,563.141033 1309.5908,566.010173 L1304.48774,576.951643 C1302.2687,579.770606 1299.06393,581.077398 1295.99629,579.647204 C1292.64639,578.085419 1291.31993,574.162823 1292.881,570.815741 L1298.0526,559.727325 C1299.39076,556.858186 1298.1477,553.447013 1295.27615,552.108241 C1292.40459,550.769469 1288.99196,552.010073 1287.65381,554.879212 L1282.89688,565.078536 C1280.67784,567.897498 1277.47307,569.20429 1274.40542,567.774097 C1271.05553,566.212312 1269.72907,562.289716 1271.29014,558.942634 C1272.95851,555.365486 1271.85672,551.918981 1268.88266,550.532421 C1265.90861,549.145861 1262.55971,550.517373 1261.17379,553.488929 L1257.51168,561.340842 C1254.66234,565.511254 1251.58004,565.264166 1248.95137,564.038633 C1246.27294,562.789897 1245.36837,560.233149 1245.07284,556.989061 C1247.3684,552.067143 1246.81092,548.975599 1243.93937,547.636828 C1240.49514,546.031063 1236.96961,547.21903 1235.63145,550.08817 L1234.34937,552.837082 C1232.59588,554.657856 1229.40461,554.925565 1226.97797,553.794224 C1224.34931,552.56869 1221.98041,550.274327 1223.34421,545.411328 L1227.00632,537.559415 C1228.39224,534.587859 1227.29045,531.141354 1224.3164,529.754794 C1221.34234,528.368233 1217.99345,529.739746 1216.60752,532.711302 C1214.76401,536.663976 1210.90592,538.169441 1207.55603,536.607656 C1204.48838,535.177463 1203.42965,531.882945 1204.16314,528.371395 L1208.92007,518.172071 C1210.25823,515.302931 1209.01517,511.891759 1206.14362,510.552987 C1203.27206,509.214215 1199.85943,510.454818 1198.52127,513.323958 L1193.34967,524.412374 C1191.78861,527.759456 1187.93052,529.264921 1184.58062,527.703136 C1181.51298,526.272943 1180.45424,522.978425 1181.18774,519.466875 L1186.2908,508.525404 C1187.62896,505.656265 1186.3859,502.245092 1183.51435,500.90632 C1180.64279,499.567548 1177.23016,500.808152 1175.89201,503.677291 C1175.38977,504.754146 1171.53168,506.259612 1168.18178,504.697827 C1165.11414,503.267634 1164.0554,499.973115 1164.7889,496.461565 L1170.1661,484.932314 C1171.50426,482.063175 1170.2612,478.652002 1167.38964,477.31323 C1164.51809,475.974458 1161.10546,477.215062 1159.7673,480.084201 L1150.16795,500.666159 C1148.60688,504.013241 1144.74879,505.518707 1141.3989,503.956922 C1138.33125,502.526729 1137.27252,499.23221 1138.00601,495.72066 C1140.22162,490.970179 1138.97856,487.559006 1136.10701,486.220234 C1133.23545,484.881462 1129.82282,486.122066 1128.48467,488.991205 L1125.46187,495.472373 C1123.9008,498.819455 1120.04272,500.324921 1116.69282,498.763136 C1113.62518,497.332943 1112.56644,494.038424 1113.29993,490.526875 L1115.90806,484.934798 C1117.24622,482.065659 1116.00316,478.654486 1113.13161,477.315714 C1110.26005,475.976942 1106.84742,477.217546 1105.50926,480.086685 L1103.87101,483.599266 C1102.30994,486.946348 1098.45185,488.451814 1095.10196,486.890029 C1092.03431,485.459836 1090.97558,482.165317 1091.70907,478.653767 L1097.60513,466.012038 C1098.94329,463.142899 1097.70023,459.731726 1094.82868,458.392954 C1091.95712,457.054182 1088.54449,458.294786 1087.20633,461.163925 L1077.78039,481.374068 C1076.21933,484.72115 1072.36124,486.226615 1069.01134,484.66483 C1065.9437,483.234637 1064.88496,479.940119 1065.61846,476.428569 L1070.64952,465.641465 C1071.98768,462.772325 1070.74462,459.361152 1067.87307,458.022381 C1065.00152,456.683609 1061.58889,457.924212 1060.25073,460.793352 L1050.30524,482.117456 C1048.74417,485.464538 1044.88608,486.970004 1041.53619,485.408219 C1038.46854,483.978026 1037.40981,480.683507 1038.1433,477.171957 L1042.65482,467.498816 C1043.99298,464.629676 1042.74992,461.218503 1039.87837,459.879732 C1037.00681,458.54096 1033.59418,459.781563 1032.25603,462.650703 L1024.21462,479.892258 C1022.65356,483.23934 1018.79547,484.744805 1015.44557,483.18302 C1012.37793,481.752827 1011.31919,478.458309 1012.05269,474.946759 C1013.92216,470.938424 1012.6791,467.527251 1009.80755,466.188479 C1006.93599,464.849708 1003.52336,466.090311 1002.18521,468.959451 L996.739469,480.635646 C995.178401,483.982729 991.320315,485.488194 987.970417,483.926409 C984.902773,482.496216 983.844037,479.201698 984.577531,475.690148 C986.447005,471.681813 985.203947,468.27064 982.332394,466.931868 C979.46084,465.593096 976.048209,466.8337 974.710052,469.702839 L970.994988,477.668301 C969.43392,481.015383 965.575834,482.520849 962.225937,480.959064 C959.158292,479.52887 958.099557,476.234352 958.83305,472.722802 C960.702524,468.714467 959.830852,465.476441 956.959298,464.13767 C955.334115,463.379979 953.350668,463.363297 951.853569,464.085657 C950.241842,464.493458 948.634009,465.50753 947.876666,467.131347 L938.27731,487.713305 C936.716243,491.060387 932.858157,492.565852 929.508259,491.004067 C926.440614,489.573874 925.381879,486.279356 926.115373,482.767806 C928.330981,478.017324 927.087923,474.606151 924.21637,473.267379 C921.344817,471.928608 917.932186,473.169211 916.594029,476.038351 L913.571234,482.519519 C912.010166,485.866601 908.15208,487.372067 904.802183,485.810282 C901.734538,484.380088 900.675803,481.08557 901.409297,477.57402 L904.017422,471.981944 C905.355579,469.112804 904.112521,465.701631 901.240968,464.362859 C898.369415,463.024088 894.956784,464.264691 893.618627,467.133831 L891.980371,470.646412 C890.419303,473.993494 886.561217,475.498959 883.211319,473.937174 C880.143675,472.506981 879.084939,469.212463 879.818433,465.700913 L885.714493,453.059184 C887.05265,450.190044 885.809592,446.778871 882.938038,445.4401 C880.066485,444.101328 876.653854,445.341931 875.315697,448.211071 L865.889755,468.421213 C864.328688,471.768295 860.470602,473.273761 857.120704,471.711976 C854.053059,470.281782 852.994324,466.987264 853.727818,463.475714 L858.758887,452.68861 C860.097044,449.819471 858.853985,446.408298 855.982432,445.069526 C853.110879,443.730754 849.698248,444.971358 848.360091,447.840497 L843.312408,458.663224 C841.495581,460.619812 838.691074,461.312695 836.086919,460.098589 C833.019274,458.668396 832.146232,455.460451 832.879725,451.948901 C834.749199,447.940566 833.506141,444.529393 830.634588,443.190621 C827.763035,441.851849 824.350404,443.092453 823.012247,445.961592 L821.189155,449.87048 C819.478903,453.537427 815.152641,454.856243 811.802001,453.294112 C809.174077,452.068925 806.772496,449.759325 808.136301,444.896326 C810.415252,440.010031 809.313463,436.563527 806.339408,435.176966 C803.365352,433.790406 800.016457,435.161918 798.630533,438.133474 L796.271279,443.191947 C794.710211,446.539029 790.852125,448.044495 787.502227,446.48271 C784.434582,445.052516 783.375847,441.757998 784.109341,438.246448 C786.050811,434.083747 784.807753,430.672574 781.936199,429.333802 C779.064646,427.99503 775.652015,429.235634 774.313858,432.104773 L768.796124,443.935336 C767.235056,447.282418 763.37697,448.787883 760.027073,447.226098 C756.959428,445.795905 755.900693,442.501387 756.634186,438.989837 C758.575656,434.827135 757.758185,431.666783 754.906708,430.284967 C750.035715,427.92457 747.910893,432.391207 747.910893,432.391207 C746.569494,434.943507 742.661634,435.681265 739.505806,434.044615 C736.501707,432.485931 735.002099,429.143986 735.735593,425.632436 L737.651448,421.524653 C738.989606,418.655514 737.746547,415.244341 734.874994,413.905569 C732.003441,412.566797 728.59081,413.807401 727.252653,416.67654 L725.268263,420.931268 C723.707195,424.27835 719.849109,425.783816 716.499211,424.222031 C713.431566,422.791837 712.372831,419.497319 713.106325,415.985769 C715.668068,410.493141 714.42501,407.081968 711.553457,405.743196 C708.681904,404.404424 705.269273,405.645028 703.931116,408.514167 L701.946725,412.768895 C700.385657,416.115977 696.527572,417.621443 693.177674,416.059658 C690.110029,414.629464 689.051294,411.334946 689.784788,407.823396 C692.346531,402.330767 691.103473,398.919595 688.23192,397.580823 C685.360367,396.242051 681.947736,397.482654 680.609579,400.351794 L678.971323,403.864375 C677.410255,407.211457 673.552169,408.716923 670.202271,407.155138 C667.134627,405.724944 666.075891,402.430426 666.809385,398.918876 L674.782253,381.824266 C676.12041,378.955127 674.877352,375.543954 672.005799,374.205182 C669.134246,372.86641 665.721615,374.107014 664.383458,376.976153 L662.73378,380.513225 C661.023528,384.180172 656.697266,385.498989 653.346625,383.936858 C650.718701,382.71167 648.31712,380.402071 649.680925,375.539071 C651.959877,370.652777 650.858088,367.206272 647.884032,365.819712 C644.909977,364.433151 641.561081,365.804664 640.175158,368.776219 L637.815903,373.834692 C636.254835,377.181774 632.396749,378.68724 629.046852,377.125455 C625.979207,375.695262 624.920472,372.400743 625.653965,368.889193 C627.595435,364.726492 626.352377,361.315319 623.480824,359.976547 C620.609271,358.637775 617.19664,359.878379 615.858483,362.747518 L610.340749,374.578081 C608.779681,377.925163 604.921595,379.430629 601.571697,377.868844 C598.504053,376.43865 597.445317,373.144132 598.178811,369.632582 C600.120281,365.469881 599.302809,362.309529 596.451332,360.927712 C591.580339,358.567316 589.455518,363.033953 589.455518,363.033953 C588.114119,365.586252 584.206258,366.32401 581.050431,364.68736 C578.046331,363.128676 576.546723,359.786731 577.280217,356.275181 L579.196073,352.167399 C580.53423,349.298259 579.291172,345.887086 576.419619,344.548314 C573.548066,343.209543 570.135435,344.450146 568.797278,347.319286 L566.812887,351.574013 C565.251819,354.921095 561.393733,356.426561 558.043836,354.864776 C554.976191,353.434583 553.917456,350.140064 554.650949,346.628514 C557.212693,341.135886 555.969635,337.724713 553.098082,336.385941 C550.226528,335.047169 546.813897,336.287773 545.47574,339.156912 L543.49135,343.41164 C541.930282,346.758722 538.072196,348.264188 534.722298,346.702403 C531.654654,345.27221 530.595919,341.977691 531.329412,338.466141 C533.891156,332.973513 532.648097,329.56234 529.776544,328.223568 C526.904991,326.884796 523.49236,328.1254 522.154203,330.994539 L520.515947,334.50712 C518.95488,337.854202 515.096794,339.359668 511.746896,337.797883 C508.679251,336.36769 507.620516,333.073171 508.35401,329.561621 L516.326878,312.467012 C517.665035,309.597872 516.421977,306.186699 513.550424,304.847927 C510.678871,303.509156 507.26624,304.749759 505.928083,307.618899 L502.893865,314.124558 C501.183613,317.791505 496.857351,319.110321 493.506711,317.54819 C490.878787,316.323003 488.477206,314.013403 489.841011,309.150404 C492.119962,304.264109 491.018173,300.817604 488.044118,299.431044 C485.070062,298.044484 481.721167,299.415996 480.335243,302.387552 L477.975989,307.446025 C476.414921,310.793107 472.556835,312.298573 469.206937,310.736788 C466.139293,309.306594 465.080557,306.012076 465.814051,302.500526 C467.755521,298.337824 466.512463,294.926652 463.64091,293.58788 C460.769356,292.249108 457.356725,293.489711 456.018568,296.358851 L450.500834,308.189414 C448.939766,311.536496 445.08168,313.041961 441.731783,311.480176 C438.664138,310.049983 437.605403,306.755465 438.338896,303.243915 C440.280366,299.081213 439.462895,295.920861 436.611418,294.539045 C431.740425,292.178648 429.615603,296.645285 429.615603,296.645285 C428.274205,299.197585 424.366344,299.935343 421.210517,298.298693 C418.206417,296.740009 416.706809,293.398064 417.440303,289.886514 L419.356159,285.778731 C420.694316,282.909592 419.451257,279.498419 416.579704,278.159647 C413.708151,276.820875 410.29552,278.061479 408.957363,280.930618 L406.972973,285.185346 C405.411905,288.532428 401.553819,290.037894 398.203921,288.476109 C395.136277,287.045915 394.077541,283.751397 394.811035,280.239847 L404.413852,259.650468 C405.752009,256.781328 404.508951,253.370155 401.637397,252.031384 C398.765844,250.692612 395.353213,251.933215 394.015056,254.802355 L388.497322,266.632917 C386.936254,269.98 383.078168,271.485465 379.728271,269.92368 C376.660626,268.493487 375.601891,265.198969 376.335384,261.687419 C378.276854,257.524717 377.459383,254.364365 374.607906,252.982549 C369.736913,250.622152 367.612091,255.088789 367.612091,255.088789 C366.270692,257.641089 362.362832,258.378847 359.207005,256.742197 C356.202905,255.183513 354.703297,251.841568 355.436791,248.330018 L357.352647,244.222235 C358.690804,241.353095 357.447745,237.941923 354.576192,236.603151 C351.704639,235.264379 348.292008,236.504982 346.953851,239.374122 L344.969461,243.62885 C343.408393,246.975932 339.550307,248.481398 336.200409,246.919613 C333.132764,245.489419 332.074029,242.194901 332.807523,238.683351 C335.369266,233.190722 334.126208,229.77955 331.254655,228.440778 C328.383102,227.102006 324.970471,228.342609 323.632314,231.211749 L321.647923,235.466477 C320.086856,238.813559 316.22877,240.319024 312.878872,238.757239 C309.811227,237.327046 308.752492,234.032528 309.485986,230.520978 C312.047729,225.028349 310.804671,221.617176 307.933118,220.278405 C305.061565,218.939633 301.648934,220.180236 300.310777,223.049376 L298.672521,226.561957 C297.111453,229.909039 293.253367,231.414504 289.903469,229.85272 C286.835825,228.422526 285.77709,225.128008 286.510583,221.616458 L294.483451,204.521848 C295.821608,201.652709 294.57855,198.241536 291.706997,196.902764 C288.835444,195.563992 285.422813,196.804596 284.084656,199.673735 L282.434978,203.210807 C280.724726,206.877754 276.398464,208.196571 273.047823,206.634439 C270.419899,205.409252 268.018318,203.099652 269.382123,198.236653 C271.661075,193.350358 270.559286,189.903854 267.58523,188.517293 C264.611175,187.130733 261.262279,188.502245 259.876356,191.473801 L257.517101,196.532274 C255.956033,199.879356 252.097947,201.384822 248.74805,199.823037 C245.680405,198.392843 244.62167,195.098325 245.355163,191.586775 C247.296633,187.424074 246.053575,184.012901 243.182022,182.674129 C240.310469,181.335357 236.897838,182.575961 235.559681,185.4451 L230.041947,197.275663 C228.480879,200.622745 224.622793,202.12821 221.272895,200.566425 C218.205251,199.136232 217.146515,195.841714 217.880009,192.330164 C219.821479,188.167462 219.004008,185.00711 216.15253,183.625294 C211.281537,181.264897 209.156716,185.731535 209.156716,185.731535 C207.815317,188.283834 203.907456,189.021592 200.751629,187.384942 C197.747529,185.826258 196.247921,182.484313 196.981415,178.972763 L198.897271,174.86498 C200.235428,171.995841 198.99237,168.584668 196.120817,167.245896 C193.249264,165.907124 189.836633,167.147728 188.498476,170.016867 L186.514085,174.271595 C184.953017,177.618677 181.094931,179.124143 177.745034,177.562358 C174.677389,176.132165 173.618654,172.837646 174.352147,169.326096 C176.913891,163.833468 175.670833,160.422295 172.79928,159.083523 C169.927726,157.744751 166.515096,158.985355 165.176939,161.854494 L163.192548,166.109222 C161.63148,169.456304 157.773394,170.96177 154.423496,169.399985 C151.355852,167.969791 150.297117,164.675273 151.03061,161.163723 C153.592354,155.671095 152.349295,152.259922 149.477742,150.92115 C146.606189,149.582378 143.193558,150.822982 141.855401,153.692121 L140.217145,157.204702 C138.656078,160.551784 134.797992,162.05725 131.448094,160.495465 C128.380449,159.065272 127.321714,155.770753 128.055208,152.259203 L136.028076,135.164593 C137.366233,132.295454 136.123175,128.884281 133.251622,127.545509 C130.380069,126.206737 126.967438,127.447341 125.629281,130.31648 L122.595063,136.822139 C120.884811,140.489087 116.558549,141.807903 113.207909,140.245772 C110.579985,139.020585 108.178404,136.710985 109.542209,131.847986 C111.82116,126.961691 110.719371,123.515186 107.745316,122.128626 C104.77126,120.742066 101.422365,122.113578 100.036441,125.085134 L97.6771866,130.143607 C96.1161188,133.490689 92.2580328,134.996154 88.9081352,133.434369 C85.8404905,132.004176 84.7817553,128.709658 85.515249,125.198108 C87.4567189,121.035406 86.2136606,117.624233 83.3421075,116.285462 C80.4705545,114.94669 77.0579235,116.187293 75.7197665,119.056433 L70.2020322,130.886995 C68.6409644,134.234077 64.7828784,135.739543 61.4329807,134.177758 C58.3653361,132.747565 57.3066008,129.453046 58.0400945,125.941497 C59.9815644,121.778795 59.164093,118.618443 56.3126158,117.236627 C51.4416228,114.87623 49.3168013,119.342867 49.3168013,119.342867 C47.9754026,121.895167 44.0675419,122.632925 40.9117146,120.996275 C37.9076146,119.437591 36.408007,116.095646 37.1415007,112.584096 L39.0573566,108.476313 C40.3955136,105.607173 39.1524554,102.196001 36.2809023,100.857229 C33.4093492,99.518457 29.9967182,100.75906 28.6585612,103.6282 L26.6741706,107.882928 C25.1131028,111.23001 21.2550168,112.735475 17.9051192,111.173691 C14.8374746,109.743497 13.7787393,106.448979 14.512233,102.937429 C17.0739764,97.4448003 15.8309181,94.0336275 12.9593651,92.6948557 C10.087812,91.3560839 6.67518101,92.5966873 5.337024,95.4658269 L3.35263338,99.7205546 C1.79156558,103.067637 -2.0665204,104.573102 -5.41641805,103.011317 C-8.48406268,101.581124 -9.54279795,98.2866058 -8.80930426,94.7750558 C-6.24756085,89.2824272 -7.49061911,85.8712544 -10.3621722,84.5324826 C-13.2337252,83.1937108 -16.6463562,84.4343142 -17.9845132,87.3034538 L-19.6227691,90.8160347 C-21.1838369,94.1631169 -25.0419229,95.6685825 -28.3918205,94.1067975 C-31.4594651,92.6766041 -32.5182004,89.3820858 -31.7847067,85.8705359 L-23.8118385,68.7759261 C-22.4736815,65.9067865 -23.7167397,62.4956136 -26.5882928,61.1568418 C-29.4598459,59.8180701 -32.8724768,61.0586735 -34.2106339,63.9278131 L-44.1675466,85.2764084 C-45.8777985,88.9433559 -50.2040606,90.2621722 -53.554701,88.700041 C-55.1363802,87.9626325 -56.6360661,85.5386134 -57.2821402,83.6952597 L-57.2821402,641.702523 C-51.1028251,640.599134 -47.755386,642.74843 -47.4677201,645.619167 Z" id="Combined-Shape" fill="#FCE579" transform="translate(685.217860, 396.617756) scale(1, -1) rotate(-11.000000) translate(-685.217860, -396.617756) "></path>
        </g>
    </g>
</svg>