<?xml version="1.0" encoding="UTF-8"?>
<svg width="324px" height="313px" viewBox="0 0 324 313" version="1.1" xmlns="http://www.w3.org/2000/svg" xmlns:xlink="http://www.w3.org/1999/xlink">
    <!-- Generator: Sketch 62 (91390) - https://sketch.com -->
    <title>background-pattern-b copy</title>
    <desc>Created with Sketch.</desc>
    <g id="Signup---Signin" stroke="none" stroke-width="1" fill="none" fill-rule="evenodd">
        <g id="SignUp-Confirmation" transform="translate(-50.000000, -603.000000)">
            <g id="bg/background-pattern-b" transform="translate(50.000000, 603.000000)">
                <path d="M58.0582203,139.843269 C118.789564,139.843269 173.098957,191.363942 173.098957,254.919346 C173.098957,318.47475 118.789564,369.995423 58.0582203,369.995423 L58.0582203,139.843269 Z" id="Fill-1" fill="#FFEEA7" transform="translate(115.578588, 254.919346) rotate(90.000000) translate(-115.578588, -254.919346) "></path>
                <path d="M147.66467,197.553298 C147.66467,215.279836 133.299371,229.649548 115.578277,229.649548 C97.8587396,229.649548 83.4918839,215.279836 83.4918839,197.553298 C83.4918839,179.82676 97.8587396,165.457048 115.578277,165.457048 C133.299371,165.457048 147.66467,179.82676 147.66467,197.553298" id="Fill-3" fill="#B58FC1" transform="translate(115.578277, 197.553298) rotate(90.000000) translate(-115.578277, -197.553298) "></path>
                <path d="M78.2590954,195.907096 C80.0436625,211.941981 93.6256824,224.415981 110.133707,224.415981 C127.853245,224.415981 142.218543,210.046269 142.218543,192.319731 C142.218543,184.077981 139.086986,176.587038 133.982439,170.903019 C119.361757,185.143442 99.8810108,194.349404 78.2590954,195.907096" id="Fill-5" fill="#C9A9D5" transform="translate(110.238819, 197.659500) rotate(90.000000) translate(-110.238819, -197.659500) "></path>
                <path d="M150.834067,277.21911 C183.535559,262.55811 200.996599,232.40586 200.996599,197.488629 C200.996599,190.916725 199.810002,184.531744 198.461455,178.36484 C183.87036,171.562398 169.520634,167.741379 150.834067,167.741379 L150.834067,277.21911 Z" id="Fill-7" fill="#FCE579" transform="translate(175.915333, 222.480244) rotate(90.000000) translate(-175.915333, -222.480244) "></path>
                <path d="M233.55625,120.132047 C233.55625,136.531432 220.26543,149.824778 203.872638,149.824778 C187.479847,149.824778 174.189027,136.531432 174.189027,120.132047 C174.189027,103.732663 187.479847,90.4393165 203.872638,90.4393165 C220.26543,90.4393165 233.55625,103.732663 233.55625,120.132047" id="Fill-9" fill="#B58FC1" transform="translate(203.872638, 120.132047) rotate(90.000000) translate(-203.872638, -120.132047) "></path>
                <path d="M157.504172,84.7205353 C157.504172,96.5153815 147.944435,106.078055 136.153212,106.078055 C124.36043,106.078055 114.802251,96.5153815 114.802251,84.7205353 C114.802251,72.9256892 124.36043,63.3630161 136.153212,63.3630161 C147.944435,63.3630161 157.504172,72.9256892 157.504172,84.7205353" id="Fill-11" fill="#FCE579" transform="translate(136.153212, 84.720535) rotate(90.000000) translate(-136.153212, -84.720535) "></path>
                <path d="M323.499517,73.0118438 C323.499517,108.302921 294.899726,136.911498 259.619487,136.911498 C224.339248,136.911498 195.741014,108.302921 195.741014,73.0118438 C195.741014,37.7207669 224.339248,9.11218993 259.619487,9.11218993 C294.899726,9.11218993 323.499517,37.7207669 323.499517,73.0118438" id="Fill-13" fill="#FCE579" transform="translate(259.620265, 73.011844) rotate(90.000000) translate(-259.620265, -73.011844) "></path>
                <path d="M235.949966,94.6932281 C232.726533,93.493805 229.239931,92.8349012 225.599165,92.8349012 C209.204817,92.8349012 195.915553,106.128247 195.915553,122.526074 C195.915553,124.431132 196.102419,126.292574 196.445006,128.09794 C213.831299,123.007401 228.148324,110.734343 235.949966,94.6932281" id="Fill-15" fill="#C9A9D5" transform="translate(215.932760, 110.466420) rotate(90.000000) translate(-215.932760, -110.466420) "></path>
                <path d="M68.234058,131.395843 C68.234058,125.288131 73.1844411,120.336227 79.2902769,120.336227 C85.3961127,120.336227 90.3464958,125.288131 90.3464958,131.395843 C90.3464958,137.503554 85.3961127,142.455458 79.2902769,142.455458 C73.1844411,142.455458 68.234058,137.503554 68.234058,131.395843" id="Fill-17" fill="#C9A9D5" transform="translate(79.290277, 131.395843) rotate(90.000000) translate(-79.290277, -131.395843) "></path>
                <path d="M156.463743,8.99119751 C156.463743,4.06265905 160.457996,0.0671782817 165.385021,0.0671782817 C170.312046,0.0671782817 174.3063,4.06265905 174.3063,8.99119751 C174.3063,13.919736 170.312046,17.9152167 165.385021,17.9152167 C160.457996,17.9152167 156.463743,13.919736 156.463743,8.99119751" id="Fill-19" fill="#C9A9D5" transform="translate(165.385021, 8.991198) rotate(90.000000) translate(-165.385021, -8.991198) "></path>
            </g>
        </g>
    </g>
</svg>