<?xml version="1.0" encoding="UTF-8" standalone="no"?>
<svg width="1445px" height="653px" viewBox="0 0 1445 653" version="1.1" xmlns="http://www.w3.org/2000/svg" xmlns:xlink="http://www.w3.org/1999/xlink">
    <!-- Generator: Sketch 48.2 (47327) - http://www.bohemiancoding.com/sketch -->
    <title>bg/background-pattern-d</title>
    <desc>Created with Sketch.</desc>
    <defs></defs>
    <g id="Backgrounds" stroke="none" stroke-width="1" fill="none" fill-rule="evenodd">
        <g id="bg/background-pattern-d">
            <path d="M1417.1055,558.019119 L1422.24612,548.357001 C1423.61342,545.787083 1426.80798,544.812298 1429.38138,546.179751 C1431.95478,547.547205 1432.93252,550.739063 1431.56522,553.30898 C1427.80233,560.46358 1425.34686,568.063529 1424.19881,576.108827 C1422.47673,588.176774 1422.88482,595.254008 1424.42647,603.335878 C1424.42669,606.248452 1422.06394,608.609371 1419.1491,608.609149 C1416.23425,608.608927 1413.87114,606.247648 1413.87092,603.335074 L1413.87008,592.384667 C1413.11587,589.171435 1410.9518,586.835786 1407.83791,586.835549 C1405.57098,586.835376 936.291677,537.890193 0,440 L0,47.6783374 L24.3076033,8.61023535 C25.541218,5.96561436 28.6827933,4.8200189 31.3245234,6.05147075 C33.9662534,7.28292261 35.107752,10.4250882 33.3843291,14.1197592 C32.70672,17.3558586 33.6786703,20.3906729 36.5007978,21.7062177 C39.5825884,23.1428053 43.1343129,21.7528385 44.5734237,18.6676753 L47.998252,11.3255343 C49.2318667,8.68091334 52.3734421,7.53531788 55.0151721,8.76676973 C57.6569022,9.99822159 58.7984008,13.1403872 57.0749779,16.8350582 C56.3973688,20.0711576 57.3693191,23.1059719 60.1914466,24.4215167 C63.2732372,25.8581043 66.8249617,24.4681374 68.2640724,21.3829743 L73.2843673,10.6204751 C74.517982,7.97585408 77.6595574,6.83025862 80.3012874,8.06171047 C82.9430174,9.29316233 84.084516,12.435328 82.3610931,16.1299989 C81.6834841,19.3660984 82.6554343,22.4009126 85.4775618,23.7164574 C88.5593525,25.1530451 92.1110769,23.7630782 93.5501877,20.677915 L100.963363,4.78556252 C102.196978,2.14094153 105.338553,0.99534607 107.980283,2.22679793 C110.622013,3.45824979 111.763512,6.60041541 110.529897,9.2450364 L106.370835,18.1612263 C105.693226,21.3973257 106.665176,24.4321399 109.487304,25.7476847 C112.569095,27.1842724 116.120819,25.7943055 117.55993,22.7091424 L126.728437,3.05371172 C127.962052,0.40909073 131.103628,-0.736504733 133.745358,0.494947126 C136.387088,1.72639898 137.528586,4.86856461 136.294972,7.5131856 L131.65695,17.456167 C130.979341,20.6922664 131.951292,23.7270807 134.773419,25.0426255 C137.85521,26.4792131 141.406934,25.0892462 142.846045,22.0040831 L151.535594,3.375444 C152.769208,0.730823014 155.910784,-0.414772449 158.552514,0.81667941 C161.194244,2.04813127 162.335742,5.19029689 161.102128,7.83491788 L155.666692,19.4873943 C154.989083,22.7234938 155.961034,25.758308 158.783161,27.0738528 C161.864952,28.5104405 165.416676,27.1204736 166.855787,24.0353104 L168.366056,20.7975993 C169.59967,18.1529783 172.741246,17.0073829 175.382976,18.2388347 C178.024706,19.4702866 179.166204,22.6124522 177.93259,25.2570732 L175.528222,30.4115531 C174.850613,33.6476525 175.822563,36.6824668 178.64469,37.9980116 C181.726481,39.4345992 185.278205,38.0446323 186.717316,34.9594692 L189.503958,28.9854715 C190.737573,26.3408505 193.879148,25.195255 196.520878,26.4267069 C199.162608,27.6581588 200.304107,30.8003244 198.261591,35.179067 C197.583981,38.4151664 198.555932,41.4499807 201.378059,42.7655255 C204.45985,44.2021131 208.011574,42.8121463 209.450685,39.7269831 L218.3001,20.7556241 C219.533714,18.1110031 222.67529,16.9654077 225.31702,18.1968595 C227.95875,19.4283114 229.100248,22.570477 227.866634,25.215098 L222.909519,35.842151 C222.23191,39.0782505 223.20386,42.1130647 226.025988,43.4286095 C229.107779,44.8651972 232.659503,43.4752303 233.122507,42.4826423 C234.356122,39.8380213 237.497697,38.6924259 240.139427,39.9238777 C242.781158,41.1553296 243.922656,44.2974952 242.689041,46.9421162 L237.984649,57.0273845 C237.30704,60.2634839 238.27899,63.2982982 241.101118,64.613843 C244.182908,66.0504306 247.734633,64.6604638 249.173743,61.5753006 L253.941316,51.3545861 C255.174931,48.7099652 258.316507,47.5643697 260.958237,48.7958215 C263.599967,50.0272734 264.741465,53.169439 263.50785,55.81406 L259.122551,65.2152567 C258.444942,68.4513561 259.416892,71.4861704 262.23902,72.8017152 C265.320811,74.2383028 268.872535,72.8483359 270.572026,69.2049703 C271.849676,66.4659475 274.932691,65.1997783 277.668719,66.4751878 C280.404748,67.7505974 281.41621,70.9254213 280.13856,73.6644442 L276.762553,80.9019222 C275.503875,85.3837161 277.68231,87.4960227 280.100593,88.623314 C283.182383,90.0599017 287.089671,88.8065333 288.645251,85.4716841 C289.878866,82.8270631 292.731395,81.5467278 295.373125,82.7781796 C298.014855,84.0096315 298.867308,87.0170573 297.633693,89.6616783 L290.868277,104.165365 C290.190668,107.401465 291.162618,110.436279 293.984746,111.751824 C297.066537,113.188412 300.618261,111.798445 302.057372,108.713281 L311.22588,89.0578508 C312.459494,86.4132298 315.60107,85.2676344 318.2428,86.4990862 C320.88453,87.7305381 322.026028,90.8727037 320.792414,93.5173247 L316.154392,103.460306 C315.476783,106.696406 316.448734,109.73122 319.270861,111.046765 C322.352652,112.483352 325.904376,111.093385 327.343487,108.008222 L336.033036,89.3795831 C337.26665,86.7349621 340.408226,85.5893667 343.049956,86.8208185 C345.691686,88.0522704 346.833184,91.194436 345.59957,93.839057 L340.164135,105.491533 C339.486525,108.727633 340.458476,111.762447 343.280603,113.077992 C346.362394,114.51458 349.914118,113.124613 351.353229,110.03945 L352.863498,106.801738 C354.097112,104.157117 357.238688,103.011522 359.880418,104.242974 C362.522148,105.474426 363.663646,108.616591 362.430032,111.261212 L360.025664,116.415692 C359.348055,119.651792 360.320005,122.686606 363.142132,124.002151 C366.223923,125.438738 369.775648,124.048771 371.214758,120.963608 L374.0014,114.989611 C375.235015,112.34499 378.37659,111.199394 381.01832,112.430846 C383.66005,113.662298 384.801549,116.804464 382.759033,121.183206 C382.081424,124.419306 383.053374,127.45412 385.875501,128.769665 C388.957292,130.206252 392.509016,128.816285 393.948127,125.731122 L402.797542,106.759763 C404.031156,104.115142 407.172732,102.969547 409.814462,104.200999 C412.456192,105.432451 413.59769,108.574616 412.364076,111.219237 L407.406961,121.84629 C406.729352,125.08239 407.701302,128.117204 410.52343,129.432749 C413.605221,130.869336 417.156945,129.479369 417.619949,128.486781 C418.853564,125.84216 421.995139,124.696565 424.63687,125.928017 C427.2786,127.159469 428.420098,130.301634 427.186483,132.946255 L422.482091,143.031524 C421.804482,146.267623 422.776432,149.302437 425.59856,150.617982 C428.68035,152.05457 432.232075,150.664603 433.671186,147.57944 L438.438758,137.358725 C439.672373,134.714104 442.813949,133.568509 445.455679,134.799961 C448.097409,136.031413 449.238907,139.173578 448.005293,141.818199 L443.619993,151.219396 C442.942384,154.455495 443.914335,157.490309 446.736462,158.805854 C449.818253,160.242442 453.369977,158.852475 455.069468,155.209109 C456.347118,152.470087 459.430133,151.203917 462.166161,152.479327 C464.90219,153.754736 465.913652,156.92956 464.636002,159.668583 L461.259995,166.906061 C460.001317,171.387855 462.179752,173.500162 464.598035,174.627453 C467.679826,176.064041 471.587113,174.810672 473.142693,171.475823 C474.376308,168.831202 477.228837,167.550867 479.870567,168.782319 C482.512297,170.013771 483.36475,173.021196 482.131135,175.665817 L477.918466,184.696931 C477.240857,187.933031 478.212807,190.967845 481.034934,192.28339 C484.116725,193.719977 487.668449,192.330011 489.10756,189.244847 L495.723322,175.06199 C496.956936,172.417369 500.098512,171.271774 502.740242,172.503225 C505.381972,173.734677 506.52347,176.876843 505.289856,179.521464 L500.651834,189.464445 C499.974225,192.700545 500.946176,195.735359 503.768303,197.050904 C506.850094,198.487491 510.401818,197.097524 511.840929,194.012361 L520.530478,175.383722 C521.764092,172.739101 524.905668,171.593506 527.547398,172.824958 C530.189128,174.05641 531.330626,177.198575 530.097012,179.843196 L524.661577,191.495673 C523.983968,194.731772 524.955918,197.766586 527.778045,199.082131 C530.859836,200.518719 534.41156,199.128752 535.850671,196.043589 L537.36094,192.805878 C538.594554,190.161257 541.73613,189.015661 544.37786,190.247113 C547.01959,191.478565 548.161088,194.62073 546.927474,197.265351 L544.523106,202.419831 C543.845497,205.655931 544.817447,208.690745 547.639574,210.00629 C550.721365,211.442877 554.27309,210.052911 555.7122,206.967747 L558.498842,200.99375 C559.732457,198.349129 562.874032,197.203533 565.515762,198.434985 C568.157492,199.666437 569.298991,202.808603 567.256475,207.187345 C566.578866,210.423445 567.550816,213.458259 570.372943,214.773804 C573.454734,216.210391 577.006458,214.820424 578.445569,211.735261 L587.294984,192.763902 C588.528598,190.119281 591.670174,188.973686 594.311904,190.205138 C596.953634,191.43659 598.095132,194.578755 596.861518,197.223376 L591.904403,207.850429 C591.226794,211.086529 592.198744,214.121343 595.020872,215.436888 C598.102663,216.873475 601.654387,215.483509 602.117391,214.490921 C603.351006,211.8463 606.492582,210.700704 609.134312,211.932156 C611.776042,213.163608 612.91754,216.305773 611.683925,218.950394 L606.979533,229.035663 C606.301924,232.271762 607.273874,235.306576 610.096002,236.622121 C613.177792,238.058709 616.729517,236.668742 618.168628,233.583579 L622.936201,223.362864 C624.169815,220.718243 627.311391,219.572648 629.953121,220.8041 C632.594851,222.035552 633.736349,225.177717 632.502735,227.822338 L628.117435,237.223535 C627.439826,240.459634 628.411777,243.494449 631.233904,244.809993 C634.315695,246.246581 637.867419,244.856614 639.56691,241.213249 C640.84456,238.474226 643.927575,237.208057 646.663603,238.483466 C649.399632,239.758876 650.411094,242.9337 649.133444,245.672722 L645.757437,252.9102 C644.498759,257.391994 646.677194,259.504301 649.095477,260.631592 C652.177268,262.06818 656.084556,260.814812 657.640135,257.479962 C658.87375,254.835341 661.726279,253.555006 664.368009,254.786458 C667.009739,256.01791 667.862192,259.025336 666.628577,261.669957 L659.863161,276.173644 C659.185552,279.409743 660.157502,282.444557 662.97963,283.760102 C666.061421,285.19669 669.613145,283.806723 671.052256,280.72156 L680.220764,261.066129 C681.454378,258.421508 684.595954,257.275913 687.237684,258.507364 C689.879414,259.738816 691.020912,262.880982 689.787298,265.525603 L685.149277,275.468584 C684.471667,278.704684 685.443618,281.739498 688.265745,283.055043 C691.347536,284.49163 694.89926,283.101664 696.338371,280.0165 L705.02792,261.387861 C706.261534,258.74324 709.40311,257.597645 712.04484,258.829097 C714.68657,260.060549 715.828069,263.202714 714.594454,265.847335 L709.159019,277.499812 C708.48141,280.735911 709.45336,283.770725 712.275487,285.08627 C715.357278,286.522858 718.909002,285.132891 720.348113,282.047728 L721.858382,278.810017 C723.091996,276.165396 726.233572,275.0198 728.875302,276.251252 C731.517032,277.482704 732.65853,280.62487 731.424916,283.269491 L729.020548,288.42397 C728.342939,291.66007 729.314889,294.694884 732.137017,296.010429 C735.218807,297.447017 738.770532,296.05705 740.209642,292.971887 L742.996284,286.997889 C744.229899,284.353268 747.371474,283.207672 750.013204,284.439124 C752.654934,285.670576 753.796433,288.812742 751.753917,293.191484 C751.076308,296.427584 752.048258,299.462398 754.870385,300.777943 C757.952176,302.21453 761.5039,300.824564 762.943011,297.7394 L771.792426,278.768041 C773.02604,276.12342 776.167616,274.977825 778.809346,276.209277 C781.451076,277.440729 782.592574,280.582894 781.35896,283.227515 L776.401845,293.854568 C775.724236,297.090668 776.696187,300.125482 779.518314,301.441027 C782.600105,302.877615 786.151829,301.487648 786.614833,300.49506 C787.848448,297.850439 790.990024,296.704843 793.631754,297.936295 C796.273484,299.167747 797.414982,302.309913 796.181368,304.954534 L791.476975,315.039802 C790.799366,318.275901 791.771316,321.310716 794.593444,322.62626 C797.675234,324.062848 801.226959,322.672881 802.66607,319.587718 L807.433643,309.367004 C808.667257,306.722383 811.808833,305.576787 814.450563,306.808239 C817.092293,308.039691 818.233791,311.181856 817.000177,313.826477 L812.614877,323.227674 C811.937268,326.463773 812.909219,329.498588 815.731346,330.814133 C818.813137,332.25072 822.364861,330.860753 824.064352,327.217388 C825.342002,324.478365 828.425017,323.212196 831.161046,324.487605 C833.897074,325.763015 834.908536,328.937839 833.630886,331.676862 L830.254879,338.91434 C828.996201,343.396133 831.174636,345.50844 833.592919,346.635731 C836.67471,348.072319 840.581998,346.818951 842.137577,343.484101 C843.371192,340.83948 846.223721,339.559145 848.865451,340.790597 C851.507182,342.022049 852.359634,345.029475 851.126019,347.674096 L846.91335,356.70521 C846.235741,359.941309 847.207691,362.976123 850.029818,364.291668 C853.111609,365.728256 856.663333,364.338289 858.017246,361.435773 C859.250861,358.791152 862.392436,357.645556 865.034166,358.877008 C867.675897,360.10846 868.817395,363.250626 867.413065,366.261225 C866.735456,369.497324 867.707407,372.532139 870.529534,373.847683 C873.611325,375.284271 877.163049,373.894304 878.60216,370.809141 L893.514347,338.840421 C894.747962,336.1958 897.889537,335.050204 900.531267,336.281656 C903.172997,337.513108 904.314496,340.655274 903.080881,343.299895 L897.166487,355.979163 C896.488878,359.215262 897.460828,362.250076 900.282956,363.565621 C903.364746,365.002209 906.916471,363.612242 908.355581,360.527079 L910.184943,356.605296 C911.418558,353.960675 914.560133,352.81508 917.201863,354.046531 C919.843594,355.277983 920.985092,358.420149 919.751477,361.06477 L913.837083,373.744038 C913.159474,376.980137 914.131424,380.014952 916.953552,381.330496 C920.035342,382.767084 923.587067,381.377117 925.026178,378.291954 L938.981085,348.375449 C940.2147,345.730828 943.356275,344.585232 945.998005,345.816684 C948.639735,347.048136 949.781234,350.190302 948.547619,352.834923 L942.633225,365.514191 C941.955616,368.75029 942.927566,371.785104 945.749693,373.100649 C948.831484,374.537237 952.383208,373.14727 953.822319,370.062107 L955.013495,367.508467 C956.247109,364.863846 959.388685,363.718251 962.030415,364.949703 C964.672145,366.181154 965.813643,369.32332 964.09022,373.017991 C963.412611,376.25409 964.384562,379.288905 967.206689,380.60445 C970.28848,382.041037 973.840204,380.65107 975.279315,377.565907 L981.575983,364.067121 C982.809598,361.4225 985.951173,360.276905 988.592903,361.508357 C991.234633,362.739809 992.376132,365.881974 990.652709,369.576645 C989.9751,372.812745 990.94705,375.847559 993.769178,377.163104 C996.850968,378.599691 1000.40269,377.209724 1001.8418,374.124561 L1005.90482,365.414277 C1007.13843,362.769656 1010.28001,361.624061 1012.92174,362.855512 C1015.56347,364.086964 1016.70497,367.22913 1014.98154,370.923801 C1014.30394,374.1599 1015.27589,377.194715 1018.09801,378.510259 C1021.1798,379.946847 1024.73153,378.55688 1026.17064,375.471717 L1039.96568,345.897932 C1041.19929,343.253311 1044.34087,342.107715 1046.9826,343.339167 C1049.62433,344.570619 1050.76583,347.712784 1049.53221,350.357405 L1043.1395,364.062097 C1042.46189,367.298196 1043.43384,370.33301 1046.25597,371.648555 C1049.33776,373.085143 1052.88948,371.695176 1054.32859,368.610013 L1055.83886,365.372302 C1057.07248,362.727681 1060.21405,361.582085 1062.85578,362.813537 C1065.49751,364.044989 1066.63901,367.187155 1064.91559,370.881826 C1064.23798,374.117925 1065.20993,377.152739 1068.03206,378.468284 C1071.11385,379.904872 1074.66557,378.514905 1076.10468,375.429742 L1097.23887,330.122308 C1098.47248,327.477687 1101.61406,326.332092 1104.25579,327.563544 C1106.89752,328.794996 1108.03902,331.937161 1106.8054,334.581782 L1089.24442,372.228981 C1088.56681,375.465081 1089.53876,378.499895 1092.36089,379.81544 C1095.44268,381.252027 1098.99441,379.862061 1100.43352,376.776897 L1108.32565,359.857753 C1109.55927,357.213132 1112.70084,356.067537 1115.34257,357.298989 C1117.9843,358.530441 1119.1258,361.672606 1117.40238,365.367277 C1116.72477,368.603377 1117.69672,371.638191 1120.51885,372.953736 C1123.60064,374.390323 1127.15236,373.000356 1128.59147,369.915193 L1134.56905,357.100479 C1135.80266,354.455858 1138.94424,353.310263 1141.58597,354.541715 C1144.2277,355.773166 1145.3692,358.915332 1144.13558,361.559953 L1140.13575,370.134791 C1139.45814,373.370891 1140.43009,376.405705 1143.25222,377.72125 C1146.33401,379.157837 1149.88573,377.76787 1151.32484,374.682707 L1165.59884,344.08213 C1166.83246,341.437509 1169.97403,340.291914 1172.61576,341.523366 C1175.25749,342.754818 1176.39899,345.896983 1175.16538,348.541604 L1169.25098,361.220872 C1168.57337,364.456972 1169.54532,367.491786 1172.36745,368.807331 C1175.44924,370.243918 1179.00097,368.853951 1180.74034,365.125077 C1181.97396,362.480456 1185.11553,361.33486 1187.75726,362.566312 C1190.39899,363.797764 1191.54049,366.93993 1190.30688,369.584551 L1185.92158,378.985747 C1185.24397,382.221847 1186.21592,385.256661 1189.03805,386.572206 C1192.11984,388.008794 1195.67156,386.618827 1197.11067,383.533663 L1205.21564,366.158244 C1206.44926,363.513623 1210.30832,362.702488 1212.95005,363.93394 C1215.59178,365.165391 1217.07768,368.468098 1215.84406,371.112719 C1214.28848,374.447568 1214.99226,377.850403 1218.07474,379.287309 C1221.15653,380.723897 1224.14861,379.073051 1225.58772,375.987888 L1231.35246,363.629449 C1232.58608,360.984828 1235.72765,359.839233 1238.36938,361.070685 C1241.01111,362.302137 1242.15261,365.444302 1240.91899,368.088923 L1237.06881,376.342932 C1235.6297,379.428095 1237.59309,383.388948 1240.67556,384.825855 C1243.75735,386.262442 1247.75005,385.048891 1249.30563,381.714041 C1250.53925,379.06942 1253.09317,377.649886 1256.06221,379.033915 C1258.70394,380.265367 1259.39376,383.196982 1258.16014,385.841603 C1256.60457,389.176452 1258.1502,392.971721 1261.23199,394.408308 C1264.31378,395.844896 1268.42925,394.71772 1269.86836,391.632556 L1273.71854,383.378548 C1274.95215,380.733927 1278.09373,379.588332 1280.73546,380.819783 C1283.37719,382.051235 1284.51869,385.193401 1283.28507,387.838022 L1277.52033,400.19646 C1276.08122,403.281623 1276.87612,406.697784 1279.95791,408.134372 C1283.04039,409.571278 1286.23702,407.986634 1287.7926,404.651785 C1289.02621,402.007164 1292.4213,400.979745 1295.06303,402.211197 C1297.70476,403.442648 1299.3813,406.834226 1298.14769,409.478847 L1290.04272,426.854267 C1288.60361,429.93943 1289.82148,433.552763 1292.90327,434.989351 C1295.7254,436.304896 1298.67573,435.098466 1300.71999,432.499434 L1305.10529,423.098237 C1306.3389,420.453616 1309.48048,419.308021 1312.12221,420.539473 C1314.76394,421.770925 1315.90543,424.91309 1314.37155,428.201423 C1312.93244,431.286586 1314.15032,434.899919 1317.23211,436.336507 C1320.05424,437.652051 1323.00457,436.445621 1325.04882,433.84659 L1330.96322,421.167322 C1332.19683,418.522701 1335.33841,417.377105 1337.98014,418.608557 C1340.62187,419.840009 1341.76336,422.982175 1340.52975,425.626796 L1326.25575,456.227373 C1324.81664,459.312536 1326.03452,462.925869 1329.11631,464.362456 C1331.93843,465.678001 1334.88876,464.471571 1336.93302,461.87254 L1340.93285,453.297701 C1342.16647,450.65308 1345.30804,449.507485 1347.94977,450.738937 C1350.5915,451.970389 1351.733,455.112554 1350.49939,457.757175 L1344.52181,470.57189 C1343.0827,473.657053 1344.30058,477.270386 1347.38237,478.706973 C1350.2045,480.022518 1353.15482,478.816088 1355.68889,475.167007 C1356.9225,472.522386 1360.06408,471.37679 1362.70581,472.608242 C1365.34754,473.839694 1366.48904,476.981859 1365.25542,479.62648 L1357.36329,496.545625 C1355.92418,499.630788 1357.14205,503.244121 1360.22385,504.680708 C1363.04597,505.996253 1365.9963,504.789823 1368.04056,502.190792 L1385.60154,464.543592 C1386.83515,461.898972 1389.97673,460.753376 1392.61846,461.984828 C1395.26019,463.21628 1396.40169,466.358445 1395.16807,469.003066 L1374.03389,514.3105 C1372.59477,517.395663 1373.81265,521.008996 1376.89444,522.445584 C1379.71657,523.761128 1382.6669,522.554699 1385.20096,518.905617 C1386.43458,516.260996 1389.57615,515.1154 1392.21788,516.346852 C1394.85961,517.578304 1396.00111,520.72047 1394.7675,523.365091 L1393.25723,526.602802 C1391.81812,529.687965 1393.03599,533.301298 1396.11778,534.737886 C1398.93991,536.053431 1401.89024,534.847001 1403.9345,532.247969 L1410.32721,518.543277 C1411.56083,515.898656 1414.7024,514.753061 1417.34413,515.984513 C1419.98586,517.215965 1421.12736,520.35813 1419.89375,523.002751 L1406.0987,552.576537 C1404.65959,555.6617 1405.87747,559.275033 1408.95926,560.711621 C1412.23314,561.57054 1414.94855,560.67304 1417.1055,558.019119 Z" id="Combined-Shape" fill="#C9A9D5"></path>
            <path d="M1342.65095,594.385548 L0,420 C0.644183092,157.166934 1.17063017,25.8456996 1.57934123,26.0362954 C4.66286211,27.4742453 8.21765538,26.0806555 9.65889951,22.9897244 L11.4909733,19.0606094 C12.7264167,16.411044 15.8706769,15.262387 18.5138901,16.4950066 C21.1571034,17.7276263 22.2983219,20.8747468 21.0628784,23.5243122 L19.9332115,25.9470265 C19.2539686,29.1888827 20.2255535,32.2285286 23.0492656,33.5453209 C26.1327865,34.9832709 29.6875797,33.5896811 31.1288239,30.4987499 L32.9608976,26.569635 C34.196341,23.9200696 37.3406012,22.7714125 39.9838145,24.0040322 C42.6270277,25.2366518 43.7682462,28.3837723 42.5328028,31.0333377 L40.7640032,34.8267532 C40.0847603,38.0686094 41.2059373,41.0319995 43.9709904,42.4674528 C46.8756981,43.9747068 50.2191305,43.1700774 51.4572244,40.812945 C51.4572244,40.812945 53.5897824,36.7678028 58.0733498,38.9412449 C60.6980282,40.2136149 61.7894108,43.2891014 59.9969632,47.1332329 C59.3177204,50.3750891 60.2893053,53.414735 63.1130173,54.7315273 C66.1965382,56.1694773 69.7513315,54.7758875 71.1925756,51.6849563 L76.2867824,40.7597825 C77.5222259,38.1102171 80.6664861,36.9615601 83.3096993,38.1941797 C85.9529125,39.4267994 87.094131,42.5739199 85.3016835,46.4180513 C84.6224406,49.6599075 85.5940256,52.6995534 88.4177376,54.0163457 C91.5012585,55.4542957 95.0560518,54.0607059 96.4972959,50.9697747 L98.67546,46.2984251 C99.9550035,43.5542813 103.040704,42.2848657 105.778268,43.5614847 C108.515833,44.8381036 109.526909,48.0179841 107.422884,52.5303324 C106.161711,57.020212 108.371065,59.1493805 110.790022,60.2774219 C113.874227,61.7156907 117.860001,60.4938789 119.438978,57.1075616 L128.631623,37.3927664 C129.867067,34.743201 133.011327,33.594544 135.65454,34.8271637 C138.297753,36.0597833 139.438972,39.2069038 138.203528,41.8564692 L130.842638,57.6428348 C130.163395,60.8846909 131.13498,63.9243368 133.958692,65.2411292 C137.042213,66.6790791 140.597006,65.2854893 142.03825,62.1945581 L143.550757,58.9507938 C144.786201,56.3012284 147.930461,55.1525714 150.573674,56.385191 C153.216888,57.6178106 154.358106,60.7649311 153.122663,63.4144965 L151.992996,65.8372109 C151.313753,69.0790671 152.285338,72.118713 155.10905,73.4355053 C158.192571,74.8734552 161.747364,73.4798654 163.188608,70.3889343 L165.020682,66.4598193 C166.256125,63.8102539 169.400385,62.6615969 172.043599,63.8942165 C174.686812,65.1268362 175.82803,68.2739567 174.592587,70.9235221 L173.46292,73.3462364 C172.783677,76.5880926 173.755262,79.6277385 176.578974,80.9445308 C179.662495,82.3824808 183.217288,80.988891 184.658532,77.8979598 L186.490606,73.9688449 C187.72605,71.3192795 190.87031,70.1706224 193.513523,71.4032421 C196.156736,72.6358617 197.297955,75.7829822 196.062511,78.4325476 L194.293712,82.2259631 C193.614469,85.4678193 194.735646,88.4312094 197.500699,89.8666627 C200.405407,91.3739167 203.748839,90.5692873 204.986933,88.2121549 C204.986933,88.2121549 207.119491,84.1670127 211.603058,86.3404548 C214.227737,87.6128248 215.319119,90.6883113 213.526672,94.5324428 C212.847429,97.774299 213.819014,100.813945 216.642726,102.130737 C219.726247,103.568687 223.28104,102.175097 224.722284,99.0841662 L229.816491,88.1589924 C231.051934,85.509427 234.196195,84.36077 236.839408,85.5933896 C239.482621,86.8260092 240.62384,89.9731298 238.831392,93.8172612 C238.152149,97.0591174 239.123734,100.098763 241.947446,101.415556 C245.030967,102.853506 248.58576,101.459916 250.027004,98.3689846 L252.205169,93.697635 C253.484712,90.9534912 256.570412,89.6840756 259.307977,90.9606945 C262.045542,92.2373135 263.056617,95.4171939 260.952593,99.9295423 C259.691419,104.419422 261.900773,106.54859 264.319731,107.676632 C267.403935,109.114901 271.38971,107.893089 272.968687,104.506772 L275.770005,98.4989882 C277.005449,95.8494228 280.149709,94.7007658 282.792922,95.9333854 C285.436135,97.1660051 286.577354,100.313126 285.34191,102.962691 L277.98102,118.749057 C277.301777,121.990913 278.273362,125.030559 281.097074,126.347351 C284.180595,127.785301 287.735388,126.391711 289.176632,123.30078 L290.68914,120.057016 C291.924583,117.40745 295.068843,116.258793 297.712056,117.491413 C300.35527,118.724032 301.496488,121.871153 300.261045,124.520718 L299.131378,126.943433 C298.452135,130.185289 299.42372,133.224935 302.247432,134.541727 C305.330953,135.979677 308.885746,134.586087 310.32699,131.495156 L312.159064,127.566041 C313.394507,124.916476 316.538767,123.767819 319.181981,125.000438 C321.825194,126.233058 322.966412,129.380178 321.730969,132.029744 L320.601302,134.452458 C319.922059,137.694314 320.893644,140.73396 323.717356,142.050753 C326.800877,143.488703 330.35567,142.095113 331.796914,139.004182 L333.628988,135.075067 C334.864432,132.425501 338.008692,131.276844 340.651905,132.509464 C343.295118,133.742083 344.436337,136.889204 343.200893,139.538769 L341.432094,143.332185 C340.752851,146.574041 341.874028,149.537431 344.639081,150.972884 C347.543789,152.480138 350.887221,151.675509 352.125315,149.318377 C352.125315,149.318377 354.257873,145.273234 358.74144,147.446677 C361.366119,148.719047 362.457501,151.794533 360.665054,155.638665 C359.985811,158.880521 360.957396,161.920167 363.781108,163.236959 C366.864629,164.674909 370.419422,163.281319 371.860666,160.190388 L376.954873,149.265214 C378.190316,146.615649 381.334577,145.466992 383.97779,146.699611 C386.621003,147.932231 387.762222,151.079352 385.969774,154.923483 C385.290531,158.165339 386.262116,161.204985 389.085828,162.521777 C392.169349,163.959727 395.724142,162.566138 397.165386,159.475206 L399.343551,154.803857 C400.623094,152.059713 403.708794,150.790297 406.446359,152.066916 C409.183924,153.343535 410.194999,156.523416 408.090975,161.035764 C406.829801,165.525644 409.039155,167.654812 411.458113,168.782854 C414.542317,170.221122 418.528092,168.999311 420.107069,165.612993 L421.630122,162.346612 C422.865565,159.697047 426.009826,158.54839 428.653039,159.78101 C431.296252,161.013629 432.437471,164.16075 431.202027,166.810315 L423.841136,182.596681 C423.161894,185.838537 424.133478,188.878183 426.957191,190.194975 C430.040711,191.632925 433.595505,190.239335 435.036749,187.148404 L436.549256,183.90464 C437.7847,181.255074 440.92896,180.106417 443.572173,181.339037 C446.215386,182.571657 447.356605,185.718777 446.121161,188.368342 L444.991494,190.791057 C444.312252,194.032913 445.283837,197.072559 448.107549,198.389351 C451.191069,199.827301 454.745863,198.433711 456.187107,195.34278 L458.019181,191.413665 C459.254624,188.7641 462.398884,187.615443 465.042097,188.848062 C467.685311,190.080682 468.826529,193.227803 467.591086,195.877368 L466.461419,198.300082 C465.782176,201.541939 466.753761,204.581584 469.577473,205.898377 C472.660994,207.336327 476.215787,205.942737 477.657031,202.851806 L479.489105,198.922691 C480.724548,196.273125 483.868809,195.124468 486.512022,196.357088 C489.155235,197.589708 490.296454,200.736828 489.06101,203.386393 L487.29221,207.179809 C486.612968,210.421665 487.734145,213.385055 490.499198,214.820509 C493.403905,216.327763 496.747338,215.523133 497.985432,213.166001 C497.985432,213.166001 500.11799,209.120859 504.601557,211.294301 C507.226235,212.566671 508.317618,215.642157 506.525171,219.486289 C505.845928,222.728145 506.817513,225.767791 509.641225,227.084583 C512.724746,228.522533 516.279539,227.128943 517.720783,224.038012 L522.81499,213.112838 C524.050433,210.463273 527.194693,209.314616 529.837907,210.547236 C532.48112,211.779855 533.622338,214.926976 532.386895,217.576541 L523.521166,236.590223 C522.841923,239.832079 523.813508,242.871725 526.63722,244.188517 C529.720741,245.626467 533.275535,244.232877 534.716779,241.141946 L536.548852,237.212831 C537.784296,234.563266 540.928556,233.414609 543.571769,234.647228 C546.214983,235.879848 547.356201,239.026968 546.120758,241.676534 L544.351958,245.469949 C543.672715,248.711805 544.793892,251.675196 547.558945,253.110649 C550.463653,254.617903 553.807085,253.813273 555.045179,251.456141 C555.045179,251.456141 557.177737,247.410999 561.661305,249.584441 C564.285983,250.856811 565.377366,253.932297 563.584918,257.776429 C562.905675,261.018285 563.87726,264.057931 566.700972,265.374723 C569.784493,266.812673 573.339286,265.419084 574.78053,262.328152 L579.874737,251.402979 C581.110181,248.753413 584.254441,247.604756 586.897654,248.837376 C589.540867,250.069995 590.682086,253.217116 588.889638,257.061247 C588.210395,260.303104 589.18198,263.342749 592.005692,264.659542 C595.089213,266.097492 598.644007,264.703902 600.085251,261.612971 L602.263415,256.941621 C603.542958,254.197477 606.628658,252.928062 609.366223,254.204681 C612.103788,255.4813 613.114864,258.66118 611.010839,263.173528 C609.749666,267.663408 611.95902,269.792577 614.377977,270.920618 C617.462181,272.358887 621.447956,271.137075 623.026933,267.750758 L625.828252,261.742974 C627.063695,259.093409 630.207955,257.944752 632.851168,259.177372 C635.494382,260.409991 636.6356,263.557112 635.400157,266.206677 L628.039266,281.993043 C627.360023,285.234899 628.331608,288.274545 631.15532,289.591337 C634.238841,291.029287 637.793634,289.635697 639.234878,286.544766 L640.747386,283.301002 C641.982829,280.651436 645.127089,279.502779 647.770303,280.735399 C650.413516,281.968019 651.554734,285.115139 650.319291,287.764704 L649.189624,290.187419 C648.510381,293.429275 649.481966,296.468921 652.305678,297.785713 C655.389199,299.223663 658.943992,297.830073 660.385236,294.739142 L662.21731,290.810027 C663.452754,288.160462 666.597014,287.011805 669.240227,288.244424 C671.88344,289.477044 673.024659,292.624165 671.789215,295.27373 L670.659548,297.696444 C669.980305,300.938301 670.95189,303.977946 673.775602,305.294739 C676.859123,306.732689 680.413917,305.339099 681.855161,302.248168 L683.687234,298.319053 C684.922678,295.669487 688.066938,294.52083 690.710151,295.75345 C693.353365,296.98607 694.494583,300.13319 693.25914,302.782756 L691.49034,306.576171 C690.811097,309.818027 691.932274,312.781417 694.697327,314.216871 C697.602035,315.724125 700.945467,314.919495 702.183561,312.562363 C702.183561,312.562363 704.316119,308.517221 708.799687,310.690663 C711.424365,311.963033 712.515748,315.038519 710.7233,318.882651 C710.044057,322.124507 711.015642,325.164153 713.839354,326.480945 C716.922875,327.918895 720.477668,326.525305 721.918912,323.434374 L727.013119,312.5092 C728.248563,309.859635 731.392823,308.710978 734.036036,309.943598 C736.679249,311.176217 737.820468,314.323338 736.02802,318.167469 C735.348777,321.409325 736.320362,324.448971 739.144074,325.765764 C742.227595,327.203714 745.782389,325.810124 747.223633,322.719193 L749.401797,318.047843 C750.68134,315.303699 753.76704,314.034283 756.504605,315.310902 C759.24217,316.587521 760.253246,319.767402 758.149221,324.27975 C756.888048,328.76963 759.097402,330.898798 761.516359,332.02684 C764.600563,333.465109 768.586338,332.243297 770.165315,328.856979 L771.688368,325.590598 C772.923812,322.941033 776.068072,321.792376 778.711285,323.024996 C781.354498,324.257615 782.495717,327.404736 781.260273,330.054301 L773.899383,345.840667 C773.22014,349.082523 774.191725,352.122169 777.015437,353.438961 C780.098958,354.876911 783.653751,353.483321 785.094995,350.39239 L786.607502,347.148626 C787.842946,344.49906 790.987206,343.350403 793.630419,344.583023 C796.273633,345.815643 797.414851,348.962763 796.179408,351.612329 L795.049741,354.035043 C794.370498,357.276899 795.342083,360.316545 798.165795,361.633337 C801.249316,363.071287 804.804109,361.677697 806.245353,358.586766 L808.077427,354.657651 C809.31287,352.008086 812.45713,350.859429 815.100344,352.092049 C817.743557,353.324668 818.884775,356.471789 817.649332,359.121354 L816.519665,361.544068 C815.840422,364.785925 816.812007,367.825571 819.635719,369.142363 C822.71924,370.580313 826.274033,369.186723 827.715277,366.095792 L829.547351,362.166677 C830.782795,359.517112 833.927055,358.368454 836.570268,359.601074 C839.213481,360.833694 840.3547,363.980814 839.119256,366.63038 L837.350457,370.423795 C836.671214,373.665651 837.792391,376.629041 840.557444,378.064495 C843.462152,379.571749 846.805584,378.767119 848.043678,376.409987 C848.043678,376.409987 850.176236,372.364845 854.659803,374.538287 C857.284482,375.810657 858.375864,378.886143 856.583417,382.730275 C855.904174,385.972131 856.875759,389.011777 859.699471,390.328569 C862.782992,391.766519 866.337785,390.372929 867.779029,387.281998 L872.873236,376.356824 C874.108679,373.707259 877.25294,372.558602 879.896153,373.791222 C882.539366,375.023841 883.680585,378.170962 881.888137,382.015093 C881.208894,385.256949 882.180479,388.296595 885.004191,389.613388 C888.087712,391.051338 891.642505,389.657748 893.083749,386.566817 L895.261914,381.895467 C896.541457,379.151323 899.627157,377.881908 902.364722,379.158527 C905.102287,380.435146 906.113362,383.615026 904.009338,388.127374 C902.748164,392.617254 904.957518,394.746422 907.376476,395.874464 C910.46068,397.312733 914.446455,396.090921 916.025432,392.704604 L917.708588,389.094862 C918.944031,386.445297 922.088291,385.29664 924.731505,386.529259 C927.374718,387.761879 928.515936,390.908999 926.789959,394.610578 C926.110716,397.852434 927.082301,400.89208 929.906013,402.208872 C932.989534,403.646822 936.544327,402.253232 937.985571,399.162301 L942.693742,389.065031 C943.929185,386.415466 947.073445,385.266809 949.716659,386.499428 C952.359872,387.732048 953.50109,390.879168 951.775113,394.580747 C951.09587,397.822603 952.067455,400.862249 954.891167,402.179041 C957.974688,403.616991 961.529481,402.223401 962.970725,399.13247 L966.40063,391.776602 C967.636074,389.127037 970.780334,387.97838 973.423547,389.211 C976.06676,390.443619 977.207979,393.59074 975.482001,397.292318 C974.802758,400.534174 975.774343,403.57382 978.598055,404.890613 C981.681576,406.328563 985.236369,404.934973 986.677614,401.844042 L991.705351,391.061421 C992.940794,388.411855 996.085054,387.263198 998.728267,388.495818 C1001.37148,389.728438 1002.5127,392.875558 1000.78672,396.577137 C1000.10748,399.818993 1001.07906,402.858639 1003.90278,404.175431 C1006.9863,405.613381 1010.54109,404.219791 1011.98233,401.12886 L1016.21084,392.060301 C1017.44628,389.410736 1020.59054,388.262079 1023.23375,389.494698 C1025.87697,390.727318 1027.01818,393.874438 1024.81318,398.603357 C1024.13393,401.845214 1025.10552,404.88486 1027.92923,406.201652 C1031.01275,407.639602 1034.56754,406.246012 1036.00879,403.155081 L1045.19089,383.462902 C1046.42633,380.813337 1049.57059,379.66468 1052.2138,380.897299 C1054.85702,382.129919 1055.99824,385.27704 1054.27226,388.978618 C1053.59302,392.220474 1054.5646,395.26012 1057.38831,396.576913 C1060.47183,398.014863 1064.02663,396.621273 1065.46787,393.530342 L1067.13984,389.944587 C1068.37529,387.295022 1071.51955,386.146365 1074.16276,387.378984 C1076.80597,388.611604 1077.94719,391.758725 1076.38132,395.116943 C1075.70207,398.358799 1076.67366,401.398445 1079.49737,402.715237 C1082.58089,404.153187 1086.13568,402.759597 1087.57693,399.668666 L1089.08944,396.424902 C1090.32488,393.775336 1093.46914,392.626679 1096.11235,393.859299 C1098.75557,395.091918 1099.89678,398.239039 1098.17081,401.940617 C1097.49156,405.182474 1098.46315,408.22212 1101.28686,409.538912 C1104.37038,410.976862 1107.92517,409.583272 1109.36642,406.492341 L1115.67242,392.968318 C1116.90786,390.318752 1120.05212,389.170095 1122.69534,390.402715 C1125.33855,391.635334 1126.47977,394.782455 1124.43423,399.169384 C1123.75498,402.41124 1124.72657,405.450886 1127.55028,406.767678 C1130.6338,408.205628 1134.18859,406.812039 1135.62984,403.721107 L1137.46191,399.791993 C1138.69736,397.142427 1141.84162,395.99377 1144.48483,397.22639 C1147.12804,398.459009 1148.26926,401.60613 1147.03382,404.255695 L1145.58458,407.36376 C1144.90534,410.605616 1145.87693,413.645262 1148.70064,414.962055 C1151.78416,416.400005 1155.33895,415.006415 1155.80264,414.011971 C1157.03809,411.362406 1160.18235,410.213749 1162.82556,411.446368 C1165.46877,412.678988 1166.60999,415.826108 1165.37455,418.475674 L1164.17841,421.040941 C1163.49917,424.282797 1164.47075,427.322443 1167.29447,428.639235 C1170.37799,430.077185 1173.93278,428.683596 1175.37402,425.592664 L1176.63343,422.891698 C1177.86888,420.242132 1181.01314,419.093475 1183.65635,420.326095 C1186.29956,421.558715 1187.44078,424.705835 1186.20534,427.355401 L1181.81354,436.774174 C1181.1343,440.01603 1182.10588,443.055676 1184.92959,444.372468 C1188.01311,445.810418 1191.56791,444.416828 1193.00915,441.325897 L1203.81561,418.150081 C1205.09515,415.405938 1208.18085,414.136522 1210.91842,415.413141 C1213.65598,416.68976 1214.66706,419.86964 1213.38751,422.613784 L1199.46081,452.481363 C1198.19964,456.971243 1200.37891,459.086382 1202.79855,460.214743 C1205.03222,461.25638 1207.69606,460.877425 1209.58843,459.323528 L1210.77211,456.78499 C1212.00755,454.135424 1214.99934,452.915667 1218.08423,454.354254 C1220.72745,455.586874 1221.57946,458.599127 1219.46009,463.144372 C1219.13675,465.862167 1220.55922,468.497143 1223.02467,469.646865 C1225.44431,470.775226 1228.28277,471.000023 1230.91136,467.147815 L1244.83806,437.280236 C1246.1176,434.536092 1249.2033,433.266677 1251.94087,434.543296 C1254.67843,435.819915 1255.68951,438.999795 1254.40996,441.743939 L1243.60351,464.919755 C1242.16226,468.010686 1243.37975,471.62975 1246.46327,473.0677 C1249.28698,474.384492 1252.23988,473.174965 1254.28654,470.57078 L1258.67834,461.152007 C1259.91378,458.502442 1263.05804,457.353785 1265.70125,458.586404 C1268.34447,459.819024 1269.48568,462.966144 1268.25024,465.61571 L1266.99083,468.316676 C1265.54959,471.407608 1266.76707,475.026672 1269.85059,476.464622 C1272.6743,477.781414 1275.6272,476.571887 1277.67386,473.967702 L1278.87,471.402435 C1280.10544,468.75287 1283.2497,467.604213 1285.89291,468.836832 C1288.53613,470.069452 1289.67734,473.216572 1289.41945,473.76965 C1287.97821,476.860581 1289.19569,480.479646 1292.27922,481.917596 C1295.10293,483.234388 1298.05582,482.02486 1300.10248,479.420676 L1301.55171,476.312611 C1302.78716,473.663046 1305.93142,472.514389 1308.57463,473.747008 C1311.21785,474.979628 1312.35906,478.126748 1311.12362,480.776314 L1309.29155,484.705429 C1307.8503,487.79636 1309.06779,491.415424 1312.15131,492.853374 C1314.97502,494.170167 1317.92792,492.960639 1320.78467,488.619091 C1322.02012,485.969525 1325.16438,484.820868 1327.80759,486.053488 C1330.45081,487.286108 1331.59202,490.433228 1330.35658,493.082793 L1324.05058,506.606817 C1322.60933,509.697748 1323.82682,513.316812 1326.91034,514.754762 C1328.56842,515.52798 1330.27104,515.430119 1331.90788,514.477306 L1334.66296,509.29897 C1336.03026,506.729053 1339.22481,505.754267 1341.79821,507.121721 C1343.19732,507.865178 1344.12477,509.147908 1344.46013,510.576769 C1345.4017,512.051423 1345.59149,513.963607 1344.79605,515.669532 L1343.28354,518.913296 C1341.84229,522.004228 1343.05978,525.623292 1346.1433,527.061242 C1348.96701,528.378034 1351.91991,527.168507 1354.297,523.85567 C1355.53244,521.206104 1358.6767,520.057447 1361.31991,521.290067 C1363.96313,522.522686 1365.10435,525.669807 1363.8689,528.319372 L1362.19693,531.905127 C1360.75569,534.996058 1361.97317,538.615122 1365.05669,540.053072 C1367.88041,541.369865 1370.8333,540.160337 1373.37049,536.504139 C1374.60594,533.854574 1377.7502,532.705917 1380.39341,533.938536 C1383.03662,535.171156 1384.17784,538.318277 1382.9424,540.967842 L1373.7603,560.660021 C1373.20369,561.85374 1373.04363,563.126231 1373.23447,564.321435 C1373.66924,564.778528 1374.18646,565.175682 1374.78104,565.491631 C1377.53017,566.952465 1380.53697,565.9069 1382.71103,563.425461 L1388.73549,552.102136 C1390.10278,549.532219 1393.29734,548.557433 1395.87074,549.924887 C1398.44414,551.29234 1399.42188,554.484198 1398.05458,557.054115 L1388.42338,575.156545 C1386.82832,578.15456 1387.85805,581.820003 1390.86013,583.415248 C1393.60927,584.876082 1396.61607,583.830517 1398.79013,581.349078 L1403.93076,571.686959 C1405.29805,569.117042 1408.49261,568.142256 1411.06601,569.50971 C1413.63941,570.877164 1414.61715,574.069021 1413.24985,576.638939 C1409.48696,583.793539 1407.03149,591.393488 1405.88344,599.438786 C1404.16137,611.506732 1404.56945,618.583967 1406.1111,626.665836 C1406.11133,629.578411 1403.74857,631.93933 1400.83373,631.939108 C1397.91889,631.938886 1395.55577,629.577607 1395.55555,626.665032 L1395.55472,615.714625 C1394.8005,612.501394 1392.63644,610.165745 1389.52255,610.165508 C1386.12215,610.165249 1383.49101,612.920166 1383.49127,616.317919 L1383.49283,636.834017 C1383.49305,639.746591 1381.1303,642.10751 1378.21546,642.107288 C1375.30061,642.107066 1372.9375,639.745787 1372.93728,636.833213 L1372.9363,624.000104 C1372.18209,620.786873 1370.01802,618.451224 1366.90413,618.450986 C1363.50373,618.450727 1360.87259,621.205645 1360.87285,624.603398 L1348.31757,603 C1348.19706,602.486571 1346.09215,599.326904 1342.65095,594.385548 Z" id="Combined-Shape" fill="#B58FC1"></path>
            <path d="M9.02794474,586.864027 C9.02794474,586.864027 9.301077,591.406387 14.2695702,591.071692 C17.1781382,590.875727 18.9646232,588.461664 18.7431447,584.241752 C19.3276737,580.993592 21.3661982,578.548234 24.475832,578.385502 C27.8715823,578.207798 30.6437371,580.821615 30.8218202,584.214697 L31.4512709,596.207853 C31.6039249,599.116424 34.0873825,601.350791 36.9982406,601.198462 C39.9090988,601.046133 42.1450564,598.564792 41.9235779,594.34488 C42.5081069,591.09672 44.5466314,588.651362 47.6562653,588.48863 C51.0520155,588.310926 53.8241703,590.924743 54.0022534,594.317826 L54.2713919,599.445819 C54.4294949,602.458214 56.8134695,604.782282 59.8282332,604.624515 C62.8429968,604.466748 64.9706265,601.906582 64.7106489,596.953133 C65.2232734,592.33495 68.0678223,591.192529 70.7317168,591.053124 C74.12822,590.87538 77.3640608,593.491336 77.5591625,597.20868 L77.9052992,603.803749 C78.0579531,606.712321 80.5414107,608.946688 83.4522689,608.794359 C86.3631271,608.642029 88.5990847,606.160689 88.4464307,603.252117 L87.5369038,585.922568 C88.1214328,582.674408 90.1599574,580.229049 93.2695912,580.066318 C96.6653414,579.888614 99.4374962,582.502431 99.6155793,585.895513 L99.8024679,589.456369 C99.9551218,592.364941 102.438579,594.599308 105.349438,594.446978 C108.260296,594.294649 110.496253,591.813308 110.204015,586.245192 C110.788544,582.997032 112.827069,580.551673 115.936703,580.388942 C119.332453,580.211237 122.104608,582.825055 122.282691,586.218137 L122.509066,590.53134 C122.66172,593.439911 125.145177,595.674278 128.056036,595.521949 C130.966894,595.36962 133.202851,592.888279 132.910613,587.320163 C133.495142,584.072002 135.533667,581.626644 138.643301,581.463912 C142.039051,581.286208 144.811206,583.900025 144.989289,587.293108 L145.215664,591.60631 C145.368318,594.514881 147.851775,596.749249 150.762633,596.596919 C153.673492,596.44459 155.909449,593.963249 155.756795,591.054678 L155.538239,586.89044 C156.122768,583.64228 158.553707,581.308408 161.653419,581.014173 C164.909426,580.705724 167.988619,582.681837 168.253233,585.32126 C168.253233,585.32126 168.526365,589.86362 173.494858,589.528925 C176.403426,589.33296 178.189911,586.918896 177.968433,582.698985 C178.552962,579.450825 180.591486,577.005466 183.70112,576.842735 C187.09687,576.66503 189.869025,579.278847 190.047108,582.67193 L190.676559,594.665085 C190.829213,597.573657 193.31267,599.808024 196.223529,599.655695 C199.134387,599.503365 201.370344,597.022025 201.148866,592.802113 C201.733395,589.553953 203.771919,587.108594 206.881553,586.945863 C210.277304,586.768159 213.049458,589.381976 213.227541,592.775058 L213.49668,597.903052 C213.654783,600.915447 216.038758,603.239515 219.053521,603.081748 C222.068285,602.923981 224.195915,600.363815 223.935937,595.410366 C224.448561,590.792183 227.29311,589.649762 229.957005,589.510356 C233.353508,589.332613 236.589349,591.948569 236.78445,595.665913 L236.972642,599.251596 C237.125296,602.160168 239.608754,604.394535 242.519612,604.242205 C245.43047,604.089876 247.666428,601.608535 247.513774,598.699964 L246.604247,581.370415 C247.188776,578.122255 249.2273,575.676896 252.336934,575.514165 C255.732684,575.33646 258.504839,577.950277 258.682922,581.34336 L258.869811,584.904216 C259.022465,587.812787 261.505922,590.047155 264.416781,589.894825 C267.327639,589.742496 269.563596,587.261155 269.271358,581.693039 C269.855887,578.444879 271.894412,575.99952 275.004046,575.836789 C278.399796,575.659084 281.171951,578.272901 281.350034,581.665984 L281.576409,585.979186 C281.729063,588.887758 284.21252,591.122125 287.123378,590.969796 C290.034237,590.817466 292.270194,588.336126 291.977956,582.768009 C292.562485,579.519849 294.60101,577.074491 297.710644,576.911759 C301.106394,576.734055 303.878549,579.347872 304.056632,582.740954 L304.283007,587.054157 C304.435661,589.962728 306.919118,592.197095 309.829976,592.044766 C312.740835,591.892437 314.976792,589.411096 314.824138,586.502525 L314.605582,582.338287 C315.190111,579.090127 317.62105,576.756255 320.720761,576.46202 C323.976769,576.153571 327.055962,578.129684 327.320576,580.769107 C327.320576,580.769107 327.593708,585.311467 332.562201,584.976772 C335.470769,584.780806 337.257254,582.366743 337.035776,578.146832 C337.620305,574.898672 339.658829,572.453313 342.768463,572.290581 C346.164213,572.112877 348.936368,574.726694 349.114451,578.119777 L349.743902,590.112932 C349.896556,593.021504 352.380013,595.255871 355.290872,595.103541 C358.20173,594.951212 360.437687,592.469871 360.285033,589.5613 L359.189566,568.688951 C359.774095,565.440791 361.812619,562.995433 364.922253,562.832701 C368.318003,562.654997 371.090158,565.268814 371.268241,568.661896 L371.494616,572.975099 C371.64727,575.88367 374.130728,578.118037 377.041586,577.965708 C379.952444,577.813379 382.188402,575.332038 382.035748,572.423467 L381.817191,568.259229 C382.40172,565.011069 384.832659,562.677197 387.932371,562.382962 C391.188378,562.074513 394.267571,564.050626 394.532185,566.690049 C394.532185,566.690049 394.805317,571.232409 399.773811,570.897714 C402.682379,570.701748 404.468864,568.287685 404.247385,564.067774 C404.831914,560.819614 406.870439,558.374255 409.980072,558.211524 C413.375823,558.033819 416.147977,560.647636 416.326061,564.040719 L416.955511,576.033874 C417.108165,578.942446 419.591623,581.176813 422.502481,581.024483 C425.413339,580.872154 427.649297,578.390813 427.427818,574.170902 C428.012347,570.922742 430.050872,568.477383 433.160506,568.314652 C436.556256,568.136947 439.328411,570.750764 439.506494,574.143847 L439.775632,579.271841 C439.933735,582.284236 442.31771,584.608303 445.332473,584.450537 C448.347237,584.29277 450.474867,581.732604 450.214889,576.779155 C450.727514,572.160972 453.572063,571.018551 456.235957,570.879145 C459.63246,570.701401 462.868301,573.317358 463.063403,577.034702 L463.409539,583.629771 C463.562193,586.538342 466.045651,588.772709 468.956509,588.62038 C471.867367,588.468051 474.103325,585.98671 473.950671,583.078139 L473.041144,565.74859 C473.625673,562.50043 475.664198,560.055071 478.773831,559.89234 C482.169582,559.714635 484.941737,562.328452 485.11982,565.721535 L485.306708,569.282391 C485.459362,572.190962 487.94282,574.425329 490.853678,574.273 C493.764536,574.120671 496.000494,571.63933 495.708256,566.071214 C496.292785,562.823054 498.331309,560.377695 501.440943,560.214963 C504.836693,560.037259 507.608848,562.651076 507.786931,566.044159 L508.013306,570.357361 C508.16596,573.265933 510.649418,575.5003 513.560276,575.34797 C516.471134,575.195641 518.707092,572.7143 518.414854,567.146184 C518.999383,563.898024 521.037907,561.452665 524.147541,561.289934 C527.543291,561.112229 530.315446,563.726046 530.493529,567.119129 L530.719904,571.432332 C530.872558,574.340903 533.356016,576.57527 536.266874,576.422941 C539.177732,576.270612 541.41369,573.789271 541.261036,570.880699 L541.042479,566.716462 C541.627008,563.468301 544.057947,561.134429 547.157659,560.840195 C550.413666,560.531746 553.492859,562.507859 553.757473,565.147281 C553.757473,565.147281 554.030605,569.689642 558.999099,569.354947 C561.907667,569.158981 563.694152,566.744918 563.472673,562.525007 C564.057202,559.276846 566.095727,556.831488 569.20536,556.668756 C572.601111,556.491052 575.373265,559.104869 575.551349,562.497952 L576.180799,574.491107 C576.333453,577.399678 578.816911,579.634045 581.727769,579.481716 C584.638627,579.329387 586.874585,576.848046 586.653106,572.628135 C587.237635,569.379975 589.27616,566.934616 592.385794,566.771884 C595.781544,566.59418 598.553699,569.207997 598.731782,572.60108 L599.00092,577.729073 C599.159023,580.741469 601.542998,583.065536 604.557762,582.907769 C607.572525,582.750003 609.700155,580.189837 609.440177,575.236387 C609.952802,570.618204 612.797351,569.475783 615.461245,569.336378 C618.857748,569.158634 622.093589,571.77459 622.288691,575.491934 L622.476882,579.077618 C622.629536,581.986189 625.112994,584.220556 628.023852,584.068227 C630.93471,583.915898 633.170668,581.434557 633.018014,578.525985 L632.108487,561.196437 C632.693016,557.948276 634.731541,555.502918 637.841174,555.340186 C641.236925,555.162482 644.009079,557.776299 644.187163,561.169382 L644.374051,564.730237 C644.526705,567.638809 647.010163,569.873176 649.921021,569.720847 C652.831879,569.568517 655.067837,567.087177 654.775599,561.51906 C655.360128,558.2709 657.398652,555.825542 660.508286,555.66281 C663.904036,555.485106 666.676191,558.098923 666.854274,561.492006 L667.080649,565.805208 C667.233303,568.713779 669.716761,570.948146 672.627619,570.795817 C675.538477,570.643488 677.774435,568.162147 677.482197,562.594031 C678.066726,559.345871 680.10525,556.900512 683.214884,556.737781 C686.610634,556.560076 689.382789,559.173893 689.560872,562.566976 L689.787247,566.880178 C689.939901,569.78875 692.423358,572.023117 695.334217,571.870788 C698.245075,571.718458 700.481032,569.237118 700.328379,566.328546 L700.109822,562.164308 C700.694351,558.916148 703.12529,556.582276 706.225002,556.288042 C709.481009,555.979593 712.560202,557.955706 712.824816,560.595128 C712.824816,560.595128 713.097948,565.137488 718.066441,564.802793 C720.975009,564.606828 722.761494,562.192765 722.540016,557.972853 C723.124545,554.724693 725.163069,552.279335 728.272703,552.116603 C731.668454,551.938899 734.440608,554.552716 734.618691,557.945798 L735.248142,569.938954 C735.400796,572.847525 737.884254,575.081892 740.795112,574.929563 C743.70597,574.777234 745.941928,572.295893 745.720449,568.075982 C746.304978,564.827821 748.343503,562.382463 751.453137,562.219731 C754.848887,562.042027 757.621042,564.655844 757.799125,568.048927 L758.068263,573.17692 C758.226366,576.189316 760.610341,578.513383 763.625104,578.355616 C766.639868,578.197849 768.767498,575.637683 768.50752,570.684234 C769.020145,566.066051 771.864694,564.92363 774.528588,564.784225 C777.925091,564.606481 781.160932,567.222437 781.356034,570.939781 L781.564008,574.90239 C781.716662,577.810962 784.200119,580.045329 787.110978,579.892999 C790.021836,579.74067 792.257793,577.259329 792.044528,573.195906 C792.629057,569.947746 794.479347,567.512238 797.588981,567.349506 C800.228781,567.211362 802.382266,568.768937 803.25773,571.064066 L803.833558,582.035535 C803.986212,584.944106 806.46967,587.178473 809.380528,587.026144 C812.291386,586.873815 814.527344,584.392474 814.37469,581.483902 L813.800757,570.548546 C814.385286,567.300386 816.42381,564.855027 819.533444,564.692296 C822.929194,564.514592 825.701349,567.128409 825.879432,570.521491 L826.954722,591.009391 C827.107376,593.917962 829.590834,596.152329 832.501692,596 C835.41255,595.847671 837.648508,593.36633 837.495854,590.457759 L836.823245,577.642289 C837.407774,574.394128 839.446298,571.94877 842.555932,571.786038 C845.951682,571.608334 848.723837,574.222151 848.90192,577.615234 L849.088809,581.176089 C849.241463,584.084661 851.72492,586.319028 854.635779,586.166699 C857.546637,586.014369 859.782594,583.533029 859.62994,580.624457 L859.332411,574.955526 C859.91694,571.707366 861.955465,569.262008 865.065099,569.099276 C868.460849,568.921572 871.233004,571.535389 871.411087,574.928472 L871.75592,581.498713 C871.908574,584.407285 874.392032,586.641652 877.30289,586.489323 C880.213748,586.336993 882.449706,583.855653 882.196954,579.039883 C882.781483,575.791723 884.820008,573.346364 887.929642,573.183633 C891.325392,573.005928 894.097547,575.619745 894.27563,579.012828 L895.370703,599.877653 C895.457099,601.523787 896.479113,602.942917 897.713392,603.846238 C898.741484,604.978373 900.439137,605.647717 902.086566,605.561505 C904.997424,605.409176 906.856912,602.947536 906.643647,598.884113 C907.228176,595.635953 909.266701,593.190594 912.376334,593.027863 C915.772085,592.850158 918.544239,595.463975 918.722323,598.857058 L919.146129,606.931993 C919.298783,609.840564 921.78224,612.074931 924.693099,611.922602 C927.603957,611.770273 929.839914,609.288932 929.626649,605.225509 C930.211178,601.977349 932.249702,599.53199 935.359336,599.369259 C938.755087,599.191554 941.527241,601.805371 941.705324,605.198454 L942.326562,617.035121 C942.479216,619.943693 944.962674,622.17806 947.873532,622.02573 C950.78439,621.873401 953.020348,619.39206 952.807082,615.328637 C953.391611,612.080477 955.430136,609.635118 958.53977,609.472387 C961.93552,609.294682 964.707675,611.908499 964.885758,615.301582 L965.803103,632.780096 C965.955757,635.688667 968.439214,637.923034 971.350073,637.770705 C974.260931,637.618376 976.496888,635.137035 976.344234,632.228463 L975.82957,622.422379 C976.414099,619.174219 978.452624,616.728861 981.562258,616.566129 C984.958008,616.388425 987.730163,619.002242 987.908246,622.395324 L989.042805,644.012496 C989.195459,646.921067 991.678917,649.155434 994.589775,649.003105 C997.500633,648.850776 999.73659,646.369435 999.583937,643.460864 L999.010004,632.525507 C999.594533,629.277347 1001.63306,626.831989 1004.74269,626.669257 C1008.13844,626.491553 1010.9106,629.10537 1011.08868,632.498453 L1012.16397,652.986352 C1012.31662,655.894923 1014.80008,658.129291 1017.71094,657.976961 C1020.6218,657.824632 1022.85775,655.343291 1022.7051,652.43472 L1022.03249,639.61925 C1022.61702,636.37109 1024.65555,633.925731 1027.76518,633.762999 C1031.16093,633.585295 1033.93308,636.199112 1034.11117,639.592195 L1034.29806,643.153051 C1034.45071,646.061622 1036.93417,648.295989 1039.84503,648.14366 C1042.75588,647.991331 1044.99184,645.50999 1044.83919,642.601418 L1044.54166,636.932488 C1045.12619,633.684328 1047.16471,631.238969 1050.27435,631.076237 C1053.6701,630.898533 1056.44225,633.51235 1056.62033,636.905433 L1056.96517,643.475675 C1057.11782,646.384246 1059.60128,648.618613 1062.51214,648.466284 C1065.423,648.313955 1067.65895,645.832614 1067.4062,641.016844 C1067.99073,637.768684 1070.02925,635.323325 1073.13889,635.160594 C1076.53464,634.982889 1079.30679,637.596706 1079.48488,640.989789 L1080.57995,661.854614 C1080.7326,664.763186 1083.21606,666.997553 1086.12692,666.845223 C1089.03778,666.692894 1091.27374,664.211553 1091.12108,661.302982 L1090.50766,649.615279 C1091.09219,646.367119 1093.13072,643.921761 1096.24035,643.759029 C1099.6361,643.581325 1102.40825,646.195142 1102.46555,647.286796 C1102.6182,650.195368 1105.10166,652.429735 1108.01252,652.277406 C1110.92338,652.125076 1113.15933,649.643736 1113.00668,646.735164 L1112.42453,635.64332 C1113.00906,632.39516 1115.04759,629.949801 1118.15722,629.78707 C1121.55297,629.609365 1124.32513,632.223182 1124.50321,635.616265 L1125.09317,646.857074 C1125.24583,649.765645 1127.72929,652.000012 1130.64014,651.847683 C1133.551,651.695354 1135.78696,649.214013 1135.63431,646.305442 L1135.09165,635.965944 C1135.67617,632.717784 1137.7147,630.272425 1140.82433,630.109694 C1144.22008,629.931989 1146.99224,632.545806 1147.20254,636.552804 C1147.36065,639.565199 1149.74462,641.889266 1152.75938,641.7315 C1155.77415,641.573733 1157.90178,639.013567 1157.74367,636.001172 L1157.32591,628.041346 C1157.83853,623.423163 1160.64995,622.282475 1163.3146,622.143031 C1165.77445,622.014303 1168.40438,623.342499 1169.27262,625.499949 L1169.41888,628.28664 C1169.57153,631.195212 1172.16944,633.42359 1175.66081,633.240881 C1178.57167,633.088552 1180.11266,630.643579 1179.85079,625.654018 C1181.22091,622.988646 1182.87367,621.119477 1185.58876,620.977392 C1188.25341,620.837948 1190.9678,621.689461 1191.96106,626.22884 L1192.37882,634.188666 C1192.53692,637.201061 1194.9209,639.525128 1197.93566,639.367362 C1200.95043,639.209595 1203.07805,636.649429 1202.88773,633.023119 C1202.70965,629.630036 1205.193,626.741191 1208.58875,626.563487 C1211.69838,626.400755 1213.98172,628.619945 1214.90307,631.7893 L1215.44573,642.128798 C1215.59838,645.037369 1218.08184,647.271736 1220.9927,647.119407 C1223.90356,646.967078 1226.13952,644.485737 1225.98686,641.577165 L1225.3969,630.336357 C1225.21881,626.943274 1227.70217,624.054429 1231.09792,623.876725 C1234.20755,623.713993 1236.49089,625.933183 1237.41224,629.102538 L1237.99438,640.194382 C1238.14704,643.102954 1240.63049,645.337321 1243.54135,645.184991 C1246.45221,645.032662 1248.68817,642.551321 1248.6563,641.944178 C1248.47822,638.551095 1250.96157,635.66225 1254.35732,635.484546 C1257.46696,635.321814 1259.7503,637.541004 1260.67164,640.710359 L1261.28506,652.398062 C1261.43772,655.306633 1263.92117,657.541 1266.83203,657.388671 C1269.74289,657.236342 1271.97885,654.755001 1271.82619,651.84643 L1270.73112,630.981605 C1270.55304,627.588522 1273.03639,624.699677 1276.43214,624.521972 C1279.54177,624.359241 1281.82511,626.57843 1282.84656,631.654984 C1282.99921,634.563556 1285.48267,636.797923 1288.39353,636.645593 C1291.30439,636.493264 1293.54034,634.011923 1293.38769,631.103352 L1293.04286,624.53311 C1292.86477,621.140027 1295.34813,618.251182 1298.74388,618.073478 C1301.85351,617.910746 1304.13685,620.129936 1305.0582,623.299291 L1305.35572,628.968222 C1305.50838,631.876794 1307.99184,634.111161 1310.90269,633.958831 C1313.81355,633.806502 1316.04951,631.325161 1315.89686,628.41659 L1315.70997,624.855734 C1315.53188,621.462651 1318.01524,618.573806 1321.41099,618.396102 C1324.52062,618.23337 1326.80396,620.45256 1327.72531,623.621915 L1328.39792,636.437385 C1328.55057,639.345957 1331.03403,641.580324 1333.94489,641.427995 C1336.85574,641.275665 1339.0917,638.794325 1338.93905,635.885753 L1337.86376,615.397854 C1337.68567,612.004771 1340.16903,609.115926 1343.56478,608.938221 C1346.67441,608.77549 1348.95775,610.994679 1349.8791,614.164035 L1350.45303,625.099391 C1350.60568,628.007963 1353.08914,630.24233 1356,630.09 C1358.91086,629.937671 1361.14682,627.45633 1360.99416,624.547759 C1358.02094,612.55507 1356.28213,604.334311 1355.77773,599.88548 C1355.94854,596.303671 1356.14143,594.282407 1356.35641,593.82169 L1365.50492,574.215808 C1366.73584,571.577854 1365.5924,568.441541 1362.95096,567.210643 C1360.30951,565.979745 1357.17035,567.120385 1355.93943,569.758339 L1351.31152,579.676256 C1349.27031,582.268076 1346.32235,583.469571 1343.50053,582.154618 C1340.41908,580.718676 1339.19892,577.112149 1340.63489,574.034763 L1349.30549,555.453084 C1350.53641,552.81513 1349.39296,549.678818 1346.75152,548.447919 C1344.11008,547.217021 1340.97092,548.357661 1339.73999,550.995615 L1334.31641,562.618718 C1332.2752,565.210538 1329.32724,566.412033 1326.50542,565.09708 C1323.42397,563.661138 1322.20381,560.054611 1323.63978,556.977225 L1325.14675,553.747676 C1326.37768,551.109721 1325.23423,547.973409 1322.59279,546.742511 C1319.95135,545.511613 1316.81219,546.652253 1315.58126,549.290207 L1313.18214,554.431693 C1311.14092,557.023513 1308.19297,558.225008 1305.37115,556.910055 C1302.28969,555.474113 1301.06953,551.867586 1302.5055,548.7902 L1305.28607,542.831262 C1306.51699,540.193308 1305.37354,537.056996 1302.7321,535.826097 C1300.09066,534.595199 1296.9515,535.735839 1295.72057,538.373793 C1292.87222,542.695364 1289.92427,543.896859 1287.10245,542.581906 C1284.02099,541.145964 1282.80083,537.539437 1284.2368,534.462051 L1293.06692,515.538516 C1294.29784,512.900562 1293.15439,509.764249 1290.51295,508.533351 C1287.87151,507.302453 1284.73235,508.443093 1283.50143,511.081047 L1278.55512,521.681311 C1276.51391,524.273131 1273.56595,525.474626 1270.74413,524.159673 C1267.66268,522.723731 1266.44251,519.117204 1267.87849,516.039818 C1268.13543,515.489164 1266.99199,512.352852 1264.35055,511.121954 C1261.7091,509.891055 1258.56994,511.031695 1257.33902,513.66965 L1252.64489,523.729494 C1250.60367,526.321315 1247.65571,527.52281 1244.83389,526.207856 C1241.75244,524.771915 1240.53228,521.165388 1241.96825,518.088002 L1246.72543,507.893052 C1247.95635,505.255098 1246.8129,502.118786 1244.17146,500.887887 C1241.53002,499.656989 1238.39086,500.797629 1237.15993,503.435583 L1232.7842,512.813081 C1230.74299,515.404901 1227.79503,516.606396 1224.97321,515.291443 C1221.89175,513.855501 1220.67159,510.248974 1222.10756,507.171588 C1223.64224,503.882675 1222.62874,500.713877 1219.89301,499.439041 C1217.15728,498.164205 1214.07675,499.425206 1212.80189,502.157324 L1209.43324,509.376558 C1206.81223,513.210932 1203.97693,512.983754 1201.55891,511.85697 C1199.09511,510.708853 1198.26303,508.358119 1197.99118,505.375428 C1200.10279,500.850101 1199.58998,498.007663 1196.94854,496.776765 C1193.78031,495.300388 1190.5373,496.392632 1189.30637,499.030586 L1188.12703,501.558 C1186.51406,503.232064 1183.57852,503.478202 1181.34634,502.438019 C1178.92832,501.311235 1176.74925,499.201744 1178.00377,494.730588 L1181.37241,487.511355 C1182.64728,484.779237 1181.63378,481.610439 1178.89805,480.335603 C1176.16232,479.060767 1173.08179,480.321768 1171.80692,483.053886 C1170.11114,486.688067 1166.56222,488.072228 1163.48076,486.636286 C1160.65894,485.321333 1159.68505,482.292275 1160.35977,479.063674 L1164.7355,469.686176 C1165.96643,467.048222 1164.82298,463.911909 1162.18154,462.681011 C1159.54009,461.450113 1156.40093,462.590753 1155.17001,465.228707 L1150.41283,475.423657 C1148.97686,478.501043 1145.42794,479.885203 1142.34649,478.449261 C1139.52467,477.134308 1138.55077,474.105251 1139.22549,470.876649 L1143.91962,460.816804 C1145.15055,458.17885 1144.0071,455.042538 1141.36566,453.811639 C1138.72422,452.580741 1135.58506,453.721381 1134.35413,456.359335 C1133.89214,457.349421 1130.34322,458.733582 1127.26176,457.29764 C1124.43994,455.982687 1123.46605,452.953629 1124.14076,449.725028 L1129.08707,439.124764 C1130.31799,436.48681 1129.17455,433.350497 1126.5331,432.119599 C1123.89166,430.888701 1120.7525,432.029341 1119.52158,434.667295 L1110.69146,453.59083 C1109.25549,456.668216 1105.70657,458.052376 1102.62512,456.616434 C1099.8033,455.301481 1098.8294,452.272424 1099.50412,449.043822 C1101.54218,444.676118 1100.39873,441.539805 1097.75729,440.308907 C1095.11585,439.078009 1091.97669,440.218649 1090.74576,442.856603 L1087.9652,448.815541 C1086.52923,451.892927 1082.98031,453.277088 1079.89885,451.841146 C1077.07703,450.526193 1076.10314,447.497135 1076.77785,444.268534 L1079.17698,439.127048 C1080.4079,436.489093 1079.26446,433.352781 1076.62301,432.121883 C1073.98157,430.890984 1070.84241,432.031624 1069.61149,434.669579 L1068.10451,437.899128 C1066.66854,440.976514 1063.11962,442.360674 1060.03817,440.924732 C1057.21635,439.609779 1056.24245,436.580722 1056.91717,433.35212 L1062.34075,421.729018 C1063.57167,419.091064 1062.42823,415.954751 1059.78678,414.723853 C1057.14534,413.492955 1054.00618,414.633595 1052.77526,417.271549 L1044.10466,435.853228 C1042.66869,438.930614 1039.11977,440.314774 1036.03831,438.878833 C1033.21649,437.563879 1032.2426,434.534822 1032.91732,431.30622 L1037.54522,421.388304 C1038.77615,418.75035 1037.6327,415.614037 1034.99126,414.383139 C1032.34982,413.152241 1029.21065,414.292881 1027.97973,416.930835 L1018.83122,436.536717 C1017.39525,439.614103 1013.84633,440.998263 1010.76487,439.562322 C1007.94305,438.247368 1006.96916,435.218311 1007.64387,431.989709 L1011.79386,423.095996 C1013.02479,420.458042 1011.88134,417.321729 1009.2399,416.090831 C1006.59846,414.859933 1003.4593,416.000573 1002.22837,418.638527 L994.831366,434.490817 C993.395394,437.568203 989.846474,438.952364 986.76502,437.516422 C983.9432,436.201469 982.969306,433.172411 983.644021,429.94381 C985.363686,426.258452 984.220239,423.12214 981.578797,421.891242 C978.937355,420.660344 975.798194,421.800984 974.56727,424.438938 L969.557924,435.174306 C968.121952,438.251692 964.573033,439.635853 961.491578,438.199911 C958.669758,436.884958 957.695864,433.8559 958.37058,430.627299 C960.090244,426.941941 958.946798,423.805629 956.305356,422.574731 C953.663914,421.343833 950.524753,422.484473 949.293828,425.122427 L945.876469,432.446059 C944.440497,435.523445 940.891578,436.907606 937.810123,435.471664 C934.988303,434.156711 934.014409,431.127653 934.689125,427.899052 C936.408789,424.213695 935.606967,421.236577 932.965525,420.005679 C931.470576,419.309041 929.646071,419.293703 928.268942,419.957858 C926.78637,420.332799 925.30738,421.265161 924.610727,422.758136 L915.780613,441.681671 C914.34464,444.759057 910.795721,446.143218 907.714266,444.707276 C904.892446,443.392323 903.918553,440.363265 904.593268,437.134664 C906.631329,432.766959 905.487883,429.630647 902.846441,428.399749 C900.204999,427.168851 897.065838,428.30949 895.834914,430.947445 L893.05435,436.906383 C891.618378,439.983769 888.069458,441.367929 884.988004,439.931987 C882.166184,438.617034 881.19229,435.587977 881.867005,432.359375 L884.266129,427.217889 C885.497054,424.579935 884.353607,421.443622 881.712165,420.212724 C879.070723,418.981826 875.931562,420.122466 874.700638,422.76042 L873.193663,425.989969 C871.757691,429.067355 868.208772,430.451516 865.127317,429.015574 C862.305497,427.700621 861.331603,424.671563 862.006319,421.442962 L867.429899,409.81986 C868.660824,407.181905 867.517377,404.045593 864.875935,402.814695 C862.234493,401.583796 859.095332,402.724436 857.864408,405.362391 L849.193811,423.94407 C847.757839,427.021456 844.208919,428.405616 841.127465,426.969674 C838.305645,425.654721 837.331751,422.625663 838.006466,419.397062 L842.634372,409.479145 C843.865296,406.841191 842.72185,403.704879 840.080408,402.473981 C837.438966,401.243082 834.299805,402.383722 833.068881,405.021677 L828.425692,414.972346 C826.754456,416.771278 824.174688,417.408331 821.779215,416.292054 C818.957395,414.9771 818.154314,412.027641 818.829029,408.799039 C820.548694,405.113682 819.405247,401.97737 816.763805,400.746471 C814.122363,399.515573 810.983202,400.656213 809.752278,403.294167 L808.075279,406.88809 C806.502078,410.259568 802.522499,411.472118 799.440361,410.035858 C797.023025,408.909392 794.813894,406.785892 796.068411,402.314736 C798.164739,397.822162 797.151242,394.653365 794.415512,393.378529 C791.679781,392.103693 788.599248,393.364693 787.324385,396.096812 L785.154189,400.74769 C783.718216,403.825076 780.169297,405.209237 777.087842,403.773295 C774.266022,402.458341 773.292128,399.429284 773.966844,396.200683 C775.752735,392.373397 774.609289,389.237085 771.967846,388.006187 C769.326404,386.775288 766.187243,387.915928 764.956319,390.553882 L759.880747,401.431179 C758.444775,404.508565 754.895855,405.892726 751.814401,404.456784 C748.992581,403.14183 748.018687,400.112773 748.693402,396.884172 C750.479293,393.056886 749.727329,390.151184 747.104354,388.88071 C742.623697,386.710506 740.669147,390.817237 740.669147,390.817237 C739.435241,393.163881 735.840536,393.842193 732.937599,392.337418 C730.174232,390.904328 728.794795,387.831665 729.46951,384.603064 L731.23184,380.826272 C732.462764,378.188318 731.319318,375.052005 728.677876,373.821107 C726.036434,372.590209 722.897273,373.730849 721.666349,376.368803 L719.840977,380.2807 C718.405004,383.358085 714.856085,384.742246 711.77463,383.306304 C708.95281,381.991351 707.978916,378.962293 708.653632,375.733692 C711.010091,370.68364 709.866645,367.547328 707.225203,366.31643 C704.58376,365.085532 701.4446,366.226171 700.213675,368.864126 L698.388303,372.776022 C696.952331,375.853408 693.403412,377.237568 690.321957,375.801627 C687.500137,374.486673 686.526243,371.457616 687.200959,368.229015 C689.557417,363.178963 688.413971,360.04265 685.772529,358.811752 C683.131087,357.580854 679.991926,358.721494 678.761002,361.359448 L677.254027,364.588998 C675.818055,367.666383 672.269136,369.050544 669.187681,367.614602 C666.365861,366.299649 665.391967,363.270591 666.066683,360.04199 L673.400648,344.324804 C674.631572,341.68685 673.488126,338.550538 670.846684,337.31964 C668.205242,336.088741 665.066081,337.229381 663.835156,339.867336 L662.317675,343.119402 C660.744473,346.49088 656.764895,347.703431 653.682757,346.26717 C651.26542,345.140704 649.056289,343.017204 650.310806,338.546049 C652.407135,334.053475 651.393637,330.884677 648.657907,329.609841 C645.922176,328.335005 642.841643,329.596006 641.56678,332.328124 L639.396584,336.979002 C637.960612,340.056388 634.411692,341.440549 631.330238,340.004607 C628.508418,338.689654 627.534524,335.660596 628.209239,332.431995 C629.99513,328.604709 628.851684,325.468397 626.210242,324.237499 C623.5688,323.006601 620.429639,324.14724 619.198715,326.785195 L614.123142,337.662492 C612.68717,340.739877 609.138251,342.124038 606.056796,340.688096 C603.234976,339.373143 602.261082,336.344085 602.935798,333.115484 C604.721688,329.288198 603.969725,326.382497 601.34675,325.112022 C596.866092,322.941818 594.911543,327.048549 594.911543,327.048549 C593.677636,329.395193 590.082931,330.073505 587.179995,328.568731 C584.416627,327.13564 583.03719,324.062977 583.711906,320.834376 L585.474235,317.057584 C586.705159,314.41963 585.561713,311.283318 582.920271,310.052419 C580.278829,308.821521 577.139668,309.962161 575.908744,312.600115 L574.083372,316.512012 C572.6474,319.589398 569.09848,320.973558 566.017026,319.537616 C563.195206,318.222663 562.221312,315.193606 562.896027,311.965004 C565.252486,306.914953 564.10904,303.77864 561.467598,302.547742 C558.826156,301.316844 555.686995,302.457484 554.456071,305.095438 L552.630699,309.007334 C551.194726,312.08472 547.645807,313.468881 544.564352,312.032939 C541.742532,310.717986 540.768639,307.688928 541.443354,304.460327 C543.799813,299.410275 542.656367,296.273963 540.014925,295.043065 C537.373483,293.812166 534.234322,294.952806 533.003397,297.590761 L531.496423,300.82031 C530.060451,303.897696 526.511531,305.281856 523.430076,303.845914 C520.608256,302.530961 519.634363,299.501904 520.309078,296.273302 L527.643043,280.556117 C528.873967,277.918162 527.730521,274.78185 525.089079,273.550952 C522.447637,272.320054 519.308476,273.460694 518.077552,276.098648 L515.28648,282.080103 C513.713279,285.451581 509.733701,286.664132 506.651563,285.227871 C504.234226,284.101405 502.025095,281.977905 503.279612,277.50675 C505.375941,273.014176 504.362443,269.845378 501.626713,268.570542 C498.890982,267.295706 495.810449,268.556707 494.535586,271.288825 L492.36539,275.939704 C490.929418,279.017089 487.380498,280.40125 484.299044,278.965308 C481.477224,277.650355 480.50333,274.621297 481.178045,271.392696 C482.963936,267.56541 481.82049,264.429098 479.179048,263.1982 C476.537606,261.967302 473.398445,263.107942 472.167521,265.745896 L467.091948,276.623193 C465.655976,279.700578 462.107057,281.084739 459.025602,279.648797 C456.203782,278.333844 455.229888,275.304786 455.904603,272.076185 C457.690494,268.248899 456.938531,265.343198 454.315556,264.072723 C449.834898,261.902519 447.880349,266.00925 447.880349,266.00925 C446.646442,268.355894 443.051737,269.034206 440.148801,267.529432 C437.385433,266.096341 436.005996,263.023679 436.680712,259.795077 L438.443041,256.018285 C439.673965,253.380331 438.530519,250.244019 435.889077,249.01312 C433.247635,247.782222 430.108474,248.922862 428.87755,251.560816 L427.052178,255.472713 C425.616206,258.550099 422.067286,259.934259 418.985832,258.498317 C416.164012,257.183364 415.190118,254.154307 415.864833,250.925705 L424.698131,231.995347 C425.929056,229.357393 424.785609,226.22108 422.144167,224.990182 C419.502725,223.759284 416.363564,224.899924 415.13264,227.537878 L410.057068,238.415175 C408.621096,241.492561 405.072176,242.876721 401.990721,241.440779 C399.168901,240.125826 398.195008,237.096768 398.869723,233.868167 C400.655614,230.040882 399.90365,227.13518 397.280675,225.864705 C392.800018,223.694501 390.845468,227.801232 390.845468,227.801232 C389.611562,230.147876 386.016856,230.826188 383.11392,229.321414 C380.350553,227.888323 378.971116,224.815661 379.645831,221.587059 L381.408161,217.810267 C382.639085,215.172313 381.495639,212.036001 378.854197,210.805103 C376.212755,209.574204 373.073594,210.714844 371.84267,213.352799 L370.017297,217.264695 C368.581325,220.342081 365.032406,221.726241 361.950951,220.2903 C359.129131,218.975346 358.155237,215.946289 358.829953,212.717687 C361.186412,207.667636 360.042965,204.531323 357.401523,203.300425 C354.760081,202.069527 351.62092,203.210167 350.389996,205.848121 L348.564624,209.760018 C347.128652,212.837404 343.579732,214.221564 340.498278,212.785622 C337.676458,211.470669 336.702564,208.441611 337.377279,205.21301 C339.733738,200.162958 338.590292,197.026646 335.94885,195.795748 C333.307408,194.56485 330.168247,195.705489 328.937323,198.343444 L327.430348,201.572993 C325.994376,204.650379 322.445457,206.034539 319.364002,204.598598 C316.542182,203.283644 315.568288,200.254587 316.243004,197.025985 L323.576968,181.3088 C324.807893,178.670846 323.664447,175.534533 321.023004,174.303635 C318.381562,173.072737 315.242401,174.213377 314.011477,176.851331 L312.493995,180.103398 C310.920794,183.474875 306.941215,184.687426 303.859078,183.251166 C301.441741,182.1247 299.23261,180.0012 300.487127,175.530044 C302.583456,171.03747 301.569958,167.868673 298.834228,166.593837 C296.098497,165.319001 293.017964,166.580001 291.743101,169.312119 L289.572905,173.962998 C288.136933,177.040384 284.588013,178.424544 281.506559,176.988602 C278.684739,175.673649 277.710845,172.644592 278.38556,169.41599 C280.171451,165.588705 279.028005,162.452392 276.386563,161.221494 C273.745121,159.990596 270.60596,161.131236 269.375036,163.76919 L264.299463,174.646487 C262.863491,177.723873 259.314571,179.108033 256.233117,177.672091 C253.411297,176.357138 252.437403,173.328081 253.112118,170.099479 C254.898009,166.272194 254.146046,163.366492 251.523071,162.096018 C247.042413,159.925814 245.087864,164.032545 245.087864,164.032545 C243.853957,166.379189 240.259252,167.057501 237.356316,165.552726 C234.592948,164.119636 233.213511,161.046973 233.888227,157.818371 L235.650556,154.04158 C236.88148,151.403625 235.738034,148.267313 233.096592,147.036415 C230.45515,145.805517 227.315989,146.946157 226.085065,149.584111 L224.259693,153.496007 C222.823721,156.573393 219.274801,157.957554 216.193347,156.521612 C213.371527,155.206659 212.397633,152.177601 213.072348,148.949 C215.428807,143.898948 214.285361,140.762636 211.643919,139.531737 C209.002477,138.300839 205.863316,139.441479 204.632392,142.079433 L202.807019,145.99133 C201.371047,149.068716 197.822128,150.452876 194.740673,149.016934 C191.918853,147.701981 190.944959,144.672924 191.619675,141.444322 C193.976134,136.394271 192.832688,133.257958 190.191246,132.02706 C187.549803,130.796162 184.410643,131.936802 183.179718,134.574756 L181.672744,137.804305 C180.236771,140.881691 176.687852,142.265852 173.606397,140.82991 C170.784577,139.514957 169.810683,136.485899 170.485399,133.257298 L177.819364,117.540112 C179.050288,114.902158 177.906842,111.765845 175.2654,110.534947 C172.623958,109.304049 169.484797,110.444689 168.253873,113.082643 L165.462801,119.064099 C163.8896,122.435576 159.910021,123.648127 156.827883,122.211867 C154.410547,121.085401 152.201416,118.961901 153.455933,114.490745 C155.552261,109.998171 154.538764,106.829374 151.803034,105.554538 C149.067303,104.279702 145.98677,105.540702 144.711907,108.27282 L142.541711,112.923699 C141.105739,116.001085 137.556819,117.385245 134.475364,115.949304 C131.653545,114.63435 130.679651,111.605293 131.354366,108.376691 C133.140257,104.549406 131.996811,101.413093 129.355369,100.182195 C126.713927,98.9512971 123.574766,100.091937 122.343841,102.729891 L117.268269,113.607188 C115.832297,116.684574 112.283377,118.068734 109.201923,116.632793 C106.380103,115.317839 105.406209,112.288782 106.080924,109.06018 C107.866815,105.232895 107.114852,102.327193 104.491877,101.056719 C100.011219,98.8865146 98.0566695,102.993246 98.0566695,102.993246 C96.8227633,105.33989 93.2280577,106.018202 90.3251217,104.513427 C87.5617543,103.080337 86.1823172,100.007674 86.8570326,96.7790725 L88.6193621,93.0022807 C89.8502863,90.3643265 88.7068401,87.2280141 86.065398,85.9971159 C83.423956,84.7662177 80.2847951,85.9068576 79.0538708,88.5448119 L77.2284987,92.4567084 C75.7925266,95.5340943 72.2436071,96.9182547 69.1621524,95.4823129 C66.3403325,94.1673596 65.3664387,91.1383022 66.0411541,87.9097007 C68.397613,82.8596491 67.2541668,79.7233367 64.6127247,78.4924385 C61.9712826,77.2615403 58.8321218,78.4021802 57.6011975,81.0401345 L55.7758254,84.952031 C54.3398533,88.0294169 50.7909338,89.4135773 47.7094791,87.9776355 C44.8876592,86.6626822 43.9137654,83.6336247 44.5884808,80.4050233 C46.9449397,75.3549716 45.8014935,72.2186593 43.1600514,70.9877611 C40.5186093,69.7568629 37.3794485,70.8975028 36.1485242,73.5354571 L34.6415495,76.7650064 C33.2055774,79.8423923 29.6566579,81.2265527 26.5752032,79.7906109 C23.7533833,78.4756576 22.7794894,75.4466001 23.4542048,72.2179987 L30.7881698,56.5008132 C32.019094,53.8628589 30.8756479,50.7265465 28.2342058,49.4956484 C25.5927637,48.2647502 22.4536028,49.4053901 21.2226786,52.0433443 L12.0636599,71.671744 C10.4904585,75.0432215 6.51087997,76.2557722 3.42874204,74.8195121 C1.9738102,74.1415214 0.59430119,71.9128214 -2.29732607e-13,70.2179987 L-2.50910404e-14,583.262973 C5.68413771,582.248492 8.76333087,584.224605 9.02794474,586.864027 Z" id="Combined-Shape" fill="#FCE579"></path>
        </g>
    </g>
</svg>