<?xml version="1.0" encoding="UTF-8"?>
<svg width="159px" height="269px" viewBox="0 0 159 269" version="1.1" xmlns="http://www.w3.org/2000/svg" xmlns:xlink="http://www.w3.org/1999/xlink">
    <!-- Generator: sketchtool 52.3 (67297) - http://www.bohemiancoding.com/sketch -->
    <title>5F352411-D79B-4E7C-816E-8C23117600B6</title>
    <desc>Created with sketchtool.</desc>
    <g id="Signup---Signin" stroke="none" stroke-width="1" fill="none" fill-rule="evenodd">
        <g id="SignUp-Confirmation" transform="translate(-1165.000000, -53.000000)">
            <g id="background-pattern-c-copy" transform="translate(1224.433550, 168.433550) scale(1, -1) rotate(45.000000) translate(-1224.433550, -168.433550) translate(1079.933550, 54.933550)">
                <path d="M148.779548,125.254977 C148.779548,142.464208 134.826167,156.414015 117.616179,156.414015 C100.406192,156.414015 86.4528107,142.464208 86.4528107,125.254977 C86.4528107,108.045746 100.406192,94.0959385 117.616179,94.0959385 C134.826167,94.0959385 148.779548,108.045746 148.779548,125.254977" id="Fill-9" fill="#B58FC1" transform="translate(117.616179, 125.254977) rotate(135.000000) translate(-117.616179, -125.254977) "></path>
                <path d="M116.069929,48.7174518 C116.069929,61.0947595 106.033631,71.1296634 93.654603,71.1296634 C81.2739404,71.1296634 71.2392769,61.0947595 71.2392769,48.7174518 C71.2392769,36.3401441 81.2739404,26.3052403 93.654603,26.3052403 C106.033631,26.3052403 116.069929,36.3401441 116.069929,48.7174518" id="Fill-11" fill="#FCE579" transform="translate(93.654603, 48.717452) rotate(135.000000) translate(-93.654603, -48.717452) "></path>
                <path d="M261.026042,131.641145 C261.026042,168.674991 231.000523,198.696337 193.961531,198.696337 C156.922538,198.696337 126.898655,168.674991 126.898655,131.641145 C126.898655,94.6072986 156.922538,64.5859525 193.961531,64.5859525 C231.000523,64.5859525 261.026042,94.6072986 261.026042,131.641145" id="Fill-13" fill="#FCE579" transform="translate(193.962348, 131.641145) rotate(135.000000) translate(-193.962348, -131.641145) "></path>
                <path d="M154.755525,110.476437 C151.371401,109.217784 147.710989,108.526341 143.888727,108.526341 C126.677104,108.526341 112.725358,122.476149 112.725358,139.683745 C112.725358,141.68288 112.921539,143.636245 113.281205,145.530764 C131.534222,140.188841 146.564964,127.309707 154.755525,110.476437" id="Fill-15" fill="#C9A9D5" transform="translate(133.740442, 127.028553) rotate(135.000000) translate(-133.740442, -127.028553) "></path>
                <path d="M5.2037369,41.1734256 C5.2037369,34.7640987 10.4009014,29.5676564 16.811119,29.5676564 C23.2213366,29.5676564 28.4185011,34.7640987 28.4185011,41.1734256 C28.4185011,47.5827525 23.2213366,52.7791948 16.811119,52.7791948 C10.4009014,52.7791948 5.2037369,47.5827525 5.2037369,41.1734256" id="Fill-17" fill="#C9A9D5" transform="translate(16.811119, 41.173426) rotate(135.000000) translate(-16.811119, -41.173426) "></path>
                <path d="M162.197526,14.1900198 C162.197526,9.01809677 166.390897,4.82530831 171.563539,4.82530831 C176.736181,4.82530831 180.929552,9.01809677 180.929552,14.1900198 C180.929552,19.3619429 176.736181,23.5547314 171.563539,23.5547314 C166.390897,23.5547314 162.197526,19.3619429 162.197526,14.1900198" id="Fill-19" fill="#C9A9D5" transform="translate(171.563539, 14.190020) rotate(135.000000) translate(-171.563539, -14.190020) "></path>
            </g>
        </g>
    </g>
</svg>