<?xml version="1.0" encoding="UTF-8"?>
<svg width="256px" height="197px" viewBox="0 0 256 197" version="1.1" xmlns="http://www.w3.org/2000/svg" xmlns:xlink="http://www.w3.org/1999/xlink">
    <!-- Generator: sketchtool 52.3 (67297) - http://www.bohemiancoding.com/sketch -->
    <title>AE4DA929-5B67-4AF4-A552-B7A3268456D0</title>
    <desc>Created with sketchtool.</desc>
    <g id="Signup---Signin" stroke="none" stroke-width="1" fill="none" fill-rule="evenodd">
        <g id="SignUp-Confirmation" transform="translate(-118.000000, -603.000000)">
            <g id="background-pattern-b-copy" transform="translate(50.000000, 603.000000)">
                <path d="M147.678985,197.553293 C147.678985,215.271925 133.307277,229.635227 115.578275,229.635227 C97.8508313,229.635227 83.4775651,215.271925 83.4775651,197.553293 C83.4775651,179.834661 97.8508313,165.471359 115.578275,165.471359 C133.307277,165.471359 147.678985,179.834661 147.678985,197.553293" id="Fill-3" fill="#B58FC1" transform="translate(115.578275, 197.553293) rotate(90.000000) translate(-115.578275, -197.553293) "></path>
                <path d="M78.2448268,195.907876 C80.0301903,211.93561 93.6182702,224.404047 110.133661,224.404047 C127.861104,224.404047 142.232812,210.040744 142.232812,192.322111 C142.232812,184.084037 139.099858,176.596435 133.993033,170.914951 C119.365828,185.149023 99.8763896,194.350879 78.2448268,195.907876" id="Fill-5" fill="#C9A9D5" transform="translate(110.238820, 197.659499) rotate(90.000000) translate(-110.238820, -197.659499) "></path>
                <path d="M233.5695,120.132047 C233.5695,136.524117 220.272749,149.811535 203.872643,149.811535 C187.472537,149.811535 174.175785,136.524117 174.175785,120.132047 C174.175785,103.739976 187.472537,90.4525583 203.872643,90.4525583 C220.272749,90.4525583 233.5695,103.739976 233.5695,120.132047" id="Fill-9" fill="#B58FC1" transform="translate(203.872643, 120.132047) rotate(90.000000) translate(-203.872643, -120.132047) "></path>
                <path d="M157.5137,84.7205358 C157.5137,96.5101209 147.949698,106.068529 136.153212,106.068529 C124.355169,106.068529 114.792725,96.5101209 114.792725,84.7205358 C114.792725,72.9309507 124.355169,63.372543 136.153212,63.372543 C147.949698,63.372543 157.5137,72.9309507 157.5137,84.7205358" id="Fill-11" fill="#FCE579" transform="translate(136.153212, 84.720536) rotate(90.000000) translate(-136.153212, -84.720536) "></path>
                <path d="M323.528028,73.0118424 C323.528028,108.287178 294.915474,136.882994 259.619491,136.882994 C224.323508,136.882994 195.712511,108.287178 195.712511,73.0118424 C195.712511,37.7365068 224.323508,9.14069044 259.619491,9.14069044 C294.915474,9.14069044 323.528028,37.7365068 323.528028,73.0118424" id="Fill-13" fill="#FCE579" transform="translate(259.620270, 73.011842) rotate(90.000000) translate(-259.620270, -73.011842) "></path>
                <path d="M235.958898,94.7002654 C232.734026,93.5013773 229.245868,92.8427673 225.603478,92.8427673 C209.201814,92.8427673 195.90662,106.130185 195.90662,122.520699 C195.90662,124.424907 196.093569,126.285519 196.436309,128.090079 C213.830361,123.001811 228.153774,110.734227 235.958898,94.7002654" id="Fill-15" fill="#C9A9D5" transform="translate(215.932759, 110.466423) rotate(90.000000) translate(-215.932759, -110.466423) "></path>
                <path d="M68.2291232,131.395841 C68.2291232,125.290854 73.1817151,120.341159 79.2902754,120.341159 C85.3988357,120.341159 90.3514277,125.290854 90.3514277,131.395841 C90.3514277,137.500828 85.3988357,142.450524 79.2902754,142.450524 C73.1817151,142.450524 68.2291232,137.500828 68.2291232,131.395841" id="Fill-17" fill="#C9A9D5" transform="translate(79.290275, 131.395841) rotate(90.000000) translate(-79.290275, -131.395841) "></path>
                <path d="M156.459756,8.99119789 C156.459756,4.06485742 160.455792,0.0711585242 165.385015,0.0711585242 C170.314238,0.0711585242 174.310274,4.06485742 174.310274,8.99119789 C174.310274,13.9175384 170.314238,17.9112373 165.385015,17.9112373 C160.455792,17.9112373 156.459756,13.9175384 156.459756,8.99119789" id="Fill-19" fill="#C9A9D5" transform="translate(165.385015, 8.991198) rotate(90.000000) translate(-165.385015, -8.991198) "></path>
            </g>
        </g>
    </g>
</svg>