<?xml version="1.0" encoding="UTF-8" standalone="no"?>
<svg width="1014px" height="441px" viewBox="0 0 1014 441" version="1.1" xmlns="http://www.w3.org/2000/svg" xmlns:xlink="http://www.w3.org/1999/xlink">
    <!-- Generator: Sketch 50 (54983) - http://www.bohemiancoding.com/sketch -->
    <title>bg/background-pattern-h</title>
    <desc>Created with Sketch.</desc>
    <defs></defs>
    <g id="bg/background-pattern-h" stroke="none" stroke-width="1" fill="none" fill-rule="evenodd">
        <g id="Group-2" transform="translate(697.500000, 362.500000) scale(1, -1) translate(-697.500000, -362.500000) translate(383.000000, 286.000000)">
            <path d="M0.205293915,117.374432 C154.205294,180.374432 187.433942,15.474223 335.470785,13.4695963 C483.507628,11.4649696 500.257544,101.383821 538.242033,117.374432 C576.226521,133.365044 612.211825,116.375019 628.205294,82.3949706" id="Path-2" stroke="#B58FC1" stroke-width="2" stroke-linecap="round" stroke-linejoin="round" stroke-dasharray="4,4" transform="translate(314.205294, 72.574507) scale(-1, -1) translate(-314.205294, -72.574507) "></path>
            <path d="M0.205293915,140.479661 C154.205294,203.479661 187.433942,2.5794517 335.470785,0.574825017 C483.507628,-1.42980166 499.278771,116.414247 538.242033,140.479661 C577.205294,164.545076 612.211825,139.480248 628.205294,105.500199" id="Path-2" stroke="#B58FC1" stroke-width="4" stroke-linecap="round" stroke-linejoin="round" transform="translate(314.205294, 76.627121) scale(-1, -1) translate(-314.205294, -76.627121) "></path>
            <circle id="Oval-2-Copy" stroke="#B58FC1" fill="#FFFFFF" transform="translate(479.205294, 40.709166) scale(-1, 1) translate(-479.205294, -40.709166) " cx="479.205294" cy="40.7091664" r="11"></circle>
            <circle id="Oval-2-Copy" fill="#B58FC1" transform="translate(479.205294, 40.709166) scale(-1, 1) translate(-479.205294, -40.709166) " cx="479.205294" cy="40.7091664" r="7"></circle>
        </g>
        <g id="Group-2-Copy" transform="translate(316.500000, 85.000000) scale(1, -1) translate(-316.500000, -85.000000) translate(2.000000, 1.000000)">
            <path d="M0.205293915,122.374432 C154.205294,185.374432 187.433942,20.474223 335.470785,18.4695963 C483.507628,16.4649696 500.257544,106.383821 538.242033,122.374432 C576.226521,138.365044 612.211825,121.375019 628.205294,87.3949706" id="Path-2" stroke="#B58FC1" stroke-width="2" stroke-linecap="round" stroke-linejoin="round" stroke-dasharray="4,4" transform="translate(314.205294, 77.574507) scale(-1, -1) translate(-314.205294, -77.574507) "></path>
            <path d="M0.205293915,145.479661 C154.205294,208.479661 187.433942,7.5794517 335.470785,5.57482502 C483.507628,3.57019834 499.278771,121.414247 538.242033,145.479661 C577.205294,169.545076 612.211825,144.480248 628.205294,110.500199" id="Path-2" stroke="#B58FC1" stroke-width="4" stroke-linecap="round" stroke-linejoin="round" transform="translate(314.205294, 81.627121) scale(-1, -1) translate(-314.205294, -81.627121) "></path>
            <circle id="Oval-2-Copy" stroke="#B58FC1" fill="#FFFFFF" transform="translate(76.205294, 11.709166) scale(-1, 1) translate(-76.205294, -11.709166) " cx="76.2052939" cy="11.7091664" r="11"></circle>
            <circle id="Oval-2-Copy" stroke="#B58FC1" fill="#FFFFFF" transform="translate(309.205294, 156.709166) scale(-1, 1) translate(-309.205294, -156.709166) " cx="309.205294" cy="156.709166" r="11"></circle>
            <circle id="Oval-2-Copy" fill="#B58FC1" transform="translate(309.205294, 156.709166) scale(-1, 1) translate(-309.205294, -156.709166) " cx="309.205294" cy="156.709166" r="7"></circle>
            <circle id="Oval-2-Copy" fill="#B58FC1" transform="translate(76.205294, 11.709166) scale(-1, 1) translate(-76.205294, -11.709166) " cx="76.2052939" cy="11.7091664" r="7"></circle>
        </g>
    </g>
</svg>