<?xml version="1.0" encoding="UTF-8"?>
<svg width="166px" height="197px" viewBox="0 0 166 197" version="1.1" xmlns="http://www.w3.org/2000/svg" xmlns:xlink="http://www.w3.org/1999/xlink">
    <!-- Generator: Sketch 52.3 (67297) - http://www.bohemiancoding.com/sketch -->
    <title>Group 16</title>
    <desc>Created with Sketch.</desc>
    <g id="Backgrounds" stroke="none" stroke-width="1" fill="none" fill-rule="evenodd">
        <g id="bg/background-h" transform="translate(-13.000000, -6.000000)">
            <g id="Group-16">
                <path d="M72.4491525,132.677966 C72.4491525,149.069196 59.1608596,162.355932 42.7711864,162.355932 C26.3815133,162.355932 13.0932203,149.069196 13.0932203,132.677966 C13.0932203,116.286736 26.3815133,103 42.7711864,103 C59.1608596,103 72.4491525,116.286736 72.4491525,132.677966" id="Fill-9" fill="#FCE579" transform="translate(42.771186, 132.677966) rotate(135.000000) translate(-42.771186, -132.677966) "></path>
                <path d="M177.194915,39.7161017 C177.194915,51.5264519 167.619672,61.1016949 155.809322,61.1016949 C143.997412,61.1016949 134.423729,51.5264519 134.423729,39.7161017 C134.423729,27.9057515 143.997412,18.3305085 155.809322,18.3305085 C167.619672,18.3305085 177.194915,27.9057515 177.194915,39.7161017" id="Fill-11" fill="#FCE579" transform="translate(155.809322, 39.716102) rotate(135.000000) translate(-155.809322, -39.716102) "></path>
                <path d="M107.364407,20.0762712 C107.364407,27.789153 101.111187,34.0423729 93.3983051,34.0423729 C85.6844047,34.0423729 79.4322034,27.789153 79.4322034,20.0762712 C79.4322034,12.3633894 85.6844047,6.11016949 93.3983051,6.11016949 C101.111187,6.11016949 107.364407,12.3633894 107.364407,20.0762712" id="Fill-11-Copy" fill="#B58FC1" transform="translate(93.398305, 20.076271) rotate(135.000000) translate(-93.398305, -20.076271) "></path>
                <path d="M178.940678,138.788136 C178.940678,173.980179 150.412035,202.508475 115.219562,202.508475 C80.0270901,202.508475 51.5,173.980179 51.5,138.788136 C51.5,103.596092 80.0270901,75.0677966 115.219562,75.0677966 C150.412035,75.0677966 178.940678,103.596092 178.940678,138.788136" id="Fill-13" fill="#C9A9D5" transform="translate(115.220339, 138.788136) rotate(-270.000000) translate(-115.220339, -138.788136) "></path>
                <path d="M78.559322,118.806101 C75.3263778,117.618507 71.8294879,116.966102 68.177979,116.966102 C51.7352559,116.966102 38.4067797,130.128341 38.4067797,146.364443 C38.4067797,148.250712 38.5941967,150.093796 38.9377947,151.881356 C56.3753899,146.841023 70.73466,134.689009 78.559322,118.806101" id="Fill-15" fill="#C9A9D5" transform="translate(58.483051, 134.423729) rotate(135.000000) translate(-58.483051, -134.423729) "></path>
                <path d="M103.872881,59.3559322 C103.872881,54.5352015 107.780964,50.6271186 112.601695,50.6271186 C117.422426,50.6271186 121.330508,54.5352015 121.330508,59.3559322 C121.330508,64.1766629 117.422426,68.0847458 112.601695,68.0847458 C107.780964,68.0847458 103.872881,64.1766629 103.872881,59.3559322" id="Fill-19" fill="#C9A9D5" transform="translate(112.601695, 59.355932) rotate(135.000000) translate(-112.601695, -59.355932) "></path>
            </g>
        </g>
    </g>
</svg>