<?xml version="1.0" encoding="UTF-8" standalone="no"?>
<svg width="162px" height="174px" viewBox="0 0 162 174" version="1.1" xmlns="http://www.w3.org/2000/svg" xmlns:xlink="http://www.w3.org/1999/xlink">
    <!-- Generator: Sketch 48.2 (47327) - http://www.bohemiancoding.com/sketch -->
    <title>bg/background-pattern-f</title>
    <desc>Created with Sketch.</desc>
    <defs>
        <polygon id="path-1" points="0.707766667 0.666517857 23.3568 0.666517857 23.3568 23.9995536 0.707766667 23.9995536"></polygon>
    </defs>
    <g id="Backgrounds" stroke="none" stroke-width="1" fill="none" fill-rule="evenodd">
        <g id="bg/background-pattern-f">
            <path d="M120.493591,95.2427033 C129.475592,104.224704 129.475592,118.787702 120.493591,127.769703 C111.511591,136.751703 96.9485923,136.751703 87.9665919,127.769703 C78.9845914,118.787702 78.9845914,104.224704 87.9665919,95.2427033 C96.9485923,86.2607028 111.511591,86.2607028 120.493591,95.2427033" id="Fill-1" fill="#B38EC0" transform="translate(104.230092, 111.506203) rotate(-4.000000) translate(-104.230092, -111.506203) "></path>
            <path d="M114.634047,11.4473231 C123.616048,20.4293235 123.616048,34.9923219 114.634047,43.9743224 C105.652047,52.9563229 91.0890485,52.9563229 82.1070481,43.9743224 C73.1250476,34.9923219 73.1250476,20.4293235 82.1070481,11.4473231 C91.0890485,2.46532262 105.652047,2.46532262 114.634047,11.4473231" id="Fill-3" fill="#FDD34E" transform="translate(98.370548, 27.710823) rotate(-4.000000) translate(-98.370548, -27.710823) "></path>
            <path d="M150.866353,59.0812814 C155.35669,63.5713616 155.35669,70.8530008 150.866353,75.3448411 C146.374254,79.8349213 139.093957,79.8349213 134.601859,75.3448411 C130.111521,70.8530008 130.111521,63.5713616 134.601859,59.0812814 C139.093957,54.5894411 146.374254,54.5894411 150.866353,59.0812814" id="Fill-5" fill="#B38EC0" transform="translate(142.734106, 67.212401) rotate(-4.000000) translate(-142.734106, -67.212401) "></path>
            <g id="Group-9" transform="translate(149.092432, 150.972903) rotate(-4.000000) translate(-149.092432, -150.972903) translate(137.092432, 138.472903)">
                <mask id="mask-2" fill="white">
                    <use xlink:href="#path-1"></use>
                </mask>
                <g id="Clip-8"></g>
                <path d="M20.0400667,4.08303571 C24.4635333,8.64017857 24.4635333,16.0258929 20.0400667,20.5830357 C15.6183333,25.1383929 8.44753333,25.1383929 4.02406667,20.5830357 C-0.397666667,16.0258929 -0.397666667,8.64017857 4.02406667,4.08303571 C8.44753333,-0.472321429 15.6183333,-0.472321429 20.0400667,4.08303571" id="Fill-7" fill="#B38EC0" mask="url(#mask-2)"></path>
            </g>
            <path d="M22.1737538,24.975343 C26.6640917,29.4654231 26.6640917,36.7470623 22.1737538,41.2389026 C17.6816557,45.7289828 10.4013588,45.7289828 5.90926065,41.2389026 C1.41892277,36.7470623 1.41892277,29.4654231 5.90926065,24.975343 C10.4013588,20.4835027 17.6816557,20.4835027 22.1737538,24.975343" id="Fill-10" fill="#B38EC0" transform="translate(14.041507, 33.106463) rotate(-4.000000) translate(-14.041507, -33.106463) "></path>
            <path d="M75.6661292,56.2747851 C84.6481296,65.2567855 84.6481296,79.8197839 75.6661292,88.8017844 C66.6841287,97.7837849 52.1211303,97.7837849 43.1391298,88.8017844 C34.1571294,79.8197839 34.1571294,65.2567855 43.1391298,56.2747851 C52.1211303,47.2927846 66.6841287,47.2927846 75.6661292,56.2747851" id="Fill-12" fill="#C8A8CF" transform="translate(59.402630, 72.538285) rotate(-4.000000) translate(-59.402630, -72.538285) "></path>
        </g>
    </g>
</svg>