<?xml version="1.0" encoding="UTF-8" standalone="no"?>
<svg width="695px" height="412px" viewBox="0 0 695 412" version="1.1" xmlns="http://www.w3.org/2000/svg" xmlns:xlink="http://www.w3.org/1999/xlink">
    <!-- Generator: Sketch 49 (51002) - http://www.bohemiancoding.com/sketch -->
    <title>bg/background-pattern-g</title>
    <desc>Created with Sketch.</desc>
    <defs></defs>
    <g id="Segmentacion" stroke="none" stroke-width="1" fill="none" fill-rule="evenodd">
        <g transform="translate(-4.000000, -1806.000000)" id="bg/background-pattern-g">
            <g transform="translate(-8.000000, 1805.000000)">
                <g id="Group-3">
                    <path d="M-15.188276,222.740216 L725.301625,222.740216" id="Line-Copy-3" stroke="#CCCCCC" stroke-linecap="square" stroke-dasharray="6" transform="translate(355.311724, 222.740216) rotate(-17.000000) translate(-355.311724, -222.740216) "></path>
                    <path d="M37.5487634,160.259224 L688.294739,160.259224" id="Line-Copy-3" stroke="#CCCCCC" stroke-linecap="square" stroke-dasharray="6" transform="translate(362.794739, 160.259224) rotate(-17.000000) translate(-362.794739, -160.259224) "></path>
                    <path d="M45.7592133,119.822815 L623.234527,119.822815" id="Line-Copy-3" stroke="#CCCCCC" stroke-linecap="square" stroke-dasharray="6" transform="translate(334.376731, 120.322815) rotate(-17.000000) translate(-334.376731, -120.322815) "></path>
                    <path d="M81.8585113,72.7725471 L566.112997,72.7725471" id="Line-Copy-3" stroke="#CCCCCC" stroke-linecap="square" stroke-dasharray="6" transform="translate(324.021923, 72.772547) rotate(-17.000000) translate(-324.021923, -72.772547) "></path>
                    <circle id="Oval-4" fill="#9B7BA6" transform="translate(610.809638, 83.910615) rotate(-17.000000) translate(-610.809638, -83.910615) " cx="610.809638" cy="83.9106146" r="15.5"></circle>
                    <circle id="Oval-4-Copy" fill="#9B7BA6" transform="translate(584.033104, 92.097022) rotate(-17.000000) translate(-584.033104, -92.097022) " cx="584.033104" cy="92.0970223" r="15.5"></circle>
                    <circle id="Oval-4" fill="#D4BDDB" transform="translate(558.212876, 99.991058) rotate(-17.000000) translate(-558.212876, -99.991058) " cx="558.212876" cy="99.9910584" r="5.5"></circle>
                    <circle id="Oval-4-Copy" fill="#D4BDDB" transform="translate(531.436343, 108.177466) rotate(-17.000000) translate(-531.436343, -108.177466) " cx="531.436343" cy="108.177466" r="5.5"></circle>
                    <circle id="Oval-4" fill="#BC9AC7" transform="translate(504.659810, 116.363874) rotate(-17.000000) translate(-504.659810, -116.363874) " cx="504.65981" cy="116.363874" r="10.5"></circle>
                    <circle id="Oval-4-Copy" fill="#BC9AC7" transform="translate(477.883276, 124.550282) rotate(-17.000000) translate(-477.883276, -124.550282) " cx="477.883276" cy="124.550282" r="10.5"></circle>
                    <circle id="Oval-4" fill="#BC9AC7" transform="translate(452.063048, 132.444318) rotate(-17.000000) translate(-452.063048, -132.444318) " cx="452.063048" cy="132.444318" r="10.5"></circle>
                    <circle id="Oval-4-Copy" fill="#D4BDDB" transform="translate(425.286515, 140.630725) rotate(-17.000000) translate(-425.286515, -140.630725) " cx="425.286515" cy="140.630725" r="5.5"></circle>
                    <circle id="Oval-4" fill="#D4BDDB" transform="translate(399.466286, 148.524761) rotate(-17.000000) translate(-399.466286, -148.524761) " cx="399.466286" cy="148.524761" r="5.5"></circle>
                    <circle id="Oval-4-Copy" fill="#BC9AC7" transform="translate(372.689753, 156.711169) rotate(-17.000000) translate(-372.689753, -156.711169) " cx="372.689753" cy="156.711169" r="10.5"></circle>
                    <circle id="Oval-4" fill="#9B7BA6" transform="translate(345.913220, 164.897577) rotate(-17.000000) translate(-345.913220, -164.897577) " cx="345.91322" cy="164.897577" r="15.5"></circle>
                    <circle id="Oval-4-Copy" fill="#9B7BA6" transform="translate(319.136687, 173.083985) rotate(-17.000000) translate(-319.136687, -173.083985) " cx="319.136687" cy="173.083985" r="15.5"></circle>
                    <circle id="Oval-4" fill="#9B7BA6" transform="translate(293.316459, 180.978021) rotate(-17.000000) translate(-293.316459, -180.978021) " cx="293.316459" cy="180.978021" r="15.5"></circle>
                    <circle id="Oval-4-Copy" fill="#BC9AC7" transform="translate(266.539925, 189.164428) rotate(-17.000000) translate(-266.539925, -189.164428) " cx="266.539925" cy="189.164428" r="10.5"></circle>
                    <circle id="Oval-4" fill="#D4BDDB" transform="translate(240.719697, 197.058464) rotate(-17.000000) translate(-240.719697, -197.058464) " cx="240.719697" cy="197.058464" r="5.5"></circle>
                    <circle id="Oval-4-Copy" fill="#D4BDDB" transform="translate(212.986859, 205.537244) rotate(-17.000000) translate(-212.986859, -205.537244) " cx="212.986859" cy="205.537244" r="5.5"></circle>
                    <circle id="Oval-4" fill="#D4BDDB" transform="translate(187.166631, 213.431280) rotate(-17.000000) translate(-187.166631, -213.431280) " cx="187.166631" cy="213.43128" r="5.5"></circle>
                    <circle id="Oval-4-Copy" fill="#D4BDDB" transform="translate(160.390097, 221.617688) rotate(-17.000000) translate(-160.390097, -221.617688) " cx="160.390097" cy="221.617688" r="5.5"></circle>
                    <circle id="Oval-4" fill="#D4BDDB" transform="translate(134.569869, 229.511724) rotate(-17.000000) translate(-134.569869, -229.511724) " cx="134.569869" cy="229.511724" r="5.5"></circle>
                    <circle id="Oval-4" fill="#D4BDDB" transform="translate(84.016803, 245.884539) rotate(-17.000000) translate(-84.016803, -245.884539) " cx="84.0168027" cy="245.884539" r="5.5"></circle>
                    <circle id="Oval-4" fill="#D4BDDB" transform="translate(61.497578, 313.159983) scale(-1, 1) rotate(-17.000000) translate(-61.497578, -313.159983) " cx="61.4975782" cy="313.159983" r="5.5"></circle>
                    <circle id="Oval-4-Copy" fill="#BC9AC7" transform="translate(89.230416, 304.681203) scale(-1, 1) rotate(-17.000000) translate(-89.230416, -304.681203) " cx="89.2304161" cy="304.681203" r="10.5"></circle>
                    <circle id="Oval-4-Copy" fill="#9B7BA6" transform="translate(121.827178, 293.600760) scale(-1, 1) rotate(-17.000000) translate(-121.827178, -293.600760) " cx="121.827178" cy="293.60076" r="15.5"></circle>
                    <circle id="Oval-4" fill="#D4BDDB" transform="translate(147.647406, 275.706724) scale(-1, 1) rotate(-17.000000) translate(-147.647406, -275.706724) " cx="147.647406" cy="275.706724" r="5.5"></circle>
                    <circle id="Oval-4-Copy" fill="#D4BDDB" transform="translate(174.423939, 267.520316) scale(-1, 1) rotate(-17.000000) translate(-174.423939, -267.520316) " cx="174.423939" cy="267.520316" r="5.5"></circle>
                    <circle id="Oval-4" fill="#BC9AC7" transform="translate(201.200472, 259.333908) scale(-1, 1) rotate(-17.000000) translate(-201.200472, -259.333908) " cx="201.200472" cy="259.333908" r="10.5"></circle>
                    <circle id="Oval-4-Copy" fill="#9B7BA6" transform="translate(227.977006, 251.147500) scale(-1, 1) rotate(-17.000000) translate(-227.977006, -251.147500) " cx="227.977006" cy="251.1475" r="15.5"></circle>
                    <circle id="Oval-4" fill="#BC9AC7" transform="translate(253.797234, 243.253464) scale(-1, 1) rotate(-17.000000) translate(-253.797234, -243.253464) " cx="253.797234" cy="243.253464" r="10.5"></circle>
                    <circle id="Oval-4-Copy" fill="#D4BDDB" transform="translate(280.573767, 235.067057) scale(-1, 1) rotate(-17.000000) translate(-280.573767, -235.067057) " cx="280.573767" cy="235.067057" r="5.5"></circle>
                    <circle id="Oval-4" fill="#D4BDDB" transform="translate(306.393996, 227.173021) scale(-1, 1) rotate(-17.000000) translate(-306.393996, -227.173021) " cx="306.393996" cy="227.173021" r="5.5"></circle>
                    <circle id="Oval-4-Copy" fill="#BC9AC7" transform="translate(333.170529, 218.986613) scale(-1, 1) rotate(-17.000000) translate(-333.170529, -218.986613) " cx="333.170529" cy="218.986613" r="10.5"></circle>
                    <circle id="Oval-4" fill="#BC9AC7" transform="translate(359.947062, 210.800205) scale(-1, 1) rotate(-17.000000) translate(-359.947062, -210.800205) " cx="359.947062" cy="210.800205" r="10.5"></circle>
                    <circle id="Oval-4-Copy" fill="#9B7BA6" transform="translate(386.723595, 202.613797) scale(-1, 1) rotate(-17.000000) translate(-386.723595, -202.613797) " cx="386.723595" cy="202.613797" r="15.5"></circle>
                    <circle id="Oval-4" fill="#9B7BA6" transform="translate(412.543824, 194.719761) scale(-1, 1) rotate(-17.000000) translate(-412.543824, -194.719761) " cx="412.543824" cy="194.719761" r="15.5"></circle>
                    <circle id="Oval-4-Copy" fill="#BC9AC7" transform="translate(439.320357, 186.533354) scale(-1, 1) rotate(-17.000000) translate(-439.320357, -186.533354) " cx="439.320357" cy="186.533354" r="10.5"></circle>
                    <circle id="Oval-4-Copy" fill="#BC9AC7" transform="translate(659.320357, 119.533354) scale(-1, 1) rotate(-17.000000) translate(-659.320357, -119.533354) " cx="659.320357" cy="119.533354" r="10.5"></circle>
                    <circle id="Oval-4" fill="#D4BDDB" transform="translate(465.140585, 178.639318) scale(-1, 1) rotate(-17.000000) translate(-465.140585, -178.639318) " cx="465.140585" cy="178.639318" r="5.5"></circle>
                    <circle id="Oval-4-Copy" fill="#D4BDDB" transform="translate(492.873423, 170.160538) scale(-1, 1) rotate(-17.000000) translate(-492.873423, -170.160538) " cx="492.873423" cy="170.160538" r="5.5"></circle>
                    <circle id="Oval-4" fill="#D4BDDB" transform="translate(518.693651, 162.266502) scale(-1, 1) rotate(-17.000000) translate(-518.693651, -162.266502) " cx="518.693651" cy="162.266502" r="5.5"></circle>
                    <circle id="Oval-4-Copy" fill="#9B7BA6" transform="translate(545.470185, 154.080094) scale(-1, 1) rotate(-17.000000) translate(-545.470185, -154.080094) " cx="545.470185" cy="154.080094" r="15.5"></circle>
                    <circle id="Oval-4" fill="#BC9AC7" transform="translate(571.290413, 146.186058) scale(-1, 1) rotate(-17.000000) translate(-571.290413, -146.186058) " cx="571.290413" cy="146.186058" r="10.5"></circle>
                    <circle id="Oval-4-Copy" fill="#D4BDDB" transform="translate(598.066946, 137.999651) scale(-1, 1) rotate(-17.000000) translate(-598.066946, -137.999651) " cx="598.066946" cy="137.999651" r="5.5"></circle>
                    <circle id="Oval-4" fill="#D4BDDB" transform="translate(624.843479, 129.813243) scale(-1, 1) rotate(-17.000000) translate(-624.843479, -129.813243) " cx="624.843479" cy="129.813243" r="5.5"></circle>
                    <circle id="Oval-4" fill="#D4BDDB" transform="translate(93.429895, 193.354726) scale(-1, 1) rotate(-17.000000) translate(-93.429895, -193.354726) " cx="93.4298946" cy="193.354726" r="5.5"></circle>
                    <circle id="Oval-4-Copy" fill="#BC9AC7" transform="translate(121.162732, 184.875947) scale(-1, 1) rotate(-17.000000) translate(-121.162732, -184.875947) " cx="121.162732" cy="184.875947" r="10.5"></circle>
                    <circle id="Oval-4-Copy" fill="#BC9AC7" transform="translate(110.162732, 236.875947) scale(-1, 1) rotate(-17.000000) translate(-110.162732, -236.875947) " cx="110.162732" cy="236.875947" r="10.5"></circle>
                    <circle id="Oval-4-Copy" fill="#D4BDDB" transform="translate(146.356256, 175.715059) scale(-1, 1) rotate(-17.000000) translate(-146.356256, -175.715059) " cx="146.356256" cy="175.715059" r="5.5"></circle>
                    <circle id="Oval-4" fill="#BC9AC7" transform="translate(173.132789, 167.528652) scale(-1, 1) rotate(-17.000000) translate(-173.132789, -167.528652) " cx="173.132789" cy="167.528652" r="10.5"></circle>
                    <circle id="Oval-4-Copy" fill="#BC9AC7" transform="translate(199.909322, 159.342244) scale(-1, 1) rotate(-17.000000) translate(-199.909322, -159.342244) " cx="199.909322" cy="159.342244" r="10.5"></circle>
                    <circle id="Oval-4" fill="#BC9AC7" transform="translate(225.729550, 151.448208) scale(-1, 1) rotate(-17.000000) translate(-225.729550, -151.448208) " cx="225.72955" cy="151.448208" r="10.5"></circle>
                    <circle id="Oval-4-Copy" fill="#D4BDDB" transform="translate(252.506084, 143.261800) scale(-1, 1) rotate(-17.000000) translate(-252.506084, -143.261800) " cx="252.506084" cy="143.2618" r="5.5"></circle>
                    <circle id="Oval-4" fill="#D4BDDB" transform="translate(278.326312, 135.367764) scale(-1, 1) rotate(-17.000000) translate(-278.326312, -135.367764) " cx="278.326312" cy="135.367764" r="5.5"></circle>
                    <circle id="Oval-4-Copy" fill="#BC9AC7" transform="translate(305.102845, 127.181356) scale(-1, 1) rotate(-17.000000) translate(-305.102845, -127.181356) " cx="305.102845" cy="127.181356" r="10.5"></circle>
                    <circle id="Oval-4" fill="#9B7BA6" transform="translate(331.879378, 118.994949) scale(-1, 1) rotate(-17.000000) translate(-331.879378, -118.994949) " cx="331.879378" cy="118.994949" r="15.5"></circle>
                    <circle id="Oval-4-Copy" fill="#9B7BA6" transform="translate(358.655911, 110.808541) scale(-1, 1) rotate(-17.000000) translate(-358.655911, -110.808541) " cx="358.655911" cy="110.808541" r="15.5"></circle>
                    <circle id="Oval-4" fill="#9B7BA6" transform="translate(384.476140, 102.914505) scale(-1, 1) rotate(-17.000000) translate(-384.476140, -102.914505) " cx="384.47614" cy="102.914505" r="15.5"></circle>
                    <circle id="Oval-4-Copy" fill="#BC9AC7" transform="translate(411.252673, 94.728097) scale(-1, 1) rotate(-17.000000) translate(-411.252673, -94.728097) " cx="411.252673" cy="94.728097" r="10.5"></circle>
                    <circle id="Oval-4" fill="#D4BDDB" transform="translate(437.072901, 86.834061) scale(-1, 1) rotate(-17.000000) translate(-437.072901, -86.834061) " cx="437.072901" cy="86.834061" r="5.5"></circle>
                    <circle id="Oval-4-Copy" fill="#D4BDDB" transform="translate(464.805739, 78.355282) scale(-1, 1) rotate(-17.000000) translate(-464.805739, -78.355282) " cx="464.805739" cy="78.3552816" r="5.5"></circle>
                    <circle id="Oval-4" fill="#D4BDDB" transform="translate(490.625968, 70.461246) scale(-1, 1) rotate(-17.000000) translate(-490.625968, -70.461246) " cx="490.625968" cy="70.4612455" r="5.5"></circle>
                    <circle id="Oval-4-Copy" fill="#D4BDDB" transform="translate(517.402501, 62.274838) scale(-1, 1) rotate(-17.000000) translate(-517.402501, -62.274838) " cx="517.402501" cy="62.2748378" r="5.5"></circle>
                    <circle id="Oval-4" fill="#D4BDDB" transform="translate(578.775796, 45.007986) scale(-1, 1) rotate(-17.000000) translate(-578.775796, -45.007986) " cx="578.775796" cy="45.0079863" r="5.5"></circle>
                    <circle id="Oval-4" fill="#D4BDDB" transform="translate(530.437564, 9.142107) rotate(-17.000000) translate(-530.437564, -9.142107) " cx="530.437564" cy="9.14210655" r="5.5"></circle>
                    <circle id="Oval-4-Copy" fill="#D4BDDB" transform="translate(503.661031, 17.328514) rotate(-17.000000) translate(-503.661031, -17.328514) " cx="503.661031" cy="17.3285143" r="5.5"></circle>
                    <circle id="Oval-4" fill="#BC9AC7" transform="translate(476.884498, 25.514922) rotate(-17.000000) translate(-476.884498, -25.514922) " cx="476.884498" cy="25.514922" r="10.5"></circle>
                    <circle id="Oval-4-Copy" fill="#9B7BA6" transform="translate(450.107964, 33.701330) rotate(-17.000000) translate(-450.107964, -33.701330) " cx="450.107964" cy="33.7013297" r="15.5"></circle>
                    <circle id="Oval-4-Copy-2" fill="#9B7BA6" transform="translate(546.135339, 52.796058) rotate(-17.000000) translate(-546.135339, -52.796058) " cx="546.135339" cy="52.7960584" r="15.5"></circle>
                    <circle id="Oval-4" fill="#BC9AC7" transform="translate(424.287736, 41.595366) rotate(-17.000000) translate(-424.287736, -41.595366) " cx="424.287736" cy="41.5953658" r="10.5"></circle>
                    <circle id="Oval-4-Copy" fill="#D4BDDB" transform="translate(397.511203, 49.781774) rotate(-17.000000) translate(-397.511203, -49.781774) " cx="397.511203" cy="49.7817735" r="5.5"></circle>
                    <circle id="Oval-4" fill="#D4BDDB" transform="translate(371.690975, 57.675810) rotate(-17.000000) translate(-371.690975, -57.675810) " cx="371.690975" cy="57.6758095" r="5.5"></circle>
                    <circle id="Oval-4-Copy" fill="#BC9AC7" transform="translate(344.914441, 65.862217) rotate(-17.000000) translate(-344.914441, -65.862217) " cx="344.914441" cy="65.8622173" r="10.5"></circle>
                    <circle id="Oval-4" fill="#BC9AC7" transform="translate(318.137908, 74.048625) rotate(-17.000000) translate(-318.137908, -74.048625) " cx="318.137908" cy="74.048625" r="10.5"></circle>
                    <circle id="Oval-4-Copy" fill="#9B7BA6" transform="translate(291.361375, 82.235033) rotate(-17.000000) translate(-291.361375, -82.235033) " cx="291.361375" cy="82.2350327" r="15.5"></circle>
                    <circle id="Oval-4" fill="#9B7BA6" transform="translate(265.541147, 90.129069) rotate(-17.000000) translate(-265.541147, -90.129069) " cx="265.541147" cy="90.1290688" r="15.5"></circle>
                    <circle id="Oval-4-Copy" fill="#BC9AC7" transform="translate(238.764613, 98.315476) rotate(-17.000000) translate(-238.764613, -98.315476) " cx="238.764613" cy="98.3154765" r="10.5"></circle>
                    <circle id="Oval-4" fill="#D4BDDB" transform="translate(212.944385, 106.209513) rotate(-17.000000) translate(-212.944385, -106.209513) " cx="212.944385" cy="106.209513" r="5.5"></circle>
                    <circle id="Oval-4-Copy" fill="#D4BDDB" transform="translate(185.211547, 114.688292) rotate(-17.000000) translate(-185.211547, -114.688292) " cx="185.211547" cy="114.688292" r="5.5"></circle>
                    <circle id="Oval-4" fill="#D4BDDB" transform="translate(159.391319, 122.582328) rotate(-17.000000) translate(-159.391319, -122.582328) " cx="159.391319" cy="122.582328" r="5.5"></circle>
                    <circle id="Oval-4-Copy" fill="#9B7BA6" transform="translate(132.614786, 130.768736) rotate(-17.000000) translate(-132.614786, -130.768736) " cx="132.614786" cy="130.768736" r="15.5"></circle>
                    <path d="M56.959285,253.740776 L707.705261,253.740776" id="Line-Copy-3" stroke="#CCCCCC" stroke-linecap="square" stroke-dasharray="6" transform="translate(382.205261, 253.740776) rotate(163.000000) translate(-382.205261, -253.740776) "></path>
                    <path d="M122.005751,293.177185 L699.481065,293.177185" id="Line-Copy-3" stroke="#CCCCCC" stroke-linecap="square" stroke-dasharray="6" transform="translate(410.623269, 293.677185) rotate(163.000000) translate(-410.623269, -293.677185) "></path>
                    <path d="M178.814666,341.227453 L663.069152,341.227453" id="Line-Copy-3" stroke="#CCCCCC" stroke-linecap="square" stroke-dasharray="6" transform="translate(420.978077, 341.227453) rotate(163.000000) translate(-420.978077, -341.227453) "></path>
                    <circle id="Oval-4" fill="#9B7BA6" transform="translate(134.190362, 330.089385) rotate(163.000000) translate(-134.190362, -330.089385) " cx="134.190362" cy="330.089385" r="15.5"></circle>
                    <circle id="Oval-4-Copy" fill="#9B7BA6" transform="translate(160.966896, 321.902978) rotate(163.000000) translate(-160.966896, -321.902978) " cx="160.966896" cy="321.902978" r="15.5"></circle>
                    <circle id="Oval-4" fill="#D4BDDB" transform="translate(186.787124, 314.008942) rotate(163.000000) translate(-186.787124, -314.008942) " cx="186.787124" cy="314.008942" r="5.5"></circle>
                    <circle id="Oval-4-Copy" fill="#D4BDDB" transform="translate(213.563657, 305.822534) rotate(163.000000) translate(-213.563657, -305.822534) " cx="213.563657" cy="305.822534" r="5.5"></circle>
                    <circle id="Oval-4" fill="#BC9AC7" transform="translate(240.340190, 297.636126) rotate(163.000000) translate(-240.340190, -297.636126) " cx="240.34019" cy="297.636126" r="10.5"></circle>
                    <circle id="Oval-4-Copy" fill="#BC9AC7" transform="translate(267.116724, 289.449718) rotate(163.000000) translate(-267.116724, -289.449718) " cx="267.116724" cy="289.449718" r="10.5"></circle>
                    <circle id="Oval-4" fill="#BC9AC7" transform="translate(292.936952, 281.555682) rotate(163.000000) translate(-292.936952, -281.555682) " cx="292.936952" cy="281.555682" r="10.5"></circle>
                    <circle id="Oval-4-Copy" fill="#D4BDDB" transform="translate(319.713485, 273.369275) rotate(163.000000) translate(-319.713485, -273.369275) " cx="319.713485" cy="273.369275" r="5.5"></circle>
                    <circle id="Oval-4" fill="#D4BDDB" transform="translate(345.533714, 265.475239) rotate(163.000000) translate(-345.533714, -265.475239) " cx="345.533714" cy="265.475239" r="5.5"></circle>
                    <circle id="Oval-4-Copy" fill="#BC9AC7" transform="translate(372.310247, 257.288831) rotate(163.000000) translate(-372.310247, -257.288831) " cx="372.310247" cy="257.288831" r="10.5"></circle>
                    <circle id="Oval-4" fill="#9B7BA6" transform="translate(399.086780, 249.102423) rotate(163.000000) translate(-399.086780, -249.102423) " cx="399.08678" cy="249.102423" r="15.5"></circle>
                    <circle id="Oval-4-Copy" fill="#9B7BA6" transform="translate(425.863313, 240.916015) rotate(163.000000) translate(-425.863313, -240.916015) " cx="425.863313" cy="240.916015" r="15.5"></circle>
                    <circle id="Oval-4" fill="#9B7BA6" transform="translate(451.683541, 233.021979) rotate(163.000000) translate(-451.683541, -233.021979) " cx="451.683541" cy="233.021979" r="15.5"></circle>
                    <circle id="Oval-4-Copy" fill="#BC9AC7" transform="translate(478.460075, 224.835572) rotate(163.000000) translate(-478.460075, -224.835572) " cx="478.460075" cy="224.835572" r="10.5"></circle>
                    <circle id="Oval-4" fill="#D4BDDB" transform="translate(504.280303, 216.941536) rotate(163.000000) translate(-504.280303, -216.941536) " cx="504.280303" cy="216.941536" r="5.5"></circle>
                    <circle id="Oval-4-Copy" fill="#D4BDDB" transform="translate(532.013141, 208.462756) rotate(163.000000) translate(-532.013141, -208.462756) " cx="532.013141" cy="208.462756" r="5.5"></circle>
                    <circle id="Oval-4" fill="#D4BDDB" transform="translate(557.833369, 200.568720) rotate(163.000000) translate(-557.833369, -200.568720) " cx="557.833369" cy="200.56872" r="5.5"></circle>
                    <circle id="Oval-4-Copy" fill="#D4BDDB" transform="translate(584.609903, 192.382312) rotate(163.000000) translate(-584.609903, -192.382312) " cx="584.609903" cy="192.382312" r="5.5"></circle>
                    <circle id="Oval-4" fill="#D4BDDB" transform="translate(610.430131, 184.488276) rotate(163.000000) translate(-610.430131, -184.488276) " cx="610.430131" cy="184.488276" r="5.5"></circle>
                    <circle id="Oval-4" fill="#D4BDDB" transform="translate(660.983197, 168.115461) rotate(163.000000) translate(-660.983197, -168.115461) " cx="660.983197" cy="168.115461" r="5.5"></circle>
                    <circle id="Oval-4" fill="#D4BDDB" transform="translate(651.570105, 220.645274) scale(-1, 1) rotate(163.000000) translate(-651.570105, -220.645274) " cx="651.570105" cy="220.645274" r="5.5"></circle>
                    <circle id="Oval-4-Copy" fill="#BC9AC7" transform="translate(623.837268, 229.124053) scale(-1, 1) rotate(163.000000) translate(-623.837268, -229.124053) " cx="623.837268" cy="229.124053" r="10.5"></circle>
                    <circle id="Oval-4-Copy" fill="#BC9AC7" transform="translate(634.837268, 177.124053) scale(-1, 1) rotate(163.000000) translate(-634.837268, -177.124053) " cx="634.837268" cy="177.124053" r="10.5"></circle>
                    <circle id="Oval-4-Copy" fill="#D4BDDB" transform="translate(598.643744, 238.284941) scale(-1, 1) rotate(163.000000) translate(-598.643744, -238.284941) " cx="598.643744" cy="238.284941" r="5.5"></circle>
                    <circle id="Oval-4" fill="#BC9AC7" transform="translate(571.867211, 246.471348) scale(-1, 1) rotate(163.000000) translate(-571.867211, -246.471348) " cx="571.867211" cy="246.471348" r="10.5"></circle>
                    <circle id="Oval-4-Copy" fill="#BC9AC7" transform="translate(545.090678, 254.657756) scale(-1, 1) rotate(163.000000) translate(-545.090678, -254.657756) " cx="545.090678" cy="254.657756" r="10.5"></circle>
                    <circle id="Oval-4" fill="#BC9AC7" transform="translate(519.270450, 262.551792) scale(-1, 1) rotate(163.000000) translate(-519.270450, -262.551792) " cx="519.27045" cy="262.551792" r="10.5"></circle>
                    <circle id="Oval-4-Copy" fill="#D4BDDB" transform="translate(492.493916, 270.738200) scale(-1, 1) rotate(163.000000) translate(-492.493916, -270.738200) " cx="492.493916" cy="270.7382" r="5.5"></circle>
                    <circle id="Oval-4" fill="#D4BDDB" transform="translate(466.673688, 278.632236) scale(-1, 1) rotate(163.000000) translate(-466.673688, -278.632236) " cx="466.673688" cy="278.632236" r="5.5"></circle>
                    <circle id="Oval-4-Copy" fill="#BC9AC7" transform="translate(439.897155, 286.818644) scale(-1, 1) rotate(163.000000) translate(-439.897155, -286.818644) " cx="439.897155" cy="286.818644" r="10.5"></circle>
                    <circle id="Oval-4" fill="#9B7BA6" transform="translate(413.120622, 295.005051) scale(-1, 1) rotate(163.000000) translate(-413.120622, -295.005051) " cx="413.120622" cy="295.005051" r="15.5"></circle>
                    <circle id="Oval-4-Copy" fill="#9B7BA6" transform="translate(386.344089, 303.191459) scale(-1, 1) rotate(163.000000) translate(-386.344089, -303.191459) " cx="386.344089" cy="303.191459" r="15.5"></circle>
                    <circle id="Oval-4" fill="#9B7BA6" transform="translate(360.523860, 311.085495) scale(-1, 1) rotate(163.000000) translate(-360.523860, -311.085495) " cx="360.52386" cy="311.085495" r="15.5"></circle>
                    <circle id="Oval-4-Copy" fill="#BC9AC7" transform="translate(333.747327, 319.271903) scale(-1, 1) rotate(163.000000) translate(-333.747327, -319.271903) " cx="333.747327" cy="319.271903" r="10.5"></circle>
                    <circle id="Oval-4" fill="#D4BDDB" transform="translate(307.927099, 327.165939) scale(-1, 1) rotate(163.000000) translate(-307.927099, -327.165939) " cx="307.927099" cy="327.165939" r="5.5"></circle>
                    <circle id="Oval-4-Copy" fill="#D4BDDB" transform="translate(280.194261, 335.644718) scale(-1, 1) rotate(163.000000) translate(-280.194261, -335.644718) " cx="280.194261" cy="335.644718" r="5.5"></circle>
                    <circle id="Oval-4" fill="#D4BDDB" transform="translate(254.374032, 343.538754) scale(-1, 1) rotate(163.000000) translate(-254.374032, -343.538754) " cx="254.374032" cy="343.538754" r="5.5"></circle>
                    <circle id="Oval-4-Copy" fill="#D4BDDB" transform="translate(227.597499, 351.725162) scale(-1, 1) rotate(163.000000) translate(-227.597499, -351.725162) " cx="227.597499" cy="351.725162" r="5.5"></circle>
                    <circle id="Oval-4" fill="#D4BDDB" transform="translate(166.224204, 368.992014) scale(-1, 1) rotate(163.000000) translate(-166.224204, -368.992014) " cx="166.224204" cy="368.992014" r="5.5"></circle>
                    <circle id="Oval-4" fill="#D4BDDB" transform="translate(214.562436, 404.857893) rotate(163.000000) translate(-214.562436, -404.857893) " cx="214.562436" cy="404.857893" r="5.5"></circle>
                    <circle id="Oval-4-Copy" fill="#D4BDDB" transform="translate(241.338969, 396.671486) rotate(163.000000) translate(-241.338969, -396.671486) " cx="241.338969" cy="396.671486" r="5.5"></circle>
                    <circle id="Oval-4" fill="#BC9AC7" transform="translate(268.115502, 388.485078) rotate(163.000000) translate(-268.115502, -388.485078) " cx="268.115502" cy="388.485078" r="10.5"></circle>
                    <circle id="Oval-4-Copy" fill="#9B7BA6" transform="translate(294.892036, 380.298670) rotate(163.000000) translate(-294.892036, -380.298670) " cx="294.892036" cy="380.29867" r="15.5"></circle>
                    <circle id="Oval-4-Copy-2" fill="#9B7BA6" transform="translate(198.864661, 361.203942) rotate(163.000000) translate(-198.864661, -361.203942) " cx="198.864661" cy="361.203942" r="15.5"></circle>
                    <circle id="Oval-4" fill="#BC9AC7" transform="translate(320.712264, 372.404634) rotate(163.000000) translate(-320.712264, -372.404634) " cx="320.712264" cy="372.404634" r="10.5"></circle>
                    <circle id="Oval-4-Copy" fill="#D4BDDB" transform="translate(347.488797, 364.218226) rotate(163.000000) translate(-347.488797, -364.218226) " cx="347.488797" cy="364.218226" r="5.5"></circle>
                    <circle id="Oval-4" fill="#D4BDDB" transform="translate(373.309025, 356.324190) rotate(163.000000) translate(-373.309025, -356.324190) " cx="373.309025" cy="356.32419" r="5.5"></circle>
                    <circle id="Oval-4-Copy" fill="#BC9AC7" transform="translate(400.085559, 348.137783) rotate(163.000000) translate(-400.085559, -348.137783) " cx="400.085559" cy="348.137783" r="10.5"></circle>
                    <circle id="Oval-4" fill="#BC9AC7" transform="translate(426.862092, 339.951375) rotate(163.000000) translate(-426.862092, -339.951375) " cx="426.862092" cy="339.951375" r="10.5"></circle>
                    <circle id="Oval-4-Copy" fill="#9B7BA6" transform="translate(453.638625, 331.764967) rotate(163.000000) translate(-453.638625, -331.764967) " cx="453.638625" cy="331.764967" r="15.5"></circle>
                    <circle id="Oval-4" fill="#9B7BA6" transform="translate(479.458853, 323.870931) rotate(163.000000) translate(-479.458853, -323.870931) " cx="479.458853" cy="323.870931" r="15.5"></circle>
                    <circle id="Oval-4-Copy" fill="#BC9AC7" transform="translate(506.235387, 315.684524) rotate(163.000000) translate(-506.235387, -315.684524) " cx="506.235387" cy="315.684524" r="10.5"></circle>
                    <circle id="Oval-4" fill="#D4BDDB" transform="translate(532.055615, 307.790487) rotate(163.000000) translate(-532.055615, -307.790487) " cx="532.055615" cy="307.790487" r="5.5"></circle>
                    <circle id="Oval-4-Copy" fill="#D4BDDB" transform="translate(559.788453, 299.311708) rotate(163.000000) translate(-559.788453, -299.311708) " cx="559.788453" cy="299.311708" r="5.5"></circle>
                    <circle id="Oval-4" fill="#D4BDDB" transform="translate(585.608681, 291.417672) rotate(163.000000) translate(-585.608681, -291.417672) " cx="585.608681" cy="291.417672" r="5.5"></circle>
                    <circle id="Oval-4-Copy" fill="#9B7BA6" transform="translate(612.385214, 283.231264) rotate(163.000000) translate(-612.385214, -283.231264) " cx="612.385214" cy="283.231264" r="15.5"></circle>
                </g>
            </g>
        </g>
    </g>
</svg>