<svg width="116" height="18" viewBox="0 0 116 18" fill="none" xmlns="http://www.w3.org/2000/svg">
<rect width="116" height="18" rx="2" fill="#FFC3BF"/>
<path d="M12.8217 12V10.875H10.2837V5.997H8.99674V12H12.8217ZM15.1856 12V5.997H13.9076V12H15.1856ZM18.7443 12.108C20.3553 12.108 21.1473 11.28 21.1473 10.182C21.1473 7.941 17.7003 8.58 17.7003 7.635C17.7003 7.275 18.0063 7.041 18.5463 7.041C19.1583 7.041 19.8063 7.248 20.2923 7.698L21.0033 6.744C20.4093 6.195 19.6173 5.907 18.6633 5.907C17.2503 5.907 16.3863 6.735 16.3863 7.734C16.3863 9.993 19.8423 9.264 19.8423 10.308C19.8423 10.659 19.5093 10.974 18.7983 10.974C17.9703 10.974 17.3133 10.596 16.8903 10.155L16.1883 11.154C16.7553 11.721 17.5833 12.108 18.7443 12.108ZM24.7825 12V7.122H26.5285V5.997H21.7405V7.122H23.4955V12H24.7825ZM32.5907 12L30.2777 5.997H28.6757L26.3627 12H27.8117L28.1897 10.983H30.7637L31.1417 12H32.5907ZM30.4127 9.858H28.5407L29.4767 7.275L30.4127 9.858ZM39.1646 12C40.3166 12 40.9106 11.28 40.9106 10.371C40.9106 9.624 40.4066 9.003 39.7586 8.904C40.3256 8.787 40.7936 8.274 40.7936 7.527C40.7936 6.726 40.2086 5.997 39.0656 5.997H35.9066V12H39.1646ZM38.7866 8.382H37.1846V7.122H38.7866C39.2186 7.122 39.4886 7.383 39.4886 7.752C39.4886 8.139 39.2186 8.382 38.7866 8.382ZM38.8406 10.875H37.1846V9.507H38.8406C39.3356 9.507 39.6056 9.813 39.6056 10.191C39.6056 10.623 39.3176 10.875 38.8406 10.875ZM45.8704 12V10.875H43.3324V5.997H42.0454V12H45.8704ZM49.5631 12.108C51.3721 12.108 52.6951 10.812 52.6951 9.003C52.6951 7.194 51.3721 5.898 49.5631 5.898C47.7451 5.898 46.4221 7.194 46.4221 9.003C46.4221 10.812 47.7451 12.108 49.5631 12.108ZM49.5631 10.974C48.4471 10.974 47.7361 10.119 47.7361 9.003C47.7361 7.878 48.4471 7.032 49.5631 7.032C50.6701 7.032 51.3811 7.878 51.3811 9.003C51.3811 10.119 50.6701 10.974 49.5631 10.974ZM56.67 12.108C57.183 12.108 57.669 12 58.083 11.811L58.569 12.369L59.46 11.64L59.019 11.127C59.505 10.587 59.802 9.849 59.802 9.003C59.802 7.194 58.479 5.898 56.67 5.898C54.852 5.898 53.5289 7.194 53.5289 9.003C53.5289 10.812 54.852 12.108 56.67 12.108ZM56.67 10.974C55.554 10.974 54.843 10.119 54.843 9.003C54.843 7.878 55.554 7.032 56.67 7.032C57.777 7.032 58.488 7.878 58.488 9.003C58.488 9.435 58.38 9.831 58.1819 10.146L57.525 9.372L56.634 10.101L57.291 10.875C57.102 10.938 56.895 10.974 56.67 10.974ZM63.6328 12.108C65.4598 12.108 66.3418 11.082 66.3418 9.597V5.997H65.0368V9.561C65.0368 10.398 64.5598 10.974 63.6328 10.974C62.7058 10.974 62.2198 10.398 62.2198 9.561V5.997H60.9238V9.597C60.9238 11.082 61.8058 12.108 63.6328 12.108ZM72.0062 12V10.875H69.0362V9.507H71.9432V8.382H69.0362V7.122H72.0062V5.997H67.7582V12H72.0062ZM78.8282 12L76.5152 5.997H74.9132L72.6002 12H74.0492L74.4272 10.983H77.0012L77.3792 12H78.8282ZM76.6502 9.858H74.7782L75.7142 7.275L76.6502 9.858ZM81.9836 12C83.8556 12 85.1606 10.812 85.1606 8.994C85.1606 7.194 83.8556 5.997 81.9746 5.997H79.6076V12H81.9836ZM81.9746 10.875H80.8856V7.122H81.9836C83.2076 7.122 83.8556 7.941 83.8556 8.994C83.8556 10.02 83.1626 10.875 81.9746 10.875ZM91.5829 12L89.2699 5.997H87.6679L85.3549 12H86.8039L87.1819 10.983H89.7559L90.1339 12H91.5829ZM89.4049 9.858H87.5329L88.4689 7.275L89.4049 9.858Z" fill="#E34F45"/>
<path d="M98 0H114C115.105 0 116 0.895431 116 2V16C116 17.1046 115.105 18 114 18H98V0Z" fill="#E34F45"/>
<path fill-rule="evenodd" clip-rule="evenodd" d="M107 14C104.239 14 102 11.7614 102 9C102 6.23858 104.239 4 107 4C109.761 4 112 6.23858 112 9C112 11.7614 109.761 14 107 14ZM107 12.75C109.071 12.75 110.75 11.0711 110.75 9C110.75 8.18973 110.493 7.43949 110.056 6.82632L104.83 12.0586C105.442 12.494 106.191 12.75 107 12.75ZM103.945 11.1755C103.507 10.562 103.25 9.81107 103.25 9C103.25 6.92893 104.929 5.25 107 5.25C107.81 5.25 108.559 5.50651 109.172 5.94268L103.945 11.1755Z" fill="white"/>
</svg>
