<svg width="18" height="18" viewBox="0 0 18 18" fill="none" xmlns="http://www.w3.org/2000/svg">
<rect width="18" height="18" rx="2" fill="#E34F45"/>
<path fill-rule="evenodd" clip-rule="evenodd" d="M9 14C6.23858 14 4 11.7614 4 9C4 6.23858 6.23858 4 9 4C11.7614 4 14 6.23858 14 9C14 11.7614 11.7614 14 9 14ZM9 12.75C11.0711 12.75 12.75 11.0711 12.75 9C12.75 8.18973 12.493 7.43949 12.0561 6.82632L6.82984 12.0586C7.44235 12.494 8.19128 12.75 9 12.75ZM5.94518 11.1755C5.50749 10.562 5.25 9.81107 5.25 9C5.25 6.92893 6.92893 5.25 9 5.25C9.80952 5.25 10.5591 5.50651 11.172 5.94268L5.94518 11.1755Z" fill="white"/>
</svg>
