<svg width="48" height="49" viewBox="0 0 48 49" fill="none" xmlns="http://www.w3.org/2000/svg">
<path d="M18.1993 22.5627L22.9552 44.7963C23.0676 45.3272 23.3408 45.8105 23.7377 46.1805C24.1345 46.5506 24.6358 46.7893 25.1732 46.8643C25.7082 46.9389 26.2534 46.8493 26.7365 46.6076C27.2196 46.3659 27.618 45.9833 27.8792 45.5103L30.6611 40.3984L38.367 48.1043C38.8665 48.6011 39.5424 48.88 40.247 48.88C40.9515 48.88 41.6274 48.6011 42.1269 48.1043L46.9269 43.3044C47.4237 42.8048 47.7026 42.1289 47.7026 41.4244C47.7026 40.7198 47.4237 40.0439 46.9269 39.5444L39.199 31.8465L44.2929 29.0845C44.768 28.8245 45.1522 28.4256 45.3941 27.9411C45.6361 27.4565 45.7241 26.9096 45.6464 26.3736C45.5687 25.8377 45.329 25.3383 44.9595 24.9424C44.59 24.5465 44.1083 24.273 43.5789 24.1586L21.3432 19.4047C20.9141 19.3394 20.4757 19.3762 20.0635 19.5121C19.6513 19.6479 19.2769 19.879 18.9706 20.1866C18.6644 20.4942 18.435 20.8696 18.301 21.2824C18.167 21.6952 18.1321 22.1339 18.1993 22.5627Z" fill="#C9A9D5"/>
<path d="M20.8828 11.1027C21.1569 11.103 21.4284 11.0492 21.6817 10.9445C21.935 10.8398 22.1652 10.6862 22.3591 10.4925C22.5531 10.2988 22.7069 10.0687 22.8118 9.81549C22.9168 9.56227 22.9708 9.29083 22.9708 9.01673V2.96683C22.9708 2.41333 22.7509 1.88252 22.3596 1.49114C21.9682 1.09976 21.4373 0.879883 20.8838 0.879883C20.3303 0.879883 19.7995 1.09976 19.4081 1.49114C19.0168 1.88252 18.7969 2.41333 18.7969 2.96683V9.01673C18.7966 9.29074 18.8504 9.5621 18.9551 9.8153C19.0599 10.0685 19.2135 10.2986 19.4072 10.4924C19.601 10.6861 19.8311 10.8397 20.0843 10.9444C20.3375 11.0492 20.6088 11.103 20.8828 11.1027Z" fill="#C9A9D5"/>
<path d="M13.3493 11.2726L9.07139 6.99474C8.87756 6.80105 8.64748 6.64738 8.39428 6.5426C8.14108 6.43782 7.86973 6.38394 7.5957 6.38403C7.32168 6.38413 7.05035 6.4382 6.79722 6.54315C6.5441 6.6481 6.31413 6.80189 6.12043 6.99572C5.92673 7.18955 5.77311 7.41963 5.66833 7.67283C5.56356 7.92603 5.50967 8.19738 5.50977 8.47141C5.50986 8.74543 5.56392 9.01673 5.66887 9.26986C5.77382 9.52298 5.92759 9.75297 6.12142 9.94667L10.3994 14.2226C10.7913 14.6101 11.3207 14.8267 11.8718 14.8251C12.423 14.8235 12.9511 14.6038 13.3408 14.2141C13.7305 13.8244 13.9502 13.2963 13.9518 12.7451C13.9534 12.194 13.7368 11.6646 13.3493 11.2726Z" fill="#C9A9D5"/>
<path d="M9.73748e-07 21.7587C-0.000262116 22.0327 0.053511 22.304 0.158248 22.5572C0.262984 22.8104 0.416622 23.0405 0.610374 23.2343C0.804127 23.428 1.0342 23.5816 1.2874 23.6864C1.5406 23.7911 1.81196 23.8449 2.08597 23.8446H8.13589C8.6782 23.8278 9.19268 23.6006 9.57036 23.211C9.94804 22.8215 10.1592 22.3003 10.1592 21.7577C10.1592 21.2151 9.94804 20.6938 9.57036 20.3043C9.19268 19.9147 8.6782 19.6875 8.13589 19.6707H2.09397C1.81919 19.6696 1.54692 19.7229 1.29278 19.8273C1.03865 19.9318 0.807665 20.0855 0.61309 20.2795C0.418516 20.4736 0.264177 20.7041 0.158965 20.9579C0.0537529 21.2118 -0.000264495 21.4839 9.73748e-07 21.7587Z" fill="#C9A9D5"/>
<path d="M10.3994 29.2905L6.12142 33.5684C5.72997 33.9596 5.50995 34.4903 5.50977 35.0437C5.50958 35.5971 5.72924 36.1279 6.12043 36.5194C6.51162 36.9108 7.04229 37.1309 7.5957 37.131C8.14912 37.1312 8.67994 36.9116 9.07139 36.5204L13.3493 32.2424C13.7408 31.8513 13.9608 31.3206 13.961 30.7672C13.9612 30.2138 13.7415 29.6829 13.3503 29.2915C12.9591 28.9 12.4285 28.68 11.875 28.6798C11.3216 28.6796 10.7908 28.8993 10.3994 29.2905Z" fill="#C9A9D5"/>
<path d="M31.3688 14.2226L35.6447 9.94667C36.0362 9.55548 36.2562 9.02482 36.2564 8.47141C36.2566 7.91799 36.0369 7.38717 35.6458 6.99572C35.2546 6.60427 34.7239 6.38422 34.1705 6.38403C33.6171 6.38385 33.0862 6.60355 32.6948 6.99474L28.4189 11.2726C28.0314 11.6646 27.8148 12.194 27.8164 12.7451C27.818 13.2963 28.0377 13.8244 28.4274 14.2141C28.8171 14.6038 29.3452 14.8235 29.8963 14.8251C30.4475 14.8267 30.9768 14.6101 31.3688 14.2226Z" fill="#C9A9D5"/>
</svg>
