<svg width="31" height="23" viewBox="0 0 31 23" fill="none" xmlns="http://www.w3.org/2000/svg">
<path d="M29.9289 13.0847L27.9537 3.25863C27.851 2.73533 27.6457 2.23757 27.3495 1.79412C27.0533 1.35067 26.6722 0.970314 26.2281 0.675047C25.784 0.37978 25.2859 0.175456 24.7623 0.0738811C24.2388 -0.0276935 23.7004 -0.0245015 23.1781 0.0832711L8.25145 3.07111C7.19763 3.28429 6.27142 3.90685 5.67611 4.80216C5.08079 5.69748 4.865 6.7924 5.07608 7.84664L7.05131 17.6728C7.26588 18.7266 7.88818 19.6529 8.78265 20.25C9.67712 20.8471 10.7713 21.0666 11.8269 20.8606L26.741 17.8603C27.7965 17.6487 28.7249 17.0271 29.3226 16.1318C29.9202 15.2365 30.1383 14.1406 29.9289 13.0847ZM18.3026 10.7595C18.2287 10.8729 18.133 10.9705 18.021 11.0465C17.909 11.1225 17.783 11.1754 17.6503 11.2022C17.5176 11.229 17.3809 11.229 17.2482 11.2024C17.1155 11.1757 16.9895 11.1229 16.8774 11.047L8.81401 5.50888L23.6032 2.54605L18.3026 10.7595Z" fill="#333333"/>
<path d="M0.050444 11.9871C0.00426419 11.8295 -0.0104137 11.6643 0.00725681 11.501C0.0249273 11.3378 0.0745855 11.1796 0.153414 11.0355C0.232243 10.8914 0.338697 10.7643 0.466674 10.6614C0.594652 10.5584 0.741661 10.4817 0.899291 10.4356L2.54573 9.95435C2.70384 9.90609 2.86995 9.88968 3.03445 9.90605C3.19894 9.92242 3.35855 9.97125 3.50405 10.0497C3.64955 10.1282 3.77804 10.2347 3.88209 10.3632C3.98614 10.4917 4.06368 10.6395 4.11022 10.7981C4.15675 10.9567 4.17137 11.123 4.15321 11.2873C4.13506 11.4516 4.0845 11.6107 4.00446 11.7554C3.92442 11.9 3.81649 12.0273 3.68691 12.13C3.55733 12.2326 3.40866 12.3086 3.24954 12.3534L1.60187 12.8347C1.28374 12.928 0.941564 12.8911 0.650621 12.7322C0.359677 12.5732 0.143795 12.3052 0.050444 11.9871Z" fill="#333333"/>
<path d="M0.0510833 17.1476C-0.0418009 16.8295 -0.00456605 16.4875 0.154607 16.1968C0.31378 15.9061 0.581865 15.6905 0.89993 15.5974L2.54637 15.1149C2.70448 15.0666 2.87059 15.0502 3.03508 15.0666C3.19958 15.0829 3.35919 15.1318 3.50469 15.2102C3.65019 15.2887 3.77868 15.3953 3.88273 15.5237C3.98678 15.6522 4.06432 15.8 4.11085 15.9586C4.15739 16.1173 4.172 16.2835 4.15385 16.4478C4.1357 16.6122 4.08514 16.7712 4.0051 16.9159C3.92506 17.0605 3.81713 17.1878 3.68755 17.2905C3.55797 17.3931 3.4093 17.4691 3.25018 17.5139L1.6025 17.9952C1.28437 18.0885 0.942203 18.0516 0.65126 17.8927C0.360317 17.7337 0.144434 17.4657 0.0510833 17.1476Z" fill="#333333"/>
<path d="M1.61879 21.8257C1.57261 21.6681 1.55795 21.5029 1.57562 21.3396C1.59329 21.1764 1.64295 21.0182 1.72178 20.8741C1.80061 20.73 1.90706 20.6029 2.03504 20.5C2.16301 20.397 2.31001 20.3203 2.46763 20.2743L4.66164 19.6329C4.97993 19.5396 5.32227 19.5765 5.61334 19.7356C5.90441 19.8947 6.12035 20.1629 6.21369 20.4811C6.30702 20.7994 6.2701 21.1418 6.11102 21.4328C5.95195 21.7239 5.68377 21.9399 5.36547 22.0332L3.17023 22.6745C3.01262 22.7207 2.84746 22.7354 2.68418 22.7177C2.5209 22.7 2.36271 22.6504 2.21864 22.5715C2.07457 22.4927 1.94743 22.3863 1.84451 22.2583C1.74159 22.1303 1.66488 21.9833 1.61879 21.8257Z" fill="#333333"/>
</svg>
