<svg width="49" height="37" viewBox="0 0 49 37" fill="none" xmlns="http://www.w3.org/2000/svg">
<path d="M47.887 20.9356L44.7266 5.2138C44.5624 4.37653 44.2338 3.58012 43.76 2.87059C43.2861 2.16107 42.6762 1.5525 41.9657 1.08008C41.2552 0.607648 40.4581 0.280729 39.6205 0.11821C38.7829 -0.0443096 37.9214 -0.0392024 37.0858 0.133234L13.2031 4.91377C11.517 5.25486 10.0351 6.25096 9.08255 7.68346C8.13005 9.11596 7.78478 10.8678 8.12251 12.5546L11.2829 28.2764C11.6262 29.9625 12.6219 31.4447 14.053 32.4C15.4842 33.3554 17.2349 33.7065 18.9237 33.377L42.7864 28.5764C44.4752 28.2379 45.9607 27.2433 46.9169 25.8108C47.8732 24.3784 48.222 22.625 47.887 20.9356ZM29.2849 17.2152C29.1667 17.3966 29.0136 17.5527 28.8344 17.6743C28.6552 17.796 28.4536 17.8807 28.2413 17.9235C28.029 17.9663 27.8103 17.9664 27.598 17.9238C27.3857 17.8812 27.1839 17.7967 27.0046 17.6752L14.1032 8.81421L37.7659 4.07368L29.2849 17.2152Z" fill="#CCCCCC"/>
<path d="M0.0807105 19.1793C0.00682271 18.9272 -0.0166619 18.6629 0.0116109 18.4017C0.0398837 18.1404 0.119337 17.8873 0.245463 17.6568C0.371589 17.4263 0.541915 17.2229 0.746679 17.0582C0.951443 16.8935 1.18666 16.7708 1.43886 16.697L4.07316 15.927C4.32614 15.8497 4.59191 15.8235 4.85511 15.8497C5.11831 15.8759 5.37368 15.954 5.60648 16.0796C5.83928 16.2051 6.04487 16.3756 6.21134 16.5811C6.37782 16.7867 6.50188 17.0232 6.57634 17.277C6.65081 17.5308 6.67418 17.7968 6.64514 18.0597C6.61609 18.3226 6.53521 18.5771 6.40714 18.8086C6.27907 19.04 6.10638 19.2437 5.89905 19.408C5.69172 19.5722 5.45386 19.6937 5.19927 19.7654L2.56298 20.5355C2.05398 20.6848 1.5065 20.6258 1.04099 20.3714C0.575484 20.1171 0.230071 19.6883 0.0807105 19.1793Z" fill="#CCCCCC"/>
<path d="M0.0821239 27.4362C-0.0664908 26.9272 -0.00691506 26.38 0.247761 25.9149C0.502438 25.4498 0.931374 25.1048 1.44028 24.9559L4.07458 24.1838C4.32756 24.1066 4.59333 24.0803 4.85653 24.1065C5.11972 24.1327 5.37509 24.2108 5.60789 24.3364C5.84069 24.4619 6.04628 24.6324 6.21276 24.838C6.37923 25.0435 6.5033 25.28 6.57776 25.5338C6.65222 25.7876 6.6756 26.0537 6.64655 26.3166C6.61751 26.5795 6.53662 26.834 6.40855 27.0654C6.28048 27.2968 6.10779 27.5006 5.90047 27.6648C5.69314 27.829 5.45527 27.9505 5.20068 28.0222L2.5644 28.7923C2.05539 28.9416 1.50792 28.8826 1.04241 28.6283C0.576897 28.374 0.231485 27.9451 0.0821239 27.4362Z" fill="#CCCCCC"/>
<path d="M2.58947 34.9213C2.51559 34.6691 2.49213 34.4049 2.52041 34.1436C2.54868 33.8824 2.62813 33.6293 2.75426 33.3987C2.88038 33.1682 3.05071 32.9648 3.25547 32.8001C3.46024 32.6355 3.69542 32.5127 3.94763 32.439L7.45803 31.4129C7.96731 31.2636 8.51505 31.3226 8.98076 31.5772C9.44646 31.8317 9.79198 32.2608 9.94132 32.77C10.0906 33.2793 10.0316 33.827 9.77705 34.2927C9.52254 34.7585 9.09344 35.104 8.58417 35.2533L5.07178 36.2794C4.81961 36.3533 4.55535 36.3768 4.2941 36.3485C4.03286 36.3203 3.77976 36.2408 3.54924 36.1147C3.31872 35.9885 3.11531 35.8182 2.95063 35.6135C2.78595 35.4087 2.66322 35.1735 2.58947 34.9213Z" fill="#CCCCCC"/>
</svg>
