<svg width="29" height="30" viewBox="0 0 29 30" fill="none" xmlns="http://www.w3.org/2000/svg">
<path d="M1.24995 21.1879C0.918441 21.1879 0.60053 21.3196 0.366119 21.554C0.131709 21.7884 0 22.1063 0 22.4378C0 22.7693 0.131709 23.0873 0.366119 23.3217C0.60053 23.5561 0.918441 23.6878 1.24995 23.6878H2.4574V26.1877C2.46005 27.2001 2.86424 28.1701 3.58132 28.8849C4.2984 29.5996 5.26979 30.0007 6.28224 30H24.344C25.3565 30.0007 26.3278 29.5996 27.0448 28.8849C27.7619 28.1701 28.1662 27.2001 28.1688 26.1877V3.82484C28.1688 2.81043 27.7659 1.83756 27.0486 1.12027C26.3313 0.402971 25.3584 0 24.344 0H6.28224C5.26783 0 4.29495 0.402971 3.57766 1.12027C2.86036 1.83756 2.4574 2.81043 2.4574 3.82484V6.31849H1.24995C0.918441 6.31849 0.60053 6.45018 0.366119 6.68459C0.131709 6.919 0 7.23693 0 7.56843C0 7.89994 0.131709 8.21787 0.366119 8.45228C0.60053 8.68669 0.918441 8.81838 1.24995 8.81838H2.4574V13.7532H1.24995C0.918441 13.7532 0.60053 13.8849 0.366119 14.1193C0.131709 14.3537 0 14.6716 0 15.0031C0 15.3346 0.131709 15.6526 0.366119 15.887C0.60053 16.1214 0.918441 16.2531 1.24995 16.2531H2.4574V21.1879H1.24995ZM9.99958 18.563C10.2553 17.6562 10.7389 16.8299 11.4043 16.1628C12.0696 15.4957 12.8946 15.01 13.8007 14.7519C13.3024 14.425 12.9228 13.946 12.7185 13.3862C12.5142 12.8263 12.496 12.2155 12.6666 11.6444C12.8371 11.0734 13.1874 10.5727 13.6654 10.2166C14.1433 9.86062 14.7234 9.66831 15.3193 9.66831C15.9153 9.66831 16.4954 9.86062 16.9733 10.2166C17.4513 10.5727 17.8015 11.0734 17.9721 11.6444C18.1427 12.2155 18.1245 12.8263 17.9202 13.3862C17.7158 13.946 17.3364 14.425 16.8381 14.7519C17.7438 15.0105 18.5683 15.4964 19.2334 16.1635C19.8984 16.8305 20.3819 17.6565 20.6379 18.563C20.6856 18.7254 20.695 18.8967 20.6654 19.0633C20.6358 19.23 20.568 19.3876 20.4672 19.5236C20.3664 19.6596 20.2354 19.7704 20.0846 19.8473C19.9338 19.9242 19.7672 19.965 19.598 19.9667H11.0395C10.87 19.966 10.703 19.9258 10.5516 19.8495C10.4003 19.7732 10.2688 19.6627 10.1674 19.5268C10.0661 19.3909 9.99769 19.2334 9.96769 19.0665C9.9377 18.8997 9.94689 18.7282 9.99455 18.5655L9.99958 18.563Z" fill="#333333"/>
</svg>
