<svg width="46" height="48" viewBox="0 0 46 48" fill="none" xmlns="http://www.w3.org/2000/svg">
<path d="M1.99992 33.9006C1.46951 33.9006 0.960848 34.1113 0.585791 34.4863C0.210734 34.8614 0 35.3701 0 35.9005C0 36.4309 0.210734 36.9396 0.585791 37.3147C0.960848 37.6897 1.46951 37.9004 1.99992 37.9004H3.93184V41.9003C3.93608 43.5202 4.58278 45.0722 5.73011 46.2158C6.87744 47.3594 8.43166 48.0011 10.0516 48H38.9504C40.5703 48.0011 42.1244 47.3594 43.2718 46.2158C44.4191 45.0722 45.0659 43.5202 45.0701 41.9003V6.11974C45.0701 4.49669 44.4254 2.9401 43.2777 1.79243C42.1301 0.644754 40.5735 0 38.9504 0H10.0516C8.42853 0 6.87192 0.644754 5.72425 1.79243C4.57657 2.9401 3.93184 4.49669 3.93184 6.11974V10.1096H1.99992C1.46951 10.1096 0.960848 10.3203 0.585791 10.6953C0.210734 11.0704 0 11.5791 0 12.1095C0 12.6399 0.210734 13.1486 0.585791 13.5237C0.960848 13.8987 1.46951 14.1094 1.99992 14.1094H3.93184V22.0051H1.99992C1.46951 22.0051 0.960848 22.2158 0.585791 22.5908C0.210734 22.9659 0 23.4746 0 24.005C0 24.5354 0.210734 25.0441 0.585791 25.4192C0.960848 25.7942 1.46951 26.0049 1.99992 26.0049H3.93184V33.9006H1.99992ZM15.9993 29.7008C16.4085 28.2499 17.1823 26.9279 18.2468 25.8605C19.3113 24.7932 20.6313 24.016 22.0811 23.603C21.2838 23.08 20.6765 22.3136 20.3496 21.4179C20.0227 20.5221 19.9935 19.5448 20.2665 18.6311C20.5394 17.7175 21.0999 16.9163 21.8646 16.3466C22.6293 15.777 23.5574 15.4693 24.5109 15.4693C25.4645 15.4693 26.3926 15.777 27.1573 16.3466C27.922 16.9163 28.4825 17.7175 28.7554 18.6311C29.0283 19.5448 28.9992 20.5221 28.6723 21.4179C28.3454 22.3136 27.7382 23.08 26.9409 23.603C28.3901 24.0168 29.7093 24.7943 30.7734 25.8616C31.8375 26.9288 32.6111 28.2504 33.0206 29.7008C33.097 29.9606 33.1121 30.2347 33.0647 30.5014C33.0173 30.768 32.9088 31.0201 32.7475 31.2377C32.5863 31.4554 32.3767 31.6327 32.1354 31.7557C31.8941 31.8787 31.6276 31.9441 31.3567 31.9467H17.6632C17.392 31.9455 17.1248 31.8813 16.8826 31.7592C16.6404 31.6371 16.43 31.4603 16.2679 31.2429C16.1057 31.0255 15.9963 30.7734 15.9483 30.5064C15.9003 30.2395 15.915 29.965 15.9913 29.7048L15.9993 29.7008Z" fill="#C9A9D5"/>
</svg>
