<svg width="48" height="48" viewBox="0 0 48 48" fill="none" xmlns="http://www.w3.org/2000/svg">
<path d="M45.848 18.83C45.236 18.4875 44.5492 18.3007 43.848 18.286V5.34C43.8464 3.92423 43.2833 2.5669 42.2822 1.5658C41.2811 0.564703 39.9238 0.00158808 38.5081 0H18.6481C17.3576 0.00340073 16.111 0.468833 15.134 1.312C6.13404 9.182 6.13406 9.022 5.53406 9.788L5.5221 9.806C4.82982 10.7444 4.44483 11.8741 4.42005 13.04V18.284C3.84638 18.2641 3.27455 18.36 2.73877 18.5661C2.203 18.7721 1.71432 19.084 1.30176 19.4831C0.889206 19.8822 0.561296 20.3604 0.337652 20.889C0.114007 21.4177 -0.00087703 21.986 5.04103e-06 22.56V41.88C0.00475322 43.4698 0.63851 44.9932 1.7627 46.1174C2.88689 47.2416 4.41017 47.8753 6.00001 47.88H42C43.5898 47.8753 45.1132 47.2416 46.2374 46.1174C47.3616 44.9932 47.9953 43.4698 48 41.88V22.56C48.0114 21.8019 47.8174 21.0549 47.4385 20.3982C47.0596 19.7415 46.51 19.1996 45.848 18.83ZM39.848 5.33V19.894L29.224 26.23L24.1021 29.288C24.0781 29.302 24.0421 29.288 24.0081 29.288C23.9724 29.295 23.9357 29.295 23.9 29.288L8.42408 20.036V13.51H16.244C16.6567 13.5111 17.0655 13.4306 17.4469 13.2731C17.8283 13.1157 18.1749 12.8845 18.4667 12.5927C18.7585 12.3009 18.9898 11.9543 19.1472 11.5729C19.3047 11.1914 19.3851 10.7827 19.384 10.37V3.99H38.504C38.6811 3.98974 38.8565 4.02452 39.02 4.09234C39.1836 4.16016 39.3322 4.25969 39.4572 4.38518C39.5821 4.51067 39.681 4.65965 39.7481 4.82352C39.8152 4.9874 39.8491 5.16293 39.848 5.34V5.33Z" fill="#C9A9D5"/>
<path d="M17.9336 16.74C17.4032 16.74 16.8944 16.9507 16.5193 17.3258C16.1442 17.7008 15.9336 18.2096 15.9336 18.74C15.9336 19.2704 16.1442 19.7791 16.5193 20.1542C16.8944 20.5293 17.4032 20.74 17.9336 20.74H30.3336C30.8641 20.74 31.3727 20.5293 31.7478 20.1542C32.1229 19.7791 32.3336 19.2704 32.3336 18.74C32.3336 18.2096 32.1229 17.7008 31.7478 17.3258C31.3727 16.9507 30.8641 16.74 30.3336 16.74H17.9336Z" fill="#C9A9D5"/>
</svg>
