<svg width="45" height="42" viewBox="0 0 45 42" fill="none" xmlns="http://www.w3.org/2000/svg">
<path d="M17.2187 16C21.637 16 25.2187 12.4183 25.2187 8C25.2187 3.58172 21.637 0 17.2187 0C12.8005 0 9.21875 3.58172 9.21875 8C9.21875 12.4183 12.8005 16 17.2187 16Z" fill="#CCCCCC"/>
<path d="M31.0591 19.7501C28.488 20.6478 26.2561 22.316 24.6672 24.5277C23.0782 26.7394 22.2094 29.387 22.1791 32.1101H4.17908C3.56483 32.1138 2.9574 31.9812 2.40058 31.7218C1.84376 31.4624 1.35142 31.0827 0.959083 30.6101C0.576584 30.1595 0.297736 29.6304 0.142219 29.0601C-0.0132975 28.4899 -0.0416821 27.8925 0.0590896 27.3101C0.505401 24.7427 1.52479 22.3089 3.04142 20.1898C4.55805 18.0706 6.53289 16.3207 8.8191 15.0701C9.84781 16.2975 11.133 17.2846 12.5843 17.9618C14.0355 18.6391 15.6176 18.9901 17.2191 18.9901C18.8206 18.9901 20.4027 18.6391 21.8539 17.9618C23.3052 17.2846 24.5904 16.2975 25.6191 15.0701C27.7368 16.2367 29.5893 17.8303 31.0591 19.7501Z" fill="#CCCCCC"/>
<path d="M35.4795 22.74C33.5946 22.738 31.7515 23.295 30.1832 24.3405C28.6149 25.3861 27.3919 26.8732 26.6687 28.6138C25.9456 30.3544 25.7548 32.2704 26.1206 34.1194C26.4864 35.9684 27.3923 37.6675 28.7237 39.0017C30.055 40.3358 31.7522 41.2453 33.6004 41.6149C35.4487 41.9846 37.365 41.7979 39.1072 41.0784C40.8493 40.3589 42.339 39.139 43.3878 37.5729C44.4366 36.0068 44.9975 34.1649 44.9994 32.28C44.9968 29.7541 43.9936 27.3321 42.2094 25.5442C40.4252 23.7562 38.0053 22.7479 35.4795 22.74ZM39.6534 33.94C39.9884 34.275 40.1766 34.7293 40.1766 35.203C40.1766 35.6767 39.9884 36.131 39.6534 36.466C39.3185 36.801 38.8641 36.9892 38.3904 36.9892C37.9167 36.9892 37.4624 36.801 37.1274 36.466L35.4694 34.806L33.8115 36.466C33.4765 36.8012 33.0221 36.9897 32.5481 36.9899C32.0742 36.99 31.6197 36.802 31.2844 36.467C30.9492 36.132 30.7608 35.6776 30.7606 35.2037C30.7604 34.7298 30.9485 34.2752 31.2834 33.94L32.9434 32.28L31.2834 30.62C30.9485 30.2848 30.7604 29.8302 30.7606 29.3563C30.7608 28.8824 30.9492 28.428 31.2844 28.093C31.6197 27.758 32.0742 27.5699 32.5481 27.5701C33.0221 27.5703 33.4765 27.7588 33.8115 28.094L35.4694 29.754L37.1274 28.094C37.2933 27.9281 37.4902 27.7966 37.7069 27.7068C37.9236 27.617 38.1559 27.5709 38.3904 27.5709C38.625 27.5709 38.8573 27.617 39.074 27.7068C39.2907 27.7966 39.4876 27.9281 39.6534 28.094C39.8193 28.2599 39.9509 28.4568 40.0406 28.6735C40.1304 28.8902 40.1766 29.1224 40.1766 29.357C40.1766 29.5916 40.1304 29.8238 40.0406 30.0405C39.9509 30.2572 39.8193 30.4541 39.6534 30.62L37.9954 32.28L39.6534 33.94Z" fill="#CCCCCC"/>
</svg>
