<svg width="15" height="17" viewBox="0 0 15 17" fill="none" xmlns="http://www.w3.org/2000/svg">
<path fill-rule="evenodd" clip-rule="evenodd" d="M1.28463 0H12.8463C13.5557 0 14.1309 0.608328 14.1309 1.35874V14.9461C14.1309 15.6965 13.5557 16.3049 12.8463 16.3049H1.28463C0.575147 16.3049 0 15.6965 0 14.9461V1.35874C0 0.608328 0.575147 0 1.28463 0Z" fill="#33AD73"/>
<path fill-rule="evenodd" clip-rule="evenodd" d="M2.91885 3.84325C2.52358 3.84325 2.20312 3.50431 2.20312 3.08624C2.20312 2.66816 2.52358 2.32922 2.91885 2.32922H11.1772C11.5724 2.32922 11.8929 2.66816 11.8929 3.08624C11.8929 3.50431 11.5724 3.84325 11.1772 3.84325H2.91885Z" fill="white"/>
<path fill-rule="evenodd" clip-rule="evenodd" d="M2.91885 10.831C2.52358 10.831 2.20312 10.4921 2.20312 10.074C2.20312 9.65596 2.52358 9.31702 2.91885 9.31702H11.1772C11.5724 9.31702 11.8929 9.65596 11.8929 10.074C11.8929 10.4921 11.5724 10.831 11.1772 10.831H2.91885Z" fill="white"/>
<path fill-rule="evenodd" clip-rule="evenodd" d="M2.91885 7.33714C2.52358 7.33714 2.20312 6.9982 2.20312 6.58013C2.20312 6.16206 2.52358 5.82312 2.91885 5.82312H11.1772C11.5724 5.82312 11.8929 6.16206 11.8929 6.58013C11.8929 6.9982 11.5724 7.33714 11.1772 7.33714H2.91885Z" fill="white"/>
<path fill-rule="evenodd" clip-rule="evenodd" d="M2.91885 14.3249C2.52358 14.3249 2.20312 13.986 2.20312 13.5679C2.20312 13.1499 2.52358 12.8109 2.91885 12.8109H11.1772C11.5724 12.8109 11.8929 13.1499 11.8929 13.5679C11.8929 13.986 11.5724 14.3249 11.1772 14.3249H2.91885Z" fill="white"/>
</svg>
