<svg width="46" height="42" viewBox="0 0 46 42" fill="none" xmlns="http://www.w3.org/2000/svg">
<path d="M17.2222 16.0031C21.6414 16.0031 25.2238 12.4207 25.2238 8.00153C25.2238 3.58241 21.6414 0 17.2222 0C12.8031 0 9.2207 3.58241 9.2207 8.00153C9.2207 12.4207 12.8031 16.0031 17.2222 16.0031Z" fill="#C9A9D5"/>
<path d="M31.065 19.7559C28.494 20.6607 26.263 22.3337 24.6744 24.5485C23.0858 26.7633 22.2162 29.4128 22.1833 32.1382H4.17988C3.56549 32.1421 2.95793 32.0095 2.40098 31.7501C1.84403 31.4906 1.35162 31.1108 0.959298 30.6379C0.576725 30.1873 0.297794 29.658 0.142247 29.0877C-0.0133 28.5174 -0.0416901 27.9198 0.0591009 27.3373C0.50536 24.7693 1.5248 22.3351 3.04173 20.2155C4.55866 18.096 6.53405 16.3457 8.82079 15.095C9.84969 16.3226 11.1351 17.3099 12.5866 17.9873C14.0382 18.6647 15.6206 19.0157 17.2224 19.0157C18.8242 19.0157 20.4065 18.6647 21.8581 17.9873C23.3096 17.3099 24.595 16.3226 25.6239 15.095C27.7499 16.2419 29.6053 17.8312 31.065 19.7559Z" fill="#C9A9D5"/>
<path d="M35.4939 22.7564C33.6087 22.7544 31.7653 23.3115 30.1967 24.3572C28.6281 25.4029 27.4047 26.8903 26.6815 28.6313C25.9582 30.3722 25.7675 32.2885 26.1334 34.1379C26.4992 35.9873 27.4053 37.6867 28.7369 39.0211C30.0686 40.3556 31.766 41.2651 33.6146 41.6349C35.4632 42.0046 37.3799 41.8179 39.1223 41.0982C40.8648 40.3786 42.3548 39.1585 43.4038 37.5921C44.4528 36.0257 45.0138 34.1834 45.0158 32.2982C45.0126 29.772 44.009 27.3498 42.2246 25.5616C40.4402 23.7735 38.0201 22.7648 35.4939 22.7564ZM40.0748 31.0579L35.3339 35.7988C35.0278 36.0941 34.619 36.2592 34.1936 36.2592C33.7683 36.2592 33.3597 36.0941 33.0535 35.7988L30.8931 33.6384C30.595 33.3338 30.428 32.9245 30.428 32.4982C30.428 32.072 30.595 31.6627 30.8931 31.358C31.042 31.2068 31.2194 31.0867 31.4152 31.0047C31.6109 30.9228 31.8211 30.8806 32.0333 30.8806C32.2455 30.8806 32.4556 30.9228 32.6514 31.0047C32.8471 31.0867 33.0246 31.2068 33.1736 31.358L34.1936 32.3782L37.7944 28.7775C38.0968 28.4751 38.5069 28.3052 38.9345 28.3052C39.3622 28.3052 39.7724 28.4751 40.0748 28.7775C40.3772 29.0799 40.5472 29.49 40.5472 29.9177C40.5472 30.3454 40.3772 30.7555 40.0748 31.0579Z" fill="#C9A9D5"/>
</svg>
