<?xml version="1.0" encoding="UTF-8"?>
<svg width="83px" height="30px" viewBox="0 0 83 30" version="1.1" xmlns="http://www.w3.org/2000/svg" xmlns:xlink="http://www.w3.org/1999/xlink">
    <!-- Generator: sketchtool 52.3 (67297) - http://www.bohemiancoding.com/sketch -->
    <title>88F4E52C-A0AB-40A9-8200-B0208B2513B8</title>
    <desc>Created with sketchtool.</desc>
    <g id="Signup---Signin" stroke="none" stroke-width="1" fill="none" fill-rule="evenodd">
        <g id="SignUp-TotalContent" transform="translate(-50.000000, -45.000000)">
            <g id="logo-doppler" transform="translate(50.000000, 45.000000)">
                <path d="M0.00028125,8.244 C0.00028125,7.1011875 0.79528125,6.3305625 1.91371875,6.3305625 L6.03778125,6.3305625 C11.6037188,6.3305625 14.7846563,9.909 14.7846563,15.42525 C14.7846563,20.6424375 11.4059063,24.022125 6.28715625,24.022125 L1.96246875,24.022125 C1.14215625,24.022125 0.00028125,23.574 0.00028125,22.158375 L0.00028125,8.244 Z M28.338,17.3079375 C28.338,21.00825 25.797375,24.141375 21.97425,24.141375 C18.1483125,24.141375 15.608625,21.00825 15.608625,17.3079375 C15.608625,13.7060625 18.2233125,10.4248125 21.97425,10.4248125 C25.7233125,10.4248125 28.338,13.7060625 28.338,17.3079375 Z M29.50725,12.5470312 C29.50725,11.3629688 30.247875,10.5726562 31.282875,10.5726562 C32.2700625,10.5726562 32.8363125,11.1154687 33.0585,12.0529687 C33.726,10.9682813 35.1069375,10.4254688 36.439125,10.4254688 C40.26225,10.4254688 42.1625625,14.0020312 42.1625625,17.4557813 C42.1625625,20.8110938 39.8938125,24.1410938 36.3163125,24.1410938 C35.2063125,24.1410938 33.9969375,23.7220313 33.0585,22.9073438 L33.0585,27.2498438 C33.0585,28.4348438 32.31975,29.2232812 31.282875,29.2232812 C30.247875,29.2232812 29.50725,28.4348438 29.50725,27.2498438 L29.50725,12.5470312 Z M43.331625,12.5470312 C43.331625,11.3629688 44.07225,10.5726562 45.1081875,10.5726562 C46.095375,10.5726562 46.661625,11.1154687 46.88475,12.0529687 C47.550375,10.9682813 48.93225,10.4254688 50.2644375,10.4254688 C54.0885,10.4254688 55.987875,14.0020312 55.987875,17.4557813 C55.987875,20.8110938 53.7181875,24.1410938 50.141625,24.1410938 C49.031625,24.1410938 47.82225,23.7220313 46.88475,22.9073438 L46.88475,27.2498438 C46.88475,28.4348438 46.1450625,29.2232812 45.1081875,29.2232812 C44.07225,29.2232812 43.331625,28.4348438 43.331625,27.2498438 L43.331625,12.5470312 Z M57.1070625,8.229375 C57.1070625,7.0453125 57.8476875,6.2559375 58.883625,6.2559375 C59.9205,6.2559375 60.6601875,7.0453125 60.6601875,8.229375 L60.6601875,22.02 C60.6601875,23.2040625 59.9205,23.9934375 58.883625,23.9934375 C57.8476875,23.9934375 57.1070625,23.2040625 57.1070625,22.02 L57.1070625,8.229375 Z M65.1599063,18.4666875 C65.4064688,20.218875 66.8614688,21.0335625 68.5142813,21.0335625 C70.3414688,21.0335625 71.2461563,19.602 72.1827188,19.602 C72.9477188,19.602 73.6386562,20.367 73.6386562,21.132 C73.6386562,22.660125 70.8345937,24.141375 68.1945938,24.141375 C64.1970938,24.141375 61.5336563,21.2304375 61.5336563,17.3079375 C61.5336563,13.7060625 64.1483438,10.4248125 67.8983438,10.4248125 C71.7467812,10.4248125 74.2874063,13.92825 74.2874063,16.888875 C74.2874063,17.9491875 73.8195938,18.4666875 72.7339688,18.4666875 L65.1599063,18.4666875 Z M75.1603125,12.3486562 C75.1603125,11.1645937 76.0978125,10.5730312 76.9865625,10.5730312 C77.68125,10.5730312 78.2296875,10.9114687 78.7125,12.0524062 L78.7621875,12.0524062 C79.42875,11.0661562 80.145,10.5730312 81.2540625,10.5730312 C82.1175,10.5730312 82.981875,11.1889687 82.981875,12.4724062 C82.981875,13.6320937 81.9196875,13.7061562 80.8603125,14.2002187 C79.7990625,14.6933437 78.7125,15.1620937 78.7125,16.5674062 L78.7125,22.0199062 C78.7125,23.2039687 77.97375,23.9933437 76.936875,23.9933437 C75.9009375,23.9933437 75.1603125,23.2039687 75.1603125,22.0199062 L75.1603125,12.3486562 Z M3.72684375,20.4380625 L6.23653125,20.4380625 C9.44090625,20.4380625 10.9080937,18.2330625 10.9080937,15.250875 C10.9080937,12.0699375 9.41840625,9.909 5.98903125,9.909 L3.72684375,9.909 L3.72684375,20.4380625 Z M19.1608125,17.3079375 C19.1608125,19.0104375 20.048625,20.62575 21.97425,20.62575 C23.898,20.62575 24.7858125,19.0104375 24.7858125,17.3079375 C24.7858125,15.6054375 23.9214375,13.885125 21.97425,13.885125 C20.02425,13.885125 19.1608125,15.6054375 19.1608125,17.3079375 Z M35.846625,20.6254688 C37.6981875,20.6254688 38.610375,18.9604688 38.610375,17.3076563 C38.610375,15.6304688 37.6981875,13.8848438 35.846625,13.8848438 C33.9481875,13.8848438 33.0585,15.4579688 33.0585,17.1848438 C33.0585,18.9107813 33.8994375,20.6254688 35.846625,20.6254688 Z M49.672875,20.6254688 C51.5235,20.6254688 52.4356875,18.9604688 52.4356875,17.3076563 C52.4356875,15.6304688 51.5235,13.8848438 49.672875,13.8848438 C47.7735,13.8848438 46.88475,15.4579688 46.88475,17.1848438 C46.88475,18.9107813 47.722875,20.6254688 49.672875,20.6254688 Z M70.7352187,16.0995 C70.5383437,14.545125 69.5511562,13.3854375 67.8983437,13.3854375 C66.3205312,13.3854375 65.2583437,14.593875 65.0858437,16.0995 L70.7352187,16.0995 Z" id="Combined-Shape" fill="#2C1F00"></path>
                <path d="M41.8824375,4.36134375 C41.8824375,4.36134375 40.387125,9.375e-05 35.849625,9.375e-05 C35.845875,9.375e-05 35.8449375,9.375e-05 35.842125,9.375e-05 C35.84025,9.375e-05 35.8393125,9.375e-05 35.8365,9.375e-05 C31.2999375,9.375e-05 29.80275,4.36134375 29.80275,4.36134375 C29.725875,4.62571875 29.5336875,5.17228125 30.0061875,5.94384375 C30.7205625,7.11196875 32.7474375,6.96009375 33.204,5.61759375 C33.204,5.61759375 33.745875,3.62728125 35.842125,3.61134375 C37.94025,3.62728125 38.4811875,5.61759375 38.4811875,5.61759375 C38.9386875,6.96009375 40.964625,7.11196875 41.6799375,5.94384375 C42.1524375,5.17228125 41.958375,4.62571875 41.8824375,4.36134375" id="Fill-17" fill="#FBB224"></path>
            </g>
        </g>
    </g>
</svg>