<?xml version="1.0" encoding="UTF-8"?>
<svg width="143px" height="33px" viewBox="0 0 143 33" version="1.1" xmlns="http://www.w3.org/2000/svg" xmlns:xlink="http://www.w3.org/1999/xlink">
    <!-- Generator: Sketch 52.3 (67297) - http://www.bohemiancoding.com/sketch -->
    <title>Doppler-NewBrand</title>
    <desc>Created with Sketch.</desc>
    <g id="Sections" stroke="none" stroke-width="1" fill="none" fill-rule="evenodd">
        <g id="section/nav-home" transform="translate(-80.000000, -15.000000)">
            <g id="Doppler-NewBrand" transform="translate(80.000000, 15.000000)">
                <path d="M127.509836,0.162295082 C119.070492,-0.216393443 111.87541,6.3295082 111.496721,14.7688525 C111.280328,19.3672131 113.119672,23.6409836 116.257377,26.5622951 L114.093443,32.4590164 L120.152459,29.2672131 C121.937705,30.1327869 123.939344,30.6737705 126.04918,30.7278689 C134.488525,31.1065574 141.683607,24.5606557 142.062295,16.1213115 C142.54918,7.73606557 136.003279,0.540983607 127.509836,0.162295082 M133.677049,14.1737705 C132.811475,15.5803279 130.431148,15.3639344 129.890164,13.795082 C129.890164,13.795082 129.240984,11.4688525 126.752459,11.4147541 C124.263934,11.4147541 123.614754,13.795082 123.614754,13.795082 C123.07377,15.3639344 120.693443,15.5803279 119.827869,14.1737705 C119.286885,13.2540984 119.503279,12.604918 119.611475,12.2803279 C119.611475,12.2803279 121.396721,7.14098361 126.752459,7.14098361 C132.108197,7.14098361 133.893443,12.2803279 133.893443,12.2803279 C134.001639,12.604918 134.218033,13.2540984 133.677049,14.1737705" id="Shape" fill="#FAB221" fill-rule="nonzero"></path>
                <path d="M2.16393443,32.3508197 C0.973770492,32.3508197 0.0540983607,31.4311475 0.0540983607,30.2409836 L0.0540983607,17.7983607 C0.0540983607,16.6081967 0.973770492,15.6885246 2.16393443,15.6885246 L6.6,15.6885246 C11.7393443,15.6885246 15.4180328,19.1508197 15.4180328,23.9655738 L15.4180328,24.0196721 C15.4180328,28.8344262 11.6852459,32.3508197 6.6,32.3508197 L2.16393443,32.3508197 Z M6.6,28.4016393 C9.25081967,28.4016393 11.0360656,26.6163934 11.0360656,24.0196721 L11.0360656,23.9655738 C11.0360656,21.3147541 9.25081967,19.5295082 6.6,19.5295082 L4.27377049,19.5295082 L4.27377049,28.4016393 L6.6,28.4016393 Z" id="Shape" fill="#302512" fill-rule="nonzero"></path>
                <path d="M25.3721311,32.6213115 C20.3409836,32.6213115 16.5540984,28.942623 16.5540984,24.0737705 L16.5540984,24.0196721 C16.5540984,19.204918 20.4491803,15.4180328 25.4262295,15.4180328 C30.457377,15.4180328 34.2442623,19.0967213 34.2442623,23.9655738 L34.2442623,24.0196721 C34.2442623,28.8344262 30.3491803,32.6213115 25.3721311,32.6213115 M25.3721311,19.3672131 C22.8836066,19.3672131 20.9901639,21.3147541 20.9901639,23.9655738 L20.9901639,24.0196721 C20.9901639,26.6704918 22.8836066,28.6721311 25.4262295,28.6721311 C27.9147541,28.6721311 29.8081967,26.7245902 29.8081967,24.0737705 L29.8081967,24.0196721 C29.8081967,21.3688525 27.9147541,19.3672131 25.3721311,19.3672131" id="Shape" fill="#302512" fill-rule="nonzero"></path>
                <path d="M38.1393443,32.4590164 C36.9491803,32.4590164 36.0295082,31.5393443 36.0295082,30.3491803 L36.0295082,17.7983607 C36.0295082,16.6081967 36.9491803,15.6885246 38.1393443,15.6885246 L42.9,15.6885246 C46.8491803,15.6885246 49.3918033,18.0147541 49.3918033,21.5852459 L49.3918033,21.6393443 C49.3918033,25.2639344 46.7409836,27.5901639 42.5754098,27.5901639 L40.3032787,27.5901639 L40.3032787,30.4032787 C40.3032787,31.5393443 39.3295082,32.4590164 38.1393443,32.4590164 Z M42.6836066,23.695082 C44.1442623,23.695082 45.0639344,22.8836066 45.0639344,21.6393443 L45.0639344,21.5852459 C45.0639344,19.8 43.495082,19.5295082 42.5754098,19.5295082 L40.2491803,19.5295082 L40.2491803,23.6409836 L42.6836066,23.6409836 L42.6836066,23.695082 Z" id="Shape" fill="#302512" fill-rule="nonzero"></path>
                <path d="M52.8,32.4590164 C51.6098361,32.4590164 50.6901639,31.5393443 50.6901639,30.3491803 L50.6901639,17.7983607 C50.6901639,16.6081967 51.6098361,15.6885246 52.8,15.6885246 L57.5606557,15.6885246 C61.5098361,15.6885246 64.052459,18.0147541 64.052459,21.5852459 L64.052459,21.6393443 C64.052459,25.2639344 61.4016393,27.5901639 57.2360656,27.5901639 L54.9639344,27.5901639 L54.9639344,30.4032787 C54.9098361,31.5393443 53.9901639,32.4590164 52.8,32.4590164 Z M57.3442623,23.695082 C58.804918,23.695082 59.7245902,22.8836066 59.7245902,21.6393443 L59.7245902,21.5852459 C59.7245902,19.8 58.1557377,19.5295082 57.2360656,19.5295082 L54.9098361,19.5295082 L54.9098361,23.6409836 L57.3442623,23.6409836 L57.3442623,23.695082 Z" id="Shape" fill="#302512" fill-rule="nonzero"></path>
                <path d="M67.4065574,32.3508197 C66.2163934,32.3508197 65.2967213,31.4311475 65.2967213,30.2409836 L65.2967213,17.6360656 C65.2967213,16.4459016 66.2163934,15.5262295 67.4065574,15.5262295 C68.5967213,15.5262295 69.5163934,16.4459016 69.5163934,17.6360656 L69.5163934,28.4016393 L75.6295082,28.4016393 C76.7114754,28.4016393 77.5770492,29.2672131 77.5770492,30.3491803 C77.5770492,31.4311475 76.7114754,32.2967213 75.6295082,32.2967213 L67.4065574,32.2967213 L67.4065574,32.3508197 Z" id="Path" fill="#302512"></path>
                <path d="M80.9311475,32.3508197 C79.7409836,32.3508197 78.8213115,31.4311475 78.8213115,30.2409836 L78.8213115,17.7983607 C78.8213115,16.6081967 79.7409836,15.6885246 80.9311475,15.6885246 L89.8032787,15.6885246 C90.8852459,15.6885246 91.7508197,16.5540984 91.7508197,17.6360656 C91.7508197,18.7180328 90.8852459,19.5295082 89.8032787,19.5295082 L83.095082,19.5295082 L83.095082,22.0180328 L88.7754098,22.0180328 C89.857377,22.0180328 90.7229508,22.8836066 90.7229508,23.9655738 C90.7229508,25.047541 89.857377,25.9131148 88.7754098,25.9131148 L83.095082,25.9131148 L83.095082,28.5098361 L89.9655738,28.5098361 C91.047541,28.5098361 91.9131148,29.3754098 91.9131148,30.457377 C91.9131148,31.5393443 91.047541,32.3508197 89.9655738,32.3508197 L80.9311475,32.3508197 Z" id="Path" fill="#302512"></path>
                <path d="M105.329508,32.4590164 C104.518033,32.4590164 103.868852,32.1344262 103.327869,31.4311475 L100.027869,27.2655738 L97.7557377,27.2655738 L97.7557377,30.4032787 C97.7557377,31.5934426 96.8360656,32.5131148 95.6459016,32.5131148 C94.4557377,32.5131148 93.5360656,31.5934426 93.5360656,30.4032787 L93.5360656,17.7983607 C93.5360656,16.6081967 94.4557377,15.6885246 95.6459016,15.6885246 L101.163934,15.6885246 C103.219672,15.6885246 104.95082,16.2836066 106.086885,17.4196721 C107.060656,18.3934426 107.547541,19.7459016 107.547541,21.3147541 L107.547541,21.3688525 C107.547541,23.695082 106.519672,25.3721311 104.572131,26.3459016 L106.681967,28.942623 C107.006557,29.3754098 107.331148,29.8081967 107.331148,30.5114754 C107.385246,31.7016393 106.303279,32.4590164 105.329508,32.4590164 Z M100.947541,23.3704918 C102.408197,23.3704918 103.27377,22.6672131 103.27377,21.4770492 L103.27377,21.4229508 C103.27377,19.8540984 101.97541,19.5295082 100.893443,19.5295082 L97.7557377,19.5295082 L97.7557377,23.3704918 L100.947541,23.3704918 Z" id="Shape" fill="#302512" fill-rule="nonzero"></path>
            </g>
        </g>
    </g>
</svg>