<svg width="20" height="20" viewBox="0 0 20 20" xmlns="http://www.w3.org/2000/svg"><title>icons/english-flag</title><g fill="none"><path d="M3.717 2.222h12.572A9.967 9.967 0 0 0 10 0a9.951 9.951 0 0 0-6.283 2.222zM.567 6.667h18.866a9.966 9.966 0 0 0-1.116-2.223H1.683A9.966 9.966 0 0 0 .567 6.667zM.06 11.11h19.878a10.163 10.163 0 0 0 0-2.222H.06a10.136 10.136 0 0 0 0 2.222zm1.622 4.445h16.634a9.952 9.952 0 0 0 1.116-2.223H.567c.28.792.657 1.537 1.116 2.223zm14.6 2.222H3.717A9.951 9.951 0 0 0 10 20a9.95 9.95 0 0 0 6.283-2.222z" fill="#DF3434"/><path d="M1.683 4.444h16.634a10.048 10.048 0 0 0-2.028-2.222H3.717a10.07 10.07 0 0 0-2.034 2.222zM.061 8.89h19.878a9.933 9.933 0 0 0-.506-2.222H.567A9.94 9.94 0 0 0 .06 8.889zm.506 4.444h18.866c.25-.707.421-1.451.506-2.222H.06c.085.77.256 1.515.506 2.222zm3.15 4.445h12.566a10.08 10.08 0 0 0 2.034-2.222H1.683a10.08 10.08 0 0 0 2.034 2.222z" fill="#FFF"/><path d="M10 11.111V0C4.477 0 0 4.477 0 10a10 10 0 0 0 .061 1.111H10z" fill="#4376A7"/><path fill="#FFF" d="M7.778 2.222h1.111v1.111H7.778zM5.556 3.333h1.111v1.111H5.556zm2.222 1.111h1.111v1.111H7.778zM5.556 5.556h1.111v1.111H5.556zm2.222 1.111h1.111v1.111H7.778zM5.556 7.778h1.111v1.111H5.556zm2.222 1.111h1.111V10H7.778zM3.333 2.222h1.111v1.111H3.333zm0 2.222h1.111v1.111H3.333zm0 2.223h1.111v1.111H3.333zm0 2.222h1.111V10H3.333zM1.111 5.556h1.111v1.111H1.111zm0 2.222h1.111v1.111H1.111z"/></g></svg>