<svg width="20" height="20" viewBox="0 0 20 20" xmlns="http://www.w3.org/2000/svg"><title>icons/spanish-flag</title><g fill="none" fill-rule="evenodd"><path d="M.567 6.667h18.867a10.008 10.008 0 0 0-18.867 0m17.75 8.889H1.684A9.99 9.99 0 0 0 10 20a9.99 9.99 0 0 0 8.317-4.444" fill="#DF3434"/><path d="M1.683 15.556h16.633A9.951 9.951 0 0 0 20 10c0-1.168-.199-2.29-.567-3.333H.566A9.998 9.998 0 0 0 0 10a9.95 9.95 0 0 0 1.683 5.556" fill="#FFC20E"/><path d="M2.222 11.111a3.333 3.333 0 1 1 6.666 0 3.333 3.333 0 0 1-6.666 0" fill="#643C31"/><path d="M4.889 10.444a1.333 1.333 0 1 1 2.666 0 1.333 1.333 0 0 1-2.666 0" fill="#C6AB61"/></g></svg>