<svg width="512" height="512" xmlns="http://www.w3.org/2000/svg">
  <g>
      <title>background</title>
      <rect fill="none" id="canvas_background" height="402" width="582" y="-1" x="-1"/>
  </g>
  <g>
      <title>Layer 1</title>
      <polygon id="svg_2" fill-rule="evenodd" clip-rule="evenodd" fill="#666666" points="93.063,116.909 122.719,449.542 255.8,486.486      389.249,449.489 418.938,116.909    "/>
      <path id="svg_4" fill-rule="evenodd" clip-rule="evenodd" fill="#ffffff" d="m256,184.903l-102.298,0l0.977,10.945l10.027,112.422l91.294,0l0,-40.795l-53.984,0l-3.729,-41.775l57.713,0l0,-40.797zm-45.614,176.303l-2.905,-32.536l-40.953,0l5.716,64.056l83.568,23.198l0.188,-0.052l0,-42.445l-0.179,0.048l-45.435,-12.269z"/>
      <polygon id="svg_6" fill-rule="evenodd" clip-rule="evenodd" fill="#999999" points="256,144.106 256,458.208 363.832,428.313      389.203,144.106    "/>
      <path id="svg_8" fill-rule="evenodd" clip-rule="evenodd" fill="#FFFFFF" d="m255.858,308.271l50.236,0l-4.736,52.91l-45.5,12.281l0,42.442l83.634,-23.179l0.614,-6.892l9.587,-107.403l0.995,-10.955l-94.83,0l0,40.796zm0,-123.368l0,40.797l98.542,0l0.818,-9.17l1.859,-20.682l0.975,-10.945l-102.194,0z"/>
      <path fill="#666666" id="svg_10" fill-rule="evenodd" clip-rule="evenodd" d="m163.079,46.997l-18.965,0l0,-20.483l-20.731,0l0,62.028l20.732,0l0,-20.771l18.964,0l0,20.771l20.732,0l0,-62.028l-20.733,0l0,20.483l0.001,0zm29.745,0.086l18.252,0l0,41.459l20.733,0l0,-41.459l18.26,0l0,-20.569l-57.245,0l0,20.569zm101.246,1.226l-13.299,-21.795l-21.617,0l0,62.028l20.285,0l0,-30.745l14.273,22.055l0.357,0l14.263,-22.055l0,30.745l20.646,0l0,-62.028l-21.626,0l-13.282,21.795zm65.966,19.73l0,-41.525l-20.738,0l0,62.028l49.894,0l0,-20.503l-29.156,0z"/>
  </g>
</svg>
