<?xml version="1.0" encoding="UTF-8"?>
<svg fill="none" viewBox="0 0 67 74" xmlns="http://www.w3.org/2000/svg">
<path d="m39.347 33.977-3.3961 30.096 14.797 2.9272 16.252-9.235-3.3955-23.788-12.006-2.9278-12.251 2.9278z" clip-rule="evenodd" fill="#FED940" fill-rule="evenodd"/>
<path d="m50.659 68.634 14.707-8.9324-3.2168-25.784-11.49-2.8691v37.585z" clip-rule="evenodd" fill="#FED329" fill-rule="evenodd"/>
<path d="m50.612 35.951-1.5874-8.1707h4.9025l-1.5875 8.1707h-1.7276z" clip-rule="evenodd" fill="#EFE4B5" fill-rule="evenodd"/>
<path d="m49.024 27.78h3.2683l-0.9995 6.5366-2.2688-6.5366z" clip-rule="evenodd" fill="#DFD6AF" fill-rule="evenodd"/>
<path d="m40.946 6.0921 1.748 10.359v6.746l7.2116 4.8466h2.2825l7.2122-4.8466v-7.6017l1.4838-9.503c0.0013-0.03989-19.938 0-19.938 0z" clip-rule="evenodd" fill="#F7EFCB" fill-rule="evenodd"/>
<path d="m51.357 6.077v21.967h1.6898l6.9728-4.8472v-7.8653l1.7312-9.2394c7e-4 -0.01995-5.4858-0.01995-10.394-0.01496z" clip-rule="evenodd" fill="#EFE4B5" fill-rule="evenodd"/>
<path d="m55.786 33.423-3.4427-0.3938h-2.4014c-0.9083 0-3.4174 0.3938-3.4174 0.3938l4.624 5.3931 4.6375-5.3931z" clip-rule="evenodd" fill="#EFE4B5" fill-rule="evenodd"/>
<path d="m51.118 7.1912 0.0106-0.03365-0.0613 0.01807 0.0507 0.01558zm-7.3452 11.163s-5.364-15.077 7.2357-11.196l0.0588 0.01807 0.0613-0.01807c12.598-3.8781 7.4145 11.196 7.4145 11.196l1.3439-0.7347 0.8155-0.5397c1.3669-6.2151 3.0258-6.7492 3.0258-6.7492-3.105 0.3689 1.7714-9.6414-10.17-8.3969-1.3446 0.14022-2.0611 0.81701-2.4243 1.6402-0.3354-0.82323-1.0308-1.5-2.3754-1.6402-11.942-1.2445-7.0655 8.7658-10.17 8.3969 0 0 1.6582 0.5341 3.0251 6.7492l0.8155 0.5397 1.3439 0.7347zm7.2357-11.196 0.0093 0.03365 0.0495-0.01558-0.0588-0.01807z" clip-rule="evenodd" fill="#302100" fill-rule="evenodd"/>
<path d="m43.212 19.319-0.518 3.202v-3.202h0.518z" clip-rule="evenodd" fill="#EFE4B5" fill-rule="evenodd"/>
<mask id="a" x="0" y="31" width="31" height="36" mask-type="alpha" maskUnits="userSpaceOnUse">
<path d="M0 31.1599H30.9376V66.6818H0V31.1599Z" fill="#fff"/>
</mask>
<g mask="url(#a)">
<path d="m3.3839 34.052 12.207-2.8922 11.963 2.8922 3.3834 29.737-16.194 2.8929-14.744-2.8929 3.384-29.737z" clip-rule="evenodd" fill="#FED940" fill-rule="evenodd"/>
</g>
<path d="m15.469 69.056 15.469-2.7745-3.3839-32.23-12.085-2.8923v37.896z" clip-rule="evenodd" fill="#FED329" fill-rule="evenodd"/>
<path d="m42.694 16.54c0-0.0013-0.0471-0.0019-0.0687-0.0019-0.8168 0-1.5704 0.6681-1.5704 1.4926 0 0.8238 0.7549 1.4919 1.571 1.4919 0.0217 0 0.0681-6e-4 0.0681-0.0013v-2.9813z" clip-rule="evenodd" fill="#F7EFCB" fill-rule="evenodd"/>
<path d="m60.019 16.54c0-0.0013 0.0346-0.0019 0.0569-0.0019 0.8162 0 1.2864 0.6681 1.2864 1.4926 0 0.8238-0.4678 1.4919-1.2845 1.4919-0.0217 0-0.0588-6e-4 -0.0588-0.0013v-2.9813z" clip-rule="evenodd" fill="#EFE4B5" fill-rule="evenodd"/>
<path d="m14.658 34.899-1.6051-8.1015h4.9568l-1.605 8.1015h-1.7467z" clip-rule="evenodd" fill="#EFE4B5" fill-rule="evenodd"/>
<path d="m13.998 26.797h4.012l-1.227 6.3398-2.785-6.3398z" clip-rule="evenodd" fill="#DFD6AF" fill-rule="evenodd"/>
<path d="m7.4253 16.451v6.746l7.2115 4.8466h2.2826l7.2122-4.8466v-7.6017l0.3192-9.2618c0.0012-0.03989-18.774-0.2412-18.774-0.2412l1.748 10.359z" clip-rule="evenodd" fill="#F7EFCB" fill-rule="evenodd"/>
<path d="m16.088 15.33v12.714h2.0462l6.6164-4.8472v-7.8653l-0.2994-8.9981c6e-4 -0.01995-3.4552-0.2612-8.3632-0.25622v9.2526z" clip-rule="evenodd" fill="#EFE4B5" fill-rule="evenodd"/>
<path d="m20.16 33.423-3.4428-0.3938h-2.4014c-0.9089 0-3.418 0.3938-3.418 0.3938l4.624 5.3931 4.6382-5.3931z" clip-rule="evenodd" fill="#EFE4B5" fill-rule="evenodd"/>
<path d="m17.073 22.371-1.4504-1.338-1.391-0.9535v-0.5926 0.9659l3.5647 2.4841-0.7233-0.5659z" clip-rule="evenodd" fill="#D6CEA8" fill-rule="evenodd"/>
<path d="m17.716 22.937-0.391-1.9668v-1.4826 0.592l-1.313 0.9735 1.704 1.8839z" clip-rule="evenodd" fill="#D6CEA8" fill-rule="evenodd"/>
<path d="m52.698 22.371-1.8068-1.338-1.3916-0.9535v-0.5926 0.9659l3.5653 2.4841-0.3669-0.5659z" clip-rule="evenodd" fill="#D6CEA8" fill-rule="evenodd"/>
<path d="m17.325 44.247 15.625-3.7392 15.312 3.7392 4.3313 25.551-20.728 3.7392-18.872-3.7392 4.3313-25.551z" clip-rule="evenodd" fill="#FEEC9D" fill-rule="evenodd"/>
<path d="m32.794 73.384 19.8-3.5865-4.3313-25.551-15.469-3.7392v32.876z" clip-rule="evenodd" fill="#FFE88C" fill-rule="evenodd"/>
<path d="m52.985 22.937-0.3911-1.9668v-1.4826 0.592l-1.313 0.9735 1.7041 1.8839z" clip-rule="evenodd" fill="#D6CEA8" fill-rule="evenodd"/>
<path d="m15.492 7.1912 0.0588-0.04923-0.1095 0.03365 0.0507 0.01558zm-7.2035 0.64376c1.1812-1.3068 3.3394-1.8328 7.0866-0.68053l0.0662 0.02119 0.1095-0.03365c12.537-3.8252 7.3663 11.212 7.3663 11.212l1.3439-0.7347 0.8156-0.5397c1.0617-4.8291 2.0468-10.968-2.3649-13.185 0.7734-1.7805-2.5171-3.6195-2.5171-3.6195 0.8075 1.4103-0.5526 2.3064-1.6564 2.7738-0.3298-0.00125-0.6732 0.00872-1.0309 0.02867 1.7257-4.3748-4.9463-2.8025-4.9463-2.8025 1.5976 0.97841 0.7252 2.1313-0.1046 2.8312-0.2202 0.02119-0.4331 0.04674-0.641 0.07728 0.3205-1.6253-4.7947-0.93604-4.7947-0.93604 2.566 1.6851-5.054 4.229-1.6719 10.706 0.10643 1.4166 0.35331 2.83 0.63856 4.1256l0.81552 0.5397 1.3439 0.7347s-1.8222-5.1214-0.84831-8.6262l0.99-1.8926zm7.0866-0.68053 0.0167 0.03677 0.0495-0.01558-0.0662-0.02119z" clip-rule="evenodd" fill="#302100" fill-rule="evenodd"/>
<path d="m8.2948 19.319-0.86996 3.202v-3.202h0.86996z" clip-rule="evenodd" fill="#EFE4B5" fill-rule="evenodd"/>
<path d="m7.4251 16.54c0-0.0013-0.04703-0.0019-0.06868-0.0019-0.81676 0-1.9274 0.6681-1.9274 1.4926 0 0.8238 1.1119 1.4919 1.928 1.4919 0.02166 0 0.06807-6e-4 0.06807-0.0013v-2.9813z" clip-rule="evenodd" fill="#F7EFCB" fill-rule="evenodd"/>
<path d="m23.634 19.319 0.5024 3.202v-3.202h-0.5024z" clip-rule="evenodd" fill="#DFD6AF" fill-rule="evenodd"/>
<path d="m24.131 16.54c0-0.0013 0.0347-0.0019 0.057-0.0019 0.8161 0 1.5487 0.6681 1.5487 1.4926 0 0.8238-0.7301 1.4919-1.5469 1.4919-0.0216 0-0.0588-6e-4 -0.0588-0.0013v-2.9813z" clip-rule="evenodd" fill="#EFE4B5" fill-rule="evenodd"/>
<path d="m32.794 10.217c-3.2639-3.0169-13.704-1.3224-10.753 9.2718 2.7485 11.124-1.4671 12.238-3.272 12.827-1.024 0.3341-1.6057-0.1925-1.6057-0.1925s0.5959 12.371 15.631 4.2277v-26.134z" clip-rule="evenodd" fill="#D4BF61" fill-rule="evenodd"/>
<path d="m32.175 49.803-5.2742-9.6084 5.2742-0.7684v10.377z" clip-rule="evenodd" fill="#FFFCF2" fill-rule="evenodd"/>
<path d="m33.413 49.803 4.9228-9.6084-4.9228-0.7684v10.377z" clip-rule="evenodd" fill="#FFFCF2" fill-rule="evenodd"/>
<path d="m31.747 42.377-1.4232-7.4783h5.408l-1.4232 7.4783h-2.5616z" clip-rule="evenodd" fill="#EADFB0" fill-rule="evenodd"/>
<path d="m32.794 10.217c3.2639-3.0169 13.704-1.3224 10.753 9.2718-2.7485 11.124 2.0091 12.238 3.8146 12.827 1.0241 0.3341 1.0631-0.1925 1.0631-0.1925s-0.5959 12.371-15.631 4.2277v-26.134z" clip-rule="evenodd" fill="#D4BF61" fill-rule="evenodd"/>
<path d="m31.354 34.899h4.3777l-1.1521 6.5136-3.2256-6.5136z" clip-rule="evenodd" fill="#D6CEA8" fill-rule="evenodd"/>
<path d="m23.513 18.072v13.359l8.3872 5.337h1.4065l8.769-5.337v-13.359h-18.563z" clip-rule="evenodd" fill="#F3EBC6" fill-rule="evenodd"/>
<path d="m32.794 36.768h0.5123l8.769-5.337v-13.359h-9.2813v18.696z" clip-rule="evenodd" fill="#EFE4B5" fill-rule="evenodd"/>
<path d="m23.513 22.261c0-0.0012-0.0304-0.0018-0.0539-0.0018-0.891 0-1.1366 0.7291-1.1366 1.6284 0 0.8992 0.2413 1.6284 1.1323 1.6284 0.0235 0 0.0582-7e-4 0.0582-0.0019v-3.2531z" clip-rule="evenodd" fill="#F3EBC6" fill-rule="evenodd"/>
<path d="m42.187 22.259c-0.0315 0-0.0643 0.0012-0.112 0.0031v3.2506c0.0477 0.0018 0.0805 0.0031 0.112 0.0031 0.891 0 1.7344-0.7292 1.7344-1.6284 0-0.8993-0.8434-1.6284-1.7344-1.6284z" clip-rule="evenodd" fill="#F1EDC3" fill-rule="evenodd"/>
<path d="m38.078 41.925c-1.2456-0.3178-2.3699-0.7665-3.332-0.7946h-3.3277c-0.9912 0.0287-2.1551 0.4923-3.4458 0.8239 0.9621 1.8185 5.0453 9.1104 5.0453 9.1104s4.1029-7.305 5.0602-9.1397z" clip-rule="evenodd" fill="#EADFB0" fill-rule="evenodd"/>
<path d="m35.269 30.306-1.9113-1.3891-1.8012-1.3024v0.7758l3.8925 2.4722-0.18-0.5565z" clip-rule="evenodd" fill="#D6CEA8" fill-rule="evenodd"/>
<path d="m35.269 30.306-0.5437-1.7716v-0.6495l-0.7139 0.4192-0.5987 0.3395 1.2375 1.2382 0.6188 0.4242z" clip-rule="evenodd" fill="#D6CEA8" fill-rule="evenodd"/>
<path d="m32.303 49.803-5.1468-9.6084-2.4781 3.0748 7.6249 6.5336z" clip-rule="evenodd" fill="#FFFCF2" fill-rule="evenodd"/>
<path d="m33.637 49.803 5.1468-9.6084 2.4781 3.0748-7.6249 6.5336z" clip-rule="evenodd" fill="#FFFCF2" fill-rule="evenodd"/>
</svg>
