<svg width="25" height="30" viewBox="0 0 25 30" fill="none" xmlns="http://www.w3.org/2000/svg">
<path d="M24.5613 15.0788L21.2613 9.9325L24.4688 5.34875C24.6645 5.06625 24.7794 4.7356 24.8008 4.39256C24.8222 4.04952 24.7495 3.70715 24.5904 3.40248C24.4313 3.09781 24.1919 2.84243 23.8982 2.66398C23.6044 2.48552 23.2675 2.39078 22.9238 2.39H6.75V1.25C6.75 0.918479 6.61831 0.600536 6.38389 0.366116C6.14947 0.131695 5.83152 0 5.5 0C5.16848 0 4.85054 0.131695 4.61612 0.366116C4.3817 0.600536 4.25 0.918479 4.25 1.25C4.25 1.125 4.19375 1.6125 4.25 27.5H1.25C0.918479 27.5 0.600536 27.6317 0.366116 27.8661C0.131695 28.1005 0 28.4185 0 28.75C0 29.0815 0.131695 29.3995 0.366116 29.6339C0.600536 29.8683 0.918479 30 1.25 30H9.74C10.0715 30 10.3895 29.8683 10.6239 29.6339C10.8583 29.3995 10.99 29.0815 10.99 28.75C10.99 28.4185 10.8583 28.1005 10.6239 27.8661C10.3895 27.6317 10.0715 27.5 9.74 27.5H6.74V17.97H22.9763C23.3134 17.9695 23.6442 17.8784 23.9342 17.7064C24.2241 17.5343 24.4625 17.2875 24.6245 16.9918C24.7865 16.6961 24.866 16.3624 24.8549 16.0254C24.8438 15.6884 24.7424 15.3606 24.5613 15.0762V15.0788Z" fill="#333333"/>
</svg>
