<svg xmlns="http://www.w3.org/2000/svg" xmlns:xlink="http://www.w3.org/1999/xlink" viewBox="0 0 44.63 48.12"><defs><style>.cls-1,.cls-2{fill:none;}.cls-1{clip-rule:evenodd;}.cls-3{clip-path:url(#clip-path);}.cls-4{clip-path:url(#clip-path-2);}.cls-5{fill:#fed940;}.cls-6{clip-path:url(#clip-path-3);}.cls-7{fill:#fed329;}.cls-8{clip-path:url(#clip-path-5);}.cls-9{fill:#efe4b5;}.cls-10{clip-path:url(#clip-path-7);}.cls-11{fill:#dfd6af;}.cls-12{clip-path:url(#clip-path-9);}.cls-13{fill:#f7efcb;}.cls-14{clip-path:url(#clip-path-11);}.cls-15{clip-path:url(#clip-path-13);}.cls-16{clip-path:url(#clip-path-15);}.cls-17{fill:#302100;}.cls-18{clip-path:url(#clip-path-17);}.cls-19{clip-path:url(#clip-path-19);}.cls-20{isolation:isolate;}.cls-21{clip-path:url(#clip-path-21);}.cls-22{clip-path:url(#clip-path-22);}.cls-23{clip-path:url(#clip-path-24);}.cls-24{clip-path:url(#clip-path-26);}.cls-25{clip-path:url(#clip-path-28);}.cls-26{clip-path:url(#clip-path-30);}.cls-27{clip-path:url(#clip-path-32);}.cls-28{clip-path:url(#clip-path-34);}.cls-29{clip-path:url(#clip-path-36);}.cls-30{clip-path:url(#clip-path-38);}.cls-31{clip-path:url(#clip-path-40);}.cls-32{clip-path:url(#clip-path-42);}.cls-33{fill:#d6cea8;}.cls-34{clip-path:url(#clip-path-44);}.cls-35{clip-path:url(#clip-path-46);}.cls-36{clip-path:url(#clip-path-48);}.cls-37{fill:#feec9d;}.cls-38{clip-path:url(#clip-path-50);}.cls-39{fill:#ffe88c;}.cls-40{clip-path:url(#clip-path-52);}.cls-41{clip-path:url(#clip-path-54);}.cls-42{clip-path:url(#clip-path-56);}.cls-43{clip-path:url(#clip-path-58);}.cls-44{clip-path:url(#clip-path-60);}.cls-45{clip-path:url(#clip-path-62);}.cls-46{clip-path:url(#clip-path-64);}.cls-47{fill:#d4bf61;}.cls-48{clip-path:url(#clip-path-66);}.cls-49{fill:#fffcf2;}.cls-50{clip-path:url(#clip-path-68);}.cls-51{clip-path:url(#clip-path-70);}.cls-52{fill:#eadfb0;}.cls-53{clip-path:url(#clip-path-72);}.cls-54{clip-path:url(#clip-path-74);}.cls-55{clip-path:url(#clip-path-76);}.cls-56{fill:#f3ebc6;}.cls-57{clip-path:url(#clip-path-78);}.cls-58{clip-path:url(#clip-path-80);}.cls-59{clip-path:url(#clip-path-82);}.cls-60{fill:#f1edc3;}.cls-61{clip-path:url(#clip-path-84);}.cls-62{clip-path:url(#clip-path-86);}.cls-63{clip-path:url(#clip-path-88);}.cls-64{clip-path:url(#clip-path-90);}.cls-65{clip-path:url(#clip-path-92);}</style><clipPath id="clip-path" transform="translate(4.38 4.37)"><polygon class="cls-1" points="21.07 18.19 19.25 34.31 27.17 35.88 35.88 30.93 34.06 18.19 27.63 16.63 21.07 18.19"/></clipPath><clipPath id="clip-path-2" transform="translate(4.38 4.37)"><rect class="cls-2" x="-68.25" y="-1228.5" width="1195.25" height="3141.25"/></clipPath><clipPath id="clip-path-3" transform="translate(4.38 4.37)"><polygon class="cls-1" points="27.13 36.75 35 31.97 33.28 18.16 27.13 16.63 27.13 36.75"/></clipPath><clipPath id="clip-path-5" transform="translate(4.38 4.37)"><polygon class="cls-1" points="27.1 19.25 26.25 14.88 28.88 14.88 28.02 19.25 27.1 19.25"/></clipPath><clipPath id="clip-path-7" transform="translate(4.38 4.37)"><polygon class="cls-1" points="26.25 14.88 28 14.88 27.46 18.38 26.25 14.88"/></clipPath><clipPath id="clip-path-9" transform="translate(4.38 4.37)"><path class="cls-1" d="M21.92,3.26l.94,5.55v3.61L26.72,15h1.22l3.87-2.6V8.35l.79-5.09s-10.68,0-10.68,0"/></clipPath><clipPath id="clip-path-11" transform="translate(4.38 4.37)"><path class="cls-1" d="M27.5,3.25V15h.9l3.74-2.6V8.21l.92-5H27.5"/></clipPath><clipPath id="clip-path-13" transform="translate(4.38 4.37)"><path class="cls-1" d="M29.87,17.9,28,17.69H26.74c-.49,0-1.83.21-1.83.21l2.48,2.88Z"/></clipPath><clipPath id="clip-path-15" transform="translate(4.38 4.37)"><path class="cls-1" d="M27.31,3.83v0h0Zm-3.87,6s-2.87-8.08,3.87-6h.07c6.74-2.07,4,6,4,6l.72-.4.43-.28c.73-3.33,1.62-3.62,1.62-3.62-1.66.2,1-5.16-5.44-4.49a1.45,1.45,0,0,0-1.3.87A1.39,1.39,0,0,0,26.11,1c-6.4-.67-3.79,4.69-5.45,4.49,0,0,.89.29,1.62,3.62l.44.28Zm3.93-6v0h0Z"/></clipPath><clipPath id="clip-path-17" transform="translate(4.38 4.37)"><polygon class="cls-1" points="23.14 10.34 22.86 12.06 22.86 10.34 23.14 10.34"/></clipPath><clipPath id="clip-path-19" transform="translate(4.38 4.37)"><rect class="cls-2" y="16.68" width="16.57" height="19.02"/></clipPath><clipPath id="clip-path-21" transform="translate(4.38 4.37)"><rect class="cls-2" y="16.62" width="16.63" height="19.25"/></clipPath><clipPath id="clip-path-22" transform="translate(4.38 4.37)"><polygon class="cls-1" points="1.81 18.23 8.35 16.68 14.75 18.23 16.57 34.16 7.89 35.7 0 34.16 1.81 18.23"/></clipPath><clipPath id="clip-path-24" transform="translate(4.38 4.37)"><polygon class="cls-1" points="8.28 36.98 16.57 35.49 14.75 18.23 8.28 16.68 8.28 36.98"/></clipPath><clipPath id="clip-path-26" transform="translate(4.38 4.37)"><path class="cls-1" d="M22.86,8.86h0a.8.8,0,1,0,0,1.59h0Z"/></clipPath><clipPath id="clip-path-28" transform="translate(4.38 4.37)"><path class="cls-1" d="M32.14,10.34v0Z"/></clipPath><clipPath id="clip-path-30" transform="translate(4.38 4.37)"><path class="cls-1" d="M32.14,8.86h0a.71.71,0,0,1,.69.79.71.71,0,0,1-.69.8h0Z"/></clipPath><clipPath id="clip-path-32" transform="translate(4.38 4.37)"><polygon class="cls-1" points="7.85 18.69 6.99 14.35 9.64 14.35 8.78 18.69 7.85 18.69"/></clipPath><clipPath id="clip-path-34" transform="translate(4.38 4.37)"><polygon class="cls-1" points="7.5 14.35 9.64 14.35 8.99 17.74 7.5 14.35"/></clipPath><clipPath id="clip-path-36" transform="translate(4.38 4.37)"><path class="cls-1" d="M3,3.26,4,8.81v3.61L7.84,15H9.06l3.86-2.6V8.35l.8-5.09S3,3.26,3,3.26"/></clipPath><clipPath id="clip-path-38" transform="translate(4.38 4.37)"><path class="cls-1" d="M8.61,3.25V15h1.1l3.54-2.6V8.21l1.12-5H8.61"/></clipPath><clipPath id="clip-path-40" transform="translate(4.38 4.37)"><path class="cls-1" d="M10.79,17.9,9,17.69H7.67c-.49,0-1.83.21-1.83.21l2.47,2.88Z"/></clipPath><clipPath id="clip-path-42" transform="translate(4.38 4.37)"><polygon class="cls-1" points="9.14 11.98 8.37 11.26 7.62 10.75 7.62 10.43 7.62 10.95 9.53 12.28 9.14 11.98"/></clipPath><clipPath id="clip-path-44" transform="translate(4.38 4.37)"><polygon class="cls-1" points="9.49 12.28 9.28 11.23 9.28 10.43 9.28 10.75 8.57 11.27 9.49 12.28"/></clipPath><clipPath id="clip-path-46" transform="translate(4.38 4.37)"><polygon class="cls-1" points="28.22 11.98 27.25 11.26 26.5 10.75 26.5 10.43 26.5 10.95 28.41 12.28 28.22 11.98"/></clipPath><clipPath id="clip-path-48" transform="translate(4.38 4.37)"><polygon class="cls-1" points="9.28 23.69 17.64 21.69 25.84 23.69 28.16 37.37 17.06 39.38 6.96 37.37 9.28 23.69"/></clipPath><clipPath id="clip-path-50" transform="translate(4.38 4.37)"><polygon class="cls-1" points="17.56 39.29 28.16 37.37 25.84 23.69 17.56 21.69 17.56 39.29"/></clipPath><clipPath id="clip-path-52" transform="translate(4.38 4.37)"><polygon class="cls-1" points="28.37 12.28 28.16 11.23 28.16 10.43 28.16 10.75 27.46 11.27 28.37 12.28"/></clipPath><clipPath id="clip-path-54" transform="translate(4.38 4.37)"><path class="cls-1" d="M8.23,3.83v0h0ZM4.44,4.2c.63-.7,1.79-1,3.79-.37h0l.06,0c6.71-2,3.94,6,3.94,6l.72-.4.44-.28c.57-2.59,1.09-5.88-1.27-7.06.42-1-1.35-1.94-1.35-1.94.44.75-.29,1.23-.88,1.48l-.56,0C10.3-.69,6.73.15,6.73.15c.85.52.38,1.14-.06,1.51l-.34,0c.17-.87-2.57-.5-2.57-.5,1.37.91-2.71,2.27-.9,5.74a15.67,15.67,0,0,0,.35,2.21l.43.28.72.4a9.53,9.53,0,0,1-.45-4.62ZM8.3,3.85l0,0-.06,0Z"/></clipPath><clipPath id="clip-path-56" transform="translate(4.38 4.37)"><polygon class="cls-1" points="4.44 10.34 3.98 12.06 3.98 10.34 4.44 10.34"/></clipPath><clipPath id="clip-path-58" transform="translate(4.38 4.37)"><path class="cls-1" d="M4,8.86h0c-.44,0-1,.35-1,.79s.59.8,1,.8H4Z"/></clipPath><clipPath id="clip-path-60" transform="translate(4.38 4.37)"><polygon class="cls-1" points="12.65 10.34 12.92 12.06 12.92 10.34 12.65 10.34"/></clipPath><clipPath id="clip-path-62" transform="translate(4.38 4.37)"><path class="cls-1" d="M12.92,8.86h0a.8.8,0,1,1,0,1.59h0Z"/></clipPath><clipPath id="clip-path-64" transform="translate(4.38 4.37)"><path class="cls-1" d="M17.56,5.47c-1.75-1.61-7.34-.71-5.76,5,1.47,6-.78,6.55-1.75,6.86a.89.89,0,0,1-.86-.1s.32,6.62,8.37,2.26Z"/></clipPath><clipPath id="clip-path-66" transform="translate(4.38 4.37)"><polygon class="cls-1" points="17.23 26.67 14.4 21.52 17.23 21.11 17.23 26.67"/></clipPath><clipPath id="clip-path-68" transform="translate(4.38 4.37)"><polygon class="cls-1" points="17.89 26.67 20.53 21.52 17.89 21.11 17.89 26.67"/></clipPath><clipPath id="clip-path-70" transform="translate(4.38 4.37)"><polygon class="cls-1" points="17 22.69 16.24 18.69 19.13 18.69 18.37 22.69 17 22.69"/></clipPath><clipPath id="clip-path-72" transform="translate(4.38 4.37)"><path class="cls-1" d="M17.56,5.47c1.75-1.61,7.34-.71,5.76,5-1.47,6,1.07,6.55,2,6.86.55.18.57-.1.57-.1s-.32,6.62-8.37,2.26Z"/></clipPath><clipPath id="clip-path-74" transform="translate(4.38 4.37)"><polygon class="cls-1" points="16.79 18.69 19.13 18.69 18.52 22.17 16.79 18.69"/></clipPath><clipPath id="clip-path-76" transform="translate(4.38 4.37)"><polygon class="cls-1" points="12.59 9.68 12.59 12.15 12.59 16.83 17.08 19.69 17.83 19.69 22.53 16.83 22.53 11.88 22.53 9.68 12.59 9.68"/></clipPath><clipPath id="clip-path-78" transform="translate(4.38 4.37)"><polygon class="cls-1" points="17.56 19.69 17.83 19.69 22.53 16.83 22.53 11.88 22.53 9.68 17.56 9.68 17.56 19.69"/></clipPath><clipPath id="clip-path-80" transform="translate(4.38 4.37)"><path class="cls-1" d="M12.59,11.92h0c-.48,0-.61.39-.61.87s.13.87.61.87h0Z"/></clipPath><clipPath id="clip-path-82" transform="translate(4.38 4.37)"><path class="cls-1" d="M22.59,11.92h-.06v1.74h.06a.87.87,0,1,0,0-1.74"/></clipPath><clipPath id="clip-path-84" transform="translate(4.38 4.37)"><path class="cls-1" d="M20.39,22.45A10.16,10.16,0,0,0,18.6,22H16.82a10.94,10.94,0,0,0-1.84.44c.51,1,2.7,4.88,2.7,4.88s2.2-3.91,2.71-4.89"/></clipPath><clipPath id="clip-path-86" transform="translate(4.38 4.37)"><polygon class="cls-1" points="18.89 16.23 17.86 15.48 16.9 14.98 16.9 14.64 16.9 15.2 18.89 16.56 18.89 16.23"/></clipPath><clipPath id="clip-path-88" transform="translate(4.38 4.37)"><polygon class="cls-1" points="18.78 16.56 18.55 15.2 18.55 14.64 18.55 14.98 17.74 15.48 17.66 15.47 17.64 15.48 18.78 16.56"/></clipPath><clipPath id="clip-path-90" transform="translate(4.38 4.37)"><polygon class="cls-1" points="17.3 26.67 14.54 21.52 13.21 23.17 17.3 26.67"/></clipPath><clipPath id="clip-path-92" transform="translate(4.38 4.37)"><polygon class="cls-1" points="18.01 26.67 20.77 21.52 22.09 23.17 18.01 26.67"/></clipPath></defs><g id="Layer_2" data-name="Layer 2"><g id="Layer_1-2" data-name="Layer 1"><g class="cls-3"><g class="cls-4"><rect class="cls-5" x="19.25" y="16.62" width="25.38" height="28"/></g></g><g class="cls-6"><g class="cls-4"><rect class="cls-7" x="27.13" y="16.62" width="16.63" height="28.88"/></g></g><g class="cls-8"><g class="cls-4"><rect class="cls-9" x="26.25" y="14.87" width="11.38" height="13.13"/></g></g><g class="cls-10"><g class="cls-4"><rect class="cls-11" x="26.25" y="14.87" width="10.5" height="12.25"/></g></g><g class="cls-12"><g class="cls-4"><rect class="cls-13" x="21.92" y="3.25" width="19.43" height="20.51"/></g></g><g class="cls-14"><g class="cls-4"><rect class="cls-9" x="27.5" y="3.25" width="14.32" height="20.51"/></g></g><g class="cls-15"><g class="cls-4"><rect class="cls-9" x="24.91" y="17.69" width="13.71" height="11.85"/></g></g><g class="cls-16"><g class="cls-4"><rect class="cls-17" x="20.66" y="0.98" width="22.21" height="17.6"/></g></g><g class="cls-18"><g class="cls-4"><rect class="cls-9" x="22.86" y="10.34" width="9.03" height="10.46"/></g></g><g class="cls-19"><g class="cls-4"><g class="cls-20"><g class="cls-21"><g class="cls-22"><g class="cls-21"><rect class="cls-5" y="16.68" width="25.32" height="27.77"/></g></g></g></g></g></g><g class="cls-23"><g class="cls-4"><rect class="cls-7" x="8.28" y="16.68" width="17.03" height="29.04"/></g></g><g class="cls-24"><g class="cls-4"><rect class="cls-13" x="21.98" y="8.86" width="9.63" height="10.35"/></g></g><g class="cls-25"><g class="cls-4"><rect class="cls-11" x="32.14" y="10.34" width="8.75" height="10.46"/></g></g><g class="cls-26"><g class="cls-4"><rect class="cls-9" x="32.14" y="8.86" width="9.47" height="10.35"/></g></g><g class="cls-27"><g class="cls-4"><rect class="cls-9" x="6.99" y="14.35" width="11.4" height="13.09"/></g></g><g class="cls-28"><g class="cls-4"><rect class="cls-11" x="7.5" y="14.35" width="10.9" height="12.14"/></g></g><g class="cls-29"><g class="cls-4"><rect class="cls-13" x="3.04" y="3.25" width="19.43" height="20.51"/></g></g><g class="cls-30"><g class="cls-4"><rect class="cls-9" x="8.61" y="3.25" width="14.51" height="20.51"/></g></g><g class="cls-31"><g class="cls-4"><rect class="cls-9" x="5.84" y="17.69" width="13.71" height="11.85"/></g></g><g class="cls-32"><g class="cls-4"><rect class="cls-33" x="7.62" y="10.43" width="10.66" height="10.6"/></g></g><g class="cls-34"><g class="cls-4"><rect class="cls-33" x="8.57" y="10.43" width="9.66" height="10.6"/></g></g><g class="cls-35"><g class="cls-4"><rect class="cls-33" x="26.5" y="10.43" width="10.66" height="10.6"/></g></g><g class="cls-36"><g class="cls-4"><rect class="cls-37" x="6.96" y="21.69" width="29.95" height="26.44"/></g></g><g class="cls-38"><g class="cls-4"><rect class="cls-39" x="17.56" y="21.69" width="19.35" height="26.35"/></g></g><g class="cls-40"><g class="cls-4"><rect class="cls-33" x="27.46" y="10.43" width="9.66" height="10.6"/></g></g><g class="cls-41"><g class="cls-4"><rect class="cls-17" x="2.39" width="20.27" height="18.58"/></g></g><g class="cls-42"><g class="cls-4"><rect class="cls-9" x="3.98" y="10.34" width="9.22" height="10.46"/></g></g><g class="cls-43"><g class="cls-4"><rect class="cls-13" x="2.91" y="8.86" width="9.82" height="10.35"/></g></g><g class="cls-44"><g class="cls-4"><rect class="cls-11" x="12.65" y="10.34" width="9.02" height="10.46"/></g></g><g class="cls-45"><g class="cls-4"><rect class="cls-9" x="12.92" y="8.86" width="9.61" height="10.35"/></g></g><g class="cls-46"><g class="cls-4"><rect class="cls-47" x="9.19" y="4.76" width="17.12" height="24.94"/></g></g><g class="cls-48"><g class="cls-4"><rect class="cls-49" x="14.4" y="21.11" width="11.57" height="14.31"/></g></g><g class="cls-50"><g class="cls-4"><rect class="cls-49" x="17.89" y="21.11" width="11.39" height="14.31"/></g></g><g class="cls-51"><g class="cls-4"><rect class="cls-52" x="16.24" y="18.69" width="11.65" height="12.75"/></g></g><g class="cls-53"><g class="cls-4"><rect class="cls-47" x="17.56" y="4.76" width="17.12" height="24.94"/></g></g><g class="cls-54"><g class="cls-4"><rect class="cls-33" x="16.79" y="18.69" width="11.09" height="12.24"/></g></g><g class="cls-55"><g class="cls-4"><rect class="cls-56" x="12.59" y="9.68" width="18.69" height="18.76"/></g></g><g class="cls-57"><g class="cls-4"><rect class="cls-9" x="17.56" y="9.68" width="13.72" height="18.76"/></g></g><g class="cls-58"><g class="cls-4"><rect class="cls-56" x="11.95" y="11.92" width="9.39" height="10.49"/></g></g><g class="cls-59"><g class="cls-4"><rect class="cls-60" x="22.53" y="11.92" width="9.74" height="10.49"/></g></g><g class="cls-61"><g class="cls-4"><rect class="cls-52" x="14.98" y="22.02" width="14.16" height="14.07"/></g></g><g class="cls-62"><g class="cls-4"><rect class="cls-33" x="16.9" y="14.64" width="10.74" height="10.67"/></g></g><g class="cls-63"><g class="cls-4"><rect class="cls-33" x="17.64" y="14.64" width="9.89" height="10.67"/></g></g><g class="cls-64"><g class="cls-4"><rect class="cls-49" x="13.21" y="21.52" width="12.83" height="13.89"/></g></g><g class="cls-65"><g class="cls-4"><rect class="cls-49" x="18.01" y="21.52" width="12.83" height="13.89"/></g></g></g></g></svg>
