<svg width="18" height="18" viewBox="0 0 18 18" fill="none" xmlns="http://www.w3.org/2000/svg">
<path fill-rule="evenodd" clip-rule="evenodd" d="M9 1C4.58222 1 1 4.58222 1 9C1 13.4178 4.58222 17 9 17C13.4178 17 17 13.4178 17 9C17 4.58222 13.4178 1 9 1ZM10.125 9.50006C10.125 10.1211 9.62215 10.6251 9.00002 10.6251C8.37788 10.6251 7.875 10.1211 7.875 9.50006V6.12502C7.875 5.50401 8.37788 5 9.00002 5C9.62215 5 10.125 5.50401 10.125 6.12502V9.50006ZM7.875 12.875C7.875 12.254 8.37901 11.75 9.00002 11.75C9.62103 11.75 10.125 12.254 10.125 12.875C10.125 13.496 9.62103 14 9.00002 14C8.37901 14 7.875 13.496 7.875 12.875Z" fill="#669DF3"/>
</svg>
