<svg width="18" height="18" viewBox="0 0 18 18" fill="none" xmlns="http://www.w3.org/2000/svg">
<path fill-rule="evenodd" clip-rule="evenodd" d="M17 9C17 13.4183 13.4183 17 9 17C4.58172 17 1 13.4183 1 9C1 4.58172 4.58172 1 9 1C13.4183 1 17 4.58172 17 9ZM4.81882 8.40001C5.21298 8.01316 5.84612 8.01908 6.23297 8.41325L7.83716 10.0478L12.3863 5.71972C12.7864 5.33904 13.4194 5.35481 13.8001 5.75494C14.1808 6.15506 14.165 6.78803 13.7649 7.16871L8.5024 12.1754C8.10666 12.5519 7.48203 12.5412 7.09942 12.1514L4.80558 9.81416C4.41873 9.42 4.42466 8.78686 4.81882 8.40001Z" fill="#33AD73"/>
<mask id="mask0" mask-type="alpha" maskUnits="userSpaceOnUse" x="1" y="1" width="16" height="16">
<path fill-rule="evenodd" clip-rule="evenodd" d="M9 17C13.4183 17 17 13.4183 17 9C17 4.58172 13.4183 1 9 1C4.58172 1 1 4.58172 1 9C1 13.4183 4.58172 17 9 17Z" fill="white"/>
</mask>
<g mask="url(#mask0)">
</g>
</svg>
