<svg width="18" height="18" viewBox="0 0 18 18" fill="none" xmlns="http://www.w3.org/2000/svg">
<path fill-rule="evenodd" clip-rule="evenodd" d="M9.99114 0.546758C9.59738 -0.182253 8.40262 -0.182253 8.00886 0.546758L0.133747 16.297C-0.0530056 16.6457 -0.0440054 17.089 0.159623 17.4299C0.362125 17.7696 0.728881 18.0003 1.12489 18.0003H16.8751C17.2711 18.0003 17.6379 17.7696 17.8404 17.4299C18.044 17.089 18.053 16.6457 17.8663 16.297L9.99114 0.546758ZM10.125 10.0801C10.125 10.7012 9.62213 11.2052 9 11.2052C8.37787 11.2052 7.87498 10.7012 7.87498 10.0801V6.7051C7.87498 6.08409 8.37787 5.58008 9 5.58008C9.62213 5.58008 10.125 6.08409 10.125 6.7051V10.0801ZM9 12.3302C8.37899 12.3302 7.87498 12.8342 7.87498 13.4552C7.87498 14.0762 8.37899 14.5802 9 14.5802C9.62101 14.5802 10.125 14.0762 10.125 13.4552C10.125 12.8342 9.62101 12.3302 9 12.3302Z" fill="#FBB224"/>
<mask id="mask0" mask-type="alpha" maskUnits="userSpaceOnUse" x="0" y="0" width="18" height="19">
<path fill-rule="evenodd" clip-rule="evenodd" d="M9.99114 0.546758C9.59738 -0.182253 8.40262 -0.182253 8.00886 0.546758L0.133747 16.297C-0.0530056 16.6457 -0.0440054 17.089 0.159623 17.4299C0.362125 17.7696 0.728881 18.0003 1.12489 18.0003H16.8751C17.2711 18.0003 17.6379 17.7696 17.8404 17.4299C18.044 17.089 18.053 16.6457 17.8663 16.297L9.99114 0.546758ZM10.125 10.0801C10.125 10.7012 9.62213 11.2052 9 11.2052C8.37787 11.2052 7.87498 10.7012 7.87498 10.0801V6.7051C7.87498 6.08409 8.37787 5.58008 9 5.58008C9.62213 5.58008 10.125 6.08409 10.125 6.7051V10.0801ZM9 12.3302C8.37899 12.3302 7.87498 12.8342 7.87498 13.4552C7.87498 14.0762 8.37899 14.5802 9 14.5802C9.62101 14.5802 10.125 14.0762 10.125 13.4552C10.125 12.8342 9.62101 12.3302 9 12.3302Z" fill="white"/>
</mask>
<g mask="url(#mask0)">
</g>
</svg>
