<svg width="21" height="21" viewBox="0 0 21 21" fill="none" xmlns="http://www.w3.org/2000/svg">
<circle cx="10.5" cy="10.5" r="9.66" fill="white" stroke="#33AD73" stroke-width="1.68"/>
<path d="M10.2855 14.5113C12.3015 14.5113 13.5993 13.4907 13.5993 12.0417C13.5993 10.7817 12.4905 10.1139 11.6337 10.0257C12.5661 9.86191 13.4733 9.16891 13.4733 8.11051C13.4733 6.71191 12.2637 5.82991 10.2981 5.82991C8.82393 5.82991 7.76553 6.39691 7.08513 7.16551L7.97973 8.28691C8.57193 7.71991 9.30273 7.41751 10.1217 7.41751C10.9911 7.41751 11.6841 7.74511 11.6841 8.41291C11.6841 9.03031 11.0541 9.30751 10.1217 9.30751C9.80673 9.30751 9.22713 9.30751 9.07593 9.29491V10.9077C9.20193 10.8951 9.76893 10.8825 10.1217 10.8825C11.2935 10.8825 11.8101 11.1849 11.8101 11.8527C11.8101 12.4827 11.2431 12.9237 10.2225 12.9237C9.40353 12.9237 8.48373 12.5709 7.91673 11.9661L6.97173 13.1631C7.58913 13.9191 8.74833 14.5113 10.2855 14.5113Z" fill="#33AD73"/>
</svg>
