<svg width="19" height="21" viewBox="0 0 19 21" fill="none" xmlns="http://www.w3.org/2000/svg">
<path d="M18.979 9.40152L18.8699 10.1979C18.5914 12.2244 18.3041 14.3194 17.9565 16.3735C17.5466 18.7968 15.9406 20.1875 13.5512 20.1875C13.5512 20.1875 13.5512 20.1875 13.5507 20.1875C13.4783 20.1875 13.405 20.1861 13.3302 20.1832C11.9433 20.135 10.5495 19.9407 9.20155 19.7527C8.79078 19.6958 8.38 19.638 7.96968 19.5844C7.10543 19.4721 6.25416 19.3367 5.35741 19.1925C5.1323 19.7956 4.59063 19.8896 4.11301 19.8949C3.17727 19.9021 2.24386 19.9045 1.30951 19.8939C0.418794 19.8843 0.00383894 19.4529 0.00291062 18.5345C-0.00126678 15.3949 -0.000802623 12.2543 0.00337478 9.11566C0.0052314 8.2147 0.442466 7.74904 1.30301 7.73024C2.2601 7.70999 3.21719 7.70999 4.17382 7.73024C4.86216 7.7447 5.2734 8.03971 5.41822 8.62734C6.16272 8.24748 6.70532 7.56248 7.27438 6.84518L7.40434 6.68128C7.70419 6.30432 8.03049 5.95001 8.34611 5.60823C8.52296 5.41637 8.70026 5.22451 8.87247 5.0288C9.57659 4.22907 9.80681 3.24471 9.94931 1.9152C9.95302 1.87905 9.95488 1.84049 9.9572 1.80144C9.96091 1.73925 9.96416 1.67755 9.97112 1.61633C10.1155 0.280556 10.7681 0 11.2898 0C11.5785 0 11.9085 0.0862879 12.2989 0.264166C13.7294 0.915905 14.402 2.56357 13.9332 4.27101C13.7805 4.82248 13.6222 5.37106 13.4639 5.91964C13.3687 6.25081 13.2736 6.58198 13.1789 6.91363L13.5753 6.89339C14.4205 6.84807 15.2945 6.8018 16.1518 6.77432C16.5413 6.76227 16.9627 6.80662 17.3433 6.90496C18.415 7.18117 19.134 8.27785 18.979 9.40152Z" fill="#33AD73"/>
</svg>
