<svg width="53" height="55" viewBox="0 0 23 25" fill="none" xmlns="http://www.w3.org/2000/svg">
<path fill="#ffdc95" d="M19.723 6.68995L20.38 6.03294C20.5622 5.84434 20.6629 5.59174 20.6607 5.32954C20.6584 5.06735 20.5532 4.81653 20.3678 4.63113C20.1824 4.44572 19.9316 4.34055 19.6694 4.33827C19.4072 4.33599 19.1546 4.43679 18.966 4.61895L18.309 5.27595C16.6746 3.91937 14.6688 3.08776 12.554 2.88995V2.04395H13.136C13.4012 2.04395 13.6555 1.93859 13.8431 1.75105C14.0306 1.56352 14.136 1.30916 14.136 1.04395C14.136 0.778729 14.0306 0.524374 13.8431 0.336838C13.6555 0.149301 13.4012 0.0439453 13.136 0.0439453H9.97303C9.70781 0.0439453 9.45341 0.149301 9.26587 0.336838C9.07834 0.524374 8.97303 0.778729 8.97303 1.04395C8.97303 1.30916 9.07834 1.56352 9.26587 1.75105C9.45341 1.93859 9.70781 2.04395 9.97303 2.04395H10.554V2.88995C8.44024 3.08845 6.43566 3.92079 4.80298 5.27795L4.14301 4.61895C4.0501 4.52611 3.93979 4.45247 3.81843 4.40224C3.69706 4.35202 3.56699 4.32619 3.43564 4.32624C3.3043 4.32629 3.17426 4.3522 3.05292 4.40251C2.93159 4.45282 2.82133 4.52654 2.72849 4.61945C2.63565 4.71236 2.56204 4.82265 2.51182 4.94402C2.46159 5.06538 2.43575 5.19545 2.4358 5.3268C2.43584 5.45815 2.46175 5.5882 2.51206 5.70953C2.56237 5.83087 2.6361 5.9411 2.72901 6.03394L3.38901 6.69295C2.10671 8.24277 1.29186 10.1255 1.03965 12.1211C0.787438 14.1168 1.10829 16.143 1.9647 17.9631C2.8211 19.7832 4.17773 21.3221 5.8761 22.4C7.57448 23.4778 9.54451 24.0502 11.556 24.0502C13.5676 24.0502 15.5375 23.4778 17.2359 22.4C18.9343 21.3221 20.2909 19.7832 21.1473 17.9631C22.0038 16.143 22.3245 14.1168 22.0723 12.1211C21.8201 10.1255 21.0053 8.24277 19.723 6.69295V6.68995ZM11.553 21.0399C10.0494 21.0399 8.57969 20.594 7.32966 19.7584C6.07963 18.9229 5.10552 17.7353 4.53058 16.346C3.95565 14.9567 3.80574 13.4281 4.0998 11.9536C4.39386 10.479 5.11868 9.12488 6.18256 8.0624C7.24644 6.99992 8.60157 6.27688 10.0765 5.98476C11.5514 5.69265 13.0798 5.84457 14.4683 6.42133C15.8569 6.99809 17.0431 7.97376 17.877 9.22489C18.7109 10.476 19.155 11.9464 19.153 13.4499C19.1528 14.4474 18.9559 15.4351 18.5737 16.3565C18.1916 17.2779 17.6317 18.115 16.9258 18.8198C16.22 19.5247 15.3822 20.0836 14.4603 20.4645C13.5384 20.8455 12.5505 21.041 11.553 21.0399Z"/>
<path fill="#fab221" d="M12.554 13.0299V9.25293C12.554 8.98771 12.4486 8.73336 12.2611 8.54582C12.0736 8.35829 11.8192 8.25293 11.554 8.25293C11.2888 8.25293 11.0344 8.35829 10.8469 8.54582C10.6593 8.73336 10.554 8.98771 10.554 9.25293V13.4439C10.5541 13.7091 10.6594 13.9634 10.847 14.1509L12.575 15.8789C12.6679 15.9718 12.7781 16.0456 12.8994 16.0959C13.0207 16.1462 13.1508 16.1721 13.2822 16.1721C13.4135 16.1722 13.5435 16.1464 13.6649 16.0961C13.7863 16.0459 13.8966 15.9723 13.9895 15.8794C14.0824 15.7866 14.1561 15.6763 14.2064 15.555C14.2567 15.4337 14.2827 15.3036 14.2827 15.1723C14.2828 15.0409 14.2569 14.9109 14.2067 14.7895C14.1565 14.6681 14.0828 14.5578 13.99 14.4649L12.554 13.0299Z"/>
</svg>
