<svg width="142" height="18" viewBox="0 0 142 18" fill="none" xmlns="http://www.w3.org/2000/svg">
<rect width="142" height="18" rx="2" fill="#FFC3BF"/>
<path d="M11.1716 12.108C12.7826 12.108 13.5746 11.28 13.5746 10.182C13.5746 7.941 10.1276 8.58 10.1276 7.635C10.1276 7.275 10.4336 7.041 10.9736 7.041C11.5856 7.041 12.2336 7.248 12.7196 7.698L13.4306 6.744C12.8366 6.195 12.0446 5.907 11.0906 5.907C9.67765 5.907 8.81365 6.735 8.81365 7.734C8.81365 9.993 12.2696 9.264 12.2696 10.308C12.2696 10.659 11.9366 10.974 11.2256 10.974C10.3976 10.974 9.74065 10.596 9.31765 10.155L8.61565 11.154C9.18265 11.721 10.0106 12.108 11.1716 12.108ZM18.8991 12V10.875H15.9291V9.507H18.8361V8.382H15.9291V7.122H18.8991V5.997H14.6511V12H18.8991ZM23.0392 12.108C24.1192 12.108 24.9742 11.667 25.5862 10.983V8.679H22.7242V9.795H24.3082V10.515C24.0652 10.74 23.5702 10.974 23.0392 10.974C21.9412 10.974 21.1492 10.137 21.1492 9.003C21.1492 7.869 21.9412 7.032 23.0392 7.032C23.6692 7.032 24.1822 7.392 24.4612 7.815L25.5142 7.239C25.0642 6.528 24.2812 5.898 23.0392 5.898C21.2752 5.898 19.8352 7.104 19.8352 9.003C19.8352 10.893 21.2752 12.108 23.0392 12.108ZM33.3327 12V5.997H31.5327L30.0747 9.75L28.6167 5.997H26.8257V12H28.1037V7.671L29.7957 12H30.3537L32.0457 7.671V12H33.3327ZM38.998 12V10.875H36.028V9.507H38.935V8.382H36.028V7.122H38.998V5.997H34.75V12H38.998ZM45.595 12V5.997H44.317V9.768L41.536 5.997H40.222V12H41.5V8.085L44.362 12H45.595ZM49.6767 12V7.122H51.4227V5.997H46.6347V7.122H48.3897V12H49.6767ZM55.1002 12.108C56.9092 12.108 58.2322 10.812 58.2322 9.003C58.2322 7.194 56.9092 5.898 55.1002 5.898C53.2822 5.898 51.9592 7.194 51.9592 9.003C51.9592 10.812 53.2822 12.108 55.1002 12.108ZM55.1002 10.974C53.9842 10.974 53.2732 10.119 53.2732 9.003C53.2732 7.878 53.9842 7.032 55.1002 7.032C56.2072 7.032 56.9182 7.878 56.9182 9.003C56.9182 10.119 56.2072 10.974 55.1002 10.974ZM65.1486 12C66.3006 12 66.8946 11.28 66.8946 10.371C66.8946 9.624 66.3906 9.003 65.7426 8.904C66.3096 8.787 66.7776 8.274 66.7776 7.527C66.7776 6.726 66.1926 5.997 65.0496 5.997H61.8906V12H65.1486ZM64.7706 8.382H63.1686V7.122H64.7706C65.2026 7.122 65.4726 7.383 65.4726 7.752C65.4726 8.139 65.2026 8.382 64.7706 8.382ZM64.8246 10.875H63.1686V9.507H64.8246C65.3196 9.507 65.5896 9.813 65.5896 10.191C65.5896 10.623 65.3016 10.875 64.8246 10.875ZM71.8544 12V10.875H69.3164V5.997H68.0294V12H71.8544ZM75.5471 12.108C77.3561 12.108 78.6791 10.812 78.6791 9.003C78.6791 7.194 77.3561 5.898 75.5471 5.898C73.7291 5.898 72.4061 7.194 72.4061 9.003C72.4061 10.812 73.7291 12.108 75.5471 12.108ZM75.5471 10.974C74.4311 10.974 73.7201 10.119 73.7201 9.003C73.7201 7.878 74.4311 7.032 75.5471 7.032C76.6541 7.032 77.3651 7.878 77.3651 9.003C77.3651 10.119 76.6541 10.974 75.5471 10.974ZM82.6539 12.108C83.1669 12.108 83.6529 12 84.0669 11.811L84.5529 12.369L85.4439 11.64L85.0029 11.127C85.4889 10.587 85.7859 9.849 85.7859 9.003C85.7859 7.194 84.4629 5.898 82.6539 5.898C80.8359 5.898 79.5129 7.194 79.5129 9.003C79.5129 10.812 80.8359 12.108 82.6539 12.108ZM82.6539 10.974C81.5379 10.974 80.8269 10.119 80.8269 9.003C80.8269 7.878 81.5379 7.032 82.6539 7.032C83.7609 7.032 84.4719 7.878 84.4719 9.003C84.4719 9.435 84.3639 9.831 84.1659 10.146L83.5089 9.372L82.6179 10.101L83.2749 10.875C83.0859 10.938 82.8789 10.974 82.6539 10.974ZM89.6168 12.108C91.4438 12.108 92.3258 11.082 92.3258 9.597V5.997H91.0208V9.561C91.0208 10.398 90.5438 10.974 89.6168 10.974C88.6898 10.974 88.2038 10.398 88.2038 9.561V5.997H86.9078V9.597C86.9078 11.082 87.7898 12.108 89.6168 12.108ZM97.9901 12V10.875H95.0201V9.507H97.9271V8.382H95.0201V7.122H97.9901V5.997H93.7421V12H97.9901ZM104.812 12L102.499 5.997H100.897L98.5842 12H100.033L100.411 10.983H102.985L103.363 12H104.812ZM102.634 9.858H100.762L101.698 7.275L102.634 9.858ZM107.968 12C109.84 12 111.145 10.812 111.145 8.994C111.145 7.194 109.84 5.997 107.959 5.997H105.592V12H107.968ZM107.959 10.875H106.87V7.122H107.968C109.192 7.122 109.84 7.941 109.84 8.994C109.84 10.02 109.147 10.875 107.959 10.875ZM115.13 12.108C116.939 12.108 118.262 10.812 118.262 9.003C118.262 7.194 116.939 5.898 115.13 5.898C113.312 5.898 111.989 7.194 111.989 9.003C111.989 10.812 113.312 12.108 115.13 12.108ZM115.13 10.974C114.014 10.974 113.303 10.119 113.303 9.003C113.303 7.878 114.014 7.032 115.13 7.032C116.237 7.032 116.948 7.878 116.948 9.003C116.948 10.119 116.237 10.974 115.13 10.974Z" fill="#E34F45"/>
<path d="M124 0H140C141.105 0 142 0.895431 142 2V16C142 17.1046 141.105 18 140 18H124V0Z" fill="#E34F45"/>
<path fill-rule="evenodd" clip-rule="evenodd" d="M133 14C130.239 14 128 11.7614 128 9C128 6.23858 130.239 4 133 4C135.761 4 138 6.23858 138 9C138 11.7614 135.761 14 133 14ZM133 12.75C135.071 12.75 136.75 11.0711 136.75 9C136.75 8.18973 136.493 7.43949 136.056 6.82632L130.83 12.0586C131.442 12.494 132.191 12.75 133 12.75ZM129.945 11.1755C129.507 10.562 129.25 9.81107 129.25 9C129.25 6.92893 130.929 5.25 133 5.25C133.81 5.25 134.559 5.50651 135.172 5.94268L129.945 11.1755Z" fill="white"/>
</svg>
