<svg width="22" height="19" viewBox="0 0 22 19" fill="none" xmlns="http://www.w3.org/2000/svg">
<path fill-rule="evenodd" clip-rule="evenodd" d="M12.5243 0.577125C12.0628 -0.192375 10.6622 -0.192375 10.2007 0.577125L0.969281 17.2021C0.750366 17.5702 0.760916 18.0381 0.999613 18.3979C1.23699 18.7566 1.66691 19 2.13112 19H20.5939C21.0581 19 21.488 18.7566 21.7254 18.3979C21.9641 18.0381 21.9746 17.5702 21.7557 17.2021L12.5243 0.577125ZM12.6809 10.6406C12.6809 11.2961 12.0914 11.8281 11.3622 11.8281C10.6329 11.8281 10.0434 11.2961 10.0434 10.6406V7.07812C10.0434 6.42263 10.6329 5.89062 11.3622 5.89062C12.0914 5.89062 12.6809 6.42263 12.6809 7.07812V10.6406ZM11.3622 13.0156C10.6342 13.0156 10.0434 13.5476 10.0434 14.2031C10.0434 14.8586 10.6342 15.3906 11.3622 15.3906C12.0901 15.3906 12.6809 14.8586 12.6809 14.2031C12.6809 13.5476 12.0901 13.0156 11.3622 13.0156Z" fill="#FBB224"/>
</svg>
