<?xml version="1.0" encoding="UTF-8"?>
<svg width="15px" height="15px" viewBox="0 0 15 15" version="1.1" xmlns="http://www.w3.org/2000/svg" xmlns:xlink="http://www.w3.org/1999/xlink">
    <!-- Generator: Sketch 60.1 (88133) - https://sketch.com -->
    <title>Group 22</title>
    <desc>Created with Sketch.</desc>
    <defs>
        <polygon id="path-1" points="3.0788472e-05 0.0123353672 14.9786701 0.0123353672 14.9786701 6.82864066 3.0788472e-05 6.82864066"></polygon>
    </defs>
    <g id="Historial-del-suscriptor---estetica-nueva" stroke="none" stroke-width="1" fill="none" fill-rule="evenodd">
        <g id="Historial-del-suscriptor-busqueda" transform="translate(-766.000000, -626.000000)">
            <g id="Group-22" transform="translate(766.000000, 626.000000)">
                <path d="M7.56332992,8.20659675 C5.29437852,8.21050356 3.44788235,6.37022223 3.44845767,4.10568259 C3.44907161,1.85357261 5.29238363,0.00653936608 7.54587468,4.38760139e-13 C9.80784399,-0.00658083853 11.6551074,1.84022223 11.6543404,4.10744729 C11.6535345,6.37379001 9.82829156,8.20267747 7.56332992,8.20659675" id="Fill-1" fill="#979797"></path>
                <g id="Group-5" transform="translate(0.000000, 8.179295)">
                    <mask id="mask-2" fill="white">
                        <use xlink:href="#path-1"></use>
                    </mask>
                    <g id="Clip-4"></g>
                    <path d="M10.0438619,0.136262148 C9.5941688,0.403730179 8.72159847,0.817016624 7.53966752,0.884037084 C7.50629156,0.885955243 7.47241688,0.885955243 7.43904092,0.884037084 C6.25707161,0.817016624 5.38450128,0.403730179 4.93480818,0.136262148 C4.69618926,-0.00571994885 4.40420716,-0.0278938619 4.14878517,0.0810959079 C0.704539642,1.55052046 0.082826087,4.43604476 0.00138107417,5.91187596 C-0.0261636829,6.41009847 0.371240409,6.82864066 0.870191816,6.82864066 L7.48933504,6.82864066 L14.1084783,6.82864066 C14.6074297,6.82864066 15.0047954,6.41009847 14.9773274,5.91187596 C14.8958824,4.43604476 14.2741688,1.55052046 10.8298849,0.0810959079 C10.5744629,-0.0278938619 10.2825192,-0.00571994885 10.0438619,0.136262148" id="Fill-3" fill="#979797" mask="url(#mask-2)"></path>
                </g>
            </g>
        </g>
    </g>
</svg>