<?xml version="1.0" encoding="UTF-8"?>
<svg width="20px" height="20px" viewBox="0 0 20 20" version="1.1" xmlns="http://www.w3.org/2000/svg" xmlns:xlink="http://www.w3.org/1999/xlink">
    <!-- Generator: Sketch 60.1 (88133) - https://sketch.com -->
    <title>Group</title>
    <desc>Created with Sketch.</desc>
    <defs>
        <polygon id="path-1" points="3.0788472e-05 0.0123353672 14.9786701 0.0123353672 14.9786701 6.82864066 3.0788472e-05 6.82864066"></polygon>
    </defs>
    <g id="Historial-del-suscriptor---estetica-nueva" stroke="none" stroke-width="1" fill="none" fill-rule="evenodd">
        <g id="Historial-del-suscriptor-busqueda" transform="translate(-766.000000, -585.000000)">
            <g id="Group" transform="translate(766.000000, 585.000000)">
                <g id="Group-6-Copy-6">
                    <path d="M7.56332992,8.2065983 C5.29437852,8.21050512 3.44788235,6.37022379 3.44845767,4.10568414 C3.44907161,1.85357417 5.29238363,0.00654092072 7.54587468,1.55464095e-06 C9.80784399,-0.00657928389 11.6551074,1.84022379 11.6543404,4.10744885 C11.6535345,6.37379156 9.82829156,8.20267903 7.56332992,8.2065983" id="Fill-1" fill="#666666"></path>
                    <g id="Group-5" transform="translate(0.000000, 8.179297)">
                        <mask id="mask-2" fill="white">
                            <use xlink:href="#path-1"></use>
                        </mask>
                        <g id="Clip-4"></g>
                        <path d="M10.0438619,0.136262148 C9.5941688,0.403730179 8.72159847,0.817016624 7.53966752,0.884037084 C7.50629156,0.885955243 7.47241688,0.885955243 7.43904092,0.884037084 C6.25707161,0.817016624 5.38450128,0.403730179 4.93480818,0.136262148 C4.69618926,-0.00571994885 4.40420716,-0.0278938619 4.14878517,0.0810959079 C0.704539642,1.55052046 0.082826087,4.43604476 0.00138107417,5.91187596 C-0.0261636829,6.41009847 0.371240409,6.82864066 0.870191816,6.82864066 L7.48933504,6.82864066 L14.1084783,6.82864066 C14.6074297,6.82864066 15.0047954,6.41009847 14.9773274,5.91187596 C14.8958824,4.43604476 14.2741688,1.55052046 10.8298849,0.0810959079 C10.5744629,-0.0278938619 10.2825192,-0.00571994885 10.0438619,0.136262148" id="Fill-3" fill="#666666" mask="url(#mask-2)"></path>
                    </g>
                </g>
                <g id="icons/help-icon-red" transform="translate(8.000000, 8.000000)">
                    <path d="M0.666666667,6 C0.666666667,3.05481481 3.05481481,0.666666667 6,0.666666667 C8.94518519,0.666666667 11.3333333,3.05481481 11.3333333,6 C11.3333333,8.94518519 8.94518519,11.3333333 6,11.3333333 C3.05481481,11.3333333 0.666666667,8.94518519 0.666666667,6 Z" id="Fill-4" fill="#999999" fill-rule="evenodd"></path>
                    <path d="M6.40666667,8.36 C6.48030463,8.36 6.54,8.41969537 6.54,8.49333333 L6.54,8.49333333 L6.54,9.33333333 C6.54,9.4069713 6.48030463,9.46666667 6.40666667,9.46666667 L6.40666667,9.46666667 L5.51333333,9.46666667 C5.43969537,9.46666667 5.38,9.4069713 5.38,9.33333333 L5.38,9.33333333 L5.38,8.49333333 C5.38,8.41969537 5.43969537,8.36 5.51333333,8.36 L5.51333333,8.36 Z" id="Fill-6" fill="#FFFFFF" fill-rule="nonzero"></path>
                    <path d="M6.05333333,3.2 C6.66816609,3.2 7.17283949,3.36228014 7.55296411,3.68502746 C7.93755246,4.01156473 8.13333333,4.43606158 8.13333333,4.94666667 C8.13333333,5.25489381 8.06127313,5.50987606 7.91380763,5.71936367 C7.7868081,5.89081303 7.55938896,6.1218124 7.23382984,6.41011469 L7.00991489,6.60725125 C6.7934676,6.80518094 6.65003441,6.97807358 6.57925696,7.11962848 C6.50172785,7.2746867 6.46,7.51114451 6.46,7.82666667 C6.46,7.90030463 6.40030463,7.96 6.32666667,7.96 L5.53333333,7.96 C5.45969537,7.96 5.4,7.90030463 5.4,7.82666667 C5.4,7.41423891 5.45169641,7.09372114 5.564114,6.84081076 C5.6734569,6.58567731 5.90541427,6.30488681 6.26475149,5.98701209 L6.71580698,5.58501164 C6.77081549,5.52992788 6.82033021,5.46914692 6.86370771,5.40410534 C6.96874034,5.25239153 7.02,5.09861256 7.02,4.94 C7.02,4.70545975 6.94504374,4.51170488 6.78739074,4.34233934 C6.64137338,4.17947381 6.38879197,4.09333333 6.02,4.09333333 C5.56432424,4.09333333 5.26269574,4.23834704 5.09576575,4.52615186 C5.00104376,4.69191535 4.94579261,4.93901077 4.9332385,5.27169453 C4.93053546,5.34332513 4.87168158,5.4 4.8,5.4 L4,5.4 C3.92636203,5.4 3.86666667,5.34030463 3.86666667,5.26666667 C3.86666667,4.78887796 3.98355913,4.38080459 4.21859318,4.04532786 L4.30131519,3.936195 C4.34828559,3.87879787 4.39907782,3.8237568 4.45369916,3.77108853 C4.84495103,3.38720388 5.37679555,3.2 6.05333333,3.2 Z" id="Fill-6" fill="#FFFFFF" fill-rule="nonzero"></path>
                </g>
            </g>
        </g>
    </g>
</svg>