<?xml version="1.0" encoding="UTF-8"?>
<svg width="20px" height="20px" viewBox="0 0 20 20" version="1.1" xmlns="http://www.w3.org/2000/svg" xmlns:xlink="http://www.w3.org/1999/xlink">
    <!-- Generator: Sketch 60.1 (88133) - https://sketch.com -->
    <title>Group 21</title>
    <desc>Created with Sketch.</desc>
    <defs>
        <polygon id="path-1" points="3.0788472e-05 0.0123353672 14.9786701 0.0123353672 14.9786701 6.82864066 3.0788472e-05 6.82864066"></polygon>
        <path d="M6,0.666666667 C8.94666667,0.666666667 11.3333333,3.05333333 11.3333333,6 C11.3333333,8.94666667 8.94666667,11.3333333 6,11.3333333 C3.05333333,11.3333333 0.666666667,8.94666667 0.666666667,6 C0.666666667,3.05333333 3.05333333,0.666666667 6,0.666666667 Z M8.41684227,5.53658537 L3.58315773,5.53658537 C3.22162728,5.53658537 2.925,5.8350622 2.925,6.20325203 L2.925,6.20325203 L2.93213612,6.30234572 C2.97914465,6.62536508 3.25271184,6.8699187 3.58315773,6.8699187 L3.58315773,6.8699187 L8.41684227,6.8699187 C8.77837272,6.8699187 9.075,6.57144187 9.075,6.20325203 L9.075,6.20325203 L9.06786388,6.10415834 C9.02085535,5.78113899 8.74728816,5.53658537 8.41684227,5.53658537 L8.41684227,5.53658537 Z" id="path-3"></path>
    </defs>
    <g id="Historial-del-suscriptor---estetica-nueva" stroke="none" stroke-width="1" fill="none" fill-rule="evenodd">
        <g id="Historial-del-suscriptor-busqueda" transform="translate(-766.000000, -702.000000)">
            <g id="Group-21" transform="translate(766.000000, 702.000000)">
                <g id="Group-6-Copy-5">
                    <path d="M7.56332992,8.2065983 C5.29437852,8.21050512 3.44788235,6.37022379 3.44845767,4.10568414 C3.44907161,1.85357417 5.29238363,0.00654092072 7.54587468,1.55464095e-06 C9.80784399,-0.00657928389 11.6551074,1.84022379 11.6543404,4.10744885 C11.6535345,6.37379156 9.82829156,8.20267903 7.56332992,8.2065983" id="Fill-1" fill="#666666"></path>
                    <g id="Group-5" transform="translate(0.000000, 8.179297)">
                        <mask id="mask-2" fill="white">
                            <use xlink:href="#path-1"></use>
                        </mask>
                        <g id="Clip-4"></g>
                        <path d="M10.0438619,0.136262148 C9.5941688,0.403730179 8.72159847,0.817016624 7.53966752,0.884037084 C7.50629156,0.885955243 7.47241688,0.885955243 7.43904092,0.884037084 C6.25707161,0.817016624 5.38450128,0.403730179 4.93480818,0.136262148 C4.69618926,-0.00571994885 4.40420716,-0.0278938619 4.14878517,0.0810959079 C0.704539642,1.55052046 0.082826087,4.43604476 0.00138107417,5.91187596 C-0.0261636829,6.41009847 0.371240409,6.82864066 0.870191816,6.82864066 L7.48933504,6.82864066 L14.1084783,6.82864066 C14.6074297,6.82864066 15.0047954,6.41009847 14.9773274,5.91187596 C14.8958824,4.43604476 14.2741688,1.55052046 10.8298849,0.0810959079 C10.5744629,-0.0278938619 10.2825192,-0.00571994885 10.0438619,0.136262148" id="Fill-3" fill="#666666" mask="url(#mask-2)"></path>
                    </g>
                </g>
                <g id="Group-14-Copy-5" transform="translate(8.000000, 8.000000)" fill="#FFFFFF">
                    <g id="Group-7">
                        <circle id="Oval" cx="6" cy="6" r="5.14285714"></circle>
                    </g>
                </g>
                <g id="icons/status-removed" transform="translate(8.000000, 8.000000)">
                    <mask id="mask-4" fill="white">
                        <use xlink:href="#path-3"></use>
                    </mask>
                    <use id="Combined-Shape" fill="#E34F45" fill-rule="evenodd" xlink:href="#path-3"></use>
                </g>
            </g>
        </g>
    </g>
</svg>