<?xml version="1.0" encoding="UTF-8"?>
<svg width="20px" height="20px" viewBox="0 0 20 20" version="1.1" xmlns="http://www.w3.org/2000/svg" xmlns:xlink="http://www.w3.org/1999/xlink">
    <!-- Generator: Sketch 60.1 (88133) - https://sketch.com -->
    <title>Group 18</title>
    <desc>Created with Sketch.</desc>
    <defs>
        <polygon id="path-1" points="3.0788472e-05 0.0123353672 14.9786701 0.0123353672 14.9786701 6.82864066 3.0788472e-05 6.82864066"></polygon>
        <path d="M6,0.666666667 C8.94551867,0.666666667 11.3333333,3.05448133 11.3333333,6 C11.3333333,8.94551867 8.94551867,11.3333333 6,11.3333333 C3.05448133,11.3333333 0.666666667,8.94551867 0.666666667,6 C0.666666667,3.05448133 3.05448133,0.666666667 6,0.666666667 Z M8.42634403,3.5032671 C8.19976567,3.27668874 7.83240956,3.27668874 7.60583121,3.5032671 L7.60583121,3.5032671 L5.96433333,5.14333333 L4.39416879,3.57365597 L4.31381491,3.50652165 C4.08769374,3.34987488 3.77505896,3.37225299 3.57365597,3.57365597 L3.57365597,3.57365597 L3.50652165,3.65400986 C3.34987488,3.88013103 3.37225299,4.19276581 3.57365597,4.39416879 L3.57365597,4.39416879 L5.14333333,5.96433333 L3.5032671,7.60583121 C3.27668874,7.83240956 3.27668874,8.19976567 3.5032671,8.42634403 C3.72984546,8.65292238 4.09720156,8.65292238 4.32377992,8.42634403 L4.32377992,8.42634403 L5.96433333,6.78533333 L7.67622008,8.4967329 L7.75657397,8.56386723 C7.98269513,8.72051399 8.29532991,8.69813588 8.4967329,8.4967329 L8.4967329,8.4967329 L8.56386723,8.41637901 C8.72051399,8.19025785 8.69813588,7.87762306 8.4967329,7.67622008 L8.4967329,7.67622008 L6.78533333,5.96433333 L8.42634403,4.32377992 C8.65292238,4.09720156 8.65292238,3.72984546 8.42634403,3.5032671 Z" id="path-3"></path>
    </defs>
    <g id="Historial-del-suscriptor---estetica-nueva" stroke="none" stroke-width="1" fill="none" fill-rule="evenodd">
        <g id="Historial-del-suscriptor-busqueda" transform="translate(-766.000000, -741.000000)">
            <g id="Group-18" transform="translate(766.000000, 741.000000)">
                <g id="Group-6-Copy-7">
                    <path d="M7.56332992,8.2065983 C5.29437852,8.21050512 3.44788235,6.37022379 3.44845767,4.10568414 C3.44907161,1.85357417 5.29238363,0.00654092072 7.54587468,1.55464095e-06 C9.80784399,-0.00657928389 11.6551074,1.84022379 11.6543404,4.10744885 C11.6535345,6.37379156 9.82829156,8.20267903 7.56332992,8.2065983" id="Fill-1" fill="#666666"></path>
                    <g id="Group-5" transform="translate(0.000000, 8.179297)">
                        <mask id="mask-2" fill="white">
                            <use xlink:href="#path-1"></use>
                        </mask>
                        <g id="Clip-4"></g>
                        <path d="M10.0438619,0.136262148 C9.5941688,0.403730179 8.72159847,0.817016624 7.53966752,0.884037084 C7.50629156,0.885955243 7.47241688,0.885955243 7.43904092,0.884037084 C6.25707161,0.817016624 5.38450128,0.403730179 4.93480818,0.136262148 C4.69618926,-0.00571994885 4.40420716,-0.0278938619 4.14878517,0.0810959079 C0.704539642,1.55052046 0.082826087,4.43604476 0.00138107417,5.91187596 C-0.0261636829,6.41009847 0.371240409,6.82864066 0.870191816,6.82864066 L7.48933504,6.82864066 L14.1084783,6.82864066 C14.6074297,6.82864066 15.0047954,6.41009847 14.9773274,5.91187596 C14.8958824,4.43604476 14.2741688,1.55052046 10.8298849,0.0810959079 C10.5744629,-0.0278938619 10.2825192,-0.00571994885 10.0438619,0.136262148" id="Fill-3" fill="#666666" mask="url(#mask-2)"></path>
                    </g>
                </g>
                <circle id="Oval-Copy-7" fill="#FFFFFF" cx="14" cy="14" r="5.14285714"></circle>
                <g id="icons/status-cancel-icon-red" transform="translate(8.000000, 8.000000)">
                    <mask id="mask-4" fill="white">
                        <use xlink:href="#path-3"></use>
                    </mask>
                    <use id="Combined-Shape" fill="#E34F45" fill-rule="evenodd" xlink:href="#path-3"></use>
                </g>
            </g>
        </g>
    </g>
</svg>