<?xml version="1.0" encoding="UTF-8"?>
<svg width="20px" height="20px" viewBox="0 0 20 20" version="1.1" xmlns="http://www.w3.org/2000/svg" xmlns:xlink="http://www.w3.org/1999/xlink">
    <!-- Generator: Sketch 60.1 (88133) - https://sketch.com -->
    <title>Group 20</title>
    <desc>Created with Sketch.</desc>
    <defs>
        <polygon id="path-1" points="3.0788472e-05 0.0123353672 14.9786701 0.0123353672 14.9786701 6.82864066 3.0788472e-05 6.82864066"></polygon>
        <circle id="path-3" cx="6" cy="6" r="5.33333333"></circle>
    </defs>
    <g id="Historial-del-suscriptor---estetica-nueva" stroke="none" stroke-width="1" fill="none" fill-rule="evenodd">
        <g id="Historial-del-suscriptor-busqueda" transform="translate(-766.000000, -663.000000)">
            <g id="Group-20" transform="translate(766.000000, 663.000000)">
                <g id="Group-6-Copy-3">
                    <path d="M7.56332992,8.2065983 C5.29437852,8.21050512 3.44788235,6.37022379 3.44845767,4.10568414 C3.44907161,1.85357417 5.29238363,0.00654092072 7.54587468,1.55464095e-06 C9.80784399,-0.00657928389 11.6551074,1.84022379 11.6543404,4.10744885 C11.6535345,6.37379156 9.82829156,8.20267903 7.56332992,8.2065983" id="Fill-1" fill="#666666"></path>
                    <g id="Group-5" transform="translate(0.000000, 8.179297)">
                        <mask id="mask-2" fill="white">
                            <use xlink:href="#path-1"></use>
                        </mask>
                        <g id="Clip-4"></g>
                        <path d="M10.0438619,0.136262148 C9.5941688,0.403730179 8.72159847,0.817016624 7.53966752,0.884037084 C7.50629156,0.885955243 7.47241688,0.885955243 7.43904092,0.884037084 C6.25707161,0.817016624 5.38450128,0.403730179 4.93480818,0.136262148 C4.69618926,-0.00571994885 4.40420716,-0.0278938619 4.14878517,0.0810959079 C0.704539642,1.55052046 0.082826087,4.43604476 0.00138107417,5.91187596 C-0.0261636829,6.41009847 0.371240409,6.82864066 0.870191816,6.82864066 L7.48933504,6.82864066 L14.1084783,6.82864066 C14.6074297,6.82864066 15.0047954,6.41009847 14.9773274,5.91187596 C14.8958824,4.43604476 14.2741688,1.55052046 10.8298849,0.0810959079 C10.5744629,-0.0278938619 10.2825192,-0.00571994885 10.0438619,0.136262148" id="Fill-3" fill="#666666" mask="url(#mask-2)"></path>
                    </g>
                </g>
                <g id="Group-15" transform="translate(8.000000, 8.000000)">
                    <circle id="Oval" fill="#FFFFFF" cx="6" cy="6" r="5.14285714"></circle>
                    <g id="icons/status-cancel-icon-red-copy">
                        <mask id="mask-4" fill="white">
                            <use xlink:href="#path-3"></use>
                        </mask>
                        <use id="Combined-Shape" fill="#E34F45" fill-rule="evenodd" xlink:href="#path-3"></use>
                        <path d="M6,2.53333333 C7.9069713,2.53333333 9.46666667,4.0930287 9.46666667,6 C9.46666667,7.9069713 7.9069713,9.46666667 6,9.46666667 C4.0930287,9.46666667 2.53333333,7.9069713 2.53333333,6 C2.53333333,4.0930287 4.0930287,2.53333333 6,2.53333333 Z M8.08488583,4.57034264 L4.57034264,8.08488583 L4.71324701,8.1773641 C5.10106325,8.41030266 5.54136032,8.53333333 6,8.53333333 C7.3930287,8.53333333 8.53333333,7.3930287 8.53333333,6 C8.53333333,5.48403036 8.37762263,4.99127559 8.08488583,4.57034264 Z M6,3.46666667 C4.6069713,3.46666667 3.46666667,4.6069713 3.46666667,6 C3.46666667,6.51596964 3.62237737,7.00872441 3.91511417,7.42965736 L7.42965736,3.91511417 L7.28675299,3.8226359 C6.89893675,3.58969734 6.45863968,3.46666667 6,3.46666667 Z" id="Combined-Shape" fill="#FFFFFF" fill-rule="nonzero" mask="url(#mask-4)"></path>
                    </g>
                </g>
            </g>
        </g>
    </g>
</svg>