<?xml version="1.0" encoding="UTF-8"?>
<svg width="43px" height="43px" viewBox="0 0 43 43" version="1.1" xmlns="http://www.w3.org/2000/svg" xmlns:xlink="http://www.w3.org/1999/xlink">
    <!-- Generator: Sketch 53.2 (72643) - https://sketchapp.com -->
    <title>Combined Shape</title>
    <desc>Created with Sketch.</desc>
    <g id="Signup---Signin" stroke="none" stroke-width="1" fill="none" fill-rule="evenodd">
        <g id="image01-copy-2" transform="translate(-44.000000, -704.000000)" fill="#FAB221">
            <path d="M67.8673774,705.306125 L86.6798774,742.931125 C87.1260024,743.76425 87.1045024,744.823125 86.6180649,745.637438 C86.1343149,746.449062 85.2581899,747 84.3121899,747 L46.6871899,747 C45.7411899,747 44.8650649,746.449062 44.3813149,745.637438 C43.8948774,744.823125 43.8733774,743.76425 44.3195024,742.931125 L63.1320024,705.306125 C64.0726274,703.564625 66.9267524,703.564625 67.8673774,705.306125 Z M68.1871899,728.08 L68.1871899,720.0175 C68.1871899,718.534 66.9858774,717.33 65.4996899,717.33 C64.0135024,717.33 62.8121899,718.534 62.8121899,720.0175 L62.8121899,728.08 C62.8121899,729.5635 64.0135024,730.7675 65.4996899,730.7675 C66.9858774,730.7675 68.1871899,729.5635 68.1871899,728.08 Z M62.8121899,736.1425 C62.8121899,737.626 64.0161899,738.83 65.4996899,738.83 C66.9831899,738.83 68.1871899,737.626 68.1871899,736.1425 C68.1871899,734.659 66.9831899,733.455 65.4996899,733.455 C64.0161899,733.455 62.8121899,734.659 62.8121899,736.1425 Z" id="Combined-Shape"></path>
        </g>
    </g>
</svg>