<?xml version="1.0" encoding="UTF-8" standalone="no"?>
<svg width="53px" height="28px" viewBox="0 0 53 28" version="1.1" xmlns="http://www.w3.org/2000/svg" xmlns:xlink="http://www.w3.org/1999/xlink">
    <!-- Generator: Sketch 42 (36781) - http://www.bohemiancoding.com/sketch -->
    <title>arrow-friendly</title>
    <desc>Created with Sketch.</desc>
    <defs></defs>
    <g id="Symbols" stroke="none" stroke-width="1" fill="none" fill-rule="evenodd">
        <g id="arrow-friendly" fill="#666666">
            <path d="M6.04695188,4.28645298 C6.86010197,3.92959439 7.82870726,3.52029142 8.9526703,3.0584297 C9.75565716,2.6920568 10.1650884,2.43130591 10.1787324,2.2763161 C10.249196,2.14870387 10.295906,1.9490863 10.3201737,1.67693362 C10.3898439,0.903686524 10.1116316,0.343443762 9.48935806,-2.5313085e-14 C6.90740243,1.00504583 4.36543152,2.10528211 1.86121358,3.30084788 C0.6978744,3.88145011 0.0908476494,4.45158915 0.0401333304,5.011265 L0.0073346313,5.39820976 C-0.0702769046,6.26694473 0.468066811,6.98214753 1.62144527,7.54342743 C3.03142974,8.45480211 5.10806536,10.1630019 7.84833896,12.6700068 C8.71410615,13.3688431 9.18370083,13.721351 9.25712299,13.7275306 C10.4814546,13.6584212 11.1303071,13.1842541 11.2075015,12.3088239 L11.2149395,12.2196405 C11.1114206,12.054027 9.68315649,10.7557533 6.92869687,8.3231174 C6.08910028,7.60758171 5.40177242,7.03084452 4.86680015,6.59300774 C21.3893015,6.88411489 41.4612337,10.3740332 50.7205475,26.8214872 C51.1573365,27.5967868 52.6001024,27.3585845 52.2340533,26.6111394 C50.6551671,23.3771315 48.5268325,20.4291768 45.9221319,17.9406103 C38.4935137,10.8438608 28.3096742,7.30760226 18.3559001,5.59414103 C14.3215986,4.89898939 10.1737451,4.39345293 6.04695188,4.28645298 Z" id="Combined-Shape-Copy-2"></path>
        </g>
    </g>
</svg>