<?xml version="1.0" encoding="UTF-8"?>
<svg width="15px" height="16px" viewBox="0 0 15 16" version="1.1" xmlns="http://www.w3.org/2000/svg" xmlns:xlink="http://www.w3.org/1999/xlink">
    <!-- Generator: Sketch 53.1 (72631) - https://sketchapp.com -->
    <title>icons/upload-html-icon copy</title>
    <desc>Created with Sketch.</desc>
    <g id="Datahub-MVP" stroke="none" stroke-width="1" fill="none" fill-rule="evenodd">
        <g id="reports-datahub-loading" transform="translate(-679.000000, -764.000000)" fill="#33AD73">
            <g id="icons/actions-duplicate-icon" transform="translate(678.000000, 764.000000)">
                <path d="M13,13 L13,4 C13,3.44771525 12.5522847,3 12,3 L4,3 L4,1 C4,0.44771525 4.44771525,1.01453063e-16 5,0 L15,0 C15.5522847,-1.01453063e-16 16,0.44771525 16,1 L16,12 C16,12.5522847 15.5522847,13 15,13 L13,13 Z M2,4 L11,4 C11.5522847,4 12,4.44771525 12,5 L12,15 C12,15.5522847 11.5522847,16 11,16 L2,16 C1.44771525,16 1,15.5522847 1,15 L1,5 C1,4.44771525 1.44771525,4 2,4 Z M9,12 C8.44771525,12 8,12.4477153 8,13 L8,16 L12,12 L9,12 Z" id="Combined-Shape"></path>
            </g>
        </g>
    </g>
</svg>