<?xml version="1.0" encoding="UTF-8"?>
<svg width="21px" height="12px" viewBox="0 0 21 12" version="1.1" xmlns="http://www.w3.org/2000/svg" xmlns:xlink="http://www.w3.org/1999/xlink">
    <!-- Generator: Sketch 60.1 (88133) - https://sketch.com -->
    <title>icons/actions-arrange-by-AZ-icon Copy</title>
    <desc>Created with Sketch.</desc>
    <g id="Historial-del-suscriptor---estetica-nueva" stroke="none" stroke-width="1" fill="none" fill-rule="evenodd">
        <g id="Historial-del-suscriptor-busqueda" transform="translate(-714.000000, -512.000000)" fill="#999999">
            <g id="icons/actions-arrange-by-AZ-icon" transform="translate(714.000000, 512.000000)">
                <path d="M17.000777,0 C17.5726125,0 18.0367109,0.470588235 18.0367109,1.05042017 L18.0367109,1.05042017 L18.0367109,8.41176471 L19.2321787,7.19957983 C19.6361929,6.78991597 20.2929751,6.78991597 20.6969893,7.19957983 C21.1010036,7.6092437 21.1010036,8.27521008 20.6969893,8.68487395 L20.6969893,8.68487395 L17.7300745,11.6932773 C17.5373907,11.8886555 17.2742635,12 16.9987051,12 C16.7231466,12 16.4600194,11.8886555 16.2652638,11.6932773 L16.2652638,11.6932773 L13.3045646,8.68487395 C12.8984785,8.27521008 12.8984785,7.6092437 13.3045646,7.19957983 C13.7085788,6.78991597 14.3632891,6.78991597 14.7693752,7.19957983 L14.7693752,7.19957983 L15.964843,8.41386555 L15.964843,1.05042017 C15.964843,0.470588235 16.4268695,0 17.000777,0 Z M10.9975267,9 C11.5116309,9 11.9353477,9.38272018 11.9932556,9.88266744 L12,10 C12,10.5522847 11.544239,11 10.9975267,11 L1.00247329,11 C0.448822582,11 0,10.5561352 0,10 C0,9.44771525 0.455760956,9 1.00247329,9 L10.9975267,9 Z M11.0046024,5 C11.515078,5 11.935804,5.38272018 11.9933032,5.88266744 L12,6 C12,6.55228475 11.5443356,7 11.0046024,7 L2.99539757,7 C2.44565467,7 2,6.55613518 2,6 C2,5.44771525 2.4556644,5 2.99539757,5 L11.0046024,5 Z M11.0029699,1 C11.5142826,1 11.9356987,1.38272018 11.9932922,1.88266744 L12,2 C12,2.55228475 11.5469637,3 11.0029699,3 L4.99703014,3 C4.4463856,3 4,2.55613518 4,2 C4,1.44771525 4.45303631,1 4.99703014,1 L11.0029699,1 Z" id="Combined-Shape"></path>
            </g>
        </g>
    </g>
</svg>