<?xml version="1.0" encoding="UTF-8" standalone="no"?>
<svg width="16px" height="16px" viewBox="0 0 16 16" version="1.1" xmlns="http://www.w3.org/2000/svg" xmlns:xlink="http://www.w3.org/1999/xlink">
    <!-- Generator: Sketch 45 (43475) - http://www.bohemiancoding.com/sketch -->
    <title>calendar-icon</title>
    <desc>Created with Sketch.</desc>
    <defs></defs>
    <g id="Page-1" stroke="none" stroke-width="1" fill="none" fill-rule="evenodd">
        <g id="guidelines" transform="translate(-1166.000000, -3840.000000)" fill="#666666">
            <g id="calendar-icon" transform="translate(1166.000000, 3840.000000)">
                <path d="M14,3 L15,3 C15.5522847,3 16,3.44771525 16,4 L16,15 C16,15.5522847 15.5522847,16 15,16 L1,16 C0.44771525,16 6.76353751e-17,15.5522847 0,15 L0,4 C-6.76353751e-17,3.44771525 0.44771525,3 1,3 L2,3 L2,1 C2,0.44771525 2.44771525,1.01453063e-16 3,0 C3.55228475,-1.01453063e-16 4,0.44771525 4,1 L4,3 L12,3 L12,1 C12,0.44771525 12.4477153,1.01453063e-16 13,0 C13.5522847,-1.01453063e-16 14,0.44771525 14,1 L14,3 Z M11,11 L11,14 L14,14 L14,11 L11,11 Z" id="Combined-Shape"></path>
            </g>
        </g>
    </g>
</svg>