<?xml version="1.0" encoding="UTF-8" standalone="no"?>
<svg width="16px" height="16px" viewBox="0 0 16 16" version="1.1" xmlns="http://www.w3.org/2000/svg" xmlns:xlink="http://www.w3.org/1999/xlink">
    <!-- Generator: Sketch 42 (36781) - http://www.bohemiancoding.com/sketch -->
    <title>close-icon</title>
    <desc>Created with Sketch.</desc>
    <defs></defs>
    <g id="Symbols" stroke="none" stroke-width="1" fill="none" fill-rule="evenodd">
        <g id="close-icon" fill-rule="nonzero" fill="#666666">
            <path d="M14.3540216,12.5295269 L3.38577498,1.56128029 C2.99525069,1.17075599 2.36208571,1.17075599 1.97156142,1.56128029 C1.58103713,1.95180458 1.58103713,2.58496956 1.97156142,2.97549385 L12.939808,13.9437404 C13.3303323,14.3342647 13.9634973,14.3342647 14.3540216,13.9437404 C14.7445459,13.5532161 14.7445459,12.9200512 14.3540216,12.5295269 Z" id="Line"></path>
            <path d="M3.47047314,13.9437404 L14.4387197,2.97549385 C14.829244,2.58496956 14.829244,1.95180458 14.4387197,1.56128029 C14.0481954,1.17075599 13.4150304,1.17075599 13.0245062,1.56128029 L2.05625957,12.5295269 C1.66573528,12.9200512 1.66573528,13.5532161 2.05625957,13.9437404 C2.44678387,14.3342647 3.07994885,14.3342647 3.47047314,13.9437404 Z" id="Line"></path>
        </g>
    </g>
</svg>