<?xml version="1.0" encoding="UTF-8" standalone="no"?>
<svg width="13px" height="10px" viewBox="0 0 13 10" version="1.1" xmlns="http://www.w3.org/2000/svg" xmlns:xlink="http://www.w3.org/1999/xlink">
    <!-- Generator: Sketch 46.2 (44496) - http://www.bohemiancoding.com/sketch -->
    <title>colapse-icon</title>
    <desc>Created with Sketch.</desc>
    <defs></defs>
    <g id="Symbols" stroke="none" stroke-width="1" fill="none" fill-rule="evenodd">
        <g id="colapse-icon" fill-rule="nonzero" fill="#FBB224">
            <g id="Group-3">
                <path d="M7.28772395,4.04041088 C7.22863715,4.07842501 7.17267754,4.12328511 7.12097147,4.17499118 C6.73044718,4.56551547 6.73044718,5.19868045 7.12097147,5.58920474 L10.9072803,9.37551361 C11.2978046,9.7660379 11.9309696,9.7660379 12.3214939,9.37551361 C12.7120182,8.98498932 12.7120182,8.35182434 12.3214939,7.96130005 L9.25084007,4.89064622 L12.3802926,1.76119367 C12.7708169,1.37066938 12.7708169,0.7375044 12.3802926,0.346980108 C11.9897683,-0.0435441839 11.3566033,-0.0435441839 10.9660791,0.346980108 L7.38380231,3.92925686 C7.34860367,3.96445549 7.31657755,4.00162527 7.28772395,4.04041088 Z M0.924087583,4.04041088 C0.865000785,4.07842501 0.809041175,4.12328511 0.757335106,4.17499118 C0.366810814,4.56551547 0.366810814,5.19868045 0.757335106,5.58920474 L4.54364398,9.37551361 C4.93416827,9.7660379 5.56733325,9.7660379 5.95785754,9.37551361 C6.34838183,8.98498932 6.34838183,8.35182434 5.95785754,7.96130005 L2.88720371,4.89064622 L6.01665626,1.76119367 C6.40718055,1.37066938 6.40718055,0.7375044 6.01665626,0.346980108 C5.62613196,-0.0435441839 4.99296699,-0.0435441839 4.60244269,0.346980108 L1.02016595,3.92925686 C0.984967311,3.96445549 0.95294119,4.00162527 0.924087583,4.04041088 Z" id="Combined-Shape"></path>
            </g>
        </g>
    </g>
</svg>