<?xml version="1.0" encoding="utf-8"?>
<!-- Generator: Adobe Illustrator 19.0.0, SVG Export Plug-In . SVG Version: 6.00 Build 0)  -->
<svg version="1.1" id="Layer_1" xmlns="http://www.w3.org/2000/svg" xmlns:xlink="http://www.w3.org/1999/xlink" x="0px" y="0px"
	 viewBox="0 0 13 16" style="enable-background:new 0 0 13 16;" xml:space="preserve">
<title>delete-icon</title>
<desc>Created with Sketch.</desc>
<g id="XMLID_1_">
	<path id="XMLID_47_" fill="#676767" d="M12.4,1H9V0H4v1H0.6C0.3,1,0,1.3,0,1.6V3h4h5h4V1.6C13,1.3,12.7,1,12.4,1z"/>
	<path id="XMLID_50_" fill="#676767" d="M1,15.3C1,15.7,1.3,16,1.7,16h9.6c0.4,0,0.7-0.3,0.7-0.7V4H1V15.3z M9,6h1v8H9V6z M6,6h1v8H6V6
		z M3,6h1v8H3V6z"/>
</g>
</svg>
