<?xml version="1.0" encoding="UTF-8"?>
<svg width="16px" height="17px" viewBox="0 0 16 17" version="1.1" xmlns="http://www.w3.org/2000/svg" xmlns:xlink="http://www.w3.org/1999/xlink">
    <!-- Generator: Sketch 53.1 (72631) - https://sketchapp.com -->
    <title>icons/upload-html-icon copy</title>
    <desc>Created with Sketch.</desc>
    <g id="Datahub-MVP" stroke="none" stroke-width="1" fill="none" fill-rule="evenodd">
        <g id="reports-datahub-loading" transform="translate(-785.000000, -762.000000)" fill="#33AD73">
            <g id="icons/upload-html-icon-copy" transform="translate(785.000000, 762.000000)">
                <path d="M10.5462728,9.54627276 L8.93449477,11.1132791 C8.73031359,11.3117886 8.46271777,11.4113821 8.19512195,11.4113821 C7.92752613,11.4113821 7.65993031,11.3117886 7.45574913,11.1132791 L3.98606272,7.7399729 C3.57839721,7.34363144 3.57839721,6.7 3.98606272,6.30298103 C4.39442509,5.90596206 5.05644599,5.90596206 5.46480836,6.30298103 L7.14982578,7.94186992 L7.14982578,1.84173442 C7.14982578,1.2800813 7.6174216,0.825474255 8.19512195,0.825474255 C8.77212544,0.825474255 9.24041812,1.2800813 9.24041812,1.84173442 L9.24041812,7.94200542 L10.9261324,6.30311653 C11.3344948,5.90609756 11.9958188,5.90609756 12.4041812,6.30311653 C12.8125436,6.7001355 12.8125436,7.34376694 12.4041812,7.7401084 L10.5463415,9.54634146 L10.5462728,9.54627276 Z M15.7885017,14.7884824 L13.6979094,12.6976965 L13.6979094,10.7525745 C13.6979094,10.1909214 14.1662021,9.73631436 14.7432056,9.73631436 C15.3202091,9.73631436 15.7885017,10.1909214 15.7885017,10.7525745 L15.7885017,14.7884824 Z M13.6979094,12.6978997 L15.7885017,14.7886856 L15.7885017,15.1281165 C15.7885017,15.6890921 15.3202091,16.1443767 14.7432056,16.1443767 L1.22682927,16.1443767 C0.64912892,16.1443767 0.181533101,15.6890921 0.181533101,15.1281165 L0.181533101,10.7521003 C0.181533101,10.1911247 0.64912892,9.73584011 1.22682927,9.73584011 C1.80383275,9.73584011 2.27212544,10.1911247 2.27212544,10.7521003 L2.27212544,14.1118564 L13.6979094,14.1118564 L13.6979094,12.6978997 Z" id="Shape"></path>
            </g>
        </g>
    </g>
</svg>