<?xml version="1.0" encoding="UTF-8" standalone="no"?>
<svg width="15px" height="16px" viewBox="0 0 15 16" version="1.1" xmlns="http://www.w3.org/2000/svg" xmlns:xlink="http://www.w3.org/1999/xlink">
    <!-- Generator: Sketch 48.2 (47327) - http://www.bohemiancoding.com/sketch -->
    <title>icons/actions-duplicate-icon</title>
    <desc>Created with Sketch.</desc>
    <defs></defs>
    <g id="Listado-Formularios" stroke="none" stroke-width="1" fill="none" fill-rule="evenodd" transform="translate(-1406.000000, -473.000000)">
        <g id="icons/actions-duplicate-icon" transform="translate(1405.000000, 473.000000)" fill="#666666">
            <path d="M13,13 L15,13 C15.5522847,13 16,12.5522847 16,12 L16,1 C16,0.44771525 15.5522847,-1.01453063e-16 15,0 L5,0 C4.44771525,1.01453063e-16 4,0.44771525 4,1 L4,3 L12,3 C12.5522847,3 13,3.44771525 13,4 L13,13 Z" id="Combined-Shape"></path>
            <path d="M2,4 L11,4 C11.5522847,4 12,4.44771525 12,5 L12,15 C12,15.5522847 11.5522847,16 11,16 L2,16 C1.44771525,16 1,15.5522847 1,15 L1,5 C1,4.44771525 1.44771525,4 2,4 Z M9,12 C8.44771525,12 8,12.4477153 8,13 L8,16 L12,12 L9,12 Z" id="Combined-Shape"></path>
        </g>
    </g>
</svg>