<?xml version="1.0" encoding="UTF-8" standalone="no"?>
<svg width="17px" height="16px" viewBox="0 0 17 16" version="1.1" xmlns="http://www.w3.org/2000/svg" xmlns:xlink="http://www.w3.org/1999/xlink">
    <!-- Generator: Sketch 42 (36781) - http://www.bohemiancoding.com/sketch -->
    <title>Combined Shape</title>
    <desc>Created with Sketch.</desc>
    <defs></defs>
    <g id="Page-1" stroke="none" stroke-width="1" fill="none" fill-rule="evenodd">
        <g id="guidelines" transform="translate(-206.000000, -7155.000000)" fill="#65C192">
            <path d="M214.5,7158 C213.671573,7158 213,7157.32843 213,7156.5 C213,7155.67157 213.671573,7155 214.5,7155 C215.328427,7155 216,7155.67157 216,7156.5 C216,7157.32843 215.328427,7158 214.5,7158 Z M214.5,7171 C213.671573,7171 213,7170.32843 213,7169.5 C213,7168.67157 213.671573,7168 214.5,7168 C215.328427,7168 216,7168.67157 216,7169.5 C216,7170.32843 215.328427,7171 214.5,7171 Z M219.5,7163 C219.5,7162.17157 220.171573,7161.5 221,7161.5 C221.828427,7161.5 222.5,7162.17157 222.5,7163 C222.5,7163.82843 221.828427,7164.5 221,7164.5 C220.171573,7164.5 219.5,7163.82843 219.5,7163 Z M206.5,7163 C206.5,7162.17157 207.171573,7161.5 208,7161.5 C208.828427,7161.5 209.5,7162.17157 209.5,7163 C209.5,7163.82843 208.828427,7164.5 208,7164.5 C207.171573,7164.5 206.5,7163.82843 206.5,7163 Z M218.035534,7159.46447 C217.449747,7158.87868 217.449747,7157.92893 218.035534,7157.34315 C218.62132,7156.75736 219.571068,7156.75736 220.156854,7157.34315 C220.742641,7157.92893 220.742641,7158.87868 220.156854,7159.46447 C219.571068,7160.05025 218.62132,7160.05025 218.035534,7159.46447 Z M208.843146,7168.65685 C208.257359,7168.07107 208.257359,7167.12132 208.843146,7166.53553 C209.428932,7165.94975 210.37868,7165.94975 210.964466,7166.53553 C211.550253,7167.12132 211.550253,7168.07107 210.964466,7168.65685 C210.37868,7169.24264 209.428932,7169.24264 208.843146,7168.65685 Z M218.035534,7166.53553 C218.62132,7165.94975 219.571068,7165.94975 220.156854,7166.53553 C220.742641,7167.12132 220.742641,7168.07107 220.156854,7168.65685 C219.571068,7169.24264 218.62132,7169.24264 218.035534,7168.65685 C217.449747,7168.07107 217.449747,7167.12132 218.035534,7166.53553 Z M208.843146,7157.34315 C209.428932,7156.75736 210.37868,7156.75736 210.964466,7157.34315 C211.550253,7157.92893 211.550253,7158.87868 210.964466,7159.46447 C210.37868,7160.05025 209.428932,7160.05025 208.843146,7159.46447 C208.257359,7158.87868 208.257359,7157.92893 208.843146,7157.34315 Z" id="Combined-Shape"></path>
        </g>
    </g>
</svg>