<?xml version="1.0" encoding="UTF-8" standalone="no"?>
<svg width="16px" height="12px" viewBox="0 0 16 12" version="1.1" xmlns="http://www.w3.org/2000/svg" xmlns:xlink="http://www.w3.org/1999/xlink">
    <!-- Generator: Sketch 48.2 (47327) - http://www.bohemiancoding.com/sketch -->
    <title>icons/actions-embed-icon</title>
    <desc>Created with Sketch.</desc>
    <defs></defs>
    <g id="Listado-Formularios" stroke="none" stroke-width="1" fill="none" fill-rule="evenodd" transform="translate(-1344.000000, -475.000000)">
        <g id="icons/actions-embed-icon" transform="translate(1344.000000, 473.000000)" fill="#666666" fill-rule="nonzero">
            <path d="M6.95361597,5.32737396 L4.35742189,7.92356804 L7.10647989,10.672626 C7.69226632,11.2584125 7.69226632,12.2081599 7.10647989,12.7939464 C6.52069345,13.3797328 5.57094598,13.3797328 4.98515954,12.7939464 L0.114781203,7.92356804 L4.83229562,3.20605362 C5.41808206,2.62026718 6.36782953,2.62026718 6.95361597,3.20605362 C7.53940241,3.79184006 7.53940241,4.74158753 6.95361597,5.32737396 Z M9.04638403,5.32737396 C8.46059759,4.74158753 8.46059759,3.79184006 9.04638403,3.20605362 C9.63217047,2.62026718 10.5819179,2.62026718 11.1677044,3.20605362 L15.8852188,7.92356804 L11.0148405,12.7939464 C10.429054,13.3797328 9.47930655,13.3797328 8.89352011,12.7939464 C8.30773368,12.2081599 8.30773368,11.2584125 8.89352011,10.672626 L11.6425781,7.92356804 L9.04638403,5.32737396 Z" id="Combined-Shape"></path>
        </g>
    </g>
</svg>