<svg width="16" height="16" viewBox="0 0 16 16" fill="none" xmlns="http://www.w3.org/2000/svg">
<path fill-rule="evenodd" clip-rule="evenodd" d="M8 16C12.4183 16 16 12.4183 16 8C16 3.58172 12.4183 0 8 0C3.58172 0 0 3.58172 0 8C0 12.4183 3.58172 16 8 16ZM5.14286 7.28571C5.77404 7.28571 6.28571 6.77404 6.28571 6.14286C6.28571 5.51167 5.77404 5 5.14286 5C4.51167 5 4 5.51167 4 6.14286C4 6.77404 4.51167 7.28571 5.14286 7.28571ZM10.8571 7.28571C11.4883 7.28571 12 6.77404 12 6.14286C12 5.51167 11.4883 5 10.8571 5C10.226 5 9.71429 5.51167 9.71429 6.14286C9.71429 6.77404 10.226 7.28571 10.8571 7.28571ZM4.22368 9.64217C4.35318 9.54704 4.74342 9.57143 4.74342 9.57143H11.3936C11.3936 9.57143 11.7549 9.57143 11.8398 9.71237C11.9248 9.85331 11.9388 9.90149 11.9005 10.0573C11.4177 12.0191 10.1176 13 8 13C5.8785 13 4.57746 12.0155 4.09686 10.0464C4.05966 9.89397 4.09418 9.7373 4.22368 9.64217Z" fill="#666666"/>
</svg>
