<?xml version="1.0" encoding="utf-8"?>
<!-- Generator: Adobe Illustrator 19.0.0, SVG Export Plug-In . SVG Version: 6.00 Build 0)  -->
<svg version="1.1" id="Layer_1" xmlns="http://www.w3.org/2000/svg" xmlns:xlink="http://www.w3.org/1999/xlink" x="0px" y="0px"
	 viewBox="0 0 24 26" style="enable-background:new 0 0 24 26;" xml:space="preserve">
<style type="text/css">
	.st0{fill:#FBB224;}
</style>
<g id="Symbols">
	<g id="globo-icon">
		<path id="Fill-1" class="st0" d="M6.8,11.1c0.6,1,2.4,0.9,2.8-0.3c0,0,0.5-1.8,2.3-1.8c1.8,0,2.3,1.8,2.3,1.8
			c0.4,1.2,2.2,1.3,2.8,0.3c0.4-0.7,0.2-1.2,0.2-1.4c0,0-1.3-3.9-5.3-3.9h0h0c-4,0-5.3,3.9-5.3,3.9C6.6,9.9,6.4,10.4,6.8,11.1 M12,0
			c6.6,0,12,5.4,12,12c0,3.6-1.6,6.9-4.1,9.1l1.4,4.7l-4.6-2.7c-1.4,0.6-3,0.9-4.7,0.9C5.4,24,0,18.6,0,12C0,5.4,5.4,0,12,0"/>
	</g>
</g>
</svg>
