<?xml version="1.0" encoding="UTF-8" standalone="no"?>
<svg width="16px" height="16px" viewBox="0 0 16 16" version="1.1" xmlns="http://www.w3.org/2000/svg" xmlns:xlink="http://www.w3.org/1999/xlink">
    <!-- Generator: Sketch 42 (36781) - http://www.bohemiancoding.com/sketch -->
    <title>delete-icon</title>
    <desc>Created with Sketch.</desc>
    <defs></defs>
    <g id="Symbols" stroke="none" stroke-width="1" fill="none" fill-rule="evenodd">
        <g id="delete-icon" fill="#666666">
            <path d="M5,0 L5,1 L1,1 L1,3.001 L14,3.001 L14,1 L10,1 L10,0 L5,0 Z M2,16 L13,16 L13,4 L2,4 L2,16 Z M10,14 L11,14 L11,6 L10,6 L10,14 Z M7.001,14 L8.001,14 L8.001,6 L7.001,6 L7.001,14 Z M4,14 L5,14 L5,6 L4,6 L4,14 Z" id="Page-1"></path>
        </g>
    </g>
</svg>