<?xml version="1.0" encoding="utf-8"?>
<!-- Generator: Adobe Illustrator 19.0.0, SVG Export Plug-In . SVG Version: 6.00 Build 0)  -->
<svg version="1.1" id="Layer_1" xmlns="http://www.w3.org/2000/svg" xmlns:xlink="http://www.w3.org/1999/xlink" x="0px" y="0px"
	 viewBox="-289 411.9 16 19" style="enable-background:new -289 411.9 16 19;" xml:space="preserve">
<style type="text/css">
	.st0{fill:#FFC20E;}
</style>
<title>draft-icon</title>
<desc>Created with Sketch.</desc>
<g id="Symbols">
	<g id="draft-icon">
		<g id="Line">
			<path class="st0" d="M-274,430.9h-14c-0.6,0-1-0.4-1-1s0.4-1,1-1h14c0.6,0,1,0.4,1,1S-273.4,430.9-274,430.9z"/>
		</g>
		<g id="Fill-1">
			<path class="st0" d="M-273.5,416.8c0.5-0.5,0.5-1.2,0-1.7l-2.8-2.8c-0.5-0.5-1.2-0.5-1.7,0l-2.2,2.2l4.5,4.5L-273.5,416.8
				L-273.5,416.8z M-288,422.2v4.5h4.5l6.4-6.4l-4.5-4.5L-288,422.2z"/>
		</g>
	</g>
</g>
</svg>
