<?xml version="1.0" encoding="utf-8"?>
<!-- Generator: Adobe Illustrator 19.0.0, SVG Export Plug-In . SVG Version: 6.00 Build 0)  -->
<svg version="1.1" id="Layer_1" xmlns="http://www.w3.org/2000/svg" xmlns:xlink="http://www.w3.org/1999/xlink" x="0px" y="0px"
	 viewBox="-287.2 414.9 21.2 12" style="enable-background:new -287.2 414.9 21.2 12;" xml:space="preserve">
<style type="text/css">
	.st0{fill:#666666;}
</style>
<title>arrange-by-AZ-icon</title>
<desc>Created with Sketch.</desc>
<g id="Symbols">
	<g id="arrange-by-AZ-icon">
		<g id="Fill-8">
			<path class="st0" d="M-267.8,422.1l-1.2,1.2v-7.4c0-0.6-0.5-1.1-1-1.1c-0.6,0-1,0.5-1,1.1v7.4l-1.2-1.2c-0.4-0.4-1.1-0.4-1.5,0
				c-0.4,0.4-0.4,1.1,0,1.5l3,3c0.2,0.2,0.5,0.3,0.7,0.3c0.3,0,0.5-0.1,0.7-0.3l3-3c0.4-0.4,0.4-1.1,0-1.5S-267.4,421.7-267.8,422.1
				z"/>
		</g>
		<g id="Line">
			<path class="st0" d="M-276.3,417.9h-5.9c-0.6,0-1-0.4-1-1s0.4-1,1-1h5.9c0.6,0,1,0.4,1,1S-275.7,417.9-276.3,417.9z"/>
		</g>
		<g id="Line-Copy">
			<path class="st0" d="M-276.4,421.9h-7.6c-0.6,0-1-0.4-1-1s0.4-1,1-1h7.6c0.6,0,1,0.4,1,1S-275.8,421.9-276.4,421.9z"/>
		</g>
		<g id="Line-Copy-2">
			<path class="st0" d="M-276.4,425.9h-9.8c-0.6,0-1-0.4-1-1s0.4-1,1-1h9.8c0.6,0,1,0.4,1,1S-275.8,425.9-276.4,425.9z"/>
		</g>
	</g>
</g>
</svg>
