<?xml version="1.0" encoding="utf-8"?>
<!-- Generator: Adobe Illustrator 19.0.0, SVG Export Plug-In . SVG Version: 6.00 Build 0)  -->
<svg version="1.1" id="Layer_1" xmlns="http://www.w3.org/2000/svg" xmlns:xlink="http://www.w3.org/1999/xlink" x="0px" y="0px"
	 viewBox="-287.2 414.9 21.2 12" style="enable-background:new -287.2 414.9 21.2 12;" xml:space="preserve">
<style type="text/css">
	.st0{fill:#666666;}
</style>
<g id="Symbols">
	<g id="arrange-by-AZ-icon">
		<g id="Fill-8">
			<path class="st0" d="M-266.3,419.7c0.4-0.4,0.4-1.1,0-1.5l-3-3c-0.2-0.2-0.5-0.3-0.7-0.3c-0.3,0-0.5,0.1-0.7,0.3l-3,3
				c-0.4,0.4-0.4,1.1,0,1.5c0.4,0.4,1.1,0.4,1.5,0l1.2-1.2v7.4c0,0.6,0.5,1.1,1,1.1c0.6,0,1-0.5,1-1.1v-7.4l1.2,1.2
				C-267.4,420.1-266.7,420.1-266.3,419.7z"/>
		</g>
		<g id="Line">
			<path class="st0" d="M-276.3,423.9h-5.9c-0.6,0-1,0.4-1,1s0.4,1,1,1h5.9c0.6,0,1-0.4,1-1S-275.7,423.9-276.3,423.9z"/>
		</g>
		<g id="Line-Copy">
			<path class="st0" d="M-276.4,419.9h-7.6c-0.6,0-1,0.4-1,1s0.4,1,1,1h7.6c0.6,0,1-0.4,1-1S-275.8,419.9-276.4,419.9z"/>
		</g>
		<g id="Line-Copy-2">
			<path class="st0" d="M-276.4,415.9h-9.8c-0.6,0-1,0.4-1,1s0.4,1,1,1h9.8c0.6,0,1-0.4,1-1S-275.8,415.9-276.4,415.9z"/>
		</g>
	</g>
</g>
</svg>
