<?xml version="1.0" encoding="utf-8"?>
<!-- Generator: Adobe Illustrator 19.0.0, SVG Export Plug-In . SVG Version: 6.00 Build 0)  -->
<svg version="1.1" id="Layer_1" xmlns="http://www.w3.org/2000/svg" xmlns:xlink="http://www.w3.org/1999/xlink" x="0px" y="0px"
	 viewBox="0 0 18 18" style="enable-background:new 0 0 18 18;" xml:space="preserve">
<style type="text/css">
	.st0{fill:#B4B1A5;}
	.st1{fill-rule:evenodd;clip-rule:evenodd;fill:#FFFFFF;}
</style>
<g>
	<circle class="st0" cx="9" cy="9" r="9"/>
	<g>
		<path class="st1" d="M6.8,5.8C7.4,5.3,8.1,5,9.1,5c0.9,0,1.6,0.2,2.1,0.7c0.5,0.5,0.8,1,0.8,1.7c0,0.4-0.1,0.8-0.3,1
			c-0.2,0.3-0.6,0.7-1.2,1.2c-0.4,0.4-0.7,0.7-0.8,1c-0.1,0.3-0.2,0.6-0.2,1.1H8.3c0-0.6,0.1-1,0.2-1.4C8.7,10,9,9.6,9.5,9.1
			l0.5-0.5c0.2-0.1,0.3-0.3,0.4-0.4c0.2-0.3,0.3-0.5,0.3-0.8c0-0.4-0.1-0.7-0.4-1C10.1,6.1,9.6,5.9,9,5.9c-0.8,0-1.3,0.2-1.6,0.8
			C7.3,7,7.2,7.4,7.2,7.9H6C6,7,6.3,6.3,6.8,5.8C6.8,5.8,6.3,6.3,6.8,5.8z M8.3,12.7h1.3V14H8.3V12.7z"/>
	</g>
</g>
</svg>
