<?xml version="1.0" encoding="UTF-8"?>
<svg width="16px" height="13px" viewBox="0 0 16 13" version="1.1" xmlns="http://www.w3.org/2000/svg" xmlns:xlink="http://www.w3.org/1999/xlink">
    <!-- Generator: Sketch 53.1 (72631) - https://sketchapp.com -->
    <title>Group 5</title>
    <desc>Created with Sketch.</desc>
    <g id="Guidelines" stroke="none" stroke-width="1" fill="none" fill-rule="evenodd" fill-opacity="0.6">
        <g id="guidelines:-general" transform="translate(-236.000000, -5448.000000)" fill="#838370">
            <g id="Group-5" transform="translate(236.000000, 5448.000000)">
                <path d="M6.14557465,7.18809532 C6.05168879,6.97545974 6,6.74314707 6,6.5 C7.1056,6.5 8,5.68221349 8,4.66460934 C8.45610204,4.66460934 8.87626046,4.80483688 9.21250855,5.04060508 L10.8301216,3.90794023 C10.1064492,3.24482427 9.10606945,2.83539066 8,2.83539066 C5.7888,2.83539066 4,4.47173517 4,6.5 C4,7.16370423 4.19154095,7.78544246 4.52674578,8.3216115 L6.14557465,7.18809532 Z M6.78749145,7.95939492 L5.1698784,9.09205977 C5.89355079,9.75517573 6.89393055,10.1646093 8,10.1646093 C10.2112,10.1646093 12,8.52826483 12,6.5 C12,5.83629577 11.808459,5.21455754 11.4732542,4.6783885 L9.85442535,5.81190468 C9.94831121,6.02454026 10,6.25685293 10,6.5 C10,7.51143218 9.1056,8.33539066 8,8.33539066 C7.54389796,8.33539066 7.12373954,8.19516312 6.78749145,7.95939492 Z M2.49707052,9.74280541 C0.989983195,8.51540527 0,7.12360437 0,6.5 C0,5.26251929 3.8984,1 8,1 C9.66995014,1 11.3059643,1.70631326 12.6589546,2.62737753 L15.0855802,0.928236051 L15.6591566,1.74738809 L13.5030921,3.25708076 C15.0101588,4.48450867 16,5.87637635 16,6.5 C16,7.73748071 12.1024,12 8,12 C6.33030388,12 4.69428155,11.2936261 3.34121468,10.3725039 L0.91441982,12.0717639 L0.340843383,11.2526119 L2.49707052,9.74280541 Z" id="Combined-Shape"></path>
            </g>
        </g>
    </g>
</svg>