<svg width="16" height="16" viewBox="0 0 16 16" fill="none" xmlns="http://www.w3.org/2000/svg">
<path fill-rule="evenodd" clip-rule="evenodd" d="M0 8C0 12.4183 3.58172 16 8 16C12.4183 16 16 12.4183 16 8C16 3.58172 12.4183 0 8 0C3.58172 0 0 3.58172 0 8ZM14 8C14 11.3137 11.3137 14 8 14C4.68629 14 2 11.3137 2 8C2 4.68629 4.68629 2 8 2C11.3137 2 14 4.68629 14 8ZM8.27637 3.35938C8.60368 3.35938 8.84254 3.42832 8.98718 3.59707C9.12561 3.75857 9.17627 4.04143 9.17627 4.47949C9.17627 4.90626 9.1309 5.17318 8.9987 5.32383C8.85942 5.48254 8.61919 5.54053 8.26562 5.54053C7.92371 5.54053 7.68896 5.4868 7.54712 5.34182C7.40907 5.20069 7.35498 4.97954 7.35498 4.67285C7.35498 4.16548 7.40079 3.84086 7.51959 3.66007C7.65873 3.44833 7.91797 3.35938 8.27637 3.35938ZM9.2998 9.57373H10.2046C10.5059 9.57373 10.7362 9.63248 10.8942 9.76866C11.0607 9.91221 11.1367 10.1297 11.1367 10.4038C11.1367 10.6807 11.0603 10.901 10.8936 11.0479C10.7341 11.1884 10.5032 11.25 10.2046 11.25H6.57373C6.27508 11.25 6.04419 11.1884 5.88475 11.0479C5.71806 10.901 5.6416 10.6807 5.6416 10.4038C5.6416 10.1305 5.71602 9.91375 5.87982 9.77007C6.03666 9.63249 6.26816 9.57373 6.57373 9.57373H7.47852V7.46338H7.12158C6.82661 7.46338 6.59854 7.4028 6.44087 7.26416C6.27547 7.11872 6.2002 6.89938 6.2002 6.62256C6.2002 6.34653 6.27271 6.12898 6.43408 5.9849C6.58934 5.84628 6.81892 5.78711 7.12158 5.78711H8.73828C8.88915 5.78711 9.01865 5.82174 9.12135 5.90048C9.23782 5.98977 9.2998 6.11994 9.2998 6.26807V9.57373Z" fill="#333333"/>
</svg>
