<?xml version="1.0" encoding="UTF-8"?>
<svg width="11px" height="14px" viewBox="0 0 11 14" version="1.1" xmlns="http://www.w3.org/2000/svg" xmlns:xlink="http://www.w3.org/1999/xlink">
    <!-- Generator: Sketch 62 (91390) - https://sketch.com -->
    <title>lock-red-cancelado</title>
    <desc>Created with Sketch.</desc>
    <g id="Historial-de-permisos-GDPR" stroke="none" stroke-width="1" fill="none" fill-rule="evenodd">
        <g id="lock-red-cancelado" fill="#E02020" fill-rule="nonzero">
            <g id="Group-Copy">
                <path d="M5.5,0 C7.5222168,0 9.16666667,1.56970215 9.16666667,3.5 L9.16666667,3.5 L9.16666667,5.25 L9.625,5.25 C10.3827718,5.25 11,5.83853151 11,6.5625 L11,6.5625 L11,12.6875 C11,13.4114685 10.3827718,14 9.625,14 L9.625,14 L1.375,14 C0.61722819,14 4.97379915e-14,13.4114685 4.97379915e-14,12.6875 L4.97379915e-14,12.6875 L4.97379915e-14,6.5625 C4.97379915e-14,5.83853151 0.61722819,5.25 1.375,5.25 L1.375,5.25 L1.83333333,5.25 L1.83333333,3.5 C1.83333333,1.56970215 3.4777832,0 5.5,0 Z M5.51581027,8 C4.96352552,8 4.51581027,8.44771525 4.51581027,9 C4.51581027,9.36358068 4.70984407,9.68184234 5.0000096,9.85688291 L5,11 L6,11 L6.00154991,9.87431147 C6.30829716,9.70352758 6.51581027,9.37599743 6.51581027,9 C6.51581027,8.44771525 6.06809502,8 5.51581027,8 Z M5.5,1.16670228 C4.15185547,1.16670228 3.05559286,2.21313477 3.05559286,3.5 L3.05559286,3.5 L3.05559286,5.25 L7.94440714,5.25 L7.94440714,3.5 C7.94440714,2.21313477 6.84814453,1.16670228 5.5,1.16670228 Z" id="Combined-Shape"></path>
            </g>
        </g>
    </g>
</svg>