<?xml version="1.0" standalone="no"?><!-- Generator: Adobe Fireworks CS6, Export SVG Extension by Aaron Beall (http://fireworks.abeall.com) . Version: 0.6.1  --><!DOCTYPE svg PUBLIC "-//W3C//DTD SVG 1.1//EN" "http://www.w3.org/Graphics/SVG/1.1/DTD/svg11.dtd"><svg id="Untitled-Page%201" viewBox="0 0 21 15" style="background-color:#ffffff00" version="1.1"	xmlns="http://www.w3.org/2000/svg" xmlns:xlink="http://www.w3.org/1999/xlink" xml:space="preserve"	x="0px" y="0px" width="21px" height="15px">	<g id="Layer%201">		<path d="M 1.5 6 C 0.6716 6 0 6.6716 0 7.5 C 0 8.3284 0.6716 9 1.5 9 L 19.5 9 C 20.3284 9 21 8.3284 21 7.5 C 21 6.6716 20.3284 6 19.5 6 L 1.5 6 ZM 1.5 12 C 0.6716 12 0 12.6716 0 13.5 C 0 14.3284 0.6716 15 1.5 15 L 19.5 15 C 20.3284 15 21 14.3284 21 13.5 C 21 12.6716 20.3284 12 19.5 12 L 1.5 12 ZM 1.5 0 C 0.6716 0 0 0.6716 0 1.5 C 0 2.3284 0.6716 3 1.5 3 L 19.5 3 C 20.3284 3 21 2.3284 21 1.5 C 21 0.6716 20.3284 0 19.5 0 L 1.5 0 Z" fill="#302100"/>	</g></svg>