<?xml version="1.0" encoding="UTF-8" standalone="no"?>
<svg width="17px" height="18px" viewBox="0 0 17 18" version="1.1" xmlns="http://www.w3.org/2000/svg" xmlns:xlink="http://www.w3.org/1999/xlink">
    <!-- Generator: Sketch 50.2 (55047) - http://www.bohemiancoding.com/sketch -->
    <title>icons/help-icon copy</title>
    <desc>Created with Sketch.</desc>
    <defs></defs>
    <g id="Sections" stroke="none" stroke-width="1" fill="none" fill-rule="evenodd">
        <g id="sections/automation-header" transform="translate(-1546.000000, -26.000000)" fill="#999999" fill-rule="nonzero">
            <g id="icons/notification-icon" transform="translate(1545.000000, 26.000000)">
                <path d="M11.5925377,16.3542838 C11.3081706,17.3194651 10.4848333,18.0159505 9.5186273,18.0159505 C8.55242126,18.0159505 7.72908401,17.3194651 7.44471687,16.3542838 L1.60027068,16.3542838 L1.66833679,16.3542838 L1.66833679,14.3123007 C2.48513002,14.1081024 3.93720688,13.0871109 3.93720688,7.98215319 C3.93720688,4.10238533 6.54640748,2.74106328 8.22537135,2.28728926 C8.08923914,2.06040225 8.02117304,1.81082654 8.02117304,1.53856213 C8.02117304,0.699080197 8.72452277,0.0184191702 9.5640047,0.0184191702 C10.4034866,0.0184191702 11.1068364,0.699080197 11.1068364,1.53856213 C11.1068364,1.81082654 11.0387703,2.06040225 10.9026381,2.28728926 C12.5816019,2.76375198 15.1908025,4.10238533 15.1908025,7.98215319 C15.1908025,13.0871109 16.6428794,14.1081024 17.4596726,14.3123007 L17.4596726,16.3542838 L11.5925377,16.3542838 Z" id="Combined-Shape"></path>
            </g>
        </g>
    </g>
</svg>