<?xml version="1.0" encoding="UTF-8"?>
<svg width="15px" height="3px" viewBox="0 0 15 3" version="1.1" xmlns="http://www.w3.org/2000/svg" xmlns:xlink="http://www.w3.org/1999/xlink">
    <!-- Generator: Sketch 51.1 (57501) - http://www.bohemiancoding.com/sketch -->
    <title>icons/status-warning-icon copy 2</title>
    <desc>Created with Sketch.</desc>
    <defs></defs>
    <g id="Page-1" stroke="none" stroke-width="1" fill="none" fill-rule="evenodd">
        <g id="Sitios-listado" transform="translate(-623.000000, -571.000000)" fill="#666666">
            <g id="Group">
                <g id="Group-2" transform="translate(391.000000, 472.000000)">
                    <g id="icons/pending" transform="translate(232.000000, 93.000000)">
                        <path d="M1.5,9 C0.671572875,9 0,8.32842712 0,7.5 C0,6.67157288 0.671572875,6 1.5,6 C2.32842712,6 3,6.67157288 3,7.5 C3,8.32842712 2.32842712,9 1.5,9 Z M12,7.5 C12,6.67157288 12.6715729,6 13.5,6 C14.3284271,6 15,6.67157288 15,7.5 C15,8.32842712 14.3284271,9 13.5,9 C12.6715729,9 12,8.32842712 12,7.5 Z M6.43933983,6.43933983 C7.02512627,5.85355339 7.97487373,5.85355339 8.56066017,6.43933983 C9.14644661,7.02512627 9.14644661,7.97487373 8.56066017,8.56066017 C7.97487373,9.14644661 7.02512627,9.14644661 6.43933983,8.56066017 C5.85355339,7.97487373 5.85355339,7.02512627 6.43933983,6.43933983 Z" id="Combined-Shape"></path>
                    </g>
                </g>
            </g>
        </g>
    </g>
</svg>