<?xml version="1.0" encoding="UTF-8" standalone="no"?>
<svg width="16px" height="16px" viewBox="0 0 16 16" version="1.1" xmlns="http://www.w3.org/2000/svg" xmlns:xlink="http://www.w3.org/1999/xlink">
    <!-- Generator: Sketch 42 (36781) - http://www.bohemiancoding.com/sketch -->
    <title>redo-icon</title>
    <desc>Created with Sketch.</desc>
    <defs></defs>
    <g id="-" stroke="none" stroke-width="1" fill="none" fill-rule="evenodd">
        <g id="redo-icon" fill="#666666">
            <path d="M15.8290295,6.197264 L9.30628907,1.090264 C9.02469058,0.869263999 8.62240703,1.079264 8.62240703,1.447264 L8.62240703,4.254264 C5.796844,4.384264 3.77584807,5.214264 2.1954484,6.844264 C-0.151205641,9.264264 0.0020452358,12.314264 0.0020452358,13.094264 L0.0020452358,14.122264 C0.000129599841,14.428264 0.311420442,14.860264 0.695505451,14.164264 L1.32383404,13.115264 C2.2433393,11.615264 3.34482998,10.224264 4.73366604,9.594264 C5.81600036,9.083264 6.82170923,8.724264 8.62240703,8.663264 L8.62240703,11.661264 C8.62240703,12.029264 9.02469058,12.239264 9.30628907,12.019264 L15.8290295,6.911264 C16.0569902,6.733264 16.0569902,6.376264 15.8290295,6.197264" id="Fill-1"></path>
        </g>
    </g>
</svg>