<?xml version="1.0" encoding="utf-8"?>
<!-- Generator: Adobe Illustrator 16.0.0, SVG Export Plug-In . SVG Version: 6.00 Build 0)  -->
<!DOCTYPE svg PUBLIC "-//W3C//DTD SVG 1.1//EN" "http://www.w3.org/Graphics/SVG/1.1/DTD/svg11.dtd">
<svg version="1.1" id="Layer_1" xmlns="http://www.w3.org/2000/svg" xmlns:xlink="http://www.w3.org/1999/xlink" x="0px" y="0px"
	 width="16px" height="16px" viewBox="0 0 16 16" enable-background="new 0 0 16 16" xml:space="preserve">
<title>icons/reload-icon</title>
<desc>Created with Sketch.</desc>
<g>
	<path fill="#666666" d="M2.546,8.183c0-1.036,0.299-2.001,0.812-2.819l0.856,0.86C4.747,6.761,5.251,6.583,5.334,5.83l0.389-3.525
		c0.083-0.753-0.461-1.301-1.211-1.217L1.006,1.479C0.257,1.563,0.08,2.07,0.613,2.605l0.912,0.917C0.567,4.827,0,6.438,0,8.183
		C0,12.217,3.018,15.539,6.907,16l0.281-2.543C4.576,13.135,2.546,10.894,2.546,8.183z"/>
	<path fill="#666666" d="M14.475,12.486C15.433,11.182,16,9.57,16,7.825C16,3.771,12.951,0.433,9.031,0L8.75,2.543
		c2.643,0.293,4.704,2.549,4.704,5.281c0,1.037-0.299,2.001-0.812,2.819l-0.855-0.86c-0.533-0.535-1.037-0.357-1.121,0.396
		l-0.389,3.524c-0.084,0.754,0.461,1.301,1.211,1.217l3.506-0.391c0.75-0.084,0.926-0.591,0.393-1.127L14.475,12.486z"/>
</g>
</svg>
