<?xml version="1.0" encoding="utf-8"?>
<!-- Generator: Adobe Illustrator 19.2.1, SVG Export Plug-In . SVG Version: 6.00 Build 0)  -->
<svg version="1.1" id="Layer_1" xmlns="http://www.w3.org/2000/svg" xmlns:xlink="http://www.w3.org/1999/xlink" x="0px" y="0px"
	 viewBox="0 0 20 20" style="enable-background:new 0 0 20 20;" xml:space="preserve">
<style type="text/css">
	.st0{fill:#666666;}
</style>
<title>icons/reload-icon</title>
<desc>Created with Sketch.</desc>
<g>
	<path class="st0" d="M19.9,8.7l-4.1-5.6c-0.1-0.2-0.4-0.2-0.6,0L11,8.7c-0.2,0.2,0,0.6,0.3,0.6h2.4c0,1.5-0.3,2.4-0.8,3.3
		c-0.5,1.2-1.6,2.1-2.9,2.9l-0.9,0.5c-0.6,0.3-0.2,0.6,0,0.6h0.8c0.6,0,3.1,0.1,5.1-1.9c1.3-1.4,2-3.1,2.1-5.5h2.3
		C19.9,9.3,20.1,9,19.9,8.7z"/>
	<path class="st0" d="M8.7,10H6.2c0-1.5,0.3-2.3,0.8-3.2c0.5-1.1,1.6-2,2.9-2.8l0.9-0.5c0.6-0.3,0.2-0.6,0-0.6H9.8
		C9.2,3,6.7,2.9,4.7,4.8c-1.3,1.3-2,2.9-2.1,5.2H0.4c-0.3,0-0.5,0.3-0.3,0.6l4.1,5.3c0.1,0.2,0.4,0.2,0.6,0L9,10.6
		C9.1,10.3,9,10,8.7,10z"/>
</g>
</svg>
