<?xml version="1.0" encoding="UTF-8" standalone="no"?>
<svg width="16px" height="16px" viewBox="0 0 16 16" version="1.1" xmlns="http://www.w3.org/2000/svg" xmlns:xlink="http://www.w3.org/1999/xlink">
    <!-- Generator: Sketch 47.1 (45422) - http://www.bohemiancoding.com/sketch -->
    <title>icons/sandclock-icon</title>
    <desc>Created with Sketch.</desc>
    <defs></defs>
    <g id="Icons" stroke="none" stroke-width="1" fill="none" fill-rule="evenodd">
        <g id="icons/sandclock-icon" fill="#666666">
            <path d="M9.28451279,8.28472239 C9.19017337,8.31614303 9.09531271,8.34431202 9,8.36910436 L9,12.142041 C10.3358965,12.5220088 11.5221051,13.6268299 12.4035003,15 L13.4811832,15 C13.2751591,12.2228196 11.405849,9.20842221 9.28451279,8.28472239 L9.28451279,8.28472239 Z M14.483646,15 L15,15 L15,16 L1,16 L1,15 L1.51635399,15 C1.69974912,12.163857 3.40515741,9.12374185 5.59749487,7.75 C3.53354672,6.45670825 1.90116589,3.68650307 1.56402614,1 L1,1 L1,0 L15,0 L15,1 L14.4359739,1 C14.0988341,3.68650307 12.4664533,6.45670825 10.4025051,7.75 C12.5948426,9.12374185 14.3002509,12.163857 14.483646,15 Z M2.5188168,15 L3.59649966,15 C4.47789489,13.6268299 5.66410348,12.5220088 7,12.142041 L7,8.36910436 C6.90468729,8.34431202 6.80982663,8.31614303 6.71548721,8.28472239 C4.59415095,9.20842221 2.72484092,12.2228196 2.5188168,15 Z M3.57939943,4 L12.4206006,4 C12.921696,3.06319227 13.2802157,2.02501093 13.4267194,1 L2.57328061,1 C2.71978427,2.02501093 3.07830401,3.06319227 3.57939943,4 Z" id="Combined-Shape"></path>
        </g>
    </g>
</svg>