<?xml version="1.0" encoding="utf-8"?>
<!-- Generator: Adobe Illustrator 19.0.0, SVG Export Plug-In . SVG Version: 6.00 Build 0)  -->
<svg version="1.1" id="Layer_1" xmlns="http://www.w3.org/2000/svg" xmlns:xlink="http://www.w3.org/1999/xlink" x="0px" y="0px"
	 viewBox="0 0 14.8 14.7" style="enable-background:new 0 0 14.8 14.7;" xml:space="preserve">
<style type="text/css">
	.st0{fill:#989898;}
</style>
<title>search-icon</title>
<desc>Created with Sketch.</desc>
<path class="st0" d="M14.5,13l-3.6-3.6C11.6,8.4,12,7.3,12,6c0-3.3-2.7-6-6-6S0,2.7,0,6s2.7,6,6,6c1.3,0,2.5-0.4,3.5-1.2l3.6,3.6
	c0.2,0.2,0.5,0.3,0.7,0.3s0.5-0.1,0.7-0.3C14.9,14,14.9,13.4,14.5,13z M2,6c0-2.2,1.8-4,4-4s4,1.8,4,4s-1.8,4-4,4S2,8.2,2,6z"/>
</svg>
