<?xml version="1.0" encoding="UTF-8"?>
<svg width="16px" height="16px" viewBox="0 0 16 16" version="1.1" xmlns="http://www.w3.org/2000/svg" xmlns:xlink="http://www.w3.org/1999/xlink">
    <!-- Generator: Sketch 53.1 (72631) - https://sketchapp.com -->
    <title>icons/upload-html-icon copy</title>
    <desc>Created with Sketch.</desc>
    <g id="Datahub-MVP" stroke="none" stroke-width="1" fill="none" fill-rule="evenodd">
        <g id="reports-datahub-loading" transform="translate(-1101.000000, -764.000000)" fill="#33AD73">
            <g id="icons/text-ad-icon" transform="translate(1101.000000, 764.000000)">
                <path d="M9,7 L11.3333333,7 C11.7015232,7 12,7.44771525 12,8 C12,8.55228475 11.7015232,9 11.3333333,9 L9,9 L9,11 C9,11.5522847 8.55228475,12 8,12 C7.44771525,12 7,11.5522847 7,11 L7,9 L4.66666667,9 C4.29847683,9 4,8.55228475 4,8 C4,7.44771525 4.29847683,7 4.66666667,7 L7,7 L7,5 C7,4.44771525 7.44771525,4 8,4 C8.55228475,4 9,4.44771525 9,5 L9,7 Z M8,16 C3.581722,16 0,12.418278 0,8 C0,3.581722 3.581722,0 8,0 C12.418278,0 16,3.581722 16,8 C16,12.418278 12.418278,16 8,16 Z M8,14 C11.3137085,14 14,11.3137085 14,8 C14,4.6862915 11.3137085,2 8,2 C4.6862915,2 2,4.6862915 2,8 C2,11.3137085 4.6862915,14 8,14 Z" id="Combined-Shape"></path>
            </g>
        </g>
    </g>
</svg>