<?xml version="1.0" encoding="UTF-8" standalone="no"?>
<svg width="24px" height="24px" viewBox="0 0 24 24" version="1.1" xmlns="http://www.w3.org/2000/svg" xmlns:xlink="http://www.w3.org/1999/xlink">
    <!-- Generator: Sketch 42 (36781) - http://www.bohemiancoding.com/sketch -->
    <title>g+-icon</title>
    <desc>Created with Sketch.</desc>
    <defs></defs>
    <g id="Symbols" stroke="none" stroke-width="1" fill="none" fill-rule="evenodd">
        <g id="g+-icon" fill="#D95132">
            <path d="M1.92,0 L22.08,0 C23.1403125,0 24,0.8596875 24,1.92 L24,22.08 C24,23.1403125 23.1403125,24 22.08,24 L1.92,24 C0.8596875,24 0,23.1403125 0,22.08 L0,1.92 C0,0.8596875 0.8596875,0 1.92,0 Z M9.57486235,18.0799851 C12.8736525,18.0799851 15.0899092,15.8380275 15.0899516,12.5020007 L15.0899516,11.3888043 L9.60255655,11.3888043 L9.60255655,13.6146034 L12.6975632,13.6146034 C12.341907,15.0522418 11.2473289,15.8534226 9.57490476,15.8534226 C7.59839583,15.8534226 5.99035119,14.2743021 5.99035119,12.3333333 C5.99035119,10.3922798 7.5982686,8.81290476 9.57490476,8.81290476 C10.4392775,8.81290476 11.273878,9.11949182 11.9249673,9.67570833 L13.4129048,7.99641369 C12.3491592,7.08767932 10.985994,6.58685119 9.57486235,6.58685119 C6.34859449,6.58685119 3.72375298,9.16453199 3.72375298,12.333503 C3.72375298,15.5025588 6.34859449,18.0799851 9.57486235,18.0799851 Z M21.1970521,11.3897798 L19.5006235,11.3897798 L19.5006235,9.69335119 L18.1434807,9.69335119 L18.1434807,11.3897798 L16.4470521,11.3897798 L16.4470521,12.7468378 L18.1434807,12.7468378 L18.1434807,14.4432664 L19.5006235,14.4432664 L19.5006235,12.7468378 L21.1970521,12.7468378 L21.1970521,11.3897798 Z" id="Combined-Shape"></path>
        </g>
    </g>
</svg>