<?xml version="1.0" encoding="UTF-8" standalone="no"?>
<svg width="24px" height="24px" viewBox="0 0 24 24" version="1.1" xmlns="http://www.w3.org/2000/svg" xmlns:xlink="http://www.w3.org/1999/xlink">
    <!-- Generator: Sketch 42 (36781) - http://www.bohemiancoding.com/sketch -->
    <title>facebook-icon</title>
    <desc>Created with Sketch.</desc>
    <defs></defs>
    <g id="Symbols" stroke="none" stroke-width="1" fill="none" fill-rule="evenodd">
        <g id="facebook-icon" fill="#3B589C">
            <path d="M22.08,0 C23.1403125,0 24,0.8596875 24,1.92 L24,22.08 C24,23.1403125 23.1403125,24 22.08,24 L1.92,24 C0.8596875,24 0,23.1403125 0,22.08 L0,1.92 C0,0.8596875 0.8596875,0 1.92,0 L22.08,0 Z M13.9039219,7.72204687 L15.0289219,7.72204687 L15.0289219,5.47204687 L13.2289219,5.47204687 C11.0668125,5.47204687 10.3060781,6.56367187 10.3060781,8.39882812 L10.3060781,9.749625 L8.95842188,9.749625 L8.95842188,11.999625 L10.3060781,11.999625 L10.3060781,18.5281406 L13.0035,18.5281406 L13.0035,11.9991562 L14.803125,11.9991562 L15.0413906,9.74957812 L13.0035,9.74957812 L13.0062656,8.62321875 C13.0062656,8.03671875 13.0625156,7.72204687 13.9039219,7.72204687 Z" id="Combined-Shape"></path>
        </g>
    </g>
</svg>