<?xml version="1.0" encoding="UTF-8" standalone="no"?>
<svg width="24px" height="24px" viewBox="0 0 24 24" version="1.1" xmlns="http://www.w3.org/2000/svg" xmlns:xlink="http://www.w3.org/1999/xlink">
    <!-- Generator: Sketch 42 (36781) - http://www.bohemiancoding.com/sketch -->
    <title>linkedin-icon</title>
    <desc>Created with Sketch.</desc>
    <defs></defs>
    <g id="-" stroke="none" stroke-width="1" fill="none" fill-rule="evenodd">
        <g id="linkedin-icon">
            <g id="Page-1">
                <path d="M1.92,0 L22.08,0 C23.1403125,0 24,0.8596875 24,1.92 L24,22.08 C24,23.1403125 23.1403125,24 22.08,24 L1.92,24 C0.8596875,24 0,23.1403125 0,22.08 L0,1.92 C0,0.8596875 0.8596875,0 1.92,0" id="Fill-1" fill="#097BBA"></path>
                <path d="M6.22598437,17.6546719 L8.94159375,17.6546719 L8.94159375,9.48398438 L6.22598437,9.48398438 L6.22598437,17.6546719 Z M7.58357812,8.36873438 C8.53045312,8.36873438 9.12028125,7.74079688 9.12028125,6.9564375 C9.10270312,6.15525 8.53045312,5.545125 7.60157812,5.545125 C6.67289062,5.545125 6.06525,6.154875 6.06525,6.9564375 C6.06525,7.74079688 6.65489062,8.36873438 7.56642187,8.36873438 L7.58357812,8.36873438 Z M18.7347656,17.6546719 L18.7347656,12.9699375 C18.7347656,10.4600156 17.3945156,9.29207813 15.6086719,9.29207813 C14.1667969,9.29207813 13.5207187,10.0852031 13.161,10.6416563 L13.161,9.48407813 L10.4447344,9.48407813 C10.480875,10.2508594 10.4447344,17.6547656 10.4447344,17.6547656 L13.161,17.6547656 L13.161,13.0914844 C13.161,12.8481562 13.1781094,12.6039844 13.2503906,12.4297969 C13.4465625,11.9416875 13.8929531,11.4364219 14.6429531,11.4364219 C15.6265781,11.4364219 16.0191562,12.185625 16.0191562,13.2836719 L16.0191562,17.6556562 L18.7347656,17.6556562 L18.7347656,17.6546719 Z" id="Fill-3" fill="#FFFFFF"></path>
            </g>
        </g>
    </g>
</svg>