<?xml version="1.0" encoding="utf-8"?>
<!-- Generator: Adobe Illustrator 19.0.0, SVG Export Plug-In . SVG Version: 6.00 Build 0)  -->
<svg version="1.1" id="Layer_1" xmlns="http://www.w3.org/2000/svg" xmlns:xlink="http://www.w3.org/1999/xlink" x="0px" y="0px"
	 width="24px" height="24px" viewBox="-287 289 24 24" enable-background="new -287 289 24 24" xml:space="preserve">
<path fill="#25D366" d="M-285.1,289h20.2c1.1,0,1.9,0.9,1.9,1.9v20.2c0,1.1-0.9,1.9-1.9,1.9h-20.2c-1.1,0-1.9-0.9-1.9-1.9v-20.2
	C-287,289.9-286.1,289-285.1,289z"/>
<g id="WA_Logo">
	<g>
		<path fill="#FFFFFF" d="M-268.8,294.9c-1.6-1.6-3.8-2.5-6.1-2.5c-4.7,0-8.6,3.8-8.6,8.6c0,1.5,0.4,3,1.1,4.3l-1.2,4.4l4.5-1.2
			c1.2,0.7,2.7,1,4.1,1l0,0c4.7,0,8.6-3.8,8.6-8.6C-266.2,298.6-267.2,296.4-268.8,294.9z M-274.8,307.9L-274.8,307.9
			c-1.3,0-2.5-0.3-3.6-1l-0.3-0.2l-2.7,0.7l0.7-2.6l-0.2-0.3c-0.7-1.1-1.1-2.4-1.1-3.8c0-3.9,3.2-7.1,7.1-7.1c1.9,0,3.7,0.7,5,2.1
			c1.3,1.3,2.1,3.1,2.1,5C-267.7,304.9-270.8,307.9-274.8,307.9z M-270.8,302.6c-0.2-0.1-1.3-0.6-1.5-0.7s-0.3-0.1-0.5,0.1
			s-0.6,0.7-0.7,0.8c-0.1,0.1-0.2,0.2-0.5,0.1c-0.2-0.1-0.9-0.3-1.7-1.1c-0.6-0.6-1.1-1.3-1.2-1.5s0-0.3,0.1-0.4s0.2-0.2,0.3-0.4
			c0.1-0.1,0.1-0.2,0.2-0.4c0.1-0.1,0-0.3,0-0.4c-0.1-0.1-0.5-1.2-0.7-1.6s-0.3-0.4-0.5-0.4c-0.1,0-0.3,0-0.4,0s-0.4,0.1-0.6,0.3
			c-0.2,0.2-0.7,0.7-0.7,1.8s0.8,2.1,0.9,2.2s1.5,2.3,3.7,3.2c0.5,0.2,0.9,0.4,1.2,0.5c0.5,0.2,1,0.1,1.3,0.1c0.4-0.1,1.3-0.5,1.4-1
			c0.2-0.5,0.2-0.9,0.1-1C-270.5,302.9-270.7,302.9-270.8,302.6z"/>
	</g>
</g>
</svg>
