<?xml version="1.0" encoding="UTF-8" standalone="no"?>
<svg width="25px" height="24px" viewBox="0 0 25 24" version="1.1" xmlns="http://www.w3.org/2000/svg" xmlns:xlink="http://www.w3.org/1999/xlink">
    <!-- Generator: Sketch 42 (36781) - http://www.bohemiancoding.com/sketch -->
    <title>twitter-icon</title>
    <desc>Created with Sketch.</desc>
    <defs></defs>
    <g id="-" stroke="none" stroke-width="1" fill="none" fill-rule="evenodd">
        <g id="twitter-icon">
            <g id="Page-1" transform="translate(0.500000, 0.000000)">
                <path d="M1.92,0 L22.08,0 C23.1403125,0 24,0.8596875 24,1.92 L24,22.08 C24,23.1403125 23.1403125,24 22.08,24 L1.92,24 C0.8596875,24 0,23.1403125 0,22.08 L0,1.92 C0,0.8596875 0.8596875,0 1.92,0" id="Fill-1" fill="#26B7EC"></path>
                <path d="M18.3999844,7.70001563 C17.9499375,7.95 17.4,8.1 16.8999844,8.15001563 C17.4499219,7.8 17.85,7.25001562 18.0499688,6.6 C17.55,6.9 17.0000156,7.14998438 16.3499063,7.30003125 C15.8498906,6.75004687 15.1999219,6.40003125 14.4499219,6.40003125 C12.9999375,6.40003125 11.7999375,7.65004688 11.7999375,9.25003125 C11.7999375,9.45004687 11.7999375,9.70003125 11.8499063,9.90004688 C9.64992188,9.80001563 7.69992188,8.65003125 6.39989063,6.95001563 C6.14990625,7.35 6.04992187,7.85001563 6.04992187,8.40004688 C6.04992187,9.40003125 6.49992188,10.2500156 7.19990625,10.7500313 C6.74990625,10.7500313 6.34992188,10.6000313 5.99990625,10.4000156 L5.99990625,10.4499844 C5.99990625,11.7999844 6.89990625,12.9499688 8.09990625,13.2499688 C7.89989063,13.2999375 7.64990625,13.35 7.39992188,13.35 C7.24992188,13.35 7.04990625,13.35 6.89990625,13.3000781 C7.249875,14.4500625 8.19989063,15.250125 9.34992187,15.250125 C8.44992188,16.000125 7.2999375,16.4501719 6.0999375,16.4501719 C5.89992188,16.4501719 5.69995312,16.4501719 5.44992187,16.4002031 C6.59990625,17.2001719 7.99992188,17.7001406 9.49992188,17.7001406 C14.3499375,17.7001406 16.9999219,13.4002031 16.9999219,9.65015625 L16.9999219,9.30014063 C17.6000156,8.79998438 18.0499688,8.30001563 18.3999844,7.70001563" id="Fill-3" fill="#FFFFFF"></path>
            </g>
        </g>
    </g>
</svg>