<?xml version="1.0" encoding="UTF-8" standalone="no"?>
<svg width="25px" height="24px" viewBox="0 0 25 24" version="1.1" xmlns="http://www.w3.org/2000/svg" xmlns:xlink="http://www.w3.org/1999/xlink">
    <!-- Generator: Sketch 42 (36781) - http://www.bohemiancoding.com/sketch -->
    <title>pinterest-icon</title>
    <desc>Created with Sketch.</desc>
    <defs></defs>
    <g id="-" stroke="none" stroke-width="1" fill="none" fill-rule="evenodd">
        <g id="pinterest-icon">
            <g id="Group-11" transform="translate(0.500000, 0.000000)">
                <path d="M1.92,0 L22.08,0 C23.1403125,0 24,0.8596875 24,1.92 L24,22.08 C24,23.1403125 23.1403125,24 22.08,24 L1.92,24 C0.8596875,24 0,23.1403125 0,22.08 L0,1.92 C0,0.8596875 0.8596875,0 1.92,0" id="Fill-1" fill="#CA3837"></path>
                <path d="M12,6.04996875 C8.7,6.04996875 6.04996875,8.7 6.04996875,12 C6.04996875,14.4500625 7.5,16.5 9.59995313,17.4500625 C9.59995313,17.0500781 9.59995313,16.5500156 9.6999375,16.1000156 C9.79992188,15.6 10.4499375,12.8500313 10.4499375,12.8500313 C10.4499375,12.8500313 10.2499219,12.45 10.2499219,11.9000156 C10.2499219,11.0000156 10.7499375,10.35 11.3999531,10.35 C11.9499375,10.35 12.1999219,10.7500312 12.1999219,11.25 C12.1999219,11.7999844 11.8498594,12.6 11.6999063,13.35 C11.5499063,14.0000156 12.049875,14.4999844 12.649875,14.4999844 C13.7999063,14.4999844 14.5499063,13.05 14.5499063,11.3499844 C14.5499063,10.05 13.6499063,9.09998438 12.0998438,9.09998438 C10.2998438,9.09998438 9.19982813,10.4499844 9.19982813,11.9499844 C9.19982813,12.45 9.34982813,12.8499844 9.5998125,13.0999688 C9.69979688,13.2499688 9.7498125,13.2999844 9.69979688,13.4500313 C9.64982813,13.5500156 9.5998125,13.8000469 9.5998125,13.95 C9.54984375,14.0999531 9.4498125,14.1500156 9.2998125,14.0999531 C8.44982813,13.7499375 8.0998125,12.8499844 8.0998125,11.8499531 C8.0998125,10.1499375 9.49982813,8.14996875 12.3498281,8.14996875 C14.5998281,8.14996875 16.0998281,9.79996875 16.0998281,11.5499531 C16.0998281,13.8999375 14.7998906,15.5999531 12.8998125,15.5999531 C12.2497969,15.5999531 11.6497969,15.2499375 11.4497813,14.8499531 C11.4497813,14.8499531 11.0997656,16.2 11.0497969,16.4999531 C10.8997969,16.95 10.6997813,17.3999531 10.4497969,17.7499688 C11.0000156,17.9000156 11.55,18 12.15,18 C15.4499063,18 18.1000313,15.3500156 18.1000313,12.0499688 C17.9500313,8.7 15.3,6.04996875 12,6.04996875" id="Fill-3" fill="#FFFFFF"></path>
            </g>
        </g>
    </g>
</svg>