<?xml version="1.0" encoding="UTF-8"?>
<svg width="20px" height="20px" viewBox="0 0 20 20" version="1.1" xmlns="http://www.w3.org/2000/svg" xmlns:xlink="http://www.w3.org/1999/xlink">
    <!-- Generator: Sketch 53.1 (72631) - https://sketchapp.com -->
    <title>Combined Shape</title>
    <desc>Created with Sketch.</desc>
    <g id="Guidelines" stroke="none" stroke-width="1" fill="none" fill-rule="evenodd">
        <g id="guidelines:-general" transform="translate(-656.000000, -5630.000000)" fill="#FFFFFF">
            <path d="M666,5633.75 C664.964466,5633.75 664.125,5632.91053 664.125,5631.875 C664.125,5630.83947 664.964466,5630 666,5630 C667.035534,5630 667.875,5630.83947 667.875,5631.875 C667.875,5632.91053 667.035534,5633.75 666,5633.75 Z M666,5650 C664.964466,5650 664.125,5649.16053 664.125,5648.125 C664.125,5647.08947 664.964466,5646.25 666,5646.25 C667.035534,5646.25 667.875,5647.08947 667.875,5648.125 C667.875,5649.16053 667.035534,5650 666,5650 Z M672.25,5640 C672.25,5638.96447 673.089466,5638.125 674.125,5638.125 C675.160534,5638.125 676,5638.96447 676,5640 C676,5641.03553 675.160534,5641.875 674.125,5641.875 C673.089466,5641.875 672.25,5641.03553 672.25,5640 Z M656,5640 C656,5638.96447 656.839466,5638.125 657.875,5638.125 C658.910534,5638.125 659.75,5638.96447 659.75,5640 C659.75,5641.03553 658.910534,5641.875 657.875,5641.875 C656.839466,5641.875 656,5641.03553 656,5640 Z M670.419417,5635.58058 C669.687184,5634.84835 669.687184,5633.66117 670.419417,5632.92893 C671.15165,5632.1967 672.338835,5632.1967 673.071068,5632.92893 C673.803301,5633.66117 673.803301,5634.84835 673.071068,5635.58058 C672.338835,5636.31282 671.15165,5636.31282 670.419417,5635.58058 Z M658.928932,5647.07107 C658.196699,5646.33883 658.196699,5645.15165 658.928932,5644.41942 C659.661165,5643.68718 660.84835,5643.68718 661.580583,5644.41942 C662.312816,5645.15165 662.312816,5646.33883 661.580583,5647.07107 C660.84835,5647.8033 659.661165,5647.8033 658.928932,5647.07107 Z M670.419417,5644.41942 C671.15165,5643.68718 672.338835,5643.68718 673.071068,5644.41942 C673.803301,5645.15165 673.803301,5646.33883 673.071068,5647.07107 C672.338835,5647.8033 671.15165,5647.8033 670.419417,5647.07107 C669.687184,5646.33883 669.687184,5645.15165 670.419417,5644.41942 Z M658.928932,5632.92893 C659.661165,5632.1967 660.84835,5632.1967 661.580583,5632.92893 C662.312816,5633.66117 662.312816,5634.84835 661.580583,5635.58058 C660.84835,5636.31282 659.661165,5636.31282 658.928932,5635.58058 C658.196699,5634.84835 658.196699,5633.66117 658.928932,5632.92893 Z" id="Combined-Shape"></path>
        </g>
    </g>
</svg>