<?xml version="1.0" encoding="UTF-8"?>
<svg width="16px" height="16px" viewBox="0 0 16 16" version="1.1" xmlns="http://www.w3.org/2000/svg" xmlns:xlink="http://www.w3.org/1999/xlink">
    <!-- Generator: Sketch 53.1 (72631) - https://sketchapp.com -->
    <title>icons/upload-html-icon copy</title>
    <desc>Created with Sketch.</desc>
    <g id="Datahub-MVP" stroke="none" stroke-width="1" fill="none" fill-rule="evenodd">
        <g id="reports-datahub-loading" transform="translate(-1255.000000, -764.000000)" fill="#33AD73">
            <g id="icons/info-icon" transform="translate(1255.000000, 764.000000)">
                <path d="M8,16 C3.581722,16 0,12.418278 0,8 C0,3.581722 3.581722,0 8,0 C12.418278,0 16,3.581722 16,8 C16,12.418278 12.418278,16 8,16 Z M8,14 C11.3137085,14 14,11.3137085 14,8 C14,4.6862915 11.3137085,2 8,2 C4.6862915,2 2,4.6862915 2,8 C2,11.3137085 4.6862915,14 8,14 Z M9.29980469,9.57373047 L10.2045898,9.57373047 C10.5059255,9.57373047 10.7362306,9.63248176 10.8941919,9.76865532 C11.0607141,9.91220888 11.1367188,10.1297395 11.1367188,10.4038086 C11.1367188,10.6806879 11.0602604,10.9009917 10.8935717,11.0479038 C10.7341282,11.1884303 10.5032417,11.25 10.2045898,11.25 L6.57373047,11.25 C6.27507861,11.25 6.04419211,11.1884303 5.88474858,11.0479038 C5.71805994,10.9009917 5.64160156,10.6806879 5.64160156,10.4038086 C5.64160156,10.1304883 5.71602502,9.91374633 5.87981828,9.77006803 C6.03666089,9.6324868 6.26816083,9.57373047 6.57373047,9.57373047 L7.47851562,9.57373047 L7.47851562,7.46337891 L7.12158203,7.46337891 C6.82660617,7.46337891 6.59854333,7.40279971 6.44087304,7.26415859 C6.27547273,7.11872039 6.20019531,6.89937757 6.20019531,6.62255859 C6.20019531,6.34653467 6.27271293,6.12898183 6.434082,5.9849023 C6.58933817,5.84628072 6.81892299,5.78710938 7.12158203,5.78710938 L8.73828125,5.78710938 C8.88915028,5.78710938 9.01865278,5.82174376 9.12134617,5.90047536 C9.23781791,5.98977036 9.29980469,6.1199426 9.29980469,6.26806641 L9.29980469,9.57373047 Z M8.27636719,3.359375 C8.60368011,3.359375 8.84254015,3.42832429 8.98717743,3.59706778 C9.12560855,3.75857075 9.17626953,4.04142791 9.17626953,4.47949219 C9.17626953,4.90626077 9.13090397,5.17317906 8.99869744,5.32383302 C8.85942451,5.48253938 8.61918867,5.54052734 8.265625,5.54052734 C7.92370755,5.54052734 7.68895736,5.48680342 7.54712157,5.34181573 C7.40906727,5.20069355 7.35498047,4.97953863 7.35498047,4.67285156 C7.35498047,4.16548237 7.40078675,3.84085523 7.51958926,3.66006881 C7.6587331,3.44832817 7.91796806,3.359375 8.27636719,3.359375 Z" id="Combined-Shape"></path>
            </g>
        </g>
    </g>
</svg>