<?xml version="1.0" encoding="UTF-8"?>
<svg width="39px" height="16px" viewBox="0 0 39 16" version="1.1" xmlns="http://www.w3.org/2000/svg" xmlns:xlink="http://www.w3.org/1999/xlink">
    <!-- Generator: Sketch 53.2 (72643) - https://sketchapp.com -->
    <title>icons/tip-icon</title>
    <desc>Created with Sketch.</desc>
    <g id="icons/tip-icon" stroke="none" stroke-width="1" fill="none" fill-rule="evenodd">
        <path d="M0,8 C0,3.581722 3.58173207,0 8.00992798,0 L30.990072,0 C35.4138331,0 39,3.59071231 39,8 C39,12.418278 35.4182679,16 30.990072,16 L8.00992798,16 C3.58616691,16 0,12.4092877 0,8 Z M12.984,7.952 C12.984,7.952 12,5.14 9.016,5.14 L9.008,5.14 C6.024,5.14 5.04,7.952 5.04,7.952 C4.988,8.12 4.86,8.472 5.172,8.972 C5.644,9.724 6.976,9.628 7.276,8.76 C7.276,8.76 7.632,7.476 9.012,7.468 C10.392,7.476 10.748,8.76 10.748,8.76 C11.048,9.628 12.384,9.724 12.852,8.972 C13.164,8.472 13.036,8.12 12.984,7.952 Z M23.3920898,4.52246094 L18.1450195,4.52246094 L18.1450195,5.66943359 L20.0917969,5.66943359 L20.0917969,11 L21.4541016,11 L21.4541016,5.66943359 L23.3920898,5.66943359 L23.3920898,4.52246094 Z M25.4223633,11 L25.4223633,4.52246094 L24.0776367,4.52246094 L24.0776367,11 L25.4223633,11 Z M31.0913086,8.19628906 C31.4780293,7.87988123 31.6713867,7.33935929 31.6713867,6.57470703 C31.6713867,5.87450822 31.4780293,5.35742354 31.0913086,5.0234375 C30.7045879,4.68945146 30.1860384,4.52246094 29.5356445,4.52246094 L26.7143555,4.52246094 L26.7143555,11 L28.059082,11 L28.059082,8.67089844 L29.4345703,8.67089844 C30.1523473,8.67089844 30.7045879,8.51269689 31.0913086,8.19628906 Z M30.0651855,5.86279297 C30.2424325,6.00634837 30.3310547,6.24658035 30.3310547,6.58349609 C30.3310547,6.92041184 30.2424325,7.16650313 30.0651855,7.32177734 C29.8879386,7.47705156 29.63965,7.5546875 29.3203125,7.5546875 L28.059082,7.5546875 L28.059082,5.64746094 L29.3203125,5.64746094 C29.63965,5.64746094 29.8879386,5.71923756 30.0651855,5.86279297 Z" id="Combined-Shape" fill="#FBB224"></path>
    </g>
</svg>