<?xml version="1.0" encoding="utf-8"?>
<!-- Generator: Adobe Illustrator 19.0.0, SVG Export Plug-In . SVG Version: 6.00 Build 0)  -->
<svg version="1.1" id="Layer_1" xmlns="http://www.w3.org/2000/svg" xmlns:xlink="http://www.w3.org/1999/xlink" x="0px" y="0px"
	 viewBox="1 0 16 16" style="enable-background:new 1 0 16 16;" xml:space="preserve">
<style type="text/css">
	.st0{fill:#666666;}
</style>
<title>undo-icon</title>
<desc>Created with Sketch.</desc>
<g id="_x2D_">
	<g id="undo-icon">
		<path id="Fill-1" class="st0" d="M1.2,6.2l6.5-5.1c0.3-0.2,0.7,0,0.7,0.4v2.8c2.8,0.1,4.8,1,6.4,2.6c2.3,2.4,2.2,5.5,2.2,6.2v1
			c0,0.3-0.3,0.7-0.7,0l-0.6-1c-0.9-1.5-2-2.9-3.4-3.5c-1.1-0.5-2.1-0.9-3.9-0.9v3C8.4,12,8,12.2,7.7,12L1.2,6.9
			C0.9,6.7,0.9,6.4,1.2,6.2"/>
	</g>
</g>
</svg>
