<?xml version="1.0" encoding="UTF-8"?>
<svg width="15px" height="15px" viewBox="0 0 15 15" version="1.1" xmlns="http://www.w3.org/2000/svg" xmlns:xlink="http://www.w3.org/1999/xlink">
    <!-- Generator: Sketch 61.2 (89653) - https://sketch.com -->
    <title>Combined Shape</title>
    <desc>Created with Sketch.</desc>
    <g id="Historial-del-suscriptor---estetica-nueva--backup" stroke="none" stroke-width="1" fill="none" fill-rule="evenodd">
        <g id="Estados-del-suscriptor-Copy-2" transform="translate(-34.000000, -21.000000)" fill="#33AD73">
            <path d="M44.0581541,29.311168 C44.2971518,29.1692612 44.5895118,29.147099 44.8452981,29.256031 C48.2944937,30.7246769 48.9170938,33.608672 48.998655,35.0837211 C49.0261622,35.5816796 48.6282298,36 48.1285668,36 L48.1285668,36 L34.8714019,36 C34.371739,36 33.9737682,35.5816796 34.0013522,35.0837211 C34.0829134,33.608672 34.7055135,30.7246769 38.1546707,29.256031 C38.410457,29.147099 38.7028554,29.1692612 38.9418146,29.311168 C39.392149,29.5784943 40.2659637,29.9915618 41.4496185,30.0585467 C41.4830421,30.0604638 41.5169651,30.0604638 41.5503886,30.0585467 C42.7340051,29.9915618 43.6078197,29.5784943 44.0581541,29.311168 Z M41.5566047,21.0000175 C43.8217997,20.9934402 45.6716974,22.8392645 45.6709293,25.1052881 C45.6701222,27.3704298 43.8422764,29.1983481 41.5740848,29.2022653 C39.3018977,29.20617 37.4527684,27.3668639 37.4533445,25.1035243 C37.4539593,22.8526079 39.2999,21.0065534 41.5566047,21.0000175 Z" id="Combined-Shape"></path>
        </g>
    </g>
</svg>