<?xml version="1.0" encoding="utf-8"?>
<!-- Generator: Adobe Illustrator 16.0.0, SVG Export Plug-In . SVG Version: 6.00 Build 0)  -->
<!DOCTYPE svg PUBLIC "-//W3C//DTD SVG 1.1//EN" "http://www.w3.org/Graphics/SVG/1.1/DTD/svg11.dtd">
<svg version="1.1" id="Layer_1" xmlns="http://www.w3.org/2000/svg" xmlns:xlink="http://www.w3.org/1999/xlink" x="0px" y="0px"
	 width="24px" height="24px" viewBox="0 0 24 24" enable-background="new 0 0 24 24" xml:space="preserve">
<path fill="#020202" d="M12,16.75c-2.764,0-5-2.121-5-4.75s2.236-4.75,5-4.75s5,2.121,5,4.75S14.764,16.75,12,16.75z M12,4.871
	C6.873,4.871,2,10.396,2,12c0,1.604,4.873,7.129,10,7.129c5.128,0,10-5.525,10-7.129C22,10.396,17.128,4.871,12,4.871z M12,9.621
	C12,10.94,10.882,12,9.5,12c0,1.311,1.118,2.379,2.5,2.379s2.5-1.068,2.5-2.379S13.382,9.621,12,9.621z"/>
</svg>
