<?xml version="1.0" encoding="UTF-8" standalone="no"?>
<svg width="18px" height="18px" viewBox="0 0 18 18" version="1.1" xmlns="http://www.w3.org/2000/svg" xmlns:xlink="http://www.w3.org/1999/xlink">
    <!-- Generator: Sketch 42 (36781) - http://www.bohemiancoding.com/sketch -->
    <title>warning-icon</title>
    <desc>Created with Sketch.</desc>
    <defs></defs>
    <g id="-" stroke="none" stroke-width="1" fill="none" fill-rule="evenodd">
        <g id="warning-icon" fill="#FBB224">
            <path d="M9.99115467,0.546757885 L17.8662682,16.296985 C18.0530209,16.6457401 18.0440208,17.0889965 17.8403929,17.4298764 C17.6378899,17.7696313 17.2711347,18.0002596 16.8751289,18.0002596 L1.1249018,18.0002596 C0.72889609,18.0002596 0.362140801,17.7696313 0.15963788,17.4298764 C-0.0439900565,17.0889965 -0.0529901863,16.6457401 0.133762507,16.296985 L8.00887608,0.546757885 C8.40263176,-0.182252628 9.59739899,-0.182252628 9.99115467,0.546757885 Z M10.1250316,10.0801454 L10.1250316,6.7050967 C10.1250316,6.08408774 9.62214935,5.58008048 9.00001537,5.58008048 C8.3778814,5.58008048 7.87499915,6.08408774 7.87499915,6.7050967 L7.87499915,10.0801454 C7.87499915,10.7011543 8.3778814,11.2051616 9.00001537,11.2051616 C9.62214935,11.2051616 10.1250316,10.7011543 10.1250316,10.0801454 Z M7.87499915,13.455194 C7.87499915,14.076203 8.37900642,14.5802103 9.00001537,14.5802103 C9.62102433,14.5802103 10.1250316,14.076203 10.1250316,13.455194 C10.1250316,12.8341851 9.62102433,12.3301778 9.00001537,12.3301778 C8.37900642,12.3301778 7.87499915,12.8341851 7.87499915,13.455194 Z" id="Combined-Shape"></path>
        </g>
    </g>
</svg>