<?xml version="1.0" encoding="UTF-8" standalone="no"?>
<svg width="8px" height="8px" viewBox="0 0 8 8" version="1.1" xmlns="http://www.w3.org/2000/svg" xmlns:xlink="http://www.w3.org/1999/xlink">
    <!-- Generator: Sketch 47.1 (45422) - http://www.bohemiancoding.com/sketch -->
    <title>icons/zoom-in</title>
    <desc>Created with Sketch.</desc>
    <defs></defs>
    <g id="Icons" stroke="none" stroke-width="1" fill="none" fill-rule="evenodd">
        <g id="icons/zoom-in" fill-rule="nonzero" fill="#666666">
            <path d="M3,3 L1,3 C0.432310255,3 -4.54747351e-13,3.44771525 -4.54747351e-13,4 C-4.54747351e-13,4.55228475 0.432310255,5 1,5 L3,5 L3,7 C3,7.56768974 3.44771525,8 4,8 C4.55228475,8 5,7.56768974 5,7 L5,5 L7,5 C7.56768974,5 8,4.55228475 8,4 C8,3.44771525 7.56768974,3 7,3 L5,3 L5,1 C5,0.432310255 4.55228475,0 4,0 C3.44771525,0 3,0.432310255 3,1 L3,3 Z" id="Combined-Shape"></path>
        </g>
    </g>
</svg>