<?xml version="1.0" encoding="UTF-8" standalone="no"?>
<svg width="16px" height="16px" viewBox="0 0 16 16" version="1.1" xmlns="http://www.w3.org/2000/svg" xmlns:xlink="http://www.w3.org/1999/xlink">
    <!-- Generator: Sketch 47.1 (45422) - http://www.bohemiancoding.com/sketch -->
    <title>icons/zoom-fit-to-scale</title>
    <desc>Created with Sketch.</desc>
    <defs></defs>
    <g id="Icons" stroke="none" stroke-width="1" fill="none" fill-rule="evenodd">
        <g id="icons/zoom-fit-to-scale" fill-rule="nonzero" fill="#666666">
            <path d="M6,10 L10,10 L10,6 L6,6 L6,10 Z M5,4 L11,4 C11.5522847,4 12,4.44771525 12,5 L12,11 C12,11.5522847 11.5522847,12 11,12 L5,12 C4.44771525,12 4,11.5522847 4,11 L4,5 C4,4.44771525 4.44771525,4 5,4 Z M5,2 L2,2 L2,5 C1.97842537,5.56420113 1.53553977,6 1,6 C0.442885606,6 0,5.56420113 0,5 L0,1 C0,0.435798875 0.442885606,0 1,0 L5,0 C5.55711439,0 6,0.435798875 6,1 C6,1.51096919 5.55711439,1.94676806 5,2 Z M2,11 L2,14 L5,14 C5.55711439,14.0532319 6,14.4890308 6,15 C6,15.5642011 5.55711439,16 5,16 L1,16 C0.442885606,16 0,15.5642011 0,15 L0,11 C0,10.4357989 0.442885606,10 1,10 C1.53553977,10 1.97842537,10.4357989 2,11 Z M14,2 L11,2 C10.4428856,1.94676806 10,1.51096919 10,1 C10,0.435798875 10.4428856,0 11,0 L15,0 C15.5571144,0 16,0.435798875 16,1 L16,5 C16,5.56420113 15.5571144,6 15,6 C14.4644602,6 14.0215746,5.56420113 14,5 L14,2 Z M11,14 L14,14 L14,11 C14.0215746,10.4357989 14.4644602,10 15,10 C15.5571144,10 16,10.4357989 16,11 L16,15 C16,15.5642011 15.5571144,16 15,16 L11,16 C10.4428856,16 10,15.5642011 10,15 C10,14.4890308 10.4428856,14.0532319 11,14 Z" id="Combined-Shape"></path>
        </g>
    </g>
</svg>